<?xml version="1.0" encoding="utf-8"?>
<!-- Generator: Adobe Illustrator 16.0.0, SVG Export Plug-In . SVG Version: 6.00 Build 0)  -->
<!DOCTYPE svg PUBLIC "-//W3C//DTD SVG 1.1//EN" "http://www.w3.org/Graphics/SVG/1.1/DTD/svg11.dtd">
<svg version="1.1" id="Layer_1" xmlns="http://www.w3.org/2000/svg" xmlns:xlink="http://www.w3.org/1999/xlink" x="0px" y="0px"
	 width="93px" height="60px" viewBox="0 0 93 60" enable-background="new 0 0 93 60" xml:space="preserve">
<g>
	<g>
		<rect x="0.746" y="0.733" fill-rule="evenodd" clip-rule="evenodd" fill="#FFFFFF" width="91.509" height="58.533"/>
		<path fill="#536B8B" d="M92.255,60H0.746C0.333,60,0,59.672,0,59.267V0.733C0,0.328,0.333,0,0.746,0h91.509
			C92.667,0,93,0.328,93,0.733v58.533C93,59.672,92.667,60,92.255,60z M1.491,58.533h90.018V1.466H1.491V58.533z"/>
	</g>
	<g>
		<rect x="49.29" y="13.594" fill-rule="evenodd" clip-rule="evenodd" fill="#FFFFFF" width="34.939" height="40.022"/>
		<path fill="#536B8B" d="M84.229,54.349H49.29c-0.411,0-0.744-0.328-0.744-0.732V13.594c0-0.405,0.333-0.734,0.744-0.734h34.939
			c0.412,0,0.746,0.329,0.746,0.734v40.022C84.976,54.021,84.642,54.349,84.229,54.349z M50.037,52.882h33.447V14.328H50.037V52.882
			z"/>
	</g>
	<g>
		<rect x="51.71" y="15.873" fill-rule="evenodd" clip-rule="evenodd" fill="#DBF9FF" width="30.1" height="35.463"/>
	</g>
	<g>
		<rect x="0.746" y="0.733" fill-rule="evenodd" clip-rule="evenodd" fill="#536B8B" width="91.509" height="9.119"/>
	</g>
	<g>
		<path fill-rule="evenodd" clip-rule="evenodd" fill="#FDD26A" d="M7.477,7.635c1.194,0,2.167-0.958,2.167-2.133
			c0-1.176-0.973-2.134-2.167-2.134c-1.195,0-2.168,0.958-2.168,2.134C5.309,6.678,6.282,7.635,7.477,7.635z"/>
	</g>
	<g>
		<path fill-rule="evenodd" clip-rule="evenodd" fill="#F1877A" d="M14.645,7.635c1.194,0,2.168-0.958,2.168-2.133
			c0-1.176-0.974-2.134-2.168-2.134c-1.193,0-2.167,0.958-2.167,2.134C12.477,6.678,13.451,7.635,14.645,7.635z"/>
	</g>
	<g>
		<path fill-rule="evenodd" clip-rule="evenodd" fill="#23CCF0" d="M21.812,7.635c1.194,0,2.167-0.958,2.167-2.133
			c0-1.176-0.974-2.134-2.167-2.134s-2.168,0.958-2.168,2.134C19.644,6.678,20.618,7.635,21.812,7.635z"/>
	</g>
	<g>
		<rect x="22.782" y="20.888" fill="#EF6E65" width="7.865" height="2.75"/>
	</g>
	<g>
		<rect x="6.11" y="20.888" fill="#A5AFC1" width="14.506" height="2.75"/>
	</g>
	<g>
		<rect x="6.11" y="28.901" fill="#A5AFC1" width="16.085" height="2.751"/>
	</g>
	<g>
		<rect x="6.11" y="36.18" fill="#A5AFC1" width="30.347" height="2.75"/>
	</g>
	<g>
		<rect x="28.057" y="43.459" fill="#FDD26A" width="7.103" height="2.752"/>
	</g>
	<g>
		<rect x="6.11" y="43.459" fill="#A5AFC1" width="20.312" height="2.752"/>
	</g>
	<g>
		<path fill="#536B8B" d="M60.558,33.563l-0.739-5.804c-0.235-1.845,0.278-3.675,1.444-5.154c1.168-1.479,2.843-2.42,4.718-2.651
			c3.891-0.481,7.446,2.239,7.934,6.064l0.194,1.529l-1.264,0.157l-0.195-1.529c-0.4-3.139-3.323-5.366-6.51-4.976
			c-1.536,0.189-2.912,0.962-3.869,2.177c-0.959,1.212-1.38,2.715-1.188,4.227l0.74,5.805L60.558,33.563z"/>
	</g>
	<g>
		<path fill-rule="evenodd" clip-rule="evenodd" fill="#EF6E65" d="M57.907,31.191h17.705c0.798,0,1.448,0.641,1.448,1.426v11.404
			c0,0.783-0.65,1.426-1.448,1.426H57.907c-0.797,0-1.448-0.643-1.448-1.426V32.617C56.459,31.832,57.11,31.191,57.907,31.191z"/>
		<path fill="#536B8B" d="M75.612,46.181H57.907c-1.21,0-2.195-0.969-2.195-2.159V32.617c0-1.19,0.985-2.159,2.195-2.159h17.705
			c1.21,0,2.194,0.969,2.194,2.159v11.404C77.807,45.212,76.822,46.181,75.612,46.181z M57.907,31.926
			c-0.388,0-0.704,0.31-0.704,0.691v11.404c0,0.381,0.316,0.691,0.704,0.691h17.705c0.388,0,0.703-0.311,0.703-0.691V32.617
			c0-0.382-0.315-0.691-0.703-0.691H57.907z"/>
	</g>
	<g>
		<path fill-rule="evenodd" clip-rule="evenodd" fill="#FDD26A" d="M59.908,33.117h13.703c0.616,0,1.12,0.495,1.12,1.102v8.2
			c0,0.605-0.504,1.103-1.12,1.103H59.908c-0.616,0-1.121-0.496-1.121-1.103v-8.2C58.787,33.612,59.292,33.117,59.908,33.117z"/>
	</g>
	<g>
		<path fill-rule="evenodd" clip-rule="evenodd" fill="#536B8B" d="M66.761,38.136c0.956,0,1.738-0.768,1.738-1.711
			c0-0.941-0.782-1.71-1.738-1.71c-0.958,0-1.739,0.769-1.739,1.71C65.021,37.368,65.803,38.136,66.761,38.136z"/>
	</g>
	<g>
		<polygon fill-rule="evenodd" clip-rule="evenodd" fill="#536B8B" points="66.761,35.804 67.56,38.702 68.359,41.602 
			66.761,41.602 65.159,41.602 65.96,38.702 		"/>
	</g>
	<g>
		<rect x="24.33" y="28.901" fill="#EF6E65" width="14.187" height="2.751"/>
	</g>
</g>
</svg>
