<?xml version="1.0" encoding="utf-8"?>
<!-- Generator: Adobe Illustrator 16.0.0, SVG Export Plug-In . SVG Version: 6.00 Build 0)  -->
<!DOCTYPE svg PUBLIC "-//W3C//DTD SVG 1.1//EN" "http://www.w3.org/Graphics/SVG/1.1/DTD/svg11.dtd">
<svg version="1.1" id="Layer_1" xmlns="http://www.w3.org/2000/svg" xmlns:xlink="http://www.w3.org/1999/xlink" x="0px" y="0px"
	 width="74px" height="85px" viewBox="0 0 74 85" enable-background="new 0 0 74 85" xml:space="preserve">
<g>
	<g>
		<path fill-rule="evenodd" clip-rule="evenodd" fill="#DBF1FA" d="M61.269,55.464l3.313,0.473l1.305-4.332l-3.033-1.399
			c0.084-1.347-0.063-2.714-0.452-4.049l2.65-2.02l-2.233-3.95l-3.123,1.182c-0.857-0.93-1.844-1.704-2.917-2.313l0.491-3.278
			l-4.379-1.302l-1.417,2.996c-1.37-0.084-2.763,0.06-4.12,0.45l-2.04-2.625l-3.987,2.21l1.192,3.091
			c-0.948,0.854-1.731,1.838-2.349,2.907l-3.313-0.477l-1.309,4.339l3.032,1.395c-0.082,1.351,0.065,2.717,0.453,4.056l-2.651,2.018
			l2.234,3.947l3.122-1.181c0.857,0.93,1.843,1.702,2.917,2.311l-0.488,3.279l4.378,1.304l1.417-2.995
			c1.367,0.083,2.762-0.063,4.121-0.451l2.038,2.627l3.99-2.214l-1.19-3.091C59.865,57.516,60.647,56.534,61.269,55.464
			L61.269,55.464z M53.654,54.67c-2.896,1.605-6.558,0.584-8.177-2.281c-1.62-2.865-0.588-6.49,2.306-8.093
			c2.897-1.604,6.557-0.582,8.179,2.283C57.582,49.445,56.546,53.067,53.654,54.67z"/>
		<path fill="#536B8B" d="M48.545,65.243c-0.073,0-0.146-0.01-0.219-0.031l-4.378-1.305c-0.359-0.107-0.585-0.458-0.53-0.825
			l0.415-2.785c-0.834-0.517-1.604-1.126-2.295-1.819l-2.651,1.005c-0.351,0.128-0.747-0.01-0.931-0.335L35.723,55.2
			c-0.183-0.325-0.098-0.733,0.199-0.959l2.252-1.715c-0.267-1.082-0.391-2.187-0.368-3.297l-2.577-1.185
			c-0.341-0.156-0.514-0.536-0.406-0.894l1.309-4.337c0.108-0.355,0.471-0.577,0.833-0.526l2.815,0.406
			c0.53-0.838,1.151-1.606,1.854-2.294l-1.013-2.625c-0.135-0.347,0.008-0.738,0.336-0.92l3.988-2.21
			c0.327-0.183,0.738-0.099,0.969,0.197l1.731,2.229c1.095-0.268,2.221-0.39,3.357-0.366l1.204-2.545
			c0.158-0.334,0.544-0.506,0.901-0.398l4.377,1.301c0.359,0.107,0.585,0.458,0.53,0.826l-0.415,2.784
			c0.835,0.52,1.604,1.13,2.296,1.82l2.652-1.004c0.35-0.132,0.745,0.01,0.93,0.334l2.231,3.949
			c0.184,0.324,0.099,0.732-0.198,0.959l-2.251,1.715c0.269,1.079,0.393,2.184,0.369,3.294l2.575,1.188
			c0.34,0.155,0.512,0.535,0.404,0.892l-1.304,4.333c-0.107,0.355-0.462,0.582-0.833,0.527l-2.814-0.403
			c-0.53,0.84-1.151,1.607-1.852,2.296l1.011,2.625c0.135,0.346-0.009,0.737-0.337,0.919l-3.989,2.213
			c-0.328,0.183-0.74,0.098-0.969-0.197L53.79,61.9c-1.097,0.269-2.228,0.386-3.357,0.368l-1.203,2.545
			C49.102,65.082,48.831,65.243,48.545,65.243z M45.01,62.66l3.127,0.933l1.141-2.41c0.132-0.278,0.418-0.458,0.732-0.431
			c1.293,0.078,2.608-0.062,3.862-0.421c0.3-0.087,0.621,0.019,0.81,0.262l1.64,2.113l2.853-1.581l-0.959-2.485
			c-0.11-0.286-0.033-0.612,0.195-0.819c0.866-0.784,1.607-1.703,2.202-2.729c0.154-0.267,0.457-0.412,0.765-0.368l2.667,0.382
			l0.932-3.096l-2.44-1.125c-0.281-0.131-0.454-0.417-0.437-0.724c0.08-1.282-0.063-2.561-0.423-3.798
			c-0.086-0.295,0.019-0.611,0.265-0.799l2.132-1.625l-1.594-2.821l-2.514,0.951c-0.289,0.108-0.619,0.032-0.829-0.195
			c-0.788-0.857-1.709-1.586-2.732-2.167c-0.271-0.153-0.417-0.454-0.372-0.758l0.395-2.638l-3.127-0.93l-1.14,2.41
			c-0.133,0.278-0.428,0.443-0.732,0.43c-1.302-0.082-2.611,0.063-3.862,0.421c-0.297,0.086-0.62-0.019-0.81-0.263l-1.642-2.111
			l-2.849,1.579l0.961,2.487c0.109,0.287,0.031,0.613-0.197,0.819c-0.869,0.785-1.61,1.701-2.202,2.727
			c-0.154,0.268-0.457,0.416-0.766,0.369l-2.667-0.384l-0.935,3.099l2.441,1.123c0.282,0.129,0.454,0.415,0.436,0.723
			c-0.077,1.282,0.065,2.562,0.425,3.803c0.085,0.296-0.02,0.611-0.266,0.801l-2.132,1.621l1.595,2.821l2.511-0.95
			c0.289-0.111,0.619-0.031,0.828,0.195c0.793,0.859,1.713,1.587,2.733,2.164c0.271,0.153,0.419,0.455,0.373,0.76L45.01,62.66z
			 M50.723,56.178c-2.447,0-4.71-1.313-5.905-3.424c-1.82-3.223-0.657-7.309,2.596-9.11c1.01-0.559,2.15-0.854,3.301-0.854
			c2.447,0,4.712,1.312,5.907,3.425c0.882,1.562,1.097,3.368,0.606,5.09c-0.491,1.719-1.63,3.147-3.204,4.02
			C53.015,55.883,51.872,56.178,50.723,56.178z M50.714,44.285c-0.893,0-1.778,0.229-2.562,0.664
			c-2.526,1.399-3.43,4.572-2.017,7.074c0.928,1.641,2.685,2.659,4.587,2.659c0.893,0,1.778-0.229,2.563-0.665
			c1.223-0.678,2.106-1.786,2.487-3.122s0.215-2.738-0.47-3.951C54.373,45.305,52.616,44.285,50.714,44.285z"/>
	</g>
	<g>
		<path fill="#536B8B" d="M50.131,72.505c-0.007,0-0.015,0-0.021-0.001c-1.034-0.027-2.081-0.125-3.108-0.289
			c-0.412-0.065-0.692-0.451-0.625-0.859c0.067-0.409,0.462-0.681,0.866-0.618c0.963,0.153,1.939,0.245,2.906,0.272
			c0.419,0.011,0.747,0.354,0.736,0.768C50.875,72.184,50.538,72.505,50.131,72.505z M53.147,72.385
			c-0.381,0-0.709-0.284-0.75-0.668c-0.046-0.41,0.255-0.78,0.669-0.824c0.967-0.104,1.934-0.271,2.876-0.502
			c0.403-0.101,0.814,0.145,0.915,0.546s-0.146,0.808-0.553,0.906c-1.007,0.245-2.04,0.428-3.074,0.538
			C53.203,72.383,53.175,72.385,53.147,72.385z M44.18,71.549c-0.071,0-0.146-0.011-0.219-0.032
			c-0.992-0.297-1.975-0.666-2.921-1.093c-0.38-0.17-0.547-0.615-0.373-0.99c0.174-0.376,0.62-0.543,1.001-0.372
			c0.884,0.401,1.803,0.743,2.731,1.022c0.399,0.119,0.625,0.537,0.505,0.934C44.805,71.34,44.505,71.549,44.18,71.549z
			 M58.999,70.953c-0.3,0-0.584-0.179-0.702-0.474c-0.153-0.384,0.036-0.817,0.425-0.971c0.898-0.354,1.787-0.771,2.638-1.241
			c0.681-0.378,1.348-0.795,1.979-1.237c0.34-0.239,0.814-0.16,1.055,0.177c0.241,0.338,0.161,0.804-0.18,1.044
			c-0.676,0.473-1.386,0.919-2.115,1.322c-0.909,0.502-1.857,0.949-2.819,1.326C59.188,70.935,59.094,70.953,58.999,70.953z
			 M38.695,69.072c-0.137,0-0.276-0.037-0.401-0.116c-0.88-0.548-1.729-1.16-2.524-1.82c-0.32-0.266-0.361-0.737-0.094-1.052
			c0.27-0.318,0.745-0.36,1.065-0.095c0.743,0.616,1.537,1.188,2.359,1.701c0.352,0.22,0.459,0.682,0.235,1.031
			C39.192,68.947,38.947,69.072,38.695,69.072z M66.117,66.498c-0.202,0-0.404-0.08-0.553-0.238
			c-0.285-0.301-0.27-0.775,0.037-1.057c0.706-0.653,1.377-1.364,1.992-2.111c0.263-0.319,0.737-0.369,1.063-0.105
			c0.323,0.259,0.371,0.731,0.107,1.053c-0.656,0.797-1.374,1.557-2.131,2.257C66.487,66.431,66.302,66.498,66.117,66.498z
			 M34.077,65.24c-0.205,0-0.41-0.083-0.559-0.244c-0.698-0.76-1.353-1.575-1.939-2.422c-0.237-0.341-0.151-0.807,0.193-1.041
			s0.814-0.148,1.052,0.192c0.55,0.792,1.161,1.554,1.813,2.263c0.281,0.306,0.258,0.778-0.05,1.057
			C34.44,65.176,34.258,65.24,34.077,65.24z M69.923,61.874c-0.134,0-0.271-0.036-0.394-0.11c-0.355-0.216-0.468-0.677-0.25-1.029
			c0.506-0.817,0.961-1.678,1.353-2.56c0.168-0.379,0.615-0.55,0.996-0.383c0.382,0.167,0.556,0.607,0.388,0.986
			c-0.419,0.942-0.905,1.862-1.446,2.737C70.427,61.747,70.177,61.874,69.923,61.874z M30.655,60.328
			c-0.275,0-0.541-0.148-0.673-0.408c-0.474-0.919-0.886-1.875-1.229-2.842c-0.139-0.39,0.069-0.816,0.463-0.952
			c0.394-0.136,0.825,0.068,0.963,0.458c0.32,0.903,0.706,1.797,1.148,2.656c0.188,0.368,0.041,0.819-0.332,1.006
			C30.888,60.302,30.771,60.328,30.655,60.328z M72.355,56.414c-0.071,0-0.14-0.011-0.21-0.029
			c-0.402-0.115-0.633-0.529-0.518-0.927c0.271-0.922,0.479-1.873,0.623-2.823c0.061-0.409,0.446-0.695,0.858-0.63
			c0.412,0.061,0.697,0.442,0.637,0.85c-0.153,1.018-0.377,2.032-0.666,3.02C72.985,56.2,72.683,56.414,72.355,56.414z
			 M28.661,54.696c-0.351,0-0.666-0.243-0.739-0.598c-0.209-1.008-0.349-2.039-0.418-3.064c-0.027-0.411,0.287-0.769,0.705-0.795
			c0.424-0.02,0.776,0.284,0.803,0.696c0.065,0.957,0.197,1.92,0.391,2.862c0.084,0.405-0.179,0.8-0.588,0.883
			C28.763,54.691,28.711,54.696,28.661,54.696z M73.243,50.513c-0.005,0-0.009,0-0.014,0c-0.416-0.007-0.75-0.348-0.743-0.762
			l0.003-0.297c-0.001-0.863-0.054-1.734-0.158-2.587c-0.051-0.409,0.245-0.782,0.659-0.832c0.4-0.053,0.792,0.242,0.842,0.653
			C73.943,47.599,74,48.53,74,49.454l-0.002,0.324C73.991,50.187,73.654,50.513,73.243,50.513z M28.259,48.743
			c-0.017,0-0.035-0.001-0.051-0.002c-0.417-0.027-0.732-0.383-0.703-0.796c0.069-1.025,0.21-2.056,0.418-3.063
			c0.083-0.405,0.485-0.67,0.891-0.583c0.41,0.082,0.672,0.478,0.589,0.882c-0.194,0.942-0.326,1.906-0.391,2.864
			C28.986,48.441,28.654,48.743,28.259,48.743z M72.515,44.589c-0.335,0-0.642-0.223-0.731-0.558
			c-0.245-0.931-0.559-1.851-0.929-2.74c-0.159-0.382,0.025-0.819,0.411-0.976c0.382-0.159,0.827,0.024,0.986,0.406
			c0.396,0.95,0.729,1.936,0.994,2.931c0.105,0.399-0.136,0.808-0.54,0.914C72.643,44.582,72.578,44.589,72.515,44.589z
			 M29.464,42.897c-0.082,0-0.166-0.013-0.248-0.042c-0.395-0.136-0.604-0.562-0.467-0.952c0.341-0.969,0.751-1.926,1.22-2.845
			c0.188-0.368,0.644-0.516,1.015-0.33c0.374,0.187,0.522,0.637,0.333,1.006c-0.438,0.858-0.822,1.753-1.14,2.66
			C30.069,42.704,29.776,42.897,29.464,42.897z M70.219,39.072c-0.262,0-0.516-0.134-0.655-0.374
			c-0.487-0.834-1.035-1.641-1.626-2.4c-0.256-0.327-0.195-0.796,0.136-1.049c0.331-0.254,0.806-0.192,1.06,0.135
			c0.633,0.811,1.218,1.675,1.739,2.566c0.209,0.357,0.085,0.815-0.275,1.022C70.477,39.04,70.347,39.072,70.219,39.072z
			 M32.184,37.573c-0.147,0-0.297-0.042-0.428-0.131c-0.344-0.235-0.43-0.701-0.194-1.041c0.588-0.846,1.241-1.662,1.939-2.422
			c0.282-0.306,0.76-0.327,1.068-0.05c0.309,0.277,0.332,0.75,0.051,1.057c-0.653,0.711-1.263,1.472-1.813,2.263
			C32.661,37.46,32.425,37.573,32.184,37.573z M66.532,34.352c-0.19,0-0.384-0.071-0.53-0.216c-0.689-0.672-1.434-1.307-2.213-1.885
			c-0.333-0.248-0.4-0.717-0.15-1.047c0.249-0.33,0.725-0.399,1.059-0.15c0.833,0.618,1.628,1.296,2.365,2.017
			c0.298,0.29,0.301,0.764,0.008,1.058C66.922,34.277,66.728,34.352,66.532,34.352z M36.24,33.16c-0.216,0-0.43-0.09-0.58-0.268
			c-0.268-0.317-0.226-0.789,0.095-1.053c0.792-0.658,1.64-1.271,2.521-1.821c0.351-0.222,0.819-0.118,1.042,0.233
			c0.225,0.35,0.117,0.811-0.235,1.032c-0.822,0.515-1.616,1.087-2.359,1.703C36.584,33.103,36.412,33.16,36.24,33.16z
			 M61.71,30.773c-0.125,0-0.251-0.031-0.368-0.095c-0.845-0.467-1.733-0.882-2.638-1.236c-0.39-0.151-0.581-0.585-0.428-0.97
			c0.152-0.385,0.591-0.575,0.98-0.422c0.968,0.376,1.917,0.821,2.821,1.321c0.365,0.202,0.496,0.657,0.292,1.018
			C62.232,30.635,61.976,30.773,61.71,30.773z M41.336,29.972c-0.285,0-0.561-0.162-0.687-0.436
			c-0.176-0.375-0.009-0.82,0.371-0.992c0.944-0.431,1.926-0.801,2.918-1.101c0.4-0.118,0.822,0.103,0.943,0.497
			c0.122,0.395-0.103,0.813-0.502,0.935c-0.926,0.28-1.845,0.626-2.729,1.028C41.549,29.95,41.441,29.972,41.336,29.972z
			 M56.103,28.588c-0.06,0-0.121-0.007-0.182-0.022c-0.945-0.229-1.912-0.398-2.875-0.501c-0.415-0.045-0.715-0.414-0.671-0.825
			c0.046-0.412,0.42-0.712,0.832-0.664c1.03,0.111,2.064,0.292,3.074,0.538c0.406,0.098,0.654,0.503,0.554,0.905
			C56.751,28.36,56.442,28.588,56.103,28.588z M47.099,28.229c-0.363,0-0.684-0.261-0.744-0.627
			c-0.067-0.408,0.211-0.793,0.624-0.859c1.022-0.166,2.068-0.264,3.108-0.29c0.438-0.028,0.766,0.313,0.776,0.727
			c0.01,0.413-0.319,0.758-0.735,0.768c-0.972,0.026-1.95,0.118-2.905,0.272C47.181,28.226,47.14,28.229,47.099,28.229z"/>
	</g>
	<g>
		<rect x="0" y="13.971" fill-rule="evenodd" clip-rule="evenodd" fill="#536B8B" width="51.99" height="71.029"/>
	</g>
	<g>
		<rect x="4.009" y="15.67" fill-rule="evenodd" clip-rule="evenodd" fill="#FFFFFF" width="43.971" height="64.607"/>
	</g>
	<g>
		<path fill-rule="evenodd" clip-rule="evenodd" fill="#FDD26A" d="M15.128,11.749h8.286V8.987c-1.311-0.773-2.191-2.189-2.191-3.81
			c0-2.446,2.005-4.43,4.477-4.43c2.471,0,4.476,1.984,4.476,4.43c0,1.621-0.879,3.037-2.192,3.81v2.761h8.286
			c0.629,0,1.143,0.509,1.143,1.131v4.902c0,0.623-0.514,1.131-1.143,1.131H15.128c-0.629,0-1.143-0.508-1.143-1.131V12.88
			C13.985,12.257,14.5,11.749,15.128,11.749L15.128,11.749z M25.7,3.128c-1.144,0-2.072,0.918-2.072,2.05
			c0,1.132,0.928,2.049,2.072,2.049c1.143,0,2.07-0.917,2.07-2.049C27.77,4.046,26.843,3.128,25.7,3.128z"/>
		<path fill="#536B8B" d="M36.269,19.661H15.128c-1.046,0-1.898-0.843-1.898-1.879V12.88c0-1.037,0.852-1.879,1.898-1.879h7.529
			v-1.61c-1.361-0.966-2.189-2.543-2.189-4.213C20.468,2.323,22.814,0,25.7,0c2.884,0,5.23,2.323,5.23,5.178
			c0,1.67-0.829,3.247-2.189,4.213V11h7.528c1.046,0,1.899,0.843,1.899,1.879v4.902C38.168,18.818,37.315,19.661,36.269,19.661z
			 M15.128,12.498c-0.214,0-0.386,0.171-0.386,0.382v4.902c0,0.208,0.176,0.383,0.386,0.383h21.141c0.21,0,0.387-0.175,0.387-0.383
			V12.88c0-0.211-0.173-0.382-0.387-0.382h-8.286c-0.417,0-0.755-0.335-0.755-0.749V8.987c0-0.263,0.141-0.508,0.369-0.643
			c1.141-0.672,1.82-1.855,1.82-3.167c0-2.03-1.667-3.682-3.718-3.682c-2.052,0-3.72,1.651-3.72,3.682
			c0,1.291,0.697,2.504,1.82,3.167c0.229,0.135,0.369,0.379,0.369,0.643v2.761c0,0.414-0.337,0.749-0.755,0.749H15.128z M25.7,7.976
			c-1.56,0-2.827-1.255-2.827-2.798S24.14,2.38,25.7,2.38c1.558,0,2.825,1.255,2.825,2.798S27.258,7.976,25.7,7.976z M25.7,3.876
			c-0.726,0-1.316,0.583-1.316,1.302c0,0.718,0.59,1.301,1.316,1.301c0.724,0,1.314-0.583,1.314-1.301
			C27.014,4.459,26.423,3.876,25.7,3.876z"/>
	</g>
	<g>
		<path fill-rule="evenodd" clip-rule="evenodd" fill="#F9BB52" d="M36.674,15.67v2.111c0,0.292-0.242,0.533-0.537,0.533H15.263
			c-0.296,0-0.538-0.24-0.538-0.533V15.67H36.674z"/>
	</g>
	<g>
		<path fill="#536B8B" d="M17.262,43.403H9.438c-0.418,0-0.756-0.335-0.756-0.748V34.91c0-0.414,0.337-0.748,0.756-0.748h7.824
			c0.418,0,0.756,0.334,0.756,0.748v7.745C18.018,43.068,17.681,43.403,17.262,43.403z M10.194,41.907h6.313v-6.249h-6.313V41.907z"
			/>
	</g>
	<g>
		<path fill="#EF6E65" d="M13.242,40.535c-0.213,0-0.418-0.089-0.563-0.248l-2.494-2.751c-0.279-0.308-0.254-0.781,0.058-1.057
			c0.31-0.275,0.788-0.25,1.068,0.058l1.763,1.945l3.415-6.524c0.192-0.368,0.65-0.509,1.02-0.32c0.37,0.19,0.516,0.642,0.323,1.009
			l-3.918,7.486c-0.114,0.217-0.329,0.366-0.576,0.397C13.306,40.533,13.274,40.535,13.242,40.535z"/>
	</g>
	<g>
		<rect x="21.105" y="35.756" fill-rule="evenodd" clip-rule="evenodd" fill="#23CCF0" width="18.862" height="3.127"/>
		<path fill="#536B8B" d="M39.967,39.632H21.105c-0.417,0-0.755-0.335-0.755-0.749v-3.127c0-0.414,0.338-0.748,0.755-0.748h18.862
			c0.418,0,0.757,0.334,0.757,0.748v3.127C40.724,39.297,40.385,39.632,39.967,39.632z M21.861,38.136h17.35v-1.632h-17.35V38.136z"
			/>
	</g>
	<g>
		<path fill="#536B8B" d="M32.71,42.713H21.439c-0.418,0-0.756-0.335-0.756-0.749s0.338-0.748,0.756-0.748H32.71
			c0.417,0,0.755,0.334,0.755,0.748S33.128,42.713,32.71,42.713z"/>
	</g>
	<g>
		<path fill="#536B8B" d="M17.262,59.71H9.438c-0.418,0-0.756-0.335-0.756-0.749v-7.744c0-0.413,0.337-0.748,0.756-0.748h7.824
			c0.418,0,0.756,0.335,0.756,0.748v7.744C18.018,59.375,17.681,59.71,17.262,59.71z M10.194,58.214h6.313v-6.248h-6.313V58.214z"/>
	</g>
	<g>
		<path fill="#536B8B" d="M17.262,76.018H9.438c-0.418,0-0.756-0.334-0.756-0.749v-7.745c0-0.412,0.337-0.747,0.756-0.747h7.824
			c0.418,0,0.756,0.335,0.756,0.747v7.745C18.018,75.684,17.681,76.018,17.262,76.018z M10.194,74.521h6.313v-6.248h-6.313V74.521z"
			/>
	</g>
	<g>
		<path fill="#EF6E65" d="M13.242,56.842c-0.213,0-0.418-0.09-0.562-0.249l-2.495-2.751c-0.279-0.307-0.254-0.78,0.058-1.057
			c0.31-0.275,0.788-0.25,1.066,0.058l1.765,1.946l3.415-6.524c0.192-0.368,0.65-0.511,1.02-0.319
			c0.37,0.188,0.516,0.641,0.323,1.008l-3.918,7.484c-0.114,0.218-0.329,0.367-0.576,0.398
			C13.306,56.84,13.274,56.842,13.242,56.842z"/>
	</g>
	<g>
		<path fill="#EF6E65" d="M13.242,73.146c-0.213,0-0.418-0.089-0.562-0.246l-2.495-2.75c-0.279-0.309-0.254-0.781,0.058-1.057
			c0.31-0.276,0.788-0.251,1.066,0.056l1.765,1.945l3.415-6.523c0.192-0.367,0.65-0.51,1.02-0.319
			c0.37,0.189,0.516,0.642,0.323,1.007l-3.918,7.486c-0.114,0.217-0.329,0.365-0.576,0.396
			C13.306,73.146,13.274,73.146,13.242,73.146z"/>
	</g>
	<g>
		<rect x="21.105" y="52.063" fill-rule="evenodd" clip-rule="evenodd" fill="#23CCF0" width="18.862" height="3.128"/>
		<path fill="#536B8B" d="M39.967,55.938H21.105c-0.417,0-0.755-0.334-0.755-0.747v-3.128c0-0.413,0.338-0.748,0.755-0.748h18.862
			c0.418,0,0.757,0.335,0.757,0.748v3.128C40.724,55.604,40.385,55.938,39.967,55.938z M21.861,54.442h17.35v-1.631h-17.35V54.442z"
			/>
	</g>
	<g>
		<rect x="21.105" y="68.371" fill-rule="evenodd" clip-rule="evenodd" fill="#23CCF0" width="18.862" height="3.126"/>
		<path fill="#536B8B" d="M39.967,72.246H21.105c-0.417,0-0.755-0.335-0.755-0.749v-3.126c0-0.414,0.338-0.75,0.755-0.75h18.862
			c0.418,0,0.757,0.336,0.757,0.75v3.126C40.724,71.911,40.385,72.246,39.967,72.246z M21.861,70.75h17.35v-1.632h-17.35V70.75z"/>
	</g>
	<g>
		<path fill="#536B8B" d="M32.71,59.02H21.439c-0.418,0-0.756-0.335-0.756-0.748c0-0.412,0.338-0.748,0.756-0.748H32.71
			c0.417,0,0.755,0.336,0.755,0.748C33.465,58.685,33.128,59.02,32.71,59.02z"/>
	</g>
	<g>
		<path fill="#536B8B" d="M32.71,75.327H21.439c-0.418,0-0.756-0.334-0.756-0.748c0-0.412,0.338-0.749,0.756-0.749H32.71
			c0.417,0,0.755,0.337,0.755,0.749C33.465,74.993,33.128,75.327,32.71,75.327z"/>
	</g>
	<g>
		<rect x="9.487" y="24.739" fill-rule="evenodd" clip-rule="evenodd" fill="#96A0BB" width="33.066" height="3.128"/>
		<path fill="#536B8B" d="M42.554,28.616H9.487c-0.417,0-0.755-0.335-0.755-0.748v-3.128c0-0.413,0.337-0.748,0.755-0.748h33.066
			c0.419,0,0.758,0.335,0.758,0.748v3.128C43.312,28.281,42.973,28.616,42.554,28.616z M10.243,27.12h31.556v-1.632H10.243V27.12z"
			/>
	</g>
</g>
</svg>
