<?xml version="1.0" encoding="utf-8"?>
<!-- Generator: Adobe Illustrator 16.0.0, SVG Export Plug-In . SVG Version: 6.00 Build 0)  -->
<!DOCTYPE svg PUBLIC "-//W3C//DTD SVG 1.1//EN" "http://www.w3.org/Graphics/SVG/1.1/DTD/svg11.dtd">
<svg version="1.1" id="Layer_1" xmlns="http://www.w3.org/2000/svg" xmlns:xlink="http://www.w3.org/1999/xlink" x="0px" y="0px"
	 width="65px" height="69px" viewBox="0 0 65 69" enable-background="new 0 0 65 69" xml:space="preserve">
<g>
	<g>
		<rect x="26.803" y="3.948" fill-rule="evenodd" clip-rule="evenodd" fill="#E9F4F4" width="37.413" height="55.342"/>
		<path fill="#536B8B" d="M64.216,60.072H26.803c-0.434,0-0.784-0.349-0.784-0.782V3.948c0-0.431,0.351-0.781,0.784-0.781h37.413
			C64.648,3.167,65,3.518,65,3.948V59.29C65,59.724,64.648,60.072,64.216,60.072z M27.586,58.51h35.847V4.729H27.586V58.51z"/>
	</g>
	<g>
		<rect x="32.094" y="26.307" fill-rule="evenodd" clip-rule="evenodd" fill="#FDD26A" width="19.926" height="2.059"/>
	</g>
	<g>
		<rect x="32.093" y="32.108" fill-rule="evenodd" clip-rule="evenodd" fill="#536B8B" width="24.741" height="2.061"/>
	</g>
	<g>
		<rect x="32.094" y="14.699" fill-rule="evenodd" clip-rule="evenodd" fill="#536B8B" width="4.906" height="2.061"/>
	</g>
	<g>
		<rect x="38.724" y="14.699" fill-rule="evenodd" clip-rule="evenodd" fill="#F1877A" width="5.175" height="2.061"/>
	</g>
	<g>
		<rect x="45.772" y="14.699" fill-rule="evenodd" clip-rule="evenodd" fill="#536B8B" width="7.348" height="2.061"/>
	</g>
	<g>
		<rect x="32.093" y="20.504" fill-rule="evenodd" clip-rule="evenodd" fill="#F1877A" width="28.905" height="2.06"/>
	</g>
	<g>
		<rect x="32.093" y="9.458" fill-rule="evenodd" clip-rule="evenodd" fill="#536B8B" width="24.741" height="2.06"/>
	</g>
	<g>
		<rect x="0.782" y="0.78" fill-rule="evenodd" clip-rule="evenodd" fill="#DBF1FA" width="45.593" height="67.437"/>
		<path fill="#536B8B" d="M46.375,69H0.782C0.35,69,0,68.648,0,68.217V0.78C0,0.35,0.35,0,0.782,0h45.593
			c0.433,0,0.782,0.35,0.782,0.78v67.437C47.157,68.648,46.808,69,46.375,69z M1.567,67.437H45.59V1.563H1.567V67.437z"/>
	</g>
	<g>
		<rect x="8.24" y="26.987" fill-rule="evenodd" clip-rule="evenodd" fill="#23CCF0" width="10.857" height="11.346"/>
		<path fill="#536B8B" d="M19.098,39.115H8.24c-0.434,0-0.784-0.349-0.784-0.782V26.987c0-0.431,0.351-0.78,0.784-0.78h10.857
			c0.433,0,0.782,0.35,0.782,0.78v11.346C19.88,38.767,19.53,39.115,19.098,39.115z M9.023,37.553h9.289v-9.784H9.023V37.553z"/>
	</g>
	<g>
		<rect x="26.192" y="26.987" fill-rule="evenodd" clip-rule="evenodd" fill="#FDD26A" width="10.856" height="11.346"/>
		<path fill="#536B8B" d="M37.049,39.115H26.192c-0.433,0-0.783-0.349-0.783-0.782V26.987c0-0.431,0.351-0.78,0.783-0.78h10.856
			c0.434,0,0.785,0.35,0.785,0.78v11.346C37.834,38.767,37.482,39.115,37.049,39.115z M26.978,37.553h9.289v-9.784h-9.289V37.553z"
			/>
	</g>
	<g>
		<rect x="8.24" y="42.927" fill-rule="evenodd" clip-rule="evenodd" fill="#F1877A" width="10.857" height="11.348"/>
		<path fill="#536B8B" d="M19.098,55.054H8.24c-0.434,0-0.784-0.349-0.784-0.779V42.927c0-0.432,0.351-0.78,0.784-0.78h10.857
			c0.433,0,0.782,0.349,0.782,0.78v11.348C19.88,54.705,19.53,55.054,19.098,55.054z M9.023,53.491h9.289v-9.784H9.023V53.491z"/>
	</g>
	<g>
		<rect x="26.192" y="42.927" fill-rule="evenodd" clip-rule="evenodd" fill="#DBE9F6" width="10.856" height="11.348"/>
		<path fill="#536B8B" d="M37.049,55.054H26.192c-0.433,0-0.783-0.349-0.783-0.779V42.927c0-0.432,0.351-0.78,0.783-0.78h10.856
			c0.434,0,0.785,0.349,0.785,0.78v11.348C37.834,54.705,37.482,55.054,37.049,55.054z M26.978,53.491h9.289v-9.784h-9.289V53.491z"
			/>
	</g>
	<g>
		<rect x="8.24" y="6.327" fill-rule="evenodd" clip-rule="evenodd" fill="#89A7C0" width="28.809" height="6.266"/>
		<path fill="#536B8B" d="M37.049,13.373H8.24c-0.434,0-0.784-0.349-0.784-0.78V6.327c0-0.432,0.351-0.78,0.784-0.78h28.809
			c0.434,0,0.785,0.349,0.785,0.78v6.266C37.834,13.024,37.482,13.373,37.049,13.373z M9.023,11.812h27.243V7.108H9.023V11.812z"/>
	</g>
	<g>
		<rect x="8.24" y="17.655" fill-rule="evenodd" clip-rule="evenodd" fill="#89A7C0" width="28.809" height="3.132"/>
		<path fill="#536B8B" d="M37.049,21.567H8.24c-0.434,0-0.784-0.349-0.784-0.78v-3.132c0-0.432,0.351-0.781,0.784-0.781h28.809
			c0.434,0,0.785,0.35,0.785,0.781v3.132C37.834,21.219,37.482,21.567,37.049,21.567z M9.023,20.007h27.243v-1.57H9.023V20.007z"/>
	</g>
	<g>
		<g>
			<path fill-rule="evenodd" clip-rule="evenodd" fill="#DBF1FA" d="M46.375,65.774c8.167,0,14.829-6.639,14.829-14.779
				c0-8.138-6.662-14.774-14.829-14.774c-8.168,0-14.83,6.637-14.83,14.774C31.545,59.136,38.207,65.774,46.375,65.774z"/>
			<path fill="#536B8B" d="M46.375,66.555c-8.61,0-15.614-6.979-15.614-15.56c0-8.578,7.004-15.556,15.614-15.556
				c8.608,0,15.612,6.978,15.612,15.556C61.987,59.576,54.983,66.555,46.375,66.555z M46.375,37.001
				c-7.745,0-14.047,6.278-14.047,13.994c0,7.719,6.302,13.998,14.047,13.998S60.42,58.714,60.42,50.995
				C60.42,43.279,54.12,37.001,46.375,37.001z"/>
		</g>
		<g>
			<path fill-rule="evenodd" clip-rule="evenodd" fill="#FFFFFF" d="M46.375,63.015c6.642,0,12.059-5.399,12.059-12.02
				c0-6.617-5.417-12.017-12.059-12.017c-6.643,0-12.061,5.399-12.061,12.017C34.314,57.615,39.732,63.015,46.375,63.015z"/>
			<path fill="#536B8B" d="M46.375,63.794c-7.082,0-12.844-5.741-12.844-12.799c0-7.057,5.762-12.796,12.844-12.796
				c7.081,0,12.842,5.739,12.842,12.796C59.217,58.053,53.456,63.794,46.375,63.794z M46.375,39.761
				c-6.218,0-11.276,5.04-11.276,11.234c0,6.197,5.059,11.237,11.276,11.237c6.217,0,11.274-5.04,11.274-11.237
				C57.649,44.801,52.592,39.761,46.375,39.761z"/>
		</g>
		<g>
			<g>
				<path fill="#536B8B" d="M46.375,55.784c-0.434,0-0.785-0.35-0.785-0.782v-11.98c0-0.433,0.352-0.782,0.785-0.782
					c0.433,0,0.782,0.35,0.782,0.782v11.98C47.157,55.435,46.808,55.784,46.375,55.784z"/>
			</g>
			<g>
				<path fill="#536B8B" d="M46.375,55.784c-0.193,0-0.389-0.072-0.539-0.215c-0.314-0.297-0.329-0.79-0.029-1.104l3.706-3.894
					c0.298-0.314,0.796-0.328,1.106-0.031c0.315,0.297,0.328,0.791,0.03,1.104l-3.706,3.896
					C46.789,55.701,46.582,55.784,46.375,55.784z"/>
			</g>
			<g>
				<path fill="#536B8B" d="M46.375,55.784c-0.208,0-0.415-0.083-0.568-0.245L42.1,51.644c-0.299-0.313-0.284-0.807,0.028-1.104
					c0.314-0.297,0.812-0.283,1.109,0.031l3.706,3.894c0.298,0.314,0.284,0.808-0.029,1.104
					C46.762,55.712,46.568,55.784,46.375,55.784z"/>
			</g>
		</g>
		<g>
			<path fill="#536B8B" d="M51.338,57.786h-9.927c-0.434,0-0.784-0.349-0.784-0.779c0-0.435,0.351-0.782,0.784-0.782h9.927
				c0.434,0,0.784,0.348,0.784,0.782C52.122,57.438,51.771,57.786,51.338,57.786z"/>
		</g>
	</g>
</g>
</svg>
