<?xml version="1.0" encoding="utf-8"?>
<!-- Generator: Adobe Illustrator 16.0.0, SVG Export Plug-In . SVG Version: 6.00 Build 0)  -->
<!DOCTYPE svg PUBLIC "-//W3C//DTD SVG 1.1//EN" "http://www.w3.org/Graphics/SVG/1.1/DTD/svg11.dtd">
<svg version="1.1" id="Layer_1" xmlns="http://www.w3.org/2000/svg" xmlns:xlink="http://www.w3.org/1999/xlink" x="0px" y="0px"
	 width="95px" height="61px" viewBox="0 0 95 61" enable-background="new 0 0 95 61" xml:space="preserve">
<g>
	<g>
		<rect x="14.341" y="0.722" fill-rule="evenodd" clip-rule="evenodd" fill="#DBF1FA" width="79.94" height="59.556"/>
		<path fill="#536B8B" d="M94.281,61h-79.94c-0.397,0-0.718-0.323-0.718-0.723V0.722C13.623,0.323,13.944,0,14.341,0h79.94
			C94.679,0,95,0.323,95,0.722v59.556C95,60.677,94.679,61,94.281,61z M15.059,59.555h78.504V1.444H15.059V59.555z"/>
	</g>
	<g>
		<rect x="14.341" y="0.722" fill-rule="evenodd" clip-rule="evenodd" fill="#96A0BB" width="79.94" height="11.103"/>
		<path fill="#536B8B" d="M94.281,12.546h-79.94c-0.397,0-0.718-0.323-0.718-0.722V0.722C13.623,0.323,13.944,0,14.341,0h79.94
			C94.679,0,95,0.323,95,0.722v11.103C95,12.223,94.679,12.546,94.281,12.546z M15.059,11.102h78.504V1.444H15.059V11.102z"/>
	</g>
	<g>
		<path fill="#536B8B" d="M87.143,52.722H34.176c-0.397,0-0.718-0.322-0.718-0.722V20.327c0-0.398,0.321-0.722,0.718-0.722
			c0.396,0,0.717,0.324,0.717,0.722v30.951h52.25c0.396,0,0.717,0.322,0.717,0.722S87.539,52.722,87.143,52.722z"/>
	</g>
	<g>
		<path fill-rule="evenodd" clip-rule="evenodd" fill="#FFFFFF" d="M14.341,46.042c7.503,0,13.623-6.156,13.623-13.707
			c0-7.548-6.12-13.706-13.623-13.706c-7.503,0-13.624,6.158-13.624,13.706C0.717,39.886,6.838,46.042,14.341,46.042z"/>
		<path fill="#536B8B" d="M14.341,46.766C6.433,46.766,0,40.292,0,32.335c0-7.955,6.433-14.428,14.341-14.428
			c7.908,0,14.34,6.473,14.34,14.428C28.682,40.292,22.249,46.766,14.341,46.766z M14.341,19.352
			c-7.117,0-12.906,5.825-12.906,12.983c0,7.16,5.789,12.985,12.906,12.985c7.116,0,12.905-5.825,12.905-12.985
			C27.246,25.177,21.457,19.352,14.341,19.352z"/>
	</g>
	<g>
		<path fill-rule="evenodd" clip-rule="evenodd" fill="#23CCF0" d="M22.52,43.299c-2.277,1.724-5.11,2.745-8.178,2.745
			s-5.902-1.021-8.179-2.745v-3.672c0-1.476,1.201-2.685,2.667-2.685c0.069,0,0.138,0.004,0.207,0.008
			c2.834-0.455,7.776-0.455,10.609,0c0.069-0.004,0.136-0.008,0.206-0.008h0.001c1.467,0,2.667,1.209,2.667,2.685V43.299z"/>
		<path fill="#536B8B" d="M14.341,46.766c-3.134,0-6.111-0.998-8.611-2.891c-0.18-0.136-0.286-0.35-0.286-0.576v-3.672
			c0-1.935,1.604-3.501,3.557-3.401c1.399-0.22,3.292-0.34,5.34-0.34c2.048,0,3.94,0.12,5.339,0.34
			c1.891-0.107,3.558,1.466,3.558,3.401v3.672c0,0.227-0.106,0.44-0.286,0.576C20.453,45.768,17.476,46.766,14.341,46.766z
			 M6.88,42.933c2.188,1.564,4.76,2.389,7.461,2.389c2.702,0,5.273-0.824,7.461-2.389v-3.306c0-1.082-0.875-1.963-1.95-1.963
			l-0.16,0.008c-0.054,0.004-0.107,0.001-0.161-0.009c-2.628-0.424-7.753-0.424-10.382,0c-0.052,0.01-0.105,0.013-0.161,0.009
			L8.83,37.664c-1.075,0-1.95,0.881-1.95,1.963V42.933z"/>
	</g>
	<g>
		<path fill-rule="evenodd" clip-rule="evenodd" fill="#F9BB52" d="M12.293,35.356c-1.658-0.927-2.953-2.732-2.953-4.869v-4.193
			c0-4.032,10.002-4.032,10.002,0v4.193c0,2.136-1.295,3.942-2.954,4.869v1.535c0,1.132-0.919,2.057-2.042,2.057l0,0h-0.005h-0.004
			h0c-1.125,0-2.043-0.925-2.043-2.057V35.356z"/>
		<path fill="#536B8B" d="M14.346,39.669h-0.005c-1.528,0-2.766-1.244-2.766-2.777v-1.126c-1.832-1.184-2.953-3.169-2.953-5.278
			v-4.193c0-2.574,2.964-3.746,5.72-3.746c2.754,0,5.719,1.171,5.719,3.746v4.193c0,2.109-1.122,4.094-2.954,5.278v1.126
			C17.107,38.425,15.869,39.669,14.346,39.669z M14.342,23.993c-2.129,0-4.284,0.791-4.284,2.302v4.193
			c0,2.059,1.334,3.54,2.583,4.237c0.229,0.128,0.37,0.369,0.37,0.632v1.535c0,0.736,0.594,1.335,1.325,1.335h0.01
			c0.73,0,1.324-0.599,1.324-1.335v-1.535c0-0.263,0.142-0.504,0.37-0.632c1.249-0.697,2.584-2.178,2.584-4.237v-4.193
			C18.625,24.784,16.47,23.993,14.342,23.993z"/>
	</g>
	<g>
		<path fill-rule="evenodd" clip-rule="evenodd" fill="#FDD26A" d="M14.304,34.76c-2.142-0.656-3.677-2.267-3.677-4.412v-4.72
			c3.203,0.955,3.964,1.005,7.147,0v4.517C17.773,32.627,16.319,34.479,14.304,34.76z"/>
	</g>
	<g>
		<path fill="#536B8B" d="M8.77,45.529c-0.396,0-0.717-0.324-0.717-0.723v-4.303c0-0.399,0.321-0.723,0.717-0.723
			c0.397,0,0.718,0.323,0.718,0.723v4.303C9.488,45.205,9.167,45.529,8.77,45.529z"/>
	</g>
	<g>
		<path fill="#536B8B" d="M19.913,45.529c-0.396,0-0.718-0.324-0.718-0.723v-4.303c0-0.399,0.321-0.723,0.718-0.723
			s0.718,0.323,0.718,0.723v4.303C20.631,45.205,20.31,45.529,19.913,45.529z"/>
	</g>
	<g>
		<path fill-rule="evenodd" clip-rule="evenodd" fill="#EF6E65" d="M10.096,26.863c-0.292-2.057,1.943-3.069,4.262-3.069
			c2.316,0,4.552,1.012,4.259,3.069c-2.615-1.335-1.688,0.776-4.259,0.8C11.786,27.639,12.711,25.527,10.096,26.863z"/>
	</g>
	<g>
		<path fill="#536B8B" d="M34.175,52.723c-0.132,0-0.265-0.036-0.384-0.112c-0.335-0.214-0.434-0.66-0.221-0.997l5.574-8.835
			c0.131-0.209,0.36-0.335,0.605-0.335h14.41l7.453-7.499c0.111-0.111,0.256-0.184,0.411-0.205l13.331-1.821l10.296-11.1
			c0.271-0.291,0.726-0.306,1.014-0.036c0.29,0.272,0.306,0.729,0.036,1.021l-10.47,11.29c-0.114,0.122-0.266,0.201-0.43,0.223
			l-13.344,1.822l-7.493,7.538c-0.135,0.136-0.316,0.212-0.507,0.212H40.144l-5.362,8.5C34.645,52.604,34.412,52.723,34.175,52.723z
			"/>
	</g>
	<g>
		<path fill-rule="evenodd" clip-rule="evenodd" fill="#EF6E65" d="M54.457,45.362c1.203,0,2.185-0.987,2.185-2.197
			s-0.981-2.196-2.185-2.196s-2.184,0.986-2.184,2.196S53.254,45.362,54.457,45.362z"/>
	</g>
	<g>
		<path fill-rule="evenodd" clip-rule="evenodd" fill="#EF6E65" d="M39.708,45.362c1.203,0,2.183-0.987,2.183-2.197
			s-0.979-2.196-2.183-2.196c-1.203,0-2.185,0.986-2.185,2.196S38.505,45.362,39.708,45.362z"/>
	</g>
	<g>
		<path fill-rule="evenodd" clip-rule="evenodd" fill="#EF6E65" d="M62.121,37.652c1.202,0,2.184-0.986,2.184-2.197
			s-0.981-2.197-2.184-2.197c-1.203,0-2.185,0.986-2.185,2.197S60.918,37.652,62.121,37.652z"/>
	</g>
	<g>
		<path fill-rule="evenodd" clip-rule="evenodd" fill="#EF6E65" d="M75.704,35.797c1.203,0,2.184-0.987,2.184-2.196
			c0-1.211-0.98-2.198-2.184-2.198s-2.184,0.987-2.184,2.198C73.521,34.81,74.501,35.797,75.704,35.797z"/>
	</g>
	<g>
		<path fill="#E6E7E8" d="M21.716,7.524V5.095c8.381,0,16.763,0,25.145,0v2.429C38.479,7.524,30.097,7.524,21.716,7.524
			L21.716,7.524z M50.048,7.524V5.095c2.881,0,5.764,0,8.646,0v2.429C55.812,7.524,52.929,7.524,50.048,7.524z"/>
	</g>
	<g>
		<path fill="#00AAD5" d="M41.64,22.97v-2.25c5.124,0,10.249,0,15.373,0v2.25C51.889,22.97,46.764,22.97,41.64,22.97z"/>
	</g>
	<g>
		<path fill="#00AAD5" d="M41.64,27.097v-2.25c7.165,0,14.333,0,21.499,0v2.25C55.973,27.097,48.805,27.097,41.64,27.097z"/>
	</g>
	<g>
		<path fill="#536B8B" d="M41.64,30.1v-1.125c3.474,0,6.949,0,10.422,0V30.1C48.589,30.1,45.114,30.1,41.64,30.1z"/>
	</g>
	<g>
		<path fill="#536B8B" d="M37.134,24.026c-0.184,0-0.367-0.071-0.507-0.211l-2.451-2.466l-2.452,2.466
			c-0.281,0.282-0.734,0.282-1.015,0c-0.28-0.282-0.28-0.739,0-1.021l2.959-2.977c0.28-0.282,0.734-0.282,1.015,0l2.959,2.977
			c0.28,0.282,0.28,0.739,0,1.021C37.501,23.956,37.318,24.026,37.134,24.026z"/>
	</g>
	<g>
		<path fill="#536B8B" d="M84.184,55.698c-0.185,0-0.368-0.069-0.509-0.211c-0.28-0.281-0.28-0.739,0-1.021l2.452-2.466
			l-2.452-2.468c-0.28-0.282-0.28-0.74,0-1.021c0.281-0.28,0.734-0.281,1.016,0.001l2.959,2.978c0.134,0.135,0.21,0.319,0.21,0.511
			s-0.076,0.375-0.211,0.511l-2.958,2.978C84.551,55.629,84.367,55.698,84.184,55.698z"/>
	</g>
	<g>
		<path fill="#536B8B" d="M86.763,25.573c-0.006,0-0.013,0-0.019,0c-0.397-0.01-0.71-0.342-0.699-0.741l0.065-2.465L83.66,22.3
			c-0.396-0.011-0.708-0.343-0.697-0.741c0.008-0.399,0.391-0.745,0.735-0.702l3.169,0.086c0.395,0.01,0.707,0.343,0.698,0.741
			L87.48,24.87C87.469,25.262,87.149,25.573,86.763,25.573z"/>
	</g>
</g>
</svg>
