<svg xmlns="http://www.w3.org/2000/svg" width="1200" height="500" viewBox="0 0 1200 500"><defs><clipPath><path d="M0 1080h1920v-1080h-1920v1080z"/></clipPath><clipPath id="b"><path d="M1455.06 765.39h175.94v-578.871h-175.94v578.871z"/></clipPath><clipPath id="c"><path d="M283.882 652.876h245.222v-466.357h-245.222v466.357z"/></clipPath><clipPath id="d"><path d="M0 1080h1920v-1080h-1920v1080z"/></clipPath><clipPath id="e"><path d="M0 1080h1920v-1080h-1920v1080z"/></clipPath><filter id="a" color-interpolation-filters="sRGB"><feGaussianBlur stdDeviation="5" result="fbSourceGraphic"/><feGaussianBlur stdDeviation=".01" in="SourceGraphic" result="result1"/><feComposite in2="result1" operator="arithmetic" in="fbSourceGraphic" k2=".5" k3=".5" result="result2"/><feBlend in2="fbSourceGraphic" result="result3"/></filter></defs><g filter="url(#a)"><path transform="matrix(.459 0 0 -.443 735.206 353.239)" stroke-miterlimit="22.926" d="M0 0v-195.675c0-30.944 18.25-56.029 40.763-56.029h176.911" stroke="#465f81" stroke-width="5" stroke-linecap="round" stroke-linejoin="round" stroke-dasharray="14, 10" fill="none"/><path transform="matrix(.459 0 0 -.443 214.794 228.381)" stroke-miterlimit="22.926" d="M0 0v142.36c0 22.513 18.25 40.763 40.763 40.763h176.911" stroke="#fff" stroke-width="5" stroke-linecap="round" stroke-linejoin="round" stroke-dasharray="14, 10" fill="none"/><path transform="matrix(.459 0 0 -.443 160.197 500.627)" stroke-miterlimit="22.926" d="M-19.603 651.446h453.558v-165.202h-453.558v165.202z" fill="#dbf9ff" fill-rule="evenodd" stroke="#465f81" stroke-width="3.861" stroke-linecap="round" stroke-linejoin="round"/><path transform="matrix(.459 0 0 -.443 160.197 500.627)" stroke-miterlimit="10" d="M1922-69.06h-466.943v835.029h466.943v-835.029z" fill="#6394c2" fill-rule="evenodd" stroke="#465f81" stroke-width="5" stroke-linecap="round" stroke-linejoin="round"/><path transform="matrix(.459 0 0 -.443 160.197 500.627)" stroke-miterlimit="10" d="M1877.781-22.677h-378.304v742.264h378.304v-742.264z" fill="#79a8dc" fill-rule="evenodd" stroke="#465f81" stroke-width="5" stroke-linecap="round" stroke-linejoin="round"/><path transform="matrix(.459 0 0 -.443 160.197 500.627)" stroke-miterlimit="10" d="M1856.216 550.287h-335.174v80.287h335.174v-80.287z" fill="#6394c2" fill-rule="evenodd" stroke="#465f81" stroke-width="5" stroke-linecap="round" stroke-linejoin="round"/><path transform="matrix(.459 0 0 -.443 160.197 500.627)" stroke-miterlimit="10" d="M1856.216 437.713h-335.174v80.287h335.174v-80.287z" fill="#6394c2" fill-rule="evenodd" stroke="#465f81" stroke-width="5" stroke-linecap="round" stroke-linejoin="round"/><path d="M956.86 401.847c0 11.504-9.662 20.829-21.582 20.829-11.919 0-21.582-9.326-21.582-20.829 0-11.504 9.662-20.829 21.582-20.829 11.919 0 21.582 9.326 21.582 20.829" fill="#6394c2" fill-rule="evenodd"/><path transform="matrix(.459 0 0 -.443 956.859 401.846)" stroke-miterlimit="10" d="M0 0c0-25.968-21.051-47.019-47.019-47.019s-47.019 21.051-47.019 47.019 21.051 47.019 47.019 47.019 47.019-21.051 47.019-47.019z" stroke="#465f81" stroke-width="5" stroke-linecap="round" stroke-linejoin="round" fill="none"/><path d="M945.708 451.246c0 5.56-4.67 10.066-10.43 10.066s-10.43-4.507-10.43-10.066c0-5.56 4.67-10.066 10.43-10.066s10.43 4.507 10.43 10.066" fill="#6394c2" fill-rule="evenodd"/><path transform="matrix(.459 0 0 -.443 945.708 451.245)" stroke-miterlimit="10" d="M0 0c0-12.55-10.174-22.723-22.724-22.723-12.549 0-22.723 10.173-22.723 22.723 0 12.55 10.174 22.723 22.723 22.723 12.55 0 22.724-10.173 22.724-22.723z" stroke="#465f81" stroke-width="5" stroke-linecap="round" stroke-linejoin="round" fill="none"/><path transform="matrix(.459 0 0 -.443 944.177 395.481)" stroke-miterlimit="22.926" d="M0 0c2.98-4.014 4.744-8.987 4.744-14.371 0-13.327-10.804-24.131-24.132-24.131-13.328 0-24.132 10.804-24.132 24.131 0 5.384 1.763 10.355 4.743 14.37" stroke="#fff" stroke-width="5" stroke-linecap="round" stroke-linejoin="round" fill="none"/><path transform="matrix(.459 0 0 -.443 935.278 391.18)" stroke-miterlimit="22.926" d="M0 0v-19.412" stroke="#fff" stroke-width="5" stroke-linecap="round" stroke-linejoin="round" fill="none"/><path d="M988.967 198.529c0 3.718-3.123 6.732-6.975 6.732-3.853 0-6.976-3.014-6.976-6.732 0-3.718 3.123-6.732 6.976-6.732 3.852 0 6.975 3.014 6.975 6.732" fill="#6394c2" fill-rule="evenodd"/><path transform="matrix(.459 0 0 -.443 988.967 198.528)" stroke-miterlimit="10" d="M0 0c0-8.393-6.804-15.197-15.197-15.197-8.394 0-15.198 6.804-15.198 15.197 0 8.393 6.804 15.197 15.198 15.197 8.393 0 15.197-6.804 15.197-15.197z" stroke="#465f81" stroke-width="5" stroke-linecap="round" stroke-linejoin="round" fill="none"/><path d="M1011.747 198.529c0 3.718-3.123 6.732-6.975 6.732-3.853 0-6.976-3.014-6.976-6.732 0-3.718 3.123-6.732 6.976-6.732 3.852 0 6.975 3.014 6.975 6.732" fill="#6394c2" fill-rule="evenodd"/><path transform="matrix(.459 0 0 -.443 1011.747 198.528)" stroke-miterlimit="10" d="M0 0c0-8.393-6.804-15.197-15.197-15.197-8.394 0-15.198 6.804-15.198 15.197 0 8.393 6.804 15.197 15.198 15.197 8.393 0 15.197-6.804 15.197-15.197z" stroke="#465f81" stroke-width="5" stroke-linecap="round" stroke-linejoin="round" fill="none"/><path d="M903.797 204.556h-29.109c-.327 0-.593-.256-.593-.571v-10.67c0-.316.265-.572.593-.572h29.109c.327 0 .592.256.592.572v10.67c0 .315-.265.571-.592.571" fill="#79a8dc" fill-rule="evenodd"/><path transform="matrix(.459 0 0 -.443 903.797 204.555)" stroke-miterlimit="10" d="M0 0h-63.419c-.713 0-1.291.578-1.291 1.29v24.086c0 .713.578 1.291 1.291 1.291h63.419c.713 0 1.29-.578 1.29-1.291v-24.086c0-.712-.577-1.29-1.29-1.29z" stroke="#465f81" stroke-width="5" stroke-linecap="round" stroke-linejoin="round" fill="none"/><path d="M945.719 204.556h-29.109c-.327 0-.593-.256-.593-.571v-10.67c0-.316.265-.572.593-.572h29.109c.327 0 .592.256.592.572v10.67c0 .315-.265.571-.592.571" fill="#79a8dc" fill-rule="evenodd"/><path transform="matrix(.459 0 0 -.443 945.719 204.555)" stroke-miterlimit="10" d="M0 0h-63.419c-.713 0-1.291.578-1.291 1.29v24.086c0 .713.578 1.291 1.291 1.291h63.419c.713 0 1.29-.578 1.29-1.291v-24.086c0-.712-.577-1.29-1.29-1.29z" stroke="#465f81" stroke-width="5" stroke-linecap="round" stroke-linejoin="round" fill="none"/><path transform="matrix(.459 0 0 -.443 467.319 386.811)" stroke-miterlimit="22.926" d="M0 0v-142.36c0-22.513-18.25-40.763-40.763-40.763h-176.911" stroke="#465f81" stroke-width="5" stroke-linecap="round" stroke-linejoin="round" stroke-dasharray="14, 10" fill="none"/><path transform="matrix(.459 0 0 -.443 160.197 500.627)" stroke-miterlimit="10" d="M529.387-8.282h-546.408v438.277h546.408v-438.277z" fill="#6394c2" fill-rule="evenodd" stroke="#465f81" stroke-width="4.436" stroke-linecap="round" stroke-linejoin="round"/><path transform="matrix(.459 0 0 -.443 160.197 500.627)" stroke-miterlimit="10" d="M-17.05 300.476h468.22v-325.286h-468.22v325.286z" fill="#79a8dc" fill-rule="evenodd" stroke="#465f81" stroke-width="4.403" stroke-linecap="round" stroke-linejoin="round"/><path d="M314.703 344.022h-42.45c-1.776 0-3.216-1.39-3.216-3.104v-11.619c0-1.714 1.44-3.104 3.216-3.104h42.45c1.776 0 3.216 1.39 3.216 3.104v11.619c0 1.714-1.44 3.104-3.216 3.104" fill="#79a8dc" fill-rule="evenodd"/><path transform="matrix(.459 0 0 -.443 314.703 344.021)" stroke-miterlimit="10" d="M0 0h-92.483c-3.869 0-7.006 3.137-7.006 7.006v26.227c0 3.869 3.137 7.006 7.006 7.006h92.483c3.869 0 7.006-3.137 7.006-7.006v-26.227c0-3.869-3.137-7.006-7.006-7.006z" stroke="#465f81" stroke-width="5" stroke-linecap="round" stroke-linejoin="round" fill="none"/><path d="M253.503 347.566h-23.629c-1.776 0-3.216-1.39-3.216-3.104v-11.619c0-1.714 1.44-3.104 3.216-3.104h23.629c1.776 0 3.216 1.39 3.216 3.104v11.619c0 1.714-1.44 3.104-3.216 3.104" fill="#79a8dc" fill-rule="evenodd"/><path transform="matrix(.459 0 0 -.443 253.503 347.565)" stroke-miterlimit="10" d="M0 0h-51.479c-3.869 0-7.006 3.137-7.006 7.006v26.227c0 3.869 3.137 7.006 7.006 7.006h51.479c3.869 0 7.006-3.137 7.006-7.006v-26.227c0-3.869-3.137-7.006-7.006-7.006z" stroke="#465f81" stroke-width="5" stroke-linecap="round" stroke-linejoin="round" fill="none"/><path transform="matrix(.459 0 0 -.443 160.197 500.627)" stroke-miterlimit="10" d="M-16.172 160.005h467.43v-185.397h-467.43v185.397z" fill="#79a8dc" fill-rule="evenodd" stroke="#465f81" stroke-width="4.227" stroke-linecap="round" stroke-linejoin="round"/><path transform="matrix(.459 0 0 -.443 160.197 500.627)" stroke-miterlimit="10" d="M-16.911 29.498h467.941v-55.688h-467.941v55.688z" fill="#79a8dc" fill-rule="evenodd" stroke="#465f81" stroke-width="4.682" stroke-linecap="round" stroke-linejoin="round"/><path transform="matrix(.459 0 0 -.443 492.054 391.245)" stroke-miterlimit="22.926" d="M0 0v-229.527" stroke="#465f81" stroke-width="5" stroke-linecap="round" stroke-linejoin="round" stroke-dasharray="14, 10" fill="none"/><path d="M189.114 386.673c0 3.548-2.98 6.423-6.655 6.423-3.676 0-6.655-2.876-6.655-6.423 0-3.548 2.98-6.423 6.655-6.423 3.676 0 6.655 2.876 6.655 6.423" fill="#dbf9ff" fill-rule="evenodd"/><path transform="matrix(.459 0 0 -.443 189.114 386.672)" stroke-miterlimit="22.926" d="M0 0c0-8.008-6.492-14.5-14.5-14.5s-14.5 6.492-14.5 14.5 6.492 14.5 14.5 14.5 14.5-6.492 14.5-14.5z" stroke="#465f81" stroke-width="5" stroke-linecap="round" stroke-linejoin="round" fill="none"/><path d="M189.114 410.62c0 3.548-2.98 6.423-6.655 6.423-3.676 0-6.655-2.876-6.655-6.423 0-3.548 2.98-6.423 6.655-6.423 3.676 0 6.655 2.876 6.655 6.423" fill="#dbf9ff" fill-rule="evenodd"/><path transform="matrix(.459 0 0 -.443 189.114 410.619)" stroke-miterlimit="22.926" d="M0 0c0-8.008-6.492-14.5-14.5-14.5s-14.5 6.492-14.5 14.5 6.492 14.5 14.5 14.5 14.5-6.492 14.5-14.5z" stroke="#465f81" stroke-width="5" stroke-linecap="round" stroke-linejoin="round" fill="none"/><path d="M189.114 447.26c0 3.548-2.98 6.423-6.655 6.423-3.676 0-6.655-2.876-6.655-6.423 0-3.548 2.98-6.423 6.655-6.423 3.676 0 6.655 2.876 6.655 6.423" fill="#dbf9ff" fill-rule="evenodd"/><path transform="matrix(.459 0 0 -.443 189.114 447.259)" stroke-miterlimit="22.926" d="M0 0c0-8.008-6.492-14.5-14.5-14.5s-14.5 6.492-14.5 14.5 6.492 14.5 14.5 14.5 14.5-6.492 14.5-14.5z" stroke="#465f81" stroke-width="5" stroke-linecap="round" stroke-linejoin="round" fill="none"/><path d="M189.114 471.207c0 3.548-2.98 6.423-6.655 6.423-3.676 0-6.655-2.876-6.655-6.423 0-3.548 2.98-6.423 6.655-6.423 3.676 0 6.655 2.876 6.655 6.423" fill="#dbf9ff" fill-rule="evenodd"/><path transform="matrix(.459 0 0 -.443 189.114 471.206)" stroke-miterlimit="22.926" d="M0 0c0-8.008-6.492-14.5-14.5-14.5s-14.5 6.492-14.5 14.5 6.492 14.5 14.5 14.5 14.5-6.492 14.5-14.5z" stroke="#465f81" stroke-width="5" stroke-linecap="round" stroke-linejoin="round" fill="none"/><path transform="matrix(.459 0 0 -.443 160.197 500.627)" stroke-miterlimit="10" d="M422.011 188.179h-321.511v83.055h321.511v-83.055z" fill="#6394c2" fill-rule="evenodd" stroke="#465f81" stroke-width="5" stroke-linecap="round" stroke-linejoin="round"/><path transform="matrix(.459 0 0 -.443 160.197 500.627)" stroke-miterlimit="10" d="M422.011 51.914h-321.511v83.055h321.511v-83.055z" fill="#6394c2" fill-rule="evenodd" stroke="#465f81" stroke-width="5" stroke-linecap="round" stroke-linejoin="round"/><path clip-path="url(#b)" d="M828.068 418h69.146c6.413 0 11.612-5.017 11.612-11.207v-245.233h-80.758v256.44z" opacity=".5" fill="#465f81" fill-rule="evenodd"/><path clip-path="url(#c)" d="M303.385 418h99.671v-206.596h-112.557v194.159c0 6.869 5.769 12.437 12.886 12.437" opacity=".5" fill="#465f81" fill-rule="evenodd"/><path d="M553.704 500.627h93.457v-310.258h-93.457v310.258z" fill="#96a0bb"/><g clip-path="url(#d)"><path transform="matrix(.459 0 0 -.443 160.197 500.627)" stroke-miterlimit="10" d="M1060.924-4h-203.609v704.357h203.609v-704.357z" stroke="#465f81" stroke-width="5" stroke-linecap="round" stroke-linejoin="round" fill="none"/><path d="M885.753 403.036h-570.641c-3.042 0-5.508-2.38-5.508-5.316v-313.311c0-2.936 2.466-5.316 5.508-5.316h570.641c3.042 0 5.508 2.38 5.508 5.316v313.311c0 2.936-2.466 5.316-5.508 5.316" fill="#96a0bb" fill-rule="evenodd"/><path transform="matrix(.459 0 0 -.443 885.753 403.035)" stroke-miterlimit="10" d="M0 0h-1243.226c-6.628 0-12 5.373-12 12v707.249c0 6.627 5.372 12 12 12h1243.226c6.627 0 12-5.373 12-12v-707.249c0-6.627-5.373-12-12-12z" stroke="#465f81" stroke-width="5" stroke-linecap="round" stroke-linejoin="round" fill="none"/><path d="M759.005 502.4h-317.144v-13.443c0-3.04 2.553-5.504 5.703-5.504h305.739c3.15 0 5.703 2.464 5.703 5.504v13.443z" fill="#96a0bb" fill-rule="evenodd"/><path transform="matrix(.459 0 0 -.443 759.005 502.399)" stroke-miterlimit="10" d="M0 0h-690.946v30.345c0 6.862 5.563 12.424 12.424 12.424h666.098c6.862 0 12.424-5.562 12.424-12.424v-30.345z" stroke="#465f81" stroke-width="5" stroke-linecap="round" stroke-linejoin="round" fill="none"/><path d="M629.357 387.912h-64.233l7.979-18.868h64.233l-7.979 18.868z" fill="#fff" fill-rule="evenodd"/><path transform="matrix(.459 0 0 -.443 629.357 387.911)" stroke-miterlimit="22.926" d="M0 0h-139.941l17.384 42.591h139.941l-17.384-42.591z" stroke="#465f81" stroke-width="5" stroke-linecap="round" stroke-linejoin="round" fill="none"/><path d="M645.763 426.163h-90.706v-21.786h90.706v21.786z" fill="#697e9d" fill-rule="evenodd"/><path transform="matrix(.459 0 0 -.443 160.197 500.627)" stroke-miterlimit="10" d="M1534.446 332.704h-1150.654v561.235h1150.654v-561.235z" stroke="#465f81" stroke-width="5" fill="none"/><path d="M779.147 539.77h-83.767c-10.14 0-18.36-7.934-18.36-17.72v-79.182c0-9.786 8.22-17.72 18.36-17.72h83.767c10.14 0 18.36 7.934 18.36 17.72v79.182c0 9.786-8.22 17.72-18.36 17.72" fill="#6394c2" fill-rule="evenodd"/><path transform="matrix(.459 0 0 -.443 779.147 539.769)" stroke-miterlimit="10" d="M0 0h-182.5c-22.091 0-40 17.909-40 40v178.74c0 22.091 17.909 40 40 40h182.5c22.091 0 40-17.909 40-40v-178.74c0-22.091-17.909-40-40-40z" stroke="#465f81" stroke-width="5" stroke-linecap="round" stroke-linejoin="round" fill="none"/><path d="M706.535 445.696c0 4.346-3.65 7.869-8.154 7.869-4.503 0-8.154-3.523-8.154-7.869s3.65-7.869 8.154-7.869c4.503 0 8.154 3.523 8.154 7.869" fill="#79a8dc" fill-rule="evenodd"/><path transform="matrix(.459 0 0 -.443 706.535 445.695)" stroke-miterlimit="10" d="M0 0c0-9.811-7.953-17.764-17.764-17.764s-17.764 7.953-17.764 17.764 7.953 17.764 17.764 17.764 17.764-7.953 17.764-17.764z" stroke="#465f81" stroke-width="5" stroke-linecap="round" stroke-linejoin="round" fill="none"/><path d="M639.657 96.558h-71.725c-7.605 0-13.77-5.95-13.77-13.29v-8.35c0-7.34 6.165-13.29 13.77-13.29h71.725c7.605 0 13.77 5.95 13.77 13.29v8.35c0 7.34-6.165 13.29-13.77 13.29" fill="#697e9d" fill-rule="evenodd"/><path transform="matrix(.459 0 0 -.443 639.657 96.557)" stroke-miterlimit="10" d="M0 0h-156.263c-16.569 0-30 13.431-30 30v18.849c0 16.568 13.431 30 30 30h156.263c16.568 0 30-13.432 30-30v-18.849c0-16.569-13.432-30-30-30z" stroke="#465f81" stroke-width="5" stroke-linecap="round" stroke-linejoin="round" fill="none"/><path d="M614.555 79.093c0 6.233-5.235 11.286-11.693 11.286-6.459 0-11.694-5.053-11.694-11.286s5.235-11.286 11.694-11.286c6.458 0 11.693 5.053 11.693 11.286" fill="#96a0bb" fill-rule="evenodd"/><path transform="matrix(.459 0 0 -.443 614.556 79.092)" stroke-miterlimit="10" d="M0 0c0-14.07-11.406-25.476-25.476-25.476-14.071 0-25.477 11.406-25.477 25.476 0 14.07 11.406 25.476 25.477 25.476 14.07 0 25.476-11.406 25.476-25.476z" stroke="#465f81" stroke-width="5" stroke-linecap="round" stroke-linejoin="round" fill="none"/><path d="M608.648 79.093c0 3.084-2.591 5.584-5.786 5.584-3.196 0-5.786-2.5-5.786-5.584 0-3.084 2.59-5.584 5.786-5.584 3.196 0 5.786 2.5 5.786 5.584" fill="#697e9d" fill-rule="evenodd"/><path transform="matrix(.459 0 0 -.443 608.648 79.092)" stroke-miterlimit="10" d="M0 0c0-6.962-5.644-12.606-12.606-12.606s-12.605 5.644-12.605 12.606 5.643 12.606 12.605 12.606c6.962 0 12.606-5.644 12.606-12.606z" stroke="#465f81" stroke-width="5" stroke-linecap="round" stroke-linejoin="round" fill="none"/><path d="M630.297 79.093c0 1.998-1.678 3.618-3.749 3.618-2.07 0-3.748-1.62-3.748-3.618 0-1.998 1.678-3.618 3.748-3.618 2.071 0 3.749 1.62 3.749 3.618" fill="#ef6e65" fill-rule="evenodd"/><path transform="matrix(.459 0 0 -.443 630.297 79.092)" stroke-miterlimit="10" d="M0 0c0-4.51-3.656-8.167-8.167-8.167-4.51 0-8.166 3.657-8.166 8.167s3.656 8.167 8.166 8.167c4.511 0 8.167-3.657 8.167-8.167z" stroke="#465f81" stroke-width="5" fill="none"/></g><path d="M864.944 353.239h-528.15v-248.627h528.15v248.627z" fill="#f7f9fc" fill-rule="evenodd"/><path d="M864.944 135.595h-422.14v-30.983h422.14v30.983z" fill="#fff" fill-rule="evenodd"/><path d="M849.317 353.239h-390.906v-203.989h390.906v203.989z" fill="#fff" fill-rule="evenodd"/><path d="M442.804 353.239h-106.01v-248.627h106.01v248.627z" fill="#29374e" fill-rule="evenodd"/><path d="M442.804 135.595h-106.01v-30.983h106.01v30.983z" fill="#212c3f" fill-rule="evenodd"/><path transform="matrix(.459 0 0 -.443 387.886 310.137)" stroke-miterlimit="22.926" d="M0 0h-81.833" stroke="#fff" stroke-width="5" stroke-linecap="round" stroke-linejoin="round" fill="none"/><path transform="matrix(.459 0 0 -.443 403.492 321.558)" stroke-miterlimit="22.926" d="M0 0h-115.833" stroke="#fff" stroke-width="5" stroke-linecap="round" stroke-linejoin="round" fill="none"/><path transform="matrix(.459 0 0 -.443 390.87 333.666)" stroke-miterlimit="22.926" d="M0 0h-88.333" stroke="#fff" stroke-width="5" stroke-linecap="round" stroke-linejoin="round" fill="none"/><path transform="matrix(.459 0 0 -.443 396.225 232.956)" stroke-miterlimit="22.926" d="M0 0h-100" stroke="#fff" stroke-width="5" stroke-linecap="round" stroke-linejoin="round" fill="none"/><path transform="matrix(.459 0 0 -.443 381.353 245.065)" stroke-miterlimit="22.926" d="M0 0h-67.6" stroke="#fff" stroke-width="5" stroke-linecap="round" stroke-linejoin="round" fill="none"/><path transform="matrix(.459 0 0 -.443 396.225 256.485)" stroke-miterlimit="22.926" d="M0 0h-100" stroke="#fff" stroke-width="5" stroke-linecap="round" stroke-linejoin="round" fill="none"/><path transform="matrix(.459 0 0 -.443 384.291 268.594)" stroke-miterlimit="22.926" d="M0 0h-74" stroke="#fff" stroke-width="5" stroke-linecap="round" stroke-linejoin="round" fill="none"/><g clip-path="url(#e)"><path d="M507.968 123.353h-45.771c-1.859 0-3.366-1.454-3.366-3.249 0-1.794 1.507-3.249 3.366-3.249h45.771c1.859 0 3.366 1.455 3.366 3.249s-1.507 3.249-3.366 3.249" fill="#465f81" fill-rule="evenodd"/><path d="M542.552 167.197h-68.736c-1.859 0-3.366-1.454-3.366-3.249 0-1.794 1.507-3.249 3.366-3.249h68.736c1.859 0 3.366 1.455 3.366 3.249s-1.507 3.249-3.366 3.249" fill="#465f81" fill-rule="evenodd"/><path d="M542.552 288.579h-68.736c-1.859 0-3.366-1.454-3.366-3.249 0-1.794 1.507-3.249 3.366-3.249h68.736c1.859 0 3.366 1.455 3.366 3.249s-1.507 3.249-3.366 3.249" fill="#465f81" fill-rule="evenodd"/><path d="M742.837 288.579h-68.736c-1.859 0-3.366-1.454-3.366-3.249 0-1.794 1.507-3.249 3.366-3.249h68.736c1.859 0 3.366 1.455 3.366 3.249s-1.507 3.249-3.366 3.249" fill="#465f81" fill-rule="evenodd"/><path d="M553.452 123.353h-27.134c-1.859 0-3.366-1.454-3.366-3.249 0-1.794 1.507-3.249 3.366-3.249h27.134c1.859 0 3.366 1.455 3.366 3.249s-1.507 3.249-3.366 3.249" fill="#465f81" fill-rule="evenodd"/><path d="M389.799 108.505l5.249 2.925 5.249 2.925-5.813 3.24-2.342-1.306-2.343-1.305-2.342 1.305-2.343 1.306v5.221l2.343 1.306 2.342 1.305 2.343-1.305 2.342-1.306 5.813 3.239-5.249 2.925-5.249 2.925-5.249-2.925-5.249-2.925v-11.7l5.249-2.925 5.249-2.925z" fill="#a2baf0" fill-rule="evenodd"/><path d="M389.799 125.426l2.342-1.305 2.343-1.306 5.813 3.239-5.249 2.925-5.249 2.925v-6.478z" fill="#c7d5f6" fill-rule="evenodd"/><path d="M389.799 131.904l-5.249-2.925-5.249-2.925v-11.7l5.813 3.24v5.221l2.343 1.306 2.342 1.305v6.479z" fill="#fff" fill-rule="evenodd"/><path d="M434.492 204.588h-89.453c-.527 0-.954-.412-.954-.921v-16.057c0-.509.427-.921.954-.921h89.453c.527 0 .954.412.954.921v16.057c0 .509-.427.921-.954.921" fill="#14a4fa" fill-rule="evenodd"/><path transform="matrix(.459 0 0 -.443 387.886 181.251)" stroke-miterlimit="22.926" d="M0 0h-81.833" stroke="#fff" stroke-width="5" stroke-linecap="round" stroke-linejoin="round" fill="none"/><path transform="matrix(.459 0 0 -.443 403.492 195.773)" stroke-miterlimit="22.926" d="M0 0h-115.833" stroke="#fff" stroke-width="5" stroke-linecap="round" stroke-linejoin="round" fill="none"/><path d="M756.966 200.51h-32.948v-13.083h32.948v13.083z" fill="#8c97b2" fill-rule="evenodd"/><path d="M485.028 206.062l9.759 5.44c.528.295 1.189-.074 1.189-.662v-10.555c0-.58-.643-.949-1.171-.672l-9.759 5.115c-.544.285-.554 1.036-.018 1.335" fill="#465f81" fill-rule="evenodd"/><path d="M495.771 231.119h-9.456c-.344 0-.624-.269-.624-.602v-9.127c0-.332.28-.602.624-.602h9.456c.344 0 .624.269.624.602v9.127c0 .333-.28.602-.624.602" fill="#14a4fa" fill-rule="evenodd"/><path d="M490.602 191.294l-6.687-6.454c-.243-.235-.243-.616 0-.851l6.687-6.454c.244-.235.638-.235.882 0l6.686 6.454c.244.235.244.616 0 .851l-6.686 6.454c-.244.235-.638.235-.882 0" fill="#465f81" fill-rule="evenodd"/><path d="M497.759 246.281c0 3.216-2.702 5.824-6.034 5.824s-6.034-2.607-6.034-5.824c0-3.216 2.702-5.824 6.034-5.824s6.034 2.607 6.034 5.824" fill="#465f81" fill-rule="evenodd"/><path transform="matrix(.459 0 0 -.443 563.062 184.414)" stroke-miterlimit="22.926" d="M0 0h-126" stroke="#e6e6e6" stroke-width="5" stroke-linecap="round" stroke-linejoin="round" fill="none"/><path transform="matrix(.459 0 0 -.443 545.918 205.562)" stroke-miterlimit="22.926" d="M0 0h-88.648" stroke="#e6e6e6" stroke-width="5" stroke-linecap="round" stroke-linejoin="round" fill="none"/><path transform="matrix(.459 0 0 -.443 534.145 246.28)" stroke-miterlimit="22.926" d="M0 0h-63" stroke="#e6e6e6" stroke-width="5" stroke-linecap="round" stroke-linejoin="round" fill="none"/><path transform="matrix(.459 0 0 -.443 535.292 266.723)" stroke-miterlimit="22.926" d="M0 0h-105.175" stroke="#e6e6e6" stroke-width="5" stroke-linecap="round" stroke-linejoin="round" fill="none"/><path transform="matrix(.459 0 0 -.443 569.95 266.723)" stroke-miterlimit="22.926" d="M0 0h-63" stroke="#14a4fa" stroke-width="5" stroke-linecap="round" stroke-linejoin="round" fill="none"/><path transform="matrix(.459 0 0 -.443 556.818 225.952)" stroke-miterlimit="22.926" d="M0 0h-112.396" stroke="#e6e6e6" stroke-width="5" stroke-linecap="round" stroke-linejoin="round" fill="none"/><path transform="matrix(.459 0 0 -.443 160.197 500.627)" stroke-miterlimit="22.926" d="M954.871 415.436h-245.733v29.129h245.733v-29.129z" stroke="#465f81" stroke-width="5" stroke-linecap="round" stroke-linejoin="round" fill="none"/><path transform="matrix(.459 0 0 -.443 160.197 500.627)" stroke-miterlimit="22.926" d="M1227.701 415.436h-115.419v29.129h115.419v-29.129z" fill="#f2f2f2" fill-rule="evenodd" stroke="#14a4fa" stroke-width="5" stroke-linecap="round" stroke-linejoin="round"/><path transform="matrix(.459 0 0 -.443 160.197 500.627)" stroke-miterlimit="22.926" d="M1363.701 415.436h-115.419v29.129h115.419v-29.129z" stroke="#e6e6e6" stroke-width="5" stroke-linecap="round" stroke-linejoin="round" fill="none"/><path transform="matrix(.459 0 0 -.443 160.197 500.627)" stroke-miterlimit="22.926" d="M954.871 362.322h-245.733v29.129h245.733v-29.129z" stroke="#e6e6e6" stroke-width="5" stroke-linecap="round" stroke-linejoin="round" fill="none"/><path transform="matrix(.459 0 0 -.443 707.925 310.137)" stroke-miterlimit="22.926" d="M0 0h-46.632" stroke="#999" stroke-width="5" stroke-linecap="round" stroke-linejoin="round" fill="none"/><path transform="matrix(.459 0 0 -.443 708.469 199.518)" stroke-miterlimit="22.926" d="M0 0h-142.259" stroke="#e6e6e6" stroke-width="5" stroke-linecap="round" stroke-linejoin="round" fill="none"/><path transform="matrix(.459 0 0 -.443 683.32 211.605)" stroke-miterlimit="22.926" d="M0 0h-87.468" stroke="#e6e6e6" stroke-width="5" stroke-linecap="round" stroke-linejoin="round" fill="none"/><path transform="matrix(.459 0 0 -.443 770.349 310.137)" stroke-miterlimit="22.926" d="M0 0h-46.632" stroke="#999" stroke-width="5" stroke-linecap="round" stroke-linejoin="round" fill="none"/><path transform="matrix(.459 0 0 -.443 160.197 500.627)" stroke-miterlimit="22.926" d="M1032.759 649.716h-34.979v34.979h34.979v-34.979z" stroke="#e8a541" stroke-width="5" stroke-linecap="round" stroke-linejoin="round" fill="none"/><path transform="matrix(.459 0 0 -.443 160.197 500.627)" stroke-miterlimit="22.926" d="M1307.701 620.667h-327v93.077h327v-93.077z" stroke="#e6e6e6" stroke-width="5" stroke-linecap="round" stroke-linejoin="round" fill="none"/><path d="M630.978 205.044c0 2.503-2.103 4.533-4.696 4.533-2.594 0-4.697-2.029-4.697-4.533 0-2.503 2.103-4.533 4.697-4.533s4.696 2.029 4.696 4.533" fill="#fdd26a" fill-rule="evenodd"/><path transform="matrix(.459 0 0 -.443 630.978 205.043)" stroke-miterlimit="22.926" d="M0 0c0-5.651-4.581-10.232-10.232-10.232-5.652 0-10.233 4.581-10.233 10.232 0 5.651 4.581 10.232 10.233 10.232 5.651 0 10.232-4.581 10.232-10.232z" stroke="#e8a541" stroke-width="5" stroke-linecap="round" stroke-linejoin="round" fill="none"/><path d="M367.231 171.184h-15.348c-1.859 0-3.366-1.454-3.366-3.249 0-1.794 1.507-3.249 3.366-3.249h15.348c1.859 0 3.366 1.455 3.366 3.249s-1.507 3.249-3.366 3.249" fill="#465f81" fill-rule="evenodd"/><path d="M367.231 222.424h-15.348c-1.859 0-3.366-1.454-3.366-3.249 0-1.794 1.507-3.249 3.366-3.249h15.348c1.859 0 3.366 1.455 3.366 3.249s-1.507 3.249-3.366 3.249" fill="#465f81" fill-rule="evenodd"/><path d="M367.231 299.949h-15.348c-1.859 0-3.366-1.454-3.366-3.249 0-1.794 1.507-3.249 3.366-3.249h15.348c1.859 0 3.366 1.455 3.366 3.249s-1.507 3.249-3.366 3.249" fill="#465f81" fill-rule="evenodd"/><path transform="matrix(.459 0 0 -.443 160.197 500.627)" stroke-miterlimit="22.926" d="M1536.184 332.704h-1150.654v561.235h1150.654v-561.235z" stroke="#465f81" stroke-width="5" stroke-linecap="round" stroke-linejoin="round" fill="none"/></g></g><path d="M0 500h1200.009v-500h-1200.009v500z" fill="#2a2e6d" fill-opacity=".825"/></svg>