<svg xmlns="http://www.w3.org/2000/svg" width="1200" height="500" viewBox="0 0 1200 500"><defs><clipPath id="a"><path d="M0 1080h1920v-1080h-1920v1080z"/></clipPath><filter id="b" color-interpolation-filters="sRGB"><feGaussianBlur stdDeviation="5" result="fbSourceGraphic"/><feGaussianBlur stdDeviation=".01" in="SourceGraphic" result="result1"/><feComposite in2="result1" operator="arithmetic" in="fbSourceGraphic" k2=".5" k3=".5" result="result2"/><feBlend in2="fbSourceGraphic" result="result3"/></filter></defs><g clip-path="url(#a)" filter="url(#b)"><path d="M383.53 405.102h-216.811c-26.49 0-47.964-21.474-47.964-47.964v-213.053c0-26.49 21.474-47.964 47.964-47.964h216.811c26.49 0 47.964 21.474 47.964 47.964v213.053c0 26.49-21.474 47.964-47.964 47.964" fill="#f7973b"/><path stroke-miterlimit="10" d="M383.53 405.102h-216.811c-26.49 0-47.964-21.474-47.964-47.964v-213.053c0-26.49 21.474-47.964 47.964-47.964h216.811c26.49 0 47.964 21.474 47.964 47.964v213.053c0 26.49-21.474 47.964-47.964 47.964z" stroke="#465f81" stroke-width="4.04" fill="none"/><path d="M314.217 222.688c-15.059 0-28.772 5.729-39.091 15.118-10.322-9.392-24.039-15.118-39.094-15.118-32.213 0-58.279 26.207-58.104 58.42l.436 80.284h38.34v-81.61c0-10.357 8.396-18.754 18.754-18.754h1.585c10.358 0 18.754 8.397 18.754 18.754v81.61h39.092v-81.61c0-10.357 8.396-18.754 18.753-18.754h1.586c10.357 0 18.754 8.397 18.754 18.754v81.61h38.34v-80.599c0-32.091-26.014-58.105-58.105-58.105" fill="#fff"/><path stroke-miterlimit="10" d="M314.217 222.688c-15.059 0-28.772 5.729-39.091 15.118-10.322-9.392-24.039-15.118-39.094-15.118-32.213 0-58.279 26.207-58.104 58.42l.436 80.284h38.34v-81.61c0-10.357 8.396-18.754 18.754-18.754h1.585c10.358 0 18.754 8.397 18.754 18.754v81.61h39.092v-81.61c0-10.357 8.396-18.754 18.753-18.754h1.586c10.357 0 18.754 8.397 18.754 18.754v81.61h38.34v-80.599c0-32.091-26.014-58.105-58.105-58.105z" stroke="#465f81" stroke-width="4.04" stroke-linecap="round" stroke-linejoin="round" fill="none"/><path stroke-miterlimit="10" d="M324.242 198.469h-98.237v-48.941h98.237v48.941z" fill="#465f81" stroke="#465f81" stroke-width="4.04" stroke-linecap="round" stroke-linejoin="round"/><path d="M368.583 148.722h-186.917c-3.571 0-6.464-2.894-6.464-6.464 0-3.57 2.893-6.464 6.464-6.464h186.917c3.57 0 6.464 2.894 6.464 6.464 0 3.57-2.894 6.464-6.464 6.464" fill="#697e9d"/><path stroke-miterlimit="10" d="M368.583 148.722h-186.917c-3.571 0-6.464-2.894-6.464-6.464 0-3.57 2.893-6.464 6.464-6.464h186.917c3.57 0 6.464 2.894 6.464 6.464 0 3.57-2.894 6.464-6.464 6.464z" stroke="#465f81" stroke-width="4.04" stroke-linecap="round" stroke-linejoin="round" fill="none"/><path stroke-miterlimit="10" d="M184.261 204.744v-56.021" fill="#697e9d" stroke="#465f81" stroke-width="4.04" stroke-linecap="round" stroke-linejoin="round"/><path d="M184.261 217.761l-8.883-8.883 8.883-8.883 8.883 8.883-8.883 8.883z" fill="#697e9d"/><path stroke-miterlimit="10" d="M184.261 217.761l-8.883-8.883 8.883-8.883 8.883 8.883-8.883 8.883z" stroke="#465f81" stroke-width="4.04" stroke-linecap="round" stroke-linejoin="round" fill="none"/><path stroke-miterlimit="10" d="M314.214 158.38v30.704" fill="#697e9d" stroke="#fff" stroke-width="4.04" stroke-linecap="round" stroke-linejoin="round"/><path d="M1051.202 389.208h-333.767c-13.873 0-25.118-11.246-25.118-25.118v-216.814c0-13.873 11.246-25.118 25.118-25.118h333.767c13.873 0 25.118 11.246 25.118 25.118v216.814c0 13.873-11.246 25.118-25.118 25.118" fill="#f6c737"/><path stroke-miterlimit="10" d="M1051.202 389.208h-333.767c-13.873 0-25.118-11.246-25.118-25.118v-216.814c0-13.873 11.246-25.118 25.118-25.118h333.767c13.873 0 25.118 11.246 25.118 25.118v216.814c0 13.873-11.246 25.118-25.118 25.118z" stroke="#465f81" stroke-width="4.04" fill="none"/><path d="M1042.694 366.056h-316.751c-3.804 0-6.887-3.083-6.887-6.887v-206.971c0-3.804 3.083-6.887 6.887-6.887h316.751c3.804 0 6.887 3.083 6.887 6.887v206.971c0 3.804-3.083 6.887-6.887 6.887" fill="#465f81"/><path stroke-miterlimit="10" d="M1042.694 366.056h-316.751c-3.804 0-6.887-3.083-6.887-6.887v-206.971c0-3.804 3.083-6.887 6.887-6.887h316.751c3.804 0 6.887 3.083 6.887 6.887v206.971c0 3.804-3.083 6.887-6.887 6.887z" stroke="#465f81" stroke-width="4.04" stroke-linecap="round" stroke-linejoin="round" fill="none"/><path stroke-miterlimit="10" d="M733.282 163.228h302.072" fill="#465f81" stroke="#fff" stroke-width="4.04" stroke-linecap="round" stroke-linejoin="round"/><path stroke-miterlimit="10" d="M733.282 349.57h302.072" fill="#465f81" stroke="#fff" stroke-width="4.04" stroke-linecap="round" stroke-linejoin="round"/><path stroke-miterlimit="22.926" d="M745.806 254.067h277.024" stroke="#fff" stroke-width="4.04" stroke-linecap="round" stroke-linejoin="round" stroke-dasharray="14, 10" fill="none"/><path d="M832.476 318.199c8.789 0 15.696-2.615 20.719-7.848 5.022-5.232 7.534-12.171 7.534-20.823 0-5.3-.837-9.66-2.512-13.08-1.673-3.417-3.975-6.138-6.905-8.162-2.93-2.021-6.42-3.417-10.464-4.186-4.048-.765-8.444-1.151-13.185-1.151h-11.092v53.785c1.953.419 4.009.768 6.175 1.046 2.161.281 5.406.419 9.732.419m-9.208-68.853c2.37 0 4.741-.104 7.114-.314 2.371-.208 4.604-.451 6.698-.732 5.441-2.23 9.836-5.683 13.185-10.359 3.348-4.673 5.022-10.01 5.022-16.01 0-8.789-2.301-15.241-6.905-19.359-4.605-4.114-10.536-6.173-17.789-6.173-3.071 0-5.723.072-7.953.209-2.233.141-4.257.35-6.07.628v52.11h6.698zm-53.995 81.201v-7.953c2.649-1.533 5.474-2.858 8.476-3.976 2.998-1.115 5.893-1.812 8.685-2.093v-118.452c-2.792-.556-5.722-1.36-8.789-2.407-3.071-1.046-5.86-2.266-8.372-3.663v-7.952h33.694c5.3 0 10.324-.209 15.068-.628 4.741-.419 10.182-.628 16.324-.628 6.697 0 13.184.49 19.463 1.465 6.277.978 11.857 2.721 16.743 5.233 4.882 2.51 8.789 6.036 11.719 10.569 2.93 4.535 4.395 10.359 4.395 17.475 0 4.467-.804 8.617-2.407 12.452-1.605 3.839-3.838 7.22-6.697 10.15-2.861 2.93-6.209 5.372-10.045 7.325-3.839 1.955-7.989 3.348-12.452 4.185v.837c4.463.559 8.962 1.605 13.498 3.14 4.532 1.537 8.613 3.767 12.243 6.697 3.626 2.93 6.592 6.592 8.894 10.987 2.302 4.395 3.453 9.594 3.453 15.591 0 7.534-1.674 14.021-5.023 19.463-3.348 5.441-7.847 9.908-13.498 13.393-5.651 3.49-12.105 6.037-19.359 7.639-7.256 1.602-14.79 2.407-22.601 2.407-2.93 0-6.142-.072-9.627-.209-3.489-.141-6.978-.281-10.464-.419-3.49-.141-6.874-.281-10.15-.419-3.28-.141-6.037-.209-8.267-.209h-24.904z" fill="#fff"/><path d="M932.403 258.521v56.403c1.758 1.257 3.925 2.262 6.501 3.015 2.573.753 5.494 1.13 8.763 1.13 7.161 0 24.42-2.972 24.42-28.497 0-39.721-38.304-37.33-39.684-32.053m-27.137-56.663l-14.322-1.511v-7.16c1.884-.754 4.364-1.509 7.443-2.262 3.078-.754 6.281-1.414 9.612-1.979 3.327-.566 6.596-1.066 9.799-1.508 3.203-.439 5.936-.783 8.197-1.037h6.407v57.124l.377 5.656c2.512-6.281 33.719-15.431 50.822.165 6.778 6.181 14.005 13.065 14.005 28.642 0 17.214-4.555 30.151-13.662 38.82-9.11 8.669-22.458 13.003-40.046 13.003-3.141 0-6.66-.221-10.552-.66-3.896-.444-7.665-.977-11.307-1.605-3.645-.629-7.005-1.383-10.081-2.264-.873 1.993-1.935 4.223-2.759 5.629-1.816-1.086-2.65-1.701-3.933-2.617v-126.437z" fill="#fff"/></g><path d="M0 500h1200v-500h-1200v500z" fill="#252c38" fill-opacity=".722"/></svg>