<svg xmlns="http://www.w3.org/2000/svg" width="1200" height="500" viewBox="0 0 1200 500"><defs><clipPath id="a"><path d="M0 1080h1920v-1080h-1920v1080z"/></clipPath><clipPath id="b"><path d="M401.037 840.5h108.296v-73h-108.296v73z"/></clipPath><clipPath id="c"><path d="M1076.74 751.993h110.22v-57.608h-110.22v57.608z"/></clipPath></defs><g><g clip-path="url(#a)"><path d="M647.681 81.26v8.25c0 7.222 5.833 13.076 13.028 13.076h27.761v47.285h23.639c7.438 0 13.467-6.052 13.467-13.516v-36.146c0-10.465-8.453-18.949-18.88-18.949h-59.015z" fill="#465f81" fill-rule="evenodd"/><path d="M0 0v-15.027c0-13.154 10.663-23.817 23.817-23.817h50.752v-86.129h43.216c13.597 0 24.619 11.023 24.619 24.619v65.839c0 19.062-15.453 34.515-34.515 34.515h-107.889z" stroke="#465f81" stroke-width="5" stroke-linecap="round" stroke-linejoin="round" stroke-miterlimit="22.926" fill="none" transform="matrix(.546 0 0 -.55 646.617 80.393)"/><path d="M471.168 404.392l36.335 46.408 20.322-16.028-13.216-16.879-28.443-17.966c-3.548-1.71-7.755-1.247-10.849 1.194l-4.149 3.272z" fill="#e8a541" fill-rule="evenodd"/><path d="M0 0l66.426-84.531 37.152 29.195-24.161 30.745-51.998 32.725c-6.486 3.115-14.178 2.271-19.834-2.174l-7.585-5.96z" stroke="#465f81" stroke-width="5" stroke-linecap="round" stroke-linejoin="round" stroke-miterlimit="22.926" fill="none" transform="matrix(.546 0 0 -.55 470.426 404.114)"/><path d="M466.448 404.942l39.406 50.33 6.369-5.022-39.406-50.33-6.368 5.023z" fill="#fff" fill-rule="evenodd"/><path d="M0 0l72.04-91.675 11.643 9.148-72.041 91.676-11.642-9.149z" stroke="#465f81" stroke-width="5" stroke-linecap="round" stroke-linejoin="round" stroke-miterlimit="10" fill="none" transform="matrix(.546 0 0 -.55 465.715 404.665)"/><path d="M514.648 435.535c-1.916 1.511-4.691 1.178-6.196-.746-1.505-1.923-1.173-4.707.743-6.219 1.916-1.511 4.691-1.178 6.196.746s1.173 4.708-.743 6.219" fill="#fff" fill-rule="evenodd"/><path d="M0 0c-3.503-2.753-8.575-2.145-11.328 1.359-2.752 3.503-2.144 8.574 1.359 11.327s8.575 2.145 11.328-1.358c2.752-3.504 2.144-8.575-1.359-11.328z" stroke="#465f81" stroke-width="5" stroke-linecap="round" stroke-linejoin="round" stroke-miterlimit="10" fill="none" transform="matrix(.546 0 0 -.55 513.827 435.313)"/><path d="M661.732 331.972l-131.225 103.496-21.315-27.224 131.225-103.496 21.315 27.224z" fill="#6394c2" fill-rule="evenodd"/><path d="M0 0l-239.9-188.518-38.967 49.588 239.9 188.518 38.967-49.588z" stroke="#465f81" stroke-width="5" stroke-linecap="round" stroke-linejoin="round" stroke-miterlimit="10" fill="none" transform="matrix(.546 0 0 -.55 660.642 331.562)"/><path d="M531.368 439.428l-29.084-37.146 7.261-5.727 29.084 37.146-7.261 5.727z" fill="#a2c0dc" fill-rule="evenodd"/><path d="M0 0l-53.17 67.661 13.275 10.432 53.17-67.661-13.275-10.432z" stroke="#465f81" stroke-width="5" stroke-linecap="round" stroke-linejoin="round" stroke-miterlimit="10" fill="none" transform="matrix(.546 0 0 -.55 530.517 439.213)"/><path d="M1162.391 651h-36.687v64.366h36.687v-64.366z" fill="#f8cfc3" fill-rule="evenodd" stroke="#465f81" stroke-width="5" stroke-miterlimit="10" transform="matrix(.546 0 0 -.55 66.216 557.62)"/><path d="M560.641 281.407h41.658v-21.391h-27.347c-7.904 0-14.311 6.431-14.311 14.363v7.027z" fill="#f8cfc3" fill-rule="evenodd"/><path d="M0 0h76.158v38.963h-49.995c-14.449 0-26.163-11.714-26.163-26.163v-12.8z" stroke="#465f81" stroke-width="5" stroke-miterlimit="10" fill="none" transform="matrix(.546 0 0 -.55 559.737 280.905)"/><path d="M0 0l-.17-31.441c0-7.351-5.959-13.309-13.309-13.309l-81.066.089v-53.069l99.982.23c28.619 0 51.82 24.2 51.82 52.82v56.68" fill="#fff" fill-rule="evenodd" stroke="#465f81" stroke-width="5" stroke-linecap="round" stroke-linejoin="round" stroke-miterlimit="10" transform="matrix(.546 0 0 -.55 646.636 235.162)"/><path d="M968.496 482.119h37.509v62.284h-37.509v-62.284z" fill="#fff" fill-rule="evenodd" stroke="#465f81" stroke-width="5" stroke-linecap="round" stroke-linejoin="round" stroke-miterlimit="10" transform="matrix(.546 0 0 -.55 66.216 557.62)"/><path d="M616.912 287.202h7.482v-26.033h-7.482v26.033z" fill="#dbf9ff" fill-rule="evenodd"/><path d="M0 0h-140.287c-22.509 0-40.756 18.247-40.756 40.756v307.809" stroke="#465f81" stroke-width="5" stroke-linecap="round" stroke-linejoin="round" stroke-miterlimit="22.926" stroke-dasharray="14, 10" fill="none" transform="matrix(.546 0 0 -.55 392.539 334.363)"/><path d="M814.565 502.407h-80.13v101.593h80.13v-101.593z" fill="#dbf9ff" fill-rule="evenodd" stroke="#465f81" stroke-width="5" stroke-linecap="round" stroke-linejoin="round" stroke-miterlimit="22.926" transform="matrix(.546 0 0 -.55 66.216 557.62)"/><path d="M509.568 246.941h-40.95v-10.685h40.95v10.685z" fill="#a6ccd6" fill-rule="evenodd"/><path d="M576.391 235.539h-173.046c-6.037 0-10.93-4.911-10.93-10.97v-100.925c0-6.059 4.893-10.97 10.93-10.97h173.046c6.037 0 10.93 4.911 10.93 10.97v100.925c0 6.059-4.893 10.97-10.93 10.97" fill="#465f81" fill-rule="evenodd"/><path d="M0 0h-316.354c-11.036 0-19.982 8.946-19.982 19.982v183.834c0 11.036 8.946 19.982 19.982 19.982h316.354c11.036 0 19.982-8.946 19.982-19.982v-183.834c0-11.036-8.946-19.982-19.982-19.982z" stroke="#465f81" stroke-width="5" stroke-linecap="round" stroke-linejoin="round" stroke-miterlimit="22.926" fill="none" transform="matrix(.546 0 0 -.55 575.458 234.953)"/><path d="M0 0v-134.271c0-16.971-13.758-30.729-30.729-30.729h-302.042c-16.971 0-30.729-13.758-30.729-30.729v-106.679" stroke="#465f81" stroke-width="5" stroke-linecap="round" stroke-linejoin="round" stroke-miterlimit="22.926" stroke-dasharray="14, 10" fill="none" transform="matrix(.546 0 0 -.55 532.773 288.67)"/><path d="M0 0h134.271c16.971 0 30.729-13.758 30.729-30.729v-290.287c0-22.508-18.247-40.755-40.756-40.755h-307.809" stroke="#465f81" stroke-width="5" stroke-linecap="round" stroke-linejoin="round" stroke-miterlimit="22.926" stroke-dasharray="14, 10" fill="none" transform="matrix(.546 0 0 -.55 870.236 110.637)"/><path d="M800.441 294.973h-407.268v160.207h21.818v-132.187h363.632v132.187h21.818v-160.207z" fill="#fdd26a" fill-rule="evenodd"/><path d="M0 0h-744.549v-291.816h39.887v240.777h664.776v-240.777h39.886v291.816z" stroke="#465f81" stroke-width="5" stroke-linecap="round" stroke-linejoin="round" stroke-miterlimit="10" fill="none" transform="matrix(.546 0 0 -.55 799.098 294.496)"/><path d="M797.718 305.792h-403.812v-9.566h403.812v9.566z" fill="#e8a541" fill-rule="evenodd"/><path d="M1384.729 475.262h-829.458v26.999h829.458v-26.999z" fill="#fdd26a" fill-rule="evenodd" stroke="#465f81" stroke-width="5" stroke-linecap="round" stroke-linejoin="round" stroke-miterlimit="10" transform="matrix(.546 0 0 -.55 66.216 557.62)"/><path d="M0 0h1084.446" fill="#fdd26a" fill-rule="evenodd" stroke="#465f81" stroke-width="5" stroke-linecap="round" stroke-linejoin="round" stroke-miterlimit="10" transform="matrix(.546 0 0 -.55 293.689 454.994)"/><path d="M579.307 207.126h-181.022v-88.805h181.022v88.805z" fill="#ef6e65" fill-rule="evenodd"/><path d="M495.15 230.415c0 2.931-2.367 5.307-5.288 5.307-2.92 0-5.287-2.376-5.287-5.307 0-2.931 2.367-5.307 5.287-5.307s5.288 2.376 5.288 5.307" fill="#a6ccd6" fill-rule="evenodd"/><path d="M530.101 274.06h-81.188c-1.948 0-3.527 1.732-3.527 3.868 0 2.137 1.579 3.869 3.527 3.869h81.188c1.948 0 3.527-1.732 3.527-3.869 0-2.136-1.579-3.868-3.527-3.868" fill="#dbf9ff" fill-rule="evenodd"/><path d="M0 0h-148.424c-3.561 0-6.448-3.155-6.448-7.046 0-3.892 2.887-7.047 6.448-7.047h148.424c3.561 0 6.448 3.155 6.448 7.047 0 3.891-2.887 7.046-6.448 7.046z" stroke="#465f81" stroke-width="5" stroke-linecap="round" stroke-linejoin="round" stroke-miterlimit="22.926" fill="none" transform="matrix(.546 0 0 -.55 529.252 273.545)"/><path d="M663.404 442.21c0 7.089-5.726 12.836-12.789 12.836s-12.789-5.746-12.789-12.836c0-7.089 5.725-12.836 12.789-12.836 7.063 0 12.789 5.746 12.789 12.836" fill="#6394c2" fill-rule="evenodd"/><path d="M0 0c0-12.913-10.468-23.38-23.38-23.38-12.913 0-23.38 10.467-23.38 23.38 0 12.913 10.467 23.38 23.38 23.38 12.912 0 23.38-10.467 23.38-23.38z" stroke="#465f81" stroke-width="5" stroke-linecap="round" stroke-linejoin="round" stroke-miterlimit="10" fill="none" transform="matrix(.546 0 0 -.55 662.311 442.001)"/><path d="M766.761 442.21c0 7.089-5.726 12.836-12.789 12.836s-12.789-5.746-12.789-12.836c0-7.089 5.725-12.836 12.789-12.836 7.063 0 12.789 5.746 12.789 12.836" fill="#6394c2" fill-rule="evenodd"/><path d="M0 0c0-12.913-10.468-23.38-23.38-23.38-12.913 0-23.38 10.467-23.38 23.38 0 12.913 10.467 23.38 23.38 23.38 12.912 0 23.38-10.467 23.38-23.38z" stroke="#465f81" stroke-width="5" stroke-linecap="round" stroke-linejoin="round" stroke-miterlimit="10" fill="none" transform="matrix(.546 0 0 -.55 765.479 442.001)"/><path d="M759.716 442.21c0 3.184-2.571 5.765-5.744 5.765-3.172 0-5.744-2.581-5.744-5.765 0-3.184 2.571-5.765 5.744-5.765 3.172 0 5.744 2.581 5.744 5.765" fill="#6394c2" fill-rule="evenodd"/><path d="M0 0c0-5.799-4.701-10.5-10.5-10.5s-10.5 4.701-10.5 10.5 4.701 10.5 10.5 10.5 10.5-4.701 10.5-10.5z" stroke="#465f81" stroke-width="5" stroke-linecap="round" stroke-linejoin="round" stroke-miterlimit="10" fill="none" transform="matrix(.546 0 0 -.55 758.447 442.001)"/><path d="M656.358 442.21c0 3.184-2.571 5.765-5.744 5.765-3.172 0-5.744-2.581-5.744-5.765 0-3.184 2.571-5.765 5.744-5.765 3.172 0 5.744 2.581 5.744 5.765" fill="#6394c2" fill-rule="evenodd"/><path d="M0 0c0-5.799-4.701-10.5-10.5-10.5s-10.5 4.701-10.5 10.5 4.701 10.5 10.5 10.5 10.5-4.701 10.5-10.5z" stroke="#465f81" stroke-width="5" stroke-linecap="round" stroke-linejoin="round" stroke-miterlimit="10" fill="none" transform="matrix(.546 0 0 -.55 655.278 442.001)"/><path d="M1173.095 186.466h-22.25v39h22.25v-39z" fill="#6394c2" fill-rule="evenodd" stroke="#465f81" stroke-width="5" stroke-linecap="round" stroke-linejoin="round" stroke-miterlimit="10" transform="matrix(.546 0 0 -.55 66.216 557.62)"/><path d="M709.678 425.931v-82.781h-15.316v82.781h-47.219c-7.447 0-13.485 6.059-13.485 13.534h136.724c0-7.475-6.038-13.534-13.485-13.534h-47.219z" fill="#a6ccd6" fill-rule="evenodd"/><path d="M0 0v150.785h-28v-150.785h-86.324c-13.615 0-24.653-11.037-24.653-24.652h249.954c0 13.615-11.038 24.652-24.653 24.652h-86.324z" stroke="#465f81" stroke-width="5" stroke-linecap="round" stroke-linejoin="round" stroke-miterlimit="22.926" fill="none" transform="matrix(.546 0 0 -.55 708.5 425.692)"/><path d="M711.36 439.465h-18.68v-7.208c0-3.487 2.816-6.314 6.291-6.314h6.099c3.474 0 6.29 2.827 6.29 6.314v7.208z" fill="#6394c2" fill-rule="evenodd"/><path d="M0 0h-34.15v13.13c0 6.351 5.148 11.5 11.5 11.5h11.15c6.351 0 11.5-5.149 11.5-11.5v-13.13z" stroke="#465f81" stroke-width="5" stroke-linecap="round" stroke-linejoin="round" stroke-miterlimit="10" fill="none" transform="matrix(.546 0 0 -.55 710.179 439.251)"/><path d="M593.727 329.281v79.858h39.011v-63.487c0-3.237 2.615-5.862 5.841-5.862h68.473c11.383 0 20.61-9.262 20.61-20.686v-14.544h-109.304c-13.603 0-24.631 11.068-24.631 24.721" fill="#79a8dc" fill-rule="evenodd"/><path d="M0 0v-145.46h71.318v115.641c0 5.897 4.781 10.678 10.679 10.678h125.179c20.81 0 37.679 16.87 37.679 37.68v26.491h-199.825c-24.869 0-45.03-20.161-45.03-45.03z" stroke="#465f81" stroke-width="5" stroke-linecap="round" stroke-linejoin="round" stroke-miterlimit="10" fill="none" transform="matrix(.546 0 0 -.55 592.762 328.866)"/><path d="M565.238 451.115h58.806v-25.94h-21.389l-31.649 11.345c-3.531 1.743-5.768 5.349-5.768 9.3v5.296z" fill="#fdd26a" fill-rule="evenodd"/><path d="M0 0h107.507v47.25h-39.102l-57.86-20.665c-6.455-3.175-10.545-9.744-10.545-16.939v-9.646z" stroke="#465f81" stroke-width="5" stroke-linecap="round" stroke-linejoin="round" stroke-miterlimit="10" fill="none" transform="matrix(.546 0 0 -.55 564.325 450.922)"/><path d="M907.744 186.592h116.594v14.807h-116.594v-14.807z" fill="#fff" fill-rule="evenodd" stroke="#465f81" stroke-width="5" stroke-linecap="round" stroke-linejoin="round" stroke-miterlimit="10" transform="matrix(.546 0 0 -.55 66.216 557.62)"/><path d="M616.501 436.045c0 2.446-1.976 4.429-4.413 4.429-2.437 0-4.413-1.983-4.413-4.429s1.975-4.429 4.413-4.429c2.437 0 4.413 1.983 4.413 4.429" fill="#fff" fill-rule="evenodd"/><path d="M0 0c0-4.455-3.612-8.067-8.067-8.067-4.456 0-8.067 3.612-8.067 8.067s3.611 8.067 8.067 8.067c4.455 0 8.067-3.612 8.067-8.067z" stroke="#465f81" stroke-width="5" stroke-linecap="round" stroke-linejoin="round" stroke-miterlimit="10" fill="none" transform="matrix(.546 0 0 -.55 615.494 435.824)"/><path d="M980.133 241.246h39.662v29.209h-39.662v-29.209z" fill="#f8cfc3" fill-rule="evenodd" stroke="#465f81" stroke-width="5" stroke-miterlimit="10" transform="matrix(.546 0 0 -.55 66.216 557.62)"/><path d="M1042.704 269.374h-86.053v16.883h86.053v-16.883z" fill="#a2c0dc" fill-rule="evenodd" stroke="#465f81" stroke-width="5" stroke-linecap="round" stroke-linejoin="round" stroke-miterlimit="10" transform="matrix(.546 0 0 -.55 66.216 557.62)"/><path d="M0 0v-6.788c0-9.062 7.346-16.408 16.407-16.408h6.63" stroke="#465f81" stroke-width="5" stroke-linecap="round" stroke-linejoin="round" stroke-miterlimit="22.926" fill="none" transform="matrix(.546 0 0 -.55 688.278 304.572)"/><path d="M610.932 399.2h-16.257v-70.514s.773-8.498 5.169-13.91c3.7-5.699 11.088-7.786 11.088-7.786v92.21z" fill="#6394c2" fill-rule="evenodd"/><path d="M576.391 235.539h-173.046c-6.037 0-10.93-4.911-10.93-10.97v-9.726h194.906v9.726c0 6.059-4.893 10.97-10.93 10.97" fill="#dbf9ff" fill-rule="evenodd"/><path d="M0 0h-316.354c-11.036 0-19.982 8.946-19.982 19.982v183.834c0 11.036 8.946 19.982 19.982 19.982h316.354c11.036 0 19.982-8.946 19.982-19.982v-183.834c0-11.036-8.946-19.982-19.982-19.982z" stroke="#465f81" stroke-width="5" stroke-linecap="round" stroke-linejoin="round" stroke-miterlimit="22.926" fill="none" transform="matrix(.546 0 0 -.55 575.458 234.953)"/><path d="M495.934 224.144c0 3.363-2.716 6.088-6.066 6.088-3.35 0-6.066-2.725-6.066-6.088s2.716-6.088 6.066-6.088c3.35 0 6.066 2.725 6.066 6.088" fill="#a6ccd6" fill-rule="evenodd"/><path d="M465.378 207.762h-66.483v-88.644h115.713l-49.23 88.644z" fill="#f1877a" fill-rule="evenodd"/><path d="M489.507 133.393l13.586 7.872 13.586 7.873-15.046 8.719-6.063-3.514-6.063-3.513-6.063 3.513-6.062 3.514v14.053l6.062 3.513 6.063 3.513 6.063-3.513 6.063-3.513 15.046 8.718-13.586 7.873-13.586 7.873-13.586-7.873-13.586-7.873v-31.49l13.586-7.873 13.586-7.872z" fill="#a2baf0" fill-rule="evenodd"/><path d="M0 0l24.838-14.339 24.837-14.34-27.506-15.881-11.085 6.4-11.084 6.399-11.084-6.399-11.083-6.4v-25.597l11.083-6.399 11.084-6.399 11.084 6.399 11.085 6.399 27.506-15.88-24.837-14.34-24.838-14.34-24.837 14.34-24.837 14.34v57.358l24.837 14.34 24.837 14.339z" stroke="#465f81" stroke-width="5" stroke-linecap="round" stroke-linejoin="round" stroke-miterlimit="22.926" fill="none" transform="matrix(.546 0 0 -.55 488.732 132.621)"/><path d="M489.507 178.936l6.063-3.513 6.063-3.513 15.046 8.718-13.586 7.873-13.586 7.872v-17.437z" fill="#c7d5f6" fill-rule="evenodd"/><path d="M0 0l11.084 6.399 11.084 6.399 27.506-15.88-24.837-14.34-24.837-14.339v31.761z" stroke="#465f81" stroke-width="5" stroke-linecap="round" stroke-linejoin="round" stroke-miterlimit="22.926" fill="none" transform="matrix(.546 0 0 -.55 488.733 178.247)"/><path d="M489.507 196.373l-13.586-7.873-13.586-7.873v-31.49l15.046 8.719v14.053l6.062 3.513 6.063 3.513v17.437z" fill="#fff" fill-rule="evenodd"/><path d="M0 0l-24.837 14.34-24.837 14.34v57.358l27.507-15.881v-25.597l11.083-6.399 11.084-6.399v-31.762z" stroke="#465f81" stroke-width="5" stroke-linecap="round" stroke-linejoin="round" stroke-miterlimit="22.926" fill="none" transform="matrix(.546 0 0 -.55 488.732 195.716)"/><path d="M871.71 111.419c0 23.6-19.062 42.732-42.576 42.732s-42.576-19.132-42.576-42.732c0-23.6 19.062-42.732 42.576-42.732s42.576 19.132 42.576 42.732" fill="#a6ccd6" fill-rule="evenodd"/><path d="M0 0c0-42.988-34.848-77.836-77.836-77.836s-77.836 34.848-77.836 77.836 34.848 77.836 77.836 77.836 77.836-34.848 77.836-77.836z" stroke="#465f81" stroke-width="5" stroke-linecap="round" stroke-linejoin="round" stroke-miterlimit="22.926" fill="none" transform="matrix(.546 0 0 -.55 870.236 110.607)"/><path d="M861.359 111.419c0 17.862-14.428 32.343-32.225 32.343-17.798 0-32.225-14.48-32.225-32.343 0-17.862 14.428-32.343 32.225-32.343s32.225 14.48 32.225 32.343" fill="#dbf9ff" fill-rule="evenodd"/><path d="M0 0c0-32.536-26.376-58.912-58.912-58.912-32.537 0-58.913 26.376-58.913 58.912s26.376 58.912 58.913 58.912c32.536 0 58.912-26.376 58.912-58.912z" stroke="#465f81" stroke-width="5" stroke-linecap="round" stroke-linejoin="round" stroke-miterlimit="22.926" fill="none" transform="matrix(.546 0 0 -.55 859.905 110.607)"/><path d="M0 0s30.333-4.667 35.333-37.667" stroke="#fff" stroke-width="5" stroke-linecap="round" stroke-linejoin="round" stroke-miterlimit="22.926" fill="none" transform="matrix(.546 0 0 -.55 832.436 85.903)"/><path d="M0 0v-27.667l38.317-23.196" fill="#dbf9ff" fill-rule="evenodd" stroke="#465f81" stroke-width="5" stroke-linecap="round" stroke-linejoin="round" stroke-miterlimit="22.926" transform="matrix(.546 0 0 -.55 826.439 95.42)"/><path d="M0 0l39.683-7.304" fill="#dbf9ff" fill-rule="evenodd" stroke="#f00" stroke-width="5" stroke-linecap="round" stroke-linejoin="round" stroke-miterlimit="22.926" transform="matrix(.546 0 0 -.55 804.772 106.62)"/><path d="M533.618 745.648h-234v163.634h234v-163.634z" fill="#fdd26a" fill-rule="evenodd" stroke="#465f81" stroke-width="5" stroke-linecap="round" stroke-linejoin="round" stroke-miterlimit="10" transform="matrix(.546 0 0 -.55 66.216 557.62)"/><path d="M512.867 765.129h-192.498v124.671h192.498v-124.671z" fill="#dbf9ff" fill-rule="evenodd" stroke="#465f81" stroke-width="5" stroke-linecap="round" stroke-linejoin="round" stroke-miterlimit="22.926" transform="matrix(.546 0 0 -.55 66.216 557.62)"/><path d="M0 0l159.667-2.369" stroke="#465f81" stroke-width="5" stroke-linecap="round" stroke-linejoin="round" stroke-miterlimit="22.926" stroke-dasharray="14, 10" fill="none" transform="matrix(.546 0 0 -.55 207.084 221.203)"/><path d="M0 0c0-16.079-13.034-29.113-29.113-29.113s-29.114 13.034-29.114 29.113 13.035 29.113 29.114 29.113 29.113-13.034 29.113-29.113z" stroke="#465f81" stroke-width="5" stroke-linecap="round" stroke-linejoin="round" stroke-miterlimit="22.926" stroke-dasharray="14, 10" fill="none" transform="matrix(.546 0 0 -.55 207.084 220.287)"/><path d="M0 0c0-11.367-9.215-20.583-20.583-20.583-11.367 0-20.582 9.216-20.582 20.583 0 11.367 9.215 20.583 20.582 20.583 11.368 0 20.583-9.216 20.583-20.583z" stroke="#465f81" stroke-width="5" stroke-linecap="round" stroke-linejoin="round" stroke-miterlimit="22.926" stroke-dasharray="14, 10" fill="none" transform="matrix(.546 0 0 -.55 871.688 371.203)"/><path d="M0 0c0-11.367-9.215-20.583-20.583-20.583-11.367 0-20.582 9.216-20.582 20.583 0 11.367 9.215 20.583 20.582 20.583 11.368 0 20.583-9.216 20.583-20.583z" stroke="#465f81" stroke-width="5" stroke-linecap="round" stroke-linejoin="round" stroke-miterlimit="22.926" stroke-dasharray="14, 10" fill="none" transform="matrix(.546 0 0 -.55 924.3 274.919)"/><path d="M0 0v-87.37" stroke="#465f81" stroke-width="5" stroke-linecap="round" stroke-linejoin="round" stroke-miterlimit="22.926" stroke-dasharray="14, 10" fill="none" transform="matrix(.546 0 0 -.55 860.451 309.57)"/><path d="M0 0v-45.859" stroke="#465f81" stroke-width="5" stroke-linecap="round" stroke-linejoin="round" stroke-miterlimit="22.926" stroke-dasharray="14, 10" fill="none" transform="matrix(.546 0 0 -.55 913.062 286.7)"/><path d="M976.637 166.043c-8.567 8.599-14.651 14.704-14.651 14.704s14.702.814 23.269-7.785c8.568-8.598 7.756-23.354 7.756-23.354s-7.807 7.835-16.374 16.434" fill="#a6ccd6" fill-rule="evenodd"/><path d="M0 0c-15.663-15.663-14.18-42.539-14.18-42.539s26.877-1.483 42.539 14.179c15.663 15.663 14.18 42.54 14.18 42.54s-26.877 1.483-42.539-14.18z" stroke="#465f81" stroke-width="5" stroke-linecap="round" stroke-linejoin="round" stroke-miterlimit="22.926" fill="none" transform="matrix(.546 0 0 -.55 968.09 156.665)"/><path d="M945.57 164.313c-8.567-8.599-14.651-14.704-14.651-14.704s-.811 14.755 7.756 23.354c8.567 8.599 23.269 7.785 23.269 7.785s-7.807-7.835-16.374-16.434" fill="#a6ccd6" fill-rule="evenodd"/><path d="M0 0c-15.663 15.663-42.539 14.18-42.539 14.18s-1.483-26.877 14.179-42.54c15.663-15.662 42.54-14.179 42.54-14.179s1.482 26.876-14.18 42.539z" stroke="#465f81" stroke-width="5" stroke-linecap="round" stroke-linejoin="round" stroke-miterlimit="22.926" fill="none" transform="matrix(.546 0 0 -.55 952.564 156.665)"/><path d="M976.637 232.561c-8.567 8.599-14.651 14.704-14.651 14.704s14.702.814 23.269-7.785c8.568-8.598 7.756-23.354 7.756-23.354s-7.807 7.835-16.374 16.434" fill="#a6ccd6" fill-rule="evenodd"/><path d="M0 0c-15.663-15.663-14.18-42.539-14.18-42.539s26.877-1.483 42.539 14.179c15.663 15.663 14.18 42.54 14.18 42.54s-26.877 1.483-42.539-14.18z" stroke="#465f81" stroke-width="5" stroke-linecap="round" stroke-linejoin="round" stroke-miterlimit="22.926" fill="none" transform="matrix(.546 0 0 -.55 968.09 223.305)"/><path d="M945.57 230.831c-8.567-8.599-14.651-14.704-14.651-14.704s-.811 14.755 7.756 23.354c8.567 8.599 23.269 7.785 23.269 7.785s-7.807-7.835-16.374-16.434" fill="#a6ccd6" fill-rule="evenodd"/><path d="M0 0c-15.663 15.663-42.539 14.18-42.539 14.18s-1.483-26.877 14.179-42.54c15.663-15.662 42.54-14.179 42.54-14.179s1.482 26.876-14.18 42.539z" stroke="#465f81" stroke-width="5" stroke-linecap="round" stroke-linejoin="round" stroke-miterlimit="22.926" fill="none" transform="matrix(.546 0 0 -.55 952.564 223.305)"/><path d="M308.778 291.311l-14.651 14.704s14.702.814 23.269-7.785c8.568-8.598 7.756-23.354 7.756-23.354s-7.807 7.835-16.374 16.434" fill="#a6ccd6" fill-rule="evenodd"/><path d="M0 0c-15.663-15.663-14.18-42.539-14.18-42.539s26.877-1.483 42.54 14.179c15.662 15.663 14.179 42.54 14.179 42.54s-26.876 1.483-42.539-14.18z" stroke="#465f81" stroke-width="5" stroke-linecap="round" stroke-linejoin="round" stroke-miterlimit="22.926" fill="none" transform="matrix(.546 0 0 -.55 301.452 282.162)"/><path d="M277.712 289.582l-14.651-14.704s-.811 14.755 7.756 23.354c8.567 8.599 23.269 7.785 23.269 7.785s-7.807-7.835-16.374-16.434" fill="#a6ccd6" fill-rule="evenodd"/><path d="M0 0c-15.663 15.663-42.539 14.18-42.539 14.18s-1.483-26.877 14.18-42.54c15.662-15.662 42.539-14.179 42.539-14.179s1.483 26.876-14.18 42.539z" stroke="#465f81" stroke-width="5" stroke-linecap="round" stroke-linejoin="round" stroke-miterlimit="22.926" fill="none" transform="matrix(.546 0 0 -.55 285.927 282.162)"/><g><path d="M285.584 136.262l29.619-40.077 29.62 40.077h-59.238z" fill="#a6ccd6" fill-rule="evenodd" clip-path="url(#b)" opacity=".5"/></g><path d="M242.989 136.262l36.581-49.496 36.581 49.496h-73.161z" fill="#a6ccd6" fill-rule="evenodd"/><path d="M336.8 83.832c0 3.335-2.694 6.039-6.017 6.039-3.323 0-6.017-2.704-6.017-6.039 0-3.335 2.694-6.039 6.017-6.039 3.323 0 6.017 2.704 6.017 6.039" fill="#a6ccd6" fill-rule="evenodd"/><path d="M748.77 359.979h-93.91c-5.516 0-9.989-4.489-9.989-10.025 0-5.537 4.472-10.025 9.989-10.025h93.91c5.516 0 9.989 4.489 9.989 10.025 0 5.537-4.472 10.025-9.989 10.025" fill="#a6ccd6" fill-rule="evenodd"/><path d="M0 0h-171.681c-10.085 0-18.261 8.176-18.261 18.261 0 10.085 8.176 18.261 18.261 18.261h171.681c10.085 0 18.261-8.176 18.261-18.261 0-10.085-8.176-18.261-18.261-18.261z" stroke="#465f81" stroke-width="5" stroke-linecap="round" stroke-linejoin="round" stroke-miterlimit="22.926" fill="none" transform="matrix(.546 0 0 -.55 747.521 359.62)"/><path d="M727.663 304.56h-71.305v-88.643c0-18.763 15.155-33.973 33.849-33.973h37.456v122.615z" fill="#fff" fill-rule="evenodd"/><path d="M0 0h-130.356v161.462c0 34.176 27.705 61.881 61.881 61.881h68.475v-223.343z" stroke="#465f81" stroke-width="5" stroke-linecap="round" stroke-linejoin="round" stroke-miterlimit="10" fill="none" transform="matrix(.546 0 0 -.55 726.453 304.1)"/><path d="M0 0h33.212c46.887 0 84.896-38.009 84.896-84.895 0-46.886-38.009-84.895-84.896-84.895h-23.195v50.611h23.195c18.935 0 34.284 15.35 34.284 34.284 0 18.934-15.349 34.283-34.284 34.283l-33.212.001" fill="#fff" fill-rule="evenodd" stroke="#465f81" stroke-width="5" stroke-linecap="round" stroke-linejoin="round" stroke-miterlimit="10" transform="matrix(.546 0 0 -.55 712.953 181.262)"/><path d="M0 0h9.622c13.992 0 25.334-11.342 25.334-25.333 0-13.992-11.342-25.334-25.334-25.334h-16.955" stroke="#465f81" stroke-width="5" stroke-linecap="round" stroke-linejoin="round" stroke-miterlimit="10" fill="none" transform="matrix(.546 0 0 -.55 669.684 240.086)"/><path d="M0 0h26.731c17.609 0 31.884-14.474 31.884-32.328 0-17.855-14.275-32.329-31.884-32.329h-26.731" fill="#f8cfc3" fill-rule="evenodd" stroke="#465f81" stroke-width="5" stroke-linecap="round" stroke-linejoin="round" stroke-miterlimit="10" transform="matrix(.546 0 0 -.55 689.291 244.92)"/><path d="M0 0h-19.12c-4.43 0-8.021 3.591-8.021 8.021 0 4.43 3.591 8.021 8.021 8.021h19.12" fill="#f8cfc3" fill-rule="evenodd" stroke="#465f81" stroke-width="5" stroke-linecap="round" stroke-linejoin="round" stroke-miterlimit="10" transform="matrix(.546 0 0 -.55 692.161 253.743)"/><path d="M0 0h-19.12c-4.43 0-8.021 3.591-8.021 8.021 0 4.43 3.591 8.021 8.021 8.021h19.12" fill="#f8cfc3" fill-rule="evenodd" stroke="#465f81" stroke-width="5" stroke-linecap="round" stroke-linejoin="round" stroke-miterlimit="10" transform="matrix(.546 0 0 -.55 692.161 262.566)"/><path d="M0 0h-9.12c-4.43 0-8.021 3.591-8.021 8.021 0 4.43 3.591 8.021 8.021 8.021h9.12" fill="#f8cfc3" fill-rule="evenodd" stroke="#465f81" stroke-width="5" stroke-linecap="round" stroke-linejoin="round" stroke-miterlimit="10" transform="matrix(.546 0 0 -.55 692.161 271.6)"/><path d="M0 0h-19.12c-4.43 0-8.021 3.591-8.021 8.021 0 4.43 3.591 8.021 8.021 8.021h9.12" fill="#f8cfc3" fill-rule="evenodd" stroke="#465f81" stroke-width="5" stroke-linecap="round" stroke-linejoin="round" stroke-miterlimit="10" transform="matrix(.546 0 0 -.55 697.621 280.423)"/><path d="M659.062 281.536h-13.028c-6.779 0-12.275-5.516-12.275-12.32v-33.925h37.577v33.925c0 6.804-5.496 12.32-12.275 12.32" fill="#c7d5f6" fill-rule="evenodd"/><path d="M0 0h-23.817c-12.393 0-22.44 10.047-22.44 22.44v61.794h68.697v-61.794c0-12.393-10.047-22.44-22.44-22.44z" stroke="#465f81" stroke-width="5" stroke-linecap="round" stroke-linejoin="round" stroke-miterlimit="22.926" fill="none" transform="matrix(.546 0 0 -.55 657.977 281.034)"/><path d="M648.728 280.126h-2.602c-6.115 0-11.073-4.976-11.073-11.113v-32.258h13.675v43.371z" fill="#a2baf0" fill-rule="evenodd"/><path d="M735.654 273.466c6.792 0 9.801-1.784 9.801-1.784v-27.633s-5.197 4.047-9.518 4.047c-3.534 5.354-5.445 21.711-.283 25.37" fill="#dbf9ff" fill-rule="evenodd"/><path d="M1187.591 494.762h37.509v72.193h-37.509v-72.193z" fill="#fff" fill-rule="evenodd" stroke="#465f81" stroke-width="5" stroke-linecap="round" stroke-linejoin="round" stroke-miterlimit="10" transform="matrix(.546 0 0 -.55 66.216 557.62)"/><path d="M583.679 280.984h-40.313v-3.524c0-6.401 5.17-11.589 11.548-11.589h17.217c6.377 0 11.548 5.189 11.548 11.589v3.524z" fill="#fff" fill-rule="evenodd"/><path d="M0 0h-73.698v6.419c0 11.659 9.452 21.11 21.111 21.11h31.476c11.659 0 21.111-9.451 21.111-21.11v-6.419z" stroke="#465f81" stroke-width="5" stroke-linecap="round" stroke-linejoin="round" stroke-miterlimit="10" fill="none" transform="matrix(.546 0 0 -.55 582.732 280.481)"/><path d="M0 0h-19.12c-4.43 0-8.021 3.591-8.021 8.021 0 4.43 3.591 8.021 8.021 8.021h19.12" fill="#f8cfc3" fill-rule="evenodd" stroke="#465f81" stroke-width="5" stroke-linecap="round" stroke-linejoin="round" stroke-miterlimit="10" transform="matrix(.546 0 0 -.55 585.508 280.973)"/><path d="M685.338 175.029c-15.893 0-28.777-12.931-28.777-28.882v-43.73h57.553v43.73c0 15.951-12.884 28.882-28.777 28.882" fill="#f8cfc3" fill-rule="evenodd"/><path d="M0 0c-29.055 0-52.608 23.553-52.608 52.608v79.654h105.216v-79.654c0-29.055-23.554-52.608-52.608-52.608z" stroke="#465f81" stroke-width="5" stroke-linecap="round" stroke-linejoin="round" stroke-miterlimit="10" fill="none" transform="matrix(.546 0 0 -.55 684.205 174.333)"/><path d="M0 0c11.598 0 21-9.402 21-21s-9.402-21-21-21" fill="#f8cfc3" fill-rule="evenodd" stroke="#465f81" stroke-width="5" stroke-linecap="round" stroke-linejoin="round" stroke-miterlimit="10" transform="matrix(.546 0 0 -.55 710 117.345)"/><path d="M667.807 126.562c0 .925-.747 1.674-1.668 1.674-.921 0-1.668-.749-1.668-1.674 0-.925.747-1.674 1.668-1.674.921 0 1.668.749 1.668 1.674" fill="#465f81" fill-rule="evenodd"/><path d="M0 0c0-1.684-1.365-3.049-3.049-3.049s-3.05 1.365-3.05 3.049 1.366 3.049 3.05 3.049c1.684 0 3.049-1.365 3.049-3.049z" stroke="#465f81" stroke-width="5" stroke-linecap="round" stroke-linejoin="round" stroke-miterlimit="10" fill="none" transform="matrix(.546 0 0 -.55 666.706 125.778)"/><path d="M691.032 126.562c0 .925-.747 1.674-1.668 1.674-.921 0-1.668-.749-1.668-1.674 0-.925.747-1.674 1.668-1.674.921 0 1.668.749 1.668 1.674" fill="#465f81" fill-rule="evenodd"/><path d="M0 0c0-1.684-1.365-3.049-3.049-3.049s-3.05 1.365-3.05 3.049 1.366 3.049 3.05 3.049c1.684 0 3.049-1.365 3.049-3.049z" stroke="#465f81" stroke-width="5" stroke-linecap="round" stroke-linejoin="round" stroke-miterlimit="10" fill="none" transform="matrix(.546 0 0 -.55 689.888 125.778)"/><path d="M0 0h20.693" stroke="#465f81" stroke-width="5" stroke-linecap="round" stroke-linejoin="round" stroke-miterlimit="22.926" fill="none" transform="matrix(.546 0 0 -.55 683.033 113.914)"/><path d="M0 0h20.693" stroke="#465f81" stroke-width="5" stroke-linecap="round" stroke-linejoin="round" stroke-miterlimit="22.926" fill="none" transform="matrix(.546 0 0 -.55 661.921 113.914)"/><path d="M709.861 127.615c-1.91 0-3.458-1.554-3.458-3.47v-21.608c0-1.917 1.548-3.47 3.458-3.47 1.91 0 3.458 1.554 3.458 3.47v21.608c0 1.917-1.548 3.47-3.458 3.47" fill="#465f81" fill-rule="evenodd"/><path d="M0 0c-3.491 0-6.321 2.83-6.321 6.321v39.358c0 3.491 2.83 6.321 6.321 6.321 3.491 0 6.321-2.83 6.321-6.321v-39.358c0-3.491-2.83-6.321-6.321-6.321z" stroke="#465f81" stroke-width="5" stroke-linecap="round" stroke-linejoin="round" stroke-miterlimit="22.926" fill="none" transform="matrix(.546 0 0 -.55 708.683 126.832)"/><path d="M0 0s22.443-5.969 25.049 15.359" stroke="#465f81" stroke-width="5" stroke-linecap="round" stroke-linejoin="round" stroke-miterlimit="22.926" fill="none" transform="matrix(.546 0 0 -.55 673.822 157.787)"/><path d="M0 0v-77.148h11.403" stroke="#465f81" stroke-width="5" stroke-linecap="round" stroke-linejoin="round" stroke-miterlimit="22.926" fill="none" transform="matrix(.546 0 0 -.55 673.822 101.589)"/><path d="M0 0c4.049-3.81 3.551-10.384-1.026-13.54l-.84-.579c-4.979-3.432-5.041-10.765-.122-14.282 4.848-3.467 4.872-10.666.047-14.164" stroke="#465f81" stroke-width="5" stroke-linecap="round" stroke-linejoin="round" stroke-miterlimit="22.926" fill="none" transform="matrix(.546 0 0 -.55 647.407 198.498)"/><path d="M0 0c4.049-3.81 3.551-10.384-1.026-13.54l-.84-.579c-4.978-3.432-5.041-10.765-.122-14.282 4.848-3.467 4.872-10.666.047-14.164" stroke="#465f81" stroke-width="5" stroke-linecap="round" stroke-linejoin="round" stroke-miterlimit="22.926" fill="none" transform="matrix(.546 0 0 -.55 637.091 179.338)"/><g><path d="M0 0c0-29.055-23.553-52.608-52.608-52.608-29.054 0-52.608 23.553-52.608 52.608" fill="#465f81" fill-rule="evenodd" stroke="#465f81" stroke-width="5" stroke-linecap="round" stroke-linejoin="round" stroke-miterlimit="10" transform="matrix(.546 0 0 -.55 712.929 145.399)" clip-path="url(#c)" opacity=".3"/></g></g><path d="M0 500h1200v-500h-1200v500z" fill="#7b799c" fill-opacity=".47"/></g></svg>