<?xml version="1.0" encoding="utf-8"?>
<!-- Generator: Adobe Illustrator 18.1.0, SVG Export Plug-In . SVG Version: 6.00 Build 0)  -->
<!DOCTYPE svg PUBLIC "-//W3C//DTD SVG 1.1//EN" "http://www.w3.org/Graphics/SVG/1.1/DTD/svg11.dtd">
<svg version="1.1" id="Layer_1" xmlns="http://www.w3.org/2000/svg" xmlns:xlink="http://www.w3.org/1999/xlink" x="0px" y="0px"
	 width="38.7px" height="38.7px" viewBox="0 0 38.7 38.7" enable-background="new 0 0 38.7 38.7" xml:space="preserve">
<g>
	<g>
		<g>
			<path fill="#3D5A99" d="M34.8,38.7h-31C1.7,38.7,0,37,0,34.8v-31C0,1.7,1.7,0,3.9,0h31c2.1,0,3.9,1.7,3.9,3.9v31
				C38.7,37,37,38.7,34.8,38.7"/>
			<path fill="#FFFFFF" d="M22.3,19.2h-2.7V29h-4.1v-9.7h-2v-3.4h2v-2.2c0-1.6,0.7-4,4.1-4h3v3.3h-2.2c-0.3,0-0.8,0.2-0.8,0.9v2.1
				h3.1L22.3,19.2z"/>
		</g>
	</g>
</g>
</svg>
