<?xml version="1.0" encoding="utf-8"?>
<!-- Generator: Adobe Illustrator 18.1.0, SVG Export Plug-In . SVG Version: 6.00 Build 0)  -->
<!DOCTYPE svg PUBLIC "-//W3C//DTD SVG 1.1//EN" "http://www.w3.org/Graphics/SVG/1.1/DTD/svg11.dtd">
<svg version="1.1" id="Layer_1" xmlns="http://www.w3.org/2000/svg" xmlns:xlink="http://www.w3.org/1999/xlink" x="0px" y="0px"
	 width="92px" height="29.9px" viewBox="0 0 92 29.9" enable-background="new 0 0 92 29.9" xml:space="preserve">
<g>
	<path fill="#3D5A99" d="M88,29.9H4c-2.2,0-4-1.8-4-4V4c0-2.2,1.8-4,4-4h84c2.2,0,4,1.8,4,4v21.9C92,28.1,90.2,29.9,88,29.9"/>
	<path fill="#FFFFFF" d="M17.3,14.9h-2.1v7.5h-3.1v-7.5h-1.5v-2.6h1.5v-1.7c0-1.2,0.6-3.1,3.1-3.1h2.3V10h-1.7
		c-0.2,0-0.6,0.2-0.6,0.7v1.6h2.4L17.3,14.9z"/>
	<g>
		<path fill="#FFFFFF" d="M41.1,19.6c-1.5,0-2.7-0.6-3.4-1.7l1.1-0.8c0.6,0.8,1.5,1.2,2.4,1.2c0.9,0,1.5-0.3,1.5-1
			c0-0.7-0.7-0.8-1.9-1c-1.5-0.3-2.8-0.7-2.8-2.2c0-1.5,1.4-2.2,2.9-2.2c1.5,0,2.6,0.6,3.2,1.3l-1,0.9c-0.5-0.6-1.3-0.9-2.2-0.9
			c-0.7,0-1.4,0.3-1.4,0.8c0,0.6,0.8,0.8,1.8,1c1.6,0.3,2.9,0.7,2.9,2.2C44.3,18.6,43.1,19.6,41.1,19.6z"/>
		<path fill="#FFFFFF" d="M45.8,19.4v-10h1.5v3.7c0.6-0.8,1.4-1.2,2.4-1.2c1.6,0,2.5,1.1,2.5,2.7v4.8h-1.5v-4.4
			c0-0.8-0.3-1.7-1.5-1.7c-1.1,0-1.9,0.8-1.9,2v4.1H45.8z"/>
		<path fill="#FFFFFF" d="M60.2,19.5c-0.7,0-1.3-0.3-1.5-1.1c-0.6,0.9-1.6,1.1-2.5,1.1c-1.5,0-2.5-0.8-2.5-2.3
			c0-1.8,1.6-2.1,2.9-2.2c1.1-0.1,1.9-0.2,1.9-0.9c0-0.7-0.8-0.9-1.5-0.9c-0.8,0-1.6,0.3-2.3,0.7l-0.6-1.2c0.9-0.6,1.9-0.9,3-0.9
			c1.7,0,3,0.7,3,2.5v3.3c0,0.5,0.2,0.7,0.5,0.7c0.1,0,0.3,0,0.4-0.1l0.2,1.1C60.9,19.4,60.5,19.5,60.2,19.5z M58.5,15.5
			c-0.4,0.5-1.1,0.5-1.8,0.7c-0.8,0.1-1.4,0.4-1.4,1.1c0,0.8,0.6,1.1,1.3,1.1c1,0,1.8-0.5,1.8-1.8V15.5z"/>
		<path fill="#FFFFFF" d="M66.5,13.7c-0.2-0.1-0.5-0.2-0.8-0.2c-0.9,0-1.8,0.8-1.8,2.2v3.7h-1.5V12h1.5v1.2c0.5-0.8,1.2-1.3,2.1-1.3
			c0.4,0,0.8,0.1,1,0.3L66.5,13.7z"/>
		<path fill="#FFFFFF" d="M74.7,16.1h-5.6c0.1,1.3,1,2.1,2.3,2.1c0.9,0,1.6-0.3,2.1-0.9l1,1c-0.8,0.8-1.8,1.3-3.2,1.3
			c-2.5,0-3.9-1.6-3.9-3.8c0-2.2,1.4-3.9,3.7-3.9c2.2,0,3.6,1.6,3.6,3.7C74.7,15.8,74.7,16,74.7,16.1z M73.2,15
			c-0.1-1.2-1-1.9-2-1.9c-1.2,0-1.9,0.8-2,1.9H73.2z"/>
	</g>
</g>
</svg>
