<?xml version="1.0" encoding="utf-8"?>
<!-- Generator: Adobe Illustrator 18.1.0, SVG Export Plug-In . SVG Version: 6.00 Build 0)  -->
<!DOCTYPE svg PUBLIC "-//W3C//DTD SVG 1.1//EN" "http://www.w3.org/Graphics/SVG/1.1/DTD/svg11.dtd">
<svg version="1.1" id="Layer_1" xmlns="http://www.w3.org/2000/svg" xmlns:xlink="http://www.w3.org/1999/xlink" x="0px" y="0px"
	 width="32px" height="32px" viewBox="0 0 32 32" enable-background="new 0 0 32 32" xml:space="preserve">
<path fill="#F4F3F5" d="M29.2,32H2.8C1.3,32,0,30.7,0,29.2V2.8C0,1.3,1.3,0,2.8,0h26.3C30.7,0,32,1.3,32,2.8v26.3
	C32,30.7,30.7,32,29.2,32z"/>
<path fill="#404852" d="M16.8,12.3c0-0.5,0.4-0.6,0.6-0.6h1.5V9.4h-2.1c-2.3,0-2.8,1.7-2.8,2.8v1.5h-1.4V16H14v6.7h2.8V16h1.9
	l0.3-2.3h-2.1V12.3z"/>
</svg>
