<?xml version="1.0" encoding="utf-8"?>
<!-- Generator: Adobe Illustrator 18.1.0, SVG Export Plug-In . SVG Version: 6.00 Build 0)  -->
<!DOCTYPE svg PUBLIC "-//W3C//DTD SVG 1.1//EN" "http://www.w3.org/Graphics/SVG/1.1/DTD/svg11.dtd">
<svg version="1.1" id="Layer_1" xmlns="http://www.w3.org/2000/svg" xmlns:xlink="http://www.w3.org/1999/xlink" x="0px" y="0px"
	 width="32px" height="32px" viewBox="0 0 32 32" enable-background="new 0 0 32 32" xml:space="preserve">
<g>
	<path fill="#F4F3F5" d="M29.2,32H2.8C1.3,32,0,30.7,0,29.2V2.8C0,1.3,1.3,0,2.8,0h26.3C30.7,0,32,1.3,32,2.8v26.3
		C32,30.7,30.7,32,29.2,32z"/>
	<polygon fill="#404852" points="25,9.7 25,7.5 23.9,7.5 23.9,9.7 21.6,9.7 21.6,10.9 23.9,10.9 23.9,13.2 25,13.2 25,10.9 
		27.3,10.9 27.3,9.7 	"/>
	<path fill="#404852" d="M19.1,17c-0.4-0.4-1.4-1.1-1.4-1.5c0-0.5,0.2-0.8,1-1.5c0.9-0.7,1.4-1.4,1.4-2.5c0-1.2-0.4-2.7-1.4-2.7H20
		L21,7.8h-4.9c-2.5,0-4.6,1.6-4.6,3.7c0,2.1,1.3,3.6,3.8,3.6c0.2,0,0.4-0.1,0.4-0.1c-0.2,0.3-0.3,0.8-0.3,1.2c0,0.5,0.4,0.6,0.7,1.5
		H16c0.4,0.1,0.9,0.1,1.3,0.3c1.1,0.7,2,1.3,2.1,2.1c0,0.2,0.1,0.4,0.1,0.5c0,1.5-1,2.7-3.8,2.7c-2,0-3.4-1.3-3.4-2.8
		c0-1.5,1.7-2.8,3.7-2.8h-0.8c-2.7-0.1-4.7,1.7-4.7,3.6c0,1.9,2.4,3,5.3,3c3.3,0,5.3-1.9,5.3-3.8C21,19,20.7,18.2,19.1,17z
		 M16.2,14.2c-1.3-0.1-2.5-1.3-2.8-3.1c-0.3-1.8,0.6-3.1,2-3.1c1.3,0,2.5,1.5,2.7,3.2C18.4,13.1,17.5,14.2,16.2,14.2z"/>
</g>
</svg>
