<?xml version="1.0" encoding="utf-8"?>
<!-- Generator: Adobe Illustrator 18.1.0, SVG Export Plug-In . SVG Version: 6.00 Build 0)  -->
<!DOCTYPE svg PUBLIC "-//W3C//DTD SVG 1.1//EN" "http://www.w3.org/Graphics/SVG/1.1/DTD/svg11.dtd">
<svg version="1.1" id="Layer_1" xmlns="http://www.w3.org/2000/svg" xmlns:xlink="http://www.w3.org/1999/xlink" x="0px" y="0px"
	 width="91.9px" height="29.9px" viewBox="0 0 91.9 29.9" enable-background="new 0 0 91.9 29.9" xml:space="preserve">
<g>
	<path fill="#F6F6F6" d="M87.9,29.9H4c-2.2,0-4-1.8-4-4V4c0-2.2,1.8-4,4-4h83.9c2.2,0,4,1.8,4,4v21.9C91.9,28.1,90.2,29.9,87.9,29.9
		"/>
	<path fill="#DE4B39" d="M10,20.1c0,1.8,2.3,2.9,5.1,2.9c3.2,0,5.1-1.8,5.1-3.7c0-1.5-0.3-2.3-1.9-3.4c-0.4-0.3-1.4-1-1.4-1.5
		c0-0.5,0.2-0.8,1-1.5c0.9-0.7,1.4-1.4,1.4-2.4c0-1.1-0.4-2.6-1.4-2.6h1.3l1-0.9h-4.8c-2.4,0-4.5,1.6-4.5,3.6s1.3,3.5,3.7,3.5
		c0.2,0,0.3-0.1,0.4-0.1c-0.2,0.3-0.3,0.8-0.3,1.1c0,0.5,0.3,0.6,0.7,1.5h-0.9C11.9,16.5,10,18.2,10,20.1 M12.8,10.2
		c-0.3-1.7,0.6-3.1,1.9-3c1.3,0,2.4,1.5,2.6,3.1c0.3,1.7-0.5,2.8-1.8,2.8C14.3,13.1,13.1,11.9,12.8,10.2 M16.6,16.8
		c1,0.7,1.9,1.2,2.1,2c0,0.2,0.1,0.3,0.1,0.5c0,1.5-1,2.6-3.7,2.6c-1.9,0-3.3-1.2-3.3-2.7c0-1.5,1.7-2.7,3.6-2.7
		C15.8,16.7,16.2,16.7,16.6,16.8"/>
	<g>
		<path fill="#DE4B39" d="M41.7,19.6c-1.5,0-2.7-0.6-3.4-1.7l1.1-0.8c0.6,0.8,1.5,1.2,2.4,1.2c0.9,0,1.5-0.3,1.5-1
			c0-0.7-0.7-0.8-1.9-1c-1.5-0.3-2.8-0.7-2.8-2.2c0-1.5,1.4-2.2,2.9-2.2c1.5,0,2.6,0.6,3.2,1.3l-1,0.9c-0.5-0.6-1.3-0.9-2.2-0.9
			c-0.7,0-1.4,0.3-1.4,0.8c0,0.6,0.8,0.8,1.8,1c1.6,0.3,2.9,0.7,2.9,2.2C44.9,18.6,43.7,19.6,41.7,19.6z"/>
		<path fill="#DE4B39" d="M46.4,19.4v-10H48v3.7c0.6-0.8,1.4-1.2,2.4-1.2c1.6,0,2.5,1.1,2.5,2.7v4.8h-1.5v-4.4
			c0-0.8-0.3-1.7-1.5-1.7c-1.1,0-1.9,0.8-1.9,2v4.1H46.4z"/>
		<path fill="#DE4B39" d="M60.8,19.5c-0.7,0-1.3-0.3-1.5-1.1c-0.6,0.9-1.6,1.1-2.5,1.1c-1.5,0-2.5-0.8-2.5-2.3
			c0-1.8,1.6-2.1,2.9-2.2c1.1-0.1,1.9-0.2,1.9-0.9c0-0.7-0.8-0.9-1.5-0.9c-0.8,0-1.6,0.3-2.3,0.7l-0.6-1.2c0.9-0.6,1.9-0.9,3-0.9
			c1.7,0,3,0.7,3,2.5v3.3c0,0.5,0.2,0.7,0.5,0.7c0.1,0,0.3,0,0.4-0.1l0.2,1.1C61.5,19.4,61.1,19.5,60.8,19.5z M59.1,15.5
			c-0.4,0.5-1.1,0.5-1.8,0.7c-0.8,0.1-1.4,0.4-1.4,1.1c0,0.8,0.6,1.1,1.3,1.1c1,0,1.8-0.5,1.8-1.8V15.5z"/>
		<path fill="#DE4B39" d="M67.1,13.7c-0.2-0.1-0.5-0.2-0.8-0.2c-0.9,0-1.8,0.8-1.8,2.2v3.7h-1.5V12h1.5v1.2c0.5-0.8,1.2-1.3,2.1-1.3
			c0.4,0,0.8,0.1,1,0.3L67.1,13.7z"/>
		<path fill="#DE4B39" d="M75.3,16.1h-5.6c0.1,1.3,1,2.1,2.3,2.1c0.9,0,1.6-0.3,2.1-0.9l1,1c-0.8,0.8-1.8,1.3-3.2,1.3
			c-2.5,0-3.9-1.6-3.9-3.8c0-2.2,1.4-3.9,3.7-3.9c2.2,0,3.6,1.6,3.6,3.7C75.3,15.8,75.3,16,75.3,16.1z M73.8,15
			c-0.1-1.2-1-1.9-2-1.9c-1.2,0-1.9,0.8-2,1.9H73.8z"/>
	</g>
</g>
</svg>
