<?xml version="1.0" encoding="utf-8"?>
<!-- Generator: Adobe Illustrator 18.1.0, SVG Export Plug-In . SVG Version: 6.00 Build 0)  -->
<!DOCTYPE svg PUBLIC "-//W3C//DTD SVG 1.1//EN" "http://www.w3.org/Graphics/SVG/1.1/DTD/svg11.dtd">
<svg version="1.1" id="Layer_1" xmlns="http://www.w3.org/2000/svg" xmlns:xlink="http://www.w3.org/1999/xlink" x="0px" y="0px"
	 width="38.7px" height="38.7px" viewBox="0 0 38.7 38.7" enable-background="new 0 0 38.7 38.7" xml:space="preserve">
<g>
	<path fill="#DE4B39" d="M34.8,38.7h-31C1.7,38.7,0,37,0,34.8v-31C0,1.7,1.7,0,3.9,0h31c2.1,0,3.9,1.7,3.9,3.9v31
		C38.7,37,37,38.7,34.8,38.7"/>
	<path fill="#FFFFFF" d="M12.8,25.9c0,2.4,3,3.7,6.6,3.7c4.2,0,6.6-2.4,6.6-4.7c0-1.9-0.4-2.9-2.5-4.4c-0.6-0.5-1.8-1.4-1.8-1.9
		c0-0.7,0.2-1,1.2-1.9c1.1-0.9,1.8-1.8,1.8-3.2c0-1.5-0.6-3.4-1.8-3.4h1.7L26.1,9h-6.2c-3.1,0-5.8,2-5.8,4.6c0,2.6,1.7,4.5,4.7,4.5
		c0.2,0,0.4-0.1,0.6-0.1c-0.2,0.3-0.3,1-0.3,1.5c0,0.7,0.4,0.8,0.9,1.9h-1.1C15.4,21.3,12.8,23.5,12.8,25.9 M16.5,13.2
		c-0.3-2.3,0.8-3.9,2.5-3.8c1.7,0,3.1,1.9,3.4,4.1c0.3,2.3-0.7,3.6-2.4,3.6C18.4,16.9,16.9,15.3,16.5,13.2 M21.4,21.7
		c1.3,0.9,2.5,1.6,2.7,2.6c0,0.2,0.1,0.5,0.1,0.7c0,1.9-1.2,3.4-4.7,3.4c-2.5,0-4.3-1.6-4.3-3.5s2.1-3.5,4.6-3.5
		C20.4,21.5,20.9,21.5,21.4,21.7"/>
</g>
</svg>
