<?xml version="1.0" encoding="utf-8"?>
<!-- Generator: Adobe Illustrator 18.1.0, SVG Export Plug-In . SVG Version: 6.00 Build 0)  -->
<!DOCTYPE svg PUBLIC "-//W3C//DTD SVG 1.1//EN" "http://www.w3.org/Graphics/SVG/1.1/DTD/svg11.dtd">
<svg version="1.1" id="Layer_1" xmlns="http://www.w3.org/2000/svg" xmlns:xlink="http://www.w3.org/1999/xlink" x="0px" y="0px"
	 width="38.7px" height="38.7px" viewBox="0 0 38.7 38.7" enable-background="new 0 0 38.7 38.7" xml:space="preserve">
<g>
	<path fill="#27AAE2" d="M34.8,38.7h-31C1.7,38.7,0,37,0,34.8v-31C0,1.7,1.7,0,3.9,0h31c2.1,0,3.9,1.7,3.9,3.9v31
		C38.7,37,37,38.7,34.8,38.7"/>
	<path fill="#FFFFFF" d="M29.7,14.3V15c0,6.5-5.1,14-14.3,14c-2.9,0-5.5-0.8-7.7-2.2c0.4,0,0.8,0.1,1.2,0.1c2.3,0,4.6-0.8,6.2-2.2
		c-2.2,0-4-1.4-4.7-3.4c0.3,0,0.7,0.1,0.9,0.1c0.5,0,0.9,0,1.3-0.1c-2.3-0.5-4-2.4-4-4.8c0.7,0.4,1.4,0.6,2.2,0.6
		c-1.3-0.9-2.2-2.4-2.2-4.1c0-0.9,0.3-1.8,0.7-2.4c2.5,2.9,6.1,5,10.4,5.1c-0.1-0.4-0.1-0.8-0.1-1.1c0-2.7,2.2-5,5.1-5
		c1.4,0,2.7,0.6,3.6,1.5c1.2-0.3,2.2-0.6,3.3-1.1c-0.4,1.1-1.2,2.2-2.2,2.7c1-0.1,2-0.4,2.9-0.8C31.5,12.7,30.6,13.6,29.7,14.3"/>
</g>
</svg>
