<?xml version="1.0" encoding="utf-8"?>
<!-- Generator: Adobe Illustrator 18.1.0, SVG Export Plug-In . SVG Version: 6.00 Build 0)  -->
<!DOCTYPE svg PUBLIC "-//W3C//DTD SVG 1.1//EN" "http://www.w3.org/Graphics/SVG/1.1/DTD/svg11.dtd">
<svg version="1.1" id="Layer_1" xmlns="http://www.w3.org/2000/svg" xmlns:xlink="http://www.w3.org/1999/xlink" x="0px" y="0px"
	 width="32px" height="32px" viewBox="0 0 32 32" enable-background="new 0 0 32 32" xml:space="preserve">
<g>
	<path fill="#F4F3F5" d="M29.2,32H2.8C1.3,32,0,30.7,0,29.2V2.8C0,1.3,1.3,0,2.8,0h26.3C30.7,0,32,1.3,32,2.8v26.3
		C32,30.7,30.7,32,29.2,32z"/>
	<path fill="#404852" d="M22.4,10.9c-0.6,0.3-1.1,0.5-1.8,0.6c-0.5-0.5-1.2-0.8-2-0.8c-1.6,0-2.8,1.2-2.8,2.7c0,0.2,0,0.4,0.1,0.6
		c-2.3-0.1-4.3-1.2-5.7-2.8C10.1,11.6,10,12,10,12.5c0,0.9,0.5,1.7,1.2,2.2c-0.4,0-0.8-0.1-1.2-0.3c0,1.3,0.9,2.4,2.2,2.6
		c-0.2,0.1-0.4,0.1-0.7,0.1c-0.1,0-0.4-0.1-0.5-0.1c0.4,1.1,1.3,1.9,2.5,1.9c-0.9,0.8-2.1,1.2-3.4,1.2c-0.2,0-0.4-0.1-0.6-0.1
		c1.2,0.8,2.6,1.2,4.2,1.2c5,0,7.8-4.1,7.8-7.6v-0.3c0.5-0.4,1-0.9,1.3-1.3c-0.5,0.2-1,0.3-1.6,0.4C21.8,12,22.2,11.5,22.4,10.9"/>
</g>
</svg>
