<?xml version="1.0" encoding="utf-8"?>
<!-- Generator: Adobe Illustrator 18.1.0, SVG Export Plug-In . SVG Version: 6.00 Build 0)  -->
<!DOCTYPE svg PUBLIC "-//W3C//DTD SVG 1.1//EN" "http://www.w3.org/Graphics/SVG/1.1/DTD/svg11.dtd">
<svg version="1.1" id="Layer_1" xmlns="http://www.w3.org/2000/svg" xmlns:xlink="http://www.w3.org/1999/xlink" x="0px" y="0px"
	 width="94.5px" height="29.9px" viewBox="0 0 94.5 29.9" enable-background="new 0 0 94.5 29.9" xml:space="preserve">
<g>
	<g>
		<g>
			<path fill="#27AAE2" d="M90.5,29.9H4c-2.2,0-4-1.8-4-4V4c0-2.2,1.8-4,4-4h86.5c2.2,0,4,1.8,4,4v21.9
				C94.5,28.1,92.7,29.9,90.5,29.9"/>
			<path fill="#FFFFFF" d="M26,11.1v0.5c0,5-3.9,10.9-11.1,10.9c-2.2,0-4.2-0.6-5.9-1.7c0.3,0,0.6,0.1,0.9,0.1
				c1.8,0,3.5-0.6,4.8-1.7c-1.7,0-3.1-1.1-3.6-2.7c0.2,0,0.5,0.1,0.7,0.1c0.4,0,0.7,0,1-0.1c-1.8-0.4-3.1-1.9-3.1-3.8
				c0.5,0.3,1.1,0.5,1.7,0.5c-1-0.7-1.7-1.9-1.7-3.2c0-0.7,0.2-1.4,0.5-1.9c1.9,2.3,4.7,3.8,8.1,3.9c-0.1-0.3-0.1-0.6-0.1-0.9
				c0-2.1,1.7-3.8,3.9-3.8c1.1,0,2.1,0.5,2.8,1.2c0.9-0.2,1.7-0.5,2.5-0.9c-0.3,0.9-0.9,1.7-1.7,2.1c0.8-0.1,1.5-0.3,2.2-0.6
				C27.4,9.8,26.7,10.5,26,11.1"/>
		</g>
		<g>
			<path fill="#FFFFFF" d="M46,19c-0.5,0.4-1,0.5-1.8,0.5c-0.9,0-1.6-0.3-2-0.9c-0.3-0.4-0.4-0.8-0.4-1.5v-3.9h-1.2V12H42v-2h1.6v2
				h2.3v1.2h-2.3v3.9c0,0.7,0.4,1.1,1,1.1c0.4,0,0.7-0.2,0.9-0.3L46,19z"/>
			<path fill="#FFFFFF" d="M55.1,19.4h-1.7L51.9,14l-1.6,5.4h-1.6l-2-7.4h1.7l1.3,5.4l1.6-5.4h1.4l1.6,5.4l1.3-5.4h1.6L55.1,19.4z"
				/>
			<path fill="#FFFFFF" d="M65.2,16.1h-5.6c0.1,1.3,1,2.1,2.3,2.1c0.9,0,1.6-0.3,2.1-0.9l1,1c-0.8,0.8-1.8,1.3-3.2,1.3
				c-2.5,0-3.9-1.6-3.9-3.8c0-2.2,1.4-3.9,3.7-3.9c2.2,0,3.6,1.6,3.6,3.7C65.3,15.8,65.2,16,65.2,16.1z M63.7,15
				c-0.1-1.2-1-1.9-2-1.9c-1.2,0-1.9,0.8-2,1.9H63.7z"/>
			<path fill="#FFFFFF" d="M73.6,16.1H68c0.1,1.3,1,2.1,2.3,2.1c0.9,0,1.6-0.3,2.1-0.9l1,1c-0.8,0.8-1.8,1.3-3.2,1.3
				c-2.5,0-3.9-1.6-3.9-3.8c0-2.2,1.4-3.9,3.7-3.9c2.2,0,3.6,1.6,3.6,3.7C73.6,15.8,73.6,16,73.6,16.1z M72.1,15
				c-0.1-1.2-1-1.9-2-1.9c-1.2,0-1.9,0.8-2,1.9H72.1z"/>
			<path fill="#FFFFFF" d="M79.7,19c-0.5,0.4-1,0.5-1.8,0.5c-0.9,0-1.6-0.3-2-0.9c-0.3-0.4-0.4-0.8-0.4-1.5v-3.9h-1.2V12h1.2v-2h1.6
				v2h2.3v1.2h-2.3v3.9c0,0.7,0.4,1.1,1,1.1c0.4,0,0.7-0.2,0.9-0.3L79.7,19z"/>
		</g>
	</g>
</g>
</svg>
