<svg xmlns="http://www.w3.org/2000/svg" width="2400" height="1350" viewBox="0 0 2400 1350"><defs><clipPath id="a"><path d="M0 1080h1920v-1080h-1920v1080z"/></clipPath></defs><g><path d="M0 1350h2400v-1350h-2400v1350z" fill="#dbf9ff"/><g clip-path="url(#a)"><path d="M656.609 881.687h-335.414c-40.981 0-74.203-33.221-74.203-74.203v-329.599c0-40.981 33.221-74.203 74.203-74.203h335.414c40.981 0 74.203 33.221 74.203 74.203v329.599c0 40.981-33.221 74.203-74.203 74.203" fill="#f7973b"/><path d="M656.609 881.687h-335.414c-40.981 0-74.203-33.221-74.203-74.203v-329.599c0-40.981 33.221-74.203 74.203-74.203h335.414c40.981 0 74.203 33.221 74.203 74.203v329.599c0 40.981-33.221 74.203-74.203 74.203z" stroke="#465f81" stroke-width="6.25" stroke-miterlimit="10" fill="none"/><path d="M549.379 599.487c-23.296 0-44.511 8.863-60.475 23.389-15.969-14.53-37.189-23.389-60.48-23.389-49.835 0-90.159 40.542-89.889 90.378l.674 124.201h59.314v-126.252c0-16.023 12.989-29.013 29.013-29.013h2.453c16.024 0 29.013 12.99 29.013 29.013v126.252h60.478v-126.252c0-16.023 12.989-29.013 29.011-29.013h2.454c16.023 0 29.013 12.99 29.013 29.013v126.252h59.314v-124.689c0-49.645-40.245-89.89-89.89-89.89" fill="#fff"/><path d="M549.379 599.487c-23.296 0-44.511 8.863-60.475 23.389-15.969-14.53-37.189-23.389-60.48-23.389-49.835 0-90.159 40.542-89.889 90.378l.674 124.201h59.314v-126.252c0-16.023 12.989-29.013 29.013-29.013h2.453c16.024 0 29.013 12.99 29.013 29.013v126.252h60.478v-126.252c0-16.023 12.989-29.013 29.011-29.013h2.454c16.023 0 29.013 12.99 29.013 29.013v126.252h59.314v-124.689c0-49.645-40.245-89.89-89.89-89.89z" stroke="#465f81" stroke-width="6.25" stroke-linecap="round" stroke-linejoin="round" stroke-miterlimit="10" fill="none"/><path d="M564.889 562.019h-151.975v-75.714h151.975v75.714z" fill="#465f81" stroke="#465f81" stroke-width="6.25" stroke-linecap="round" stroke-linejoin="round" stroke-miterlimit="10"/><path d="M633.485 485.059h-289.166c-5.524 0-10-4.478-10-10s4.476-10 10-10h289.166c5.522 0 10 4.478 10 10s-4.478 10-10 10" fill="#697e9d"/><path d="M633.485 485.059h-289.166c-5.524 0-10-4.478-10-10s4.476-10 10-10h289.166c5.522 0 10 4.478 10 10s-4.478 10-10 10z" stroke="#465f81" stroke-width="6.25" stroke-linecap="round" stroke-linejoin="round" stroke-miterlimit="10" fill="none"/><path d="M348.333 571.726v-86.666" fill="#697e9d" stroke="#465f81" stroke-width="6.25" stroke-linecap="round" stroke-linejoin="round" stroke-miterlimit="10"/><path d="M348.333 591.864l-13.742-13.742 13.742-13.742 13.742 13.742-13.742 13.742z" fill="#697e9d"/><path d="M348.333 591.864l-13.742-13.742 13.742-13.742 13.742 13.742-13.742 13.742z" stroke="#465f81" stroke-width="6.25" stroke-linecap="round" stroke-linejoin="round" stroke-miterlimit="10" fill="none"/><path d="M549.375 500v47.5" fill="#697e9d" stroke="#fff" stroke-width="6.25" stroke-linecap="round" stroke-linejoin="round" stroke-miterlimit="10"/><path d="M2144.241 857.098h-516.347c-21.461 0-38.859-17.398-38.859-38.859v-335.418c0-21.461 17.398-38.859 38.859-38.859h516.347c21.461 0 38.859 17.398 38.859 38.859v335.418c0 21.461-17.398 38.859-38.859 38.859" fill="#f6c737"/><path d="M2144.241 857.098h-516.347c-21.461 0-38.859-17.398-38.859-38.859v-335.418c0-21.461 17.398-38.859 38.859-38.859h516.347c21.461 0 38.859 17.398 38.859 38.859v335.418c0 21.461-17.398 38.859-38.859 38.859z" stroke="#465f81" stroke-width="6.25" stroke-miterlimit="10" fill="none"/><path d="M2131.079 821.28h-490.024c-5.885 0-10.655-4.77-10.655-10.655v-320.19c0-5.885 4.77-10.655 10.655-10.655h490.024c5.885 0 10.655 4.77 10.655 10.655v320.19c0 5.885-4.77 10.655-10.655 10.655" fill="#465f81"/><path d="M2131.079 821.28h-490.024c-5.885 0-10.655-4.77-10.655-10.655v-320.19c0-5.885 4.77-10.655 10.655-10.655h490.024c5.885 0 10.655 4.77 10.655 10.655v320.19c0 5.885-4.77 10.655-10.655 10.655z" stroke="#465f81" stroke-width="6.25" stroke-linecap="round" stroke-linejoin="round" stroke-miterlimit="10" fill="none"/><path d="M1652.41 507.5h467.314" fill="#465f81" stroke="#fff" stroke-width="6.25" stroke-linecap="round" stroke-linejoin="round" stroke-miterlimit="10"/><path d="M1652.41 795.777h467.314" fill="#465f81" stroke="#fff" stroke-width="6.25" stroke-linecap="round" stroke-linejoin="round" stroke-miterlimit="10"/><path d="M1671.785 648.03h428.564" stroke="#fff" stroke-width="6.25" stroke-linecap="round" stroke-linejoin="round" stroke-miterlimit="22.926" stroke-dasharray="14, 10" fill="none"/><path d="M1805.866 747.245c13.598 0 24.282-4.046 32.053-12.141 7.769-8.094 11.655-18.829 11.655-32.214 0-8.2-1.295-14.944-3.886-20.235-2.589-5.286-6.15-9.496-10.682-12.626-4.532-3.126-9.931-5.286-16.189-6.476-6.262-1.184-13.063-1.78-20.398-1.78h-17.16v83.206c3.021.647 6.202 1.189 9.553 1.619 3.344.435 8.363.648 15.055.648m-14.245-106.517c3.666 0 7.335-.161 11.006-.486 3.669-.323 7.123-.698 10.361-1.133 8.418-3.45 15.216-8.791 20.398-16.026 5.179-7.229 7.769-15.485 7.769-24.767 0-13.598-3.56-23.579-10.682-29.949-7.124-6.364-16.3-9.55-27.52-9.55-4.751 0-8.854.111-12.304.324-3.455.217-6.586.541-9.39.971v80.616h10.362zm-83.531 125.62v-12.304c4.098-2.371 8.469-4.421 13.113-6.151 4.638-1.725 9.116-2.803 13.436-3.237v-183.249c-4.32-.86-8.852-2.104-13.598-3.724-4.751-1.619-9.066-3.506-12.951-5.666v-12.303h52.125c8.2 0 15.971-.324 23.311-.971 7.335-.647 15.753-.971 25.254-.971 10.36 0 20.396.759 30.11 2.266 9.711 1.512 18.343 4.21 25.901 8.095 7.553 3.884 13.598 9.338 18.13 16.35 4.532 7.016 6.799 16.025 6.799 27.034 0 6.91-1.244 13.33-3.724 19.264-2.484 5.939-5.938 11.17-10.36 15.702-4.426 4.532-9.606 8.311-15.54 11.331-5.939 3.025-12.359 5.18-19.264 6.475v1.295c6.905.865 13.865 2.484 20.883 4.857 7.011 2.377 13.325 5.827 18.94 10.36 5.61 4.532 10.197 10.197 13.76 16.998 3.561 6.799 5.341 14.843 5.341 24.12 0 11.655-2.59 21.691-7.77 30.11-5.18 8.417-12.14 15.327-20.882 20.72-8.742 5.399-18.727 9.339-29.949 11.818-11.225 2.479-22.88 3.724-34.965 3.724-4.532 0-9.501-.111-14.894-.324-5.397-.217-10.795-.435-16.188-.647-5.399-.217-10.634-.435-15.702-.647-5.075-.217-9.339-.324-12.789-.324h-38.527z" fill="#fff"/><path d="M1960.456 654.921v87.257c2.72 1.945 6.072 3.499 10.057 4.665 3.981 1.165 8.5 1.749 13.556 1.749 11.079 0 37.779-4.598 37.779-44.085 0-61.45-59.256-57.75-61.392-49.586m-41.981-87.66l-22.157-2.338v-11.078c2.915-1.166 6.751-2.334 11.515-3.499 4.761-1.166 9.717-2.188 14.87-3.061 5.148-.875 10.204-1.649 15.16-2.333 4.955-.679 9.183-1.211 12.681-1.604h9.912v88.372l.583 8.75c3.886-9.716 52.164-23.872 78.623.255 10.486 9.563 21.666 20.213 21.666 44.31 0 26.63-7.046 46.645-21.136 60.056-14.094 13.411-34.744 20.116-61.953 20.116-4.859 0-10.304-.343-16.325-1.021-6.027-.688-11.859-1.511-17.492-2.482-5.639-.974-10.838-2.14-15.596-3.502-1.351 3.084-2.994 6.534-4.268 8.709-2.809-1.68-4.1-2.631-6.082-4.049v-195.602z" fill="#fff"/><path d="M1227.083 868.75c-33.75 17.916-103.334 18.75-135 0 0-37.279 30.221-67.5 67.5-67.5 37.279 0 67.5 30.221 67.5 67.5" fill="#ff505d"/><path d="M1227.083 868.75c-33.75 17.916-103.334 18.75-135 0 0-37.279 30.221-67.5 67.5-67.5 37.279 0 67.5 30.221 67.5 67.5z" stroke="#465f81" stroke-width="6.25" stroke-miterlimit="10" fill="none"/><path d="M1189.181 760.848c0 16.346-13.251 29.598-29.598 29.598-16.346 0-29.598-13.251-29.598-29.598 0-16.346 13.251-29.598 29.598-29.598 16.346 0 29.598 13.251 29.598 29.598" fill="#ff505d"/><path d="M1189.181 760.848c0 16.346-13.251 29.598-29.598 29.598-16.346 0-29.598-13.251-29.598-29.598 0-16.346 13.251-29.598 29.598-29.598 16.346 0 29.598 13.251 29.598 29.598z" stroke="#465f81" stroke-width="6.25" stroke-miterlimit="10" fill="none"/><path d="M1092.083 424.431c33.75-17.916 103.334-18.75 135 0 0 37.279-30.221 67.5-67.5 67.5-37.279 0-67.5-30.221-67.5-67.5" fill="#ff505d"/><path d="M1092.083 424.431c33.75-17.916 103.334-18.75 135 0 0 37.279-30.221 67.5-67.5 67.5-37.279 0-67.5-30.221-67.5-67.5z" stroke="#465f81" stroke-width="6.25" stroke-miterlimit="10" fill="none"/><path d="M1129.986 532.333c0-16.346 13.251-29.598 29.598-29.598 16.346 0 29.598 13.251 29.598 29.598 0 16.346-13.251 29.598-29.598 29.598-16.346 0-29.598-13.251-29.598-29.598" fill="#ff505d"/><path d="M1129.986 532.333c0-16.346 13.251-29.598 29.598-29.598 16.346 0 29.598 13.251 29.598 29.598 0 16.346-13.251 29.598-29.598 29.598-16.346 0-29.598-13.251-29.598-29.598z" stroke="#465f81" stroke-width="6.25" stroke-miterlimit="10" fill="none"/><path d="M1381.743 579.09c17.916 33.75 18.75 103.334 0 135-37.279 0-67.5-30.221-67.5-67.5 0-37.279 30.221-67.5 67.5-67.5" fill="#ff505d"/><path d="M1381.743 579.09c17.916 33.75 18.75 103.334 0 135-37.279 0-67.5-30.221-67.5-67.5 0-37.279 30.221-67.5 67.5-67.5z" stroke="#465f81" stroke-width="6.25" stroke-miterlimit="10" fill="none"/><path d="M1273.841 616.993c16.346 0 29.598 13.251 29.598 29.598 0 16.346-13.251 29.598-29.598 29.598-16.346 0-29.598-13.251-29.598-29.598 0-16.346 13.251-29.598 29.598-29.598" fill="#ff505d"/><path d="M1273.841 616.993c16.346 0 29.598 13.251 29.598 29.598 0 16.346-13.251 29.598-29.598 29.598-16.346 0-29.598-13.251-29.598-29.598 0-16.346 13.251-29.598 29.598-29.598z" stroke="#465f81" stroke-width="6.25" stroke-miterlimit="10" fill="none"/><path d="M937.424 714.09c-17.916-33.75-18.75-103.334 0-135 37.279 0 67.5 30.221 67.5 67.5 0 37.279-30.221 67.5-67.5 67.5" fill="#ff505d"/><path d="M937.424 714.09c-17.916-33.75-18.75-103.334 0-135 37.279 0 67.5 30.221 67.5 67.5 0 37.279-30.221 67.5-67.5 67.5z" stroke="#465f81" stroke-width="6.25" stroke-miterlimit="10" fill="none"/><path d="M1045.326 676.188c-16.346 0-29.598-13.251-29.598-29.598 0-16.346 13.251-29.598 29.598-29.598 16.346 0 29.598 13.251 29.598 29.598 0 16.346-13.251 29.598-29.598 29.598" fill="#ff505d"/><path d="M1045.326 676.188c-16.346 0-29.598-13.251-29.598-29.598 0-16.346 13.251-29.598 29.598-29.598 16.346 0 29.598 13.251 29.598 29.598 0 16.346-13.251 29.598-29.598 29.598z" stroke="#465f81" stroke-width="6.25" stroke-miterlimit="10" fill="none"/><path d="M1364.403 755.951c-11.196 36.534-59.81 86.326-95.459 95.46-26.361-26.361-26.361-69.1 0-95.46 26.36-26.36 69.099-26.36 95.459 0" fill="#ff505d"/><path d="M1364.403 755.951c-11.196 36.534-59.81 86.326-95.459 95.46-26.361-26.361-26.361-69.1 0-95.46 26.36-26.36 69.099-26.36 95.459 0z" stroke="#465f81" stroke-width="6.25" stroke-miterlimit="10" fill="none"/><path d="M1261.304 706.454c11.559 11.559 11.559 30.299 0 41.857-11.559 11.559-30.299 11.559-41.857 0-11.559-11.559-11.559-30.299 0-41.857 11.559-11.559 30.299-11.559 41.857 0" fill="#ff505d"/><path d="M1261.304 706.454c11.559 11.559 11.559 30.299 0 41.857-11.559 11.559-30.299 11.559-41.857 0-11.559-11.559-11.559-30.299 0-41.857 11.559-11.559 30.299-11.559 41.857 0z" stroke="#465f81" stroke-width="6.25" stroke-miterlimit="10" fill="none"/><path d="M954.763 537.23c11.196-36.534 59.81-86.326 95.459-95.46 26.361 26.361 26.361 69.1 0 95.46-26.36 26.36-69.099 26.36-95.459 0" fill="#ff505d"/><path d="M954.763 537.23c11.196-36.534 59.81-86.326 95.459-95.46 26.361 26.361 26.361 69.1 0 95.46-26.36 26.36-69.099 26.36-95.459 0z" stroke="#465f81" stroke-width="6.25" stroke-miterlimit="10" fill="none"/><path d="M1057.862 586.727c-11.559-11.559-11.559-30.299 0-41.857 11.559-11.559 30.299-11.559 41.857 0 11.559 11.559 11.559 30.299 0 41.857-11.559 11.559-30.299 11.559-41.857 0" fill="#ff505d"/><path d="M1057.862 586.727c-11.559-11.559-11.559-30.299 0-41.857 11.559-11.559 30.299-11.559 41.857 0 11.559 11.559 11.559 30.299 0 41.857-11.559 11.559-30.299 11.559-41.857 0z" stroke="#465f81" stroke-width="6.25" stroke-miterlimit="10" fill="none"/><path d="M1268.944 441.77c36.534 11.196 86.326 59.81 95.459 95.46-26.36 26.36-69.099 26.36-95.459 0-26.36-26.361-26.36-69.1 0-95.46" fill="#ff505d"/><path d="M1268.944 441.77c36.534 11.196 86.326 59.81 95.459 95.46-26.36 26.36-69.099 26.36-95.459 0-26.36-26.361-26.36-69.1 0-95.46z" stroke="#465f81" stroke-width="6.25" stroke-miterlimit="10" fill="none"/><path d="M1219.447 544.869c11.559-11.559 30.299-11.559 41.857 0 11.559 11.559 11.559 30.299 0 41.857-11.559 11.559-30.299 11.559-41.857 0-11.559-11.559-11.559-30.299 0-41.857" fill="#ff505d"/><path d="M1219.447 544.869c11.559-11.559 30.299-11.559 41.857 0 11.559 11.559 11.559 30.299 0 41.857-11.559 11.559-30.299 11.559-41.857 0-11.559-11.559-11.559-30.299 0-41.857z" stroke="#465f81" stroke-width="6.25" stroke-miterlimit="10" fill="none"/><path d="M1050.223 851.411c-36.534-11.196-86.326-59.81-95.459-95.46 26.36-26.36 69.099-26.36 95.459 0 26.36 26.361 26.36 69.1 0 95.46" fill="#ff505d"/><path d="M1050.223 851.411c-36.534-11.196-86.326-59.81-95.459-95.46 26.36-26.36 69.099-26.36 95.459 0 26.36 26.361 26.36 69.1 0 95.46z" stroke="#465f81" stroke-width="6.25" stroke-miterlimit="10" fill="none"/><path d="M1099.72 748.311c-11.559 11.559-30.299 11.559-41.857 0-11.559-11.559-11.559-30.299 0-41.857 11.559-11.559 30.299-11.559 41.857 0 11.559 11.559 11.559 30.299 0 41.857" fill="#ff505d"/><path d="M1099.72 748.311c-11.559 11.559-30.299 11.559-41.857 0-11.559-11.559-11.559-30.299 0-41.857 11.559-11.559 30.299-11.559 41.857 0 11.559 11.559 11.559 30.299 0 41.857z" stroke="#465f81" stroke-width="6.25" stroke-miterlimit="10" fill="none"/></g></g></svg>