<svg xmlns="http://www.w3.org/2000/svg" width="2400" height="1350" viewBox="0 0 2400 1350"><defs><clipPath id="a"><path d="M0 1080h1920v-1080h-1920v1080z"/></clipPath><clipPath id="b"><path d="M0 1080h1920v-1080h-1920v1080z"/></clipPath><clipPath id="c"><path d="M0 1080h1920v-1080h-1920v1080z"/></clipPath><clipPath id="d"><path d="M449.776 539.932c0-50.47 40.914-91.383 91.383-91.383 50.469 0 91.383 40.913 91.383 91.383 0 50.469-40.914 91.383-91.383 91.383-50.469 0-91.383-40.914-91.383-91.383"/></clipPath><clipPath id="e"><path d="M0 1080h1920v-1080h-1920v1080z"/></clipPath><clipPath id="f"><path d="M1257.122 540.303c0-50.469 40.913-91.383 91.382-91.383 50.47 0 91.383 40.914 91.383 91.383 0 50.47-40.913 91.384-91.383 91.384-50.469 0-91.382-40.914-91.382-91.384"/></clipPath><clipPath id="g"><path d="M0 1080h1920v-1080h-1920v1080z"/></clipPath><clipPath id="h"><path d="M560.299 815.528c0-50.47 40.915-91.383 91.384-91.383s91.383 40.913 91.383 91.383-40.914 91.383-91.383 91.383c-50.469 0-91.384-40.913-91.384-91.383"/></clipPath><clipPath id="i"><path d="M0 1080h1920v-1080h-1920v1080z"/></clipPath><clipPath id="j"><path d="M561.3 262.391c0-50.47 40.913-91.384 91.383-91.384 50.469 0 91.383 40.914 91.383 91.384 0 50.469-40.914 91.383-91.383 91.383-50.47 0-91.383-40.914-91.383-91.383"/></clipPath><clipPath id="k"><path d="M0 1080h1920v-1080h-1920v1080z"/></clipPath><clipPath id="l"><path d="M853.184 137.456c0-50.469 40.913-91.382 91.382-91.382 50.47 0 91.383 40.913 91.383 91.382 0 50.469-40.913 91.383-91.383 91.383-50.469 0-91.382-40.914-91.382-91.383"/></clipPath><clipPath id="m"><path d="M0 1080h1920v-1080h-1920v1080z"/></clipPath><clipPath id="n"><path d="M1138.17 823.848c0-50.47 40.913-91.383 91.382-91.383 50.469 0 91.383 40.913 91.383 91.383s-40.914 91.383-91.383 91.383c-50.469 0-91.382-40.913-91.382-91.383"/></clipPath><clipPath id="o"><path d="M0 1080h1920v-1080h-1920v1080z"/></clipPath><clipPath id="p"><path d="M853.734 943.617c0-50.47 40.914-91.383 91.383-91.383 50.469 0 91.382 40.913 91.382 91.383 0 50.469-40.913 91.383-91.382 91.383-50.469 0-91.383-40.914-91.383-91.383"/></clipPath><clipPath id="q"><path d="M0 1080h1920v-1080h-1920v1080z"/></clipPath><clipPath id="r"><path d="M1145.067 262.391c0-50.47 40.913-91.384 91.383-91.384 50.469 0 91.383 40.914 91.383 91.384 0 50.469-40.914 91.382-91.383 91.382-50.47 0-91.383-40.913-91.383-91.382"/></clipPath><clipPath id="s"><path d="M0 1080h1920v-1080h-1920v1080z"/></clipPath><clipPath id="t"><path d="M0 1080h1920v-1080h-1920v1080z"/></clipPath><clipPath id="u"><path d="M0 1080h1920v-1080h-1920v1080z"/></clipPath></defs><g><path d="M0 1350h2400v-1350h-2400v1350z" fill="#fff"/><g clip-path="url(#a)"><path d="M320.024 960.56c0 23.223-18.825 42.047-42.047 42.047-23.223 0-42.049-18.825-42.049-42.047 0-23.223 18.826-42.047 42.049-42.047 23.222 0 42.047 18.825 42.047 42.047z" stroke="#a6ccd6" stroke-width="6.25" stroke-linecap="round" stroke-linejoin="round" stroke-miterlimit="22.926" stroke-dasharray="14, 10" fill="none"/><path d="M530.598 386.377c0 45.561-36.935 82.496-82.496 82.496-45.561 0-82.495-36.935-82.495-82.496 0-45.561 36.934-82.496 82.495-82.496 45.561 0 82.496 36.935 82.496 82.496z" stroke="#a6ccd6" stroke-width="6.25" stroke-linecap="round" stroke-linejoin="round" stroke-miterlimit="22.926" stroke-dasharray="14, 10" fill="none"/><path d="M1890.079 330.59c0 10.176-8.249 18.425-18.425 18.425-10.175 0-18.425-8.249-18.425-18.425s8.25-18.425 18.425-18.425c10.176 0 18.425 8.249 18.425 18.425z" stroke="#a6ccd6" stroke-width="6.25" stroke-linecap="round" stroke-linejoin="round" stroke-miterlimit="22.926" stroke-dasharray="14, 10" fill="none"/><path d="M2045.472 980.944c0 57.497-46.61 104.108-104.108 104.108-57.497 0-104.108-46.61-104.108-104.108 0-57.497 46.61-104.108 104.108-104.108 57.498 0 104.108 46.61 104.108 104.108z" stroke="#a6ccd6" stroke-width="6.25" stroke-linecap="round" stroke-linejoin="round" stroke-miterlimit="22.926" stroke-dasharray="14, 10" fill="none"/><path d="M2144.513 704.606c0 23.688-19.203 42.889-42.889 42.889-23.688 0-42.89-19.201-42.89-42.889 0-23.688 19.203-42.889 42.89-42.889 23.686 0 42.889 19.201 42.889 42.889z" stroke="#a6ccd6" stroke-width="6.25" stroke-linecap="round" stroke-linejoin="round" stroke-miterlimit="22.926" stroke-dasharray="14, 10" fill="none"/><path d="M584.971 1129.991c0 10.486-8.501 18.988-18.988 18.988-10.486 0-18.988-8.501-18.988-18.988 0-10.486 8.501-18.988 18.988-18.988 10.486 0 18.988 8.501 18.988 18.988z" stroke="#a6ccd6" stroke-width="6.25" stroke-linecap="round" stroke-linejoin="round" stroke-miterlimit="22.926" stroke-dasharray="14, 10" fill="none"/></g><g clip-path="url(#b)"><path d="M1508.292 675.024c0 180.92-146.664 327.584-327.584 327.584-180.92 0-327.584-146.664-327.584-327.584 0-180.92 146.664-327.584 327.584-327.584 180.92 0 327.584 146.664 327.584 327.584z" stroke="#465f81" stroke-width="6.25" stroke-linecap="round" stroke-linejoin="round" stroke-miterlimit="22.926" stroke-dasharray="14, 10" fill="none"/><path d="M1043.881 386.377c0 14.88-12.063 26.942-26.942 26.942-14.88 0-26.942-12.063-26.942-26.942 0-14.88 12.063-26.942 26.942-26.942 14.88 0 26.942 12.062 26.942 26.942" fill="#fdd26a" fill-rule="evenodd"/><path d="M1043.881 386.377c0 14.88-12.063 26.942-26.942 26.942-14.88 0-26.942-12.063-26.942-26.942 0-14.88 12.063-26.942 26.942-26.942 14.88 0 26.942 12.062 26.942 26.942z" stroke="#465f81" stroke-width="6.25" stroke-linecap="round" stroke-linejoin="round" stroke-miterlimit="10" fill="none"/><path d="M1381.945 970.911l-40.285-6.85 6.85-40.285 40.285 6.85-6.85 40.285z" fill="#dbf9ff" fill-rule="evenodd"/><path d="M1381.945 970.911l-40.285-6.85 6.85-40.285 40.285 6.85-6.85 40.285z" stroke="#465f81" stroke-width="6.25" stroke-linecap="round" stroke-linejoin="round" stroke-miterlimit="22.926" fill="none"/><path d="M1180.708 1002.5v73.951" stroke="#465f81" stroke-width="6.25" stroke-linecap="round" stroke-linejoin="round" stroke-miterlimit="22.926" stroke-dasharray="14, 10" fill="none"/><path d="M1180.708 272.791v73.951" stroke="#465f81" stroke-width="6.25" stroke-linecap="round" stroke-linejoin="round" stroke-miterlimit="22.926" stroke-dasharray="14, 10" fill="none"/><path d="M852.829 674.621h-73.951" stroke="#465f81" stroke-width="6.25" stroke-linecap="round" stroke-linejoin="round" stroke-miterlimit="22.926" stroke-dasharray="14, 10" fill="none"/><path d="M1582.538 674.621h-73.951" stroke="#465f81" stroke-width="6.25" stroke-linecap="round" stroke-linejoin="round" stroke-miterlimit="22.926" stroke-dasharray="14, 10" fill="none"/><path d="M948.863 906.466l-52.291 52.291" stroke="#465f81" stroke-width="6.25" stroke-linecap="round" stroke-linejoin="round" stroke-miterlimit="22.926" stroke-dasharray="14, 10" fill="none"/><path d="M1464.845 390.484l-52.291 52.291" stroke="#465f81" stroke-width="6.25" stroke-linecap="round" stroke-linejoin="round" stroke-miterlimit="22.926" stroke-dasharray="14, 10" fill="none"/><path d="M948.863 442.775l-52.291-52.291" stroke="#465f81" stroke-width="6.25" stroke-linecap="round" stroke-linejoin="round" stroke-miterlimit="22.926" stroke-dasharray="14, 10" fill="none"/><path d="M1464.845 958.757l-52.291-52.291" stroke="#465f81" stroke-width="6.25" stroke-linecap="round" stroke-linejoin="round" stroke-miterlimit="22.926" stroke-dasharray="14, 10" fill="none"/></g><g clip-path="url(#c)"><path d="M1150.585 549.386l6.555 11.596c3.396 6.01 1.279 13.636-4.731 17.034l-181.507 102.593c-6.01 3.396-13.636 1.279-17.032-4.731l-6.555-11.598c-3.397-6.01-1.279-13.635 4.731-17.032l181.507-102.592c6.01-3.398 13.635-1.279 17.033 4.731" fill="#c7d5f6" fill-rule="evenodd"/><path d="M1150.585 549.386l6.555 11.596c3.396 6.01 1.279 13.636-4.731 17.034l-181.507 102.593c-6.01 3.396-13.636 1.279-17.032-4.731l-6.555-11.598c-3.397-6.01-1.279-13.635 4.731-17.032l181.507-102.592c6.01-3.398 13.635-1.279 17.033 4.731z" stroke="#465f81" stroke-width="6.25" stroke-linecap="round" stroke-linejoin="round" stroke-miterlimit="22.926" fill="none"/><path d="M1115.472 710.99l-11.596 6.555c-6.01 3.396-13.636 1.279-17.034-4.731l-102.593-181.507c-3.396-6.01-1.279-13.636 4.731-17.032l11.598-6.555c6.01-3.397 13.635-1.279 17.032 4.731l102.592 181.507c3.398 6.01 1.279 13.635-4.731 17.033" fill="#c7d5f6" fill-rule="evenodd"/><path d="M1115.472 710.99l-11.596 6.555c-6.01 3.396-13.636 1.279-17.034-4.731l-102.593-181.507c-3.396-6.01-1.279-13.636 4.731-17.032l11.598-6.555c6.01-3.397 13.635-1.279 17.032 4.731l102.592 181.507c3.398 6.01 1.279 13.635-4.731 17.033z" stroke="#465f81" stroke-width="6.25" stroke-linecap="round" stroke-linejoin="round" stroke-miterlimit="22.926" fill="none"/><path d="M1166.498 637.46l-3.565 12.835c-1.847 6.651-8.738 10.546-15.39 8.699l-200.889-55.801c-6.651-1.847-10.546-8.738-8.699-15.39l3.565-12.835c1.847-6.651 8.738-10.546 15.39-8.699l200.889 55.801c6.653 1.849 10.546 8.739 8.699 15.39" fill="#c7d5f6" fill-rule="evenodd"/><path d="M1166.498 637.46l-3.565 12.835c-1.847 6.651-8.738 10.546-15.39 8.699l-200.889-55.801c-6.651-1.847-10.546-8.738-8.699-15.39l3.565-12.835c1.847-6.651 8.738-10.546 15.39-8.699l200.889 55.801c6.653 1.849 10.546 8.739 8.699 15.39z" stroke="#465f81" stroke-width="6.25" stroke-linecap="round" stroke-linejoin="round" stroke-miterlimit="22.926" fill="none"/><path d="M1027.398 726.903l-12.835-3.565c-6.651-1.847-10.546-8.738-8.699-15.39l55.801-200.889c1.847-6.651 8.738-10.546 15.39-8.699l12.835 3.565c6.651 1.847 10.546 8.739 8.699 15.39l-55.801 200.889c-1.849 6.653-8.739 10.546-15.39 8.699" fill="#c7d5f6" fill-rule="evenodd"/><path d="M1027.398 726.903l-12.835-3.565c-6.651-1.847-10.546-8.738-8.699-15.39l55.801-200.889c1.847-6.651 8.738-10.546 15.39-8.699l12.835 3.565c6.651 1.847 10.546 8.739 8.699 15.39l-55.801 200.889c-1.849 6.653-8.739 10.546-15.39 8.699z" stroke="#465f81" stroke-width="6.25" stroke-linecap="round" stroke-linejoin="round" stroke-miterlimit="22.926" fill="none"/><path d="M1009.745 537.473c41.943-23.706 95.161-8.924 118.867 33.017 23.708 41.943 8.924 95.161-33.017 118.869-41.943 23.706-95.161 8.924-118.867-33.019-23.708-41.941-8.925-95.161 33.017-118.867" fill="#a2baf0" fill-rule="evenodd"/><path d="M1009.745 537.473c41.943-23.706 95.161-8.924 118.867 33.017 23.708 41.943 8.924 95.161-33.017 118.869-41.943 23.706-95.161 8.924-118.867-33.019-23.708-41.941-8.925-95.161 33.017-118.867z" stroke="#465f81" stroke-width="6.25" stroke-linecap="round" stroke-linejoin="round" stroke-miterlimit="22.926" fill="none"/><path d="M1033.37 579.271c18.425-10.414 41.803-3.92 52.218 14.505 10.414 18.424 3.92 41.803-14.505 52.216-18.425 10.414-41.803 3.92-52.218-14.504-10.414-18.425-3.92-41.804 14.505-52.218" fill="#fff" fill-rule="evenodd"/><path d="M1033.37 579.271c18.425-10.414 41.803-3.92 52.218 14.505 10.414 18.424 3.92 41.803-14.505 52.216-18.425 10.414-41.803 3.92-52.218-14.504-10.414-18.425-3.92-41.804 14.505-52.218z" stroke="#465f81" stroke-width="6.25" stroke-linecap="round" stroke-linejoin="round" stroke-miterlimit="22.926" fill="none"/><path d="M1426.971 553.293l7.529 13.32c3.397 6.01 1.279 13.636-4.731 17.034l-228.227 129c-6.01 3.397-13.636 1.279-17.034-4.731l-7.529-13.32c-3.396-6.01-1.279-13.636 4.731-17.034l228.229-129c6.01-3.398 13.635-1.279 17.033 4.731" fill="#c7d5f6" fill-rule="evenodd"/><path d="M1426.971 553.293l7.529 13.32c3.397 6.01 1.279 13.636-4.731 17.034l-228.227 129c-6.01 3.397-13.636 1.279-17.034-4.731l-7.529-13.32c-3.396-6.01-1.279-13.636 4.731-17.034l228.229-129c6.01-3.398 13.635-1.279 17.033 4.731z" stroke="#465f81" stroke-width="6.25" stroke-linecap="round" stroke-linejoin="round" stroke-miterlimit="22.926" fill="none"/><path d="M1383.069 751.826l-13.357 7.55c-6.01 3.396-13.635 1.279-17.032-4.731l-129-228.229c-3.397-6.01-1.279-13.636 4.731-17.032l13.356-7.55c6.01-3.396 13.636-1.279 17.034 4.731l129 228.229c3.398 6.01 1.279 13.635-4.731 17.033" fill="#c7d5f6" fill-rule="evenodd"/><path d="M1383.069 751.826l-13.357 7.55c-6.01 3.396-13.635 1.279-17.032-4.731l-129-228.229c-3.397-6.01-1.279-13.636 4.731-17.032l13.356-7.55c6.01-3.396 13.636-1.279 17.034 4.731l129 228.229c3.398 6.01 1.279 13.635-4.731 17.033z" stroke="#465f81" stroke-width="6.25" stroke-linecap="round" stroke-linejoin="round" stroke-miterlimit="22.926" fill="none"/><path d="M1446.261 661.193l-4.355 15.679c-1.847 6.651-8.738 10.546-15.39 8.697l-252.599-70.164c-6.651-1.849-10.546-8.739-8.699-15.39l4.355-15.679c1.847-6.651 8.739-10.546 15.39-8.697l252.599 70.164c6.653 1.849 10.546 8.739 8.699 15.39" fill="#c7d5f6" fill-rule="evenodd"/><path d="M1446.261 661.193l-4.355 15.679c-1.847 6.651-8.738 10.546-15.39 8.697l-252.599-70.164c-6.651-1.849-10.546-8.739-8.699-15.39l4.355-15.679c1.847-6.651 8.739-10.546 15.39-8.697l252.599 70.164c6.653 1.849 10.546 8.739 8.699 15.39z" stroke="#465f81" stroke-width="6.25" stroke-linecap="round" stroke-linejoin="round" stroke-miterlimit="22.926" fill="none"/><path d="M1275.056 771.099l-15.488-4.303c-6.651-1.847-10.546-8.738-8.699-15.389l70.165-252.599c1.847-6.652 8.738-10.546 15.389-8.699l15.489 4.301c6.651 1.849 10.545 8.739 8.697 15.39l-70.164 252.599c-1.849 6.653-8.739 10.546-15.39 8.699" fill="#c7d5f6" fill-rule="evenodd"/><path d="M1275.056 771.099l-15.488-4.303c-6.651-1.847-10.546-8.738-8.699-15.389l70.165-252.599c1.847-6.652 8.738-10.546 15.389-8.699l15.489 4.301c6.651 1.849 10.545 8.739 8.697 15.39l-70.164 252.599c-1.849 6.653-8.739 10.546-15.39 8.699z" stroke="#465f81" stroke-width="6.25" stroke-linecap="round" stroke-linejoin="round" stroke-miterlimit="22.926" fill="none"/><path d="M1253.494 538.171c51.582-29.156 117.034-10.975 146.189 40.607 29.156 51.581 10.975 117.032-40.607 146.189-51.581 29.155-117.032 10.975-146.189-40.607-29.155-51.582-10.975-117.034 40.607-146.189" fill="#a2baf0" fill-rule="evenodd"/><path d="M1253.494 538.171c51.582-29.156 117.034-10.975 146.189 40.607 29.156 51.581 10.975 117.032-40.607 146.189-51.581 29.155-117.032 10.975-146.189-40.607-29.155-51.582-10.975-117.034 40.607-146.189z" stroke="#465f81" stroke-width="6.25" stroke-linecap="round" stroke-linejoin="round" stroke-miterlimit="22.926" fill="none"/><path d="M1282.55 589.576c22.66-12.808 51.411-4.821 64.219 17.839 12.808 22.659 4.821 51.411-17.838 64.219-22.66 12.807-51.411 4.821-64.22-17.839-12.807-22.659-4.821-51.411 17.839-64.219" fill="#fff" fill-rule="evenodd"/><path d="M1282.55 589.576c22.66-12.808 51.411-4.821 64.219 17.839 12.808 22.659 4.821 51.411-17.838 64.219-22.66 12.807-51.411 4.821-64.22-17.839-12.807-22.659-4.821-51.411 17.839-64.219z" stroke="#465f81" stroke-width="6.25" stroke-linecap="round" stroke-linejoin="round" stroke-miterlimit="22.926" fill="none"/><path d="M1176.611 716.661l8.94 2.484c6.652 1.847 10.546 8.738 8.699 15.389l-40.514 145.852c-1.847 6.652-8.738 10.546-15.389 8.699l-8.941-2.482c-6.651-1.849-10.546-8.739-8.699-15.39l40.514-145.852c1.849-6.653 8.739-10.546 15.39-8.699" fill="#c7d5f6" fill-rule="evenodd"/><path d="M1176.611 716.661l8.94 2.484c6.652 1.847 10.546 8.738 8.699 15.389l-40.514 145.852c-1.847 6.652-8.738 10.546-15.389 8.699l-8.941-2.482c-6.651-1.849-10.546-8.739-8.699-15.39l40.514-145.852c1.849-6.653 8.739-10.546 15.39-8.699z" stroke="#465f81" stroke-width="6.25" stroke-linecap="round" stroke-linejoin="round" stroke-miterlimit="22.926" fill="none"/><path d="M1243.874 821.76l-2.851 10.263c-1.847 6.651-8.738 10.546-15.389 8.699l-145.852-40.514c-6.652-1.847-10.546-8.738-8.699-15.39l2.85-10.263c1.849-6.651 8.739-10.546 15.39-8.699l145.852 40.514c6.653 1.849 10.546 8.739 8.699 15.39" fill="#c7d5f6" fill-rule="evenodd"/><path d="M1243.874 821.76l-2.851 10.263c-1.847 6.651-8.738 10.546-15.389 8.699l-145.852-40.514c-6.652-1.847-10.546-8.738-8.699-15.39l2.85-10.263c1.849-6.651 8.739-10.546 15.39-8.699l145.852 40.514c6.653 1.849 10.546 8.739 8.699 15.39z" stroke="#465f81" stroke-width="6.25" stroke-linecap="round" stroke-linejoin="round" stroke-miterlimit="22.926" fill="none"/><path d="M1231.406 754.863l5.689 10.065c3.397 6.01 1.279 13.635-4.731 17.033l-131.781 74.486c-6.01 3.396-13.635 1.279-17.032-4.731l-5.689-10.065c-3.396-6.01-1.279-13.636 4.731-17.032l131.781-74.486c6.01-3.397 13.635-1.279 17.033 4.731" fill="#c7d5f6" fill-rule="evenodd"/><path d="M1231.406 754.863l5.689 10.065c3.397 6.01 1.279 13.635-4.731 17.033l-131.781 74.486c-6.01 3.396-13.635 1.279-17.032-4.731l-5.689-10.065c-3.396-6.01-1.279-13.636 4.731-17.032l131.781-74.486c6.01-3.397 13.635-1.279 17.033 4.731z" stroke="#465f81" stroke-width="6.25" stroke-linecap="round" stroke-linejoin="round" stroke-miterlimit="22.926" fill="none"/><path d="M1204.602 877.954l-7.459 4.216c-6.01 3.396-13.636 1.279-17.034-4.731l-74.485-131.781c-3.397-6.01-1.279-13.635 4.731-17.032l7.459-4.216c6.01-3.397 13.636-1.279 17.032 4.731l74.486 131.781c3.397 6.01 1.279 13.635-4.731 17.033" fill="#c7d5f6" fill-rule="evenodd"/><path d="M1204.602 877.954l-7.459 4.216c-6.01 3.396-13.636 1.279-17.034-4.731l-74.485-131.781c-3.397-6.01-1.279-13.635 4.731-17.032l7.459-4.216c6.01-3.397 13.636-1.279 17.032 4.731l74.486 131.781c3.397 6.01 1.279 13.635-4.731 17.033z" stroke="#465f81" stroke-width="6.25" stroke-linecap="round" stroke-linejoin="round" stroke-miterlimit="22.926" fill="none"/><path d="M1094.643 785.419c9.74-35.065 46.061-55.595 81.126-45.855 35.065 9.74 55.595 46.061 45.855 81.126-9.74 35.065-46.062 55.595-81.126 45.855-35.065-9.74-55.595-46.061-45.855-81.126" fill="#a2baf0" fill-rule="evenodd"/><path d="M1094.643 785.419c9.74-35.065 46.061-55.595 81.126-45.855 35.065 9.74 55.595 46.061 45.855 81.126-9.74 35.065-46.062 55.595-81.126 45.855-35.065-9.74-55.595-46.061-45.855-81.126z" stroke="#465f81" stroke-width="6.25" stroke-linecap="round" stroke-linejoin="round" stroke-miterlimit="22.926" fill="none"/><path d="M1129.588 795.126c4.279-15.404 20.234-24.422 35.638-20.144 15.404 4.279 24.422 20.235 20.144 35.639-4.279 15.402-20.235 24.421-35.638 20.143-15.404-4.279-24.422-20.234-20.144-35.638" fill="#fff" fill-rule="evenodd"/><path d="M1129.588 795.126c4.279-15.404 20.234-24.422 35.638-20.144 15.404 4.279 24.422 20.235 20.144 35.639-4.279 15.402-20.235 24.421-35.638 20.143-15.404-4.279-24.422-20.234-20.144-35.638z" stroke="#465f81" stroke-width="6.25" stroke-linecap="round" stroke-linejoin="round" stroke-miterlimit="22.926" fill="none"/><path d="M1188.904 749.543c0 26.706-21.65 48.356-48.356 48.356-26.706 0-48.356-21.65-48.356-48.356 0-26.706 21.65-48.356 48.356-48.356 26.706 0 48.356 21.65 48.356 48.356" fill="#fff" fill-rule="evenodd"/><path d="M1188.904 749.543c0 26.706-21.65 48.356-48.356 48.356-26.706 0-48.356-21.65-48.356-48.356 0-26.706 21.65-48.356 48.356-48.356 26.706 0 48.356 21.65 48.356 48.356z" stroke="#465f81" stroke-width="6.25" stroke-linecap="round" stroke-linejoin="round" stroke-miterlimit="22.926" fill="none"/><path d="M1167.458 610.051l-14.48-36.36h-101.836l-14.48 36.36v199.82800000000003h286.442v-199.829h-155.646z" fill="#fdd26a" fill-rule="evenodd"/><path d="M1167.458 610.051l-14.48-36.36h-101.836l-14.48 36.36v199.82800000000003h286.442v-199.829h-155.646z" stroke="#465f81" stroke-width="6.25" stroke-linecap="round" stroke-linejoin="round" stroke-miterlimit="10" fill="none"/><path d="M1113.213 693.322h-47.5v-53.859h47.5v53.859z" fill="#fff" fill-rule="evenodd" stroke="#e8a541" stroke-width="6.25" stroke-linecap="round" stroke-linejoin="round" stroke-miterlimit="22.926"/><path d="M1138.333 653.333h95.834" fill="#e8a541" fill-rule="evenodd" stroke="#e8a541" stroke-width="6.25" stroke-linecap="round" stroke-linejoin="round" stroke-miterlimit="22.926"/><path d="M1138.333 679.167h53.334" fill="#e8a541" fill-rule="evenodd" stroke="#e8a541" stroke-width="6.25" stroke-linecap="round" stroke-linejoin="round" stroke-miterlimit="22.926"/><path d="M1320 806.666h-280.416v-18.75h280.416v18.75z" fill="#e8a541" fill-rule="evenodd"/><path d="M790.677 675.085c0 63.086-51.142 114.229-114.229 114.229-63.086 0-114.229-51.142-114.229-114.229 0-63.086 51.142-114.229 114.229-114.229 63.086 0 114.229 51.142 114.229 114.229" fill="#dbf9ff"/><path d="M790.677 675.085c0 63.086-51.142 114.229-114.229 114.229-63.086 0-114.229-51.142-114.229-114.229 0-63.086 51.142-114.229 114.229-114.229 63.086 0 114.229 51.142 114.229 114.229z" stroke="#465f81" stroke-width="6.25" stroke-linecap="round" stroke-linejoin="round" stroke-miterlimit="22.926" fill="none"/></g><g clip-path="url(#d)"><path d="M652.123 687.634h46.845c20.789 0 37.643 16.854 37.643 37.642v81.647h-122.13v-81.647c0-20.789 16.852-37.643 37.642-37.643" fill="#6394c2"/><path d="M652.123 687.634h46.845c20.789 0 37.643 16.854 37.643 37.642v81.647h-122.13v-81.647c0-20.789 16.852-37.643 37.642-37.643z" stroke="#465f81" stroke-width="6.25" stroke-linecap="round" stroke-linejoin="round" stroke-miterlimit="10" fill="none"/></g><g clip-path="url(#e)"><path d="M718.433 645.884c0 23.188-18.797 41.984-41.984 41.984-23.188 0-41.985-18.796-41.985-41.984 0-23.188 18.797-41.984 41.985-41.984 23.186 0 41.984 18.796 41.984 41.984" fill="#fdd26a"/><path d="M718.433 645.884c0 23.188-18.797 41.984-41.984 41.984-23.188 0-41.985-18.796-41.985-41.984 0-23.188 18.797-41.984 41.985-41.984 23.186 0 41.984 18.796 41.984 41.984z" stroke="#465f81" stroke-width="6.25" stroke-linecap="round" stroke-linejoin="round" stroke-miterlimit="10" fill="none"/><path d="M790.677 675.085c0 63.086-51.142 114.229-114.229 114.229-63.086 0-114.229-51.142-114.229-114.229 0-63.086 51.142-114.229 114.229-114.229 63.086 0 114.229 51.142 114.229 114.229z" stroke="#465f81" stroke-width="6.25" stroke-linecap="round" stroke-linejoin="round" stroke-miterlimit="10" fill="none"/><path d="M1799.859 674.621c0 63.086-51.142 114.229-114.229 114.229-63.086 0-114.229-51.142-114.229-114.229 0-63.086 51.142-114.229 114.229-114.229 63.086 0 114.229 51.142 114.229 114.229" fill="#dbf9ff"/><path d="M1799.859 674.621c0 63.086-51.142 114.229-114.229 114.229-63.086 0-114.229-51.142-114.229-114.229 0-63.086 51.142-114.229 114.229-114.229 63.086 0 114.229 51.142 114.229 114.229z" stroke="#465f81" stroke-width="6.25" stroke-linecap="round" stroke-linejoin="round" stroke-miterlimit="22.926" fill="none"/></g><g clip-path="url(#f)"><path d="M1661.305 687.169h46.845c20.789 0 37.643 16.854 37.643 37.642v81.647h-122.13v-81.647c0-20.789 16.852-37.643 37.642-37.643" fill="#fff"/><path d="M1661.305 687.169h46.845c20.789 0 37.643 16.854 37.643 37.642v81.647h-122.13v-81.647c0-20.789 16.852-37.643 37.642-37.643z" stroke="#465f81" stroke-width="6.25" stroke-linecap="round" stroke-linejoin="round" stroke-miterlimit="10" fill="none"/></g><g clip-path="url(#g)"><path d="M1727.615 645.42c0 23.188-18.797 41.984-41.984 41.984-23.188 0-41.985-18.796-41.985-41.984 0-23.188 18.797-41.984 41.985-41.984 23.186 0 41.984 18.796 41.984 41.984" fill="#fdd26a"/><path d="M1727.615 645.42c0 23.188-18.797 41.984-41.984 41.984-23.188 0-41.985-18.796-41.985-41.984 0-23.188 18.797-41.984 41.985-41.984 23.186 0 41.984 18.796 41.984 41.984z" stroke="#465f81" stroke-width="6.25" stroke-linecap="round" stroke-linejoin="round" stroke-miterlimit="10" fill="none"/><path d="M1799.859 674.621c0 63.086-51.142 114.229-114.229 114.229-63.086 0-114.229-51.142-114.229-114.229 0-63.086 51.142-114.229 114.229-114.229 63.086 0 114.229 51.142 114.229 114.229z" stroke="#465f81" stroke-width="6.25" stroke-linecap="round" stroke-linejoin="round" stroke-miterlimit="10" fill="none"/><path d="M1645.358 632.434h80.544s-36.991-65.245-80.544 0" fill="#465f81"/><path d="M1645.358 632.434h80.544s-36.991-65.245-80.544 0z" stroke="#465f81" stroke-width="6.25" stroke-linecap="round" stroke-linejoin="round" stroke-miterlimit="22.926" fill="none"/><path d="M928.832 330.59c0 63.086-51.142 114.229-114.229 114.229-63.086 0-114.229-51.142-114.229-114.229 0-63.086 51.142-114.229 114.229-114.229 63.086 0 114.229 51.142 114.229 114.229" fill="#dbf9ff"/><path d="M928.832 330.59c0 63.086-51.142 114.229-114.229 114.229-63.086 0-114.229-51.142-114.229-114.229 0-63.086 51.142-114.229 114.229-114.229 63.086 0 114.229 51.142 114.229 114.229z" stroke="#465f81" stroke-width="6.25" stroke-linecap="round" stroke-linejoin="round" stroke-miterlimit="22.926" fill="none"/></g><g clip-path="url(#h)"><path d="M790.278 343.138h46.845c20.789 0 37.643 16.854 37.643 37.642v81.647h-122.13v-81.647c0-20.789 16.852-37.643 37.642-37.643" fill="#e8a541"/><path d="M790.278 343.138h46.845c20.789 0 37.643 16.854 37.643 37.642v81.647h-122.13v-81.647c0-20.789 16.852-37.643 37.642-37.643z" stroke="#465f81" stroke-width="6.25" stroke-linecap="round" stroke-linejoin="round" stroke-miterlimit="22.926" fill="none"/></g><g clip-path="url(#i)"><path d="M856.588 301.389c0 23.188-18.797 41.984-41.984 41.984-23.188 0-41.985-18.796-41.985-41.984 0-23.188 18.797-41.984 41.985-41.984 23.186 0 41.984 18.796 41.984 41.984" fill="#fdd26a"/><path d="M856.588 301.389c0 23.188-18.797 41.984-41.984 41.984-23.188 0-41.985-18.796-41.985-41.984 0-23.188 18.797-41.984 41.985-41.984 23.186 0 41.984 18.796 41.984 41.984z" stroke="#465f81" stroke-width="6.25" stroke-linecap="round" stroke-linejoin="round" stroke-miterlimit="10" fill="none"/><path d="M928.832 330.59c0 63.086-51.142 114.229-114.229 114.229-63.086 0-114.229-51.142-114.229-114.229 0-63.086 51.142-114.229 114.229-114.229 63.086 0 114.229 51.142 114.229 114.229z" stroke="#465f81" stroke-width="6.25" stroke-linecap="round" stroke-linejoin="round" stroke-miterlimit="10" fill="none"/><path d="M774.331 288.402h80.544s-36.991-65.245-80.544 0" fill="#465f81"/><path d="M774.331 288.402h80.544s-36.991-65.245-80.544 0z" stroke="#465f81" stroke-width="6.25" stroke-linecap="round" stroke-linejoin="round" stroke-miterlimit="22.926" fill="none"/><path d="M930.082 1022.012c0 63.086-51.142 114.229-114.229 114.229-63.086 0-114.229-51.142-114.229-114.229 0-63.086 51.142-114.229 114.229-114.229 63.086 0 114.229 51.142 114.229 114.229" fill="#dbf9ff"/><path d="M930.082 1022.012c0 63.086-51.142 114.229-114.229 114.229-63.086 0-114.229-51.142-114.229-114.229 0-63.086 51.142-114.229 114.229-114.229 63.086 0 114.229 51.142 114.229 114.229z" stroke="#465f81" stroke-width="6.25" stroke-linecap="round" stroke-linejoin="round" stroke-miterlimit="22.926" fill="none"/></g><g clip-path="url(#j)"><path d="M791.528 1034.56h46.845c20.789 0 37.643 16.854 37.643 37.642v81.647h-122.13v-81.647c0-20.789 16.852-37.643 37.642-37.643" fill="#ef6e65"/><path d="M791.528 1034.56h46.845c20.789 0 37.643 16.854 37.643 37.642v81.647h-122.13v-81.647c0-20.789 16.852-37.643 37.642-37.643z" stroke="#465f81" stroke-width="6.25" stroke-miterlimit="10" fill="none"/></g><g clip-path="url(#k)"><path d="M857.838 992.811c0 23.188-18.797 41.984-41.984 41.984-23.188 0-41.985-18.796-41.985-41.984 0-23.188 18.797-41.984 41.985-41.984 23.186 0 41.984 18.796 41.984 41.984" fill="#fdd26a"/><path d="M857.838 992.811c0 23.188-18.797 41.984-41.984 41.984-23.188 0-41.985-18.796-41.985-41.984 0-23.188 18.797-41.984 41.985-41.984 23.186 0 41.984 18.796 41.984 41.984z" stroke="#465f81" stroke-width="6.25" stroke-linecap="round" stroke-linejoin="round" stroke-miterlimit="10" fill="none"/><path d="M930.082 1022.012c0 63.086-51.142 114.229-114.229 114.229-63.086 0-114.229-51.142-114.229-114.229 0-63.086 51.142-114.229 114.229-114.229 63.086 0 114.229 51.142 114.229 114.229z" stroke="#465f81" stroke-width="6.25" stroke-linecap="round" stroke-linejoin="round" stroke-miterlimit="10" fill="none"/><path d="M775.581 979.824h80.544s-36.991-65.245-80.544 0" fill="#465f81"/><path d="M775.581 979.824h80.544s-36.991-65.245-80.544 0z" stroke="#465f81" stroke-width="6.25" stroke-linecap="round" stroke-linejoin="round" stroke-miterlimit="22.926" fill="none"/><path d="M1294.937 1178.179c0 63.086-51.142 114.229-114.229 114.229-63.086 0-114.229-51.142-114.229-114.229 0-63.086 51.142-114.229 114.229-114.229 63.086 0 114.229 51.142 114.229 114.229" fill="#dbf9ff"/><path d="M1294.937 1178.179c0 63.086-51.142 114.229-114.229 114.229-63.086 0-114.229-51.142-114.229-114.229 0-63.086 51.142-114.229 114.229-114.229 63.086 0 114.229 51.142 114.229 114.229z" stroke="#465f81" stroke-width="6.25" stroke-linecap="round" stroke-linejoin="round" stroke-miterlimit="22.926" fill="none"/></g><g clip-path="url(#l)"><path d="M1156.382 1190.728h46.845c20.789 0 37.643 16.854 37.643 37.642v81.647h-122.13v-81.647c0-20.789 16.852-37.643 37.642-37.643" fill="#fff"/><path d="M1156.382 1190.728h46.845c20.789 0 37.643 16.854 37.643 37.642v81.647h-122.13v-81.647c0-20.789 16.852-37.643 37.642-37.643z" stroke="#465f81" stroke-width="6.25" stroke-linecap="round" stroke-linejoin="round" stroke-miterlimit="10" fill="none"/></g><g clip-path="url(#m)"><path d="M1222.692 1148.978c0 23.188-18.797 41.984-41.984 41.984-23.188 0-41.985-18.796-41.985-41.984 0-23.188 18.797-41.984 41.985-41.984 23.186 0 41.984 18.796 41.984 41.984" fill="#fdd26a"/><path d="M1222.692 1148.978c0 23.188-18.797 41.984-41.984 41.984-23.188 0-41.985-18.796-41.985-41.984 0-23.188 18.797-41.984 41.985-41.984 23.186 0 41.984 18.796 41.984 41.984z" stroke="#465f81" stroke-width="6.25" stroke-linecap="round" stroke-linejoin="round" stroke-miterlimit="10" fill="none"/><path d="M1294.937 1178.179c0 63.086-51.142 114.229-114.229 114.229-63.086 0-114.229-51.142-114.229-114.229 0-63.086 51.142-114.229 114.229-114.229 63.086 0 114.229 51.142 114.229 114.229z" stroke="#465f81" stroke-width="6.25" stroke-linecap="round" stroke-linejoin="round" stroke-miterlimit="10" fill="none"/><path d="M1651.169 320.19c0 63.086-51.142 114.229-114.229 114.229-63.086 0-114.229-51.142-114.229-114.229 0-63.086 51.142-114.229 114.229-114.229 63.086 0 114.229 51.142 114.229 114.229" fill="#dbf9ff"/><path d="M1651.169 320.19c0 63.086-51.142 114.229-114.229 114.229-63.086 0-114.229-51.142-114.229-114.229 0-63.086 51.142-114.229 114.229-114.229 63.086 0 114.229 51.142 114.229 114.229z" stroke="#465f81" stroke-width="6.25" stroke-linecap="round" stroke-linejoin="round" stroke-miterlimit="22.926" fill="none"/></g><g clip-path="url(#n)"><path d="M1512.615 332.738h46.845c20.789 0 37.643 16.854 37.643 37.642v81.647h-122.13v-81.647c0-20.789 16.852-37.643 37.642-37.643" fill="#6394c2"/><path d="M1512.615 332.738h46.845c20.789 0 37.643 16.854 37.643 37.642v81.647h-122.13v-81.647c0-20.789 16.852-37.643 37.642-37.643z" stroke="#465f81" stroke-width="6.25" stroke-linecap="round" stroke-linejoin="round" stroke-miterlimit="10" fill="none"/></g><g clip-path="url(#o)"><path d="M1578.924 290.989c0 23.188-18.797 41.984-41.984 41.984-23.188 0-41.985-18.796-41.985-41.984 0-23.188 18.797-41.984 41.985-41.984 23.186 0 41.984 18.796 41.984 41.984" fill="#fdd26a"/><path d="M1578.924 290.989c0 23.188-18.797 41.984-41.984 41.984-23.188 0-41.985-18.796-41.985-41.984 0-23.188 18.797-41.984 41.985-41.984 23.186 0 41.984 18.796 41.984 41.984z" stroke="#465f81" stroke-width="6.25" stroke-linecap="round" stroke-linejoin="round" stroke-miterlimit="10" fill="none"/><path d="M1651.169 320.19c0 63.086-51.142 114.229-114.229 114.229-63.086 0-114.229-51.142-114.229-114.229 0-63.086 51.142-114.229 114.229-114.229 63.086 0 114.229 51.142 114.229 114.229z" stroke="#465f81" stroke-width="6.25" stroke-linecap="round" stroke-linejoin="round" stroke-miterlimit="10" fill="none"/><path d="M1295.625 170.479c0 63.086-51.142 114.229-114.229 114.229-63.086 0-114.229-51.142-114.229-114.229 0-63.086 51.142-114.229 114.229-114.229 63.086 0 114.229 51.142 114.229 114.229" fill="#dbf9ff"/><path d="M1295.625 170.479c0 63.086-51.142 114.229-114.229 114.229-63.086 0-114.229-51.142-114.229-114.229 0-63.086 51.142-114.229 114.229-114.229 63.086 0 114.229 51.142 114.229 114.229z" stroke="#465f81" stroke-width="6.25" stroke-linecap="round" stroke-linejoin="round" stroke-miterlimit="22.926" fill="none"/></g><g clip-path="url(#p)"><path d="M1157.07 183.027h46.845c20.789 0 37.643 16.854 37.643 37.642v81.647h-122.13v-81.647c0-20.789 16.852-37.643 37.642-37.643" fill="#ef6e65"/><path d="M1157.07 183.027h46.845c20.789 0 37.643 16.854 37.643 37.642v81.647h-122.13v-81.647c0-20.789 16.852-37.643 37.642-37.643z" stroke="#465f81" stroke-width="6.25" stroke-miterlimit="10" fill="none"/></g><g clip-path="url(#q)"><path d="M1223.38 141.278c0 23.188-18.797 41.984-41.984 41.984-23.188 0-41.985-18.796-41.985-41.984 0-23.188 18.797-41.984 41.985-41.984 23.186 0 41.984 18.796 41.984 41.984" fill="#fdd26a"/><path d="M1223.38 141.278c0 23.188-18.797 41.984-41.984 41.984-23.188 0-41.985-18.796-41.985-41.984 0-23.188 18.797-41.984 41.985-41.984 23.186 0 41.984 18.796 41.984 41.984z" stroke="#465f81" stroke-width="6.25" stroke-linecap="round" stroke-linejoin="round" stroke-miterlimit="10" fill="none"/><path d="M1295.625 170.479c0 63.086-51.142 114.229-114.229 114.229-63.086 0-114.229-51.142-114.229-114.229 0-63.086 51.142-114.229 114.229-114.229 63.086 0 114.229 51.142 114.229 114.229z" stroke="#465f81" stroke-width="6.25" stroke-linecap="round" stroke-linejoin="round" stroke-miterlimit="10" fill="none"/><path d="M1141.124 129.411h80.544s-36.991-65.245-80.544 0" fill="#465f81"/><path d="M1141.124 129.411h80.544s-36.991-65.245-80.544 0z" stroke="#465f81" stroke-width="6.25" stroke-linecap="round" stroke-linejoin="round" stroke-miterlimit="22.926" fill="none"/><path d="M1146.347 184.272l-7.066 4.601v-47.57l4.009 28.837 13.164 9.366-10.106 4.765z" fill="#465f81"/><path d="M1146.347 184.272l-7.066 4.601v-47.57l4.009 28.837 13.164 9.366-10.106 4.765z" stroke="#465f81" stroke-width="6.25" stroke-linecap="round" stroke-linejoin="round" stroke-miterlimit="22.926" fill="none"/><path d="M1216.444 184.272l7.066 4.601v-46.051l-4.276 18.711-14.176 17.468 11.386 5.271z" fill="#465f81"/><path d="M1216.444 184.272l7.066 4.601v-46.051l-4.276 18.711-14.176 17.468 11.386 5.271z" stroke="#465f81" stroke-width="6.25" stroke-linecap="round" stroke-linejoin="round" stroke-miterlimit="22.926" fill="none"/><path d="M1659.791 1022.012c0 63.086-51.142 114.229-114.229 114.229-63.086 0-114.229-51.142-114.229-114.229 0-63.086 51.142-114.229 114.229-114.229 63.086 0 114.229 51.142 114.229 114.229" fill="#dbf9ff"/><path d="M1659.791 1022.012c0 63.086-51.142 114.229-114.229 114.229-63.086 0-114.229-51.142-114.229-114.229 0-63.086 51.142-114.229 114.229-114.229 63.086 0 114.229 51.142 114.229 114.229z" stroke="#465f81" stroke-width="6.25" stroke-linecap="round" stroke-linejoin="round" stroke-miterlimit="22.926" fill="none"/></g><g clip-path="url(#r)"><path d="M1521.237 1034.56h46.845c20.789 0 37.643 16.854 37.643 37.642v81.647h-122.13v-81.647c0-20.789 16.852-37.643 37.642-37.643" fill="#e8a541"/><path d="M1521.237 1034.56h46.845c20.789 0 37.643 16.854 37.643 37.642v81.647h-122.13v-81.647c0-20.789 16.852-37.643 37.642-37.643z" stroke="#465f81" stroke-width="6.25" stroke-linecap="round" stroke-linejoin="round" stroke-miterlimit="22.926" fill="none"/></g><g clip-path="url(#s)"><path d="M1587.547 992.811c0 23.188-18.796 41.984-41.984 41.984-23.188 0-41.985-18.796-41.985-41.984 0-23.188 18.797-41.984 41.985-41.984s41.984 18.796 41.984 41.984" fill="#fdd26a"/><path d="M1587.547 992.811c0 23.188-18.796 41.984-41.984 41.984-23.188 0-41.985-18.796-41.985-41.984 0-23.188 18.797-41.984 41.985-41.984s41.984 18.796 41.984 41.984z" stroke="#465f81" stroke-width="6.25" stroke-linecap="round" stroke-linejoin="round" stroke-miterlimit="10" fill="none"/><path d="M1659.791 1022.012c0 63.086-51.142 114.229-114.229 114.229-63.086 0-114.229-51.142-114.229-114.229 0-63.086 51.142-114.229 114.229-114.229 63.086 0 114.229 51.142 114.229 114.229z" stroke="#465f81" stroke-width="6.25" stroke-linecap="round" stroke-linejoin="round" stroke-miterlimit="10" fill="none"/><path d="M1505.291 980.944h80.544s-36.991-65.245-80.544 0" fill="#465f81"/><path d="M1505.291 980.944h80.544s-36.991-65.245-80.544 0z" stroke="#465f81" stroke-width="6.25" stroke-linecap="round" stroke-linejoin="round" stroke-miterlimit="22.926" fill="none"/><path d="M1510.514 1035.805l-7.066 4.601v-47.57l4.009 28.837 13.164 9.366-10.106 4.765z" fill="#465f81"/><path d="M1510.514 1035.805l-7.066 4.601v-47.57l4.009 28.837 13.164 9.366-10.106 4.765z" stroke="#465f81" stroke-width="6.25" stroke-linecap="round" stroke-linejoin="round" stroke-miterlimit="22.926" fill="none"/><path d="M1580.611 1035.805l7.066 4.601v-46.051l-4.276 18.711-14.176 17.468 11.386 5.271z" fill="#465f81"/><path d="M1580.611 1035.805l7.066 4.601v-46.051l-4.276 18.711-14.176 17.468 11.386 5.271z" stroke="#465f81" stroke-width="6.25" stroke-linecap="round" stroke-linejoin="round" stroke-miterlimit="22.926" fill="none"/><path d="M1659.791 1022.012c0 63.086-51.142 114.229-114.229 114.229-63.086 0-114.229-51.142-114.229-114.229 0-34.709 15.48-65.801 39.913-86.751 45.838 0 107.205 1.474 150.317 1.474 23.457 20.92 38.227 51.374 38.227 85.277" fill="#a6ccd6"/><path d="M1659.791 1022.012c0 63.086-51.142 114.229-114.229 114.229-63.086 0-114.229-51.142-114.229-114.229 0-34.709 15.48-65.801 39.913-86.751 45.838 0 107.205 1.474 150.317 1.474 23.457 20.92 38.227 51.374 38.227 85.277z" stroke="#465f81" stroke-width="6.25" stroke-linecap="round" stroke-linejoin="round" stroke-miterlimit="22.926" fill="none"/><path d="M1651.169 319.234c0 63.086-51.142 114.229-114.229 114.229-63.086 0-114.229-51.142-114.229-114.229 0-9.77 1.226-19.255 3.535-28.306 36.879 0 199.17.055 221.403.055 2.299 9.036 3.52 18.501 3.52 28.251" fill="#a6ccd6"/><path d="M1651.169 319.234c0 63.086-51.142 114.229-114.229 114.229-63.086 0-114.229-51.142-114.229-114.229 0-9.77 1.226-19.255 3.535-28.306 36.879 0 199.17.055 221.403.055 2.299 9.036 3.52 18.501 3.52 28.251z" stroke="#465f81" stroke-width="6.25" stroke-linecap="round" stroke-linejoin="round" stroke-miterlimit="22.926" fill="none"/><path d="M925.665 1053.576c-13.695 47.735-57.675 82.665-109.811 82.665-48.279 0-89.561-29.95-106.282-72.284-1.66-4.204-3.079-8.53-4.237-12.96 51.541 0 177.791 2.579 220.331 2.579" fill="#a6ccd6"/><path d="M925.665 1053.576c-13.695 47.735-57.675 82.665-109.811 82.665-48.279 0-89.561-29.95-106.282-72.284-1.66-4.204-3.079-8.53-4.237-12.96 51.541 0 177.791 2.579 220.331 2.579z" stroke="#465f81" stroke-width="6.25" stroke-linecap="round" stroke-linejoin="round" stroke-miterlimit="22.926" fill="none"/><path d="M1294.02 1177.224c0 63.086-51.141 114.229-114.229 114.229-63.086 0-114.229-51.142-114.229-114.229 0-20.686 5.499-40.089 15.115-56.825 39.57 0 142.015.568 198.551.568 9.416 16.606 14.791 35.804 14.791 56.258" fill="#a6ccd6"/><path d="M1294.02 1177.224c0 63.086-51.141 114.229-114.229 114.229-63.086 0-114.229-51.142-114.229-114.229 0-20.686 5.499-40.089 15.115-56.825 39.57 0 142.015.568 198.551.568 9.416 16.606 14.791 35.804 14.791 56.258z" stroke="#465f81" stroke-width="6.25" stroke-linecap="round" stroke-linejoin="round" stroke-miterlimit="22.926" fill="none"/></g><text transform="matrix(1.25 0 0 1.25 1469.999 1048.02)" style="-inkscape-font-specification:GothamPro-Bold" font-weight="bold" font-size="56.85" font-family="Gotham Pro" fill="#fff"><tspan x="0 37.634701 79.135201" y="0">90%</tspan><tspan x="-4.1500502 30.187349 65.604897" y="-545.362">72%</tspan></text><text transform="matrix(1.25 0 0 1.25 753.953 1109.196)" style="-inkscape-font-specification:GothamPro-Bold" font-weight="bold" font-size="44.858" font-family="Gotham Pro" fill="#fff"><tspan x="0 27.856693 60.602886" y="0">30%</tspan></text><text transform="matrix(1.25 0 0 1.25 1103.882 1207.497)" style="-inkscape-font-specification:GothamPro-Bold" font-weight="bold" font-size="56.85" font-family="Gotham Pro" fill="#fff"><tspan x="0 35.815498 74.985153" y="0">84%</tspan></text><g clip-path="url(#t)"><path d="M928.832 330.733c0 63.086-51.142 114.229-114.229 114.229-63.086 0-114.229-51.142-114.229-114.229 0-20.686 5.499-40.089 15.115-56.825 39.57 0 142.014.568 198.551.568 9.416 16.606 14.791 35.804 14.791 56.258" fill="#a6ccd6"/><path d="M928.832 330.733c0 63.086-51.142 114.229-114.229 114.229-63.086 0-114.229-51.142-114.229-114.229 0-20.686 5.499-40.089 15.115-56.825 39.57 0 142.014.568 198.551.568 9.416 16.606 14.791 35.804 14.791 56.258z" stroke="#465f81" stroke-width="6.25" stroke-linecap="round" stroke-linejoin="round" stroke-miterlimit="22.926" fill="none"/></g><text transform="matrix(1.25 0 0 1.25 739.944 361.008)" style="-inkscape-font-specification:GothamPro-Bold" font-weight="bold" font-size="56.85" font-family="Gotham Pro" fill="#fff"><tspan x="0 35.815498 77.316002" y="0">80%</tspan></text><g clip-path="url(#u)"><path d="M1799.859 674.621c0 63.086-51.142 114.229-114.229 114.229-63.086 0-114.229-51.142-114.229-114.229h228.457z" fill="#a6ccd6"/><path d="M1799.859 674.621c0 63.086-51.142 114.229-114.229 114.229-63.086 0-114.229-51.142-114.229-114.229h228.457z" stroke="#465f81" stroke-width="6.25" stroke-linecap="round" stroke-linejoin="round" stroke-miterlimit="22.926" fill="none"/><path d="M790.677 674.621c0 63.086-51.142 114.229-114.229 114.229-63.086 0-114.229-51.142-114.229-114.229 0-4.969.318-9.862.932-14.664.615-4.801 1.529-9.509 2.721-14.104 51.001 0 167.251.006 221.153.006.636 2.455 1.194 4.941 1.667 7.456 1.302 6.902 1.984 14.024 1.984 21.305" fill="#a6ccd6"/><path d="M790.677 674.621c0 63.086-51.142 114.229-114.229 114.229-63.086 0-114.229-51.142-114.229-114.229 0-4.969.318-9.862.932-14.664.615-4.801 1.529-9.509 2.721-14.104 51.001 0 167.251.006 221.153.006.636 2.455 1.194 4.941 1.667 7.456 1.302 6.902 1.984 14.024 1.984 21.305z" stroke="#465f81" stroke-width="6.25" stroke-linecap="round" stroke-linejoin="round" stroke-miterlimit="22.926" fill="none"/><path d="M1295.625 170.479c0 63.086-51.142 114.229-114.229 114.229-63.086 0-114.229-51.142-114.229-114.229 0-63.086 51.142-114.229 114.229-114.229 63.086 0 114.229 51.142 114.229 114.229" fill="#a6ccd6"/><path d="M1295.625 170.479c0 63.086-51.142 114.229-114.229 114.229-63.086 0-114.229-51.142-114.229-114.229 0-63.086 51.142-114.229 114.229-114.229 63.086 0 114.229 51.142 114.229 114.229z" stroke="#465f81" stroke-width="6.25" stroke-linecap="round" stroke-linejoin="round" stroke-miterlimit="22.926" fill="none"/></g><text transform="matrix(1.25 0 0 1.25 598.482 725.415)" style="-inkscape-font-specification:GothamPro-Bold" font-weight="bold" font-size="56.85" font-family="Gotham Pro" fill="#fff"><tspan x="0 37.634701 73.450203" y="0">65%</tspan><tspan x="806.87207 842.68756 884.18805" y="12.791">50%</tspan><tspan x="390.7869 414.77759 456.27811 497.77859" y="-423.191">100%</tspan></text></g></svg>