<svg id="svg2" xmlns="http://www.w3.org/2000/svg" viewBox="0 0 2400 1350" version="1.1"><defs id="defs6"><clipPath id="clipPath18" clipPathUnits="userSpaceOnUse"><path id="path20" d="m0 1080h1920v-1080h-1920v1080z"/></clipPath><clipPath id="clipPath50" clipPathUnits="userSpaceOnUse"><path id="path52" d="m0 1080h1920v-1080h-1920v1080z"/></clipPath><clipPath id="clipPath110" clipPathUnits="userSpaceOnUse"><path id="path112" d="m0 1080h1920v-1080h-1920v1080z"/></clipPath><clipPath id="clipPath298" clipPathUnits="userSpaceOnUse"><path id="path300" d="m449.78 539.93c0-50.47 40.914-91.383 91.383-91.383s91.383 40.913 91.383 91.383c0 50.469-40.914 91.383-91.383 91.383s-91.383-40.914-91.383-91.383"/></clipPath><clipPath id="clipPath314" clipPathUnits="userSpaceOnUse"><path id="path316" d="m0 1080h1920v-1080h-1920v1080z"/></clipPath><clipPath id="clipPath342" clipPathUnits="userSpaceOnUse"><path id="path344" d="m1257.1 540.3c0-50.469 40.913-91.383 91.382-91.383 50.47 0 91.383 40.914 91.383 91.383 0 50.47-40.913 91.384-91.383 91.384-50.469 0-91.382-40.914-91.382-91.384"/></clipPath><clipPath id="clipPath358" clipPathUnits="userSpaceOnUse"><path id="path360" d="m0 1080h1920v-1080h-1920v1080z"/></clipPath><clipPath id="clipPath394" clipPathUnits="userSpaceOnUse"><path id="path396" d="m560.3 815.53c0-50.47 40.915-91.383 91.384-91.383s91.383 40.913 91.383 91.383-40.914 91.383-91.383 91.383-91.384-40.913-91.384-91.383"/></clipPath><clipPath id="clipPath410" clipPathUnits="userSpaceOnUse"><path id="path412" d="m0 1080h1920v-1080h-1920v1080z"/></clipPath><clipPath id="clipPath446" clipPathUnits="userSpaceOnUse"><path id="path448" d="m561.3 262.39c0-50.47 40.913-91.384 91.383-91.384 50.469 0 91.383 40.914 91.383 91.384 0 50.469-40.914 91.383-91.383 91.383-50.47 0-91.383-40.914-91.383-91.383"/></clipPath><clipPath id="clipPath462" clipPathUnits="userSpaceOnUse"><path id="path464" d="m0 1080h1920v-1080h-1920v1080z"/></clipPath><clipPath id="clipPath498" clipPathUnits="userSpaceOnUse"><path id="path500" d="m853.18 137.46c0-50.469 40.913-91.382 91.382-91.382 50.47 0 91.383 40.913 91.383 91.382s-40.913 91.383-91.383 91.383c-50.469 0-91.382-40.914-91.382-91.383"/></clipPath><clipPath id="clipPath514" clipPathUnits="userSpaceOnUse"><path id="path516" d="m0 1080h1920v-1080h-1920v1080z"/></clipPath><clipPath id="clipPath542" clipPathUnits="userSpaceOnUse"><path id="path544" d="m1138.2 823.85c0-50.47 40.913-91.383 91.382-91.383s91.383 40.913 91.383 91.383-40.914 91.383-91.383 91.383-91.382-40.913-91.382-91.383"/></clipPath><clipPath id="clipPath558" clipPathUnits="userSpaceOnUse"><path id="path560" d="m0 1080h1920v-1080h-1920v1080z"/></clipPath><clipPath id="clipPath586" clipPathUnits="userSpaceOnUse"><path id="path588" d="m853.73 943.62c0-50.47 40.914-91.383 91.383-91.383s91.382 40.913 91.382 91.383c0 50.469-40.913 91.383-91.382 91.383s-91.383-40.914-91.383-91.383"/></clipPath><clipPath id="clipPath602" clipPathUnits="userSpaceOnUse"><path id="path604" d="m0 1080h1920v-1080h-1920v1080z"/></clipPath><clipPath id="clipPath654" clipPathUnits="userSpaceOnUse"><path id="path656" d="m1145.1 262.39c0-50.47 40.913-91.384 91.383-91.384 50.469 0 91.383 40.914 91.383 91.384 0 50.469-40.914 91.382-91.383 91.382-50.47 0-91.383-40.913-91.383-91.382"/></clipPath><clipPath id="clipPath670" clipPathUnits="userSpaceOnUse"><path id="path672" d="m0 1080h1920v-1080h-1920v1080z"/></clipPath><clipPath id="clipPath760" clipPathUnits="userSpaceOnUse"><path id="path762" d="m0 1080h1920v-1080h-1920v1080z"/></clipPath><clipPath id="clipPath780" clipPathUnits="userSpaceOnUse"><path id="path782" d="m0 1080h1920v-1080h-1920v1080z"/></clipPath></defs><g id="g10" transform="matrix(1.25,0,0,-1.25,0,1350)"><path id="path12" d="m0 0h1920v1080h-1920v-1080z" fill="#fff"/><g id="g14"><g id="g16" clip-path="url(#clipPath18)"><g id="g22" transform="translate(256.02 311.55)"><path id="path24" stroke-linejoin="round" d="m0 0c0-18.578-15.06-33.638-33.638-33.638s-33.639 15.06-33.639 33.638 15.061 33.638 33.639 33.638 33.638-15.06 33.638-33.638z" stroke="#a6ccd6" stroke-linecap="round" stroke-miterlimit="22.926" stroke-dasharray="14, 10" stroke-width="5" fill="none"/></g><g id="g26" transform="translate(424.48 770.9)"><path id="path28" stroke-linejoin="round" d="m0 0c0-36.449-29.548-65.997-65.997-65.997s-65.996 29.548-65.996 65.997 29.547 65.997 65.996 65.997c36.446 0 65.994-29.548 65.994-65.997z" stroke="#a6ccd6" stroke-linecap="round" stroke-miterlimit="22.926" stroke-dasharray="14, 10" stroke-width="5" fill="none"/></g><g id="g30" transform="translate(1512.1 815.53)"><path id="path32" stroke-linejoin="round" d="m0 0c0-8.141-6.599-14.74-14.74-14.74-8.14 0-14.74 6.599-14.74 14.74s6.6 14.74 14.74 14.74c8.141 0 14.74-6.599 14.74-14.74z" stroke="#a6ccd6" stroke-linecap="round" stroke-miterlimit="22.926" stroke-dasharray="14, 10" stroke-width="5" fill="none"/></g><g id="g34" transform="translate(1636.4 295.24)"><path id="path36" stroke-linejoin="round" d="m0 0c0-45.998-37.288-83.286-83.286-83.286s-83.286 37.288-83.286 83.286 37.288 83.286 83.286 83.286c45.996 0 83.284-37.288 83.284-83.286z" stroke="#a6ccd6" stroke-linecap="round" stroke-miterlimit="22.926" stroke-dasharray="14, 10" stroke-width="5" fill="none"/></g><g id="g38" transform="translate(1715.6 516.31)"><path id="path40" stroke-linejoin="round" d="m0 0c0-18.95-15.362-34.311-34.311-34.311-18.95 0-34.312 15.361-34.312 34.311s15.362 34.311 34.312 34.311c18.949 0 34.311-15.361 34.311-34.311z" stroke="#a6ccd6" stroke-linecap="round" stroke-miterlimit="22.926" stroke-dasharray="14, 10" stroke-width="5" fill="none"/></g><g id="g42" transform="translate(467.98 176.01)"><path id="path44" stroke-linejoin="round" d="m0 0c0-8.389-6.801-15.19-15.19-15.19s-15.19 6.801-15.19 15.19 6.801 15.19 15.19 15.19 15.19-6.801 15.19-15.19z" stroke="#a6ccd6" stroke-linecap="round" stroke-miterlimit="22.926" stroke-dasharray="14, 10" stroke-width="5" fill="none"/></g></g></g><g id="g46"><g id="g48" clip-path="url(#clipPath50)"><g id="g54" transform="translate(1206.6 539.98)"><path id="path56" stroke-linejoin="round" d="m0 0c0-144.74-117.33-262.07-262.07-262.07s-262.07 117.33-262.07 262.07 117.33 262.07 262.07 262.07 262.07-117.33 262.07-262.07z" stroke="#465f81" stroke-linecap="round" stroke-miterlimit="22.926" stroke-dasharray="14, 10" stroke-width="5" fill="none"/></g><g id="g58" transform="translate(835.1 770.9)"><path id="path60" d="m0 0c0-11.904-9.65-21.554-21.554-21.554s-21.554 9.65-21.554 21.554 9.65 21.554 21.554 21.554 21.554-9.65 21.554-21.554" fill-rule="evenodd" fill="#fdd26a"/></g><g id="g62" transform="translate(835.1 770.9)"><path id="path64" stroke-linejoin="round" d="m0 0c0-11.904-9.65-21.554-21.554-21.554s-21.554 9.65-21.554 21.554 9.65 21.554 21.554 21.554 21.554-9.65 21.554-21.554z" stroke="#465f81" stroke-linecap="round" stroke-miterlimit="10" stroke-width="5" fill="none"/></g><g id="g66" transform="translate(1105.6 303.27)"><path id="path68" d="m0 0-32.228 5.48 5.48 32.228l32.228-5.48-5.48-32.228z" fill-rule="evenodd" fill="#dbf9ff"/></g><g id="g70" transform="translate(1105.6 303.27)"><path id="path72" stroke-linejoin="round" d="m0 0-32.228 5.48 5.48 32.228l32.228-5.48-5.48-32.228z" stroke="#465f81" stroke-linecap="round" stroke-miterlimit="22.926" stroke-width="5" fill="none"/></g><g id="g74" transform="translate(944.57 278)"><path id="path76" stroke-linejoin="round" d="m0 0v-59.161" stroke="#465f81" stroke-linecap="round" stroke-miterlimit="22.926" stroke-dasharray="14, 10" stroke-width="5" fill="none"/></g><g id="g78" transform="translate(944.57 861.77)"><path id="path80" stroke-linejoin="round" d="m0 0v-59.161" stroke="#465f81" stroke-linecap="round" stroke-miterlimit="22.926" stroke-dasharray="14, 10" stroke-width="5" fill="none"/></g><g id="g82" transform="translate(682.26 540.3)"><path id="path84" stroke-linejoin="round" d="m0 0h-59.161" stroke="#465f81" stroke-linecap="round" stroke-miterlimit="22.926" stroke-dasharray="14, 10" stroke-width="5" fill="none"/></g><g id="g86" transform="translate(1266 540.3)"><path id="path88" stroke-linejoin="round" d="m0 0h-59.161" stroke="#465f81" stroke-linecap="round" stroke-miterlimit="22.926" stroke-dasharray="14, 10" stroke-width="5" fill="none"/></g><g id="g90" transform="translate(759.09 354.83)"><path id="path92" stroke-linejoin="round" d="m0 0-41.833-41.833" stroke="#465f81" stroke-linecap="round" stroke-miterlimit="22.926" stroke-dasharray="14, 10" stroke-width="5" fill="none"/></g><g id="g94" transform="translate(1171.9 767.61)"><path id="path96" stroke-linejoin="round" d="m0 0-41.833-41.833" stroke="#465f81" stroke-linecap="round" stroke-miterlimit="22.926" stroke-dasharray="14, 10" stroke-width="5" fill="none"/></g><g id="g98" transform="translate(759.09 725.78)"><path id="path100" stroke-linejoin="round" d="m0 0-41.833 41.833" stroke="#465f81" stroke-linecap="round" stroke-miterlimit="22.926" stroke-dasharray="14, 10" stroke-width="5" fill="none"/></g><g id="g102" transform="translate(1171.9 312.99)"><path id="path104" stroke-linejoin="round" d="m0 0-41.833 41.833" stroke="#465f81" stroke-linecap="round" stroke-miterlimit="22.926" stroke-dasharray="14, 10" stroke-width="5" fill="none"/></g></g></g><g id="g106"><g id="g108" clip-path="url(#clipPath110)"><g id="g114" transform="translate(920.47 640.49)"><path id="path116" d="m0 0 5.244-9.277c2.717-4.808 1.023-10.909-3.785-13.627l-145.21-82.074c-4.808-2.717-10.909-1.023-13.626 3.785l-5.244 9.278c-2.718 4.808-1.023 10.908 3.785 13.626l145.21 82.081c4.812 2.718 10.912 1.023 13.63-3.785" fill-rule="evenodd" fill="#c7d5f6"/></g><g id="g118" transform="translate(920.47 640.49)"><path id="path120" stroke-linejoin="round" d="m0 0 5.244-9.277c2.717-4.808 1.023-10.909-3.785-13.627l-145.21-82.074c-4.808-2.717-10.909-1.023-13.626 3.785l-5.244 9.278c-2.718 4.808-1.023 10.908 3.785 13.626l145.21 82.081c4.812 2.718 10.912 1.023 13.63-3.785z" stroke="#465f81" stroke-linecap="round" stroke-miterlimit="22.926" stroke-width="5" fill="none"/></g><g id="g122" transform="translate(892.38 511.21)"><path id="path124" d="m0 0-9.277-5.244c-4.808-2.717-10.909-1.023-13.627 3.785l-82.074 145.21c-2.717 4.808-1.023 10.909 3.785 13.626l9.278 5.244c4.808 2.718 10.908 1.023 13.626-3.785l82.081-145.21c2.718-4.812 1.023-10.912-3.785-13.63" fill-rule="evenodd" fill="#c7d5f6"/></g><g id="g126" transform="translate(892.38 511.21)"><path id="path128" stroke-linejoin="round" d="m0 0-9.277-5.244c-4.808-2.717-10.909-1.023-13.627 3.785l-82.074 145.21c-2.717 4.808-1.023 10.909 3.785 13.626l9.278 5.244c4.808 2.718 10.908 1.023 13.626-3.785l82.081-145.21c2.718-4.812 1.023-10.912-3.785-13.63z" stroke="#465f81" stroke-linecap="round" stroke-miterlimit="22.926" stroke-width="5" fill="none"/></g><g id="g130" transform="translate(933.2 570.03)"><path id="path132" d="m0 0-2.852-10.268c-1.478-5.321-6.99-8.437-12.312-6.959l-160.71 44.641c-5.321 1.478-8.437 6.99-6.959 12.312l2.852 10.268c1.478 5.321 6.99 8.437 12.312 6.959l160.71-44.641c5.323-1.479 8.438-6.991 6.96-12.312" fill-rule="evenodd" fill="#c7d5f6"/></g><g id="g134" transform="translate(933.2 570.03)"><path id="path136" stroke-linejoin="round" d="m0 0-2.852-10.268c-1.478-5.321-6.99-8.437-12.312-6.959l-160.71 44.641c-5.321 1.478-8.437 6.99-6.959 12.312l2.852 10.268c1.478 5.321 6.99 8.437 12.312 6.959l160.71-44.641c5.323-1.479 8.438-6.991 6.96-12.312z" stroke="#465f81" stroke-linecap="round" stroke-miterlimit="22.926" stroke-width="5" fill="none"/></g><g id="g138" transform="translate(821.92 498.48)"><path id="path140" d="m0 0-10.268 2.852c-5.321 1.478-8.437 6.99-6.959 12.312l44.641 160.71c1.478 5.321 6.99 8.437 12.312 6.959l10.268-2.852c5.321-1.478 8.437-6.991 6.959-12.312l-44.641-160.71c-1.479-5.323-6.991-8.438-12.312-6.96" fill-rule="evenodd" fill="#c7d5f6"/></g><g id="g142" transform="translate(821.92 498.48)"><path id="path144" stroke-linejoin="round" d="m0 0-10.268 2.852c-5.321 1.478-8.437 6.99-6.959 12.312l44.641 160.71c1.478 5.321 6.99 8.437 12.312 6.959l10.268-2.852c5.321-1.478 8.437-6.991 6.959-12.312l-44.641-160.71c-1.479-5.323-6.991-8.438-12.312-6.96z" stroke="#465f81" stroke-linecap="round" stroke-miterlimit="22.926" stroke-width="5" fill="none"/></g><g id="g146" transform="translate(807.8 650.02)"><path id="path148" d="m0 0c33.554 18.965 76.129 7.139 95.094-26.414 18.966-33.554 7.139-76.129-26.414-95.095-33.554-18.965-76.129-7.139-95.094 26.415-18.966 33.554-7.14 76.13 26.414 95.095" fill-rule="evenodd" fill="#a2baf0"/></g><g id="g150" transform="translate(807.8 650.02)"><path id="path152" stroke-linejoin="round" d="m0 0c33.554 18.965 76.129 7.139 95.094-26.414 18.966-33.554 7.139-76.129-26.414-95.095-33.554-18.965-76.129-7.139-95.094 26.415-18.966 33.554-7.14 76.13 26.414 95.095z" stroke="#465f81" stroke-linecap="round" stroke-miterlimit="22.926" stroke-width="5" fill="none"/></g><g id="g154" transform="translate(826.7 616.58)"><path id="path156" d="m0 0c14.74 8.331 33.442 3.136 41.774-11.604 8.331-14.739 3.136-33.442-11.604-41.773s-33.442-3.136-41.774 11.603c-8.331 14.74-3.136 33.443 11.604 41.774" fill-rule="evenodd" fill="#fff"/></g><g id="g158" transform="translate(826.7 616.58)"><path id="path160" stroke-linejoin="round" d="m0 0c14.74 8.331 33.442 3.136 41.774-11.604 8.331-14.739 3.136-33.442-11.604-41.773s-33.442-3.136-41.774 11.603c-8.331 14.74-3.136 33.443 11.604 41.774z" stroke="#465f81" stroke-linecap="round" stroke-miterlimit="22.926" stroke-width="5" fill="none"/></g><g id="g162" transform="translate(1141.6 637.37)"><path id="path164" d="m0 0 6.023-10.656c2.718-4.808 1.023-10.909-3.785-13.627l-182.58-103.2c-4.808-2.718-10.909-1.023-13.627 3.785l-6.023 10.656c-2.717 4.808-1.023 10.909 3.785 13.627l182.57 103.2c4.812 2.716 10.912 1.021 13.63-3.787" fill-rule="evenodd" fill="#c7d5f6"/></g><g id="g166" transform="translate(1141.6 637.37)"><path id="path168" stroke-linejoin="round" d="m0 0 6.023-10.656c2.718-4.808 1.023-10.909-3.785-13.627l-182.58-103.2c-4.808-2.718-10.909-1.023-13.627 3.785l-6.023 10.656c-2.717 4.808-1.023 10.909 3.785 13.627l182.57 103.2c4.812 2.716 10.912 1.021 13.63-3.787z" stroke="#465f81" stroke-linecap="round" stroke-miterlimit="22.926" stroke-width="5" fill="none"/></g><g id="g170" transform="translate(1106.5 478.54)"><path id="path172" d="m0 0-10.686-6.04c-4.808-2.717-10.908-1.023-13.626 3.785l-103.2 182.58c-2.718 4.808-1.023 10.909 3.785 13.626l10.685 6.04c4.808 2.717 10.909 1.023 13.627-3.785l103.2-182.57c2.716-4.812 1.021-10.912-3.787-13.63" fill-rule="evenodd" fill="#c7d5f6"/></g><g id="g174" transform="translate(1106.5 478.54)"><path id="path176" stroke-linejoin="round" d="m0 0-10.686-6.04c-4.808-2.717-10.908-1.023-13.626 3.785l-103.2 182.58c-2.718 4.808-1.023 10.909 3.785 13.626l10.685 6.04c4.808 2.717 10.909 1.023 13.627-3.785l103.2-182.57c2.716-4.812 1.021-10.912-3.787-13.63z" stroke="#465f81" stroke-linecap="round" stroke-miterlimit="22.926" stroke-width="5" fill="none"/></g><g id="g178" transform="translate(1157 551.05)"><path id="path180" d="m0 0-3.484-12.543c-1.478-5.321-6.99-8.437-12.312-6.958l-202.08 56.131c-5.321 1.479-8.437 6.991-6.959 12.312l3.484 12.543c1.478 5.321 6.991 8.437 12.312 6.958l202.09-56.131c5.323-1.479 8.438-6.991 6.96-12.312" fill-rule="evenodd" fill="#c7d5f6"/></g><g id="g182" transform="translate(1157 551.05)"><path id="path184" stroke-linejoin="round" d="m0 0-3.484-12.543c-1.478-5.321-6.99-8.437-12.312-6.958l-202.08 56.131c-5.321 1.479-8.437 6.991-6.959 12.312l3.484 12.543c1.478 5.321 6.991 8.437 12.312 6.958l202.09-56.131c5.323-1.479 8.438-6.991 6.96-12.312z" stroke="#465f81" stroke-linecap="round" stroke-miterlimit="22.926" stroke-width="5" fill="none"/></g><g id="g186" transform="translate(1020 463.12)"><path id="path188" d="m0 0-12.39 3.442c-5.321 1.478-8.437 6.99-6.959 12.311l56.132 202.08c1.478 5.322 6.99 8.437 12.311 6.959l12.391-3.441c5.321-1.479 8.436-6.991 6.958-12.312l-56.131-202.08c-1.479-5.323-6.991-8.438-12.312-6.96" fill-rule="evenodd" fill="#c7d5f6"/></g><g id="g190" transform="translate(1020 463.12)"><path id="path192" stroke-linejoin="round" d="m0 0-12.39 3.442c-5.321 1.478-8.437 6.99-6.959 12.311l56.132 202.08c1.478 5.322 6.99 8.437 12.311 6.959l12.391-3.441c5.321-1.479 8.436-6.991 6.958-12.312l-56.131-202.08c-1.479-5.323-6.991-8.438-12.312-6.96z" stroke="#465f81" stroke-linecap="round" stroke-miterlimit="22.926" stroke-width="5" fill="none"/></g><g id="g194" transform="translate(1002.8 649.46)"><path id="path196" d="m0 0c41.266 23.325 93.627 8.78 116.95-32.486 23.325-41.265 8.78-93.626-32.486-116.95-41.265-23.324-93.626-8.78-116.95 32.486-23.324 41.265-8.78 93.626 32.486 116.95" fill-rule="evenodd" fill="#a2baf0"/></g><g id="g198" transform="translate(1002.8 649.46)"><path id="path200" stroke-linejoin="round" d="m0 0c41.266 23.325 93.627 8.78 116.95-32.486 23.325-41.265 8.78-93.626-32.486-116.95-41.265-23.324-93.626-8.78-116.95 32.486-23.324 41.265-8.78 93.626 32.486 116.95z" stroke="#465f81" stroke-linecap="round" stroke-miterlimit="22.926" stroke-width="5" fill="none"/></g><g id="g202" transform="translate(1026 608.34)"><path id="path204" d="m0 0c18.128 10.246 41.129 3.857 51.375-14.271 10.246-18.127 3.857-41.129-14.27-51.375-18.128-10.246-41.129-3.857-51.376 14.271-10.246 18.127-3.857 41.129 14.271 51.375" fill-rule="evenodd" fill="#fff"/></g><g id="g206" transform="translate(1026 608.34)"><path id="path208" stroke-linejoin="round" d="m0 0c18.128 10.246 41.129 3.857 51.375-14.271 10.246-18.127 3.857-41.129-14.27-51.375-18.128-10.246-41.129-3.857-51.376 14.271-10.246 18.127-3.857 41.129 14.271 51.375z" stroke="#465f81" stroke-linecap="round" stroke-miterlimit="22.926" stroke-width="5" fill="none"/></g><g id="g210" transform="translate(941.29 506.67)"><path id="path212" d="m0 0 7.152-1.987c5.322-1.478 8.437-6.99 6.959-12.311l-32.411-116.68c-1.478-5.322-6.99-8.437-12.311-6.959l-7.153 1.986c-5.321 1.479-8.437 6.991-6.959 12.312l32.411 116.68c1.479 5.323 6.991 8.438 12.312 6.96" fill-rule="evenodd" fill="#c7d5f6"/></g><g id="g214" transform="translate(941.29 506.67)"><path id="path216" stroke-linejoin="round" d="m0 0 7.152-1.987c5.322-1.478 8.437-6.99 6.959-12.311l-32.411-116.68c-1.478-5.322-6.99-8.437-12.311-6.959l-7.153 1.986c-5.321 1.479-8.437 6.991-6.959 12.312l32.411 116.68c1.479 5.323 6.991 8.438 12.312 6.96z" stroke="#465f81" stroke-linecap="round" stroke-miterlimit="22.926" stroke-width="5" fill="none"/></g><g id="g218" transform="translate(995.1 422.59)"><path id="path220" d="m0 0-2.281-8.21c-1.478-5.321-6.99-8.437-12.311-6.959l-116.68 32.411c-5.322 1.478-8.437 6.99-6.959 12.312l2.28 8.21c1.479 5.321 6.991 8.437 12.312 6.959l116.68-32.411c5.323-1.479 8.438-6.991 6.96-12.312" fill-rule="evenodd" fill="#c7d5f6"/></g><g id="g222" transform="translate(995.1 422.59)"><path id="path224" stroke-linejoin="round" d="m0 0-2.281-8.21c-1.478-5.321-6.99-8.437-12.311-6.959l-116.68 32.411c-5.322 1.478-8.437 6.99-6.959 12.312l2.28 8.21c1.479 5.321 6.991 8.437 12.312 6.959l116.68-32.411c5.323-1.479 8.438-6.991 6.96-12.312z" stroke="#465f81" stroke-linecap="round" stroke-miterlimit="22.926" stroke-width="5" fill="none"/></g><g id="g226" transform="translate(985.13 476.11)"><path id="path228" d="m0 0 4.551-8.052c2.718-4.808 1.023-10.908-3.785-13.626l-105.42-59.589c-4.808-2.717-10.908-1.023-13.626 3.785l-4.551 8.052c-2.717 4.808-1.023 10.909 3.785 13.626l105.41 59.589c4.812 2.718 10.912 1.023 13.63-3.785" fill-rule="evenodd" fill="#c7d5f6"/></g><g id="g230" transform="translate(985.13 476.11)"><path id="path232" stroke-linejoin="round" d="m0 0 4.551-8.052c2.718-4.808 1.023-10.908-3.785-13.626l-105.42-59.589c-4.808-2.717-10.908-1.023-13.626 3.785l-4.551 8.052c-2.717 4.808-1.023 10.909 3.785 13.626l105.41 59.589c4.812 2.718 10.912 1.023 13.63-3.785z" stroke="#465f81" stroke-linecap="round" stroke-miterlimit="22.926" stroke-width="5" fill="none"/></g><g id="g234" transform="translate(963.68 377.64)"><path id="path236" d="m0 0-5.967-3.373c-4.808-2.717-10.909-1.023-13.627 3.785l-59.588 105.42c-2.718 4.808-1.023 10.908 3.785 13.626l5.967 3.373c4.808 2.718 10.909 1.023 13.626-3.785l59.589-105.41c2.718-4.812 1.023-10.912-3.785-13.63" fill-rule="evenodd" fill="#c7d5f6"/></g><g id="g238" transform="translate(963.68 377.64)"><path id="path240" stroke-linejoin="round" d="m0 0-5.967-3.373c-4.808-2.717-10.909-1.023-13.627 3.785l-59.588 105.42c-2.718 4.808-1.023 10.908 3.785 13.626l5.967 3.373c4.808 2.718 10.909 1.023 13.626-3.785l59.589-105.41c2.718-4.812 1.023-10.912-3.785-13.63z" stroke="#465f81" stroke-linecap="round" stroke-miterlimit="22.926" stroke-width="5" fill="none"/></g><g id="g242" transform="translate(875.71 451.66)"><path id="path244" d="m0 0c7.792 28.052 36.849 44.476 64.901 36.684s44.479-36.849 36.679-64.901c-7.787-28.052-36.845-44.476-64.896-36.684-28.052 7.792-44.476 36.849-36.684 64.901" fill-rule="evenodd" fill="#a2baf0"/></g><g id="g246" transform="translate(875.71 451.66)"><path id="path248" stroke-linejoin="round" d="m0 0c7.792 28.052 36.849 44.476 64.901 36.684s44.479-36.849 36.679-64.901c-7.787-28.052-36.845-44.476-64.896-36.684-28.052 7.792-44.476 36.849-36.684 64.901z" stroke="#465f81" stroke-linecap="round" stroke-miterlimit="22.926" stroke-width="5" fill="none"/></g><g id="g250" transform="translate(903.67 443.9)"><path id="path252" d="m0 0c3.423 12.323 16.187 19.538 28.51 16.115s19.538-16.188 16.115-28.511c-3.423-12.322-16.188-19.537-28.51-16.114-12.323 3.423-19.538 16.187-16.115 28.51" fill-rule="evenodd" fill="#fff"/></g><g id="g254" transform="translate(903.67 443.9)"><path id="path256" stroke-linejoin="round" d="m0 0c3.423 12.323 16.187 19.538 28.51 16.115s19.538-16.188 16.115-28.511c-3.423-12.322-16.188-19.537-28.51-16.114-12.323 3.423-19.538 16.187-16.115 28.51z" stroke="#465f81" stroke-linecap="round" stroke-miterlimit="22.926" stroke-width="5" fill="none"/></g><g id="g258" transform="translate(951.12 480.37)"><path id="path260" d="m0 0c0-21.365-17.32-38.685-38.685-38.685s-38.685 17.32-38.685 38.685 17.32 38.685 38.685 38.685 38.685-17.32 38.685-38.685" fill-rule="evenodd" fill="#fff"/></g><g id="g262" transform="translate(951.12 480.37)"><path id="path264" stroke-linejoin="round" d="m0 0c0-21.365-17.32-38.685-38.685-38.685s-38.685 17.32-38.685 38.685 17.32 38.685 38.685 38.685 38.685-17.32 38.685-38.685z" stroke="#465f81" stroke-linecap="round" stroke-miterlimit="22.926" stroke-width="5" fill="none"/></g><g id="g266" transform="translate(933.97 591.96)"><path id="path268" d="m0 0-11.584 29.088h-81.469l-11.587-29.088v-37.07-122.79h229.15l0.01 159.86h-124.52z" fill-rule="evenodd" fill="#fdd26a"/></g><g id="g270" transform="translate(933.97 591.96)"><path id="path272" stroke-linejoin="round" d="m0 0-11.584 29.088h-81.469l-11.587-29.088v-37.07-122.79h229.15l0.01 159.86h-124.52z" stroke="#465f81" stroke-linecap="round" stroke-miterlimit="10" stroke-width="5" fill="none"/></g><path id="path274" stroke-linejoin="round" d="m890.57 525.34h-38v43.087h38v-43.087z" fill-rule="evenodd" stroke="#e8a541" stroke-linecap="round" stroke-miterlimit="22.926" stroke-width="5" fill="#fff"/><g id="g276" transform="translate(910.67 557.33)"><path id="path278" stroke-linejoin="round" d="m0 0h76.667" fill-rule="evenodd" stroke="#e8a541" stroke-linecap="round" stroke-miterlimit="22.926" stroke-width="5" fill="#e8a541"/></g><g id="g280" transform="translate(910.67 536.67)"><path id="path282" stroke-linejoin="round" d="m0 0h42.667" fill-rule="evenodd" stroke="#e8a541" stroke-linecap="round" stroke-miterlimit="22.926" stroke-width="5" fill="#e8a541"/></g><path id="path284" d="m1056 434.67h-224.33v15h224.33v-15z" fill-rule="evenodd" fill="#e8a541"/><g id="g286" transform="translate(632.54 539.93)"><path id="path288" d="m0 0c0-50.469-40.914-91.383-91.383-91.383s-91.383 40.914-91.383 91.383 40.914 91.383 91.383 91.383c50.473 0 91.387-40.914 91.387-91.383" fill="#dbf9ff"/></g><g id="g290" transform="translate(632.54 539.93)"><path id="path292" stroke-linejoin="round" d="m0 0c0-50.469-40.914-91.383-91.383-91.383s-91.383 40.914-91.383 91.383 40.914 91.383 91.383 91.383c50.473 0 91.387-40.914 91.387-91.383z" stroke="#465f81" stroke-linecap="round" stroke-miterlimit="22.926" stroke-width="5" fill="none"/></g></g></g><g id="g294"><g id="g296" clip-path="url(#clipPath298)"><g id="g302" transform="translate(521.7 529.89)"><path id="path304" d="m0 0h37.476c16.631 0 30.114-13.483 30.114-30.114v-65.318h-97.704v65.318c0 16.631 13.482 30.114 30.114 30.114" fill="#6394c2"/></g><g id="g306" transform="translate(521.7 529.89)"><path id="path308" stroke-linejoin="round" d="m0 0h37.476c16.631 0 30.114-13.483 30.114-30.114v-65.318h-97.704v65.318c0 16.631 13.482 30.114 30.114 30.114z" stroke="#465f81" stroke-linecap="round" stroke-miterlimit="10" stroke-width="5" fill="none"/></g></g></g><g id="g310"><g id="g312" clip-path="url(#clipPath314)"><g id="g318" transform="translate(574.75 563.29)"><path id="path320" d="m0 0c0-18.55-15.038-33.587-33.587-33.587-18.55 0-33.588 15.037-33.588 33.587s15.038 33.587 33.588 33.587c18.549 0 33.587-15.037 33.587-33.587" fill="#fdd26a"/></g><g id="g322" transform="translate(574.75 563.29)"><path id="path324" stroke-linejoin="round" d="m0 0c0-18.55-15.038-33.587-33.587-33.587-18.55 0-33.588 15.037-33.588 33.587s15.038 33.587 33.588 33.587c18.549 0 33.587-15.037 33.587-33.587z" stroke="#465f81" stroke-linecap="round" stroke-miterlimit="10" stroke-width="5" fill="none"/></g><g id="g326" transform="translate(632.54 539.93)"><path id="path328" stroke-linejoin="round" d="m0 0c0-50.469-40.914-91.383-91.383-91.383s-91.383 40.914-91.383 91.383 40.914 91.383 91.383 91.383c50.473 0 91.387-40.914 91.387-91.383z" stroke="#465f81" stroke-linecap="round" stroke-miterlimit="10" stroke-width="5" fill="none"/></g><g id="g330" transform="translate(1439.9 540.3)"><path id="path332" d="m0 0c0-50.469-40.914-91.383-91.383-91.383s-91.383 40.914-91.383 91.383 40.914 91.383 91.383 91.383c50.473 0 91.387-40.914 91.387-91.383" fill="#dbf9ff"/></g><g id="g334" transform="translate(1439.9 540.3)"><path id="path336" stroke-linejoin="round" d="m0 0c0-50.469-40.914-91.383-91.383-91.383s-91.383 40.914-91.383 91.383 40.914 91.383 91.383 91.383c50.473 0 91.387-40.914 91.387-91.383z" stroke="#465f81" stroke-linecap="round" stroke-miterlimit="22.926" stroke-width="5" fill="none"/></g></g></g><g id="g338"><g id="g340" clip-path="url(#clipPath342)"><g id="g346" transform="translate(1329 530.26)"><path id="path348" d="m0 0h37.476c16.631 0 30.114-13.483 30.114-30.114v-65.318h-97.704v65.318c0 16.631 13.482 30.114 30.114 30.114" fill="#fff"/></g><g id="g350" transform="translate(1329 530.26)"><path id="path352" stroke-linejoin="round" d="m0 0h37.476c16.631 0 30.114-13.483 30.114-30.114v-65.318h-97.704v65.318c0 16.631 13.482 30.114 30.114 30.114z" stroke="#465f81" stroke-linecap="round" stroke-miterlimit="10" stroke-width="5" fill="none"/></g></g></g><g id="g354"><g id="g356" clip-path="url(#clipPath358)"><g id="g362" transform="translate(1382.1 563.66)"><path id="path364" d="m0 0c0-18.55-15.038-33.587-33.587-33.587-18.55 0-33.588 15.037-33.588 33.587s15.038 33.587 33.588 33.587c18.549 0 33.587-15.037 33.587-33.587" fill="#fdd26a"/></g><g id="g366" transform="translate(1382.1 563.66)"><path id="path368" stroke-linejoin="round" d="m0 0c0-18.55-15.038-33.587-33.587-33.587-18.55 0-33.588 15.037-33.588 33.587s15.038 33.587 33.588 33.587c18.549 0 33.587-15.037 33.587-33.587z" stroke="#465f81" stroke-linecap="round" stroke-miterlimit="10" stroke-width="5" fill="none"/></g><g id="g370" transform="translate(1439.9 540.3)"><path id="path372" stroke-linejoin="round" d="m0 0c0-50.469-40.914-91.383-91.383-91.383s-91.383 40.914-91.383 91.383 40.914 91.383 91.383 91.383c50.473 0 91.387-40.914 91.387-91.383z" stroke="#465f81" stroke-linecap="round" stroke-miterlimit="10" stroke-width="5" fill="none"/></g><g id="g374" transform="translate(1316.3 574.05)"><path id="path376" d="m0 0h64.435s-29.593 52.196-64.435 0" fill="#465f81"/></g><g id="g378" transform="translate(1316.3 574.05)"><path id="path380" stroke-linejoin="round" d="m0 0h64.435s-29.593 52.196-64.435 0z" stroke="#465f81" stroke-linecap="round" stroke-miterlimit="22.926" stroke-width="5" fill="none"/></g><g id="g382" transform="translate(743.07 815.53)"><path id="path384" d="m0 0c0-50.469-40.914-91.383-91.383-91.383s-91.383 40.914-91.383 91.383 40.914 91.383 91.383 91.383c50.473 0 91.387-40.914 91.387-91.383" fill="#dbf9ff"/></g><g id="g386" transform="translate(743.07 815.53)"><path id="path388" stroke-linejoin="round" d="m0 0c0-50.469-40.914-91.383-91.383-91.383s-91.383 40.914-91.383 91.383 40.914 91.383 91.383 91.383c50.473 0 91.387-40.914 91.387-91.383z" stroke="#465f81" stroke-linecap="round" stroke-miterlimit="22.926" stroke-width="5" fill="none"/></g></g></g><g id="g390"><g id="g392" clip-path="url(#clipPath394)"><g id="g398" transform="translate(632.22 805.49)"><path id="path400" d="m0 0h37.476c16.631 0 30.114-13.483 30.114-30.114v-65.318h-97.704v65.318c0 16.631 13.482 30.114 30.114 30.114" fill="#e8a541"/></g><g id="g402" transform="translate(632.22 805.49)"><path id="path404" stroke-linejoin="round" d="m0 0h37.476c16.631 0 30.114-13.483 30.114-30.114v-65.318h-97.704v65.318c0 16.631 13.482 30.114 30.114 30.114z" stroke="#465f81" stroke-linecap="round" stroke-miterlimit="22.926" stroke-width="5" fill="none"/></g></g></g><g id="g406"><g id="g408" clip-path="url(#clipPath410)"><g id="g414" transform="translate(685.27 838.89)"><path id="path416" d="m0 0c0-18.55-15.038-33.587-33.587-33.587-18.55 0-33.588 15.037-33.588 33.587s15.038 33.587 33.588 33.587c18.549 0 33.587-15.037 33.587-33.587" fill="#fdd26a"/></g><g id="g418" transform="translate(685.27 838.89)"><path id="path420" stroke-linejoin="round" d="m0 0c0-18.55-15.038-33.587-33.587-33.587-18.55 0-33.588 15.037-33.588 33.587s15.038 33.587 33.588 33.587c18.549 0 33.587-15.037 33.587-33.587z" stroke="#465f81" stroke-linecap="round" stroke-miterlimit="10" stroke-width="5" fill="none"/></g><g id="g422" transform="translate(743.07 815.53)"><path id="path424" stroke-linejoin="round" d="m0 0c0-50.469-40.914-91.383-91.383-91.383s-91.383 40.914-91.383 91.383 40.914 91.383 91.383 91.383c50.473 0 91.387-40.914 91.387-91.383z" stroke="#465f81" stroke-linecap="round" stroke-miterlimit="10" stroke-width="5" fill="none"/></g><g id="g426" transform="translate(619.47 849.28)"><path id="path428" d="m0 0h64.435s-29.593 52.196-64.435 0" fill="#465f81"/></g><g id="g430" transform="translate(619.47 849.28)"><path id="path432" stroke-linejoin="round" d="m0 0h64.435s-29.593 52.196-64.435 0z" stroke="#465f81" stroke-linecap="round" stroke-miterlimit="22.926" stroke-width="5" fill="none"/></g><g id="g434" transform="translate(744.07 262.39)"><path id="path436" d="m0 0c0-50.469-40.914-91.383-91.383-91.383s-91.383 40.914-91.383 91.383 40.914 91.383 91.383 91.383c50.473 0 91.387-40.914 91.387-91.383" fill="#dbf9ff"/></g><g id="g438" transform="translate(744.07 262.39)"><path id="path440" stroke-linejoin="round" d="m0 0c0-50.469-40.914-91.383-91.383-91.383s-91.383 40.914-91.383 91.383 40.914 91.383 91.383 91.383c50.473 0 91.387-40.914 91.387-91.383z" stroke="#465f81" stroke-linecap="round" stroke-miterlimit="22.926" stroke-width="5" fill="none"/></g></g></g><g id="g442"><g id="g444" clip-path="url(#clipPath446)"><g id="g450" transform="translate(633.22 252.35)"><path id="path452" d="m0 0h37.476c16.631 0 30.114-13.483 30.114-30.114v-65.318h-97.704v65.318c0 16.631 13.482 30.114 30.114 30.114" fill="#ef6e65"/></g><g id="g454" transform="translate(633.22 252.35)"><path id="path456" d="m0 0h37.476c16.631 0 30.114-13.483 30.114-30.114v-65.318h-97.704v65.318c0 16.631 13.482 30.114 30.114 30.114z" stroke="#465f81" stroke-miterlimit="10" stroke-width="5" fill="none"/></g></g></g><g id="g458"><g id="g460" clip-path="url(#clipPath462)"><g id="g466" transform="translate(686.27 285.75)"><path id="path468" d="m0 0c0-18.55-15.038-33.587-33.587-33.587-18.55 0-33.588 15.037-33.588 33.587s15.038 33.587 33.588 33.587c18.549 0 33.587-15.037 33.587-33.587" fill="#fdd26a"/></g><g id="g470" transform="translate(686.27 285.75)"><path id="path472" stroke-linejoin="round" d="m0 0c0-18.55-15.038-33.587-33.587-33.587-18.55 0-33.588 15.037-33.588 33.587s15.038 33.587 33.588 33.587c18.549 0 33.587-15.037 33.587-33.587z" stroke="#465f81" stroke-linecap="round" stroke-miterlimit="10" stroke-width="5" fill="none"/></g><g id="g474" transform="translate(744.07 262.39)"><path id="path476" stroke-linejoin="round" d="m0 0c0-50.469-40.914-91.383-91.383-91.383s-91.383 40.914-91.383 91.383 40.914 91.383 91.383 91.383c50.473 0 91.387-40.914 91.387-91.383z" stroke="#465f81" stroke-linecap="round" stroke-miterlimit="10" stroke-width="5" fill="none"/></g><g id="g478" transform="translate(620.47 296.14)"><path id="path480" d="m0 0h64.435s-29.593 52.196-64.435 0" fill="#465f81"/></g><g id="g482" transform="translate(620.47 296.14)"><path id="path484" stroke-linejoin="round" d="m0 0h64.435s-29.593 52.196-64.435 0z" stroke="#465f81" stroke-linecap="round" stroke-miterlimit="22.926" stroke-width="5" fill="none"/></g><g id="g486" transform="translate(1035.9 137.46)"><path id="path488" d="m0 0c0-50.469-40.914-91.383-91.383-91.383s-91.383 40.914-91.383 91.383 40.914 91.383 91.383 91.383c50.473 0 91.387-40.914 91.387-91.383" fill="#dbf9ff"/></g><g id="g490" transform="translate(1035.9 137.46)"><path id="path492" stroke-linejoin="round" d="m0 0c0-50.469-40.914-91.383-91.383-91.383s-91.383 40.914-91.383 91.383 40.914 91.383 91.383 91.383c50.473 0 91.387-40.914 91.387-91.383z" stroke="#465f81" stroke-linecap="round" stroke-miterlimit="22.926" stroke-width="5" fill="none"/></g></g></g><g id="g494"><g id="g496" clip-path="url(#clipPath498)"><g id="g502" transform="translate(925.11 127.42)"><path id="path504" d="m0 0h37.476c16.631 0 30.114-13.483 30.114-30.114v-65.318h-97.704v65.318c0 16.631 13.482 30.114 30.114 30.114" fill="#fff"/></g><g id="g506" transform="translate(925.11 127.42)"><path id="path508" stroke-linejoin="round" d="m0 0h37.476c16.631 0 30.114-13.483 30.114-30.114v-65.318h-97.704v65.318c0 16.631 13.482 30.114 30.114 30.114z" stroke="#465f81" stroke-linecap="round" stroke-miterlimit="10" stroke-width="5" fill="none"/></g></g></g><g id="g510"><g id="g512" clip-path="url(#clipPath514)"><g id="g518" transform="translate(978.15 160.82)"><path id="path520" d="m0 0c0-18.55-15.038-33.587-33.587-33.587-18.55 0-33.588 15.037-33.588 33.587s15.038 33.587 33.588 33.587c18.549 0 33.587-15.037 33.587-33.587" fill="#fdd26a"/></g><g id="g522" transform="translate(978.15 160.82)"><path id="path524" stroke-linejoin="round" d="m0 0c0-18.55-15.038-33.587-33.587-33.587-18.55 0-33.588 15.037-33.588 33.587s15.038 33.587 33.588 33.587c18.549 0 33.587-15.037 33.587-33.587z" stroke="#465f81" stroke-linecap="round" stroke-miterlimit="10" stroke-width="5" fill="none"/></g><g id="g526" transform="translate(1035.9 137.46)"><path id="path528" stroke-linejoin="round" d="m0 0c0-50.469-40.914-91.383-91.383-91.383s-91.383 40.914-91.383 91.383 40.914 91.383 91.383 91.383c50.473 0 91.387-40.914 91.387-91.383z" stroke="#465f81" stroke-linecap="round" stroke-miterlimit="10" stroke-width="5" fill="none"/></g><g id="g530" transform="translate(1320.9 823.85)"><path id="path532" d="m0 0c0-50.469-40.914-91.383-91.383-91.383s-91.383 40.914-91.383 91.383 40.914 91.383 91.383 91.383c50.473 0 91.387-40.914 91.387-91.383" fill="#dbf9ff"/></g><g id="g534" transform="translate(1320.9 823.85)"><path id="path536" stroke-linejoin="round" d="m0 0c0-50.469-40.914-91.383-91.383-91.383s-91.383 40.914-91.383 91.383 40.914 91.383 91.383 91.383c50.473 0 91.387-40.914 91.387-91.383z" stroke="#465f81" stroke-linecap="round" stroke-miterlimit="22.926" stroke-width="5" fill="none"/></g></g></g><g id="g538"><g id="g540" clip-path="url(#clipPath542)"><g id="g546" transform="translate(1210.1 813.81)"><path id="path548" d="m0 0h37.476c16.631 0 30.114-13.483 30.114-30.114v-65.318h-97.704v65.318c0 16.631 13.482 30.114 30.114 30.114" fill="#6394c2"/></g><g id="g550" transform="translate(1210.1 813.81)"><path id="path552" stroke-linejoin="round" d="m0 0h37.476c16.631 0 30.114-13.483 30.114-30.114v-65.318h-97.704v65.318c0 16.631 13.482 30.114 30.114 30.114z" stroke="#465f81" stroke-linecap="round" stroke-miterlimit="10" stroke-width="5" fill="none"/></g></g></g><g id="g554"><g id="g556" clip-path="url(#clipPath558)"><g id="g562" transform="translate(1263.1 847.21)"><path id="path564" d="m0 0c0-18.55-15.038-33.587-33.587-33.587-18.55 0-33.588 15.037-33.588 33.587s15.038 33.587 33.588 33.587c18.549 0 33.587-15.037 33.587-33.587" fill="#fdd26a"/></g><g id="g566" transform="translate(1263.1 847.21)"><path id="path568" stroke-linejoin="round" d="m0 0c0-18.55-15.038-33.587-33.587-33.587-18.55 0-33.588 15.037-33.588 33.587s15.038 33.587 33.588 33.587c18.549 0 33.587-15.037 33.587-33.587z" stroke="#465f81" stroke-linecap="round" stroke-miterlimit="10" stroke-width="5" fill="none"/></g><g id="g570" transform="translate(1320.9 823.85)"><path id="path572" stroke-linejoin="round" d="m0 0c0-50.469-40.914-91.383-91.383-91.383s-91.383 40.914-91.383 91.383 40.914 91.383 91.383 91.383c50.473 0 91.387-40.914 91.387-91.383z" stroke="#465f81" stroke-linecap="round" stroke-miterlimit="10" stroke-width="5" fill="none"/></g><g id="g574" transform="translate(1036.5 943.62)"><path id="path576" d="m0 0c0-50.469-40.914-91.383-91.383-91.383s-91.383 40.914-91.383 91.383 40.914 91.383 91.383 91.383c50.473 0 91.387-40.914 91.387-91.383" fill="#dbf9ff"/></g><g id="g578" transform="translate(1036.5 943.62)"><path id="path580" stroke-linejoin="round" d="m0 0c0-50.469-40.914-91.383-91.383-91.383s-91.383 40.914-91.383 91.383 40.914 91.383 91.383 91.383c50.473 0 91.387-40.914 91.387-91.383z" stroke="#465f81" stroke-linecap="round" stroke-miterlimit="22.926" stroke-width="5" fill="none"/></g></g></g><g id="g582"><g id="g584" clip-path="url(#clipPath586)"><g id="g590" transform="translate(925.66 933.58)"><path id="path592" d="m0 0h37.476c16.631 0 30.114-13.483 30.114-30.114v-65.318h-97.704v65.318c0 16.631 13.482 30.114 30.114 30.114" fill="#ef6e65"/></g><g id="g594" transform="translate(925.66 933.58)"><path id="path596" d="m0 0h37.476c16.631 0 30.114-13.483 30.114-30.114v-65.318h-97.704v65.318c0 16.631 13.482 30.114 30.114 30.114z" stroke="#465f81" stroke-miterlimit="10" stroke-width="5" fill="none"/></g></g></g><g id="g598"><g id="g600" clip-path="url(#clipPath602)"><g id="g606" transform="translate(978.7 966.98)"><path id="path608" d="m0 0c0-18.55-15.038-33.587-33.587-33.587-18.55 0-33.588 15.037-33.588 33.587s15.038 33.587 33.588 33.587c18.549 0 33.587-15.037 33.587-33.587" fill="#fdd26a"/></g><g id="g610" transform="translate(978.7 966.98)"><path id="path612" stroke-linejoin="round" d="m0 0c0-18.55-15.038-33.587-33.587-33.587-18.55 0-33.588 15.037-33.588 33.587s15.038 33.587 33.588 33.587c18.549 0 33.587-15.037 33.587-33.587z" stroke="#465f81" stroke-linecap="round" stroke-miterlimit="10" stroke-width="5" fill="none"/></g><g id="g614" transform="translate(1036.5 943.62)"><path id="path616" stroke-linejoin="round" d="m0 0c0-50.469-40.914-91.383-91.383-91.383s-91.383 40.914-91.383 91.383 40.914 91.383 91.383 91.383c50.473 0 91.387-40.914 91.387-91.383z" stroke="#465f81" stroke-linecap="round" stroke-miterlimit="10" stroke-width="5" fill="none"/></g><g id="g618" transform="translate(912.9 976.47)"><path id="path620" d="m0 0h64.435s-29.593 52.196-64.435 0" fill="#465f81"/></g><g id="g622" transform="translate(912.9 976.47)"><path id="path624" stroke-linejoin="round" d="m0 0h64.435s-29.593 52.196-64.435 0z" stroke="#465f81" stroke-linecap="round" stroke-miterlimit="22.926" stroke-width="5" fill="none"/></g><g id="g626" transform="translate(917.08 932.58)"><path id="path628" d="m0 0-5.653-3.681v38.056l3.207-23.07 10.531-7.493-8.085-3.812z" fill="#465f81"/></g><g id="g630" transform="translate(917.08 932.58)"><path id="path632" stroke-linejoin="round" d="m0 0-5.653-3.681v38.056l3.207-23.07 10.531-7.493-8.085-3.812z" stroke="#465f81" stroke-linecap="round" stroke-miterlimit="22.926" stroke-width="5" fill="none"/></g><g id="g634" transform="translate(973.16 932.58)"><path id="path636" d="m0 0 5.653-3.681v36.841l-3.421-14.969-11.341-13.974 9.109-4.217z" fill="#465f81"/></g><g id="g638" transform="translate(973.16 932.58)"><path id="path640" stroke-linejoin="round" d="m0 0 5.653-3.681v36.841l-3.421-14.969-11.341-13.974 9.109-4.217z" stroke="#465f81" stroke-linecap="round" stroke-miterlimit="22.926" stroke-width="5" fill="none"/></g><g id="g642" transform="translate(1327.8 262.39)"><path id="path644" d="m0 0c0-50.469-40.914-91.383-91.383-91.383s-91.383 40.914-91.383 91.383 40.914 91.383 91.383 91.383c50.473 0 91.387-40.914 91.387-91.383" fill="#dbf9ff"/></g><g id="g646" transform="translate(1327.8 262.39)"><path id="path648" stroke-linejoin="round" d="m0 0c0-50.469-40.914-91.383-91.383-91.383s-91.383 40.914-91.383 91.383 40.914 91.383 91.383 91.383c50.473 0 91.387-40.914 91.387-91.383z" stroke="#465f81" stroke-linecap="round" stroke-miterlimit="22.926" stroke-width="5" fill="none"/></g></g></g><g id="g650"><g id="g652" clip-path="url(#clipPath654)"><g id="g658" transform="translate(1217 252.35)"><path id="path660" d="m0 0h37.476c16.631 0 30.114-13.483 30.114-30.114v-65.318h-97.704v65.318c0 16.631 13.482 30.114 30.114 30.114" fill="#e8a541"/></g><g id="g662" transform="translate(1217 252.35)"><path id="path664" stroke-linejoin="round" d="m0 0h37.476c16.631 0 30.114-13.483 30.114-30.114v-65.318h-97.704v65.318c0 16.631 13.482 30.114 30.114 30.114z" stroke="#465f81" stroke-linecap="round" stroke-miterlimit="22.926" stroke-width="5" fill="none"/></g></g></g><g id="g666"><g id="g668" clip-path="url(#clipPath670)"><g id="g674" transform="translate(1270 285.75)"><path id="path676" d="m0 0c0-18.55-15.037-33.587-33.587-33.587s-33.588 15.037-33.588 33.587 15.038 33.587 33.588 33.587 33.587-15.037 33.587-33.587" fill="#fdd26a"/></g><g id="g678" transform="translate(1270 285.75)"><path id="path680" stroke-linejoin="round" d="m0 0c0-18.55-15.037-33.587-33.587-33.587s-33.588 15.037-33.588 33.587 15.038 33.587 33.588 33.587 33.587-15.037 33.587-33.587z" stroke="#465f81" stroke-linecap="round" stroke-miterlimit="10" stroke-width="5" fill="none"/></g><g id="g682" transform="translate(1327.8 262.39)"><path id="path684" stroke-linejoin="round" d="m0 0c0-50.469-40.914-91.383-91.383-91.383s-91.383 40.914-91.383 91.383 40.914 91.383 91.383 91.383c50.473 0 91.387-40.914 91.387-91.383z" stroke="#465f81" stroke-linecap="round" stroke-miterlimit="10" stroke-width="5" fill="none"/></g><g id="g686" transform="translate(1204.2 295.24)"><path id="path688" d="m0 0h64.435s-29.593 52.196-64.435 0" fill="#465f81"/></g><g id="g690" transform="translate(1204.2 295.24)"><path id="path692" stroke-linejoin="round" d="m0 0h64.435s-29.593 52.196-64.435 0z" stroke="#465f81" stroke-linecap="round" stroke-miterlimit="22.926" stroke-width="5" fill="none"/></g><g id="g694" transform="translate(1208.4 251.36)"><path id="path696" d="m0 0-5.653-3.681v38.056l3.207-23.07 10.531-7.493-8.085-3.812z" fill="#465f81"/></g><g id="g698" transform="translate(1208.4 251.36)"><path id="path700" stroke-linejoin="round" d="m0 0-5.653-3.681v38.056l3.207-23.07 10.531-7.493-8.085-3.812z" stroke="#465f81" stroke-linecap="round" stroke-miterlimit="22.926" stroke-width="5" fill="none"/></g><g id="g702" transform="translate(1264.5 251.36)"><path id="path704" d="m0 0 5.653-3.681v36.841l-3.421-14.969-11.341-13.974 9.109-4.217z" fill="#465f81"/></g><g id="g706" transform="translate(1264.5 251.36)"><path id="path708" stroke-linejoin="round" d="m0 0 5.653-3.681v36.841l-3.421-14.969-11.341-13.974 9.109-4.217z" stroke="#465f81" stroke-linecap="round" stroke-miterlimit="22.926" stroke-width="5" fill="none"/></g><g id="g710" transform="translate(1327.8 262.39)"><path id="path712" d="m0 0c0-50.469-40.914-91.383-91.383-91.383s-91.383 40.914-91.383 91.383c0 27.767 12.384 52.641 31.93 69.401 36.67 0 85.764-1.179 120.25-1.179 18.774-16.736 30.59-41.099 30.59-68.222" fill="#a6ccd6"/></g><g id="g714" transform="translate(1327.8 262.39)"><path id="path716" stroke-linejoin="round" d="m0 0c0-50.469-40.914-91.383-91.383-91.383s-91.383 40.914-91.383 91.383c0 27.767 12.384 52.641 31.93 69.401 36.67 0 85.764-1.179 120.25-1.179 18.774-16.736 30.59-41.099 30.59-68.222z" stroke="#465f81" stroke-linecap="round" stroke-miterlimit="22.926" stroke-width="5" fill="none"/></g><g id="g718" transform="translate(1320.9 824.61)"><path id="path720" d="m0 0c0-50.469-40.914-91.383-91.383-91.383s-91.383 40.914-91.383 91.383c0 7.816 0.981 15.404 2.828 22.645 29.503 0 159.34-0.044 177.12-0.044 1.843-7.229 2.82-14.801 2.82-22.601" fill="#a6ccd6"/></g><g id="g722" transform="translate(1320.9 824.61)"><path id="path724" stroke-linejoin="round" d="m0 0c0-50.469-40.914-91.383-91.383-91.383s-91.383 40.914-91.383 91.383c0 7.816 0.981 15.404 2.828 22.645 29.503 0 159.34-0.044 177.12-0.044 1.843-7.229 2.82-14.801 2.82-22.601z" stroke="#465f81" stroke-linecap="round" stroke-miterlimit="22.926" stroke-width="5" fill="none"/></g><g id="g726" transform="translate(740.53 237.14)"><path id="path728" d="m0 0c-10.956-38.188-46.14-66.132-87.849-66.132-38.623 0-71.649 23.96-85.026 57.827-1.328 3.363-2.463 6.824-3.39 10.368 41.24 0 142.24-2.063 176.27-2.063" fill="#a6ccd6"/></g><g id="g730" transform="translate(740.53 237.14)"><path id="path732" stroke-linejoin="round" d="m0 0c-10.956-38.188-46.14-66.132-87.849-66.132-38.623 0-71.649 23.96-85.026 57.827-1.328 3.363-2.463 6.824-3.39 10.368 41.24 0 142.24-2.063 176.27-2.063z" stroke="#465f81" stroke-linecap="round" stroke-miterlimit="22.926" stroke-width="5" fill="none"/></g><g id="g734" transform="translate(1035.2 138.22)"><path id="path736" d="m0 0c0-50.469-40.913-91.383-91.383-91.383-50.469 0-91.383 40.914-91.383 91.383 0 16.549 4.399 32.071 12.092 45.46 31.656 0 113.61-0.454 158.84-0.454 7.54-13.285 11.84-28.643 11.84-45.006" fill="#a6ccd6"/></g><g id="g738" transform="translate(1035.2 138.22)"><path id="path740" stroke-linejoin="round" d="m0 0c0-50.469-40.913-91.383-91.383-91.383-50.469 0-91.383 40.914-91.383 91.383 0 16.549 4.399 32.071 12.092 45.46 31.656 0 113.61-0.454 158.84-0.454 7.54-13.285 11.84-28.643 11.84-45.006z" stroke="#465f81" stroke-linecap="round" stroke-miterlimit="22.926" stroke-width="5" fill="none"/></g></g></g><text id="text742" font-weight="bold" transform="matrix(1 0 0 -1 1176 241.58)" font-size="56.85px" font-family="&apos;Gotham Pro&apos;" fill="#ffffff"><tspan id="tspan744" y="0" x="0 37.634701 79.135201">90%</tspan><tspan id="tspan746" y="-545.36206" x="-4.1500502 30.187349 65.604897">72%</tspan></text>
<text id="text748" font-weight="bold" transform="matrix(1 0 0 -1 603.16 192.64)" font-size="44.858px" font-family="&apos;Gotham Pro&apos;" fill="#ffffff"><tspan id="tspan750" y="0" x="0 27.856693 60.602886">30%</tspan></text>
<text id="text752" font-weight="bold" transform="matrix(1 0 0 -1 883.11 114)" font-size="56.85px" font-family="&apos;Gotham Pro&apos;" fill="#ffffff"><tspan id="tspan754" y="0" x="0 35.815498 74.985153">84%</tspan></text>
<g id="g756"><g id="g758" clip-path="url(#clipPath760)"><g id="g764" transform="translate(743.07 815.41)"><path id="path766" d="m0 0c0-50.469-40.914-91.383-91.383-91.383s-91.383 40.914-91.383 91.383c0 16.549 4.399 32.071 12.092 45.46 31.656 0 113.61-0.454 158.84-0.454 7.54-13.285 11.84-28.643 11.84-45.006" fill="#a6ccd6"/></g><g id="g768" transform="translate(743.07 815.41)"><path id="path770" stroke-linejoin="round" d="m0 0c0-50.469-40.914-91.383-91.383-91.383s-91.383 40.914-91.383 91.383c0 16.549 4.399 32.071 12.092 45.46 31.656 0 113.61-0.454 158.84-0.454 7.54-13.285 11.84-28.643 11.84-45.006z" stroke="#465f81" stroke-linecap="round" stroke-miterlimit="22.926" stroke-width="5" fill="none"/></g></g></g><text id="text772" font-weight="bold" transform="matrix(1 0 0 -1 591.96 791.19)" font-size="56.85px" font-family="&apos;Gotham Pro&apos;" fill="#ffffff"><tspan id="tspan774" y="0" x="0 35.815498 77.316002">80%</tspan></text>
<g id="g776"><g id="g778" clip-path="url(#clipPath780)"><g id="g784" transform="translate(1439.9 540.3)"><path id="path786" d="m0 0c0-50.469-40.914-91.383-91.383-91.383s-91.383 40.914-91.383 91.383h182.77z" fill="#a6ccd6"/></g><g id="g788" transform="translate(1439.9 540.3)"><path id="path790" stroke-linejoin="round" d="m0 0c0-50.469-40.914-91.383-91.383-91.383s-91.383 40.914-91.383 91.383h182.77z" stroke="#465f81" stroke-linecap="round" stroke-miterlimit="22.926" stroke-width="5" fill="none"/></g><g id="g792" transform="translate(632.54 540.3)"><path id="path794" d="m0 0c0-50.469-40.914-91.383-91.383-91.383s-91.383 40.914-91.383 91.383c0 3.975 0.254 7.89 0.746 11.731s1.223 7.607 2.177 11.283c40.801 0 133.8-0.005 176.92-0.005 0.509-1.964 0.955-3.953 1.334-5.965 1.041-5.522 1.586-11.219 1.586-17.044" fill="#a6ccd6"/></g><g id="g796" transform="translate(632.54 540.3)"><path id="path798" stroke-linejoin="round" d="m0 0c0-50.469-40.914-91.383-91.383-91.383s-91.383 40.914-91.383 91.383c0 3.975 0.254 7.89 0.746 11.731s1.223 7.607 2.177 11.283c40.801 0 133.8-0.005 176.92-0.005 0.509-1.964 0.955-3.953 1.334-5.965 1.041-5.522 1.586-11.219 1.586-17.044z" stroke="#465f81" stroke-linecap="round" stroke-miterlimit="22.926" stroke-width="5" fill="none"/></g><g id="g800" transform="translate(1036.5 943.62)"><path id="path802" d="m0 0c0-50.469-40.914-91.383-91.383-91.383s-91.383 40.914-91.383 91.383 40.914 91.383 91.383 91.383c50.473 0 91.387-40.914 91.387-91.383" fill="#a6ccd6"/></g><g id="g804" transform="translate(1036.5 943.62)"><path id="path806" stroke-linejoin="round" d="m0 0c0-50.469-40.914-91.383-91.383-91.383s-91.383 40.914-91.383 91.383 40.914 91.383 91.383 91.383c50.473 0 91.387-40.914 91.387-91.383z" stroke="#465f81" stroke-linecap="round" stroke-miterlimit="22.926" stroke-width="5" fill="none"/></g></g></g><text id="text808" font-weight="bold" transform="matrix(1 0 0 -1 478.79 499.67)" font-size="56.85px" font-family="&apos;Gotham Pro&apos;" fill="#ffffff"><tspan id="tspan810" y="0" x="0 37.634701 73.450203">65%</tspan><tspan id="tspan812" y="12.79125" x="806.87207 842.68756 884.18805">50%</tspan><tspan id="tspan814" y="-423.19141" x="390.7869 414.77759 456.27811 497.77859">100%</tspan></text>
</g></svg>
