<?xml version="1.0" encoding="utf-8"?>
<!-- Generator: Adobe Illustrator 16.0.0, SVG Export Plug-In . SVG Version: 6.00 Build 0)  -->
<!DOCTYPE svg PUBLIC "-//W3C//DTD SVG 1.1//EN" "http://www.w3.org/Graphics/SVG/1.1/DTD/svg11.dtd">
<svg version="1.1" id="Layer_1" xmlns="http://www.w3.org/2000/svg" xmlns:xlink="http://www.w3.org/1999/xlink" x="0px" y="0px"
	 width="88px" height="88px" viewBox="0 0 88 88" enable-background="new 0 0 88 88" xml:space="preserve">
<g>
	
		<path fill="#DBF9FF" stroke="#536B8B" stroke-width="2.126" stroke-linecap="round" stroke-linejoin="round" stroke-miterlimit="22.9256" d="
		M43.999,0.782L43.999,0.782c23.771,0,43.22,19.447,43.22,43.218l0,0c0,23.77-19.449,43.218-43.22,43.218l0,0
		C20.229,87.218,0.781,67.77,0.781,44l0,0C0.781,20.229,20.229,0.782,43.999,0.782z"/>
	
		<rect x="18.742" y="26.55" fill="#96A0BB" stroke="#536B8B" stroke-width="2.126" stroke-linecap="round" stroke-linejoin="round" stroke-miterlimit="22.9256" width="50.516" height="32.366"/>
	
		<path fill="#96A0BB" stroke="#536B8B" stroke-width="2.126" stroke-linecap="round" stroke-linejoin="round" stroke-miterlimit="22.9256" d="
		M13.251,58.916h61.497v2.247c0,1.235-1.01,2.246-2.246,2.246H15.497c-1.235,0-2.246-1.011-2.246-2.246V58.916z"/>
	
		<rect x="18.742" y="30.035" fill="#A2BAF0" stroke="#536B8B" stroke-width="2.126" stroke-linecap="round" stroke-linejoin="round" stroke-miterlimit="22.9256" width="50.516" height="28.881"/>
	<rect x="45.275" y="31.183" fill="#FFFFFF" width="22.832" height="26.575"/>
	
		<line fill="none" stroke="#FDD26A" stroke-width="2.126" stroke-linecap="square" stroke-linejoin="bevel" stroke-miterlimit="22.9256" x1="34.698" y1="36.542" x2="40.24" y2="36.542"/>
	
		<line fill="none" stroke="#FFFFFF" stroke-width="2.126" stroke-linecap="square" stroke-linejoin="bevel" stroke-miterlimit="22.9256" x1="24.307" y1="36.542" x2="30.707" y2="36.542"/>
	
		<line fill="none" stroke="#FFFFFF" stroke-width="2.126" stroke-linecap="square" stroke-linejoin="bevel" stroke-miterlimit="22.9256" x1="24.307" y1="41.807" x2="34.87" y2="41.807"/>
	
		<line fill="none" stroke="#719DC7" stroke-width="2.126" stroke-linecap="square" stroke-linejoin="bevel" stroke-miterlimit="22.9256" x1="24.307" y1="47.072" x2="39.365" y2="47.072"/>
	
		<line fill="none" stroke="#FDD26A" stroke-width="2.126" stroke-linecap="square" stroke-linejoin="bevel" stroke-miterlimit="22.9256" x1="37.175" y1="52.338" x2="39.528" y2="52.338"/>
	
		<line fill="none" stroke="#FFFFFF" stroke-width="2.126" stroke-linecap="square" stroke-linejoin="bevel" stroke-miterlimit="22.9256" x1="24.307" y1="52.338" x2="33.072" y2="52.338"/>
	
		<circle fill="none" stroke="#EF6E65" stroke-width="1.4173" stroke-linecap="square" stroke-linejoin="bevel" stroke-miterlimit="22.9256" cx="56.691" cy="44.439" r="7.406"/>
	
		<path fill="none" stroke="#EF6E65" stroke-width="1.4173" stroke-linecap="square" stroke-linejoin="bevel" stroke-miterlimit="22.9256" d="
		M58.541,47.051c-0.551,0.4-1.217,0.617-1.9,0.617c-1.781,0-3.227-1.445-3.227-3.229c0-1.782,1.445-3.228,3.227-3.228
		c0.541,0,1.072,0.136,1.547,0.394"/>
</g>
</svg>
