<svg id="Layer_1" xmlns="http://www.w3.org/2000/svg" xmlns:xlink="http://www.w3.org/1999/xlink" viewBox="0 0 600 465"><style>.st0{fill-rule:evenodd;clip-rule:evenodd;fill:#ECEDF6;stroke:#CBD4DD;stroke-width:2.2203;stroke-linecap:round;stroke-linejoin:round;stroke-miterlimit:22.9256;} .st1{fill-rule:evenodd;clip-rule:evenodd;fill:#DBF9FF;stroke:#536B8B;stroke-width:2.135;stroke-linecap:round;stroke-linejoin:round;stroke-miterlimit:22.9256;} .st2{fill-rule:evenodd;clip-rule:evenodd;fill:#E9F4F4;} .st3{fill-rule:evenodd;clip-rule:evenodd;fill:#BAD1D1;} .st4{fill-rule:evenodd;clip-rule:evenodd;fill:#DBE9F6;} .st5{clip-path:url(#SVGID_2_);} .st6{fill-rule:evenodd;clip-rule:evenodd;fill:none;stroke:#B8C8D4;stroke-width:2.2203;stroke-linecap:square;stroke-miterlimit:22.9256;} .st7{fill-rule:evenodd;clip-rule:evenodd;fill:#B8C8D4;} .st8{fill-rule:evenodd;clip-rule:evenodd;fill:none;stroke:#536B8B;stroke-width:2.2203;stroke-linecap:round;stroke-linejoin:round;stroke-miterlimit:22.9256;} .st9{fill-rule:evenodd;clip-rule:evenodd;fill:none;stroke:#536B8B;stroke-width:2.135;stroke-linecap:round;stroke-linejoin:round;stroke-miterlimit:22.9256;} .st10{fill:#536B8B;} .st11{fill-rule:evenodd;clip-rule:evenodd;fill:#FDD26A;stroke:#536B8B;stroke-width:2.135;stroke-linecap:round;stroke-linejoin:round;stroke-miterlimit:22.9256;} .st12{fill-rule:evenodd;clip-rule:evenodd;fill:#96A0BB;stroke:#536B8B;stroke-width:2.135;stroke-linecap:square;stroke-miterlimit:22.9256;} .st13{fill-rule:evenodd;clip-rule:evenodd;fill:#96A0BB;stroke:#536B8B;stroke-width:2.135;stroke-linecap:round;stroke-linejoin:round;stroke-miterlimit:22.9256;} .st14{fill-rule:evenodd;clip-rule:evenodd;fill:#7084A3;} .st15{fill-rule:evenodd;clip-rule:evenodd;fill:#FFFFFF;stroke:#536B8B;stroke-width:2.135;stroke-linecap:square;stroke-miterlimit:22.9256;} .st16{fill-rule:evenodd;clip-rule:evenodd;fill:#FFFFFF;} .st17{fill-rule:evenodd;clip-rule:evenodd;fill:#F1877A;} .st18{fill-rule:evenodd;clip-rule:evenodd;fill:#536B8B;} .st19{fill-rule:evenodd;clip-rule:evenodd;fill:#A2BAF0;} .st20{fill-rule:evenodd;clip-rule:evenodd;fill:none;stroke:#536B8B;stroke-width:2.135;stroke-linecap:square;stroke-miterlimit:22.9256;} .st21{fill-rule:evenodd;clip-rule:evenodd;fill:#A2BAF0;stroke:#536B8B;stroke-width:2.135;stroke-linecap:round;stroke-linejoin:round;stroke-miterlimit:22.9256;} .st22{fill-rule:evenodd;clip-rule:evenodd;fill:#C7D5F6;stroke:#536B8B;stroke-width:2.135;stroke-linecap:round;stroke-linejoin:round;stroke-miterlimit:22.9256;} .st23{fill-rule:evenodd;clip-rule:evenodd;fill:#FFFFFF;stroke:#536B8B;stroke-width:2.135;stroke-linecap:round;stroke-linejoin:round;stroke-miterlimit:22.9256;} .st24{fill-rule:evenodd;clip-rule:evenodd;fill:#3EABCC;} .st25{fill-rule:evenodd;clip-rule:evenodd;fill:#89A7C0;} .st26{fill:#DBE9F6;} .st27{fill-rule:evenodd;clip-rule:evenodd;fill:#DBE9F6;stroke:#536B8B;stroke-width:2.135;stroke-linecap:square;stroke-miterlimit:22.9256;} .st28{fill-rule:evenodd;clip-rule:evenodd;fill:#E9F4F4;stroke:#536B8B;stroke-width:2.135;stroke-linecap:square;stroke-miterlimit:22.9256;} .st29{fill-rule:evenodd;clip-rule:evenodd;fill:#B7BDCD;} .st30{fill-rule:evenodd;clip-rule:evenodd;fill:#B1C1D0;} .st31{fill-rule:evenodd;clip-rule:evenodd;fill:#7B859F;} .st32{fill-rule:evenodd;clip-rule:evenodd;fill:none;stroke:#ECEDF6;stroke-width:2.2203;stroke-linecap:round;stroke-linejoin:round;stroke-miterlimit:22.9256;} .st33{fill-rule:evenodd;clip-rule:evenodd;fill:#FDD26A;} .st34{fill-rule:evenodd;clip-rule:evenodd;fill:#00A9D4;stroke:#536B8B;stroke-width:2.135;stroke-linecap:round;stroke-linejoin:round;stroke-miterlimit:22.9256;} .st35{fill-rule:evenodd;clip-rule:evenodd;fill:#FDD26A;stroke:#536B8B;stroke-width:2.135;stroke-linecap:square;stroke-miterlimit:22.9256;} .st36{fill-rule:evenodd;clip-rule:evenodd;fill:#F1877A;stroke:#536B8B;stroke-width:2.135;stroke-linecap:square;stroke-miterlimit:22.9256;} .st37{fill-rule:evenodd;clip-rule:evenodd;fill:#A2BAF0;stroke:#536B8B;stroke-width:2.135;stroke-linecap:square;stroke-miterlimit:22.9256;} .st38{fill-rule:evenodd;clip-rule:evenodd;fill:none;stroke:#89A7C0;stroke-width:4.27;stroke-linecap:square;stroke-miterlimit:22.9256;}</style><path class="st0" d="M301.7 136.2c8.4 0 15.6 5.6 18 13.2 1-.3 2.1-.4 3.2-.4 6 0 11 4.5 11.7 10.3.3 0 .7-.1 1.1-.1 4.4 0 8 3.6 8 8s-3.6 8-8 8H278.9c-3.2 0-5.8-2.7-5.8-5.9V163c-.1-.4-.1-.9-.1-1.3 0-5.7 4.6-10.4 10.3-10.5 1.7-8.6 9.3-15 18.4-15z"/><path class="st1" d="M432.9 72.2c23.9 0 43.4 19.5 43.4 43.4S456.8 159 432.9 159s-43.4-19.5-43.4-43.4 19.6-43.4 43.4-43.4z"/><path class="st2" d="M438.8 115.5h-11.2v23.3c0 2.3-1.9 4.1-4.1 4.1H443c-2.3 0-4.1-1.9-4.1-4.1v-23.3h-.1zm-11.2 0h11.2-11.2z"/><path class="st3" d="M427.6 117.4h11.2v16.4h-11.2z"/><path class="st0" d="M172.1 165.7c19.3 0 35.7 12.7 41.1 30.3 2.3-.7 4.8-1 7.4-1 13.7 0 25.1 10.2 26.8 23.5.8-.1 1.6-.2 2.4-.2 10.1 0 18.4 8.2 18.4 18.4S260 255 249.9 255H120c-7.4-.1-13.4-6.1-13.4-13.5V227c-.1-1-.2-2-.2-3 0-13.1 10.5-23.7 23.5-24 4.1-19.6 21.5-34.3 42.2-34.3zM421.4 177.2c14.2 0 26.2 9.4 30.2 22.2 1.7-.5 3.5-.7 5.4-.7 10.1 0 18.4 7.5 19.7 17.2.6-.1 1.2-.1 1.8-.1 7.5 0 13.5 6 13.5 13.5s-6 13.5-13.5 13.5h-95.3c-5.4-.1-9.8-4.5-9.8-9.9v-10.7c-.1-.7-.1-1.5-.1-2.2 0-9.6 7.7-17.4 17.3-17.6 2.8-14.3 15.6-25.2 30.8-25.2z"/><path class="st4" d="M273 167.7c39 0 72.1 25.7 83.1 61.2 4.7-1.3 9.7-2 14.9-2 27.8 0 50.7 20.7 54.3 47.5 1.6-.2 3.2-.3 4.9-.3 20.5 0 37.1 16.6 37.1 37.1s-16.6 37.1-37.1 37.1H167.7c-14.9-.2-27-12.4-27-27.4V291.4c-.2-2-.4-4-.4-6.1 0-26.4 21.2-47.9 47.5-48.4 8.2-39.5 43.3-69.2 85.2-69.2z"/><defs><path id="SVGID_1_" d="M273 167.7c39 0 72.1 25.7 83.1 61.2 4.7-1.3 9.7-2 14.9-2 27.8 0 50.7 20.7 54.3 47.5 1.6-.2 3.2-.3 4.9-.3 20.5 0 37.1 16.6 37.1 37.1s-16.6 37.1-37.1 37.1H167.7c-14.9-.2-27-12.4-27-27.4V291.4c-.2-2-.4-4-.4-6.1 0-26.4 21.2-47.9 47.5-48.4 8.2-39.5 43.3-69.2 85.2-69.2z"/></defs><clipPath id="SVGID_2_"><use xlink:href="#SVGID_1_" overflow="visible"/></clipPath><g class="st5"><path class="st6" d="M153.7 253.5h38.8V342h-38.8zM153.7 297.7h38.9M153.7 312.5h38.9M153.7 253.5h38.9M153.7 327.2h38.9M153.7 342h38.9M153.7 283h38.9M153.7 268.2h38.9"/><circle class="st7" cx="161.5" cy="260.8" r="2.8"/><path class="st6" d="M170.1 259.1v3.1M175.1 259.1v3.1M180.1 259.1v3.1M185.1 259.1v3.1"/><circle class="st7" cx="161.5" cy="275.6" r="2.8"/><path class="st6" d="M170.1 273.9v3M175.1 273.9v3M180.1 273.9v3M185.1 273.9v3"/><g><circle class="st7" cx="161.5" cy="290.3" r="2.8"/><path class="st6" d="M170.1 288.6v3.1M175.1 288.6v3.1M180.1 288.6v3.1M185.1 288.6v3.1"/></g><g><circle class="st7" cx="161.5" cy="305.1" r="2.8"/><path class="st6" d="M170.1 303.4v3.1M175.1 303.4v3.1M180.1 303.4v3.1M185.1 303.4v3.1"/></g><g><circle class="st7" cx="161.5" cy="319.8" r="2.8"/><path class="st6" d="M170.1 318.1v3.1M175.1 318.1v3.1M180.1 318.1v3.1M185.1 318.1v3.1"/></g><g><circle class="st7" cx="161.5" cy="334.6" r="2.8"/><path class="st6" d="M170.1 332.9v3.1M175.1 332.9v3.1M180.1 332.9v3.1M185.1 332.9v3.1"/></g><g><path class="st6" d="M105.3 253.5h38.8V342h-38.8zM105.3 297.7h38.9M105.3 312.5h38.9M105.3 253.5h38.9M105.3 327.2h38.9M105.3 342h38.9M105.3 283h38.9M105.3 268.2h38.9"/><circle class="st7" cx="113.1" cy="260.8" r="2.8"/><path class="st6" d="M121.6 259.1v3.1M126.7 259.1v3.1M131.7 259.1v3.1M136.7 259.1v3.1"/><circle class="st7" cx="113.1" cy="275.6" r="2.8"/><path class="st6" d="M121.6 273.9v3M126.7 273.9v3M131.7 273.9v3M136.7 273.9v3"/><g><circle class="st7" cx="113.1" cy="290.3" r="2.8"/><path class="st6" d="M121.6 288.6v3.1M126.7 288.6v3.1M131.7 288.6v3.1M136.7 288.6v3.1"/></g><g><circle class="st7" cx="113.1" cy="305.1" r="2.8"/><path class="st6" d="M121.6 303.4v3.1M126.7 303.4v3.1M131.7 303.4v3.1M136.7 303.4v3.1"/></g><g><circle class="st7" cx="113.1" cy="319.8" r="2.8"/><path class="st6" d="M121.6 318.1v3.1M126.7 318.1v3.1M131.7 318.1v3.1M136.7 318.1v3.1"/></g><g><circle class="st7" cx="113.1" cy="334.6" r="2.8"/><path class="st6" d="M121.6 332.9v3.1M126.7 332.9v3.1M131.7 332.9v3.1M136.7 332.9v3.1"/></g></g><g><path class="st6" d="M202.2 253.5H241V342h-38.8zM202.2 297.7H241M202.2 312.5H241M202.2 253.5H241M202.2 327.2H241M202.2 342H241M202.2 283H241M202.2 268.2H241"/><circle class="st7" cx="209.9" cy="260.8" r="2.8"/><path class="st6" d="M218.5 259.1v3.1M223.5 259.1v3.1M228.5 259.1v3.1M233.5 259.1v3.1"/><circle class="st7" cx="209.9" cy="275.6" r="2.8"/><path class="st6" d="M218.5 273.9v3M223.5 273.9v3M228.5 273.9v3M233.5 273.9v3"/><g><circle class="st7" cx="209.9" cy="290.3" r="2.8"/><path class="st6" d="M218.5 288.6v3.1M223.5 288.6v3.1M228.5 288.6v3.1M233.5 288.6v3.1"/></g><g><circle class="st7" cx="209.9" cy="305.1" r="2.8"/><path class="st6" d="M218.5 303.4v3.1M223.5 303.4v3.1M228.5 303.4v3.1M233.5 303.4v3.1"/></g><g><circle class="st7" cx="209.9" cy="319.8" r="2.8"/><path class="st6" d="M218.5 318.1v3.1M223.5 318.1v3.1M228.5 318.1v3.1M233.5 318.1v3.1"/></g><g><circle class="st7" cx="209.9" cy="334.6" r="2.8"/><path class="st6" d="M218.5 332.9v3.1M223.5 332.9v3.1M228.5 332.9v3.1M233.5 332.9v3.1"/></g></g><g><path class="st6" d="M250.6 253.5h38.8V342h-38.8zM250.6 297.7h38.8M250.6 312.5h38.8M250.6 253.5h38.8M250.6 327.2h38.8M250.6 342h38.8M250.6 283h38.8M250.6 268.2h38.8"/><circle class="st7" cx="258.3" cy="260.8" r="2.8"/><path class="st6" d="M266.9 259.1v3.1M271.9 259.1v3.1M276.9 259.1v3.1M281.9 259.1v3.1"/><circle class="st7" cx="258.3" cy="275.6" r="2.8"/><path class="st6" d="M266.9 273.9v3M271.9 273.9v3M276.9 273.9v3M281.9 273.9v3"/><g><circle class="st7" cx="258.3" cy="290.3" r="2.8"/><path class="st6" d="M266.9 288.6v3.1M271.9 288.6v3.1M276.9 288.6v3.1M281.9 288.6v3.1"/></g><g><circle class="st7" cx="258.3" cy="305.1" r="2.8"/><path class="st6" d="M266.9 303.4v3.1M271.9 303.4v3.1M276.9 303.4v3.1M281.9 303.4v3.1"/></g><g><circle class="st7" cx="258.3" cy="319.8" r="2.8"/><path class="st6" d="M266.9 318.1v3.1M271.9 318.1v3.1M276.9 318.1v3.1M281.9 318.1v3.1"/></g><g><circle class="st7" cx="258.3" cy="334.6" r="2.8"/><path class="st6" d="M266.9 332.9v3.1M271.9 332.9v3.1M276.9 332.9v3.1M281.9 332.9v3.1"/></g></g><g><path class="st6" d="M153.7 151h38.8v88.5h-38.8zM153.7 195.3h38.9M153.7 210h38.9M153.7 151h38.9M153.7 224.8h38.9M153.7 239.5h38.9M153.7 180.5h38.9M153.7 165.8h38.9"/><circle class="st7" cx="161.5" cy="158.4" r="2.8"/><path class="st6" d="M170.1 156.7v3M175.1 156.7v3M180.1 156.7v3M185.1 156.7v3"/><circle class="st7" cx="161.5" cy="173.1" r="2.8"/><path class="st6" d="M170.1 171.4v3.1M175.1 171.4v3.1M180.1 171.4v3.1M185.1 171.4v3.1"/><g><circle class="st7" cx="161.5" cy="187.9" r="2.8"/><path class="st6" d="M170.1 186.2v3M175.1 186.2v3M180.1 186.2v3M185.1 186.2v3"/></g><g><circle class="st7" cx="161.5" cy="202.6" r="2.8"/><path class="st6" d="M170.1 200.9v3.1M175.1 200.9v3.1M180.1 200.9v3.1M185.1 200.9v3.1"/></g><g><circle class="st7" cx="161.5" cy="217.4" r="2.8"/><path class="st6" d="M170.1 215.7v3.1M175.1 215.7v3.1M180.1 215.7v3.1M185.1 215.7v3.1"/></g><g><circle class="st7" cx="161.5" cy="232.1" r="2.8"/><path class="st6" d="M170.1 230.4v3.1M175.1 230.4v3.1M180.1 230.4v3.1M185.1 230.4v3.1"/></g><g><path class="st6" d="M105.3 151h38.8v88.5h-38.8zM105.3 195.3h38.9M105.3 210h38.9M105.3 151h38.9M105.3 224.8h38.9M105.3 239.5h38.9M105.3 180.5h38.9M105.3 165.8h38.9"/><circle class="st7" cx="113.1" cy="158.4" r="2.8"/><path class="st6" d="M121.6 156.7v3M126.7 156.7v3M131.7 156.7v3M136.7 156.7v3"/><circle class="st7" cx="113.1" cy="173.1" r="2.8"/><path class="st6" d="M121.6 171.4v3.1M126.7 171.4v3.1M131.7 171.4v3.1M136.7 171.4v3.1"/><g><circle class="st7" cx="113.1" cy="187.9" r="2.8"/><path class="st6" d="M121.6 186.2v3M126.7 186.2v3M131.7 186.2v3M136.7 186.2v3"/></g><g><circle class="st7" cx="113.1" cy="202.6" r="2.8"/><path class="st6" d="M121.6 200.9v3.1M126.7 200.9v3.1M131.7 200.9v3.1M136.7 200.9v3.1"/></g><g><circle class="st7" cx="113.1" cy="217.4" r="2.8"/><path class="st6" d="M121.6 215.7v3.1M126.7 215.7v3.1M131.7 215.7v3.1M136.7 215.7v3.1"/></g><g><circle class="st7" cx="113.1" cy="232.1" r="2.8"/><path class="st6" d="M121.6 230.4v3.1M126.7 230.4v3.1M131.7 230.4v3.1M136.7 230.4v3.1"/></g></g><g><path class="st6" d="M202.2 151H241v88.5h-38.8zM202.2 195.3H241M202.2 210H241M202.2 151H241M202.2 224.8H241M202.2 239.5H241M202.2 180.5H241M202.2 165.8H241"/><circle class="st7" cx="209.9" cy="158.4" r="2.8"/><path class="st6" d="M218.5 156.7v3M223.5 156.7v3M228.5 156.7v3M233.5 156.7v3"/><circle class="st7" cx="209.9" cy="173.1" r="2.8"/><path class="st6" d="M218.5 171.4v3.1M223.5 171.4v3.1M228.5 171.4v3.1M233.5 171.4v3.1"/><g><circle class="st7" cx="209.9" cy="187.9" r="2.8"/><path class="st6" d="M218.5 186.2v3M223.5 186.2v3M228.5 186.2v3M233.5 186.2v3"/></g><g><circle class="st7" cx="209.9" cy="202.6" r="2.8"/><path class="st6" d="M218.5 200.9v3.1M223.5 200.9v3.1M228.5 200.9v3.1M233.5 200.9v3.1"/></g><g><circle class="st7" cx="209.9" cy="217.4" r="2.8"/><path class="st6" d="M218.5 215.7v3.1M223.5 215.7v3.1M228.5 215.7v3.1M233.5 215.7v3.1"/></g><g><circle class="st7" cx="209.9" cy="232.1" r="2.8"/><path class="st6" d="M218.5 230.4v3.1M223.5 230.4v3.1M228.5 230.4v3.1M233.5 230.4v3.1"/></g></g><g><path class="st6" d="M250.6 151h38.8v88.5h-38.8zM250.6 195.3h38.8M250.6 210h38.8M250.6 151h38.8M250.6 224.8h38.8M250.6 239.5h38.8M250.6 180.5h38.8M250.6 165.8h38.8"/><circle class="st7" cx="258.3" cy="158.4" r="2.8"/><path class="st6" d="M266.9 156.7v3M271.9 156.7v3M276.9 156.7v3M281.9 156.7v3"/><circle class="st7" cx="258.3" cy="173.1" r="2.8"/><path class="st6" d="M266.9 171.4v3.1M271.9 171.4v3.1M276.9 171.4v3.1M281.9 171.4v3.1"/><g><circle class="st7" cx="258.3" cy="187.9" r="2.8"/><path class="st6" d="M266.9 186.2v3M271.9 186.2v3M276.9 186.2v3M281.9 186.2v3"/></g><g><circle class="st7" cx="258.3" cy="202.6" r="2.8"/><path class="st6" d="M266.9 200.9v3.1M271.9 200.9v3.1M276.9 200.9v3.1M281.9 200.9v3.1"/></g><g><circle class="st7" cx="258.3" cy="217.4" r="2.8"/><path class="st6" d="M266.9 215.7v3.1M271.9 215.7v3.1M276.9 215.7v3.1M281.9 215.7v3.1"/></g><g><circle class="st7" cx="258.3" cy="232.1" r="2.8"/><path class="st6" d="M266.9 230.4v3.1M271.9 230.4v3.1M276.9 230.4v3.1M281.9 230.4v3.1"/></g></g></g><g><path class="st6" d="M347.4 253.5h38.8V342h-38.8zM347.4 297.7h38.9M347.4 312.5h38.9M347.4 253.5h38.9M347.4 327.2h38.9M347.4 342h38.9M347.4 283h38.9M347.4 268.2h38.9"/><circle class="st7" cx="355.2" cy="260.8" r="2.8"/><path class="st6" d="M363.7 259.1v3.1M368.8 259.1v3.1M373.8 259.1v3.1M378.8 259.1v3.1"/><circle class="st7" cx="355.2" cy="275.6" r="2.8"/><path class="st6" d="M363.7 273.9v3M368.8 273.9v3M373.8 273.9v3M378.8 273.9v3"/><g><circle class="st7" cx="355.2" cy="290.3" r="2.8"/><path class="st6" d="M363.7 288.6v3.1M368.8 288.6v3.1M373.8 288.6v3.1M378.8 288.6v3.1"/></g><g><circle class="st7" cx="355.2" cy="305.1" r="2.8"/><path class="st6" d="M363.7 303.4v3.1M368.8 303.4v3.1M373.8 303.4v3.1M378.8 303.4v3.1"/></g><g><circle class="st7" cx="355.2" cy="319.8" r="2.8"/><path class="st6" d="M363.7 318.1v3.1M368.8 318.1v3.1M373.8 318.1v3.1M378.8 318.1v3.1"/></g><g><circle class="st7" cx="355.2" cy="334.6" r="2.8"/><path class="st6" d="M363.7 332.9v3.1M368.8 332.9v3.1M373.8 332.9v3.1M378.8 332.9v3.1"/></g><g><path class="st6" d="M299 253.5h38.8V342H299zM299 297.7h38.9M299 312.5h38.9M299 253.5h38.9M299 327.2h38.9M299 342h38.9M299 283h38.9M299 268.2h38.9"/><circle class="st7" cx="306.7" cy="260.8" r="2.8"/><path class="st6" d="M315.3 259.1v3.1M320.4 259.1v3.1M325.4 259.1v3.1M330.4 259.1v3.1"/><circle class="st7" cx="306.7" cy="275.6" r="2.8"/><path class="st6" d="M315.3 273.9v3M320.4 273.9v3M325.4 273.9v3M330.4 273.9v3"/><g><circle class="st7" cx="306.7" cy="290.3" r="2.8"/><path class="st6" d="M315.3 288.6v3.1M320.4 288.6v3.1M325.4 288.6v3.1M330.4 288.6v3.1"/></g><g><circle class="st7" cx="306.7" cy="305.1" r="2.8"/><path class="st6" d="M315.3 303.4v3.1M320.4 303.4v3.1M325.4 303.4v3.1M330.4 303.4v3.1"/></g><g><circle class="st7" cx="306.7" cy="319.8" r="2.8"/><path class="st6" d="M315.3 318.1v3.1M320.4 318.1v3.1M325.4 318.1v3.1M330.4 318.1v3.1"/></g><g><circle class="st7" cx="306.7" cy="334.6" r="2.8"/><path class="st6" d="M315.3 332.9v3.1M320.4 332.9v3.1M325.4 332.9v3.1M330.4 332.9v3.1"/></g></g><g><path class="st6" d="M395.8 253.5h38.8V342h-38.8zM395.8 297.7h38.9M395.8 312.5h38.9M395.8 253.5h38.9M395.8 327.2h38.9M395.8 342h38.9M395.8 283h38.9M395.8 268.2h38.9"/><circle class="st7" cx="403.6" cy="260.8" r="2.8"/><path class="st6" d="M412.2 259.1v3.1M417.2 259.1v3.1M422.2 259.1v3.1M427.2 259.1v3.1"/><circle class="st7" cx="403.6" cy="275.6" r="2.8"/><path class="st6" d="M412.2 273.9v3M417.2 273.9v3M422.2 273.9v3M427.2 273.9v3"/><g><circle class="st7" cx="403.6" cy="290.3" r="2.8"/><path class="st6" d="M412.2 288.6v3.1M417.2 288.6v3.1M422.2 288.6v3.1M427.2 288.6v3.1"/></g><g><circle class="st7" cx="403.6" cy="305.1" r="2.8"/><path class="st6" d="M412.2 303.4v3.1M417.2 303.4v3.1M422.2 303.4v3.1M427.2 303.4v3.1"/></g><g><circle class="st7" cx="403.6" cy="319.8" r="2.8"/><path class="st6" d="M412.2 318.1v3.1M417.2 318.1v3.1M422.2 318.1v3.1M427.2 318.1v3.1"/></g><g><circle class="st7" cx="403.6" cy="334.6" r="2.8"/><path class="st6" d="M412.2 332.9v3.1M417.2 332.9v3.1M422.2 332.9v3.1M427.2 332.9v3.1"/></g></g><g><path class="st6" d="M444.2 253.5H483V342h-38.8zM444.2 297.7h38.9M444.2 312.5h38.9M444.2 253.5h38.9M444.2 327.2h38.9M444.2 342h38.9M444.2 283h38.9M444.2 268.2h38.9"/><circle class="st7" cx="452" cy="260.8" r="2.8"/><path class="st6" d="M460.6 259.1v3.1M465.6 259.1v3.1M470.6 259.1v3.1M475.6 259.1v3.1"/><circle class="st7" cx="452" cy="275.6" r="2.8"/><path class="st6" d="M460.6 273.9v3M465.6 273.9v3M470.6 273.9v3M475.6 273.9v3"/><g><circle class="st7" cx="452" cy="290.3" r="2.8"/><path class="st6" d="M460.6 288.6v3.1M465.6 288.6v3.1M470.6 288.6v3.1M475.6 288.6v3.1"/></g><g><circle class="st7" cx="452" cy="305.1" r="2.8"/><path class="st6" d="M460.6 303.4v3.1M465.6 303.4v3.1M470.6 303.4v3.1M475.6 303.4v3.1"/></g><g><circle class="st7" cx="452" cy="319.8" r="2.8"/><path class="st6" d="M460.6 318.1v3.1M465.6 318.1v3.1M470.6 318.1v3.1M475.6 318.1v3.1"/></g><g><circle class="st7" cx="452" cy="334.6" r="2.8"/><path class="st6" d="M460.6 332.9v3.1M465.6 332.9v3.1M470.6 332.9v3.1M475.6 332.9v3.1"/></g></g><g><path class="st6" d="M347.4 151h38.8v88.5h-38.8zM347.4 195.3h38.9M347.4 210h38.9M347.4 151h38.9M347.4 224.8h38.9M347.4 239.5h38.9M347.4 180.5h38.9M347.4 165.8h38.9"/><circle class="st7" cx="355.2" cy="158.4" r="2.8"/><path class="st6" d="M363.7 156.7v3M368.8 156.7v3M373.8 156.7v3M378.8 156.7v3"/><circle class="st7" cx="355.2" cy="173.1" r="2.8"/><path class="st6" d="M363.7 171.4v3.1M368.8 171.4v3.1M373.8 171.4v3.1M378.8 171.4v3.1"/><g><circle class="st7" cx="355.2" cy="187.9" r="2.8"/><path class="st6" d="M363.7 186.2v3M368.8 186.2v3M373.8 186.2v3M378.8 186.2v3"/></g><g><circle class="st7" cx="355.2" cy="202.6" r="2.8"/><path class="st6" d="M363.7 200.9v3.1M368.8 200.9v3.1M373.8 200.9v3.1M378.8 200.9v3.1"/></g><g><circle class="st7" cx="355.2" cy="217.4" r="2.8"/><path class="st6" d="M363.7 215.7v3.1M368.8 215.7v3.1M373.8 215.7v3.1M378.8 215.7v3.1"/></g><g><circle class="st7" cx="355.2" cy="232.1" r="2.8"/><path class="st6" d="M363.7 230.4v3.1M368.8 230.4v3.1M373.8 230.4v3.1M378.8 230.4v3.1"/></g><g><path class="st6" d="M299 151h38.8v88.5H299zM299 195.3h38.9M299 210h38.9M299 151h38.9M299 224.8h38.9M299 239.5h38.9M299 180.5h38.9M299 165.8h38.9"/><circle class="st7" cx="306.7" cy="158.4" r="2.8"/><path class="st6" d="M315.3 156.7v3M320.4 156.7v3M325.4 156.7v3M330.4 156.7v3"/><circle class="st7" cx="306.7" cy="173.1" r="2.8"/><path class="st6" d="M315.3 171.4v3.1M320.4 171.4v3.1M325.4 171.4v3.1M330.4 171.4v3.1"/><g><circle class="st7" cx="306.7" cy="187.9" r="2.8"/><path class="st6" d="M315.3 186.2v3M320.4 186.2v3M325.4 186.2v3M330.4 186.2v3"/></g><g><circle class="st7" cx="306.7" cy="202.6" r="2.8"/><path class="st6" d="M315.3 200.9v3.1M320.4 200.9v3.1M325.4 200.9v3.1M330.4 200.9v3.1"/></g><g><circle class="st7" cx="306.7" cy="217.4" r="2.8"/><path class="st6" d="M315.3 215.7v3.1M320.4 215.7v3.1M325.4 215.7v3.1M330.4 215.7v3.1"/></g><g><circle class="st7" cx="306.7" cy="232.1" r="2.8"/><path class="st6" d="M315.3 230.4v3.1M320.4 230.4v3.1M325.4 230.4v3.1M330.4 230.4v3.1"/></g></g><g><path class="st6" d="M395.8 151h38.8v88.5h-38.8zM395.8 195.3h38.9M395.8 210h38.9M395.8 151h38.9M395.8 224.8h38.9M395.8 239.5h38.9M395.8 180.5h38.9M395.8 165.8h38.9"/><circle class="st7" cx="403.6" cy="158.4" r="2.8"/><path class="st6" d="M412.2 156.7v3M417.2 156.7v3M422.2 156.7v3M427.2 156.7v3"/><circle class="st7" cx="403.6" cy="173.1" r="2.8"/><path class="st6" d="M412.2 171.4v3.1M417.2 171.4v3.1M422.2 171.4v3.1M427.2 171.4v3.1"/><g><circle class="st7" cx="403.6" cy="187.9" r="2.8"/><path class="st6" d="M412.2 186.2v3M417.2 186.2v3M422.2 186.2v3M427.2 186.2v3"/></g><g><circle class="st7" cx="403.6" cy="202.6" r="2.8"/><path class="st6" d="M412.2 200.9v3.1M417.2 200.9v3.1M422.2 200.9v3.1M427.2 200.9v3.1"/></g><g><circle class="st7" cx="403.6" cy="217.4" r="2.8"/><path class="st6" d="M412.2 215.7v3.1M417.2 215.7v3.1M422.2 215.7v3.1M427.2 215.7v3.1"/></g><g><circle class="st7" cx="403.6" cy="232.1" r="2.8"/><path class="st6" d="M412.2 230.4v3.1M417.2 230.4v3.1M422.2 230.4v3.1M427.2 230.4v3.1"/></g></g><g><path class="st6" d="M444.2 151H483v88.5h-38.8zM444.2 195.3h38.9M444.2 210h38.9M444.2 151h38.9M444.2 224.8h38.9M444.2 239.5h38.9M444.2 180.5h38.9M444.2 165.8h38.9"/><circle class="st7" cx="452" cy="158.4" r="2.8"/><path class="st6" d="M460.6 156.7v3M465.6 156.7v3M470.6 156.7v3M475.6 156.7v3"/><circle class="st7" cx="452" cy="173.1" r="2.8"/><path class="st6" d="M460.6 171.4v3.1M465.6 171.4v3.1M470.6 171.4v3.1M475.6 171.4v3.1"/><g><circle class="st7" cx="452" cy="187.9" r="2.8"/><path class="st6" d="M460.6 186.2v3M465.6 186.2v3M470.6 186.2v3M475.6 186.2v3"/></g><g><circle class="st7" cx="452" cy="202.6" r="2.8"/><path class="st6" d="M460.6 200.9v3.1M465.6 200.9v3.1M470.6 200.9v3.1M475.6 200.9v3.1"/></g><g><circle class="st7" cx="452" cy="217.4" r="2.8"/><path class="st6" d="M460.6 215.7v3.1M465.6 215.7v3.1M470.6 215.7v3.1M475.6 215.7v3.1"/></g><g><circle class="st7" cx="452" cy="232.1" r="2.8"/><path class="st6" d="M460.6 230.4v3.1M465.6 230.4v3.1M470.6 230.4v3.1M475.6 230.4v3.1"/></g></g></g></g></g><path class="st8" d="M273 167.7c39 0 72.1 25.7 83.1 61.2 4.7-1.3 9.7-2 14.9-2 27.8 0 50.7 20.7 54.3 47.5 1.6-.2 3.2-.3 4.9-.3 20.5 0 37.1 16.6 37.1 37.1s-16.6 37.1-37.1 37.1H167.7c-14.9-.2-27-12.4-27-27.4V291.4c-.2-2-.4-4-.4-6.1 0-26.4 21.2-47.9 47.5-48.4 8.2-39.5 43.3-69.2 85.2-69.2z"/><path class="st9" d="M156.8 288.6c0-11.1 4.3-21.2 11.2-28.8m15.1-10.5c4.7-1.9 9.9-3.1 15.3-3.2 4.2-20.3 16.5-37.7 33.4-48.6m19.1-8.8c7.1-2.2 14.6-3.3 22.3-3.3"/><path class="st10" d="M189.6 221.8h-4.3c-.6 0-1.1-.5-1.1-1.1 0-.6.5-1.1 1.1-1.1h4.3c.6 0 1.1.5 1.1 1.1 0 .6-.5 1.1-1.1 1.1zm-8.5 0h-4.3c-.6 0-1.1-.5-1.1-1.1 0-.6.5-1.1 1.1-1.1h4.3c.6 0 1.1.5 1.1 1.1-.1.6-.5 1.1-1.1 1.1zm-8.6 0h-4.3c-.6 0-1.1-.5-1.1-1.1 0-.6.5-1.1 1.1-1.1h4.3c.6 0 1.1.5 1.1 1.1 0 .6-.5 1.1-1.1 1.1zm-8.5 0h-4.3c-.6 0-1.1-.5-1.1-1.1 0-.6.5-1.1 1.1-1.1h4.3c.6 0 1.1.5 1.1 1.1-.1.6-.6 1.1-1.1 1.1zm-8.6 0h-4.3c-.6 0-1.1-.5-1.1-1.1 0-.6.5-1.1 1.1-1.1h4.3c.6 0 1.1.5 1.1 1.1 0 .6-.5 1.1-1.1 1.1zm-8.6 0h-4.3c-.6 0-1.1-.5-1.1-1.1 0-.6.5-1.1 1.1-1.1h4.3c.6 0 1.1.5 1.1 1.1 0 .6-.5 1.1-1.1 1.1zm-8.5-.1s-.1 0 0 0c-1.8-.1-3.2-.4-4.5-.7-.6-.1-.9-.7-.8-1.3.1-.6.7-.9 1.3-.8 1.2.3 2.5.5 4 .6.6 0 1 .6 1 1.1 0 .6-.5 1.1-1 1.1zm-8.2-2.3c-.2 0-.4-.1-.6-.2-1.3-.9-2.4-2-3.3-3.3-.3-.5-.2-1.2.3-1.5.5-.3 1.2-.2 1.5.3.7 1.1 1.6 2 2.7 2.7.5.3.6 1 .3 1.5-.2.3-.5.5-.9.5zm-4.6-6.9c-.5 0-.9-.3-1-.8-.3-1.3-.6-2.8-.7-4.4 0-.6.4-1.1 1-1.1.6-.1 1.1.4 1.1 1 .1 1.5.3 2.8.7 4 .2.6-.2 1.2-.8 1.3h-.3zm-.8-8.5c-.6 0-1.1-.5-1.1-1.1v-4.3c0-.6.5-1.1 1.1-1.1.6 0 1.1.5 1.1 1.1v4.3c0 .6-.5 1.1-1.1 1.1zm0-8.5c-.6 0-1.1-.5-1.1-1.1v-4.3c0-.6.5-1.1 1.1-1.1.6 0 1.1.5 1.1 1.1v4.3c0 .6-.5 1.1-1.1 1.1zm0-8.6c-.6 0-1.1-.5-1.1-1.1v-4.3c0-.6.5-1.1 1.1-1.1.6 0 1.1.5 1.1 1.1v4.3c0 .6-.5 1.1-1.1 1.1zm0-8.5c-.6 0-1.1-.5-1.1-1.1V173c0-.6.5-1.1 1.1-1.1.6 0 1.1.5 1.1 1.1v4.3c0 .6-.5 1.1-1.1 1.1zm0-8.6c-.6 0-1.1-.5-1.1-1.1v-4.3c0-.6.5-1.1 1.1-1.1.6 0 1.1.5 1.1 1.1v4.3c0 .7-.5 1.1-1.1 1.1zm0-8.5c-.6 0-1.1-.5-1.1-1.1V156c0-.6.5-1.1 1.1-1.1.6 0 1.1.5 1.1 1.1v4.3c0 .5-.5 1-1.1 1zm0-8.5c-.6 0-1.1-.5-1.1-1.1v-4.3c0-.6.5-1.1 1.1-1.1.6 0 1.1.5 1.1 1.1v4.3c0 .6-.5 1.1-1.1 1.1zM279.8 169c-.6 0-1.1-.5-1.1-1.1v-4.3c0-.6.5-1.1 1.1-1.1.6 0 1.1.5 1.1 1.1v4.3c-.1.6-.5 1.1-1.1 1.1zm0-8.5c-.6 0-1.1-.5-1.1-1.1v-4.3c0-.6.5-1.1 1.1-1.1.6 0 1.1.5 1.1 1.1v4.3c-.1.6-.5 1.1-1.1 1.1zm0-8.6c-.6 0-1.1-.5-1.1-1.1v-4.3c0-.6.5-1.1 1.1-1.1.6 0 1.1.5 1.1 1.1v4.3c-.1.7-.5 1.1-1.1 1.1zm0-8.5c-.6 0-1.1-.5-1.1-1.1V138c0-.6.5-1.1 1.1-1.1.6 0 1.1.5 1.1 1.1v4.3c-.1.6-.5 1.1-1.1 1.1zm0-8.6c-.6 0-1.1-.5-1.1-1.1v-4.3c0-.6.5-1.1 1.1-1.1.6 0 1.1.5 1.1 1.1v4.3c-.1.7-.5 1.1-1.1 1.1zm0-8.5c-.6 0-1.1-.5-1.1-1.1V121c0-.6.5-1.1 1.1-1.1.6 0 1.1.5 1.1 1.1v4.3c-.1.5-.5 1-1.1 1zm0-8.5c-.6 0-1.1-.5-1.1-1.1v-4.3c0-.6.5-1.1 1.1-1.1.6 0 1.1.5 1.1 1.1v4.3c-.1.6-.5 1.1-1.1 1.1zm0-8.6c-.6 0-1.1-.5-1.1-1.1v-4.3c0-.6.5-1.1 1.1-1.1.6 0 1.1.5 1.1 1.1v4.3c-.1.7-.5 1.1-1.1 1.1zm0-8.5c-.6 0-1.1-.5-1.1-1.1v-4.3c0-.6.5-1.1 1.1-1.1.6 0 1.1.5 1.1 1.1v4.3c-.1.6-.5 1.1-1.1 1.1zm0-8.6c-.6 0-1.1-.5-1.1-1.1v-4.3c0-.6.5-1.1 1.1-1.1.6 0 1.1.5 1.1 1.1V91c-.1.7-.5 1.1-1.1 1.1zM413.2 233.4h-2.4c-.6 0-1.1-.5-1.1-1.1 0-.6.5-1.1 1.1-1.1h4.3c.6 0 1.1.5 1.1 1.1 0 .6-.5 1.1-1.1 1.1h-1.9zm-6.6 0h-4.3c-.6 0-1.1-.5-1.1-1.1 0-.6.5-1.1 1.1-1.1h4.3c.6 0 1.1.5 1.1 1.1-.1.6-.6 1.1-1.1 1.1zm-8.6 0h-4.3c-.6 0-1.1-.5-1.1-1.1 0-.6.5-1.1 1.1-1.1h4.3c.6 0 1.1.5 1.1 1.1 0 .6-.5 1.1-1.1 1.1zm21.4-.2c-.6 0-1-.4-1.1-1 0-.6.4-1.1 1-1.1 1.6-.1 2.9-.3 4-.6.6-.1 1.2.2 1.3.8.1.6-.2 1.2-.8 1.3-1.2.3-2.7.5-4.4.6zm8.1-2.3c-.3 0-.7-.2-.9-.5-.3-.5-.2-1.2.3-1.5 1.1-.7 1.9-1.6 2.7-2.7.3-.5 1-.6 1.5-.3s.6 1 .3 1.5c-.9 1.3-2 2.5-3.3 3.3-.2.2-.4.2-.6.2zm4.6-6.9h-.3c-.6-.2-.9-.7-.8-1.3.3-1.2.5-2.5.7-4 0-.6.6-1 1.1-1 .6 0 1 .6 1 1.1-.1 1.6-.4 3.1-.7 4.4-.1.5-.5.8-1 .8zm.8-8.5c-.6 0-1.1-.5-1.1-1.1v-4.3c0-.6.5-1.1 1.1-1.1.6 0 1.1.5 1.1 1.1v4.3c0 .7-.5 1.1-1.1 1.1zm0-8.5c-.6 0-1.1-.5-1.1-1.1v-4.3c0-.6.5-1.1 1.1-1.1.6 0 1.1.5 1.1 1.1v4.3c0 .6-.5 1.1-1.1 1.1zm0-8.5c-.6 0-1.1-.5-1.1-1.1v-4.3c0-.6.5-1.1 1.1-1.1.6 0 1.1.5 1.1 1.1v4.3c0 .6-.5 1.1-1.1 1.1zm0-8.6c-.6 0-1.1-.5-1.1-1.1v-4.3c0-.6.5-1.1 1.1-1.1.6 0 1.1.5 1.1 1.1v4.3c0 .6-.5 1.1-1.1 1.1zm0-8.5c-.6 0-1.1-.5-1.1-1.1V176c0-.6.5-1.1 1.1-1.1.6 0 1.1.5 1.1 1.1v4.3c0 .6-.5 1.1-1.1 1.1zm0-8.6c-.6 0-1.1-.5-1.1-1.1v-4.3c0-.6.5-1.1 1.1-1.1.6 0 1.1.5 1.1 1.1v4.3c0 .7-.5 1.1-1.1 1.1zm0-8.5c-.6 0-1.1-.5-1.1-1.1V159c0-.6.5-1.1 1.1-1.1.6 0 1.1.5 1.1 1.1v4.3c0 .5-.5 1-1.1 1zM140.7 292.5h-4.3c-.6 0-1.1-.5-1.1-1.1 0-.6.5-1.1 1.1-1.1h4.3c.6 0 1.1.5 1.1 1.1 0 .6-.5 1.1-1.1 1.1zm-8.5 0h-4.3c-.6 0-1.1-.5-1.1-1.1 0-.6.5-1.1 1.1-1.1h4.3c.6 0 1.1.5 1.1 1.1 0 .6-.5 1.1-1.1 1.1zm-8.6 0h-4.3c-.6 0-1.1-.5-1.1-1.1 0-.6.5-1.1 1.1-1.1h4.3c.6 0 1.1.5 1.1 1.1 0 .6-.5 1.1-1.1 1.1zm-8.5 0h-4.3c-.6 0-1.1-.5-1.1-1.1 0-.6.5-1.1 1.1-1.1h4.3c.6 0 1.1.5 1.1 1.1 0 .6-.5 1.1-1.1 1.1zm-8.5 0h-4.3c-.6 0-1.1-.5-1.1-1.1 0-.6.5-1.1 1.1-1.1h4.3c.6 0 1.1.5 1.1 1.1-.1.6-.5 1.1-1.1 1.1zm-8.6 0h-4.3c-.6 0-1.1-.5-1.1-1.1 0-.6.5-1.1 1.1-1.1H98c.6 0 1.1.5 1.1 1.1 0 .6-.5 1.1-1.1 1.1zm-8.5 0h-2.7c-.6 0-1.1-.5-1.1-1.1 0-.6.5-1.1 1.1-1.1h2.7c.6 0 1.1.5 1.1 1.1 0 .6-.5 1.1-1.1 1.1zM513.2 292.5h-4.3c-.6 0-1.1-.5-1.1-1.1 0-.6.5-1.1 1.1-1.1h4.3c.6 0 1.1.5 1.1 1.1 0 .6-.5 1.1-1.1 1.1zm-8.5 0h-4.3c-.6 0-1.1-.5-1.1-1.1 0-.6.5-1.1 1.1-1.1h4.3c.6 0 1.1.5 1.1 1.1-.1.6-.5 1.1-1.1 1.1zm-8.6 0h-4.3c-.6 0-1.1-.5-1.1-1.1 0-.6.5-1.1 1.1-1.1h4.3c.6 0 1.1.5 1.1 1.1 0 .6-.5 1.1-1.1 1.1zm-8.5 0h-4.3c-.6 0-1.1-.5-1.1-1.1 0-.6.5-1.1 1.1-1.1h4.3c.6 0 1.1.5 1.1 1.1 0 .6-.5 1.1-1.1 1.1zm-8.6 0h-4.3c-.6 0-1.1-.5-1.1-1.1 0-.6.5-1.1 1.1-1.1h4.3c.6 0 1.1.5 1.1 1.1 0 .6-.5 1.1-1.1 1.1zm-8.5 0h-4.3c-.6 0-1.1-.5-1.1-1.1 0-.6.5-1.1 1.1-1.1h4.3c.6 0 1.1.5 1.1 1.1 0 .6-.5 1.1-1.1 1.1zm-8.5 0h-.3c-.6 0-1.1-.5-1.1-1.1 0-.6.5-1.1 1.1-1.1h.3c.6 0 1.1.5 1.1 1.1-.1.6-.5 1.1-1.1 1.1zM204.3 422.7h-2.4c-.6 0-1.1-.5-1.1-1.1 0-.6.5-1.1 1.1-1.1h4.3c.6 0 1.1.5 1.1 1.1 0 .6-.5 1.1-1.1 1.1h-1.9zm-6.6 0h-4.3c-.6 0-1.1-.5-1.1-1.1 0-.6.5-1.1 1.1-1.1h4.3c.6 0 1.1.5 1.1 1.1-.1.6-.5 1.1-1.1 1.1zm-8.6 0h-4.3c-.6 0-1.1-.5-1.1-1.1 0-.6.5-1.1 1.1-1.1h4.3c.6 0 1.1.5 1.1 1.1 0 .6-.5 1.1-1.1 1.1zm21.4-.2c-.6 0-1-.4-1.1-1 0-.6.4-1.1 1-1.1 1.6-.1 2.9-.3 4-.6.6-.1 1.2.2 1.3.8.1.6-.2 1.2-.8 1.3-1.2.3-2.6.5-4.4.6zm8.1-2.3c-.3 0-.7-.2-.9-.5-.3-.5-.2-1.2.3-1.5 1.1-.7 1.9-1.6 2.7-2.7.3-.5 1-.6 1.5-.3s.6 1 .3 1.5c-.9 1.3-2 2.5-3.3 3.3-.2.2-.4.2-.6.2zm4.6-6.9h-.3c-.6-.2-.9-.7-.8-1.3.3-1.2.5-2.5.7-4 0-.6.6-1 1.1-1 .6 0 1 .6 1 1.1-.1 1.6-.4 3.1-.7 4.4-.1.5-.5.8-1 .8zm.8-8.5c-.6 0-1.1-.5-1.1-1.1v-4.3c0-.6.5-1.1 1.1-1.1s1.1.5 1.1 1.1v4.3c0 .7-.5 1.1-1.1 1.1zm0-8.5c-.6 0-1.1-.5-1.1-1.1V391c0-.6.5-1.1 1.1-1.1s1.1.5 1.1 1.1v4.3c0 .5-.5 1-1.1 1zm0-8.5c-.6 0-1.1-.5-1.1-1.1v-4.3c0-.6.5-1.1 1.1-1.1s1.1.5 1.1 1.1v4.3c0 .6-.5 1.1-1.1 1.1zm0-8.6c-.6 0-1.1-.5-1.1-1.1v-4.3c0-.6.5-1.1 1.1-1.1s1.1.5 1.1 1.1v4.3c0 .6-.5 1.1-1.1 1.1zm0-8.5c-.6 0-1.1-.5-1.1-1.1v-4.3c0-.6.5-1.1 1.1-1.1s1.1.5 1.1 1.1v4.3c0 .6-.5 1.1-1.1 1.1zm0-8.6c-.6 0-1.1-.5-1.1-1.1v-4.3c0-.6.5-1.1 1.1-1.1s1.1.5 1.1 1.1v4.3c0 .7-.5 1.1-1.1 1.1zm0-8.5c-.6 0-1.1-.5-1.1-1.1v-4.3c0-.6.5-1.1 1.1-1.1s1.1.5 1.1 1.1v4.3c0 .6-.5 1.1-1.1 1.1zM379.3 422.7H375c-.6 0-1.1-.5-1.1-1.1 0-.6.5-1.1 1.1-1.1h4.3c.6 0 1.1.5 1.1 1.1-.1.6-.5 1.1-1.1 1.1zm-8.6 0h-4.3c-.6 0-1.1-.5-1.1-1.1 0-.6.5-1.1 1.1-1.1h4.3c.6 0 1.1.5 1.1 1.1 0 .6-.5 1.1-1.1 1.1zm-8.5 0h-4.3c-.6 0-1.1-.5-1.1-1.1 0-.6.5-1.1 1.1-1.1h4.3c.6 0 1.1.5 1.1 1.1-.1.6-.5 1.1-1.1 1.1zm-8.6-.2c-1.8-.1-3.2-.4-4.5-.7-.6-.1-.9-.7-.8-1.3.1-.6.7-.9 1.3-.8 1.2.3 2.5.5 4 .6.6 0 1 .6 1 1.1 0 .7-.4 1.1-1 1.1zm-8.1-2.3c-.2 0-.4-.1-.6-.2-1.3-.9-2.4-2-3.3-3.3-.3-.5-.2-1.2.3-1.5.5-.3 1.2-.2 1.5.3.7 1.1 1.6 2 2.7 2.7.5.3.6 1 .3 1.5-.2.4-.6.5-.9.5zm-4.6-6.9c-.5 0-.9-.3-1-.8-.3-1.3-.6-2.8-.7-4.4 0-.6.4-1.1 1-1.1s1.1.4 1.1 1c.1 1.5.3 2.8.7 4 .2.6-.2 1.2-.8 1.3h-.3zm-.8-8.5c-.6 0-1.1-.5-1.1-1.1v-4.3c0-.6.5-1.1 1.1-1.1.6 0 1.1.5 1.1 1.1v4.3c-.1.7-.5 1.1-1.1 1.1zm0-8.5c-.6 0-1.1-.5-1.1-1.1V391c0-.6.5-1.1 1.1-1.1.6 0 1.1.5 1.1 1.1v4.3c-.1.5-.5 1-1.1 1zm0-8.5c-.6 0-1.1-.5-1.1-1.1v-4.3c0-.6.5-1.1 1.1-1.1.6 0 1.1.5 1.1 1.1v4.3c-.1.6-.5 1.1-1.1 1.1zm0-8.6c-.6 0-1.1-.5-1.1-1.1v-4.3c0-.6.5-1.1 1.1-1.1.6 0 1.1.5 1.1 1.1v4.3c-.1.6-.5 1.1-1.1 1.1zm0-8.5c-.6 0-1.1-.5-1.1-1.1v-4.3c0-.6.5-1.1 1.1-1.1.6 0 1.1.5 1.1 1.1v4.3c-.1.6-.5 1.1-1.1 1.1zm0-8.6c-.6 0-1.1-.5-1.1-1.1v-4.3c0-.6.5-1.1 1.1-1.1.6 0 1.1.5 1.1 1.1v4.3c-.1.7-.5 1.1-1.1 1.1zm0-8.5c-.6 0-1.1-.5-1.1-1.1v-4.3c0-.6.5-1.1 1.1-1.1.6 0 1.1.5 1.1 1.1v4.3c-.1.6-.5 1.1-1.1 1.1z"/><path class="st1" d="M43.4 248c23.9 0 43.4 19.5 43.4 43.4s-19.5 43.4-43.4 43.4C19.5 334.9 0 315.3 0 291.4 0 267.6 19.5 248 43.4 248zM140.6 378.2c23.9 0 43.4 19.5 43.4 43.4S164.5 465 140.6 465s-43.4-19.5-43.4-43.4 19.5-43.4 43.4-43.4zM423.5 378.2c23.9 0 43.4 19.5 43.4 43.4S447.4 465 423.5 465s-43.4-19.5-43.4-43.4 19.5-43.4 43.4-43.4zM556.6 248c23.9 0 43.4 19.5 43.4 43.4s-19.5 43.4-43.4 43.4-43.4-19.5-43.4-43.4c0-23.8 19.5-43.4 43.4-43.4zM279.8 0c23.9 0 43.4 19.5 43.4 43.4s-19.5 43.4-43.4 43.4-43.4-19.5-43.4-43.4S255.9 0 279.8 0zM124.7 60.6c23.9 0 43.4 19.5 43.4 43.4s-19.5 43.4-43.4 43.4-43.4-19.5-43.4-43.4 19.6-43.4 43.4-43.4z"/><path class="st11" d="M279.8 134.4c3.9 0 7.1-3.2 7.1-7.1 0-3.9-3.2-7.1-7.1-7.1-3.9 0-7.1 3.2-7.1 7.1 0 4 3.2 7.1 7.1 7.1zM124.7 183.2c3.9 0 7.1-3.2 7.1-7.1 0-3.9-3.2-7.1-7.1-7.1-3.9 0-7.1 3.2-7.1 7.1.1 3.9 3.2 7.1 7.1 7.1zM113.8 298.5c3.9 0 7.1-3.2 7.1-7.1s-3.2-7.1-7.1-7.1c-3.9 0-7.1 3.2-7.1 7.1s3.2 7.1 7.1 7.1zM224 384c3.9 0 7.1-3.2 7.1-7.1 0-3.9-3.2-7.1-7.1-7.1-3.9 0-7.1 3.2-7.1 7.1.1 4 3.2 7.1 7.1 7.1zM340.1 402.6c3.9 0 7.1-3.2 7.1-7.1s-3.2-7.1-7.1-7.1-7.1 3.2-7.1 7.1 3.2 7.1 7.1 7.1zM486.2 298.5c3.9 0 7.1-3.2 7.1-7.1s-3.2-7.1-7.1-7.1c-3.9 0-7.1 3.2-7.1 7.1s3.2 7.1 7.1 7.1zM432.9 209.2c3.9 0 7.1-3.2 7.1-7.1 0-3.9-3.2-7.1-7.1-7.1-3.9 0-7.1 3.2-7.1 7.1.1 4 3.2 7.1 7.1 7.1z"/><path class="st12" d="M113.5 400.3h54.2v35.4h-54.2z"/><path class="st13" d="M135.2 435.9H146v11.3h-10.8z"/><path class="st14" d="M136.2 436.9h8.8v1.8h-8.8z"/><path class="st15" d="M117.8 404.5h45.5v24h-45.5z"/><path class="st16" d="M137.1 431.6h7.2v1.5h-7.2z"/><path class="st17" d="M126.9 418.7h12.3v1.5h-12.3v-1.5zm14.1 0h5.4v1.5H141v-1.5z"/><path class="st18" d="M126.9 422.8h24.7v1.5h-24.7zM126.9 410.5h4.9v1.5h-4.9z"/><path class="st17" d="M133.5 410.5h5.2v1.5h-5.2z"/><path class="st18" d="M140.6 410.5h7.3v1.5h-7.3zM126.9 414.6h28.9v1.5h-28.9z"/><path class="st19" d="M118.8 405.5h43.6v2.7h-43.6z"/><path class="st20" d="M127.6 447.2h27.5"/><path class="st21" d="M287.5 229.7l18 10.4 17.9 10.3-19.9 11.5-8-4.6-8-4.7-8 4.7-8 4.6v18.5l8 4.6 8 4.6 8-4.6 8-4.6 19.9 11.4-17.9 10.4-18 10.3-17.9-10.3-17.9-10.4v-41.4l17.9-10.3z"/><path class="st22" d="M287.5 289.6l8-4.6 8-4.6 19.9 11.4-17.9 10.4-18 10.3z"/><path class="st23" d="M287.5 312.5l-17.9-10.3-17.9-10.4v-41.4l19.8 11.5v18.5l8 4.6 8 4.6z"/><path class="st18" d="M109.2 84c0-2.4 0-4.2.8-5.6 2.7-4.7 8.7-4.3 14.8-4.3 6.1 0 12.1-.4 14.8 4.3.7 1.3.7 3 .8 5.2v40.5c0 2.4 0 4.2-.8 5.6-2.7 4.7-8.7 4.3-14.8 4.3-6.1 0-12.1.4-14.8-4.3-.8-1.4-.7-3.2-.8-5.6V84z"/><path class="st24" d="M112.5 84.7h24.4v38.7h-24.4z"/><path class="st16" d="M112.5 84.7h24.4v38.7h-24.4z"/><path class="st4" d="M120.9 77.9h7.9c.4 0 .7.3.7.7 0 .4-.3.7-.7.7h-7.9c-.4 0-.7-.3-.7-.7 0-.3.3-.7.7-.7z"/><path class="st25" d="M112.5 84.7h24.4v2.7h-24.4z"/><path class="st4" d="M120.2 81.2h9.2v1.7h-9.2v-1.7z"/><path class="st26" d="M120.9 125.6h7.8c.2 0 .4.2.6.3.2.2.3.4.3.7v.2l-.3 1.5c-.1.3-.2.6-.4.8-.2.2-.4.3-.7.3h-7c-.3 0-.5-.1-.7-.3-.2-.2-.3-.5-.4-.8l-.3-1.5v-.2c0-.3.1-.5.3-.7.2-.2.4-.3.6-.3h.2zm7.6.5h-7.6-.1c-.1 0-.2.1-.3.2-.1.1-.1.2-.1.3v.1l.3 1.5c0 .2.1.4.2.5.1.1.2.1.3.1h7c.1 0 .3-.1.3-.1.1-.1.2-.3.2-.5l.3-1.5v-.1c0-.1 0-.2-.1-.3-.1-.1-.2-.2-.3-.2h-.1z"/><path class="st4" d="M114.7 126.8h1.7v1.2h-1.7zM132.6 126.8h1.7v1.2h-1.7z"/><path class="st18" d="M545.9 261.6h21.5c2.5 0 4.5 2 4.5 4.5v50.6c0 2.5-2 4.5-4.5 4.5h-21.5c-2.5 0-4.5-2-4.5-4.5v-50.6c-.1-2.4 2-4.5 4.5-4.5z"/><path class="st16" d="M544.1 269.8h25v42.5h-25z"/><circle class="st4" cx="552" cy="265.7" r=".9"/><path class="st4" d="M555.5 265h6c.4 0 .7.3.7.7 0 .4-.3.7-.7.7h-6c-.4 0-.7-.3-.7-.7 0-.4.3-.7.7-.7z"/><circle class="st4" cx="556.6" cy="316.8" r="2.5"/><path class="st15" d="M17.8 272.6h4v-.5c0-.3.2-.5.5-.5h10.3c.3 0 .5.2.5.5v.5h2v-.5c0-.3.2-.5.5-.5h3.7c.3 0 .5.2.5.5v.5H69c1.5 0 2.7 1.2 2.7 2.7v33.3c0 1.5-1.2 2.7-2.7 2.7H14.9l-.1-.1V272.3H17.5l.3.3z"/><path class="st27" d="M21.6 277.2h43.6v29H21.6z"/><ellipse transform="rotate(-13.086 67.756 291.91)" class="st18" cx="67.8" cy="292" rx="1.4" ry="1.4"/><ellipse transform="rotate(-13.07 18.726 291.92)" class="st18" cx="18.7" cy="292" rx=".8" ry=".8"/><path class="st18" d="M256.4 23.9h46.8c1.7 0 3.1 1.4 3.1 3.1v29.9h-52.8v-30c-.2-1.6 1.2-3 2.9-3z"/><path class="st2" d="M256.7 27.9h46.2v29h-46.2z"/><path class="st28" d="M311.5 56.9v2.4c0 1.7-1.4 3.1-3.1 3.1H251c-1.7 0-3.1-1.4-3.1-3.1v-2.4h63.6z"/><circle class="st16" cx="279.8" cy="25.6" r=".6"/><path class="st29" d="M289.5 57.9V59c0 .6-.5 1-1 1H271c-.6 0-1-.5-1-1v-1.1h19.5z"/><path class="st18" d="M400.2 402.4H447c1.7 0 3.1 1.4 3.1 3.1v29.9h-52.8v-29.9c-.2-1.8 1.2-3.1 2.9-3.1z"/><path class="st25" d="M400.4 406.4h46.2v29h-46.2z"/><circle class="st16" cx="423.5" cy="404.1" r=".9"/><path class="st30" d="M400.4 406.4h46.2v4.4h-46.2z"/><path class="st18" d="M388.9 435.1h69.2v2.2c0 1.2-1 2.2-2.2 2.2h-64.8c-1.2 0-2.2-1-2.2-2.2v-2.2z"/><path class="st31" d="M430.7 435.1v.8c0 .4-.3.7-.7.7h-13c-.4 0-.7-.3-.7-.7v-.8h14.4z"/><path class="st0" d="M275.8 367.8c8.4 0 15.6 5.6 18 13.2 1-.3 2.1-.4 3.2-.4 6 0 11 4.5 11.7 10.3.3 0 .7-.1 1.1-.1 4.4 0 8 3.6 8 8s-3.6 8-8 8H253c-3.2 0-5.8-2.7-5.8-5.9v-6.4c-.1-.4-.1-.9-.1-1.3 0-5.7 4.6-10.4 10.3-10.5 1.7-8.5 9.3-14.9 18.4-14.9z"/><path class="st20" d="M427.6 115.3v23.3c0 2.3-1.9 4.1-4.1 4.1h-3.8M438.8 115.3v23.3c0 2.3 1.9 4.1 4.1 4.1h3.8"/><path class="st28" d="M407.7 92.8h50.4c1 0 1.8.8 1.8 1.8v33.7c0 1-.8 1.8-1.8 1.8h-50.4c-1 0-1.8-.8-1.8-1.8V94.6c0-1 .8-1.8 1.8-1.8z"/><path class="st18" d="M407.7 92.8h50.4c1 0 1.8.8 1.8 1.8v28.9h-54V94.6c0-1 .8-1.8 1.8-1.8z"/><path class="st16" d="M408.5 97h48.8v23.3h-48.8z"/><circle class="st18" cx="432.9" cy="126.4" r="1.2"/><path class="st20" d="M419.7 142.7h25.2"/><path class="st32" d="M195.8 359.4h-50.6"/><path class="st0" d="M134.4 344.5h-21.2"/><path class="st32" d="M357 144.1h-21.2M408 359.4h-55.3"/><path class="st0" d="M477.4 359.4h-22.8"/><path class="st32" d="M503.5 322.7h-22.9"/><path class="st0" d="M379.8 184h-38.7M248.8 132.2h-17.1M244.4 159h-38.7"/><path class="st32" d="M120.9 268.4h-17.1"/><path class="st0" d="M489.1 260.2h-37.6M375.3 379.2h-17.4M299.2 423.1h-17.4"/><path class="st32" d="M261.2 359.9h-17.3M311.8 359.9h-17.3"/><path class="st15" d="M411.7 100.3h21.5v16.5h-21.5z"/><path class="st17" d="M414.6 103.2h15.8V114h-15.8z"/><path class="st15" d="M437.2 100.3H453v16.5h-15.8z"/><path class="st33" d="M440.1 103.2h10.1V114h-10.1z"/><path class="st34" d="M26.4 284.3h7.9v8.3h-7.9z"/><path class="st35" d="M39.5 284.3h7.9v8.3h-7.9z"/><path class="st36" d="M52.5 284.3h7.9v8.3h-7.9z"/><path class="st18" d="M25.5 297h2.1v2.1h-2.1zM29.7 297h2.1v2.1h-2.1zM33.9 297H36v2.1h-2.1zM38.1 297h2.1v2.1h-2.1zM42.3 297h2.1v2.1h-2.1zM46.6 297h2.1v2.1h-2.1zM50.8 297h2.1v2.1h-2.1zM55 297h2.1v2.1H55zM59.2 297h2.1v2.1h-2.1z"/><path class="st34" d="M547.5 277.2h8.5v8.5h-8.5z"/><path class="st20" d="M559.5 277.4h5.4M559.5 281.6h2.7M559.5 285.9h5.4"/><path class="st36" d="M557.7 293.3h8.5v8.5h-8.5z"/><path class="st20" d="M547.7 293.5h5.3M547.7 297.8h2.7M547.7 302h5.3"/><path class="st37" d="M547.5 308.2h8.5v4.2h-8.5z"/><path class="st20" d="M559.5 308.4h5.4M559.5 312.7h2.7M559.5 316.9h5.4"/><path class="st25" d="M544.1 269.8h25.1v2.7h-25.1z"/><path class="st16" d="M403 427.3h9v1.1h-9zM403 430.3h18v1.1h-18zM403 421.3h3.6v1.1H403zM407.9 421.3h3.8v1.1h-3.8zM403 424.3h15v1.1h-15zM425.8 427.3h7.1v1.1h-7.1v-1.1zm8.2 0h3.1v1.1H434v-1.1zM425.8 430.3h14.3v1.1h-14.3zM425.8 421.3h2.8v1.1h-2.8zM429.7 421.3h9.7v1.1h-9.7zM425.8 424.3h16.7v1.1h-16.7z"/><path class="st33" d="M403.8 415.2h39.4v2.1h-39.4z"/><path class="st15" d="M116.2 90.3h17.1v16.5h-17.1z"/><path class="st17" d="M119.1 93h11.4v11h-11.4z"/><path class="st38" d="M117 112h15.2"/><path class="st20" d="M115.9 117.8h17.6M115.9 121.2h10"/><path class="st33" d="M278.8 40.3h14.9v1.5h-14.9z"/><path class="st18" d="M278.8 44.4h18.5v1.5h-18.5zM278.8 32h3.7v1.5h-3.7z"/><path class="st17" d="M283.7 32h3.9v1.5h-3.9z"/><path class="st18" d="M289 32h5.5v1.5H289zM278.8 36.2h21.6v1.5h-21.6zM278.8 48.1h18.5v1.5h-18.5z"/><path class="st25" d="M256.7 27.9H275v27.9H256.7z"/><path class="st18" d="M278.8 51.9h18.5v1.5h-18.5z"/><path class="st35" d="M259.3 32h13v9.9h-13z"/><path class="st34" d="M259.3 46.7h13v5h-13z"/></svg>