<?xml version="1.0" encoding="UTF-8" standalone="no"?>
<svg id="svg2" xmlns:rdf="http://www.w3.org/1999/02/22-rdf-syntax-ns#" xmlns="http://www.w3.org/2000/svg" height="360" width="620" version="1.1" xmlns:cc="http://creativecommons.org/ns#" xmlns:dc="http://purl.org/dc/elements/1.1/" viewBox="0 0 620 360">
 <metadata id="metadata316">
  <rdf:RDF>
   <cc:Work rdf:about="">
    <dc:format>image/svg+xml</dc:format>
    <dc:type rdf:resource="http://purl.org/dc/dcmitype/StillImage"/>
    <dc:title/>
   </cc:Work>
  </rdf:RDF>
 </metadata>
 <g id="g4444" transform="matrix(.85381 0 0 .85381 35.875 50.002)">
  <path id="path4" d="m433.32 151.41-2.48-2.494 31.034-30.747 2.48 2.494-31.034 30.747zm41.189-40.806-2.48-2.494 15.518-15.373 2.481 2.494-15.519 15.373zm38.344 97.996 0.454 3.485-74.385 9.692-0.454-3.485zm-410.09 0.008 74.385 9.677-0.453 3.485-74.385-9.677zm93.766-52.181-32.465-29.237 2.359-2.609 32.465 29.237-2.359 2.609zm-43.087-38.803-16.233-14.619 2.359-2.609 16.233 14.618-2.359 2.61z" fill="#dbdfea"/>
  <path id="path6" d="m514.64 176.19c18.516 0 33.617-15.072 33.617-33.553 0-18.479-15.102-33.552-33.617-33.552s-33.617 15.072-33.617 33.552c0 18.481 15.101 33.553 33.617 33.553z" fill-rule="evenodd" clip-rule="evenodd" fill="#ecedf6"/>
  <path id="path8" d="m514.64 177.48c-19.252 0-34.915-15.633-34.915-34.847 0-19.215 15.663-34.847 34.915-34.847s34.915 15.632 34.915 34.847-15.663 34.847-34.915 34.847zm0-67.102c-17.82 0-32.319 14.47-32.319 32.256s14.499 32.257 32.319 32.257c17.821 0 32.319-14.471 32.319-32.257s-14.498-32.256-32.319-32.256z" fill="#cbd4dd"/>
  <path id="path10" d="m476.97-10.422h90.828v58.517h-90.828z" fill-rule="evenodd" clip-rule="evenodd" fill="#fdd26a"/>
  <path id="path12" d="m567.8 49.34h-90.828c-0.689 0-1.249-0.558-1.249-1.245v-58.517c0-0.688 0.56-1.246 1.249-1.246h90.828c0.689 0 1.249 0.559 1.249 1.246v58.517c0 0.687-0.56 1.245-1.249 1.245zm-89.58-2.491h88.332v-56.026h-88.332v56.026z" fill="#536b8b"/>
  <path id="path14" d="m466.5-2.975h90.827v58.518h-90.827z" fill-rule="evenodd" clip-rule="evenodd" fill="#fff"/>
  <path id="path16" d="m557.33 56.838h-90.827c-0.717 0-1.298-0.58-1.298-1.295v-58.518c0-0.715 0.581-1.295 1.298-1.295h90.827c0.716 0 1.298 0.58 1.298 1.295v58.518c0 0.715-0.582 1.295-1.298 1.295zm-89.529-2.59h88.231v-55.927h-88.231v55.927z" fill="#536b8b"/>
  <path id="path18" d="m241.79 106.81c17.602 0 31.958-14.328 31.958-31.896s-14.356-31.896-31.958-31.896c-17.603 0-31.959 14.328-31.959 31.896 0 17.567 14.357 31.896 31.959 31.896z" fill-rule="evenodd" clip-rule="evenodd" fill="#ecedf6"/>
  <path id="path20" d="m241.79 108.1c-18.339 0-33.257-14.891-33.257-33.191 0-18.303 14.918-33.192 33.257-33.192 18.338 0 33.256 14.89 33.256 33.192 0 18.301-14.918 33.191-33.256 33.191zm0-63.792c-16.906 0-30.661 13.728-30.661 30.602 0 16.873 13.755 30.601 30.661 30.601s30.66-13.728 30.66-30.601c0-16.875-13.754-30.602-30.66-30.602z" fill="#cbd4dd"/>
  <path id="path22" d="m260.97 100.42c-5.342 4.01-11.986 6.388-19.185 6.388s-13.843-2.379-19.187-6.388v-8.542c0-3.436 2.815-6.246 6.257-6.246h0.002l0.482 0.02c0.309-0.05 0.628-0.076 0.959-0.076h22.97c0.331 0 0.65 0.026 0.959 0.076l0.483-0.02h0.001c3.441 0 6.257 2.811 6.257 6.246v8.542z" fill-rule="evenodd" clip-rule="evenodd" fill="#ecedf6"/>
  <path id="path24" d="m241.79 108.1c-7.266 0-14.171-2.3-19.967-6.648-0.326-0.245-0.518-0.628-0.518-1.035v-8.542c0-4.159 3.389-7.542 7.555-7.542l0.432 0.014c0.333-0.046 0.673-0.069 1.012-0.069h22.971c0.339 0 0.679 0.023 1.012 0.069l0.431-0.014c4.166 0 7.556 3.383 7.556 7.542v8.542c0 0.407-0.191 0.79-0.518 1.035-5.796 4.349-12.698 6.648-19.966 6.648zm-17.889-8.338c5.234 3.763 11.405 5.748 17.889 5.748s12.654-1.985 17.887-5.748v-7.887c0-2.729-2.225-4.951-4.959-4.951l-0.386 0.016-0.304-0.013c-0.242-0.038-0.494-0.059-0.754-0.059h-22.97c-0.26 0-0.512 0.021-0.754 0.059l-0.304 0.013-0.384-0.016c-2.736 0-4.961 2.222-4.961 4.951v7.887zm307.52 57.208c-0.716 0-1.298-0.58-1.298-1.295v-22.65c0-4.313-1.711-8.276-4.819-11.158-2.939-2.728-6.786-4.125-10.569-3.854l-0.122 0.003c-4.463-0.092-8.414 1.364-11.198 4.088-2.786 2.726-4.26 6.503-4.26 10.922v22.65c0 0.715-0.581 1.295-1.298 1.295s-1.298-0.58-1.298-1.295v-22.65c0-5.058 1.79-9.594 5.038-12.772 3.273-3.201 7.89-4.9 13.008-4.829 4.478-0.309 9.014 1.345 12.466 4.545 3.643 3.378 5.648 8.016 5.648 13.057v22.65c0 0.713-0.581 1.293-1.298 1.293z" fill="#cbd4dd"/>
  <path id="path26" d="m241.77 68.77h0.013l0.013-0.001c2.636 0 4.791 2.152 4.791 4.784v11.962c0 2.631-2.155 4.784-4.791 4.784l-0.013-0.001h-0.013c-2.636 0-4.794-2.152-4.794-4.783v-11.962c0-2.631 2.158-4.783 4.794-4.783z" fill-rule="evenodd" clip-rule="evenodd" fill="#ecedf6"/>
  <path id="path28" d="m241.8 91.594-0.061-0.001-0.012-0.001h-0.003c-3.311 0-6.042-2.726-6.042-6.077v-11.962c0-3.353 2.732-6.079 6.092-6.079h0.001c3.382 0 6.113 2.727 6.113 6.079v11.962c0.001 3.352-2.731 6.079-6.088 6.079zm0-21.53c-1.953 0-3.521 1.565-3.521 3.488v11.962c0 1.923 1.568 3.488 3.496 3.488h0.025c1.926 0 3.493-1.564 3.493-3.488v-11.962c0-1.923-1.567-3.488-3.493-3.488z" fill="#cbd4dd"/>
  <path id="path30" d="m241.79 83.451c-5.59-0.487-11.18-5.423-11.7-11.863h-0.039v-7.372h0.039c0.521-6.44 6.107-9.389 11.693-9.876 5.585 0.487 11.171 3.436 11.691 9.876h0.04v7.372h-0.04c-0.52 6.44-6.106 11.376-11.691 11.863z" fill-rule="evenodd" clip-rule="evenodd" fill="#ecedf6"/>
  <path id="path32" d="m241.79 84.746-0.114-0.005c-6.459-0.563-12.156-6.244-12.844-12.738-0.047-0.13-0.072-0.27-0.072-0.415v-7.371c0-0.15 0.026-0.296 0.073-0.432 0.758-7.146 7.098-10.233 12.843-10.734h0.228c5.748 0.501 12.092 3.592 12.843 10.748 0.047 0.131 0.073 0.271 0.073 0.418v7.371c0 0.153-0.026 0.301-0.075 0.438-0.698 6.484-6.389 12.153-12.841 12.716l-0.114 0.004zm-10.434-13.469 0.034 0.207c0.487 6.021 5.753 10.2 10.4 10.666 4.646-0.466 9.911-4.645 10.398-10.666l0.035-0.217v-6.735l-0.035-0.211c-0.578-7.149-7.958-8.447-10.398-8.68-2.442 0.232-9.822 1.53-10.4 8.68l-0.034 0.212v6.744z" fill="#cbd4dd"/>
  <path id="path34" d="m233.11 57.822c2.249-2.106 5.463-3.201 8.677-3.481 3.212 0.28 6.426 1.375 8.675 3.481-2.249 2.664-5.463 4.416-8.675 4.697-3.214-0.281-6.428-2.033-8.677-4.697z" fill-rule="evenodd" clip-rule="evenodd" fill="#ecedf6"/>
  <path id="path36" d="m241.79 63.814-0.114-0.005c-3.519-0.308-7.091-2.234-9.556-5.153-0.443-0.526-0.397-1.309 0.105-1.779 2.28-2.135 5.638-3.493 9.45-3.826h0.228c3.813 0.333 7.169 1.691 9.449 3.826 0.503 0.471 0.549 1.253 0.105 1.779-2.465 2.919-6.036 4.846-9.555 5.153l-0.112 0.005zm-6.782-5.866c1.915 1.835 4.367 3.029 6.782 3.271 2.414-0.241 4.865-1.436 6.78-3.271-1.775-1.252-4.131-2.059-6.78-2.307-2.651 0.249-5.007 1.055-6.782 2.307zm6.78 20.527c-1.861 0-3.54-1.173-4.174-2.92-0.244-0.673 0.104-1.415 0.777-1.659 0.672-0.244 1.418 0.104 1.662 0.775 0.264 0.727 0.961 1.214 1.734 1.214 0.774 0 1.472-0.488 1.736-1.215 0.244-0.673 0.991-1.018 1.663-0.774 0.674 0.245 1.021 0.988 0.776 1.66-0.634 1.746-2.312 2.919-4.174 2.919z" fill="#cbd4dd"/>
  <path id="path38" d="m247.03 69.588c1.01 0 1.833-0.822 1.833-1.829 0-1.008-0.823-1.83-1.833-1.83-1.009 0-1.832 0.822-1.832 1.83 0 1.007 0.824 1.829 1.832 1.829zm-10.482 0c1.009 0 1.832-0.822 1.832-1.829 0-1.008-0.823-1.83-1.832-1.83-1.01 0-1.833 0.822-1.833 1.83 0 1.007 0.823 1.829 1.833 1.829z" fill-rule="evenodd" clip-rule="evenodd" fill="#cbd4dd"/>
  <path id="path40" d="m228.72 105.23c-0.717 0-1.298-0.58-1.298-1.296v-10.012c0-0.715 0.581-1.295 1.298-1.295s1.298 0.58 1.298 1.295v10.012c0 0.716-0.581 1.296-1.298 1.296zm26.138 0c-0.717 0-1.298-0.58-1.298-1.296v-10.012c0-0.715 0.581-1.295 1.298-1.295s1.298 0.58 1.298 1.295v10.012c0 0.716-0.581 1.296-1.298 1.296z" fill="#cbd4dd"/>
  <path id="path42" d="m385.02 117.56c23.533 0 42.727-19.155 42.727-42.642s-19.193-42.643-42.727-42.643c-23.532 0-42.726 19.156-42.726 42.643s19.193 42.642 42.726 42.642z" fill-rule="evenodd" clip-rule="evenodd" fill="#ecedf6"/>
  <path id="path44" d="m385.02 118.85c-24.274 0-44.023-19.711-44.023-43.938 0-24.229 19.749-43.938 44.023-43.938s44.024 19.71 44.024 43.938c0 24.227-19.75 43.938-44.024 43.938zm0-85.286c-22.843 0-41.428 18.549-41.428 41.348 0 22.798 18.585 41.347 41.428 41.347 22.844 0 41.429-18.549 41.429-41.347-0.001-22.799-18.586-41.348-41.429-41.348z" fill="#cbd4dd"/>
  <path id="path46" d="m410.67 109.02c-7.144 5.361-16.025 8.54-25.65 8.54s-18.507-3.179-25.65-8.54v-11.419c0-4.594 3.764-8.352 8.367-8.352 0.218 0 0.434 0.009 0.646 0.025 0.41-0.066 0.839-0.101 1.28-0.101h30.71c0.444 0 0.872 0.034 1.282 0.101 0.212-0.017 0.429-0.025 0.646-0.025h0.002c4.603 0 8.367 3.759 8.367 8.352v11.419z" fill-rule="evenodd" clip-rule="evenodd" fill="#ecedf6"/>
  <path id="path48" d="m385.02 118.85c-9.619 0-18.759-3.044-26.43-8.801-0.327-0.244-0.519-0.628-0.519-1.035v-11.419c0-5.319 4.336-9.646 9.665-9.646l0.593 0.018c0.437-0.062 0.885-0.093 1.334-0.093h30.71c0.451 0 0.899 0.031 1.336 0.093l0.592-0.018c5.33 0 9.667 4.327 9.667 9.646v11.419c0 0.407-0.191 0.791-0.519 1.035-7.67 5.757-16.808 8.801-26.429 8.801zm-24.352-10.489c7.11 5.169 15.517 7.897 24.353 7.897 8.837 0 17.243-2.729 24.353-7.897v-10.767c0-3.891-3.171-7.056-7.069-7.056l-0.55 0.021-0.304-0.014c-0.349-0.056-0.711-0.084-1.076-0.084h-30.71c-0.364 0-0.726 0.028-1.074 0.084l-0.304 0.014c-0.181-0.014-0.364-0.021-0.549-0.021-3.898 0-7.069 3.165-7.069 7.056v10.767z" fill="#cbd4dd"/>
  <path id="path50" d="m385 66.699h0.019l0.016-0.001c3.524 0 6.408 2.878 6.408 6.395v15.994c0 3.517-2.884 6.395-6.408 6.395h-0.035c-3.522 0-6.406-2.878-6.406-6.396v-15.993c0-3.517 2.883-6.394 6.406-6.394z" fill-rule="evenodd" clip-rule="evenodd" fill="#ecedf6"/>
  <path id="path52" d="m385.04 96.776h-0.016c-4.266 0-7.723-3.449-7.723-7.69v-15.993c0-4.239 3.457-7.688 7.704-7.688h0.001c4.284 0 7.739 3.449 7.739 7.688v15.994c0.001 4.24-3.456 7.689-7.705 7.689zm0-28.782c-2.851 0.001-5.143 2.287-5.143 5.099v15.993c0 2.813 2.292 5.1 5.108 5.1h0.034c2.818 0 5.11-2.286 5.11-5.099v-15.994c0.001-2.812-2.291-5.099-5.109-5.099z" fill="#cbd4dd"/>
  <path id="path54" d="m385.02 86.328c-7.84-0.685-15.68-7.926-15.68-17.168v-17.095h31.37v17.095c0 9.242-7.843 16.484-15.684 17.168z" fill-rule="evenodd" clip-rule="evenodd" fill="#ecedf6"/>
  <path id="path56" d="m385.02 87.623-0.113-0.005c-8.15-0.711-16.87-8.298-16.87-18.458v-17.095c0-0.716 0.581-1.296 1.297-1.296h31.369c0.717 0 1.298 0.58 1.298 1.296v17.095c0 10.16-8.722 17.747-16.868 18.458l-0.114 0.005zm-14.387-34.263v15.8c0 8.693 7.417 15.196 14.388 15.867 6.97-0.671 14.387-7.174 14.387-15.867v-15.8h-28.775zm14.387 25.878c-2.308 0-4.386-1.454-5.17-3.617-0.244-0.673 0.104-1.415 0.778-1.659 0.674-0.242 1.419 0.104 1.662 0.777 0.415 1.142 1.511 1.908 2.729 1.908s2.315-0.767 2.73-1.909c0.244-0.673 0.988-1.021 1.663-0.775 0.674 0.243 1.021 0.986 0.777 1.659-0.786 2.163-2.863 3.616-5.169 3.616z" fill="#cbd4dd"/>
  <path id="path58" d="m391.71 66.376c1.125 0 2.044-0.917 2.044-2.04 0-1.124-0.919-2.04-2.044-2.04-1.126 0-2.045 0.916-2.045 2.04 0 1.123 0.919 2.04 2.045 2.04z" fill-rule="evenodd" clip-rule="evenodd" fill="#ecedf6"/>
  <path id="path60" d="m391.71 67.671c-1.843 0-3.343-1.496-3.343-3.335 0-1.84 1.5-3.336 3.343-3.336 1.842 0 3.342 1.496 3.342 3.336 0 1.839-1.5 3.335-3.342 3.335zm0-4.08c-0.412 0-0.747 0.335-0.747 0.745s0.335 0.744 0.747 0.744c0.411 0 0.746-0.334 0.746-0.744s-0.335-0.745-0.746-0.745z" fill="#cbd4dd"/>
  <path id="path62" d="m378.33 66.376c1.126 0 2.044-0.917 2.044-2.04 0-1.124-0.918-2.04-2.044-2.04-1.125 0-2.044 0.916-2.044 2.04 0 1.123 0.919 2.04 2.044 2.04z" fill-rule="evenodd" clip-rule="evenodd" fill="#ecedf6"/>
  <path id="path64" d="m378.33 67.671c-1.842 0-3.342-1.496-3.342-3.335 0-1.84 1.5-3.336 3.342-3.336 1.843 0 3.341 1.496 3.341 3.336 0 1.839-1.498 3.335-3.341 3.335zm0-4.08c-0.411 0-0.746 0.335-0.746 0.745s0.335 0.744 0.746 0.744 0.745-0.334 0.745-0.744-0.334-0.745-0.745-0.745zm-10.781 51.41c-0.717 0-1.298-0.58-1.298-1.295v-13.385c0-0.715 0.581-1.296 1.298-1.296s1.298 0.581 1.298 1.296v13.385c0 0.715-0.581 1.295-1.298 1.295zm34.946 0c-0.717 0-1.298-0.58-1.298-1.295v-13.385c0-0.715 0.581-1.296 1.298-1.296s1.298 0.581 1.298 1.296v13.385c0 0.715-0.581 1.295-1.298 1.295z" fill="#cbd4dd"/>
  <path id="path66" d="m371.34 46.236c-2.849 0-5.159 2.306-5.159 5.15 0 2.843 2.311 5.149 5.159 5.149 1.552 0 2.942-0.683 3.888-1.764 0.742 1.935 2.621 3.31 4.82 3.31 2.068 0 3.854-1.216 4.675-2.971 0.823 1.755 2.607 2.971 4.676 2.971 2.154 0 4-1.318 4.772-3.19 0.915 0.821 2.124 1.321 3.451 1.321 2.85 0 5.159-2.305 5.159-5.148 0-2.3-1.512-4.249-3.598-4.909 0.032-0.235 0.051-0.478 0.051-0.724 0-2.844-2.311-5.149-5.16-5.149-1.466 0-2.79 0.611-3.729 1.591l0.021-0.464c0-2.844-2.311-5.149-5.159-5.149-2.788 0-5.061 2.208-5.156 4.968-0.906-0.789-2.092-1.267-3.39-1.267-2.848 0-5.159 2.305-5.159 5.149 0 0.39 0.043 0.77 0.126 1.135l-0.288-0.009z" fill-rule="evenodd" clip-rule="evenodd" fill="#ecedf6"/>
  <path id="path68" d="m389.4 59.378c-1.787 0-3.473-0.749-4.676-2.004-1.201 1.255-2.887 2.004-4.675 2.004-2.057 0-3.974-0.997-5.176-2.597-1.041 0.679-2.265 1.05-3.532 1.05-3.561 0-6.457-2.891-6.457-6.444 0-3.168 2.302-5.808 5.321-6.346 0.038-3.521 2.92-6.375 6.457-6.375 0.861 0 1.706 0.171 2.486 0.497 0.909-2.468 3.273-4.199 6.06-4.199 2.918 0 5.39 1.942 6.188 4.599 0.829-0.377 1.737-0.576 2.68-0.576 3.52 0 6.391 2.824 6.457 6.321 2.157 1.081 3.548 3.283 3.548 5.757 0 3.554-2.896 6.444-6.457 6.444-1.063 0-2.101-0.261-3.024-0.75-1.199 1.627-3.11 2.619-5.2 2.619zm-4.675-5.562c0.504 0 0.962 0.291 1.176 0.746 0.634 1.352 2.008 2.225 3.5 2.225 1.572 0 2.974-0.938 3.572-2.389 0.161-0.39 0.501-0.676 0.913-0.77 0.409-0.094 0.841 0.019 1.155 0.301 0.711 0.638 1.628 0.988 2.583 0.988 2.129 0 3.861-1.729 3.861-3.854 0-1.688-1.082-3.164-2.692-3.675-0.602-0.19-0.979-0.785-0.894-1.409 0.025-0.179 0.039-0.362 0.039-0.549 0-2.125-1.732-3.854-3.862-3.854-1.064 0-2.055 0.423-2.791 1.191-0.379 0.397-0.975 0.512-1.475 0.284-0.502-0.228-0.806-0.748-0.755-1.296l0.015-0.348c0-2.126-1.732-3.854-3.861-3.854-2.093 0-3.787 1.633-3.859 3.717-0.017 0.5-0.319 0.944-0.779 1.145-0.458 0.198-0.993 0.117-1.37-0.212-0.702-0.611-1.603-0.948-2.537-0.948-2.129 0-3.861 1.729-3.861 3.854 0 0.287 0.032 0.573 0.094 0.85 0.091 0.397-0.013 0.813-0.276 1.124-0.266 0.311-0.662 0.48-1.067 0.454-2.189-0.12-4.071 1.653-4.071 3.849 0 2.125 1.732 3.854 3.861 3.854 1.116 0 2.177-0.481 2.91-1.32 0.299-0.343 0.756-0.504 1.205-0.424 0.448 0.079 0.822 0.388 0.984 0.813 0.569 1.481 2.019 2.478 3.608 2.478 1.492 0 2.867-0.873 3.5-2.225 0.213-0.455 0.67-0.746 1.174-0.746zm0.456 51.17c-0.333 0-0.664-0.126-0.918-0.379l-14.37-14.345c-0.509-0.506-0.509-1.326 0-1.832 0.506-0.506 1.327-0.506 1.834 0l13.452 13.426 13.451-13.426c0.507-0.506 1.328-0.506 1.835 0 0.508 0.506 0.508 1.326 0 1.832l-14.369 14.342c-0.254 0.253-0.585 0.379-0.917 0.379zm129.46 72.499c-0.716 0-1.298-0.58-1.298-1.294 0-0.716 0.582-1.296 1.298-1.296 6.278 0 12.255-2.089 17.323-6.048v-8.362c0-2.908-2.143-5.274-4.775-5.274h-25.095c-2.589 0-4.776 2.417-4.776 5.274v8.986c0 0.716-0.581 1.295-1.298 1.295s-1.298-0.579-1.298-1.295v-8.986c0-4.336 3.307-7.864 7.372-7.864h25.095c4.065 0 7.371 3.528 7.371 7.864v8.986c0 0.389-0.175 0.758-0.478 1.003-5.638 4.588-12.359 7.011-19.441 7.011z" fill="#cbd4dd"/>
  <path id="path70" d="m514.62 136.18h0.028c2.772 0 5.041 2.264 5.041 5.031v12.585c0 2.767-2.269 5.029-5.041 5.029h-0.028c-2.772 0-5.041-2.263-5.041-5.03v-12.584c0-2.767 2.269-5.031 5.041-5.031z" fill-rule="evenodd" clip-rule="evenodd" fill="#ecedf6"/>
  <path id="path72" d="m514.65 160.12h-0.014c-3.509 0-6.353-2.838-6.353-6.326v-12.584c0-3.488 2.844-6.326 6.339-6.326 3.522 0 6.366 2.838 6.366 6.326v12.585c0.001 3.487-2.842 6.325-6.338 6.325zm0-22.645c-2.091 0-3.771 1.676-3.771 3.735v12.584c0 2.061 1.68 3.735 3.743 3.735h0.027c2.064 0 3.743-1.675 3.743-3.734v-12.585c0.002-2.06-1.677-3.735-3.742-3.735z" fill="#cbd4dd"/>
  <path id="path74" d="m514.64 151.62c-6.17-0.539-12.341-6.237-12.341-13.508v-7.887c0-5.491 9.947-0.057 12.341 0.824 7.018-2.584 12.341-7.468 12.341 2.835v4.228c0 7.271-6.17 12.969-12.341 13.508z" fill-rule="evenodd" clip-rule="evenodd" fill="#ecedf6"/>
  <path id="path76" d="m514.64 152.92-0.113-0.006c-6.54-0.57-13.53-6.65-13.53-14.8v-7.887c0-2.328 1.45-3.719 3.879-3.719 2.676 0 6.299 1.613 8.696 2.679 0.41 0.184 0.776 0.347 1.077 0.474 1.146-0.442 2.244-0.939 3.311-1.422 2.283-1.034 4.257-1.928 5.964-1.928 4.351 0 4.351 5.504 4.351 7.575v4.228c0 8.146-6.993 14.228-13.524 14.797l-0.116 0.006zm-9.76-23.817c-1.105 0-1.283 0.332-1.283 1.128v7.887c0 6.679 5.688 11.677 11.043 12.206 5.355-0.529 11.043-5.527 11.043-12.206v-4.228c0-4.984-1.274-4.984-1.755-4.984-1.146 0-2.966 0.824-4.893 1.696-1.192 0.539-2.543 1.151-3.945 1.668-0.292 0.106-0.609 0.107-0.898 0-0.39-0.143-0.971-0.399-1.673-0.712-2.063-0.918-5.516-2.455-7.639-2.455zm9.759 17.22c-1.932 0-3.671-1.218-4.327-3.028-0.244-0.673 0.104-1.415 0.779-1.659 0.671-0.244 1.418 0.104 1.661 0.777 0.286 0.788 1.044 1.319 1.887 1.319s1.602-0.531 1.89-1.321c0.244-0.673 0.99-1.019 1.663-0.775 0.674 0.245 1.021 0.989 0.776 1.661-0.659 1.81-2.4 3.026-4.329 3.026z" fill="#cbd4dd"/>
  <path id="path78" d="m519.9 135.92c0.887 0 1.608-0.722 1.608-1.605s-0.722-1.605-1.608-1.605c-0.885 0-1.607 0.722-1.607 1.605s0.723 1.605 1.607 1.605zm-10.53 0c0.887 0 1.608-0.722 1.608-1.605s-0.722-1.605-1.608-1.605c-0.885 0-1.608 0.722-1.608 1.605s0.723 1.605 1.608 1.605z" fill-rule="evenodd" clip-rule="evenodd" fill="#cbd4dd"/>
  <path id="path80" d="m500.89 174.46c-0.717 0-1.298-0.58-1.298-1.295v-10.532c0-0.715 0.581-1.296 1.298-1.296s1.298 0.581 1.298 1.296v10.532c-0.001 0.715-0.582 1.295-1.298 1.295zm27.495 0c-0.717 0-1.298-0.58-1.298-1.295v-10.532c0-0.715 0.581-1.296 1.298-1.296 0.716 0 1.298 0.581 1.298 1.296v10.532c0 0.715-0.582 1.295-1.298 1.295z" fill="#cbd4dd"/>
  <path id="path82" d="m101.07 188.61c22.098 0 40.121-17.989 40.121-40.043 0-22.055-18.023-40.043-40.121-40.043-22.099 0-40.121 17.988-40.121 40.043 0 22.054 18.023 40.043 40.121 40.043z" fill-rule="evenodd" clip-rule="evenodd" fill="#ecedf6"/>
  <path id="path84" d="m101.07 189.9c-22.839 0-41.419-18.544-41.419-41.338s18.58-41.339 41.419-41.339 41.419 18.545 41.419 41.339-18.58 41.338-41.419 41.338zm0-80.086c-21.407 0-38.823 17.382-38.823 38.748 0 21.365 17.416 38.747 38.823 38.747s38.823-17.382 38.823-38.747c0.001-21.366-17.415-38.748-38.823-38.748z" fill="#cbd4dd"/>
  <path id="path86" d="m125.16 180.59c-6.708 5.034-15.049 8.02-24.087 8.02s-17.379-2.986-24.087-8.02v-10.725c0-4.313 3.535-7.842 7.857-7.842h0.001c0.203 0 0.407 0.01 0.605 0.024 0.387-0.062 0.789-0.095 1.204-0.095h28.837c0.417 0 0.817 0.033 1.204 0.095 0.199-0.015 0.403-0.024 0.606-0.024h0.001c4.322 0 7.857 3.529 7.857 7.842v10.725z" fill-rule="evenodd" clip-rule="evenodd" fill="#ecedf6"/>
  <path id="path88" d="m101.07 189.9c-9.049 0-17.647-2.862-24.866-8.279-0.327-0.245-0.519-0.628-0.519-1.035v-10.725c0-5.038 4.107-9.137 9.155-9.137l0.553 0.018c0.414-0.059 0.836-0.088 1.258-0.088h28.837c0.422 0 0.844 0.029 1.258 0.088l0.553-0.018c5.049 0 9.156 4.099 9.156 9.137v10.725c0 0.407-0.191 0.79-0.519 1.035-7.216 5.417-15.815 8.279-24.866 8.279zm-22.789-9.968c6.658 4.829 14.522 7.378 22.789 7.378 8.268 0 16.134-2.548 22.789-7.378v-10.07c0-3.61-2.942-6.547-6.56-6.547l-0.511 0.021-0.302-0.012c-0.327-0.053-0.663-0.079-0.999-0.079h-28.836c-0.336 0-0.672 0.026-0.999 0.079l-0.303 0.012-0.508-0.021c-3.617 0-6.561 2.937-6.561 6.547v10.07z" fill="#cbd4dd"/>
  <path id="path90" d="m89.576 161.95h22.988c-0.778 5.627-5.648 9.998-11.493 9.998-5.843 0-10.715-4.371-11.495-9.998z" fill-rule="evenodd" clip-rule="evenodd" fill="#ecedf6"/>
  <path id="path92" d="m101.07 173.25c-6.407 0-11.902-4.779-12.78-11.115-0.051-0.372 0.06-0.747 0.307-1.029 0.246-0.282 0.604-0.443 0.979-0.443h22.988c0.375 0 0.731 0.161 0.979 0.443 0.246 0.282 0.358 0.657 0.308 1.029-0.877 6.336-6.372 11.115-12.781 11.115zm-9.892-9.998c1.267 4.313 5.284 7.408 9.893 7.408 4.61 0 8.626-3.096 9.892-7.408h-19.785z" fill="#cbd4dd"/>
  <path id="path94" d="m89.576 161.95h22.988c-0.778 5.627-5.648 9.998-11.493 9.998-5.843 0-10.715-4.371-11.495-9.998z" fill-rule="evenodd" clip-rule="evenodd" fill="#ecedf6"/>
  <path id="path96" d="m101.07 173.25c-6.407 0-11.902-4.779-12.78-11.115-0.051-0.372 0.06-0.747 0.307-1.029 0.246-0.282 0.604-0.443 0.979-0.443h22.988c0.375 0 0.731 0.161 0.979 0.443 0.246 0.282 0.358 0.657 0.308 1.029-0.877 6.336-6.372 11.115-12.781 11.115zm-9.892-9.998c1.267 4.313 5.284 7.408 9.893 7.408 4.61 0 8.626-3.096 9.892-7.408h-19.785z" fill="#cbd4dd"/>
  <path id="path98" d="m101.06 140.85h0.016l0.015-0.001h0.001c3.31 0 6.018 2.702 6.018 6.005v15.019c0 3.303-2.708 6.005-6.018 6.005h-0.001l-0.015-0.001h-0.016c-3.31 0-6.018-2.701-6.018-6.004v-15.019c0-3.302 2.707-6.004 6.018-6.004z" fill-rule="evenodd" clip-rule="evenodd" fill="#ecedf6"/>
  <path id="path100" d="m101.09 169.18-0.093-0.004-0.016-0.001h-0.006c-3.954 0-7.232-3.272-7.232-7.296v-15.019c0-4.025 3.281-7.299 7.315-7.299h0.001c4.064 0 7.346 3.273 7.346 7.299v15.019c0 4.025-3.281 7.301-7.315 7.301zm0-27.03c-2.634 0.001-4.751 2.113-4.751 4.71v15.019c0 2.597 2.117 4.709 4.72 4.709l0.054 0.001c2.592-0.012 4.697-2.121 4.697-4.71v-15.019c0-2.596-2.118-4.71-4.72-4.71z" fill="#cbd4dd"/>
  <path id="path102" d="m101.07 159.28c-7.365-0.642-14.729-7.441-14.729-16.121v-16.053h29.457v16.053c0 8.68-7.363 15.48-14.728 16.121z" fill-rule="evenodd" clip-rule="evenodd" fill="#ecedf6"/>
  <path id="path104" d="m101.07 160.58-0.113-0.006c-7.686-0.671-15.913-7.827-15.913-17.412v-16.053c0-0.716 0.581-1.295 1.298-1.295h29.456c0.717 0 1.298 0.579 1.298 1.295v16.053c0 9.585-8.229 16.741-15.912 17.412l-0.114 0.006zm-13.43-32.176v14.758c0 8.118 6.922 14.19 13.431 14.821 6.508-0.631 13.43-6.703 13.43-14.821v-14.758h-26.861zm13.429 24.302c-2.2 0-4.182-1.387-4.929-3.449-0.244-0.673 0.104-1.416 0.778-1.659 0.672-0.244 1.418 0.104 1.661 0.776 0.379 1.041 1.378 1.741 2.489 1.741 1.11 0 2.111-0.7 2.491-1.742 0.245-0.673 0.988-1.02 1.663-0.775 0.674 0.244 1.021 0.987 0.776 1.66-0.749 2.062-2.731 3.448-4.929 3.448z" fill="#cbd4dd"/>
  <path id="path106" d="m107.36 140.55c1.057 0 1.919-0.859 1.919-1.916 0-1.054-0.862-1.915-1.919-1.915-1.058 0-1.92 0.861-1.92 1.915 0.001 1.056 0.863 1.916 1.92 1.916z" fill-rule="evenodd" clip-rule="evenodd" fill="#ecedf6"/>
  <path id="path108" d="m107.36 141.84c-1.773 0-3.217-1.441-3.217-3.212 0-1.77 1.443-3.211 3.217-3.211s3.217 1.441 3.217 3.211-1.443 3.212-3.217 3.212zm0-3.832c-0.343 0-0.622 0.278-0.622 0.62 0 0.343 0.279 0.621 0.622 0.621s0.621-0.278 0.621-0.621c0.001-0.342-0.278-0.62-0.621-0.62z" fill="#cbd4dd"/>
  <path id="path110" d="m94.787 140.55c1.058 0 1.92-0.859 1.92-1.916 0-1.054-0.862-1.915-1.92-1.915s-1.919 0.861-1.919 1.915c0 1.056 0.861 1.916 1.919 1.916z" fill-rule="evenodd" clip-rule="evenodd" fill="#ecedf6"/>
  <path id="path112" d="m94.787 141.84c-1.773 0-3.217-1.441-3.217-3.212 0-1.77 1.443-3.211 3.217-3.211s3.218 1.441 3.218 3.211-1.443 3.212-3.218 3.212zm0-3.832c-0.343 0-0.621 0.278-0.621 0.62 0 0.343 0.278 0.621 0.621 0.621s0.622-0.278 0.622-0.621c0-0.342-0.279-0.62-0.622-0.62z" fill="#cbd4dd"/>
  <path id="path114" d="m86.343 133.59c1.111-2.652 7.782-4.609 10.471-4.609 12.046 0 22.101 7.337 24-10.569-5.302 2.5-11.696-0.871-19.584-1.16-21.567-2.312-16.811 14.889-14.887 16.338z" fill-rule="evenodd" clip-rule="evenodd" fill="#ecedf6"/>
  <path id="path116" d="m86.343 134.88c-0.279 0-0.554-0.09-0.782-0.261-1.548-1.166-3.301-6.612-1.727-11.305 1.16-3.456 4.467-7.576 13.637-7.576 1.22 0 2.531 0.074 3.897 0.221 2.96 0.104 5.825 0.668 8.353 1.165 2.366 0.465 4.602 0.904 6.597 0.904 1.521 0 2.81-0.26 3.941-0.793 0.426-0.199 0.926-0.157 1.306 0.115 0.384 0.271 0.59 0.727 0.54 1.192-0.983 9.264-4.21 13.216-10.789 13.216-1.979 0-4.129-0.329-6.404-0.678-2.6-0.398-5.287-0.811-8.098-0.811-2.685 0-8.497 1.961-9.274 3.814-0.154 0.369-0.471 0.646-0.858 0.751-0.113 0.031-0.226 0.046-0.339 0.046zm11.128-16.551c-5.849 0-9.547 1.789-10.993 5.317-1.129 2.756-0.593 5.932 0.034 7.68 2.672-2.303 7.972-3.646 10.302-3.646 3.008 0 5.922 0.446 8.492 0.841 2.175 0.333 4.229 0.647 6.01 0.647 3.311 0 6.625-0.724 7.938-8.861-0.911 0.209-1.884 0.313-2.937 0.313-2.248 0-4.604-0.464-7.098-0.954-2.553-0.501-5.191-1.021-8.037-1.124-1.366-0.145-2.584-0.213-3.711-0.213zm-12.808 67.958c-0.717 0-1.298-0.579-1.298-1.295v-12.568c0-0.715 0.581-1.295 1.298-1.295 0.716 0 1.298 0.58 1.298 1.295v12.568c0 0.716-0.582 1.295-1.298 1.295zm32.816 0c-0.716 0-1.298-0.579-1.298-1.295v-12.568c0-0.715 0.582-1.295 1.298-1.295 0.717 0 1.298 0.58 1.298 1.295v12.568c-0.001 0.716-0.582 1.295-1.298 1.295z" fill="#cbd4dd"/>
  <path id="path118" d="m552.76 242.79h-3.612c-0.689 0-1.248-0.559-1.248-1.245 0-0.688 0.559-1.247 1.248-1.247h3.612c0.689 0 1.249 0.559 1.249 1.247 0 0.686-0.56 1.245-1.249 1.245zm-8.605 0h-4.991c-0.689 0-1.249-0.559-1.249-1.245 0-0.688 0.56-1.247 1.249-1.247h4.991c0.689 0 1.249 0.559 1.249 1.247 0 0.686-0.559 1.245-1.249 1.245zm-9.983 0h-4.991c-0.689 0-1.249-0.559-1.249-1.245 0-0.688 0.56-1.247 1.249-1.247h4.991c0.689 0 1.249 0.559 1.249 1.247 0 0.686-0.56 1.245-1.249 1.245zm-9.984 0h-4.992c-0.688 0-1.248-0.559-1.248-1.245 0-0.688 0.56-1.247 1.248-1.247h4.992c0.689 0 1.248 0.559 1.248 1.247 0.001 0.686-0.558 1.245-1.248 1.245zm-9.983 0h-4.992c-0.688 0-1.248-0.559-1.248-1.245 0-0.688 0.56-1.247 1.248-1.247h4.992c0.688 0 1.248 0.559 1.248 1.247 0 0.686-0.559 1.245-1.248 1.245zm-9.984 0h-4.991c-0.689 0-1.249-0.559-1.249-1.245 0-0.688 0.56-1.247 1.249-1.247h4.991c0.689 0 1.249 0.559 1.249 1.247 0 0.686-0.56 1.245-1.249 1.245zm-9.984 0h-4.991c-0.689 0-1.249-0.559-1.249-1.245 0-0.688 0.56-1.247 1.249-1.247h4.991c0.689 0 1.249 0.559 1.249 1.247 0 0.686-0.559 1.245-1.249 1.245zm-9.983 0h-4.992c-0.688 0-1.248-0.559-1.248-1.245 0-0.688 0.56-1.247 1.248-1.247h4.992c0.689 0 1.248 0.559 1.248 1.247 0 0.686-0.559 1.245-1.248 1.245zm-9.984 0h-4.992c-0.689 0-1.248-0.559-1.248-1.245 0-0.688 0.559-1.247 1.248-1.247h4.992c0.688 0 1.248 0.559 1.248 1.247 0.001 0.686-0.559 1.245-1.248 1.245zm-9.985 0h-4.991c-0.689 0-1.249-0.559-1.249-1.245 0-0.688 0.56-1.247 1.249-1.247h4.991c0.689 0 1.249 0.559 1.249 1.247 0 0.686-0.559 1.245-1.249 1.245zm-9.983 0h-4.992c-0.688 0-1.248-0.559-1.248-1.245 0-0.688 0.56-1.247 1.248-1.247h4.992c0.689 0 1.249 0.559 1.249 1.247 0 0.686-0.56 1.245-1.249 1.245zm-9.984 0h-4.992c-0.688 0-1.248-0.559-1.248-1.245 0-0.688 0.56-1.247 1.248-1.247h4.992c0.688 0 1.248 0.559 1.248 1.247 0 0.686-0.559 1.245-1.248 1.245zm-9.983 0h-4.992c-0.689 0-1.249-0.559-1.249-1.245 0-0.688 0.56-1.247 1.249-1.247h4.992c0.688 0 1.248 0.559 1.248 1.247 0 0.686-0.56 1.245-1.248 1.245zm-9.984 0h-4.991c-0.689 0-1.249-0.559-1.249-1.245 0-0.688 0.56-1.247 1.249-1.247h4.991c0.689 0 1.249 0.559 1.249 1.247 0 0.686-0.56 1.245-1.249 1.245zm-9.984 0h-4.992c-0.688 0-1.248-0.559-1.248-1.245 0-0.688 0.56-1.247 1.248-1.247h4.992c0.689 0 1.249 0.559 1.249 1.247 0 0.686-0.559 1.245-1.249 1.245zm-9.983 0h-4.992c-0.688 0-1.248-0.559-1.248-1.245 0-0.688 0.56-1.247 1.248-1.247h4.992c0.688 0 1.248 0.559 1.248 1.247 0 0.686-0.56 1.245-1.248 1.245zm-9.984 0h-4.992c-0.689 0-1.249-0.559-1.249-1.245 0-0.688 0.56-1.247 1.249-1.247h4.992c0.688 0 1.248 0.559 1.248 1.247 0 0.686-0.559 1.245-1.248 1.245zm-9.984 0h-4.991c-0.689 0-1.249-0.559-1.249-1.245 0-0.688 0.56-1.247 1.249-1.247h4.991c0.689 0 1.249 0.559 1.249 1.247 0 0.686-0.56 1.245-1.249 1.245zm-9.983 0h-4.991c-0.689 0-1.249-0.559-1.249-1.245 0-0.688 0.56-1.247 1.249-1.247h4.991c0.689 0 1.249 0.559 1.249 1.247 0 0.686-0.56 1.245-1.249 1.245zm-9.984 0h-4.993c-0.688 0-1.248-0.559-1.248-1.245 0-0.688 0.56-1.247 1.248-1.247h4.993c0.688 0 1.248 0.559 1.248 1.247 0 0.686-0.559 1.245-1.248 1.245zm-9.985 0h-4.991c-0.689 0-1.249-0.559-1.249-1.245 0-0.688 0.56-1.247 1.249-1.247h4.991c0.689 0 1.249 0.559 1.249 1.247 0 0.686-0.56 1.245-1.249 1.245zm-9.984 0h-4.991c-0.689 0-1.249-0.559-1.249-1.245 0-0.688 0.56-1.247 1.249-1.247h4.991c0.689 0 1.249 0.559 1.249 1.247 0 0.686-0.559 1.245-1.249 1.245zm-9.983 0h-4.992c-0.688 0-1.248-0.559-1.248-1.245 0-0.688 0.56-1.247 1.248-1.247h4.992c0.689 0 1.248 0.559 1.248 1.247 0 0.686-0.558 1.245-1.248 1.245zm-9.983 0h-4.992c-0.688 0-1.248-0.559-1.248-1.245 0-0.688 0.56-1.247 1.248-1.247h4.992c0.688 0 1.248 0.559 1.248 1.247 0 0.686-0.56 1.245-1.248 1.245zm-9.984 0h-4.992c-0.689 0-1.249-0.559-1.249-1.245 0-0.688 0.56-1.247 1.249-1.247h4.992c0.688 0 1.248 0.559 1.248 1.247 0 0.686-0.559 1.245-1.248 1.245zm-7.724-6.583c-0.32 0-0.639-0.121-0.883-0.364-0.487-0.486-0.487-1.275 0-1.762l3.53-3.523c0.488-0.485 1.277-0.485 1.766 0 0.487 0.486 0.487 1.275 0 1.762l-3.53 3.523c-0.245 0.243-0.563 0.364-0.883 0.364zm7.06-7.045c-0.32 0-0.639-0.123-0.883-0.366-0.487-0.486-0.487-1.275 0-1.762l3.528-3.521c0.489-0.485 1.277-0.485 1.766 0 0.487 0.486 0.487 1.275 0 1.762l-3.528 3.521c-0.244 0.243-0.563 0.366-0.883 0.366zm7.059-7.046c-0.319 0-0.639-0.122-0.883-0.365-0.487-0.486-0.487-1.275 0-1.762l3.53-3.523c0.488-0.485 1.277-0.485 1.766 0 0.487 0.486 0.487 1.275 0 1.762l-3.53 3.523c-0.245 0.243-0.563 0.365-0.883 0.365zm7.06-7.046c-0.32 0-0.639-0.123-0.883-0.366-0.487-0.486-0.487-1.275 0-1.762l3.529-3.521c0.489-0.485 1.277-0.485 1.766 0 0.487 0.487 0.487 1.276 0 1.763l-3.529 3.521c-0.244 0.242-0.563 0.365-0.883 0.365zm7.059-7.045c-0.32 0-0.639-0.123-0.883-0.365-0.487-0.486-0.487-1.276 0-1.763l3.53-3.523c0.488-0.484 1.277-0.484 1.766 0 0.487 0.486 0.487 1.276 0 1.763l-3.53 3.523c-0.244 0.242-0.563 0.365-0.883 0.365zm7.06-7.046c-0.32 0-0.639-0.123-0.883-0.364-0.487-0.488-0.487-1.277 0-1.763l3.529-3.522c0.49-0.485 1.278-0.484 1.766 0 0.487 0.487 0.487 1.276 0 1.763l-3.529 3.522c-0.245 0.24-0.563 0.364-0.883 0.364zm7.06-7.045c-0.319 0-0.639-0.123-0.883-0.365-0.487-0.486-0.487-1.275 0-1.763l3.529-3.523c0.488-0.484 1.276-0.484 1.766 0 0.487 0.486 0.487 1.275 0 1.763l-3.529 3.523c-0.244 0.242-0.563 0.365-0.883 0.365zm7.059-7.047c-0.319 0-0.638-0.122-0.883-0.364-0.487-0.487-0.487-1.276 0-1.763l3.53-3.522c0.488-0.485 1.277-0.485 1.766 0 0.487 0.488 0.487 1.276 0 1.763l-3.53 3.522c-0.245 0.242-0.563 0.364-0.883 0.364zm7.06-7.045c-0.32 0-0.639-0.122-0.883-0.365-0.487-0.486-0.487-1.275 0-1.762l3.53-3.522c0.488-0.485 1.277-0.485 1.766 0 0.487 0.485 0.487 1.275 0 1.761l-3.53 3.523c-0.244 0.243-0.563 0.365-0.883 0.365zm7.059-7.047c-0.319 0-0.639-0.121-0.883-0.364-0.487-0.487-0.487-1.275 0-1.762l3.53-3.522c0.488-0.485 1.277-0.485 1.766 0 0.487 0.487 0.487 1.275 0 1.762l-3.53 3.522c-0.245 0.243-0.563 0.364-0.883 0.364zm7.06-7.045c-0.32 0-0.639-0.122-0.883-0.365-0.487-0.486-0.487-1.275 0-1.762l3.53-3.522c0.488-0.485 1.276-0.485 1.766 0 0.486 0.486 0.486 1.275 0 1.762l-3.53 3.522c-0.244 0.243-0.563 0.365-0.883 0.365zm7.06-7.046c-0.319 0-0.639-0.121-0.883-0.365-0.487-0.485-0.487-1.274 0-1.761l3.529-3.522c0.488-0.486 1.277-0.487 1.766-0.001 0.487 0.486 0.487 1.274 0 1.761l-3.529 3.523c-0.244 0.243-0.563 0.365-0.883 0.365zm7.059-7.046c-0.32 0-0.639-0.121-0.883-0.364-0.487-0.486-0.487-1.275 0-1.762l3.529-3.522c0.489-0.486 1.277-0.486 1.766 0 0.487 0.486 0.487 1.274 0 1.761l-3.529 3.523c-0.244 0.243-0.563 0.364-0.883 0.364zm7.06-7.045c-0.319 0-0.639-0.122-0.883-0.365-0.487-0.486-0.487-1.275 0-1.762l3.53-3.522c0.488-0.486 1.277-0.486 1.766 0 0.487 0.486 0.487 1.274 0 1.761l-3.53 3.523c-0.244 0.243-0.563 0.365-0.883 0.365zm7.06-7.046c-0.32 0-0.639-0.122-0.883-0.365-0.487-0.486-0.487-1.275 0-1.762l3.529-3.522c0.488-0.486 1.277-0.486 1.766 0 0.487 0.486 0.487 1.274 0 1.761l-3.529 3.523c-0.246 0.243-0.564 0.365-0.883 0.365zm7.059-7.046c-0.319 0-0.639-0.122-0.883-0.365-0.487-0.486-0.487-1.274 0-1.761l3.53-3.523c0.488-0.486 1.277-0.486 1.766 0 0.487 0.486 0.487 1.274 0 1.762l-3.53 3.522c-0.244 0.243-0.563 0.365-0.883 0.365zm7.061-7.045c-0.32 0-0.639-0.121-0.883-0.364-0.487-0.486-0.487-1.275 0-1.762l3.528-3.523c0.488-0.486 1.277-0.486 1.766 0 0.487 0.486 0.487 1.275 0 1.762l-3.528 3.522c-0.245 0.243-0.564 0.365-0.883 0.365zm7.058-7.046c-0.32 0-0.639-0.122-0.883-0.365-0.487-0.485-0.487-1.274 0-1.761l3.53-3.523c0.488-0.486 1.277-0.486 1.766 0 0.487 0.486 0.487 1.275 0 1.762l-3.53 3.522c-0.244 0.243-0.562 0.365-0.883 0.365zm7.061-7.045c-0.32 0-0.639-0.122-0.883-0.365-0.487-0.486-0.487-1.275 0-1.762l3.529-3.523c0.488-0.485 1.277-0.485 1.766 0 0.487 0.486 0.487 1.275 0 1.762l-3.53 3.523c-0.244 0.243-0.563 0.365-0.882 0.365zm7.058-7.047c-0.32 0-0.639-0.122-0.883-0.365-0.487-0.486-0.487-1.274 0-1.762l3.53-3.522c0.488-0.486 1.276-0.485 1.766 0.001 0.487 0.486 0.487 1.274 0 1.761l-3.53 3.523c-0.244 0.243-0.563 0.364-0.883 0.364zm7.06-7.046c-0.319 0-0.639-0.122-0.883-0.365-0.487-0.486-0.487-1.274 0-1.762l3.53-3.521c0.488-0.486 1.277-0.486 1.766 0 0.487 0.486 0.487 1.274 0 1.762l-3.53 3.522c-0.244 0.243-0.563 0.364-0.883 0.364zm7.061-7.046c-0.32 0-0.639-0.121-0.883-0.364-0.487-0.486-0.487-1.275 0-1.762l3.528-3.522c0.489-0.486 1.277-0.486 1.766 0 0.487 0.486 0.487 1.275 0 1.761l-3.528 3.523c-0.245 0.243-0.564 0.364-0.883 0.364zm7.058-7.046c-0.319 0-0.639-0.121-0.883-0.364-0.487-0.486-0.487-1.275 0-1.762l3.53-3.522c0.488-0.486 1.277-0.486 1.766 0 0.487 0.486 0.487 1.275 0 1.762l-3.53 3.522c-0.244 0.243-0.563 0.364-0.883 0.364zm7.061-7.045c-0.32 0-0.639-0.122-0.883-0.365-0.487-0.486-0.487-1.275 0-1.762l3.53-3.522c0.488-0.485 1.276-0.486 1.766 0 0.486 0.486 0.486 1.275 0 1.762l-3.53 3.522c-0.245 0.243-0.564 0.365-0.883 0.365zm7.058-7.046c-0.319 0-0.639-0.122-0.883-0.365-0.487-0.486-0.487-1.275 0-1.762l2.555-2.549c0.488-0.485 1.277-0.486 1.766 0 0.487 0.487 0.487 1.275 0 1.762l-2.555 2.549c-0.244 0.243-0.562 0.365-0.883 0.365zm-172.16 175.68h-4.992c-0.689 0-1.249-0.559-1.249-1.245 0-0.688 0.56-1.247 1.249-1.247h4.992c0.688 0 1.248 0.559 1.248 1.247 0 0.686-0.559 1.245-1.248 1.245zm-9.984 0h-4.991c-0.689 0-1.249-0.559-1.249-1.245 0-0.688 0.56-1.247 1.249-1.247h4.991c0.689 0 1.249 0.559 1.249 1.247 0 0.686-0.56 1.245-1.249 1.245zm-9.984 0h-4.992c-0.688 0-1.248-0.559-1.248-1.245 0-0.688 0.56-1.247 1.248-1.247h4.992c0.689 0 1.249 0.559 1.249 1.247 0 0.686-0.559 1.245-1.249 1.245zm-9.983 0h-4.992c-0.688 0-1.248-0.559-1.248-1.245 0-0.688 0.56-1.247 1.248-1.247h4.992c0.688 0 1.248 0.559 1.248 1.247 0 0.686-0.56 1.245-1.248 1.245zm-9.983 0h-4.992c-0.689 0-1.249-0.559-1.249-1.245 0-0.688 0.56-1.247 1.249-1.247h4.992c0.688 0 1.248 0.559 1.248 1.247 0 0.686-0.56 1.245-1.248 1.245zm-9.985 0h-4.992c-0.689 0-1.249-0.559-1.249-1.245 0-0.688 0.56-1.247 1.249-1.247h4.992c0.689 0 1.249 0.559 1.249 1.247 0 0.686-0.559 1.245-1.249 1.245zm-9.984 0h-4.992c-0.688 0-1.248-0.559-1.248-1.245 0-0.688 0.56-1.247 1.248-1.247h4.992c0.688 0 1.248 0.559 1.248 1.247 0 0.686-0.56 1.245-1.248 1.245zm-9.984 0h-4.992c-0.689 0-1.248-0.559-1.248-1.245 0-0.688 0.559-1.247 1.248-1.247h4.992c0.688 0 1.248 0.559 1.248 1.247 0.001 0.686-0.559 1.245-1.248 1.245zm-9.984 0h-4.991c-0.689 0-1.249-0.559-1.249-1.245 0-0.688 0.56-1.247 1.249-1.247h4.991c0.689 0 1.249 0.559 1.249 1.247 0 0.686-0.559 1.245-1.249 1.245zm-9.983 0h-4.991c-0.689 0-1.249-0.559-1.249-1.245 0-0.688 0.56-1.247 1.249-1.247h4.991c0.689 0 1.249 0.559 1.249 1.247 0 0.686-0.56 1.245-1.249 1.245zm-9.984 0h-4.992c-0.688 0-1.248-0.559-1.248-1.245 0-0.688 0.56-1.247 1.248-1.247h4.992c0.689 0 1.248 0.559 1.248 1.247 0 0.686-0.558 1.245-1.248 1.245zm-9.983 0h-4.992c-0.688 0-1.248-0.559-1.248-1.245 0-0.688 0.56-1.247 1.248-1.247h4.992c0.688 0 1.248 0.559 1.248 1.247 0 0.686-0.56 1.245-1.248 1.245zm-9.984 0h-4.991c-0.689 0-1.249-0.559-1.249-1.245 0-0.688 0.56-1.247 1.249-1.247h4.991c0.689 0 1.249 0.559 1.249 1.247 0 0.686-0.56 1.245-1.249 1.245zm-9.984 0h-4.991c-0.689 0-1.249-0.559-1.249-1.245 0-0.688 0.56-1.247 1.249-1.247h4.991c0.689 0 1.249 0.559 1.249 1.247 0 0.686-0.559 1.245-1.249 1.245zm-9.983 0h-4.992c-0.688 0-1.248-0.559-1.248-1.245 0-0.688 0.56-1.247 1.248-1.247h4.992c0.689 0 1.248 0.559 1.248 1.247 0 0.686-0.559 1.245-1.248 1.245zm-9.984 0h-4.993c-0.689 0-1.249-0.559-1.249-1.245 0-0.688 0.56-1.247 1.249-1.247h4.993c0.688 0 1.248 0.559 1.248 1.247 0 0.686-0.559 1.245-1.248 1.245zm-9.985 0h-4.991c-0.689 0-1.249-0.559-1.249-1.245 0-0.688 0.56-1.247 1.249-1.247h4.991c0.689 0 1.249 0.559 1.249 1.247 0 0.686-0.56 1.245-1.249 1.245zm-9.983 0h-4.992c-0.688 0-1.248-0.559-1.248-1.245 0-0.688 0.56-1.247 1.248-1.247h4.992c0.689 0 1.249 0.559 1.249 1.247 0 0.686-0.56 1.245-1.249 1.245zm-9.984 0h-4.992c-0.688 0-1.248-0.559-1.248-1.245 0-0.688 0.56-1.247 1.248-1.247h4.992c0.688 0 1.248 0.559 1.248 1.247 0 0.686-0.559 1.245-1.248 1.245zm-9.983 0h-4.992c-0.689 0-1.248-0.559-1.248-1.245 0-0.688 0.559-1.247 1.248-1.247h4.992c0.688 0 1.248 0.559 1.248 1.247 0 0.686-0.56 1.245-1.248 1.245zm-9.985 0h-4.991c-0.689 0-1.249-0.559-1.249-1.245 0-0.688 0.56-1.247 1.249-1.247h4.991c0.689 0 1.249 0.559 1.249 1.247 0 0.686-0.559 1.245-1.249 1.245zm-9.983 0h-4.991c-0.689 0-1.249-0.559-1.249-1.245 0-0.688 0.56-1.247 1.249-1.247h4.991c0.689 0 1.249 0.559 1.249 1.247 0 0.686-0.56 1.245-1.249 1.245zm-9.983 0h-4.992c-0.688 0-1.248-0.559-1.248-1.245 0-0.688 0.56-1.247 1.248-1.247h4.992c0.688 0 1.248 0.559 1.248 1.247 0 0.686-0.56 1.245-1.248 1.245zm-9.984 0h-4.992c-0.689 0-1.248-0.559-1.248-1.245 0-0.688 0.559-1.247 1.248-1.247h4.992c0.688 0 1.248 0.559 1.248 1.247 0 0.686-0.559 1.245-1.248 1.245zm-9.984 0h-3.611c-0.688 0-1.248-0.559-1.248-1.245 0-0.688 0.56-1.247 1.248-1.247h3.611c0.689 0 1.249 0.559 1.249 1.247 0 0.686-0.56 1.245-1.249 1.245zm242.34-6.583c-0.32 0-0.639-0.121-0.883-0.364l-3.53-3.523c-0.487-0.486-0.487-1.275 0-1.762 0.488-0.485 1.277-0.485 1.766 0l3.53 3.523c0.487 0.486 0.487 1.275 0 1.762-0.245 0.243-0.563 0.364-0.883 0.364zm-7.061-7.045c-0.319 0-0.638-0.123-0.882-0.366l-3.529-3.521c-0.487-0.486-0.487-1.275 0-1.762 0.488-0.485 1.277-0.485 1.766 0l3.528 3.521c0.487 0.486 0.487 1.275 0 1.762-0.244 0.243-0.563 0.366-0.883 0.366zm-7.058-7.046c-0.319 0-0.639-0.122-0.883-0.365l-3.53-3.523c-0.487-0.486-0.487-1.275 0-1.762 0.489-0.485 1.277-0.485 1.766 0l3.53 3.523c0.487 0.486 0.487 1.275 0 1.762-0.245 0.243-0.563 0.365-0.883 0.365zm-7.06-7.046c-0.32 0-0.639-0.123-0.883-0.366l-3.529-3.521c-0.487-0.486-0.487-1.276 0-1.763 0.488-0.485 1.277-0.485 1.766 0l3.529 3.521c0.487 0.486 0.487 1.275 0 1.762-0.244 0.244-0.564 0.367-0.883 0.367zm-7.06-7.045c-0.319 0-0.639-0.123-0.883-0.365l-3.529-3.523c-0.487-0.486-0.487-1.276 0-1.763 0.488-0.484 1.276-0.484 1.765 0l3.53 3.523c0.487 0.486 0.487 1.276 0 1.763-0.244 0.242-0.562 0.365-0.883 0.365zm-7.059-7.046c-0.32 0-0.639-0.123-0.883-0.364l-3.53-3.523c-0.487-0.486-0.487-1.276 0-1.763 0.488-0.485 1.277-0.485 1.766 0l3.53 3.523c0.487 0.485 0.487 1.276 0 1.763-0.245 0.24-0.564 0.364-0.883 0.364zm-7.06-7.045c-0.319 0-0.639-0.123-0.883-0.365l-3.529-3.523c-0.487-0.486-0.487-1.276 0-1.763 0.488-0.484 1.276-0.484 1.766 0l3.529 3.523c0.487 0.486 0.487 1.276 0 1.763-0.244 0.242-0.562 0.365-0.883 0.365zm-7.059-7.047c-0.32 0-0.639-0.122-0.883-0.364l-3.71-3.47c-0.487-0.486-0.487-1.275 0-1.763 0.488-0.485 1.277-0.485 1.766 0l3.53 3.523c0.487 0.486 0.487 1.276 0 1.763-0.245 0.242-0.564 0.364-0.883 0.364zm-7.059-7.045c-0.32 0-0.639-0.122-0.883-0.365l-3.53-3.523c-0.487-0.485-0.487-1.275 0-1.761 0.488-0.485 1.277-0.485 1.766 0l3.529 3.522c0.487 0.486 0.487 1.275 0 1.762-0.244 0.243-0.563 0.365-0.882 0.365zm-7.06-7.047c-0.32 0-0.639-0.121-0.883-0.364l-3.53-3.523c-0.487-0.486-0.487-1.275 0-1.762 0.488-0.485 1.277-0.485 1.766 0l3.53 3.523c0.487 0.486 0.487 1.275 0 1.762-0.245 0.243-0.563 0.364-0.883 0.364zm-7.061-7.046c-0.319 0-0.638-0.122-0.883-0.365l-3.528-3.521c-0.487-0.486-0.487-1.275 0-1.762 0.488-0.485 1.277-0.485 1.766 0l3.528 3.521c0.487 0.486 0.487 1.275 0 1.762-0.244 0.243-0.563 0.365-0.883 0.365zm-7.059-7.046c-0.319 0-0.639-0.121-0.883-0.364l-3.53-3.524c-0.487-0.485-0.487-1.273 0-1.76 0.488-0.486 1.277-0.486 1.766 0l3.53 3.522c0.487 0.487 0.487 1.274 0 1.762-0.244 0.243-0.562 0.364-0.883 0.364zm-7.059-7.045c-0.32 0-0.639-0.122-0.883-0.365l-3.529-3.523c-0.487-0.486-0.487-1.275 0-1.762 0.488-0.486 1.277-0.485 1.766 0.001l3.529 3.523c0.487 0.486 0.487 1.275 0 1.762-0.246 0.243-0.564 0.364-0.883 0.364zm-7.06-7.046c-0.319 0-0.639-0.122-0.883-0.365l-3.53-3.523c-0.486-0.486-0.486-1.274 0-1.761 0.489-0.486 1.277-0.486 1.766 0l3.53 3.523c0.487 0.486 0.487 1.274 0 1.761-0.244 0.243-0.562 0.365-0.883 0.365zm-7.059-7.046c-0.32 0-0.639-0.122-0.883-0.365l-3.53-3.523c-0.487-0.485-0.487-1.274 0-1.761 0.488-0.486 1.277-0.486 1.766 0l3.53 3.522c0.487 0.486 0.487 1.275 0 1.762-0.245 0.243-0.564 0.365-0.883 0.365zm-7.06-7.045c-0.319 0-0.639-0.122-0.883-0.365l-3.529-3.521c-0.487-0.487-0.487-1.275 0-1.762 0.488-0.486 1.276-0.487 1.766 0l3.529 3.521c0.487 0.487 0.487 1.275 0 1.762-0.244 0.242-0.563 0.365-0.883 0.365zm-7.059-7.046c-0.32 0-0.639-0.121-0.883-0.364l-3.53-3.522c-0.487-0.487-0.487-1.275 0-1.762 0.488-0.486 1.277-0.487 1.766-0.001l3.53 3.522c0.487 0.487 0.487 1.275 0 1.762-0.245 0.243-0.564 0.365-0.883 0.365zm-7.06-7.046c-0.319 0-0.638-0.121-0.883-0.364l-3.529-3.523c-0.487-0.486-0.487-1.274 0-1.761 0.488-0.486 1.277-0.487 1.766-0.001l3.529 3.522c0.487 0.487 0.487 1.275 0 1.762-0.244 0.243-0.563 0.365-0.883 0.365zm-7.06-7.046c-0.32 0-0.639-0.122-0.883-0.365l-3.53-3.522c-0.487-0.486-0.487-1.275 0-1.762 0.488-0.486 1.277-0.486 1.766 0l3.53 3.523c0.487 0.486 0.487 1.274 0 1.761-0.244 0.243-0.563 0.365-0.883 0.365zm-7.06-7.046c-0.319 0-0.639-0.122-0.883-0.365l-3.528-3.522c-0.487-0.486-0.487-1.275 0-1.762 0.488-0.486 1.277-0.486 1.766 0l3.528 3.523c0.487 0.486 0.487 1.275 0 1.762-0.244 0.243-0.563 0.364-0.883 0.364zm-7.059-7.045c-0.319 0-0.639-0.123-0.883-0.366l-3.53-3.522c-0.487-0.486-0.487-1.274 0-1.761 0.488-0.486 1.277-0.486 1.766 0l3.53 3.522c0.487 0.487 0.487 1.275 0 1.761-0.244 0.243-0.562 0.366-0.883 0.366zm-7.059-7.046c-0.32 0-0.639-0.122-0.883-0.365l-3.529-3.523c-0.487-0.486-0.487-1.275 0-1.762 0.488-0.486 1.277-0.485 1.766 0.001l3.529 3.523c0.486 0.486 0.486 1.275 0 1.762-0.246 0.243-0.564 0.364-0.883 0.364zm-7.06-7.046c-0.319 0-0.639-0.122-0.883-0.365l-3.53-3.523c-0.487-0.486-0.487-1.274 0-1.761 0.489-0.486 1.277-0.486 1.766 0l3.53 3.523c0.487 0.486 0.487 1.274 0 1.761-0.244 0.243-0.563 0.365-0.883 0.365zm-7.059-7.046c-0.32 0-0.639-0.122-0.883-0.365l-3.53-3.522c-0.487-0.487-0.487-1.275 0-1.762 0.488-0.486 1.277-0.486 1.766 0l3.53 3.522c0.487 0.486 0.487 1.275 0 1.762-0.245 0.243-0.564 0.365-0.883 0.365zm-7.06-7.046c-0.319 0-0.639-0.122-0.883-0.365l-2.553-2.548c-0.487-0.486-0.487-1.274 0-1.762 0.488-0.486 1.277-0.486 1.766 0l2.553 2.548c0.487 0.486 0.487 1.275 0 1.762-0.244 0.243-0.563 0.365-0.883 0.365zm176.02 166.37c-0.689 0-1.248-0.559-1.248-1.247v-4.981c0-0.688 0.559-1.246 1.248-1.246s1.249 0.559 1.249 1.246v4.981c0 0.689-0.559 1.247-1.249 1.247zm0-9.963c-0.689 0-1.248-0.559-1.248-1.247v-4.982c0-0.687 0.559-1.245 1.248-1.245s1.249 0.559 1.249 1.245v4.982c0 0.688-0.559 1.247-1.249 1.247zm0-9.965c-0.689 0-1.248-0.559-1.248-1.246v-4.982c0-0.687 0.559-1.245 1.248-1.245s1.249 0.559 1.249 1.245v4.982c0 0.687-0.559 1.246-1.249 1.246zm0-9.964c-0.689 0-1.248-0.559-1.248-1.246v-4.982c0-0.688 0.559-1.246 1.248-1.246s1.249 0.559 1.249 1.246v4.982c0 0.687-0.559 1.246-1.249 1.246zm0-9.964c-0.689 0-1.248-0.559-1.248-1.247v-4.981c0-0.688 0.559-1.246 1.248-1.246s1.249 0.559 1.249 1.246v4.981c0 0.688-0.559 1.247-1.249 1.247zm0-9.964c-0.689 0-1.248-0.559-1.248-1.247v-4.983c0-0.688 0.559-1.245 1.248-1.245s1.249 0.558 1.249 1.245v4.983c0 0.689-0.559 1.247-1.249 1.247zm0-9.966c-0.689 0-1.248-0.559-1.248-1.246v-4.982c0-0.688 0.559-1.245 1.248-1.245s1.249 0.557 1.249 1.245v4.982c0 0.688-0.559 1.246-1.249 1.246zm0-9.964c-0.689 0-1.248-0.559-1.248-1.247v-4.981c0-0.688 0.559-1.245 1.248-1.245s1.249 0.558 1.249 1.245v4.981c0 0.689-0.559 1.247-1.249 1.247zm0-9.964c-0.689 0-1.248-0.558-1.248-1.246v-4.981c0-0.688 0.559-1.246 1.248-1.246s1.249 0.559 1.249 1.246v4.981c0 0.688-0.559 1.246-1.249 1.246zm0-9.964c-0.689 0-1.248-0.559-1.248-1.246v-4.981c0-0.688 0.559-1.246 1.248-1.246s1.249 0.558 1.249 1.246v4.981c0 0.687-0.559 1.246-1.249 1.246zm0-9.965c-0.689 0-1.248-0.558-1.248-1.245v-4.982c0-0.688 0.559-1.245 1.248-1.245s1.249 0.558 1.249 1.245v4.982c0 0.687-0.559 1.245-1.249 1.245zm0-9.964c-0.689 0-1.248-0.558-1.248-1.245v-4.982c0-0.688 0.559-1.246 1.248-1.246s1.249 0.559 1.249 1.246v4.982c0 0.687-0.559 1.245-1.249 1.245zm0-9.965c-0.689 0-1.248-0.557-1.248-1.245v-4.982c0-0.688 0.559-1.245 1.248-1.245s1.249 0.558 1.249 1.245v4.982c0 0.689-0.559 1.245-1.249 1.245zm0-9.964c-0.689 0-1.248-0.558-1.248-1.246v-4.981c0-0.688 0.559-1.246 1.248-1.246s1.249 0.558 1.249 1.246v4.981c0 0.689-0.559 1.246-1.249 1.246zm0-9.965c-0.689 0-1.248-0.558-1.248-1.245v-4.982c0-0.688 0.559-1.245 1.248-1.245s1.249 0.558 1.249 1.245v4.982c0 0.688-0.559 1.245-1.249 1.245zm0-9.963c-0.689 0-1.248-0.558-1.248-1.245v-4.982c0-0.688 0.559-1.245 1.248-1.245s1.249 0.558 1.249 1.245v4.982c0 0.687-0.559 1.245-1.249 1.245zm0-9.964c-0.689 0-1.248-0.558-1.248-1.246v-4.981c0-0.688 0.559-1.246 1.248-1.246s1.249 0.559 1.249 1.246v4.981c0 0.688-0.559 1.246-1.249 1.246zm0-9.964c-0.689 0-1.248-0.559-1.248-1.246v-4.981c0-0.688 0.559-1.246 1.248-1.246s1.249 0.559 1.249 1.246v4.981c0 0.687-0.559 1.246-1.249 1.246zm0-9.965c-0.689 0-1.248-0.558-1.248-1.245v-4.982c0-0.688 0.559-1.246 1.248-1.246s1.249 0.558 1.249 1.246v4.982c0 0.687-0.559 1.245-1.249 1.245zm0-9.964c-0.689 0-1.248-0.559-1.248-1.246v-4.981c0-0.688 0.559-1.246 1.248-1.246s1.249 0.558 1.249 1.246v4.981c0 0.688-0.559 1.246-1.249 1.246zm0-9.965c-0.689 0-1.248-0.558-1.248-1.246v-4.981c0-0.688 0.559-1.246 1.248-1.246s1.249 0.559 1.249 1.246v4.981c0 0.689-0.559 1.246-1.249 1.246zm0-9.964c-0.689 0-1.248-0.558-1.248-1.246v-4.981c0-0.688 0.559-1.246 1.248-1.246s1.249 0.558 1.249 1.246v4.981c0 0.689-0.559 1.246-1.249 1.246zm0-9.964c-0.689 0-1.248-0.558-1.248-1.245v-4.983c0-0.688 0.559-1.245 1.248-1.245s1.249 0.558 1.249 1.245v4.982c0 0.688-0.559 1.246-1.249 1.246zm0-9.964c-0.689 0-1.248-0.558-1.248-1.245v-4.982c0-0.688 0.559-1.245 1.248-1.245s1.249 0.558 1.249 1.245v4.982c0 0.687-0.559 1.245-1.249 1.245zm0-9.964c-0.689 0-1.248-0.558-1.248-1.246v-3.605c0-0.688 0.559-1.245 1.248-1.245s1.249 0.558 1.249 1.245v3.605c0 0.688-0.559 1.246-1.249 1.246z" fill="#536b8b"/>
  <path id="path120" d="m161.36 137.88h304.09v207.33h-304.09z" fill-rule="evenodd" clip-rule="evenodd" fill="#96a0bb"/>
  <path id="path122" d="m465.45 346.5h-304.09c-0.717 0-1.298-0.58-1.298-1.296v-207.33c0-0.716 0.581-1.295 1.298-1.295h304.09c0.717 0 1.298 0.579 1.298 1.295v207.33c0 0.716-0.581 1.296-1.298 1.296zm-302.79-2.591h301.49v-204.74h-301.49v204.74z" fill="#536b8b"/>
  <path id="path124" d="m180.5 164.67h265.8v155.35h-265.8z" fill-rule="evenodd" clip-rule="evenodd" fill="#5285c4"/>
  <path id="path126" d="m446.3 321.32h-265.8c-0.717 0-1.298-0.58-1.298-1.295v-155.35c0-0.715 0.581-1.296 1.298-1.296h265.8c0.716 0 1.297 0.581 1.297 1.296v155.35c0 0.715-0.581 1.295-1.297 1.295zm-264.5-2.59h263.2v-152.76h-263.2v152.76z" fill="#536b8b"/>
  <path id="path128" d="m182.02 318.98 261.5-152.84h-261.5z" fill-rule="evenodd" clip-rule="evenodd" fill="#638dc9"/>
  <path id="path130" d="m128.3 331.71h370.2v13.498c0 7.425-6.084 13.495-13.521 13.495h-343.15c-7.438 0-13.523-6.07-13.523-13.495v-13.498z" fill-rule="evenodd" clip-rule="evenodd" fill="#96a0bb"/>
  <path id="path132" d="m484.98 360h-343.15c-8.173 0-14.821-6.636-14.821-14.791v-13.498c0-0.714 0.582-1.294 1.298-1.294h370.19c0.717 0 1.298 0.58 1.298 1.294v13.498c0 8.155-6.649 14.791-14.819 14.791zm-355.38-26.993v12.202c0 6.728 5.484 12.2 12.226 12.2h343.15c6.74 0 12.224-5.473 12.224-12.2v-12.202h-367.6z" fill="#536b8b"/>
  <path id="path134" d="m497.06 345.77c-0.315 6.352-5.617 11.445-12.055 11.445h-343.18c-6.437 0-11.737-5.094-12.054-11.445h367.29z" fill-rule="evenodd" clip-rule="evenodd" fill="#7a88ab"/>
  <path id="path136" d="m230.4 288.56 137.48-0.382v7.562l-137.48 0.382v-7.562zm0-95.834h142.67v7.563h-142.67v-7.563zm0 47.917h142.81v7.561h-142.81v-7.561zm0 15.972h63.835v7.563h-63.835v-7.563zm72.921 0h27.771v7.563h-27.771v-7.563zm-72.921-31.944h105.43v7.562h-105.43v-7.562zm0-15.973h25.4v7.562h-25.4v-7.562zm120.57 0h37.391v7.562h-37.391v-7.562zm-49.755 0h38.038v7.562h-38.038v-7.562zm-70.815 63.89h156.79v7.562h-156.79v-7.562z" fill-rule="evenodd" clip-rule="evenodd" fill="#537aad"/>
  <path id="path138" d="m230.4 290.86 3.949-2.308-3.949 0.011v2.297zm18.319-10.707 12.938-7.562h-31.257v7.562h18.319zm27.326-15.971 12.938-7.563h-58.583v7.563h45.645zm27.327-15.974 12.938-7.561h-85.91v7.561h72.972zm27.328-15.972 5.13-2.999v-4.563h-105.43v7.562h100.3zm27.325-15.972 12.939-7.562h-19.994v7.562h7.055zm-127.64-23.54h142.67v7.563h-142.67v-7.563zm0 15.972h25.4v7.562h-25.4v-7.562zm70.815 0h38.038v7.562h-38.038v-7.562z" fill-rule="evenodd" clip-rule="evenodd" fill="#5981b1"/>
  <path id="path140" d="m313.4 182.69 25.884 14.916 25.884 14.914-28.666 16.516-11.551-6.656-11.551-6.655-11.55 6.655-11.55 6.656v26.624l11.55 6.656 11.55 6.656 11.551-6.656 11.551-6.656 28.666 16.518-25.884 14.914-25.884 14.915-25.882-14.915-25.884-14.914v-59.658l25.884-14.914z" fill-rule="evenodd" clip-rule="evenodd" fill="#a2baf0"/>
  <path id="path142" d="m313.4 303.25c-0.216 0-0.431-0.056-0.624-0.166l-51.766-29.83c-0.387-0.223-0.625-0.634-0.625-1.078v-59.658c0-0.445 0.238-0.856 0.625-1.08l51.766-29.829c0.386-0.222 0.862-0.222 1.248 0l51.768 29.829c0.386 0.224 0.625 0.635 0.625 1.08 0 0.444-0.239 0.855-0.625 1.079l-28.666 16.517c-0.385 0.222-0.862 0.222-1.247 0l-22.479-12.951-21.852 12.591v25.187l21.852 12.592 22.479-12.952c0.385-0.223 0.862-0.223 1.247 0l28.666 16.518c0.386 0.222 0.625 0.633 0.625 1.079 0 0.444-0.239 0.855-0.625 1.078l-51.768 29.83c-0.192 0.108-0.408 0.164-0.624 0.164zm-50.517-31.794 50.518 29.11 49.271-28.391-26.17-15.079-22.478 12.952c-0.386 0.222-0.862 0.222-1.248 0l-23.101-13.313c-0.386-0.223-0.624-0.633-0.624-1.078v-26.624c0-0.444 0.238-0.855 0.624-1.079l23.101-13.311c0.386-0.223 0.862-0.223 1.248 0l22.478 12.952 26.17-15.079-49.271-28.392-50.518 29.109v58.223z" fill="#536b8b"/>
  <path id="path144" d="m313.4 268.97 11.551-6.656 11.551-6.656 28.666 16.518-25.884 14.914-25.884 14.914z" fill-rule="evenodd" clip-rule="evenodd" fill="#c7d5f6"/>
  <path id="path146" d="m313.4 303.25c-0.216 0-0.431-0.056-0.624-0.166-0.386-0.224-0.624-0.635-0.624-1.079v-33.034c0-0.444 0.238-0.855 0.624-1.079l23.103-13.312c0.385-0.223 0.862-0.223 1.247 0l28.666 16.518c0.386 0.222 0.625 0.633 0.625 1.079 0 0.444-0.239 0.855-0.625 1.078l-51.768 29.829c-0.192 0.11-0.408 0.166-0.624 0.166zm1.249-33.56v30.158l48.022-27.671-26.17-15.079-21.852 12.592z" fill="#536b8b"/>
  <path id="path148" d="m313.4 302-25.882-14.915-25.884-14.914v-59.658l28.666 16.516v26.624l11.55 6.656 11.55 6.656z" fill-rule="evenodd" clip-rule="evenodd" fill="#fff"/>
  <path id="path150" d="m313.4 303.25c-0.216 0-0.431-0.056-0.624-0.166l-51.766-29.83c-0.387-0.223-0.625-0.634-0.625-1.078v-59.658c0-0.445 0.238-0.856 0.625-1.08 0.385-0.221 0.862-0.221 1.247 0l28.666 16.518c0.386 0.224 0.625 0.635 0.625 1.079v25.905l22.476 12.951c0.387 0.224 0.625 0.635 0.625 1.079v33.035c0 0.444-0.238 0.855-0.625 1.079-0.192 0.11-0.408 0.166-0.624 0.166zm-50.517-31.794 49.27 28.392v-30.159l-22.477-12.952c-0.386-0.223-0.624-0.633-0.624-1.078v-25.905l-26.169-15.079v56.781z" fill="#536b8b"/>
  <ellipse id="ellipse152" fill-rule="evenodd" rx="5.363" ry="5.352" cy="150.48" cx="313.4" clip-rule="evenodd" fill="#7a88ab"/>
  <path id="path154" d="m313.4 157.13c-3.673 0-6.661-2.981-6.661-6.647 0-3.665 2.988-6.647 6.661-6.647 3.674 0 6.661 2.982 6.661 6.647 0 3.666-2.987 6.647-6.661 6.647zm0-10.705c-2.241 0-4.065 1.82-4.065 4.058s1.824 4.057 4.065 4.057 4.065-1.818 4.065-4.057c0.001-2.238-1.823-4.058-4.065-4.058z" fill="#536b8b"/>
  <path id="path156" d="m261.12 331.71h104.56v3.813c0 2.098-1.718 3.812-3.819 3.812h-96.927c-2.101 0-3.819-1.714-3.819-3.812v-3.813z" fill-rule="evenodd" clip-rule="evenodd" fill="#96a0bb"/>
  <path id="path158" d="m361.87 340.63h-96.927c-2.822 0-5.117-2.291-5.117-5.107v-3.813c0-0.714 0.581-1.294 1.298-1.294h104.56c0.717 0 1.298 0.58 1.298 1.294v3.813c0 2.816-2.295 5.107-5.117 5.107zm-99.448-7.625v2.518c0 1.388 1.131 2.517 2.521 2.517h96.927c1.391 0 2.522-1.129 2.522-2.517v-2.518h-101.97z" fill="#536b8b"/>
  <ellipse id="ellipse160" fill-rule="evenodd" rx="5.956" ry="5.945" cy="97.283" cx="168.86" clip-rule="evenodd" fill="#fff"/>
  <path id="path162" d="m168.86 104.47c-3.973 0-7.205-3.226-7.205-7.19s3.232-7.19 7.205-7.19 7.205 3.226 7.205 7.19-3.232 7.19-7.205 7.19zm0-11.89c-2.597 0-4.708 2.107-4.708 4.699 0 2.591 2.111 4.699 4.708 4.699 2.596 0 4.708-2.108 4.708-4.699 0-2.592-2.112-4.699-4.708-4.699z" fill="#ef6e65"/>
  <g id="g164" fill="#536b8b" transform="translate(0,-53)">
   <path id="path166" d="m77.066 45.11h108.34v69.797h-108.34z" fill-rule="evenodd" clip-rule="evenodd"/>
   <path id="path168" d="m185.4 116.2h-108.34c-0.717 0-1.298-0.58-1.298-1.295v-69.797c0-0.715 0.581-1.296 1.298-1.296h108.34c0.717 0 1.298 0.581 1.298 1.296v69.797c0 0.715-0.581 1.295-1.298 1.295zm-107.04-2.591h105.74v-67.206h-105.74v67.206z"/>
  </g>
  <path id="path170" d="m281.92-51.754h62.417v86.768h-62.417z" fill-rule="evenodd" clip-rule="evenodd" fill="#fff"/>
  <path id="path172" d="m344.34 36.26h-62.417c-0.689 0-1.248-0.559-1.248-1.246v-86.768c0-0.688 0.559-1.246 1.248-1.246h62.417c0.689 0 1.247 0.558 1.247 1.246v86.768c0 0.687-0.558 1.246-1.247 1.246zm-61.17-2.491h59.923v-84.278h-59.923v84.278zm38.632-56.491h-7.244c-0.689 0-1.248-0.558-1.248-1.246s0.559-1.245 1.248-1.245h7.244c0.689 0 1.248 0.558 1.248 1.245 0 0.689-0.559 1.246-1.248 1.246zm-13.567 0h-15.582c-0.688 0-1.247-0.558-1.247-1.246s0.559-1.245 1.247-1.245h15.582c0.689 0 1.247 0.558 1.247 1.245 0.001 0.689-0.557 1.246-1.247 1.246z" fill="#536b8b"/>
  <path id="path174" d="m313.37 25.44h-20.719c-0.688 0-1.248-0.558-1.248-1.245 0-0.688 0.56-1.245 1.248-1.245h20.719c0.688 0 1.248 0.557 1.248 1.245s-0.559 1.245-1.248 1.245z" fill="#a2baf0"/>
  <path id="path176" d="m331.37-16.647h-38.722c-0.688 0-1.247-0.558-1.247-1.245s0.559-1.246 1.247-1.246h38.722c0.689 0 1.248 0.559 1.248 1.246s-0.558 1.245-1.248 1.245zm-10.575 11.483h-20.523c-0.688 0-1.247-0.559-1.247-1.246s0.559-1.245 1.247-1.245h20.523c0.689 0 1.248 0.558 1.248 1.245s-0.559 1.246-1.248 1.246zm-5.962 5.047h-14.562c-0.688 0-1.247-0.559-1.247-1.246s0.559-1.245 1.247-1.245h14.562c0.689 0 1.248 0.558 1.248 1.245s-0.559 1.246-1.248 1.246zm8.914 5.047h-23.476c-0.688 0-1.247-0.558-1.247-1.245 0-0.688 0.559-1.246 1.247-1.246h23.476c0.689 0 1.248 0.558 1.248 1.246 0 0.687-0.558 1.245-1.248 1.245z" fill="#536b8b"/>
  <path id="path178" d="m326.5 18.609h-12.515c-0.689 0-1.249-0.558-1.249-1.245s0.56-1.246 1.249-1.246h12.515c0.689 0 1.249 0.559 1.249 1.246s-0.56 1.245-1.249 1.245zm-17.836 0h-16.017c-0.688 0-1.248-0.558-1.248-1.245s0.56-1.246 1.248-1.246h16.017c0.689 0 1.249 0.559 1.249 1.246s-0.56 1.245-1.249 1.245z" fill="#a2baf0"/>
  <path id="path180" d="m78.048 4.574h106.37v44.868h-106.37z" fill-rule="evenodd" clip-rule="evenodd" fill="#a2baf0"/>
  <path id="path182" d="m1.248 194.92h62.416v86.769h-62.416z" fill-rule="evenodd" clip-rule="evenodd" fill="#fff"/>
  <path id="path184" d="m63.664 282.94h-62.416c-0.689 0-1.248-0.56-1.248-1.25v-86.769c0-0.688 0.559-1.244 1.248-1.244h62.416c0.688 0 1.247 0.556 1.247 1.244v86.769c0 0.687-0.558 1.245-1.247 1.245zm-61.169-2.49h59.921v-84.279h-59.921v84.279z" fill="#536b8b"/>
  <path id="path186" d="m12.036 217.09h17.781v11.272h-17.781z" fill-rule="evenodd" clip-rule="evenodd" fill="#fdd26a"/>
  <path id="path188" d="m29.817 229.6h-17.781c-0.689 0-1.249-0.559-1.249-1.246v-11.272c0-0.688 0.56-1.246 1.249-1.246h17.781c0.688 0 1.248 0.559 1.248 1.246v11.272c0 0.688-0.559 1.246-1.248 1.246zm-16.533-2.492h15.284v-8.78h-15.284v8.78zm22.77-10.975h13.728v2.492h-13.728zm0 5.635h8.112v2.492h-8.112zm0 5.636h13.728v2.492h-13.728z" fill="#536b8b"/>
  <path id="path190" d="m33.56 238.52h17.78v11.271h-17.78z" fill-rule="evenodd" clip-rule="evenodd" fill="#f1877a"/>
  <path id="path192" d="m52.589 251.04h-20.278v-13.765h20.278v13.765zm-17.781-2.492h15.284v-8.78h-15.284v8.78zm-23.551-10.976h13.726v2.492h-13.726zm0 5.636h8.11v2.492h-8.11zm0 5.638h13.726v2.492h-13.726zm24.797 8.522h13.728v2.492h-13.728zm0 5.635h8.112v2.492h-8.112zm0 5.638h13.728v2.492h-13.728z" fill="#536b8b"/>
  <path id="path194" d="m8.568 201.67h45.354v7.576h-45.354z" fill-rule="evenodd" clip-rule="evenodd" fill="#89a7c0"/>
  <path id="path196" d="m12.036 258.32h17.779v11.273h-17.779z" fill-rule="evenodd" clip-rule="evenodd" fill="#a2baf0"/>
  <path id="path198" d="m31.064 270.84h-20.277v-13.766h20.277v13.766zm-17.78-2.492h15.283v-8.781h-15.283v8.781z" fill="#536b8b"/>
  <path id="path200" d="m78.048 28.427h16.652v-13.757h16.654v21.591h16.654v-9.171h16.653v7.642h16.653v5.542h16.655v9.168h-99.921z" fill-rule="evenodd" clip-rule="evenodd" fill="#91a6f1"/>
  <ellipse id="ellipse202" fill-rule="evenodd" rx="15.622" ry="15.592" cy="27.124" cx="131.73" clip-rule="evenodd" fill="#fff"/>
  <path id="path204" d="m131.73 44.011c-9.33 0-16.92-7.574-16.92-16.886 0-9.313 7.59-16.888 16.92-16.888s16.92 7.575 16.92 16.888c-0.001 9.312-7.59 16.886-16.92 16.886zm0-31.183c-7.898 0-14.324 6.413-14.324 14.297 0 7.883 6.426 14.296 14.324 14.296s14.324-6.413 14.324-14.296c0-7.884-6.426-14.297-14.324-14.297z" fill="#536b8b"/>
  <path id="path206" d="m139.92 27.125-6.143 3.538-6.14 3.538v-14.154l6.14 3.539z" fill-rule="evenodd" clip-rule="evenodd" fill="#f1877a"/>
  <path id="path208" d="m127.63 35.447c-0.215 0-0.431-0.056-0.623-0.167-0.387-0.223-0.625-0.634-0.625-1.079v-14.154c0-0.445 0.238-0.856 0.625-1.078 0.385-0.224 0.862-0.224 1.247 0l12.282 7.077c0.387 0.223 0.625 0.634 0.625 1.079s-0.238 0.856-0.625 1.078l-12.282 7.077c-0.193 0.112-0.408 0.167-0.624 0.167zm1.249-13.243v9.84l8.538-4.919-8.538-4.921z" fill="#536b8b"/>
  <g id="g210" fill="#536b8b" transform="translate(0,-53)">
   <path id="path212" d="m542.04 244.12h102.66v66.94h-102.66z" fill-rule="evenodd" clip-rule="evenodd"/>
   <path id="path214" d="m644.7 312.36h-102.66c-0.717 0-1.298-0.581-1.298-1.295v-66.94c0-0.716 0.581-1.296 1.298-1.296h102.66c0.716 0 1.297 0.58 1.297 1.296v66.94c0 0.714-0.581 1.295-1.297 1.295zm-101.36-2.59h100.06v-64.35h-100.06v64.35z"/>
  </g>
  <path id="path216" d="m583.15 258.6h20.441v21.281h-20.441z" fill-rule="evenodd" clip-rule="evenodd" fill="#a2baf0"/>
  <path id="path218" d="m603.59 281.12h-20.441c-0.689 0-1.249-0.559-1.249-1.247v-21.281c0-0.688 0.56-1.247 1.249-1.247h20.441c0.689 0 1.249 0.559 1.249 1.247v21.281c0 0.688-0.56 1.247-1.249 1.247zm-19.194-2.492h17.945v-18.791h-17.945v18.791z" fill="#536b8b"/>
  <path id="path220" d="m584.57 260.02h17.611v3.603h-17.611z" fill-rule="evenodd" clip-rule="evenodd" fill="#91a6f1"/>
  <path id="path222" d="m550.2 199.13h86.337v45.438h-86.337z" fill-rule="evenodd" clip-rule="evenodd" fill="#fff"/>
  <path id="path224" d="m637.79 245.81h-88.833v-47.929h88.833v47.929zm-86.336-2.492h83.839v-42.945h-83.839v42.945z" fill="#536b8b"/>
  <path id="path226" d="m586.7 250.42h13.714v2.838h-13.714z" fill-rule="evenodd" clip-rule="evenodd" fill="#fff"/>
  <path id="path228" d="m594.09 226.01h10.155v2.764h-10.155z" fill-rule="evenodd" clip-rule="evenodd" fill="#ef6e65"/>
  <path id="path230" d="m567.43 226.01h23.344v2.764h-23.344z" fill-rule="evenodd" clip-rule="evenodd" fill="#fdd26a"/>
  <path id="path232" d="m567.43 233.79h46.832v2.767h-46.832zm0-23.36h9.289v2.766h-9.289z" fill-rule="evenodd" clip-rule="evenodd" fill="#536b8b"/>
  <path id="path234" d="m579.98 210.43h9.795v2.766h-9.795z" fill-rule="evenodd" clip-rule="evenodd" fill="#ef6e65"/>
  <path id="path236" d="m593.32 210.43h13.909v2.766h-13.909zm-25.896 7.786h54.712v2.766h-54.712z" fill-rule="evenodd" clip-rule="evenodd" fill="#536b8b"/>
  <path id="path238" d="m551.65 200.56h83.459v5.174h-83.459z" fill-rule="evenodd" clip-rule="evenodd" fill="#a2baf0"/>
  <path id="path240" d="m567.53 278.63h54.681v2.492h-54.681z" fill="#536b8b"/>
  <path id="path242" d="m292.05-44.067h42.158v12.174h-42.158z" fill-rule="evenodd" clip-rule="evenodd" fill="#fdd26a"/>
  <path id="path244" d="m334.21-30.648h-42.158c-0.689 0-1.248-0.558-1.248-1.245v-12.174c0-0.688 0.559-1.246 1.248-1.246h42.158c0.688 0 1.248 0.558 1.248 1.246v12.174c0 0.687-0.559 1.245-1.248 1.245zm-40.909-2.492h39.66v-9.683h-39.66v9.683z" fill="#536b8b"/>
  <path id="path246" d="m293.52-38.662h39.266v5.34h-39.266z" fill-rule="evenodd" clip-rule="evenodd" fill="#e8a541"/>
  <ellipse id="ellipse248" fill-rule="evenodd" rx="5.957" ry="5.945" cy="240.88" cx="110.21" clip-rule="evenodd" fill="#fff"/>
  <path id="path250" d="m110.21 248.07c-3.973 0-7.205-3.227-7.205-7.191s3.232-7.19 7.205-7.19 7.205 3.226 7.205 7.19-3.232 7.191-7.205 7.191zm0-11.889c-2.596 0-4.708 2.106-4.708 4.698 0 2.591 2.112 4.699 4.708 4.699 2.597 0 4.708-2.108 4.708-4.699 0-2.592-2.111-4.698-4.708-4.698z" fill="#ef6e65"/>
  <ellipse id="ellipse252" fill-rule="evenodd" rx="5.957" ry="5.945" cy="67.216" cx="313.4" clip-rule="evenodd" fill="#fff"/>
  <path id="path254" d="m313.4 74.407c-3.973 0-7.204-3.227-7.204-7.191s3.231-7.19 7.204-7.19 7.206 3.226 7.206 7.19-3.233 7.191-7.206 7.191zm0-11.89c-2.596 0-4.707 2.108-4.707 4.699 0 2.592 2.111 4.7 4.707 4.7 2.597 0 4.709-2.108 4.709-4.7 0-2.591-2.112-4.699-4.709-4.699z" fill="#ef6e65"/>
  <ellipse id="ellipse256" fill-rule="evenodd" rx="5.957" ry="5.945" cy="97.283" cx="444.56" clip-rule="evenodd" fill="#fff"/>
  <path id="path258" d="m444.56 104.47c-3.973 0-7.205-3.226-7.205-7.19s3.232-7.19 7.205-7.19 7.205 3.226 7.205 7.19-3.233 7.19-7.205 7.19zm0-11.89c-2.596 0-4.708 2.107-4.708 4.699 0 2.591 2.112 4.699 4.708 4.699 2.597 0 4.708-2.108 4.708-4.699 0-2.592-2.112-4.699-4.708-4.699z" fill="#ef6e65"/>
  <ellipse id="ellipse260" fill-rule="evenodd" rx="5.956" ry="5.945" cy="241.55" cx="504.21" clip-rule="evenodd" fill="#fff"/>
  <path id="path262" d="m504.21 248.74c-3.973 0-7.205-3.226-7.205-7.19s3.232-7.191 7.205-7.191 7.205 3.227 7.205 7.191-3.232 7.19-7.205 7.19zm0-11.889c-2.597 0-4.708 2.108-4.708 4.699 0 2.592 2.111 4.698 4.708 4.698 2.596 0 4.708-2.106 4.708-4.698 0-2.591-2.112-4.699-4.708-4.699z" fill="#ef6e65"/>
  <path id="path264" d="m456.03 4.475h90.827v58.517h-90.827z" fill-rule="evenodd" clip-rule="evenodd" fill="#a2baf0"/>
  <path id="path266" d="m546.86 64.286h-90.827c-0.716 0-1.298-0.58-1.298-1.295v-58.516c0-0.716 0.582-1.295 1.298-1.295h90.827c0.717 0 1.298 0.579 1.298 1.295v58.517c0 0.714-0.581 1.294-1.298 1.294zm-89.529-2.591h88.231v-55.925h-88.231v55.925z" fill="#536b8b"/>
  <path id="path268" d="m465.4 14.413h25.669v38.641h-25.669z" fill-rule="evenodd" clip-rule="evenodd" fill="#cad7f6"/>
  <path id="path270" d="m491.06 54.349h-25.669c-0.717 0-1.298-0.58-1.298-1.295v-38.641c0-0.715 0.581-1.296 1.298-1.296h25.669c0.716 0 1.298 0.581 1.298 1.296v38.641c0 0.715-0.582 1.295-1.298 1.295zm-24.371-2.591h23.073v-36.05h-23.073v36.05z" fill="#536b8b"/>
  <path id="path272" d="m498.04 14.413h40.74v38.641h-40.74z" fill-rule="evenodd" clip-rule="evenodd" fill="#fff"/>
  <path id="path274" d="m538.78 54.349h-40.74c-0.717 0-1.298-0.58-1.298-1.295v-38.641c0-0.715 0.581-1.296 1.298-1.296h40.74c0.717 0 1.298 0.581 1.298 1.296v38.641c0 0.715-0.581 1.295-1.298 1.295zm-39.442-2.591h38.145v-36.05h-38.145v36.05z" fill="#536b8b"/>
  <ellipse id="ellipse276" fill-rule="evenodd" rx="8.954" ry="8.937" cy="49.41" cx="470.15" clip-rule="evenodd" fill="#fff"/>
  <path id="path278" d="m470.15 59.643c-5.652 0-10.251-4.59-10.251-10.231s4.599-10.231 10.251-10.231c5.653 0 10.252 4.59 10.252 10.231s-4.598 10.231-10.252 10.231zm0-17.873c-4.222 0-7.655 3.428-7.655 7.642 0 4.213 3.434 7.641 7.655 7.641s7.656-3.428 7.656-7.641c0.001-4.215-3.434-7.642-7.656-7.642zm0.434 13.048c-0.717 0-1.298-0.58-1.298-1.295v-7.748c0-0.715 0.581-1.295 1.298-1.295 0.716 0 1.298 0.58 1.298 1.295v7.748c0 0.715-0.582 1.295-1.298 1.295zm-2.799-5.523c-0.382 0-0.761-0.166-1.017-0.488-0.446-0.56-0.354-1.374 0.207-1.82l2.8-2.224c0.561-0.446 1.377-0.354 1.824 0.206 0.445 0.56 0.353 1.375-0.208 1.82l-2.8 2.225c-0.237 0.189-0.523 0.281-0.806 0.281z" fill="#536b8b"/>
  <path id="path280" d="m470.21 19.005h16.041v7.662h-16.041z" fill-rule="evenodd" clip-rule="evenodd" fill="#f1877a"/>
  <path id="path282" d="m487.5 27.912h-18.537v-10.153h18.537v10.153zm-16.04-2.491h13.543v-5.171h-13.543v5.171z" fill="#536b8b"/>
  <g id="g284" fill="#536b8b" transform="translate(0,-53)">
   <path id="path286" d="m470.21 84.72h11.409v3.973h-11.409z" fill-rule="evenodd" clip-rule="evenodd"/>
   <path id="path288" d="m482.87 89.938h-13.905v-6.465h13.905v6.465zm-11.408-2.491h8.911v-1.482h-8.911v1.482z"/>
  </g>
  <path id="path290" d="m528.06 22.416h-22.392c-0.688 0-1.247-0.558-1.247-1.246s0.559-1.245 1.247-1.245h22.392c0.688 0 1.247 0.558 1.247 1.245 0 0.688-0.559 1.246-1.247 1.246z" fill="#536b8b"/>
  <path id="path292" d="m528.06 28.53h-22.392c-0.688 0-1.248-0.559-1.248-1.246s0.56-1.245 1.248-1.245h22.392c0.688 0 1.248 0.558 1.248 1.245s-0.56 1.246-1.248 1.246zm0 6.116h-22.392c-0.688 0-1.248-0.559-1.248-1.246s0.56-1.245 1.248-1.245h22.392c0.688 0 1.248 0.558 1.248 1.245s-0.56 1.246-1.248 1.246zm0 6.113h-22.392c-0.688 0-1.248-0.559-1.248-1.246s0.56-1.245 1.248-1.245h22.392c0.688 0 1.248 0.558 1.248 1.245s-0.56 1.246-1.248 1.246zm0 6.115h-22.392c-0.688 0-1.248-0.559-1.248-1.246s0.56-1.245 1.248-1.245h22.392c0.688 0 1.248 0.558 1.248 1.245s-0.56 1.246-1.248 1.246z" fill="#a2baf0"/>
  <path id="path294" d="m334.21 12.633h-42.158c-0.689 0-1.248-0.559-1.248-1.246v-23.506c0-0.688 0.559-1.246 1.248-1.246h42.158c0.688 0 1.248 0.559 1.248 1.246v23.506c0 0.687-0.559 1.246-1.248 1.246zm-40.909-2.491h39.66v-21.016h-39.66v21.016z" fill="#ef6e65"/>
  <path id="path296" d="m335.63 13.286c-0.068 0-0.139-0.026-0.191-0.079-0.105-0.105-0.105-0.275 0-0.382l1.764-1.76c0.105-0.105 0.277-0.105 0.383 0s0.105 0.276 0 0.382l-1.763 1.76c-0.054 0.053-0.124 0.079-0.193 0.079zm1.487 1.484c-0.068 0-0.139-0.026-0.191-0.079-0.105-0.106-0.105-0.276 0-0.382l1.762-1.76c0.106-0.105 0.278-0.105 0.384 0s0.105 0.276 0 0.382l-1.763 1.759c-0.053 0.053-0.123 0.08-0.192 0.08zm1.484 1.482c-0.068 0-0.139-0.026-0.191-0.078-0.105-0.106-0.105-0.276 0-0.382l1.764-1.761c0.105-0.106 0.277-0.105 0.383-0.001 0.105 0.106 0.105 0.276 0 0.382l-1.763 1.761c-0.053 0.053-0.123 0.079-0.193 0.079z" fill="#536b8b"/>
  <path id="path298" d="m332.67 26.618-5.646-5.634 26.038-25.985 5.645 5.634z" fill-rule="evenodd" clip-rule="evenodd" fill="#a2baf0"/>
  <path id="path300" d="m332.67 27.913c-0.332 0-0.664-0.126-0.917-0.379l-5.64-5.634c-0.244-0.243-0.381-0.572-0.381-0.916s0.137-0.673 0.381-0.916l26.038-25.985c0.243-0.243 0.573-0.379 0.917-0.379s0.674 0.136 0.919 0.379l5.644 5.634c0.507 0.505 0.507 1.326-0.001 1.832l-26.037 25.985c-0.253 0.253-0.584 0.379-0.917 0.379zm-3.81-6.929 3.81 3.802 24.201-24.153-3.809-3.802-24.202 24.153z" fill="#536b8b"/>
  <path id="path302" d="m331.78 26.252-2.509-2.505 25.263-25.213 2.51 2.504z" fill-rule="evenodd" clip-rule="evenodd" fill="#91a6f1"/>
  <path id="path304" d="m323.79 29.831 1.609-4.433 1.611-4.433 2.831 2.827 2.832 2.826-4.442 1.607z" fill-rule="evenodd" clip-rule="evenodd" fill="#a2baf0"/>
  <path id="path306" d="m323.79 31.126c-0.338 0-0.67-0.132-0.917-0.379-0.356-0.355-0.475-0.885-0.303-1.357l3.219-8.866c0.151-0.416 0.505-0.727 0.938-0.823 0.435-0.096 0.886 0.035 1.2 0.349l5.662 5.653c0.314 0.313 0.446 0.765 0.35 1.197s-0.406 0.786-0.824 0.937l-8.883 3.213c-0.144 0.052-0.295 0.076-0.442 0.076zm3.744-7.805-1.578 4.349 4.356-1.576-2.778-2.773z" fill="#536b8b"/>
  <path id="path308" d="m323.81 29.912 1.38-3.938 1.231 1.229 1.233 1.231z" fill-rule="evenodd" clip-rule="evenodd" fill="#536b8b"/>
  <path id="path310" d="m293.65 125.66h-3.521v-43.644h3.521v43.644zm0-57.922h-3.521v-21.821h3.521v21.821z" fill="#dbdfea"/>
 </g>
</svg>
