<svg xmlns="http://www.w3.org/2000/svg" viewBox="0 0 646 413"><path fill="#DBDFEA" d="M433.324 204.414l-2.48-2.494 31.034-30.747 2.48 2.494-31.034 30.747zm41.189-40.806l-2.48-2.494 15.518-15.373 2.481 2.494-15.519 15.373zM512.857 261.604l.454 3.485-74.385 9.692-.454-3.485zM102.765 261.612l74.385 9.677-.453 3.485-74.385-9.677zM196.531 209.431l-32.465-29.237 2.359-2.609 32.465 29.237-2.359 2.609zm-43.087-38.803l-16.233-14.619 2.359-2.609 16.233 14.618-2.359 2.61z"/><path fill-rule="evenodd" clip-rule="evenodd" fill="#ECEDF6" d="M514.638 229.191c18.516 0 33.617-15.072 33.617-33.553 0-18.479-15.102-33.552-33.617-33.552s-33.617 15.072-33.617 33.552c0 18.481 15.101 33.553 33.617 33.553z"/><path fill="#CBD4DD" d="M514.638 230.485c-19.252 0-34.915-15.633-34.915-34.847 0-19.215 15.663-34.847 34.915-34.847s34.915 15.632 34.915 34.847c0 19.215-15.663 34.847-34.915 34.847zm0-67.102c-17.82 0-32.319 14.47-32.319 32.256s14.499 32.257 32.319 32.257c17.821 0 32.319-14.471 32.319-32.257s-14.498-32.256-32.319-32.256z"/><path fill-rule="evenodd" clip-rule="evenodd" fill="#FDD26A" d="M476.974 42.578h90.828v58.517h-90.828z"/><path fill="#536B8B" d="M567.802 102.34h-90.828c-.689 0-1.249-.558-1.249-1.245v-58.517c0-.688.56-1.246 1.249-1.246h90.828c.689 0 1.249.559 1.249 1.246v58.517c0 .687-.56 1.245-1.249 1.245zm-89.58-2.491h88.332v-56.026h-88.332v56.026z"/><path fill-rule="evenodd" clip-rule="evenodd" fill="#fff" d="M466.503 50.025h90.827v58.518h-90.827z"/><path fill="#536B8B" d="M557.33 109.838h-90.827c-.717 0-1.298-.58-1.298-1.295v-58.518c0-.715.581-1.295 1.298-1.295h90.827c.716 0 1.298.58 1.298 1.295v58.518c0 .715-.582 1.295-1.298 1.295zm-89.529-2.59h88.231v-55.927h-88.231v55.927z"/><path fill-rule="evenodd" clip-rule="evenodd" fill="#ECEDF6" d="M241.786 159.81c17.602 0 31.958-14.328 31.958-31.896s-14.356-31.896-31.958-31.896c-17.603 0-31.959 14.328-31.959 31.896 0 17.567 14.357 31.896 31.959 31.896z"/><path fill="#CBD4DD" d="M241.786 161.105c-18.339 0-33.257-14.891-33.257-33.191 0-18.303 14.918-33.192 33.257-33.192 18.338 0 33.256 14.89 33.256 33.192 0 18.301-14.918 33.191-33.256 33.191zm0-63.792c-16.906 0-30.661 13.728-30.661 30.602 0 16.873 13.755 30.601 30.661 30.601s30.66-13.728 30.66-30.601c0-16.875-13.754-30.602-30.66-30.602z"/><path fill-rule="evenodd" clip-rule="evenodd" fill="#ECEDF6" d="M260.971 153.422c-5.342 4.01-11.986 6.388-19.185 6.388-7.199 0-13.843-2.379-19.187-6.388v-8.542c0-3.436 2.815-6.246 6.257-6.246h.002l.482.02c.309-.05.628-.076.959-.076h22.97c.331 0 .65.026.959.076l.483-.02h.001c3.441 0 6.257 2.811 6.257 6.246v8.542z"/><path fill="#CBD4DD" d="M241.786 161.105c-7.266 0-14.171-2.3-19.967-6.648-.326-.245-.518-.628-.518-1.035v-8.542c0-4.159 3.389-7.542 7.555-7.542l.432.014c.333-.046.673-.069 1.012-.069h22.971c.339 0 .679.023 1.012.069l.431-.014c4.166 0 7.556 3.383 7.556 7.542v8.542c0 .407-.191.79-.518 1.035-5.796 4.349-12.698 6.648-19.966 6.648zm-17.889-8.338c5.234 3.763 11.405 5.748 17.889 5.748s12.654-1.985 17.887-5.748v-7.887c0-2.729-2.225-4.951-4.959-4.951l-.386.016-.304-.013c-.242-.038-.494-.059-.754-.059h-22.97c-.26 0-.512.021-.754.059l-.304.013-.384-.016c-2.736 0-4.961 2.222-4.961 4.951v7.887zM531.42 209.975c-.716 0-1.298-.58-1.298-1.295v-22.65c0-4.313-1.711-8.276-4.819-11.158-2.939-2.728-6.786-4.125-10.569-3.854l-.122.003c-4.463-.092-8.414 1.364-11.198 4.088-2.786 2.726-4.26 6.503-4.26 10.922v22.65c0 .715-.581 1.295-1.298 1.295s-1.298-.58-1.298-1.295v-22.65c0-5.058 1.79-9.594 5.038-12.772 3.273-3.201 7.89-4.9 13.008-4.829 4.478-.309 9.014 1.345 12.466 4.545 3.643 3.378 5.648 8.016 5.648 13.057v22.65c0 .713-.581 1.293-1.298 1.293z"/><path fill-rule="evenodd" clip-rule="evenodd" fill="#ECEDF6" d="M241.773 121.77h.013l.013-.001c2.636 0 4.791 2.152 4.791 4.784v11.962c0 2.631-2.155 4.784-4.791 4.784l-.013-.001h-.013c-2.636 0-4.794-2.152-4.794-4.783v-11.962c0-2.631 2.158-4.783 4.794-4.783z"/><path fill="#CBD4DD" d="M241.799 144.594l-.061-.001-.012-.001h-.003c-3.311 0-6.042-2.726-6.042-6.077v-11.962c0-3.353 2.732-6.079 6.092-6.079h.001c3.382 0 6.113 2.727 6.113 6.079v11.962c.001 3.352-2.731 6.079-6.088 6.079zm0-21.53c-1.953 0-3.521 1.565-3.521 3.488v11.962c0 1.923 1.568 3.488 3.496 3.488h.025c1.926 0 3.493-1.564 3.493-3.488v-11.962c0-1.923-1.567-3.488-3.493-3.488z"/><path fill-rule="evenodd" clip-rule="evenodd" fill="#ECEDF6" d="M241.786 136.451c-5.586-.487-11.173-5.423-11.693-11.863h-.039v-7.372h.039c.521-6.44 6.107-9.389 11.693-9.876 5.585.487 11.171 3.436 11.691 9.876h.04v7.372h-.04c-.52 6.44-6.106 11.376-11.691 11.863z"/><path fill="#CBD4DD" d="M241.786 137.746l-.114-.005c-6.459-.563-12.156-6.244-12.844-12.738-.047-.13-.072-.27-.072-.415v-7.371c0-.15.026-.296.073-.432.758-7.146 7.098-10.233 12.843-10.734h.228c5.748.501 12.092 3.592 12.843 10.748.047.131.073.271.073.418v7.371c0 .153-.026.301-.075.438-.698 6.484-6.389 12.153-12.841 12.716l-.114.004zm-10.434-13.469l.034.207c.487 6.021 5.753 10.2 10.4 10.666 4.646-.466 9.911-4.645 10.398-10.666l.035-.217v-6.735l-.035-.211c-.578-7.149-7.958-8.447-10.398-8.68-2.442.232-9.822 1.53-10.4 8.68l-.034.212v6.744z"/><path fill-rule="evenodd" clip-rule="evenodd" fill="#ECEDF6" d="M233.109 110.822c2.249-2.106 5.463-3.201 8.677-3.481 3.212.28 6.426 1.375 8.675 3.481-2.249 2.664-5.463 4.416-8.675 4.697-3.214-.281-6.428-2.033-8.677-4.697z"/><path fill="#CBD4DD" d="M241.786 116.814l-.114-.005c-3.519-.308-7.091-2.234-9.556-5.153-.443-.526-.397-1.309.105-1.779 2.28-2.135 5.638-3.493 9.45-3.826h.228c3.813.333 7.169 1.691 9.449 3.826.503.471.549 1.253.105 1.779-2.465 2.919-6.036 4.846-9.555 5.153l-.112.005zm-6.782-5.866c1.915 1.835 4.367 3.029 6.782 3.271 2.414-.241 4.865-1.436 6.78-3.271-1.775-1.252-4.131-2.059-6.78-2.307-2.651.249-5.007 1.055-6.782 2.307zM241.784 131.475c-1.861 0-3.54-1.173-4.174-2.92-.244-.673.104-1.415.777-1.659.672-.244 1.418.104 1.662.775.264.727.961 1.214 1.734 1.214.774 0 1.472-.488 1.736-1.215.244-.673.991-1.018 1.663-.774.674.245 1.021.988.776 1.66-.634 1.746-2.312 2.919-4.174 2.919z"/><path fill-rule="evenodd" clip-rule="evenodd" fill="#CBD4DD" d="M247.026 122.588c1.01 0 1.833-.822 1.833-1.829 0-1.008-.823-1.83-1.833-1.83-1.009 0-1.832.822-1.832 1.83 0 1.007.824 1.829 1.832 1.829zM236.544 122.588c1.009 0 1.832-.822 1.832-1.829 0-1.008-.823-1.83-1.832-1.83-1.01 0-1.833.822-1.833 1.83 0 1.007.823 1.829 1.833 1.829z"/><path fill="#CBD4DD" d="M228.716 158.226c-.717 0-1.298-.58-1.298-1.296v-10.012c0-.715.581-1.295 1.298-1.295s1.298.58 1.298 1.295v10.012c0 .716-.581 1.296-1.298 1.296zM254.854 158.226c-.717 0-1.298-.58-1.298-1.296v-10.012c0-.715.581-1.295 1.298-1.295s1.298.58 1.298 1.295v10.012c0 .716-.581 1.296-1.298 1.296z"/><path fill-rule="evenodd" clip-rule="evenodd" fill="#ECEDF6" d="M385.021 170.556c23.533 0 42.727-19.155 42.727-42.642s-19.193-42.643-42.727-42.643c-23.532 0-42.726 19.156-42.726 42.643s19.193 42.642 42.726 42.642z"/><path fill="#CBD4DD" d="M385.021 171.852c-24.274 0-44.023-19.711-44.023-43.938 0-24.229 19.749-43.938 44.023-43.938s44.024 19.71 44.024 43.938c0 24.227-19.75 43.938-44.024 43.938zm0-85.286c-22.843 0-41.428 18.549-41.428 41.348 0 22.798 18.585 41.347 41.428 41.347 22.844 0 41.429-18.549 41.429-41.347-.001-22.799-18.586-41.348-41.429-41.348z"/><path fill-rule="evenodd" clip-rule="evenodd" fill="#ECEDF6" d="M410.672 162.016c-7.144 5.361-16.025 8.54-25.65 8.54s-18.507-3.179-25.65-8.54v-11.419c0-4.594 3.764-8.352 8.367-8.352.218 0 .434.009.646.025.41-.066.839-.101 1.28-.101h30.71c.444 0 .872.034 1.282.101.212-.017.429-.025.646-.025h.002c4.603 0 8.367 3.759 8.367 8.352v11.419z"/><path fill="#CBD4DD" d="M385.021 171.852c-9.619 0-18.759-3.044-26.43-8.801-.327-.244-.519-.628-.519-1.035v-11.419c0-5.319 4.336-9.646 9.665-9.646l.593.018c.437-.062.885-.093 1.334-.093h30.71c.451 0 .899.031 1.336.093l.592-.018c5.33 0 9.667 4.327 9.667 9.646v11.419c0 .407-.191.791-.519 1.035-7.67 5.757-16.808 8.801-26.429 8.801zm-24.352-10.489c7.11 5.169 15.517 7.897 24.353 7.897 8.837 0 17.243-2.729 24.353-7.897v-10.767c0-3.891-3.171-7.056-7.069-7.056l-.55.021-.304-.014c-.349-.056-.711-.084-1.076-.084h-30.71c-.364 0-.726.028-1.074.084l-.304.014c-.181-.014-.364-.021-.549-.021-3.898 0-7.069 3.165-7.069 7.056v10.767z"/><path fill-rule="evenodd" clip-rule="evenodd" fill="#ECEDF6" d="M385.003 119.699h.019l.016-.001c3.524 0 6.408 2.878 6.408 6.395v15.994c0 3.517-2.884 6.395-6.408 6.395h-.035c-3.522 0-6.406-2.878-6.406-6.396v-15.993c0-3.517 2.883-6.394 6.406-6.394z"/><path fill="#CBD4DD" d="M385.037 149.776h-.016c-4.266 0-7.723-3.449-7.723-7.69v-15.993c0-4.239 3.457-7.688 7.704-7.688h.001c4.284 0 7.739 3.449 7.739 7.688v15.994c.001 4.24-3.456 7.689-7.705 7.689zm0-28.782c-2.851.001-5.143 2.287-5.143 5.099v15.993c0 2.813 2.292 5.1 5.108 5.1h.034c2.818 0 5.11-2.286 5.11-5.099v-15.994c.001-2.812-2.291-5.099-5.109-5.099z"/><path fill-rule="evenodd" clip-rule="evenodd" fill="#ECEDF6" d="M385.021 139.328c-7.843-.685-15.686-7.926-15.686-17.168v-17.095h31.369999999999997v17.095c0 9.242-7.843 16.484-15.684 17.168z"/><path fill="#CBD4DD" d="M385.021 140.623l-.113-.005c-8.147-.711-16.869-8.298-16.869-18.458v-17.095c0-.716.581-1.296 1.297-1.296h31.369c.717 0 1.298.58 1.298 1.296v17.095c0 10.16-8.722 17.747-16.868 18.458l-.114.005zm-14.387-34.263v15.8c0 8.693 7.417 15.196 14.388 15.867 6.97-.671 14.387-7.174 14.387-15.867v-15.8h-28.775zM385.021 132.238c-2.308 0-4.386-1.454-5.17-3.617-.244-.673.104-1.415.778-1.659.674-.242 1.419.104 1.662.777.415 1.142 1.511 1.908 2.729 1.908s2.315-.767 2.73-1.909c.244-.673.988-1.021 1.663-.775.674.243 1.021.986.777 1.659-.786 2.163-2.863 3.616-5.169 3.616z"/><path fill-rule="evenodd" clip-rule="evenodd" fill="#ECEDF6" d="M391.713 119.376c1.125 0 2.044-.917 2.044-2.04 0-1.124-.919-2.04-2.044-2.04-1.126 0-2.045.916-2.045 2.04 0 1.123.919 2.04 2.045 2.04z"/><path fill="#CBD4DD" d="M391.713 120.671c-1.843 0-3.343-1.496-3.343-3.335 0-1.84 1.5-3.336 3.343-3.336 1.842 0 3.342 1.496 3.342 3.336 0 1.839-1.5 3.335-3.342 3.335zm0-4.08c-.412 0-.747.335-.747.745s.335.744.747.744c.411 0 .746-.334.746-.744s-.335-.745-.746-.745z"/><path fill-rule="evenodd" clip-rule="evenodd" fill="#ECEDF6" d="M378.329 119.376c1.126 0 2.044-.917 2.044-2.04 0-1.124-.918-2.04-2.044-2.04-1.125 0-2.044.916-2.044 2.04 0 1.123.919 2.04 2.044 2.04z"/><path fill="#CBD4DD" d="M378.329 120.671c-1.842 0-3.342-1.496-3.342-3.335 0-1.84 1.5-3.336 3.342-3.336 1.843 0 3.341 1.496 3.341 3.336 0 1.839-1.498 3.335-3.341 3.335zm0-4.08c-.411 0-.746.335-.746.745s.335.744.746.744.745-.334.745-.744-.334-.745-.745-.745zM367.548 168.001c-.717 0-1.298-.58-1.298-1.295v-13.385c0-.715.581-1.296 1.298-1.296s1.298.581 1.298 1.296v13.385c0 .715-.581 1.295-1.298 1.295zM402.494 168.001c-.717 0-1.298-.58-1.298-1.295v-13.385c0-.715.581-1.296 1.298-1.296s1.298.581 1.298 1.296v13.385c0 .715-.581 1.295-1.298 1.295z"/><path fill-rule="evenodd" clip-rule="evenodd" fill="#ECEDF6" d="M371.338 99.236c-2.849 0-5.159 2.306-5.159 5.15 0 2.843 2.311 5.149 5.159 5.149 1.552 0 2.942-.683 3.888-1.764.742 1.935 2.621 3.31 4.82 3.31 2.068 0 3.854-1.216 4.675-2.971.823 1.755 2.607 2.971 4.676 2.971 2.154 0 4-1.318 4.772-3.19.915.821 2.124 1.321 3.451 1.321 2.85 0 5.159-2.305 5.159-5.148 0-2.3-1.512-4.249-3.598-4.909.032-.235.051-.478.051-.724 0-2.844-2.311-5.149-5.16-5.149-1.466 0-2.79.611-3.729 1.591l.021-.464c0-2.844-2.311-5.149-5.159-5.149-2.788 0-5.061 2.208-5.156 4.968-.906-.789-2.092-1.267-3.39-1.267-2.848 0-5.159 2.305-5.159 5.149 0 .39.043.77.126 1.135l-.288-.009z"/><path fill="#CBD4DD" d="M389.396 112.378c-1.787 0-3.473-.749-4.676-2.004-1.201 1.255-2.887 2.004-4.675 2.004-2.057 0-3.974-.997-5.176-2.597-1.041.679-2.265 1.05-3.532 1.05-3.561 0-6.457-2.891-6.457-6.444 0-3.168 2.302-5.808 5.321-6.346.038-3.521 2.92-6.375 6.457-6.375.861 0 1.706.171 2.486.497.909-2.468 3.273-4.199 6.06-4.199 2.918 0 5.39 1.942 6.188 4.599.829-.377 1.737-.576 2.68-.576 3.52 0 6.391 2.824 6.457 6.321 2.157 1.081 3.548 3.283 3.548 5.757 0 3.554-2.896 6.444-6.457 6.444-1.063 0-2.101-.261-3.024-.75-1.199 1.627-3.11 2.619-5.2 2.619zm-4.675-5.562c.504 0 .962.291 1.176.746.634 1.352 2.008 2.225 3.5 2.225 1.572 0 2.974-.938 3.572-2.389.161-.39.501-.676.913-.77.409-.094.841.019 1.155.301.711.638 1.628.988 2.583.988 2.129 0 3.861-1.729 3.861-3.854 0-1.688-1.082-3.164-2.692-3.675-.602-.19-.979-.785-.894-1.409.025-.179.039-.362.039-.549 0-2.125-1.732-3.854-3.862-3.854-1.064 0-2.055.423-2.791 1.191-.379.397-.975.512-1.475.284-.502-.228-.806-.748-.755-1.296l.015-.348c0-2.126-1.732-3.854-3.861-3.854-2.093 0-3.787 1.633-3.859 3.717-.017.5-.319.944-.779 1.145-.458.198-.993.117-1.37-.212-.702-.611-1.603-.948-2.537-.948-2.129 0-3.861 1.729-3.861 3.854 0 .287.032.573.094.85.091.397-.013.813-.276 1.124-.266.311-.662.48-1.067.454-2.189-.12-4.071 1.653-4.071 3.849 0 2.125 1.732 3.854 3.861 3.854 1.116 0 2.177-.481 2.91-1.32.299-.343.756-.504 1.205-.424.448.079.822.388.984.813.569 1.481 2.019 2.478 3.608 2.478 1.492 0 2.867-.873 3.5-2.225.213-.455.67-.746 1.174-.746zM385.177 157.986c-.333 0-.664-.126-.918-.379l-14.368-14.342c-.509-.506-.509-1.326 0-1.832.506-.506 1.327-.506 1.834 0l13.452 13.426 13.451-13.426c.507-.506 1.328-.506 1.835 0 .508.506.508 1.326 0 1.832l-14.369 14.342c-.254.253-.585.379-.917.379zM514.638 230.485c-.716 0-1.298-.58-1.298-1.294 0-.716.582-1.296 1.298-1.296 6.278 0 12.255-2.089 17.323-6.048v-8.362c0-2.908-2.143-5.274-4.775-5.274h-25.095c-2.589 0-4.776 2.417-4.776 5.274v8.986c0 .716-.581 1.295-1.298 1.295s-1.298-.579-1.298-1.295v-8.986c0-4.336 3.307-7.864 7.372-7.864h25.095c4.065 0 7.371 3.528 7.371 7.864v8.986c0 .389-.175.758-.478 1.003-5.638 4.588-12.359 7.011-19.441 7.011z"/><path fill-rule="evenodd" clip-rule="evenodd" fill="#ECEDF6" d="M514.624 189.176h.028c2.772 0 5.041 2.264 5.041 5.031v12.585c0 2.767-2.269 5.029-5.041 5.029h-.027999999999999997c-2.772 0-5.041-2.263-5.041-5.03v-12.584c0-2.767 2.269-5.031 5.041-5.031z"/><path fill="#CBD4DD" d="M514.651 213.117h-.014c-3.509 0-6.353-2.838-6.353-6.326v-12.584c0-3.488 2.844-6.326 6.339-6.326 3.522 0 6.366 2.838 6.366 6.326v12.585c.001 3.487-2.842 6.325-6.338 6.325zm0-22.645c-2.091 0-3.771 1.676-3.771 3.735v12.584c0 2.061 1.68 3.735 3.743 3.735h.027c2.064 0 3.743-1.675 3.743-3.734v-12.585c.002-2.06-1.677-3.735-3.742-3.735z"/><path fill-rule="evenodd" clip-rule="evenodd" fill="#ECEDF6" d="M514.638 204.62c-6.17-.539-12.341-6.237-12.341-13.508v-7.887c0-5.491 9.947-.057 12.341.824 7.018-2.584 12.341-7.468 12.341 2.835v4.228c0 7.271-6.17 12.969-12.341 13.508z"/><path fill="#CBD4DD" d="M514.638 205.915l-.113-.006c-6.531-.569-13.525-6.651-13.525-14.797v-7.887c0-2.328 1.45-3.719 3.879-3.719 2.676 0 6.299 1.613 8.696 2.679.41.184.776.347 1.077.474 1.146-.442 2.244-.939 3.311-1.422 2.283-1.034 4.257-1.928 5.964-1.928 4.351 0 4.351 5.504 4.351 7.575v4.228c0 8.146-6.993 14.228-13.524 14.797l-.116.006zm-9.76-23.817c-1.105 0-1.283.332-1.283 1.128v7.887c0 6.679 5.688 11.677 11.043 12.206 5.355-.529 11.043-5.527 11.043-12.206v-4.228c0-4.984-1.274-4.984-1.755-4.984-1.146 0-2.966.824-4.893 1.696-1.192.539-2.543 1.151-3.945 1.668-.292.106-.609.107-.898 0-.39-.143-.971-.399-1.673-.712-2.063-.918-5.516-2.455-7.639-2.455zM514.637 199.318c-1.932 0-3.671-1.218-4.327-3.028-.244-.673.104-1.415.779-1.659.671-.244 1.418.104 1.661.777.286.788 1.044 1.319 1.887 1.319s1.602-.531 1.89-1.321c.244-.673.99-1.019 1.663-.775.674.245 1.021.989.776 1.661-.659 1.81-2.4 3.026-4.329 3.026z"/><path fill-rule="evenodd" clip-rule="evenodd" fill="#CBD4DD" d="M519.902 188.922c.887 0 1.608-.722 1.608-1.605s-.722-1.605-1.608-1.605c-.885 0-1.607.722-1.607 1.605s.723 1.605 1.607 1.605zM509.372 188.922c.887 0 1.608-.722 1.608-1.605s-.722-1.605-1.608-1.605c-.885 0-1.608.722-1.608 1.605s.723 1.605 1.608 1.605z"/><path fill="#CBD4DD" d="M500.891 227.457c-.717 0-1.298-.58-1.298-1.295v-10.532c0-.715.581-1.296 1.298-1.296s1.298.581 1.298 1.296v10.532c-.001.715-.582 1.295-1.298 1.295zM528.386 227.457c-.717 0-1.298-.58-1.298-1.295v-10.532c0-.715.581-1.296 1.298-1.296.716 0 1.298.581 1.298 1.296v10.532c0 .715-.582 1.295-1.298 1.295z"/><path fill-rule="evenodd" clip-rule="evenodd" fill="#ECEDF6" d="M101.071 241.609c22.098 0 40.121-17.989 40.121-40.043 0-22.055-18.023-40.043-40.121-40.043-22.099 0-40.121 17.988-40.121 40.043 0 22.054 18.023 40.043 40.121 40.043z"/><path fill="#CBD4DD" d="M101.071 242.904c-22.839 0-41.419-18.544-41.419-41.338s18.58-41.339 41.419-41.339 41.419 18.545 41.419 41.339-18.58 41.338-41.419 41.338zm0-80.086c-21.407 0-38.823 17.382-38.823 38.748 0 21.365 17.416 38.747 38.823 38.747s38.823-17.382 38.823-38.747c.001-21.366-17.415-38.748-38.823-38.748z"/><path fill-rule="evenodd" clip-rule="evenodd" fill="#ECEDF6" d="M125.158 233.591c-6.708 5.034-15.049 8.02-24.087 8.02s-17.379-2.986-24.087-8.02v-10.725c0-4.313 3.535-7.842 7.857-7.842h.001c.203 0 .407.01.605.024.387-.062.789-.095 1.204-.095h28.837c.417 0 .817.033 1.204.095.199-.015.403-.024.606-.024h.001c4.322 0 7.857 3.529 7.857 7.842v10.725z"/><path fill="#CBD4DD" d="M101.071 242.905c-9.049 0-17.647-2.862-24.866-8.279-.327-.245-.519-.628-.519-1.035v-10.725c0-5.038 4.107-9.137 9.155-9.137l.553.018c.414-.059.836-.088 1.258-.088h28.837c.422 0 .844.029 1.258.088l.553-.018c5.049 0 9.156 4.099 9.156 9.137v10.725c0 .407-.191.79-.519 1.035-7.216 5.417-15.815 8.279-24.866 8.279zm-22.789-9.968c6.658 4.829 14.522 7.378 22.789 7.378 8.268 0 16.134-2.548 22.789-7.378v-10.07c0-3.61-2.942-6.547-6.56-6.547l-.511.021-.302-.012c-.327-.053-.663-.079-.999-.079h-28.836c-.336 0-.672.026-.999.079l-.303.012-.508-.021c-3.617 0-6.561 2.937-6.561 6.547v10.07z"/><path fill-rule="evenodd" clip-rule="evenodd" fill="#ECEDF6" d="M89.576 214.954h22.988c-.778 5.627-5.648 9.998-11.493 9.998-5.843 0-10.715-4.371-11.495-9.998z"/><path fill="#CBD4DD" d="M101.071 226.247c-6.407 0-11.902-4.779-12.78-11.115-.051-.372.06-.747.307-1.029.246-.282.604-.443.979-.443h22.988c.375 0 .731.161.979.443.246.282.358.657.308 1.029-.877 6.336-6.372 11.115-12.781 11.115zm-9.892-9.998c1.267 4.313 5.284 7.408 9.893 7.408 4.61 0 8.626-3.096 9.892-7.408h-19.785z"/><path fill-rule="evenodd" clip-rule="evenodd" fill="#ECEDF6" d="M89.576 214.954h22.988c-.778 5.627-5.648 9.998-11.493 9.998-5.843 0-10.715-4.371-11.495-9.998z"/><path fill="#CBD4DD" d="M101.071 226.247c-6.407 0-11.902-4.779-12.78-11.115-.051-.372.06-.747.307-1.029.246-.282.604-.443.979-.443h22.988c.375 0 .731.161.979.443.246.282.358.657.308 1.029-.877 6.336-6.372 11.115-12.781 11.115zm-9.892-9.998c1.267 4.313 5.284 7.408 9.893 7.408 4.61 0 8.626-3.096 9.892-7.408h-19.785z"/><path fill-rule="evenodd" clip-rule="evenodd" fill="#ECEDF6" d="M101.056 193.854h.016l.015-.001h.001c3.31 0 6.018 2.702 6.018 6.005v15.019c0 3.303-2.708 6.005-6.018 6.005h-.001l-.015-.001h-.016c-3.31 0-6.018-2.701-6.018-6.004v-15.019c0-3.302 2.707-6.004 6.018-6.004z"/><path fill="#CBD4DD" d="M101.087 222.177l-.093-.004-.016-.001h-.006c-3.954 0-7.232-3.272-7.232-7.296v-15.019c0-4.025 3.281-7.299 7.315-7.299h.001c4.064 0 7.346 3.273 7.346 7.299v15.019c0 4.025-3.281 7.301-7.315 7.301zm0-27.03c-2.634.001-4.751 2.113-4.751 4.71v15.019c0 2.597 2.117 4.709 4.72 4.709l.054.001c2.592-.012 4.697-2.121 4.697-4.71v-15.019c0-2.596-2.118-4.71-4.72-4.71z"/><path fill-rule="evenodd" clip-rule="evenodd" fill="#ECEDF6" d="M101.071 212.284c-7.365-.642-14.729-7.441-14.729-16.121v-16.053h29.457v16.053c0 8.68-7.363 15.48-14.728 16.121z"/><path fill="#CBD4DD" d="M101.071 213.581l-.113-.006c-7.686-.671-15.913-7.827-15.913-17.412v-16.053c0-.716.581-1.295 1.298-1.295h29.456c.717 0 1.298.579 1.298 1.295v16.053c0 9.585-8.229 16.741-15.912 17.412l-.114.006zm-13.43-32.176v14.758c0 8.118 6.922 14.19 13.431 14.821 6.508-.631 13.43-6.703 13.43-14.821v-14.758h-26.861zM101.07 205.707c-2.2 0-4.182-1.387-4.929-3.449-.244-.673.104-1.416.778-1.659.672-.244 1.418.104 1.661.776.379 1.041 1.378 1.741 2.489 1.741 1.11 0 2.111-.7 2.491-1.742.245-.673.988-1.02 1.663-.775.674.244 1.021.987.776 1.66-.749 2.062-2.731 3.448-4.929 3.448z"/><path fill-rule="evenodd" clip-rule="evenodd" fill="#ECEDF6" d="M107.355 193.549c1.057 0 1.919-.859 1.919-1.916 0-1.054-.862-1.915-1.919-1.915-1.058 0-1.92.861-1.92 1.915.001 1.056.863 1.916 1.92 1.916z"/><path fill="#CBD4DD" d="M107.355 194.845c-1.773 0-3.217-1.441-3.217-3.212 0-1.77 1.443-3.211 3.217-3.211s3.217 1.441 3.217 3.211c0 1.77-1.443 3.212-3.217 3.212zm0-3.832c-.343 0-.622.278-.622.62 0 .343.279.621.622.621s.621-.278.621-.621c.001-.342-.278-.62-.621-.62z"/><path fill-rule="evenodd" clip-rule="evenodd" fill="#ECEDF6" d="M94.787 193.549c1.058 0 1.92-.859 1.92-1.916 0-1.054-.862-1.915-1.92-1.915s-1.919.861-1.919 1.915c0 1.056.861 1.916 1.919 1.916z"/><path fill="#CBD4DD" d="M94.787 194.845c-1.773 0-3.217-1.441-3.217-3.212 0-1.77 1.443-3.211 3.217-3.211s3.218 1.441 3.218 3.211c0 1.77-1.443 3.212-3.218 3.212zm0-3.832c-.343 0-.621.278-.621.62 0 .343.278.621.621.621s.622-.278.622-.621c0-.342-.279-.62-.622-.62z"/><path fill-rule="evenodd" clip-rule="evenodd" fill="#ECEDF6" d="M86.343 186.587c1.111-2.652 7.782-4.609 10.471-4.609 12.046 0 22.101 7.337 24-10.569-5.302 2.5-11.696-.871-19.584-1.16-21.567-2.312-16.811 14.889-14.887 16.338z"/><path fill="#CBD4DD" d="M86.343 187.882c-.279 0-.554-.09-.782-.261-1.548-1.166-3.301-6.612-1.727-11.305 1.16-3.456 4.467-7.576 13.637-7.576 1.22 0 2.531.074 3.897.221 2.96.104 5.825.668 8.353 1.165 2.366.465 4.602.904 6.597.904 1.521 0 2.81-.26 3.941-.793.426-.199.926-.157 1.306.115.384.271.59.727.54 1.192-.983 9.264-4.21 13.216-10.789 13.216-1.979 0-4.129-.329-6.404-.678-2.6-.398-5.287-.811-8.098-.811-2.685 0-8.497 1.961-9.274 3.814-.154.369-.471.646-.858.751-.113.031-.226.046-.339.046zm11.128-16.551c-5.849 0-9.547 1.789-10.993 5.317-1.129 2.756-.593 5.932.034 7.68 2.672-2.303 7.972-3.646 10.302-3.646 3.008 0 5.922.446 8.492.841 2.175.333 4.229.647 6.01.647 3.311 0 6.625-.724 7.938-8.861-.911.209-1.884.313-2.937.313-2.248 0-4.604-.464-7.098-.954-2.553-.501-5.191-1.021-8.037-1.124-1.366-.145-2.584-.213-3.711-.213zM84.663 239.289c-.717 0-1.298-.579-1.298-1.295v-12.568c0-.715.581-1.295 1.298-1.295.716 0 1.298.58 1.298 1.295v12.568c0 .716-.582 1.295-1.298 1.295zM117.479 239.289c-.716 0-1.298-.579-1.298-1.295v-12.568c0-.715.582-1.295 1.298-1.295.717 0 1.298.58 1.298 1.295v12.568c-.001.716-.582 1.295-1.298 1.295z"/><path fill="#536B8B" d="M552.761 295.79h-3.612c-.689 0-1.248-.559-1.248-1.245 0-.688.559-1.247 1.248-1.247h3.612c.689 0 1.249.559 1.249 1.247 0 .686-.56 1.245-1.249 1.245zm-8.605 0h-4.991c-.689 0-1.249-.559-1.249-1.245 0-.688.56-1.247 1.249-1.247h4.991c.689 0 1.249.559 1.249 1.247 0 .686-.559 1.245-1.249 1.245zm-9.983 0h-4.991c-.689 0-1.249-.559-1.249-1.245 0-.688.56-1.247 1.249-1.247h4.991c.689 0 1.249.559 1.249 1.247 0 .686-.56 1.245-1.249 1.245zm-9.984 0h-4.992c-.688 0-1.248-.559-1.248-1.245 0-.688.56-1.247 1.248-1.247h4.992c.689 0 1.248.559 1.248 1.247.001.686-.558 1.245-1.248 1.245zm-9.983 0h-4.992c-.688 0-1.248-.559-1.248-1.245 0-.688.56-1.247 1.248-1.247h4.992c.688 0 1.248.559 1.248 1.247 0 .686-.559 1.245-1.248 1.245zm-9.984 0h-4.991c-.689 0-1.249-.559-1.249-1.245 0-.688.56-1.247 1.249-1.247h4.991c.689 0 1.249.559 1.249 1.247 0 .686-.56 1.245-1.249 1.245zm-9.984 0h-4.991c-.689 0-1.249-.559-1.249-1.245 0-.688.56-1.247 1.249-1.247h4.991c.689 0 1.249.559 1.249 1.247 0 .686-.559 1.245-1.249 1.245zm-9.983 0h-4.992c-.688 0-1.248-.559-1.248-1.245 0-.688.56-1.247 1.248-1.247h4.992c.689 0 1.248.559 1.248 1.247 0 .686-.559 1.245-1.248 1.245zm-9.984 0h-4.992c-.689 0-1.248-.559-1.248-1.245 0-.688.559-1.247 1.248-1.247h4.992c.688 0 1.248.559 1.248 1.247.001.686-.559 1.245-1.248 1.245zm-9.985 0h-4.991c-.689 0-1.249-.559-1.249-1.245 0-.688.56-1.247 1.249-1.247h4.991c.689 0 1.249.559 1.249 1.247 0 .686-.559 1.245-1.249 1.245zm-9.983 0h-4.992c-.688 0-1.248-.559-1.248-1.245 0-.688.56-1.247 1.248-1.247h4.992c.689 0 1.249.559 1.249 1.247 0 .686-.56 1.245-1.249 1.245zm-9.984 0h-4.992c-.688 0-1.248-.559-1.248-1.245 0-.688.56-1.247 1.248-1.247h4.992c.688 0 1.248.559 1.248 1.247 0 .686-.559 1.245-1.248 1.245zm-9.983 0h-4.992c-.689 0-1.249-.559-1.249-1.245 0-.688.56-1.247 1.249-1.247h4.992c.688 0 1.248.559 1.248 1.247 0 .686-.56 1.245-1.248 1.245zm-9.984 0h-4.991c-.689 0-1.249-.559-1.249-1.245 0-.688.56-1.247 1.249-1.247h4.991c.689 0 1.249.559 1.249 1.247 0 .686-.56 1.245-1.249 1.245zm-9.984 0h-4.992c-.688 0-1.248-.559-1.248-1.245 0-.688.56-1.247 1.248-1.247h4.992c.689 0 1.249.559 1.249 1.247 0 .686-.559 1.245-1.249 1.245zm-9.983 0h-4.992c-.688 0-1.248-.559-1.248-1.245 0-.688.56-1.247 1.248-1.247h4.992c.688 0 1.248.559 1.248 1.247 0 .686-.56 1.245-1.248 1.245zm-9.984 0h-4.992c-.689 0-1.249-.559-1.249-1.245 0-.688.56-1.247 1.249-1.247h4.992c.688 0 1.248.559 1.248 1.247 0 .686-.559 1.245-1.248 1.245zm-9.984 0h-4.991c-.689 0-1.249-.559-1.249-1.245 0-.688.56-1.247 1.249-1.247h4.991c.689 0 1.249.559 1.249 1.247 0 .686-.56 1.245-1.249 1.245zm-9.983 0h-4.991c-.689 0-1.249-.559-1.249-1.245 0-.688.56-1.247 1.249-1.247h4.991c.689 0 1.249.559 1.249 1.247 0 .686-.56 1.245-1.249 1.245zm-9.984 0h-4.993c-.688 0-1.248-.559-1.248-1.245 0-.688.56-1.247 1.248-1.247h4.993c.688 0 1.248.559 1.248 1.247 0 .686-.559 1.245-1.248 1.245zm-9.985 0h-4.991c-.689 0-1.249-.559-1.249-1.245 0-.688.56-1.247 1.249-1.247h4.991c.689 0 1.249.559 1.249 1.247 0 .686-.56 1.245-1.249 1.245zm-9.984 0h-4.991c-.689 0-1.249-.559-1.249-1.245 0-.688.56-1.247 1.249-1.247h4.991c.689 0 1.249.559 1.249 1.247 0 .686-.559 1.245-1.249 1.245zm-9.983 0h-4.992c-.688 0-1.248-.559-1.248-1.245 0-.688.56-1.247 1.248-1.247h4.992c.689 0 1.248.559 1.248 1.247 0 .686-.558 1.245-1.248 1.245zm-9.983 0h-4.992c-.688 0-1.248-.559-1.248-1.245 0-.688.56-1.247 1.248-1.247h4.992c.688 0 1.248.559 1.248 1.247 0 .686-.56 1.245-1.248 1.245zm-9.984 0h-4.992c-.689 0-1.249-.559-1.249-1.245 0-.688.56-1.247 1.249-1.247h4.992c.688 0 1.248.559 1.248 1.247 0 .686-.559 1.245-1.248 1.245zM306.807 289.207c-.32 0-.639-.121-.883-.364-.487-.486-.487-1.275 0-1.762l3.53-3.523c.488-.485 1.277-.485 1.766 0 .487.486.487 1.275 0 1.762l-3.53 3.523c-.245.243-.563.364-.883.364zm7.06-7.045c-.32 0-.639-.123-.883-.366-.487-.486-.487-1.275 0-1.762l3.528-3.521c.489-.485 1.277-.485 1.766 0 .487.486.487 1.275 0 1.762l-3.528 3.521c-.244.243-.563.366-.883.366zm7.059-7.046c-.319 0-.639-.122-.883-.365-.487-.486-.487-1.275 0-1.762l3.53-3.523c.488-.485 1.277-.485 1.766 0 .487.486.487 1.275 0 1.762l-3.53 3.523c-.245.243-.563.365-.883.365zm7.06-7.046c-.32 0-.639-.123-.883-.366-.487-.486-.487-1.275 0-1.762l3.529-3.521c.489-.485 1.277-.485 1.766 0 .487.487.487 1.276 0 1.763l-3.529 3.521c-.244.242-.563.365-.883.365zm7.059-7.045c-.32 0-.639-.123-.883-.365-.487-.486-.487-1.276 0-1.763l3.53-3.523c.488-.484 1.277-.484 1.766 0 .487.486.487 1.276 0 1.763l-3.53 3.523c-.244.242-.563.365-.883.365zm7.06-7.046c-.32 0-.639-.123-.883-.364-.487-.488-.487-1.277 0-1.763l3.529-3.522c.49-.485 1.278-.484 1.766 0 .487.487.487 1.276 0 1.763l-3.529 3.522c-.245.24-.563.364-.883.364zm7.06-7.045c-.319 0-.639-.123-.883-.365-.487-.486-.487-1.275 0-1.763l3.529-3.523c.488-.484 1.276-.484 1.766 0 .487.486.487 1.275 0 1.763l-3.529 3.523c-.244.242-.563.365-.883.365zm7.059-7.047c-.319 0-.638-.122-.883-.364-.487-.487-.487-1.276 0-1.763l3.53-3.522c.488-.485 1.277-.485 1.766 0 .487.488.487 1.276 0 1.763l-3.53 3.522c-.245.242-.563.364-.883.364zm7.06-7.045c-.32 0-.639-.122-.883-.365-.487-.486-.487-1.275 0-1.762l3.53-3.522c.488-.485 1.277-.485 1.766 0 .487.485.487 1.275 0 1.761l-3.53 3.523c-.244.243-.563.365-.883.365zm7.059-7.047c-.319 0-.639-.121-.883-.364-.487-.487-.487-1.275 0-1.762l3.53-3.522c.488-.485 1.277-.485 1.766 0 .487.487.487 1.275 0 1.762l-3.53 3.522c-.245.243-.563.364-.883.364zm7.06-7.045c-.32 0-.639-.122-.883-.365-.487-.486-.487-1.275 0-1.762l3.53-3.522c.488-.485 1.276-.485 1.766 0 .486.486.486 1.275 0 1.762l-3.53 3.522c-.244.243-.563.365-.883.365zm7.06-7.046c-.319 0-.639-.121-.883-.365-.487-.485-.487-1.274 0-1.761l3.529-3.522c.488-.486 1.277-.487 1.766-.001.487.486.487 1.274 0 1.761l-3.529 3.523c-.244.243-.563.365-.883.365zm7.059-7.046c-.32 0-.639-.121-.883-.364-.487-.486-.487-1.275 0-1.762l3.529-3.522c.489-.486 1.277-.486 1.766 0 .487.486.487 1.274 0 1.761l-3.529 3.523c-.244.243-.563.364-.883.364zm7.06-7.045c-.319 0-.639-.122-.883-.365-.487-.486-.487-1.275 0-1.762l3.53-3.522c.488-.486 1.277-.486 1.766 0 .487.486.487 1.274 0 1.761l-3.53 3.523c-.244.243-.563.365-.883.365zm7.06-7.046c-.32 0-.639-.122-.883-.365-.487-.486-.487-1.275 0-1.762l3.529-3.522c.488-.486 1.277-.486 1.766 0 .487.486.487 1.274 0 1.761l-3.529 3.523c-.246.243-.564.365-.883.365zm7.059-7.046c-.319 0-.639-.122-.883-.365-.487-.486-.487-1.274 0-1.761l3.53-3.523c.488-.486 1.277-.486 1.766 0 .487.486.487 1.274 0 1.762l-3.53 3.522c-.244.243-.563.365-.883.365zm7.061-7.045c-.32 0-.639-.121-.883-.364-.487-.486-.487-1.275 0-1.762l3.528-3.523c.488-.486 1.277-.486 1.766 0 .487.486.487 1.275 0 1.762l-3.528 3.522c-.245.243-.564.365-.883.365zm7.058-7.046c-.32 0-.639-.122-.883-.365-.487-.485-.487-1.274 0-1.761l3.53-3.523c.488-.486 1.277-.486 1.766 0 .487.486.487 1.275 0 1.762l-3.53 3.522c-.244.243-.562.365-.883.365zm7.061-7.045c-.32 0-.639-.122-.883-.365-.487-.486-.487-1.275 0-1.762l3.529-3.523c.488-.485 1.277-.485 1.766 0 .487.486.487 1.275 0 1.762l-3.53 3.523c-.244.243-.563.365-.882.365zm7.058-7.047c-.32 0-.639-.122-.883-.365-.487-.486-.487-1.274 0-1.762l3.53-3.522c.488-.486 1.276-.485 1.766.001.487.486.487 1.274 0 1.761l-3.53 3.523c-.244.243-.563.364-.883.364zm7.06-7.046c-.319 0-.639-.122-.883-.365-.487-.486-.487-1.274 0-1.762l3.53-3.521c.488-.486 1.277-.486 1.766 0 .487.486.487 1.274 0 1.762l-3.53 3.522c-.244.243-.563.364-.883.364zm7.061-7.046c-.32 0-.639-.121-.883-.364-.487-.486-.487-1.275 0-1.762l3.528-3.522c.489-.486 1.277-.486 1.766 0 .487.486.487 1.275 0 1.761l-3.528 3.523c-.245.243-.564.364-.883.364zm7.058-7.046c-.319 0-.639-.121-.883-.364-.487-.486-.487-1.275 0-1.762l3.53-3.522c.488-.486 1.277-.486 1.766 0 .487.486.487 1.275 0 1.762l-3.53 3.522c-.244.243-.563.364-.883.364zm7.061-7.045c-.32 0-.639-.122-.883-.365-.487-.486-.487-1.275 0-1.762l3.53-3.522c.488-.485 1.276-.486 1.766 0 .486.486.486 1.275 0 1.762l-3.53 3.522c-.245.243-.564.365-.883.365zm7.058-7.046c-.319 0-.639-.122-.883-.365-.487-.486-.487-1.275 0-1.762l2.555-2.549c.488-.485 1.277-.486 1.766 0 .487.487.487 1.275 0 1.762l-2.555 2.549c-.244.243-.562.365-.883.365zM304.076 295.79h-4.992c-.689 0-1.249-.559-1.249-1.245 0-.688.56-1.247 1.249-1.247h4.992c.688 0 1.248.559 1.248 1.247 0 .686-.559 1.245-1.248 1.245zm-9.984 0h-4.991c-.689 0-1.249-.559-1.249-1.245 0-.688.56-1.247 1.249-1.247h4.991c.689 0 1.249.559 1.249 1.247 0 .686-.56 1.245-1.249 1.245zm-9.984 0h-4.992c-.688 0-1.248-.559-1.248-1.245 0-.688.56-1.247 1.248-1.247h4.992c.689 0 1.249.559 1.249 1.247 0 .686-.559 1.245-1.249 1.245zm-9.983 0h-4.992c-.688 0-1.248-.559-1.248-1.245 0-.688.56-1.247 1.248-1.247h4.992c.688 0 1.248.559 1.248 1.247 0 .686-.56 1.245-1.248 1.245zm-9.983 0h-4.992c-.689 0-1.249-.559-1.249-1.245 0-.688.56-1.247 1.249-1.247h4.992c.688 0 1.248.559 1.248 1.247 0 .686-.56 1.245-1.248 1.245zm-9.985 0h-4.992c-.689 0-1.249-.559-1.249-1.245 0-.688.56-1.247 1.249-1.247h4.992c.689 0 1.249.559 1.249 1.247 0 .686-.559 1.245-1.249 1.245zm-9.984 0h-4.992c-.688 0-1.248-.559-1.248-1.245 0-.688.56-1.247 1.248-1.247h4.992c.688 0 1.248.559 1.248 1.247 0 .686-.56 1.245-1.248 1.245zm-9.984 0h-4.992c-.689 0-1.248-.559-1.248-1.245 0-.688.559-1.247 1.248-1.247h4.992c.688 0 1.248.559 1.248 1.247.001.686-.559 1.245-1.248 1.245zm-9.984 0h-4.991c-.689 0-1.249-.559-1.249-1.245 0-.688.56-1.247 1.249-1.247h4.991c.689 0 1.249.559 1.249 1.247 0 .686-.559 1.245-1.249 1.245zm-9.983 0h-4.991c-.689 0-1.249-.559-1.249-1.245 0-.688.56-1.247 1.249-1.247h4.991c.689 0 1.249.559 1.249 1.247 0 .686-.56 1.245-1.249 1.245zm-9.984 0h-4.992c-.688 0-1.248-.559-1.248-1.245 0-.688.56-1.247 1.248-1.247h4.992c.689 0 1.248.559 1.248 1.247 0 .686-.558 1.245-1.248 1.245zm-9.983 0h-4.992c-.688 0-1.248-.559-1.248-1.245 0-.688.56-1.247 1.248-1.247h4.992c.688 0 1.248.559 1.248 1.247 0 .686-.56 1.245-1.248 1.245zm-9.984 0h-4.991c-.689 0-1.249-.559-1.249-1.245 0-.688.56-1.247 1.249-1.247h4.991c.689 0 1.249.559 1.249 1.247 0 .686-.56 1.245-1.249 1.245zm-9.984 0h-4.991c-.689 0-1.249-.559-1.249-1.245 0-.688.56-1.247 1.249-1.247h4.991c.689 0 1.249.559 1.249 1.247 0 .686-.559 1.245-1.249 1.245zm-9.983 0h-4.992c-.688 0-1.248-.559-1.248-1.245 0-.688.56-1.247 1.248-1.247h4.992c.689 0 1.248.559 1.248 1.247 0 .686-.559 1.245-1.248 1.245zm-9.984 0h-4.993c-.689 0-1.249-.559-1.249-1.245 0-.688.56-1.247 1.249-1.247h4.993c.688 0 1.248.559 1.248 1.247 0 .686-.559 1.245-1.248 1.245zm-9.985 0h-4.991c-.689 0-1.249-.559-1.249-1.245 0-.688.56-1.247 1.249-1.247h4.991c.689 0 1.249.559 1.249 1.247 0 .686-.56 1.245-1.249 1.245zm-9.983 0h-4.992c-.688 0-1.248-.559-1.248-1.245 0-.688.56-1.247 1.248-1.247h4.992c.689 0 1.249.559 1.249 1.247 0 .686-.56 1.245-1.249 1.245zm-9.984 0h-4.992c-.688 0-1.248-.559-1.248-1.245 0-.688.56-1.247 1.248-1.247h4.992c.688 0 1.248.559 1.248 1.247 0 .686-.559 1.245-1.248 1.245zm-9.983 0h-4.992c-.689 0-1.248-.559-1.248-1.245 0-.688.559-1.247 1.248-1.247h4.992c.688 0 1.248.559 1.248 1.247 0 .686-.56 1.245-1.248 1.245zm-9.985 0h-4.991c-.689 0-1.249-.559-1.249-1.245 0-.688.56-1.247 1.249-1.247h4.991c.689 0 1.249.559 1.249 1.247 0 .686-.559 1.245-1.249 1.245zm-9.983 0h-4.991c-.689 0-1.249-.559-1.249-1.245 0-.688.56-1.247 1.249-1.247h4.991c.689 0 1.249.559 1.249 1.247 0 .686-.56 1.245-1.249 1.245zm-9.983 0h-4.992c-.688 0-1.248-.559-1.248-1.245 0-.688.56-1.247 1.248-1.247h4.992c.688 0 1.248.559 1.248 1.247 0 .686-.56 1.245-1.248 1.245zm-9.984 0h-4.992c-.689 0-1.248-.559-1.248-1.245 0-.688.559-1.247 1.248-1.247h4.992c.688 0 1.248.559 1.248 1.247 0 .686-.559 1.245-1.248 1.245zm-9.984 0h-3.611c-.688 0-1.248-.559-1.248-1.245 0-.688.56-1.247 1.248-1.247h3.611c.689 0 1.249.559 1.249 1.247 0 .686-.56 1.245-1.249 1.245zM306.807 289.207c-.32 0-.639-.121-.883-.364l-3.53-3.523c-.487-.486-.487-1.275 0-1.762.488-.485 1.277-.485 1.766 0l3.53 3.523c.487.486.487 1.275 0 1.762-.245.243-.563.364-.883.364zm-7.061-7.045c-.319 0-.638-.123-.882-.366l-3.529-3.521c-.487-.486-.487-1.275 0-1.762.488-.485 1.277-.485 1.766 0l3.528 3.521c.487.486.487 1.275 0 1.762-.244.243-.563.366-.883.366zm-7.058-7.046c-.319 0-.639-.122-.883-.365l-3.53-3.523c-.487-.486-.487-1.275 0-1.762.489-.485 1.277-.485 1.766 0l3.53 3.523c.487.486.487 1.275 0 1.762-.245.243-.563.365-.883.365zm-7.06-7.046c-.32 0-.639-.123-.883-.366l-3.529-3.521c-.487-.486-.487-1.276 0-1.763.488-.485 1.277-.485 1.766 0l3.529 3.521c.487.486.487 1.275 0 1.762-.244.244-.564.367-.883.367zm-7.06-7.045c-.319 0-.639-.123-.883-.365l-3.529-3.523c-.487-.486-.487-1.276 0-1.763.488-.484 1.276-.484 1.765 0l3.53 3.523c.487.486.487 1.276 0 1.763-.244.242-.562.365-.883.365zm-7.059-7.046c-.32 0-.639-.123-.883-.364l-3.53-3.523c-.487-.486-.487-1.276 0-1.763.488-.485 1.277-.485 1.766 0l3.53 3.523c.487.485.487 1.276 0 1.763-.245.24-.564.364-.883.364zm-7.06-7.045c-.319 0-.639-.123-.883-.365l-3.529-3.523c-.487-.486-.487-1.276 0-1.763.488-.484 1.276-.484 1.766 0l3.529 3.523c.487.486.487 1.276 0 1.763-.244.242-.562.365-.883.365zm-7.059-7.047c-.32 0-.639-.122-.883-.364l-3.53-3.523c-.487-.486-.487-1.275 0-1.763.488-.485 1.277-.485 1.766 0l3.53 3.523c.487.486.487 1.276 0 1.763-.245.242-.564.364-.883.364zm-7.059-7.045c-.32 0-.639-.122-.883-.365l-3.53-3.523c-.487-.485-.487-1.275 0-1.761.488-.485 1.277-.485 1.766 0l3.529 3.522c.487.486.487 1.275 0 1.762-.244.243-.563.365-.882.365zm-7.06-7.047c-.32 0-.639-.121-.883-.364l-3.53-3.523c-.487-.486-.487-1.275 0-1.762.488-.485 1.277-.485 1.766 0l3.53 3.523c.487.486.487 1.275 0 1.762-.245.243-.563.364-.883.364zm-7.061-7.046c-.319 0-.638-.122-.883-.365l-3.528-3.521c-.487-.486-.487-1.275 0-1.762.488-.485 1.277-.485 1.766 0l3.528 3.521c.487.486.487 1.275 0 1.762-.244.243-.563.365-.883.365zm-7.059-7.046c-.319 0-.639-.121-.883-.364l-3.53-3.524c-.487-.485-.487-1.273 0-1.76.488-.486 1.277-.486 1.766 0l3.53 3.522c.487.487.487 1.274 0 1.762-.244.243-.562.364-.883.364zm-7.059-7.045c-.32 0-.639-.122-.883-.365l-3.529-3.523c-.487-.486-.487-1.275 0-1.762.488-.486 1.277-.485 1.766.001l3.529 3.523c.487.486.487 1.275 0 1.762-.246.243-.564.364-.883.364zm-7.06-7.046c-.319 0-.639-.122-.883-.365l-3.53-3.523c-.486-.486-.486-1.274 0-1.761.489-.486 1.277-.486 1.766 0l3.53 3.523c.487.486.487 1.274 0 1.761-.244.243-.562.365-.883.365zm-7.059-7.046c-.32 0-.639-.122-.883-.365l-3.53-3.523c-.487-.485-.487-1.274 0-1.761.488-.486 1.277-.486 1.766 0l3.53 3.522c.487.486.487 1.275 0 1.762-.245.243-.564.365-.883.365zm-7.06-7.045c-.319 0-.639-.122-.883-.365l-3.529-3.521c-.487-.487-.487-1.275 0-1.762.488-.486 1.276-.487 1.766 0l3.529 3.521c.487.487.487 1.275 0 1.762-.244.242-.563.365-.883.365zm-7.059-7.046c-.32 0-.639-.121-.883-.364l-3.53-3.522c-.487-.487-.487-1.275 0-1.762.488-.486 1.277-.487 1.766-.001l3.53 3.522c.487.487.487 1.275 0 1.762-.245.243-.564.365-.883.365zm-7.06-7.046c-.319 0-.638-.121-.883-.364l-3.529-3.523c-.487-.486-.487-1.274 0-1.761.488-.486 1.277-.487 1.766-.001l3.529 3.522c.487.487.487 1.275 0 1.762-.244.243-.563.365-.883.365zm-7.06-7.046c-.32 0-.639-.122-.883-.365l-3.53-3.522c-.487-.486-.487-1.275 0-1.762.488-.486 1.277-.486 1.766 0l3.53 3.523c.487.486.487 1.274 0 1.761-.244.243-.563.365-.883.365zm-7.06-7.046c-.319 0-.639-.122-.883-.365l-3.528-3.522c-.487-.486-.487-1.275 0-1.762.488-.486 1.277-.486 1.766 0l3.528 3.523c.487.486.487 1.275 0 1.762-.244.243-.563.364-.883.364zm-7.059-7.045c-.319 0-.639-.123-.883-.366l-3.53-3.522c-.487-.486-.487-1.274 0-1.761.488-.486 1.277-.486 1.766 0l3.53 3.522c.487.487.487 1.275 0 1.761-.244.243-.562.366-.883.366zm-7.059-7.046c-.32 0-.639-.122-.883-.365l-3.529-3.523c-.487-.486-.487-1.275 0-1.762.488-.486 1.277-.485 1.766.001l3.529 3.523c.486.486.486 1.275 0 1.762-.246.243-.564.364-.883.364zm-7.06-7.046c-.319 0-.639-.122-.883-.365l-3.53-3.523c-.487-.486-.487-1.274 0-1.761.489-.486 1.277-.486 1.766 0l3.53 3.523c.487.486.487 1.274 0 1.761-.244.243-.563.365-.883.365zm-7.059-7.046c-.32 0-.639-.122-.883-.365l-3.53-3.522c-.487-.487-.487-1.275 0-1.762.488-.486 1.277-.486 1.766 0l3.53 3.522c.487.486.487 1.275 0 1.762-.245.243-.564.365-.883.365zm-7.06-7.046c-.319 0-.639-.122-.883-.365l-2.553-2.548c-.487-.486-.487-1.274 0-1.762.488-.486 1.277-.486 1.766 0l2.553 2.548c.487.486.487 1.275 0 1.762-.244.243-.563.365-.883.365zM313.402 286.482c-.689 0-1.248-.559-1.248-1.247v-4.981c0-.688.559-1.246 1.248-1.246s1.249.559 1.249 1.246v4.981c0 .689-.559 1.247-1.249 1.247zm0-9.963c-.689 0-1.248-.559-1.248-1.247v-4.982c0-.687.559-1.245 1.248-1.245s1.249.559 1.249 1.245v4.982c0 .688-.559 1.247-1.249 1.247zm0-9.965c-.689 0-1.248-.559-1.248-1.246v-4.982c0-.687.559-1.245 1.248-1.245s1.249.559 1.249 1.245v4.982c0 .687-.559 1.246-1.249 1.246zm0-9.964c-.689 0-1.248-.559-1.248-1.246v-4.982c0-.688.559-1.246 1.248-1.246s1.249.559 1.249 1.246v4.982c0 .687-.559 1.246-1.249 1.246zm0-9.964c-.689 0-1.248-.559-1.248-1.247v-4.981c0-.688.559-1.246 1.248-1.246s1.249.559 1.249 1.246v4.981c0 .688-.559 1.247-1.249 1.247zm0-9.964c-.689 0-1.248-.559-1.248-1.247v-4.983c0-.688.559-1.245 1.248-1.245s1.249.558 1.249 1.245v4.983c0 .689-.559 1.247-1.249 1.247zm0-9.966c-.689 0-1.248-.559-1.248-1.246v-4.982c0-.688.559-1.245 1.248-1.245s1.249.557 1.249 1.245v4.982c0 .688-.559 1.246-1.249 1.246zm0-9.964c-.689 0-1.248-.559-1.248-1.247v-4.981c0-.688.559-1.245 1.248-1.245s1.249.558 1.249 1.245v4.981c0 .689-.559 1.247-1.249 1.247zm0-9.964c-.689 0-1.248-.558-1.248-1.246v-4.981c0-.688.559-1.246 1.248-1.246s1.249.559 1.249 1.246v4.981c0 .688-.559 1.246-1.249 1.246zm0-9.964c-.689 0-1.248-.559-1.248-1.246v-4.981c0-.688.559-1.246 1.248-1.246s1.249.558 1.249 1.246v4.981c0 .687-.559 1.246-1.249 1.246zm0-9.965c-.689 0-1.248-.558-1.248-1.245v-4.982c0-.688.559-1.245 1.248-1.245s1.249.558 1.249 1.245v4.982c0 .687-.559 1.245-1.249 1.245zm0-9.964c-.689 0-1.248-.558-1.248-1.245v-4.982c0-.688.559-1.246 1.248-1.246s1.249.559 1.249 1.246v4.982c0 .687-.559 1.245-1.249 1.245zm0-9.965c-.689 0-1.248-.557-1.248-1.245v-4.982c0-.688.559-1.245 1.248-1.245s1.249.558 1.249 1.245v4.982c0 .689-.559 1.245-1.249 1.245zm0-9.964c-.689 0-1.248-.558-1.248-1.246v-4.981c0-.688.559-1.246 1.248-1.246s1.249.558 1.249 1.246v4.981c0 .689-.559 1.246-1.249 1.246zm0-9.965c-.689 0-1.248-.558-1.248-1.245v-4.982c0-.688.559-1.245 1.248-1.245s1.249.558 1.249 1.245v4.982c0 .688-.559 1.245-1.249 1.245zm0-9.963c-.689 0-1.248-.558-1.248-1.245v-4.982c0-.688.559-1.245 1.248-1.245s1.249.558 1.249 1.245v4.982c0 .687-.559 1.245-1.249 1.245zm0-9.964c-.689 0-1.248-.558-1.248-1.246v-4.981c0-.688.559-1.246 1.248-1.246s1.249.559 1.249 1.246v4.981c0 .688-.559 1.246-1.249 1.246zm0-9.964c-.689 0-1.248-.559-1.248-1.246v-4.981c0-.688.559-1.246 1.248-1.246s1.249.559 1.249 1.246v4.981c0 .687-.559 1.246-1.249 1.246zm0-9.965c-.689 0-1.248-.558-1.248-1.245v-4.982c0-.688.559-1.246 1.248-1.246s1.249.558 1.249 1.246v4.982c0 .687-.559 1.245-1.249 1.245zm0-9.964c-.689 0-1.248-.559-1.248-1.246v-4.981c0-.688.559-1.246 1.248-1.246s1.249.558 1.249 1.246v4.981c0 .688-.559 1.246-1.249 1.246zm0-9.965c-.689 0-1.248-.558-1.248-1.246v-4.981c0-.688.559-1.246 1.248-1.246s1.249.559 1.249 1.246v4.981c0 .689-.559 1.246-1.249 1.246zm0-9.964c-.689 0-1.248-.558-1.248-1.246v-4.981c0-.688.559-1.246 1.248-1.246s1.249.558 1.249 1.246v4.981c0 .689-.559 1.246-1.249 1.246zm0-9.964c-.689 0-1.248-.558-1.248-1.245v-4.983c0-.688.559-1.245 1.248-1.245s1.249.558 1.249 1.245v4.982c0 .688-.559 1.246-1.249 1.246zm0-9.964c-.689 0-1.248-.558-1.248-1.245v-4.982c0-.688.559-1.245 1.248-1.245s1.249.558 1.249 1.245v4.982c0 .687-.559 1.245-1.249 1.245zm0-9.964c-.689 0-1.248-.558-1.248-1.246v-3.605c0-.688.559-1.245 1.248-1.245s1.249.558 1.249 1.245v3.605c0 .688-.559 1.246-1.249 1.246z"/><path fill-rule="evenodd" clip-rule="evenodd" fill="#96A0BB" d="M161.358 190.882h304.088v207.326h-304.088z"/><path fill="#536B8B" d="M465.446 399.504h-304.088c-.717 0-1.298-.58-1.298-1.296v-207.326c0-.716.581-1.295 1.298-1.295h304.088c.717 0 1.298.579 1.298 1.295v207.326c0 .716-.581 1.296-1.298 1.296zm-302.79-2.591h301.492v-204.736h-301.492v204.736z"/><path fill-rule="evenodd" clip-rule="evenodd" fill="#5285C4" d="M180.505 217.668h265.796v155.354h-265.796z"/><path fill="#536B8B" d="M446.301 374.317h-265.796c-.717 0-1.298-.58-1.298-1.295v-155.354c0-.715.581-1.296 1.298-1.296h265.796c.716 0 1.297.581 1.297 1.296v155.354c0 .715-.581 1.295-1.297 1.295zm-264.498-2.59h263.2v-152.764h-263.2v152.764z"/><path fill-rule="evenodd" clip-rule="evenodd" fill="#638DC9" d="M182.023 371.984l261.496-152.839h-261.496z"/><path fill-rule="evenodd" clip-rule="evenodd" fill="#96A0BB" d="M128.305 384.711h370.195v13.498c0 7.425-6.084 13.495-13.521 13.495h-343.15c-7.438 0-13.523-6.07-13.523-13.495v-13.498z"/><path fill="#536B8B" d="M484.979 413h-343.15c-8.173 0-14.821-6.636-14.821-14.791v-13.498c0-.714.582-1.294 1.298-1.294h370.194c.717 0 1.298.58 1.298 1.294v13.498c0 8.155-6.649 14.791-14.819 14.791zm-355.376-26.993v12.202c0 6.728 5.484 12.2 12.226 12.2h343.15c6.74 0 12.224-5.473 12.224-12.2v-12.202h-367.6z"/><path fill-rule="evenodd" clip-rule="evenodd" fill="#7A88AB" d="M497.063 398.767c-.315 6.352-5.617 11.445-12.055 11.445h-343.178c-6.437 0-11.737-5.094-12.054-11.445h367.287z"/><path fill-rule="evenodd" clip-rule="evenodd" fill="#537AAD" d="M230.4 341.563l137.475-.382v7.562l-137.475.382v-7.562zm0-95.834h142.67v7.563h-142.67v-7.563zm0 47.917h142.813v7.561h-142.813v-7.561zm0 15.972h63.835v7.563h-63.835v-7.563zm72.921 0h27.771v7.563h-27.771v-7.563zm-72.921-31.944h105.43v7.562h-105.43v-7.562zm0-15.973h25.4v7.562h-25.4v-7.562zm120.57 0h37.391v7.562h-37.391v-7.562zm-49.755 0h38.038v7.562h-38.038v-7.562zm-70.815 63.89h156.787v7.562h-156.787v-7.562z"/><path fill-rule="evenodd" clip-rule="evenodd" fill="#5981B1" d="M230.4 343.859l3.949-2.308-3.949.011v2.297zm18.319-10.707l12.938-7.562h-31.257v7.562h18.319zm27.326-15.971l12.938-7.563h-58.583v7.563h45.645zm27.327-15.974l12.938-7.561h-85.91v7.561h72.972zm27.328-15.972l5.13-2.999v-4.563h-105.43v7.562h100.3zm27.325-15.972l12.939-7.562h-19.994v7.562h7.055zm-127.625-23.534h142.67v7.563h-142.67v-7.563zm0 15.972h25.4v7.562h-25.4v-7.562zm70.815 0h38.038v7.562h-38.038v-7.562z"/><path fill-rule="evenodd" clip-rule="evenodd" fill="#A2BAF0" d="M313.402 235.687l25.884 14.916 25.884 14.914-28.666 16.516-11.551-6.656-11.551-6.655-11.55 6.655-11.55 6.656v26.624000000000002l11.55 6.656 11.55 6.656 11.551-6.656 11.551-6.656 28.666 16.518-25.884 14.914-25.884 14.915-25.882-14.915-25.884-14.914v-59.658l25.884-14.914z"/><path fill="#536B8B" d="M313.402 356.249c-.216 0-.431-.056-.624-.166l-51.766-29.83c-.387-.223-.625-.634-.625-1.078v-59.658c0-.445.238-.856.625-1.08l51.766-29.829c.386-.222.862-.222 1.248 0l51.768 29.829c.386.224.625.635.625 1.08 0 .444-.239.855-.625 1.079l-28.666 16.517c-.385.222-.862.222-1.247 0l-22.479-12.951-21.852 12.591v25.187l21.852 12.592 22.479-12.952c.385-.223.862-.223 1.247 0l28.666 16.518c.386.222.625.633.625 1.079 0 .444-.239.855-.625 1.078l-51.768 29.83c-.192.108-.408.164-.624.164zm-50.517-31.794l50.518 29.11 49.271-28.391-26.17-15.079-22.478 12.952c-.386.222-.862.222-1.248 0l-23.101-13.313c-.386-.223-.624-.633-.624-1.078v-26.624c0-.444.238-.855.624-1.079l23.101-13.311c.386-.223.862-.223 1.248 0l22.478 12.952 26.17-15.079-49.271-28.392-50.518 29.109v58.223z"/><path fill-rule="evenodd" clip-rule="evenodd" fill="#C7D5F6" d="M313.402 321.969l11.551-6.656 11.551-6.656 28.666 16.518-25.884 14.914-25.884 14.914z"/><path fill="#536B8B" d="M313.402 356.248c-.216 0-.431-.056-.624-.166-.386-.224-.624-.635-.624-1.079v-33.034c0-.444.238-.855.624-1.079l23.103-13.312c.385-.223.862-.223 1.247 0l28.666 16.518c.386.222.625.633.625 1.079 0 .444-.239.855-.625 1.078l-51.768 29.829c-.192.11-.408.166-.624.166zm1.249-33.56v30.158l48.022-27.671-26.17-15.079-21.852 12.592z"/><path fill-rule="evenodd" clip-rule="evenodd" fill="#fff" d="M313.402 355.004l-25.882-14.915-25.884-14.914v-59.658l28.666 16.516v26.624000000000002l11.55 6.656 11.55 6.656z"/><path fill="#536B8B" d="M313.402 356.249c-.216 0-.431-.056-.624-.166l-51.766-29.83c-.387-.223-.625-.634-.625-1.078v-59.658c0-.445.238-.856.625-1.08.385-.221.862-.221 1.247 0l28.666 16.518c.386.224.625.635.625 1.079v25.905l22.476 12.951c.387.224.625.635.625 1.079v33.035c0 .444-.238.855-.625 1.079-.192.11-.408.166-.624.166zm-50.517-31.794l49.27 28.392v-30.159l-22.477-12.952c-.386-.223-.624-.633-.624-1.078v-25.905l-26.169-15.079v56.781z"/><ellipse fill-rule="evenodd" clip-rule="evenodd" fill="#7A88AB" cx="313.402" cy="203.478" rx="5.363" ry="5.352"/><path fill="#536B8B" d="M313.402 210.126c-3.673 0-6.661-2.981-6.661-6.647 0-3.665 2.988-6.647 6.661-6.647 3.674 0 6.661 2.982 6.661 6.647 0 3.666-2.987 6.647-6.661 6.647zm0-10.705c-2.241 0-4.065 1.82-4.065 4.058 0 2.238 1.824 4.057 4.065 4.057s4.065-1.818 4.065-4.057c.001-2.238-1.823-4.058-4.065-4.058z"/><path fill-rule="evenodd" clip-rule="evenodd" fill="#96A0BB" d="M261.12 384.711h104.565v3.813c0 2.098-1.718 3.812-3.819 3.812h-96.927c-2.101 0-3.819-1.714-3.819-3.812v-3.813z"/><path fill="#536B8B" d="M361.866 393.632h-96.927c-2.822 0-5.117-2.291-5.117-5.107v-3.813c0-.714.581-1.294 1.298-1.294h104.565c.717 0 1.298.58 1.298 1.294v3.813c0 2.816-2.295 5.107-5.117 5.107zm-99.448-7.625v2.518c0 1.388 1.131 2.517 2.521 2.517h96.927c1.391 0 2.522-1.129 2.522-2.517v-2.518h-101.97z"/><ellipse fill-rule="evenodd" clip-rule="evenodd" fill="#fff" cx="168.858" cy="150.283" rx="5.956" ry="5.945"/><path fill="#EF6E65" d="M168.858 157.474c-3.973 0-7.205-3.226-7.205-7.19s3.232-7.19 7.205-7.19 7.205 3.226 7.205 7.19-3.232 7.19-7.205 7.19zm0-11.89c-2.597 0-4.708 2.107-4.708 4.699 0 2.591 2.111 4.699 4.708 4.699 2.596 0 4.708-2.108 4.708-4.699 0-2.592-2.112-4.699-4.708-4.699z"/><g fill="#536B8B"><path fill-rule="evenodd" clip-rule="evenodd" d="M77.066 45.11h108.335v69.797h-108.335z"/><path d="M185.401 116.202h-108.335c-.717 0-1.298-.58-1.298-1.295v-69.797c0-.715.581-1.296 1.298-1.296h108.335c.717 0 1.298.581 1.298 1.296v69.797c0 .715-.581 1.295-1.298 1.295zm-107.037-2.591h105.739v-67.206h-105.739v67.206z"/></g><path fill-rule="evenodd" clip-rule="evenodd" fill="#fff" d="M281.918 1.246h62.417v86.768h-62.417z"/><path fill="#536B8B" d="M344.335 89.26h-62.417c-.689 0-1.248-.559-1.248-1.246v-86.768c0-.688.559-1.246 1.248-1.246h62.417c.689 0 1.247.558 1.247 1.246v86.768c0 .687-.558 1.246-1.247 1.246zm-61.17-2.491h59.923v-84.278h-59.923v84.278zM321.797 30.278h-7.244c-.689 0-1.248-.558-1.248-1.246s.559-1.245 1.248-1.245h7.244c.689 0 1.248.558 1.248 1.245 0 .689-.559 1.246-1.248 1.246zm-13.567 0h-15.582c-.688 0-1.247-.558-1.247-1.246s.559-1.245 1.247-1.245h15.582c.689 0 1.247.558 1.247 1.245.001.689-.557 1.246-1.247 1.246z"/><path fill="#A2BAF0" d="M313.367 78.44h-20.719c-.688 0-1.248-.558-1.248-1.245 0-.688.56-1.245 1.248-1.245h20.719c.688 0 1.248.557 1.248 1.245 0 .688-.559 1.245-1.248 1.245z"/><path fill="#536B8B" d="M331.37 36.353h-38.722c-.688 0-1.247-.558-1.247-1.245s.559-1.246 1.247-1.246h38.722c.689 0 1.248.559 1.248 1.246s-.558 1.245-1.248 1.245zM320.795 47.836h-20.523c-.688 0-1.247-.559-1.247-1.246s.559-1.245 1.247-1.245h20.523c.689 0 1.248.558 1.248 1.245s-.559 1.246-1.248 1.246zM314.833 52.883h-14.562c-.688 0-1.247-.559-1.247-1.246s.559-1.245 1.247-1.245h14.562c.689 0 1.248.558 1.248 1.245s-.559 1.246-1.248 1.246zM323.747 57.93h-23.476c-.688 0-1.247-.558-1.247-1.245 0-.688.559-1.246 1.247-1.246h23.476c.689 0 1.248.558 1.248 1.246 0 .687-.558 1.245-1.248 1.245z"/><path fill="#A2BAF0" d="M326.501 71.609h-12.515c-.689 0-1.249-.558-1.249-1.245s.56-1.246 1.249-1.246h12.515c.689 0 1.249.559 1.249 1.246s-.56 1.245-1.249 1.245zm-17.836 0h-16.017c-.688 0-1.248-.558-1.248-1.245s.56-1.246 1.248-1.246h16.017c.689 0 1.249.559 1.249 1.246s-.56 1.245-1.249 1.245z"/><path fill-rule="evenodd" clip-rule="evenodd" fill="#A2BAF0" d="M78.048 57.574h106.373v44.868h-106.373z"/><path fill-rule="evenodd" clip-rule="evenodd" fill="#fff" d="M1.248 247.922h62.416v86.769h-62.416z"/><path fill="#536B8B" d="M63.664 335.936h-62.416c-.689 0-1.248-.558-1.248-1.245v-86.769c0-.688.559-1.244 1.248-1.244h62.416c.688 0 1.247.556 1.247 1.244v86.769c0 .687-.558 1.245-1.247 1.245zm-61.169-2.49h59.921v-84.279h-59.921v84.279z"/><path fill-rule="evenodd" clip-rule="evenodd" fill="#FDD26A" d="M12.036 270.086h17.781v11.272h-17.781z"/><path fill="#536B8B" d="M29.817 282.604h-17.781c-.689 0-1.249-.559-1.249-1.246v-11.272c0-.688.56-1.246 1.249-1.246h17.781c.688 0 1.248.559 1.248 1.246v11.272c0 .688-.559 1.246-1.248 1.246zm-16.533-2.492h15.284v-8.78h-15.284v8.78zM36.054 269.137h13.728v2.492h-13.728zM36.054 274.772h8.112v2.492h-8.112zM36.054 280.408h13.728v2.492h-13.728z"/><path fill-rule="evenodd" clip-rule="evenodd" fill="#F1877A" d="M33.56 291.525h17.78v11.271h-17.78z"/><path fill="#536B8B" d="M52.589 304.043h-20.278v-13.765h20.278v13.765zm-17.781-2.492h15.284v-8.78h-15.284v8.78zM11.257 290.575h13.726v2.492h-13.726zM11.257 296.211h8.11v2.492h-8.11zM11.257 301.849h13.726v2.492h-13.726zM36.054 310.371h13.728v2.492h-13.728zM36.054 316.006h8.112v2.492h-8.112zM36.054 321.644h13.728v2.492h-13.728z"/><path fill-rule="evenodd" clip-rule="evenodd" fill="#89A7C0" d="M8.568 254.668h45.354v7.576h-45.354z"/><path fill-rule="evenodd" clip-rule="evenodd" fill="#A2BAF0" d="M12.036 311.319h17.779v11.273h-17.779z"/><path fill="#536B8B" d="M31.064 323.839h-20.277v-13.766h20.277v13.766zm-17.78-2.492h15.283v-8.781h-15.283v8.781z"/><path fill-rule="evenodd" clip-rule="evenodd" fill="#91A6F1" d="M78.048 81.427h16.652v-13.757h16.654v21.591h16.654v-9.171h16.653v7.642h16.653v5.542h16.655v9.168h-99.92099999999999z"/><ellipse fill-rule="evenodd" clip-rule="evenodd" fill="#fff" cx="131.728" cy="80.124" rx="15.622" ry="15.592"/><path fill="#536B8B" d="M131.728 97.011c-9.33 0-16.92-7.574-16.92-16.886 0-9.313 7.59-16.888 16.92-16.888s16.92 7.575 16.92 16.888c-.001 9.312-7.59 16.886-16.92 16.886zm0-31.183c-7.898 0-14.324 6.413-14.324 14.297 0 7.883 6.426 14.296 14.324 14.296s14.324-6.413 14.324-14.296c0-7.884-6.426-14.297-14.324-14.297z"/><path fill-rule="evenodd" clip-rule="evenodd" fill="#F1877A" d="M139.916 80.125l-6.143 3.538-6.14 3.538v-14.154l6.14 3.539z"/><path fill="#536B8B" d="M127.633 88.447c-.215 0-.431-.056-.623-.167-.387-.223-.625-.634-.625-1.079v-14.154c0-.445.238-.856.625-1.078.385-.224.862-.224 1.247 0l12.282 7.077c.387.223.625.634.625 1.079s-.238.856-.625 1.078l-12.282 7.077c-.193.112-.408.167-.624.167zm1.249-13.243v9.84l8.538-4.919-8.538-4.921z"/><g fill="#536B8B"><path fill-rule="evenodd" clip-rule="evenodd" d="M542.044 244.122h102.659v66.94h-102.659z"/><path d="M644.703 312.357h-102.659c-.717 0-1.298-.581-1.298-1.295v-66.94c0-.716.581-1.296 1.298-1.296h102.659c.716 0 1.297.58 1.297 1.296v66.94c0 .714-.581 1.295-1.297 1.295zm-101.361-2.59h100.063v-64.35h-100.063v64.35z"/></g><path fill-rule="evenodd" clip-rule="evenodd" fill="#A2BAF0" d="M583.152 311.597h20.441v21.281h-20.441z"/><path fill="#536B8B" d="M603.594 334.125h-20.441c-.689 0-1.249-.559-1.249-1.247v-21.281c0-.688.56-1.247 1.249-1.247h20.441c.689 0 1.249.559 1.249 1.247v21.281c0 .688-.56 1.247-1.249 1.247zm-19.194-2.492h17.945v-18.791h-17.945v18.791z"/><path fill-rule="evenodd" clip-rule="evenodd" fill="#91A6F1" d="M584.571 313.02h17.611v3.603h-17.611z"/><path fill-rule="evenodd" clip-rule="evenodd" fill="#fff" d="M550.204 252.131h86.337v45.438h-86.337z"/><path fill="#536B8B" d="M637.789 298.813h-88.833v-47.929h88.833v47.929zm-86.336-2.492h83.839v-42.945h-83.839v42.945z"/><path fill-rule="evenodd" clip-rule="evenodd" fill="#fff" d="M586.704 303.424h13.714v2.838h-13.714z"/><path fill-rule="evenodd" clip-rule="evenodd" fill="#EF6E65" d="M594.093 279.007h10.155v2.764h-10.155z"/><path fill-rule="evenodd" clip-rule="evenodd" fill="#FDD26A" d="M567.428 279.007h23.344v2.764h-23.344z"/><path fill-rule="evenodd" clip-rule="evenodd" fill="#536B8B" d="M567.428 286.793h46.832v2.767h-46.832zM567.428 263.433h9.289v2.766h-9.289z"/><path fill-rule="evenodd" clip-rule="evenodd" fill="#EF6E65" d="M579.979 263.433h9.795v2.766h-9.795z"/><path fill-rule="evenodd" clip-rule="evenodd" fill="#536B8B" d="M593.324 263.433h13.909v2.766h-13.909zM567.428 271.219h54.712v2.766h-54.712z"/><path fill-rule="evenodd" clip-rule="evenodd" fill="#A2BAF0" d="M551.653 253.563h83.459v5.174h-83.459z"/><path fill="#536B8B" d="M567.526 331.633h54.681v2.492h-54.681z"/><path fill-rule="evenodd" clip-rule="evenodd" fill="#FDD26A" d="M292.048 8.933h42.158v12.174h-42.158z"/><path fill="#536B8B" d="M334.206 22.352h-42.158c-.689 0-1.248-.558-1.248-1.245v-12.174c0-.688.559-1.246 1.248-1.246h42.158c.688 0 1.248.558 1.248 1.246v12.174c0 .687-.559 1.245-1.248 1.245zm-40.909-2.492h39.66v-9.683h-39.66v9.683z"/><path fill-rule="evenodd" clip-rule="evenodd" fill="#E8A541" d="M293.523 14.338h39.266v5.34h-39.266z"/><ellipse fill-rule="evenodd" clip-rule="evenodd" fill="#fff" cx="110.208" cy="293.882" rx="5.957" ry="5.945"/><path fill="#EF6E65" d="M110.208 301.074c-3.973 0-7.205-3.227-7.205-7.191s3.232-7.19 7.205-7.19 7.205 3.226 7.205 7.19-3.232 7.191-7.205 7.191zm0-11.889c-2.596 0-4.708 2.106-4.708 4.698 0 2.591 2.112 4.699 4.708 4.699 2.597 0 4.708-2.108 4.708-4.699 0-2.592-2.111-4.698-4.708-4.698z"/><ellipse fill-rule="evenodd" clip-rule="evenodd" fill="#fff" cx="313.402" cy="120.216" rx="5.957" ry="5.945"/><path fill="#EF6E65" d="M313.402 127.407c-3.973 0-7.204-3.227-7.204-7.191s3.231-7.19 7.204-7.19 7.206 3.226 7.206 7.19-3.233 7.191-7.206 7.191zm0-11.89c-2.596 0-4.707 2.108-4.707 4.699 0 2.592 2.111 4.7 4.707 4.7 2.597 0 4.709-2.108 4.709-4.7 0-2.591-2.112-4.699-4.709-4.699z"/><ellipse fill-rule="evenodd" clip-rule="evenodd" fill="#fff" cx="444.557" cy="150.283" rx="5.957" ry="5.945"/><path fill="#EF6E65" d="M444.557 157.474c-3.973 0-7.205-3.226-7.205-7.19s3.232-7.19 7.205-7.19 7.205 3.226 7.205 7.19-3.233 7.19-7.205 7.19zm0-11.89c-2.596 0-4.708 2.107-4.708 4.699 0 2.591 2.112 4.699 4.708 4.699 2.597 0 4.708-2.108 4.708-4.699 0-2.592-2.112-4.699-4.708-4.699z"/><ellipse fill-rule="evenodd" clip-rule="evenodd" fill="#fff" cx="504.214" cy="294.545" rx="5.956" ry="5.945"/><path fill="#EF6E65" d="M504.214 301.735c-3.973 0-7.205-3.226-7.205-7.19s3.232-7.191 7.205-7.191 7.205 3.227 7.205 7.191-3.232 7.19-7.205 7.19zm0-11.889c-2.597 0-4.708 2.108-4.708 4.699 0 2.592 2.111 4.698 4.708 4.698 2.596 0 4.708-2.106 4.708-4.698 0-2.591-2.112-4.699-4.708-4.699z"/><path fill-rule="evenodd" clip-rule="evenodd" fill="#A2BAF0" d="M456.03 57.475h90.827v58.517h-90.827z"/><path fill="#536B8B" d="M546.857 117.286h-90.827c-.716 0-1.298-.58-1.298-1.295v-58.516c0-.716.582-1.295 1.298-1.295h90.827c.717 0 1.298.579 1.298 1.295v58.517c0 .714-.581 1.294-1.298 1.294zm-89.529-2.591h88.231v-55.925h-88.231v55.925z"/><path fill-rule="evenodd" clip-rule="evenodd" fill="#CAD7F6" d="M465.396 67.413h25.669v38.641h-25.669z"/><path fill="#536B8B" d="M491.065 107.349h-25.669c-.717 0-1.298-.58-1.298-1.295v-38.641c0-.715.581-1.296 1.298-1.296h25.669c.716 0 1.298.581 1.298 1.296v38.641c0 .715-.582 1.295-1.298 1.295zm-24.371-2.591h23.073v-36.05h-23.073v36.05z"/><path fill-rule="evenodd" clip-rule="evenodd" fill="#fff" d="M498.044 67.413h40.74v38.641h-40.74z"/><path fill="#536B8B" d="M538.784 107.349h-40.74c-.717 0-1.298-.58-1.298-1.295v-38.641c0-.715.581-1.296 1.298-1.296h40.74c.717 0 1.298.581 1.298 1.296v38.641c0 .715-.581 1.295-1.298 1.295zm-39.442-2.591h38.145v-36.05h-38.145v36.05z"/><ellipse fill-rule="evenodd" clip-rule="evenodd" fill="#fff" cx="470.147" cy="102.41" rx="8.954" ry="8.937"/><path fill="#536B8B" d="M470.147 112.643c-5.652 0-10.251-4.59-10.251-10.231s4.599-10.231 10.251-10.231c5.653 0 10.252 4.59 10.252 10.231s-4.598 10.231-10.252 10.231zm0-17.873c-4.222 0-7.655 3.428-7.655 7.642 0 4.213 3.434 7.641 7.655 7.641s7.656-3.428 7.656-7.641c.001-4.215-3.434-7.642-7.656-7.642zM470.581 107.818c-.717 0-1.298-.58-1.298-1.295v-7.748c0-.715.581-1.295 1.298-1.295.716 0 1.298.58 1.298 1.295v7.748c0 .715-.582 1.295-1.298 1.295zM467.782 102.295c-.382 0-.761-.166-1.017-.488-.446-.56-.354-1.374.207-1.82l2.8-2.224c.561-.446 1.377-.354 1.824.206.445.56.353 1.375-.208 1.82l-2.8 2.225c-.237.189-.523.281-.806.281z"/><path fill-rule="evenodd" clip-rule="evenodd" fill="#F1877A" d="M470.21 72.005h16.041v7.662h-16.041z"/><path fill="#536B8B" d="M487.499 80.912h-18.537v-10.153h18.537v10.153zm-16.04-2.491h13.543v-5.171h-13.543v5.171z"/><g fill="#536B8B"><path fill-rule="evenodd" clip-rule="evenodd" d="M470.21 84.72h11.409v3.973h-11.409z"/><path d="M482.867 89.938h-13.905v-6.465h13.905v6.465zm-11.408-2.491h8.911v-1.482h-8.911v1.482z"/></g><path fill="#536B8B" d="M528.056 75.416h-22.392c-.688 0-1.247-.558-1.247-1.246s.559-1.245 1.247-1.245h22.392c.688 0 1.247.558 1.247 1.245 0 .688-.559 1.246-1.247 1.246z"/><path fill="#A2BAF0" d="M528.056 81.53h-22.392c-.688 0-1.248-.559-1.248-1.246s.56-1.245 1.248-1.245h22.392c.688 0 1.248.558 1.248 1.245s-.56 1.246-1.248 1.246zM528.056 87.646h-22.392c-.688 0-1.248-.559-1.248-1.246s.56-1.245 1.248-1.245h22.392c.688 0 1.248.558 1.248 1.245s-.56 1.246-1.248 1.246zM528.056 93.759h-22.392c-.688 0-1.248-.559-1.248-1.246s.56-1.245 1.248-1.245h22.392c.688 0 1.248.558 1.248 1.245s-.56 1.246-1.248 1.246zM528.056 99.874h-22.392c-.688 0-1.248-.559-1.248-1.246s.56-1.245 1.248-1.245h22.392c.688 0 1.248.558 1.248 1.245s-.56 1.246-1.248 1.246z"/><path fill="#EF6E65" d="M334.206 65.633h-42.158c-.689 0-1.248-.559-1.248-1.246v-23.506c0-.688.559-1.246 1.248-1.246h42.158c.688 0 1.248.559 1.248 1.246v23.506c0 .687-.559 1.246-1.248 1.246zm-40.909-2.491h39.66v-21.016h-39.66v21.016z"/><path fill="#536B8B" d="M335.634 66.286c-.068 0-.139-.026-.191-.079-.105-.105-.105-.275 0-.382l1.764-1.76c.105-.105.277-.105.383 0s.105.276 0 .382l-1.763 1.76c-.054.053-.124.079-.193.079zM337.121 67.77c-.068 0-.139-.026-.191-.079-.105-.106-.105-.276 0-.382l1.762-1.76c.106-.105.278-.105.384 0s.105.276 0 .382l-1.763 1.759c-.053.053-.123.08-.192.08zM338.605 69.252c-.068 0-.139-.026-.191-.078-.105-.106-.105-.276 0-.382l1.764-1.761c.105-.106.277-.105.383-.001.105.106.105.276 0 .382l-1.763 1.761c-.053.053-.123.079-.193.079z"/><path fill-rule="evenodd" clip-rule="evenodd" fill="#A2BAF0" d="M332.674 79.618l-5.646-5.634 26.038-25.985 5.645 5.634z"/><path fill="#536B8B" d="M332.674 80.913c-.332 0-.664-.126-.917-.379l-5.646-5.634c-.244-.243-.381-.572-.381-.916s.137-.673.381-.916l26.038-25.985c.243-.243.573-.379.917-.379.344 0 .674.136.919.379l5.644 5.634c.507.505.507 1.326-.001 1.832l-26.037 25.985c-.253.253-.584.379-.917.379zm-3.81-6.929l3.81 3.802 24.201-24.153-3.809-3.802-24.202 24.153z"/><path fill-rule="evenodd" clip-rule="evenodd" fill="#91A6F1" d="M331.783 79.252l-2.509-2.505 25.263-25.213 2.51 2.504z"/><path fill-rule="evenodd" clip-rule="evenodd" fill="#A2BAF0" d="M323.791 82.831l1.609-4.433 1.611-4.433 2.831 2.827 2.832 2.826-4.442 1.607z"/><path fill="#536B8B" d="M323.791 84.126c-.338 0-.67-.132-.917-.379-.356-.355-.475-.885-.303-1.357l3.219-8.866c.151-.416.505-.727.938-.823.435-.096.886.035 1.2.349l5.662 5.653c.314.313.446.765.35 1.197-.096.432-.406.786-.824.937l-8.883 3.213c-.144.052-.295.076-.442.076zm3.744-7.805l-1.578 4.349 4.356-1.576-2.778-2.773z"/><path fill-rule="evenodd" clip-rule="evenodd" fill="#536B8B" d="M323.812 82.912l1.38-3.938 1.231 1.229 1.233 1.231z"/><path fill="#DBDFEA" d="M293.65 178.657h-3.521v-43.644h3.521v43.644zm0-57.922h-3.521v-21.821h3.521v21.821z"/></svg>