<?xml version="1.0" encoding="utf-8"?>
<!-- Generator: Adobe Illustrator 16.0.0, SVG Export Plug-In . SVG Version: 6.00 Build 0)  -->
<!DOCTYPE svg PUBLIC "-//W3C//DTD SVG 1.1//EN" "http://www.w3.org/Graphics/SVG/1.1/DTD/svg11.dtd">
<svg version="1.1" id="Layer_1" xmlns="http://www.w3.org/2000/svg" xmlns:xlink="http://www.w3.org/1999/xlink" x="0px" y="0px"
	 width="88px" height="88px" viewBox="0 0 88 88" enable-background="new 0 0 88 88" xml:space="preserve">
<g>
	
		<path fill-rule="evenodd" clip-rule="evenodd" fill="#DBF9FF" stroke="#536B8B" stroke-width="2.126" stroke-linecap="round" stroke-linejoin="round" stroke-miterlimit="22.9256" d="
		M44,0.782L44,0.782c23.771,0,43.218,19.447,43.218,43.218l0,0c0,23.771-19.447,43.218-43.218,43.218l0,0
		C20.229,87.218,0.782,67.771,0.782,44l0,0C0.782,20.229,20.229,0.782,44,0.782z"/>
	<g>
		
			<rect x="15.574" y="25.522" fill-rule="evenodd" clip-rule="evenodd" fill="#FFFFFF" stroke="#536B8B" stroke-width="2.126" stroke-linecap="round" stroke-linejoin="round" stroke-miterlimit="22.9256" width="56.853" height="36.955"/>
		
			<rect x="15.574" y="25.522" fill-rule="evenodd" clip-rule="evenodd" fill="#536B8B" stroke="#536B8B" stroke-width="2.126" stroke-linecap="round" stroke-linejoin="round" stroke-miterlimit="22.9256" width="56.853" height="5.758"/>
		<circle fill-rule="evenodd" clip-rule="evenodd" fill="#FDD26A" cx="19.756" cy="28.533" r="1.347"/>
		<circle fill-rule="evenodd" clip-rule="evenodd" fill="#F1877A" cx="24.209" cy="28.533" r="1.347"/>
		<circle fill-rule="evenodd" clip-rule="evenodd" fill="#23CCF0" cx="28.662" cy="28.533" r="1.347"/>
		
			<rect x="20.045" y="36.501" fill-rule="evenodd" clip-rule="evenodd" fill="#FFFFFF" stroke="#536B8B" stroke-width="2.126" stroke-linecap="square" stroke-miterlimit="22.9256" width="11.128" height="4.548"/>
		
			<rect x="20.045" y="52.458" fill-rule="evenodd" clip-rule="evenodd" fill="#23CCF0" stroke="#536B8B" stroke-width="2.126" stroke-linecap="square" stroke-miterlimit="22.9256" width="11.128" height="4.548"/>
		
			<line fill-rule="evenodd" clip-rule="evenodd" fill="none" stroke="#536B8B" stroke-width="2.126" stroke-linecap="square" stroke-miterlimit="22.9256" x1="25.609" y1="41.05" x2="25.609" y2="52.458"/>
		<polygon fill-rule="evenodd" clip-rule="evenodd" fill="#536B8B" points="25.609,49.743 24.004,47.283 22.397,44.822 
			25.609,44.822 28.82,44.822 27.215,47.283 		"/>
		
			<rect x="37.553" y="36.501" fill-rule="evenodd" clip-rule="evenodd" fill="#F1877A" stroke="#536B8B" stroke-width="2.126" stroke-linecap="square" stroke-miterlimit="22.9256" width="11.128" height="4.548"/>
		
			<rect x="37.553" y="52.458" fill-rule="evenodd" clip-rule="evenodd" fill="#FFFFFF" stroke="#536B8B" stroke-width="2.126" stroke-linecap="square" stroke-miterlimit="22.9256" width="11.128" height="4.548"/>
		
			<line fill-rule="evenodd" clip-rule="evenodd" fill="none" stroke="#536B8B" stroke-width="2.126" stroke-linecap="square" stroke-miterlimit="22.9256" x1="43.116" y1="41.05" x2="43.116" y2="52.458"/>
		<polygon fill-rule="evenodd" clip-rule="evenodd" fill="#536B8B" points="43.116,49.743 41.511,47.283 39.905,44.822 
			43.116,44.822 46.328,44.822 44.722,47.283 		"/>
		
			<rect x="55.06" y="36.501" fill-rule="evenodd" clip-rule="evenodd" fill="#FFFFFF" stroke="#536B8B" stroke-width="2.126" stroke-linecap="square" stroke-miterlimit="22.9256" width="11.129" height="4.548"/>
		
			<rect x="55.06" y="52.458" fill-rule="evenodd" clip-rule="evenodd" fill="#FDD26A" stroke="#536B8B" stroke-width="2.126" stroke-linecap="square" stroke-miterlimit="22.9256" width="11.129" height="4.548"/>
		
			<line fill-rule="evenodd" clip-rule="evenodd" fill="none" stroke="#536B8B" stroke-width="2.126" stroke-linecap="square" stroke-miterlimit="22.9256" x1="60.624" y1="41.05" x2="60.624" y2="52.458"/>
		<polygon fill-rule="evenodd" clip-rule="evenodd" fill="#536B8B" points="60.624,49.743 59.019,47.283 57.412,44.822 
			60.624,44.822 63.835,44.822 62.229,47.283 		"/>
	</g>
</g>
</svg>
