<?xml version="1.0" encoding="UTF-8" standalone="no"?>
<svg id="svg2" xmlns:rdf="http://www.w3.org/1999/02/22-rdf-syntax-ns#" xmlns="http://www.w3.org/2000/svg" height="360" width="620" version="1.1" xmlns:cc="http://creativecommons.org/ns#" xmlns:dc="http://purl.org/dc/elements/1.1/" viewBox="0 0 620 360">
 <metadata id="metadata289">
  <rdf:RDF>
   <cc:Work rdf:about="">
    <dc:format>image/svg+xml</dc:format>
    <dc:type rdf:resource="http://purl.org/dc/dcmitype/StillImage"/>
    <dc:title/>
   </cc:Work>
  </rdf:RDF>
 </metadata>
 <defs id="defs4">
  <clipPath id="a">
   <path id="path7" d="m177.72 302.16h265.39v-165.99h-265.39v165.99z"/>
  </clipPath>
 </defs>
 <g id="g4417" transform="matrix(.62131 0 0 .62131 61.631 151.46)">
  <path id="path9" stroke-linejoin="round" d="m395.46-38.916v-95.104" stroke="#536b8b" stroke-linecap="round" stroke-miterlimit="22.926" stroke-dasharray="4.252, 4.252" stroke-width="2.6575" fill="none"/>
  <path id="path11" d="m147.37-80.766c28.16 0 51.2-23.04 51.2-51.2s-23.04-51.2-51.2-51.2-51.2 23.04-51.2 51.2 23.04 51.2 51.2 51.2" fill-rule="evenodd" fill="#dbf9ff"/>
  <path id="path13" stroke-linejoin="round" d="m147.37-80.766c28.16 0 51.2-23.04 51.2-51.2s-23.04-51.2-51.2-51.2-51.2 23.04-51.2 51.2 23.04 51.2 51.2 51.2z" stroke="#536b8b" stroke-linecap="round" stroke-miterlimit="22.926" stroke-width="2.6575" fill="none"/>
  <path id="path15" d="m169.83-130.6c-8.656 0-16.112 7.08-16.112 15.73v2.57h32.225v-2.57c0-8.65-7.457-15.73-16.112-15.73" fill-rule="evenodd" fill="#96a0bb"/>
  <path id="path17" stroke-linejoin="round" d="m169.83-130.6c-8.656 0-16.112 7.08-16.112 15.73v2.57h32.225v-2.57c0-8.65-7.457-15.73-16.112-15.73z" stroke="#536b8b" stroke-linecap="round" stroke-miterlimit="22.926" stroke-width="2.6575" fill="none"/>
  <path id="path19" d="m169.39-135.49c-1.82 0-3.386 1.486-3.386 3.305v2.53c0 1.685 0.975 3.285 3.386 3.51 2.41-0.225 3.386-1.825 3.386-3.51v-2.53c0-1.82-1.567-3.306-3.387-3.306" fill-rule="evenodd" fill="#fff"/>
  <path id="path21" stroke-linejoin="round" d="m169.39-135.49c-1.82 0-3.386 1.486-3.386 3.305v2.53c0 1.685 0.975 3.285 3.386 3.51 2.41-0.225 3.386-1.825 3.386-3.51v-2.53c0-1.82-1.567-3.306-3.387-3.306z" stroke="#536b8b" stroke-linecap="round" stroke-miterlimit="22.926" stroke-width="2.6575" fill="none"/>
  <path id="path23" d="m169.39-151.62c-3.995 0-7.435 3.267-7.435 7.26v5.56c0 3.697 2.14 7.21 7.435 7.706 5.294-0.496 7.435-4.01 7.435-7.706v-5.56c0-3.993-3.44-7.26-7.435-7.26" fill-rule="evenodd" fill="#fff"/>
  <path id="path25" stroke-linejoin="round" d="m169.39-151.62c-3.995 0-7.435 3.267-7.435 7.26v5.56c0 3.697 2.14 7.21 7.435 7.706 5.294-0.496 7.435-4.01 7.435-7.706v-5.56c0-3.993-3.44-7.26-7.435-7.26z" stroke="#536b8b" stroke-linecap="round" stroke-miterlimit="22.926" stroke-width="2.6575" fill="none"/>
  <path id="path27" d="m164.84-153.63c-3.366 1.616-5.636 7.024-3.276 10.36 0.505-2.38 1.67-3.87 3.417-4.67 8.844-4.063 10.218 1.1 11.837 4.67l1.386-4.146c0.102-1.144-0.742-3.34-1.804-3.774 0 0-0.555-1.518-2.476-2.44-0.84-0.373-4.928-1.563-4.928-2.304-0.712-0.31-3.155 1.988-4.155 2.305" fill-rule="evenodd" fill="#fdd26a"/>
  <path id="path29" stroke-linejoin="round" d="m164.84-153.63c-3.366 1.616-5.636 7.024-3.276 10.36 0.505-2.38 1.67-3.87 3.417-4.67 8.844-4.063 10.218 1.1 11.837 4.67l1.386-4.146c0.102-1.144-0.742-3.34-1.804-3.774 0 0-0.555-1.518-2.476-2.44-0.84-0.373-4.928-1.563-4.928-2.304-0.712-0.31-3.155 1.988-4.155 2.305z" stroke="#536b8b" stroke-linecap="round" stroke-miterlimit="22.926" stroke-width="2.6575" fill="none"/>
  <path id="path31" d="m217.23-39.966h356.43c5.197 0 9.45 4.258 9.45 9.452v237.79h-375.34v-237.79c0.01-5.2 4.263-9.452 9.462-9.452" fill-rule="evenodd" fill="#536b8b"/>
  <path id="path33" stroke-linejoin="round" d="m217.23-39.966h356.43c5.197 0 9.45 4.258 9.45 9.452v237.79h-375.34v-237.79c0.01-5.2 4.263-9.452 9.462-9.452z" stroke="#536b8b" stroke-linecap="round" stroke-miterlimit="22.926" stroke-width="2.7638" fill="none"/>
  <path id="path35" d="m229.58 188.86h331.74v-207.49h-331.74v207.49z" fill-rule="evenodd" fill="#76c88d"/>
  <path id="path37" d="m395.34-26.84c1.918 0 3.48-1.565 3.48-3.48 0-1.92-1.562-3.483-3.48-3.483-1.917 0-3.48 1.564-3.48 3.482 0 1.915 1.563 3.48 3.48 3.48" fill-rule="evenodd" fill="#ecedf6"/>
  <path id="path39" stroke-linejoin="round" d="m162.79 221.03h465.31v-13.764h-465.31v13.764z" fill-rule="evenodd" stroke="#536b8b" stroke-linecap="round" stroke-miterlimit="22.926" stroke-width="2.764" fill="#ecedf6"/>
  <path id="path41" d="m361.16 208.65h68.58v2.35c0 2.535-2.074 4.61-4.61 4.61h-59.362c-2.535 0-4.608-2.075-4.608-4.61v-2.35z" fill-rule="evenodd" fill="#b8c8d4"/>
  <path id="path43" d="m179.47 228.71h431.95c5.88-0.748 11.756-4.053 16.68-7.67h-465.3c4.918 3.617 10.794 6.922 16.674 7.67" fill-rule="evenodd" fill="#dbe9f6"/>
  <path id="path45" stroke-linejoin="round" d="m179.47 228.71h431.95c5.88-0.748 11.756-4.053 16.68-7.67h-465.3c4.918 3.617 10.794 6.922 16.674 7.67z" stroke="#536b8b" stroke-linecap="round" stroke-miterlimit="22.926" stroke-width="2.7638" fill="none"/>
  <path id="path47" d="m300.22 129.56h189.41v9.152h-189.41v-9.153zm85.553-77.336h45.954v9.153h-45.955v-9.153zm60.11 0h45.172v9.153h-45.17v-9.153zm-145.66 0h30.686v9.153h-30.686v-9.153zm0 19.332h127.38v9.154h-127.38v-9.154zm88.096 38.67h33.55v9.153h-33.55v-9.155zm-88.096 0h77.12v9.153h-77.12v-9.155zm0-19.335h172.54v9.154h-172.54v-9.153zm0-58h172.36v9.154h-172.36v-9.154zm159.4 116 14.603-0.08v9.153l-14.602 0.08v-9.153zm-159.4 0 145.76-0.462v9.155l-145.76 0.46v-9.153z" fill-rule="evenodd" fill="#39b773"/>
  <g id="g49" opacity=".3" clip-path="url(#a)" transform="matrix(1.25,0,0,-1.25,7.43,359.07)">
   <path id="path51" d="m177.72 136.17 265.39 165.99h-265.39v-165.99z" fill-rule="evenodd" fill="#fff"/>
  </g>
  <path id="path53" d="m395.46 12.47 31.458 18.162 31.458 18.163-34.84 20.114-14.038-8.108-14.038-8.103-14.038 8.102-14.04 8.107v32.42l14.04 8.104 14.038 8.105 14.038-8.106 14.04-8.105 34.838 20.112-31.458 18.162-31.458 18.162-31.458-18.162-31.457-18.162v-72.648l31.46-18.15 31.46-18.16z" fill-rule="evenodd" fill="#a2baf0"/>
  <path id="path55" stroke-linejoin="round" d="m395.46 12.47 31.458 18.162 31.458 18.163-34.84 20.114-14.038-8.108-14.038-8.103-14.038 8.102-14.04 8.107v32.42l14.04 8.104 14.038 8.105 14.038-8.106 14.04-8.105 34.838 20.112-31.458 18.162-31.458 18.162-31.458-18.162-31.457-18.162v-72.648l31.46-18.15 31.46-18.16z" stroke="#536b8b" stroke-linecap="round" stroke-miterlimit="22.926" stroke-width="2.6575" fill="none"/>
  <path id="path57" d="m395.46 117.53 14.037-8.104 14.04-8.106 34.838 20.113-31.457 18.162-31.457 18.16v-40.226z" fill-rule="evenodd" fill="#c7d5f6"/>
  <path id="path59" stroke-linejoin="round" d="m395.46 117.53 14.037-8.104 14.04-8.106 34.838 20.113-31.457 18.162-31.457 18.16v-40.226z" stroke="#536b8b" stroke-linecap="round" stroke-miterlimit="22.926" stroke-width="2.6575" fill="none"/>
  <path id="path61" d="m395.46 157.76-31.458-18.164-31.457-18.162v-72.647l34.84 20.115v32.42l14.038 8.106 14.038 8.104v40.23z" fill-rule="evenodd" fill="#fff"/>
  <path id="path63" stroke-linejoin="round" d="m395.46 157.76-31.458-18.164-31.457-18.162v-72.647l34.84 20.115v32.42l14.038 8.106 14.038 8.104v40.23z" stroke="#536b8b" stroke-linecap="round" stroke-miterlimit="22.926" stroke-width="2.6575" fill="none"/>
  <path id="path65" stroke-linejoin="round" d="m102.87 228.51v-60.61c0.23-16.964 10.366-16.77 21.52-16.77h83.394m435.75-231.9v60.607c-0.23 16.965-10.367 16.77-21.522 16.77h-38.894m0.616 83.623h101m3.303 148.28v-60.61c-0.23-16.964-10.367-16.77-21.522-16.77h-83.394" stroke="#536b8b" stroke-linecap="round" stroke-miterlimit="22.926" stroke-dasharray="4.252, 4.252" stroke-width="2.6575" fill="none"/>
  <path id="path67" d="m395.46-134.02c-28.16 0-51.2-23.04-51.2-51.2s23.04-51.2 51.2-51.2 51.2 23.04 51.2 51.2-23.04 51.2-51.2 51.2" fill-rule="evenodd" fill="#dbf9ff"/>
  <path id="path69" stroke-linejoin="round" d="m395.46-134.02c-28.16 0-51.2-23.04-51.2-51.2s23.04-51.2 51.2-51.2 51.2 23.04 51.2 51.2-23.04 51.2-51.2 51.2z" stroke="#536b8b" stroke-linecap="round" stroke-miterlimit="22.926" stroke-width="2.6575" fill="none"/>
  <path id="path71" d="m643.53-80.766c-28.16 0-51.198-23.04-51.198-51.2s23.04-51.2 51.2-51.2 51.197 23.04 51.197 51.2-23.04 51.2-51.2 51.2" fill-rule="evenodd" fill="#dbf9ff"/>
  <path id="path73" stroke-linejoin="round" d="m643.53-80.766c-28.16 0-51.198-23.04-51.198-51.2s23.04-51.2 51.2-51.2 51.197 23.04 51.197 51.2-23.04 51.2-51.2 51.2z" stroke="#536b8b" stroke-linecap="round" stroke-miterlimit="22.926" stroke-width="2.6575" fill="none"/>
  <path id="path75" d="m735.67 126.28c-28.16 0-51.2-23.04-51.2-51.2s23.04-51.2 51.2-51.2 51.2 23.04 51.2 51.2-23.04 51.2-51.2 51.2" fill-rule="evenodd" fill="#dbf9ff"/>
  <path id="path77" stroke-linejoin="round" d="m735.67 126.28c-28.16 0-51.2-23.04-51.2-51.2s23.04-51.2 51.2-51.2 51.2 23.04 51.2 51.2-23.04 51.2-51.2 51.2z" stroke="#536b8b" stroke-linecap="round" stroke-miterlimit="22.926" stroke-width="2.6575" fill="none"/>
  <path id="path79" stroke-linejoin="round" d="m147.37-80.766v60.607c0.23 16.965 10.366 16.77 21.523 16.77h38.894m-0.005 83.623h-101" stroke="#536b8b" stroke-linecap="round" stroke-miterlimit="22.926" stroke-dasharray="4.252, 4.252" stroke-width="2.6575" fill="none"/>
  <path id="path81" d="m55.848 126.28c28.16 0 51.2-23.04 51.2-51.2s-23.04-51.2-51.2-51.2-51.2 23.04-51.2 51.2 23.04 51.2 51.2 51.2" fill-rule="evenodd" fill="#dbf9ff"/>
  <path id="path83" stroke-linejoin="round" d="m55.848 126.28c28.16 0 51.2-23.04 51.2-51.2s-23.04-51.2-51.2-51.2-51.2 23.04-51.2 51.2 23.04 51.2 51.2 51.2z" stroke="#536b8b" stroke-linecap="round" stroke-miterlimit="22.926" stroke-width="2.6575" fill="none"/>
  <path id="path85" d="m102.87 330.91c28.16 0 51.198-23.04 51.198-51.2s-23.04-51.2-51.2-51.2-51.2 23.04-51.2 51.2 23.04 51.2 51.2 51.2" fill-rule="evenodd" fill="#dbf9ff"/>
  <path id="path87" stroke-linejoin="round" d="m102.87 330.91c28.16 0 51.198-23.04 51.198-51.2s-23.04-51.2-51.2-51.2-51.2 23.04-51.2 51.2 23.04 51.2 51.2 51.2z" stroke="#536b8b" stroke-linecap="round" stroke-miterlimit="22.926" stroke-width="2.6575" fill="none"/>
  <path id="path89" d="m688.03 330.91c28.16 0 51.2-23.04 51.2-51.2s-23.04-51.2-51.2-51.2-51.198 23.04-51.198 51.2 23.04 51.2 51.2 51.2" fill-rule="evenodd" fill="#dbf9ff"/>
  <path id="path91" stroke-linejoin="round" d="m688.03 330.91c28.16 0 51.2-23.04 51.2-51.2s-23.04-51.2-51.2-51.2-51.198 23.04-51.198 51.2 23.04 51.2 51.2 51.2z" stroke="#536b8b" stroke-linecap="round" stroke-miterlimit="22.926" stroke-width="2.6575" fill="none"/>
  <path id="path93" stroke-linejoin="round" d="m361.59-163.73h67.71v-42.99h-67.71v42.99z" fill-rule="evenodd" stroke="#536b8b" stroke-linecap="round" stroke-miterlimit="22.926" stroke-width="2.657" fill="#aec0e5"/>
  <path id="path95" stroke-linejoin="round" d="m361.59-200.02h67.71v-6.698h-67.71v6.698z" fill-rule="evenodd" stroke="#536b8b" stroke-linecap="round" stroke-miterlimit="22.926" stroke-width="2.657" fill="#536b8b"/>
  <path id="path97" d="m366.58-201.64c0.884 0 1.604-0.705 1.604-1.57 0-0.86-0.72-1.565-1.603-1.565s-1.603 0.705-1.603 1.566c0 0.865 0.72 1.57 1.604 1.57" fill-rule="evenodd" fill="#fdd26a"/>
  <path id="path99" d="m371.88-201.64c0.884 0 1.604-0.705 1.604-1.57 0-0.86-0.72-1.565-1.603-1.565s-1.603 0.705-1.603 1.566c0 0.865 0.72 1.57 1.604 1.57" fill-rule="evenodd" fill="#f1877a"/>
  <path id="path101" d="m377.18-201.64c0.884 0 1.604-0.705 1.604-1.57 0-0.86-0.72-1.565-1.603-1.565s-1.603 0.705-1.603 1.566c0 0.865 0.72 1.57 1.604 1.57" fill-rule="evenodd" fill="#23ccf0"/>
  <path id="path103" d="m397.17-180.34h14.23v2.374h-14.23v-2.374z" fill-rule="evenodd" fill="#ef6e65"/>
  <path id="path105" d="m374.32-180.34h20.005v2.374h-20.005v-2.374z" fill-rule="evenodd" fill="#fdd26a"/>
  <path id="path107" d="m374.32-173.65h27.205v2.374h-27.205v-2.374zm10.962-20.062h13.41v2.375h-13.41v-2.376z" fill-rule="evenodd" fill="#fff"/>
  <path id="path109" d="m374.32-193.72h8.394v2.375h-8.394v-2.376z" fill-rule="evenodd" fill="#ef6e65"/>
  <path id="path111" d="m374.32-187.03h30.32v2.375h-30.32v-2.375z" fill-rule="evenodd" fill="#fff"/>
  <path id="path113" d="m39.158 56.596h33.38v37.264c0 4.394-7.472 7.956-16.69 7.956-9.216 0-16.69-3.562-16.69-7.956v-37.264z" fill-rule="evenodd" fill="#536b8b"/>
  <path id="path115" stroke-linejoin="round" d="m39.158 56.596h33.38v37.264c0 4.394-7.472 7.956-16.69 7.956-9.216 0-16.69-3.562-16.69-7.956v-37.264z" stroke="#536b8b" stroke-linecap="round" stroke-miterlimit="22.926" stroke-width="2.6575" fill="none"/>
  <path id="path117" d="m62.62 57.26h9.404v36.114c0 3.105-3.853 5.783-9.405 7.005v-43.12z" fill-rule="evenodd" fill="#3d597a"/>
  <path id="path119" d="m39.673 57.26h9.405v43.12c-5.55-1.223-9.405-3.9-9.405-7.006v-36.114z" fill-rule="evenodd" fill="#7b859f"/>
  <path id="path121" d="m55.848 48.346 34.374 12.454-34.374 12.457-34.374-12.457 34.374-12.454z" fill-rule="evenodd" fill="#3d597a"/>
  <path id="path123" d="m80.006 76.146v-12.2c0-0.77-0.664-1.17-1.397-1.397l-21.366-6.594c-0.733-0.227-1.396 0.63-1.396 1.396v2" stroke="#e8a541" stroke-miterlimit="22.926" stroke-width="2.6575" fill="none"/>
  <path id="path125" d="m80.006 76.146 2.07 9.398 2.068 9.395h-8.278l2.07-9.396 2.07-9.398z" fill-rule="evenodd" fill="#faa21b"/>
  <path id="path127" d="m80.007 80.696c1.806 0 3.28-1.474 3.28-3.28s-1.474-3.28-3.28-3.28-3.28 1.474-3.28 3.28 1.474 3.28 3.28 3.28" fill-rule="evenodd" fill="#faa21b"/>
  <path id="path129" d="m79.678 79.534c1.464 0 2.658-1.194 2.658-2.658s-1.194-2.657-2.658-2.657-2.657 1.192-2.657 2.656 1.194 2.658 2.658 2.658" fill-rule="evenodd" fill="#ffc20e"/>
  <path id="path131" d="m688.04 243.93c2.005 0 3.646 1.64 3.646 3.65v1.265h-7.294v-1.266c0-2.01 1.64-3.65 3.647-3.65" fill-rule="evenodd" fill="#96a0bb"/>
  <path id="path133" stroke-linejoin="round" d="m688.04 243.93c2.005 0 3.646 1.64 3.646 3.65v1.265h-7.294v-1.266c0-2.01 1.64-3.65 3.647-3.65z" stroke="#536b8b" stroke-linecap="round" stroke-miterlimit="22.926" stroke-width="2.7638" fill="none"/>
  <path id="path135" stroke-linejoin="round" d="m683.64 259.16h8.783v-10.54h-8.783v10.54zm-9.737 44.019h28.266v-33.92h-28.266v33.92z" fill-rule="evenodd" stroke="#536b8b" stroke-linecap="round" stroke-miterlimit="22.926" stroke-width="2.657" fill="#fdd26a"/>
  <path id="path137" d="m688.04 253.95c6.18 0 11.234 5.055 11.234 11.234v3.903h-22.467v-3.904c0-6.18 5.054-11.234 11.233-11.234" fill-rule="evenodd" fill="#96a0bb"/>
  <path id="path139" stroke-linejoin="round" d="m688.04 253.95c6.18 0 11.234 5.055 11.234 11.234v3.903h-22.467v-3.904c0-6.18 5.054-11.234 11.233-11.234z" stroke="#536b8b" stroke-linecap="round" stroke-miterlimit="22.926" stroke-width="2.7638" fill="none"/>
  <path id="path141" stroke-linejoin="round" d="m662.72 284.34h3.258v-17.015h-3.258v17.015z" fill-rule="evenodd" stroke="#536b8b" stroke-linecap="round" stroke-miterlimit="22.926" stroke-width="2.657" fill="#fdd26a"/>
  <path id="path143" stroke-linejoin="round" d="m688.04 243.51v-4.48" stroke="#536b8b" stroke-linecap="round" stroke-miterlimit="22.926" stroke-width="2.7638" fill="none"/>
  <path id="path145" stroke-linejoin="round" d="m670.86 303.18h34.37v-20.53h-34.37v20.53zm-9.176-1.305h5.346v-27.923h-5.345v27.922z" fill-rule="evenodd" stroke="#536b8b" stroke-linecap="round" stroke-miterlimit="22.926" stroke-width="2.657" fill="#fdd26a"/>
  <path id="path147" stroke-linejoin="round" d="m661.11 301.87h6.5v-18.99h-6.5v18.987zm-7.688-17.533h3.258v-17.015h-3.258v17.015z" fill-rule="evenodd" stroke="#536b8b" stroke-linecap="round" stroke-miterlimit="22.926" stroke-width="2.657" fill="#fdd26a"/>
  <path id="path149" stroke-linejoin="round" d="m652.37 301.87h5.345v-27.923h-5.345v27.922z" fill-rule="evenodd" stroke="#536b8b" stroke-linecap="round" stroke-miterlimit="22.926" stroke-width="2.657" fill="#fdd26a"/>
  <path id="path151" stroke-linejoin="round" d="m651.79 301.87h6.5v-18.99h-6.5v18.987z" fill-rule="evenodd" stroke="#536b8b" stroke-linecap="round" stroke-miterlimit="22.926" stroke-width="2.657" fill="#fdd26a"/>
  <path id="path153" stroke-linejoin="round" d="m650.18 303.18h20.678v-12.2h-20.678v12.2z" fill-rule="evenodd" stroke="#536b8b" stroke-linecap="round" stroke-miterlimit="22.926" stroke-width="2.657" fill="#fdd26a"/>
  <path id="path155" stroke-linejoin="round" d="m670.86 288h34.37m-22.92-18.91v13.556m11.462-13.556v13.556m-31.05-14.431v-4.463m3.258 4.463v-4.463m-12.558 4.463v-4.463m3.258 4.463v-4.463" stroke="#536b8b" stroke-linecap="round" stroke-miterlimit="22.926" stroke-width="2.6575" fill="none"/>
  <path id="path157" stroke-linejoin="round" d="m705.22 303.18h20.678v-12.2h-20.678v12.2z" fill-rule="evenodd" stroke="#536b8b" stroke-linecap="round" stroke-miterlimit="22.926" stroke-width="2.657" fill="#fdd26a"/>
  <path id="path159" stroke-linejoin="round" d="m709.74 290.98h11.62v-15.306h-11.62v15.306z" fill-rule="evenodd" stroke="#536b8b" stroke-linecap="round" stroke-miterlimit="22.926" stroke-width="2.657" fill="#fdd26a"/>
  <path id="path161" d="m715.56 275.05h-2.905l2.906-21.403 2.903 21.402h-2.904z" fill-rule="evenodd" fill="#fdd26a"/>
  <path id="path163" stroke-linejoin="round" d="m715.56 275.05h-2.905l2.906-21.403 2.903 21.402h-2.904zm-5.813 2.91v-8.885m11.625 8.885v-8.885" stroke="#536b8b" stroke-linecap="round" stroke-miterlimit="22.926" stroke-width="2.6575" fill="none"/>
  <path id="path165" d="m688.04 291.21c-2.5 0-4.547 2.047-4.547 4.548v8.665h9.095v-8.665c0-2.5-2.047-4.548-4.547-4.548m-11.488-1.25c-1.094 0-1.99 0.895-1.99 1.99v7.745h3.978v-7.745c0-1.095-0.895-1.99-1.988-1.99m22.962 0c-1.094 0-1.99 0.895-1.99 1.99v7.745h3.98v-7.745c0-1.095-0.896-1.99-1.99-1.99m-33.52 4.34c-0.606 0-1.102 0.495-1.102 1.102v4.295h2.206v-4.295c0-0.607-0.496-1.103-1.103-1.103m-5.825 0.001c-0.607 0-1.103 0.495-1.103 1.102v4.295h2.206v-4.295c0-0.607-0.497-1.103-1.104-1.103m-5.812 0.001c-0.606 0-1.102 0.495-1.102 1.102v4.295h2.207v-4.295c0-0.607-0.498-1.103-1.104-1.103m35.749-21.527h-4.106v6.934h4.106v-6.934zm-13.363 6.934h2.647v-6.934h-2.646v6.934zm22.613-6.934h-2.646v6.934h2.646v-6.934zm10.05 21.528c-0.606 0-1.102 0.495-1.102 1.102v4.295h2.206v-4.295c0-0.607-0.497-1.103-1.103-1.103m5.812 0.001c-0.607 0-1.103 0.495-1.103 1.102v4.295h2.205v-4.295c0-0.607-0.496-1.103-1.102-1.103m5.812 0.001c-0.606 0-1.102 0.495-1.102 1.102v4.295h2.205v-4.295c0-0.607-0.496-1.103-1.102-1.103m-5.463-15.009c-0.782 0-1.42 0.64-1.42 1.42v5.526h2.838v-5.527c0-0.78-0.638-1.42-1.418-1.42" fill-rule="evenodd" fill="#3d597a"/>
  <path id="path167" d="m73.566 297.47h33.87v-46.21h-33.87v46.21z" fill-rule="evenodd" stroke="#536b8b" stroke-linecap="square" stroke-miterlimit="22.926" stroke-width="2.657" fill="#fff"/>
  <path id="path169" d="m81.52 265.27h17.96v-7.596h-17.96v7.597z" fill-rule="evenodd" stroke="#536b8b" stroke-linecap="round" stroke-miterlimit="22.926" stroke-width="2.657" fill="#dbe3f6"/>
  <path id="path171" d="m90.5 271.12 4.198 0.98 4.198 0.98v3.924l-4.198 0.98-4.197 0.98-4.197-0.98-4.196-0.98v-3.924l4.196-0.98 4.198-0.98z" fill-rule="evenodd" fill="#f1877a"/>
  <path id="path173" d="m90.5 271.12 4.198 0.98 4.198 0.98v3.924l-4.198 0.98-4.197 0.98-4.197-0.98-4.196-0.98v-3.924l4.196-0.98 4.198-0.98z" stroke="#536b8b" stroke-linecap="round" stroke-miterlimit="22.926" stroke-width="2.6575" fill="none"/>
  <path id="path175" d="m83.74 284.81h13.52c1.718 0 3.123 1.405 3.123 3.124 0 1.716-1.405 3.122-3.122 3.122h-13.521c-1.718 0-3.123-1.406-3.123-3.122 0-1.72 1.405-3.124 3.122-3.124" fill-rule="evenodd" fill="#dbe3f6"/>
  <path id="path177" d="m83.74 284.81h13.52c1.718 0 3.123 1.405 3.123 3.124 0 1.716-1.405 3.122-3.122 3.122h-13.521c-1.718 0-3.123-1.406-3.123-3.122 0-1.72 1.405-3.124 3.122-3.124zm6.76-19.538v5.848m0 8.262v5.428" stroke="#536b8b" stroke-linecap="round" stroke-miterlimit="22.926" stroke-width="2.6575" fill="none"/>
  <path id="path179" d="m98.302 308.15h33.87v-46.21h-33.87v46.21z" fill-rule="evenodd" stroke="#536b8b" stroke-linecap="square" stroke-miterlimit="22.926" stroke-width="2.657" fill="#536b8b"/>
  <path id="path181" d="m105.07 271.42h20.334v-2.806h-20.334v2.805zm0 6.751h7v-2.805h-7v2.806z" fill-rule="evenodd" fill="#fff"/>
  <path id="path183" d="m115.59 278.18h7v-2.805h-7v2.806z" fill-rule="evenodd" fill="#f1877a"/>
  <path id="path185" d="m105.07 284.93h20.334v-2.806h-20.334v2.806zm0 6.75h13.96v-2.805h-13.96v2.806z" fill-rule="evenodd" fill="#fff"/>
  <path id="path187" d="m105.07 298.43h20.334v-2.805h-20.334v2.805z" fill-rule="evenodd" fill="#f1877a"/>
  <path id="path189" d="m125.47-130.6c-8.655 0-16.112 7.08-16.112 15.73v2.57h32.225v-2.57c0-8.65-7.458-15.73-16.113-15.73" fill-rule="evenodd" fill="#fdd26a"/>
  <path id="path191" stroke-linejoin="round" d="m125.47-130.6c-8.655 0-16.112 7.08-16.112 15.73v2.57h32.225v-2.57c0-8.65-7.458-15.73-16.113-15.73z" stroke="#536b8b" stroke-linecap="round" stroke-miterlimit="22.926" stroke-width="2.6575" fill="none"/>
  <path id="path193" d="m125.03-135.49c-1.82 0-3.386 1.486-3.386 3.305v2.53c0 1.685 0.975 3.285 3.386 3.51 2.41-0.225 3.386-1.825 3.386-3.51v-2.53c0-1.82-1.566-3.306-3.386-3.306" fill-rule="evenodd" fill="#b3a8b3"/>
  <path id="path195" stroke-linejoin="round" d="m125.03-135.49c-1.82 0-3.386 1.486-3.386 3.305v2.53c0 1.685 0.975 3.285 3.386 3.51 2.41-0.225 3.386-1.825 3.386-3.51v-2.53c0-1.82-1.566-3.306-3.386-3.306z" stroke="#536b8b" stroke-linecap="round" stroke-miterlimit="22.926" stroke-width="2.6575" fill="none"/>
  <path id="path197" d="m125.03-151.62c-3.995 0-7.435 3.267-7.435 7.26v5.56c0 3.697 2.14 7.21 7.435 7.706 5.294-0.496 7.435-4.01 7.435-7.706v-5.56c0-3.993-3.44-7.26-7.435-7.26" fill-rule="evenodd" fill="#b3a8b3"/>
  <path id="path199" stroke-linejoin="round" d="m125.03-151.62c-3.995 0-7.435 3.267-7.435 7.26v5.56c0 3.697 2.14 7.21 7.435 7.706 5.294-0.496 7.435-4.01 7.435-7.706v-5.56c0-3.993-3.44-7.26-7.435-7.26z" stroke="#536b8b" stroke-linecap="round" stroke-miterlimit="22.926" stroke-width="2.6575" fill="none"/>
  <path id="path201" d="m116.55-142.82h1.085c0.025-1.278 1.03-2.265 1.474-3.492 0.122-0.337 0.672-1.797 1.41-2.136 1.206-0.554 1.142 1.054 4.195 1.376 0.112-0.012 0.217-0.026 0.318-0.04 0.1 0.014 0.208 0.028 0.318 0.04 3.052-0.322 2.988-1.702 4.196-1.147 0.737 0.337 1.287 1.57 1.41 1.907 0.44 1.227 1.45 2.214 1.474 3.492h1.083c4.982-14.77-21.944-14.77-16.963 0" fill-rule="evenodd" fill="#536b8b"/>
  <path id="path203" d="m148.02-133.98c-10.254 0.002-19.087 8.39-19.087 18.637v3.044h38.177v-3.043c0-10.248-8.835-18.635-19.09-18.636" fill-rule="evenodd" fill="#ef6e65"/>
  <path id="path205" stroke-linejoin="round" d="m148.02-133.98c-10.254 0.002-19.087 8.39-19.087 18.637v3.044h38.177v-3.043c0-10.248-8.835-18.635-19.09-18.636z" stroke="#536b8b" stroke-linecap="round" stroke-miterlimit="22.926" stroke-width="2.6575" fill="none"/>
  <path id="path207" d="m147.48-139.78c-2.154 0-4.01 1.764-4.01 3.917v3c0 1.995 1.154 3.89 4.01 4.157 2.857-0.267 4.012-2.162 4.012-4.158v-3c0-2.152-1.856-3.915-4.01-3.915" fill-rule="evenodd" fill="#fff"/>
  <path id="path209" stroke-linejoin="round" d="m147.48-139.78c-2.154 0-4.01 1.764-4.01 3.917v3c0 1.995 1.154 3.89 4.01 4.157 2.857-0.267 4.012-2.162 4.012-4.158v-3c0-2.152-1.856-3.915-4.01-3.915z" stroke="#536b8b" stroke-linecap="round" stroke-miterlimit="22.926" stroke-width="2.6575" fill="none"/>
  <path id="path211" d="m147.48-158.88c-4.732 0-8.808 3.87-8.808 8.6v6.586c0 4.38 2.537 8.543 8.81 9.13 6.27-0.587 8.807-4.75 8.807-9.13v-6.586c0-4.73-4.077-8.6-8.81-8.6" fill-rule="evenodd" fill="#fff"/>
  <path id="path213" stroke-linejoin="round" d="m147.48-158.88c-4.732 0-8.808 3.87-8.808 8.6v6.586c0 4.38 2.537 8.543 8.81 9.13 6.27-0.587 8.807-4.75 8.807-9.13v-6.586c0-4.73-4.077-8.6-8.81-8.6z" stroke="#536b8b" stroke-linecap="round" stroke-miterlimit="22.926" stroke-width="2.6575" fill="none"/>
  <path id="path215" d="m141.72-161.6c-2.44 1.17-1.165 3.78-1.165 3.78-5.367-0.364-4.6 7.103-2.995 9.373h1.32c0.03-1.555 1.253-2.756 1.79-4.245 0.15-0.41 0.333-1.276 1.23-1.688 1.466-0.673 1.875-0.223 5.585 0.167 3.71-0.39 3.176-1.69 5.258-0.97 0.933 0.323 1.41 2.08 1.557 2.49 0.54 1.49 1.762 2.69 1.794 4.245h1.602l0.99-5.266c0.715-7.988-11.574-10.468-16.964-7.888" fill-rule="evenodd" fill="#536b8b"/>
  <path id="path217" d="m729.62 54.96c0 0.88-0.715 1.595-1.597 1.595-0.88 0-1.596-0.715-1.596-1.596v-6.043c0-0.645 0.264-1.23 0.69-1.656l0.007-0.006c0.426-0.425 1.013-0.69 1.657-0.69h13.782c0.64 0 1.227 0.265 1.656 0.69l0.002 0.003 0.004 0.004 0.005 0.005c0.422 0.43 0.684 1.012 0.684 1.652v6.042c0 0.88-0.713 1.595-1.596 1.595-0.882 0-1.597-0.715-1.597-1.596v-5.2h-12.1v5.2z" fill="#2f415b"/>
  <path id="path219" d="m706.42 56.484h58.49c0.725 0 1.32 0.593 1.32 1.318v38.742c0 0.726-0.595 1.32-1.32 1.32h-58.49c-0.725 0-1.32-0.594-1.32-1.32v-38.742c0-0.726 0.595-1.318 1.32-1.318" fill-rule="evenodd" fill="#2f415b"/>
  <path id="path221" stroke-linejoin="round" d="m706.42 56.484h58.49c0.725 0 1.32 0.593 1.32 1.318v38.742c0 0.726-0.595 1.32-1.32 1.32h-58.49c-0.725 0-1.32-0.594-1.32-1.32v-38.742c0-0.726 0.595-1.318 1.32-1.318z" stroke="#536b8b" stroke-linecap="round" stroke-miterlimit="22.926" stroke-width="2.7638" fill="none"/>
  <path id="path223" d="m706.57 57.134h58.204v36.106h-58.204v-36.106z" fill-rule="evenodd" fill="#3d597a"/>
  <path id="path225" d="m735.67 57.084h29.245c0.338 0 0.645 0.192 0.88 0.508l-18.842 18.85h-23.273l-18.134-18.85c0.234-0.316 0.543-0.508 0.88-0.508h29.245z" fill-rule="evenodd" fill="#96a0bb"/>
  <path id="path227" stroke-linejoin="round" d="m735.67 57.084h29.245c0.338 0 0.645 0.192 0.88 0.508l-18.842 18.85h-23.273l-18.134-18.85c0.234-0.316 0.543-0.508 0.88-0.508h29.245z" stroke="#536b8b" stroke-linecap="round" stroke-miterlimit="22.926" stroke-width="2.7638" fill="none"/>
  <path id="path229" d="m730.94 72.784h9.45v-3.012h-9.45v3.012z" fill-rule="evenodd" fill="#fdd26a"/>
  <path id="path231" d="m716.57 63.446c-3.314 12.43-3.6 29.85-3.6 29.85l5.726 10.02 5.725-10.02s-0.286-17.42-3.6-29.85h1.373v-4.77h-1.016c1.406-1.255 2.714-2.575 3.69-3.596v-1.825h-12.344v1.825c0.974 1.02 2.283 2.34 3.69 3.597h-1.02v4.77h1.375z" fill-rule="evenodd" fill="#ef6e65"/>
  <path id="path233" stroke-linejoin="round" d="m716.57 63.446c-3.314 12.43-3.6 29.85-3.6 29.85l5.726 10.02 5.725-10.02s-0.286-17.42-3.6-29.85h1.373v-4.77h-1.016c1.406-1.255 2.714-2.575 3.69-3.596v-1.825h-12.344v1.825c0.974 1.02 2.283 2.34 3.69 3.597h-1.02v4.77h1.375z" stroke="#536b8b" stroke-linecap="round" stroke-miterlimit="22.926" stroke-width="2.6575" fill="none"/>
  <path id="path235" d="m675.59-143.68v29.56c0 1.17-0.96 2.13-2.13 2.13h-14.08c-1.17 0-2.126-0.96-2.126-2.13v-29.56c0-1.17 0.957-2.126 2.127-2.126h14.08c1.172 0 2.13 0.957 2.13 2.127" fill-rule="evenodd" fill="#c7d5f6"/>
  <path id="path237" stroke-linejoin="round" d="m675.59-143.68v29.56c0 1.17-0.96 2.13-2.13 2.13h-14.08c-1.17 0-2.126-0.96-2.126-2.13v-29.56c0-1.17 0.957-2.126 2.127-2.126h14.08c1.172 0 2.13 0.957 2.13 2.127z" stroke="#536b8b" stroke-linecap="round" stroke-miterlimit="22.926" stroke-width="2.6575" fill="none"/>
  <path id="path239" d="m659.31-118.68h14.246v-21.273h-14.246v21.274zm7.124 3.776c0.548 0 0.994-0.446 0.994-0.995 0-0.546-0.446-0.993-0.993-0.993s-0.994 0.447-0.994 0.994c0 0.55 0.447 0.996 0.995 0.996m-4.776-29.102h3.753c0.267 0 0.486 0.22 0.486 0.485 0 0.27-0.222 0.485-0.487 0.485h-3.754c-0.265 0-0.485-0.216-0.485-0.484 0-0.265 0.22-0.484 0.486-0.484" fill-rule="evenodd" fill="#536b8b"/>
  <path id="path241" d="m661.29-134.45h9.965v1.564h-9.965v-1.564z" fill-rule="evenodd" fill="#fdd26a"/>
  <path id="path243" d="m661.29-130.58h5.684v1.565h-5.684v-1.564z" fill-rule="evenodd" fill="#dbf9ff"/>
  <path id="path245" d="m661.29-126.69h9.16v1.562h-9.16v-1.563zm0 3.886h4.568v1.565h-4.567v-1.564z" fill-rule="evenodd" fill="#fff"/>
  <path id="path247" d="m666.81-122.8h4.567v1.565h-4.567v-1.564z" fill-rule="evenodd" fill="#ef6e65"/>
  <path id="path249" d="m661.29-138.34h5.29v1.562h-5.29v-1.563z" fill-rule="evenodd" fill="#fff"/>
  <path id="path251" d="m611.48-142.25c0.02-1.494-0.012-2.63 0.472-3.487 1.652-2.938 5.44-2.68 9.214-2.68 3.773 0 7.56-0.258 9.213 2.68 0.457 0.812 0.452 1.874 0.467 3.252v24.81h0.01l-0.006 0.448c-0.02 1.494 0.013 2.627-0.47 3.487-1.654 2.935-5.44 2.68-9.214 2.68s-7.562 0.255-9.214-2.68c-0.484-0.86-0.45-1.993-0.47-3.487l-0.006-0.45v-24.125l0.005-0.45z" fill-rule="evenodd" fill="#536b8b"/>
  <path id="path253" d="m613.58-141.8h15.18v24.108h-15.18v-24.108z" fill-rule="evenodd" fill="#3eabcc"/>
  <path id="path255" d="m618.78-146.02h4.914c0.245 0 0.447 0.2 0.447 0.445 0 0.246-0.202 0.447-0.446 0.447h-4.913c-0.244 0-0.446-0.2-0.446-0.448 0-0.246 0.202-0.446 0.447-0.446m-0.415 2.028h5.73v1.054h-5.74v-1.055h0.01z" fill-rule="evenodd" fill="#dbe9f6"/>
  <path id="path257" d="m623.54-116.02h-4.755c-0.027 0-0.055 0.003-0.08 0.008-0.08 0.018-0.155 0.058-0.21 0.113-0.045 0.045-0.075 0.102-0.075 0.16 0 0.012 0 0.025 0.004 0.04l0.197 0.906c0.027 0.122 0.077 0.232 0.15 0.307 0.055 0.055 0.125 0.088 0.212 0.088h4.36c0.086 0 0.156-0.034 0.21-0.088 0.073-0.073 0.125-0.185 0.15-0.306l0.198-0.906c0.003-0.014 0.004-0.027 0.004-0.04 0-0.057-0.03-0.113-0.076-0.16-0.054-0.054-0.13-0.094-0.21-0.112-0.025-0.005-0.053-0.008-0.08-0.008m-4.754-0.347h4.755c0.05 0 0.104 0.007 0.154 0.015 0.144 0.033 0.28 0.107 0.38 0.207 0.11 0.107 0.177 0.25 0.177 0.405h0.002c0 0.036-0.005 0.074-0.013 0.11l-0.197 0.91c-0.04 0.182-0.12 0.354-0.244 0.476v0.002l-0.004 0.004c-0.117 0.115-0.267 0.186-0.452 0.186h-4.36c-0.187 0-0.34-0.072-0.457-0.19-0.124-0.123-0.206-0.295-0.244-0.477l-0.198-0.91c-0.01-0.036-0.012-0.074-0.012-0.11 0-0.156 0.07-0.298 0.178-0.406 0.1-0.1 0.237-0.175 0.38-0.208 0.05-0.008 0.103-0.015 0.154-0.015" fill="#dbe9f6"/>
  <path id="path259" d="m614.93-114.82h1.06v-0.777h-1.06v0.777zm11.113 0h1.06v-0.777h-1.06v0.777z" fill-rule="evenodd" fill="#dbe9f6"/>
  <path id="path261" d="m617.29-138.34h5.29v1.562h-5.29v-1.563zm44.575-16.664v46.066c0 1.823-1.492 3.315-3.316 3.315h-30.97c-1.824 0-3.318-1.49-3.318-3.315v-46.066c0-1.824 1.493-3.315 3.317-3.315h30.972c1.824 0 3.316 1.494 3.316 3.316" fill-rule="evenodd" fill="#fff"/>
  <path id="path263" stroke-linejoin="round" d="m661.87-155v46.066c0 1.823-1.492 3.315-3.316 3.315h-30.97c-1.824 0-3.318-1.49-3.318-3.315v-46.066c0-1.824 1.493-3.315 3.317-3.315h30.972c1.824 0 3.316 1.494 3.316 3.316z" stroke="#536b8b" stroke-linecap="round" stroke-miterlimit="22.926" stroke-width="2.6575" fill="none"/>
  <path id="path265" d="m628.36-112.95h29.412v-39.35h-29.412v39.35zm14.712 4.438c0.854 0 1.55-0.697 1.55-1.55 0-0.854-0.696-1.55-1.55-1.55s-1.55 0.696-1.55 1.55c0 0.853 0.696 1.55 1.55 1.55m-2.925-47h5.85c0.416 0 0.756 0.338 0.756 0.755 0 0.415-0.343 0.755-0.757 0.755h-5.85c-0.414 0-0.755-0.34-0.755-0.756 0-0.418 0.34-0.756 0.755-0.756" fill-rule="evenodd" fill="#536b8b"/>
  <path id="path267" d="m633.01-142.63h17.528v1.832h-17.528v-1.83z" fill-rule="evenodd" fill="#dbf9ff"/>
  <path id="path269" d="m633.01-138.08h9.998v1.832h-9.998v-1.83z" fill-rule="evenodd" fill="#ef6e65"/>
  <path id="path271" d="m633.01-133.54h16.11v1.83h-16.11v-1.83zm0 4.55h8.033v1.83h-8.034v-1.83zm0 4.536h8.143v1.833h-8.144v-1.834z" fill-rule="evenodd" fill="#fff"/>
  <path id="path273" d="m633.01-119.9h18.183v1.83h-18.184v-1.83z" fill-rule="evenodd" fill="#dbf9ff"/>
  <path id="path275" d="m642.71-128.99h8.033v1.83h-8.034v-1.83z" fill-rule="evenodd" fill="#ef6e65"/>
  <path id="path277" d="m633.01-147.17h9.302v1.83h-9.302v-1.83z" fill-rule="evenodd" fill="#fff"/>
  <path id="path279" d="m617.29-134.03h5.29v1.565h-5.29v-1.564z" fill-rule="evenodd" fill="#536b8b"/>
  <path id="path281" d="m617.29-129.72h5.29v1.565h-5.29v-1.566z" fill-rule="evenodd" fill="#fff"/>
  <path id="path283" d="m617.29-125.42h5.29v1.565h-5.29v-1.566z" fill-rule="evenodd" fill="#fdd26a"/>
  <path id="path285" d="m617.29-121.1h5.29v1.564h-5.29v-1.564z" fill-rule="evenodd" fill="#fff"/>
 </g>
</svg>
