<svg xmlns="http://www.w3.org/2000/svg" height="620" width="795" viewBox="0 0 795 620"><defs><clipPath id="a"><path d="M177.72 302.16h265.39V136.17H177.72v165.99z"/></clipPath></defs><path d="M395.456 221.084V125.98" stroke-miterlimit="22.926" fill="none" stroke="#536b8b" stroke-width="2.6574999999999998" stroke-linecap="round" stroke-linejoin="round" stroke-dasharray="4.252, 4.252"/><path d="M147.368 179.234c28.16 0 51.2-23.04 51.2-51.2 0-28.16-23.04-51.2-51.2-51.2-28.16 0-51.2 23.04-51.2 51.2 0 28.16 23.04 51.2 51.2 51.2" fill="#dbf9ff" fill-rule="evenodd"/><path d="M147.368 179.234c28.16 0 51.2-23.04 51.2-51.2 0-28.16-23.04-51.2-51.2-51.2-28.16 0-51.2 23.04-51.2 51.2 0 28.16 23.04 51.2 51.2 51.2z" stroke-miterlimit="22.926" fill="none" stroke="#536b8b" stroke-width="2.6574999999999998" stroke-linecap="round" stroke-linejoin="round"/><path d="M169.83 129.396c-8.656 0-16.112 7.08-16.112 15.73v2.57h32.225v-2.57c0-8.65-7.457-15.73-16.112-15.73" fill="#96a0bb" fill-rule="evenodd"/><path d="M169.83 129.396c-8.656 0-16.112 7.08-16.112 15.73v2.57h32.225v-2.57c0-8.65-7.457-15.73-16.112-15.73z" stroke-miterlimit="22.926" fill="none" stroke="#536b8b" stroke-width="2.6574999999999998" stroke-linecap="round" stroke-linejoin="round"/><path d="M169.393 124.51c-1.82 0-3.386 1.486-3.386 3.305v2.53c0 1.685.975 3.285 3.386 3.51 2.41-.225 3.386-1.825 3.386-3.51v-2.53c0-1.82-1.567-3.306-3.387-3.306" fill="#fff" fill-rule="evenodd"/><path d="M169.393 124.51c-1.82 0-3.386 1.486-3.386 3.305v2.53c0 1.685.975 3.285 3.386 3.51 2.41-.225 3.386-1.825 3.386-3.51v-2.53c0-1.82-1.567-3.306-3.387-3.306z" stroke-miterlimit="22.926" fill="none" stroke="#536b8b" stroke-width="2.6574999999999998" stroke-linecap="round" stroke-linejoin="round"/><path d="M169.393 108.384c-3.995 0-7.435 3.267-7.435 7.26v5.56c0 3.697 2.14 7.21 7.435 7.706 5.294-.496 7.435-4.01 7.435-7.706v-5.56c0-3.993-3.44-7.26-7.435-7.26" fill="#fff" fill-rule="evenodd"/><path d="M169.393 108.384c-3.995 0-7.435 3.267-7.435 7.26v5.56c0 3.697 2.14 7.21 7.435 7.706 5.294-.496 7.435-4.01 7.435-7.706v-5.56c0-3.993-3.44-7.26-7.435-7.26z" stroke-miterlimit="22.926" fill="none" stroke="#536b8b" stroke-width="2.6574999999999998" stroke-linecap="round" stroke-linejoin="round"/><path d="M164.843 106.37c-3.366 1.616-5.636 7.024-3.276 10.36.505-2.38 1.67-3.87 3.417-4.67 8.844-4.063 10.218 1.1 11.837 4.67l1.386-4.146c.102-1.144-.742-3.34-1.804-3.774 0 0-.555-1.518-2.476-2.44-.84-.373-4.928-1.563-4.928-2.304-.712-.31-3.155 1.988-4.155 2.305" fill="#fdd26a" fill-rule="evenodd"/><path d="M164.843 106.37c-3.366 1.616-5.636 7.024-3.276 10.36.505-2.38 1.67-3.87 3.417-4.67 8.844-4.063 10.218 1.1 11.837 4.67l1.386-4.146c.102-1.144-.742-3.34-1.804-3.774 0 0-.555-1.518-2.476-2.44-.84-.373-4.928-1.563-4.928-2.304-.712-.31-3.155 1.988-4.155 2.305z" stroke-miterlimit="22.926" fill="none" stroke="#536b8b" stroke-width="2.6574999999999998" stroke-linecap="round" stroke-linejoin="round"/><path d="M217.23 220.034h356.426c5.197 0 9.45 4.258 9.45 9.452v237.788H207.77V229.486c.01-5.2 4.263-9.452 9.462-9.452" fill="#536b8b" fill-rule="evenodd"/><path d="M217.23 220.034h356.426c5.197 0 9.45 4.258 9.45 9.452v237.788H207.77V229.486c.01-5.2 4.263-9.452 9.462-9.452z" stroke-miterlimit="22.926" fill="none" stroke="#536b8b" stroke-width="2.76375" stroke-linecap="round" stroke-linejoin="round"/><path d="M229.58 448.86H561.32V241.37H229.58v207.49z" fill="#76c88d" fill-rule="evenodd"/><path d="M395.343 233.16c1.918 0 3.48-1.565 3.48-3.48 0-1.92-1.562-3.483-3.48-3.483-1.917 0-3.48 1.564-3.48 3.482 0 1.915 1.563 3.48 3.48 3.48" fill="#ecedf6" fill-rule="evenodd"/><path d="M162.793 481.034h465.313V467.27H162.793v13.764z" stroke-miterlimit="22.926" fill="#ecedf6" fill-rule="evenodd" stroke="#536b8b" stroke-width="2.764" stroke-linecap="round" stroke-linejoin="round"/><path d="M361.156 468.646h68.58v2.35c0 2.535-2.074 4.61-4.61 4.61h-59.362c-2.535 0-4.608-2.075-4.608-4.61v-2.35z" fill="#b8c8d4" fill-rule="evenodd"/><path d="M179.468 488.71h431.95c5.88-.748 11.756-4.053 16.68-7.67h-465.3c4.918 3.617 10.794 6.922 16.674 7.67" fill="#dbe9f6" fill-rule="evenodd"/><path d="M179.468 488.71h431.95c5.88-.748 11.756-4.053 16.68-7.67h-465.3c4.918 3.617 10.794 6.922 16.674 7.67z" stroke-miterlimit="22.926" fill="none" stroke="#536b8b" stroke-width="2.76375" stroke-linecap="round" stroke-linejoin="round"/><path d="M300.218 389.56H489.63v9.152H300.22v-9.153zm85.553-77.336h45.954v9.153H385.77v-9.153zm60.11 0h45.172v9.153h-45.17v-9.153zm-145.662 0h30.686v9.153h-30.686v-9.153zm0 19.332h127.375v9.154H300.218v-9.154zm88.096 38.67h33.55v9.153h-33.55v-9.155zm-88.096 0h77.12v9.153h-77.12v-9.155zm0-19.335h172.538v9.154H300.218v-9.153zm0-58H472.58v9.154H300.22v-9.154zm159.4 116.002l14.603-.08v9.153l-14.602.08v-9.153zm-159.4 0l145.763-.462v9.155l-145.762.46v-9.153z" fill="#39b773" fill-rule="evenodd"/><g clip-path="url(#a)" opacity=".3" transform="matrix(1.25 0 0 -1.25 7.43 619.07)"><path d="M177.72 136.17l265.39 165.99H177.72V136.17z" fill="#fff" fill-rule="evenodd"/></g><path d="M395.456 272.47l31.458 18.162 31.458 18.163-34.84 20.114-14.038-8.108-14.038-8.103-14.038 8.102-14.04 8.107v32.42l14.04 8.104 14.038 8.105 14.038-8.106 14.04-8.105 34.838 20.112-31.458 18.162-31.458 18.162-31.458-18.162-31.457-18.162v-72.648L364 290.632l31.458-18.16z" fill="#a2baf0" fill-rule="evenodd"/><path d="M395.456 272.47l31.458 18.162 31.458 18.163-34.84 20.114-14.038-8.108-14.038-8.103-14.038 8.102-14.04 8.107v32.42l14.04 8.104 14.038 8.105 14.038-8.106 14.04-8.105 34.838 20.112-31.458 18.162-31.458 18.162-31.458-18.162-31.457-18.162v-72.648L364 290.632l31.458-18.16z" stroke-miterlimit="22.926" fill="none" stroke="#536b8b" stroke-width="2.6574999999999998" stroke-linecap="round" stroke-linejoin="round"/><path d="M395.456 377.534l14.037-8.104 14.04-8.106 34.838 20.113-31.457 18.162-31.457 18.16v-40.226z" fill="#c7d5f6" fill-rule="evenodd"/><path d="M395.456 377.534l14.037-8.104 14.04-8.106 34.838 20.113-31.457 18.162-31.457 18.16v-40.226z" stroke-miterlimit="22.926" fill="none" stroke="#536b8b" stroke-width="2.6574999999999998" stroke-linecap="round" stroke-linejoin="round"/><path d="M395.456 417.76l-31.458-18.164-31.457-18.162V308.787l34.84 20.115v32.42l14.038 8.106 14.038 8.104v40.23z" fill="#fff" fill-rule="evenodd"/><path d="M395.456 417.76l-31.458-18.164-31.457-18.162V308.787l34.84 20.115v32.42l14.038 8.106 14.038 8.104v40.23z" stroke-miterlimit="22.926" fill="none" stroke="#536b8b" stroke-width="2.6574999999999998" stroke-linecap="round" stroke-linejoin="round"/><path d="M102.87 488.51V427.9c.23-16.964 10.366-16.77 21.52-16.77h83.394M643.53 179.234v60.607c-.23 16.965-10.367 16.77-21.522 16.77h-38.894M583.73 340.234h100.997M688.03 488.51V427.9c-.23-16.964-10.367-16.77-21.522-16.77h-83.394" stroke-miterlimit="22.926" fill="none" stroke="#536b8b" stroke-width="2.6574999999999998" stroke-linecap="round" stroke-linejoin="round" stroke-dasharray="4.252, 4.252"/><path d="M395.456 125.984c-28.16 0-51.2-23.04-51.2-51.2 0-28.16 23.04-51.2 51.2-51.2 28.16 0 51.2 23.04 51.2 51.2 0 28.16-23.04 51.2-51.2 51.2" fill="#dbf9ff" fill-rule="evenodd"/><path d="M395.456 125.984c-28.16 0-51.2-23.04-51.2-51.2 0-28.16 23.04-51.2 51.2-51.2 28.16 0 51.2 23.04 51.2 51.2 0 28.16-23.04 51.2-51.2 51.2z" stroke-miterlimit="22.926" fill="none" stroke="#536b8b" stroke-width="2.6574999999999998" stroke-linecap="round" stroke-linejoin="round"/><path d="M643.53 179.234c-28.16 0-51.198-23.04-51.198-51.2 0-28.16 23.04-51.2 51.2-51.2 28.16 0 51.197 23.04 51.197 51.2 0 28.16-23.04 51.2-51.2 51.2" fill="#dbf9ff" fill-rule="evenodd"/><path d="M643.53 179.234c-28.16 0-51.198-23.04-51.198-51.2 0-28.16 23.04-51.2 51.2-51.2 28.16 0 51.197 23.04 51.197 51.2 0 28.16-23.04 51.2-51.2 51.2z" stroke-miterlimit="22.926" fill="none" stroke="#536b8b" stroke-width="2.6574999999999998" stroke-linecap="round" stroke-linejoin="round"/><path d="M735.668 386.284c-28.16 0-51.2-23.04-51.2-51.2 0-28.16 23.04-51.2 51.2-51.2 28.16 0 51.2 23.04 51.2 51.2 0 28.16-23.04 51.2-51.2 51.2" fill="#dbf9ff" fill-rule="evenodd"/><path d="M735.668 386.284c-28.16 0-51.2-23.04-51.2-51.2 0-28.16 23.04-51.2 51.2-51.2 28.16 0 51.2 23.04 51.2 51.2 0 28.16-23.04 51.2-51.2 51.2z" stroke-miterlimit="22.926" fill="none" stroke="#536b8b" stroke-width="2.6574999999999998" stroke-linecap="round" stroke-linejoin="round"/><path d="M147.368 179.234v60.607c.23 16.965 10.366 16.77 21.523 16.77h38.894M207.78 340.234H106.785" stroke-miterlimit="22.926" fill="none" stroke="#536b8b" stroke-width="2.6574999999999998" stroke-linecap="round" stroke-linejoin="round" stroke-dasharray="4.252, 4.252"/><path d="M55.848 386.284c28.16 0 51.2-23.04 51.2-51.2 0-28.16-23.04-51.2-51.2-51.2-28.16 0-51.2 23.04-51.2 51.2 0 28.16 23.04 51.2 51.2 51.2" fill="#dbf9ff" fill-rule="evenodd"/><path d="M55.848 386.284c28.16 0 51.2-23.04 51.2-51.2 0-28.16-23.04-51.2-51.2-51.2-28.16 0-51.2 23.04-51.2 51.2 0 28.16 23.04 51.2 51.2 51.2z" stroke-miterlimit="22.926" fill="none" stroke="#536b8b" stroke-width="2.6574999999999998" stroke-linecap="round" stroke-linejoin="round"/><path d="M102.87 590.906c28.16 0 51.198-23.04 51.198-51.2 0-28.16-23.04-51.2-51.2-51.2-28.16 0-51.2 23.04-51.2 51.2 0 28.16 23.04 51.2 51.2 51.2" fill="#dbf9ff" fill-rule="evenodd"/><path d="M102.87 590.906c28.16 0 51.198-23.04 51.198-51.2 0-28.16-23.04-51.2-51.2-51.2-28.16 0-51.2 23.04-51.2 51.2 0 28.16 23.04 51.2 51.2 51.2z" stroke-miterlimit="22.926" fill="none" stroke="#536b8b" stroke-width="2.6574999999999998" stroke-linecap="round" stroke-linejoin="round"/><path d="M688.03 590.906c28.16 0 51.2-23.04 51.2-51.2 0-28.16-23.04-51.2-51.2-51.2-28.16 0-51.198 23.04-51.198 51.2 0 28.16 23.04 51.2 51.2 51.2" fill="#dbf9ff" fill-rule="evenodd"/><path d="M688.03 590.906c28.16 0 51.2-23.04 51.2-51.2 0-28.16-23.04-51.2-51.2-51.2-28.16 0-51.198 23.04-51.198 51.2 0 28.16 23.04 51.2 51.2 51.2z" stroke-miterlimit="22.926" fill="none" stroke="#536b8b" stroke-width="2.6574999999999998" stroke-linecap="round" stroke-linejoin="round"/><path d="M361.593 96.27h67.71V53.28h-67.71v42.99z" stroke-miterlimit="22.926" fill="#aec0e5" fill-rule="evenodd" stroke="#536b8b" stroke-width="2.657" stroke-linecap="round" stroke-linejoin="round"/><path d="M361.593 59.984h67.71v-6.698h-67.71v6.698z" stroke-miterlimit="22.926" fill="#536b8b" fill-rule="evenodd" stroke="#536b8b" stroke-width="2.657" stroke-linecap="round" stroke-linejoin="round"/><path d="M366.58 58.36c.884 0 1.604-.705 1.604-1.57 0-.86-.72-1.565-1.603-1.565s-1.603.705-1.603 1.566c0 .865.72 1.57 1.604 1.57" fill="#fdd26a" fill-rule="evenodd"/><path d="M371.88 58.36c.884 0 1.604-.705 1.604-1.57 0-.86-.72-1.565-1.603-1.565s-1.603.705-1.603 1.566c0 .865.72 1.57 1.604 1.57" fill="#f1877a" fill-rule="evenodd"/><path d="M377.18 58.36c.884 0 1.604-.705 1.604-1.57 0-.86-.72-1.565-1.603-1.565s-1.603.705-1.603 1.566c0 .865.72 1.57 1.604 1.57" fill="#23ccf0" fill-rule="evenodd"/><path d="M397.168 79.66h14.23v2.374h-14.23V79.66z" fill="#ef6e65" fill-rule="evenodd"/><path d="M374.318 79.66h20.005v2.374h-20.005V79.66z" fill="#fdd26a" fill-rule="evenodd"/><path d="M374.318 86.346h27.205v2.374h-27.205v-2.374zM385.28 66.284h13.41v2.375h-13.41v-2.376z" fill="#fff" fill-rule="evenodd"/><path d="M374.318 66.284h8.394v2.375h-8.394v-2.376z" fill="#ef6e65" fill-rule="evenodd"/><path d="M374.318 72.97h30.32v2.375h-30.32V72.97z" fill="#fff" fill-rule="evenodd"/><path d="M39.158 316.596h33.38v37.264c0 4.394-7.472 7.956-16.69 7.956-9.216 0-16.69-3.562-16.69-7.956v-37.264z" fill="#536b8b" fill-rule="evenodd"/><path d="M39.158 316.596h33.38v37.264c0 4.394-7.472 7.956-16.69 7.956-9.216 0-16.69-3.562-16.69-7.956v-37.264z" stroke-miterlimit="22.926" fill="none" stroke="#536b8b" stroke-width="2.6574999999999998" stroke-linecap="round" stroke-linejoin="round"/><path d="M62.62 317.26h9.404v36.114c0 3.105-3.853 5.783-9.405 7.005v-43.12z" fill="#3d597a" fill-rule="evenodd"/><path d="M39.673 317.26h9.405v43.12c-5.55-1.223-9.405-3.9-9.405-7.006V317.26z" fill="#7b859f" fill-rule="evenodd"/><path d="M55.848 308.346L90.222 320.8l-34.374 12.457L21.474 320.8l34.374-12.454z" fill="#3d597a" fill-rule="evenodd"/><path d="M80.006 336.146v-12.2c0-.77-.664-1.17-1.397-1.397l-21.366-6.594c-.733-.227-1.396.63-1.396 1.396v2" stroke-miterlimit="22.926" fill="none" stroke="#e8a541" stroke-width="2.6574999999999998"/><path d="M80.006 336.146l2.07 9.398 2.068 9.395H75.866l2.07-9.396 2.07-9.398z" fill="#faa21b" fill-rule="evenodd"/><path d="M80.007 340.696c1.806 0 3.28-1.474 3.28-3.28 0-1.806-1.474-3.28-3.28-3.28-1.806 0-3.28 1.474-3.28 3.28 0 1.806 1.474 3.28 3.28 3.28" fill="#faa21b" fill-rule="evenodd"/><path d="M79.678 339.534c1.464 0 2.658-1.194 2.658-2.658s-1.194-2.657-2.658-2.657-2.657 1.192-2.657 2.656c0 1.464 1.194 2.658 2.658 2.658" fill="#ffc20e" fill-rule="evenodd"/><path d="M688.043 503.93c2.005 0 3.646 1.64 3.646 3.65v1.265h-7.294v-1.266c0-2.01 1.64-3.65 3.647-3.65" fill="#96a0bb" fill-rule="evenodd"/><path d="M688.043 503.93c2.005 0 3.646 1.64 3.646 3.65v1.265h-7.294v-1.266c0-2.01 1.64-3.65 3.647-3.65z" stroke-miterlimit="22.926" fill="none" stroke="#536b8b" stroke-width="2.76375" stroke-linecap="round" stroke-linejoin="round"/><path d="M683.643 519.156h8.783v-10.54h-8.783v10.54zM673.906 563.175h28.266v-33.92h-28.266v33.92z" stroke-miterlimit="22.926" fill="#fdd26a" fill-rule="evenodd" stroke="#536b8b" stroke-width="2.657" stroke-linecap="round" stroke-linejoin="round"/><path d="M688.043 513.952c6.18 0 11.234 5.055 11.234 11.234v3.903H676.81v-3.904c0-6.18 5.054-11.234 11.233-11.234" fill="#96a0bb" fill-rule="evenodd"/><path d="M688.043 513.952c6.18 0 11.234 5.055 11.234 11.234v3.903H676.81v-3.904c0-6.18 5.054-11.234 11.233-11.234z" stroke-miterlimit="22.926" fill="none" stroke="#536b8b" stroke-width="2.76375" stroke-linecap="round" stroke-linejoin="round"/><path d="M662.718 544.337h3.258v-17.015h-3.258v17.015z" stroke-miterlimit="22.926" fill="#fdd26a" fill-rule="evenodd" stroke="#536b8b" stroke-width="2.657" stroke-linecap="round" stroke-linejoin="round"/><path d="M688.043 503.51v-4.48" stroke-miterlimit="22.926" fill="none" stroke="#536b8b" stroke-width="2.76375" stroke-linecap="round" stroke-linejoin="round"/><path d="M670.856 563.175h34.37v-20.53h-34.37v20.53zM661.68 561.87h5.346v-27.923h-5.345v27.922z" stroke-miterlimit="22.926" fill="#fdd26a" fill-rule="evenodd" stroke="#536b8b" stroke-width="2.657" stroke-linecap="round" stroke-linejoin="round"/><path d="M661.106 561.87h6.5V542.88h-6.5v18.987zM653.418 544.337h3.258v-17.015h-3.258v17.015z" stroke-miterlimit="22.926" fill="#fdd26a" fill-rule="evenodd" stroke="#536b8b" stroke-width="2.657" stroke-linecap="round" stroke-linejoin="round"/><path d="M652.368 561.87h5.345v-27.923h-5.345v27.922z" stroke-miterlimit="22.926" fill="#fdd26a" fill-rule="evenodd" stroke="#536b8b" stroke-width="2.657" stroke-linecap="round" stroke-linejoin="round"/><path d="M651.793 561.87h6.5V542.88h-6.5v18.987z" stroke-miterlimit="22.926" fill="#fdd26a" fill-rule="evenodd" stroke="#536b8b" stroke-width="2.657" stroke-linecap="round" stroke-linejoin="round"/><path d="M650.18 563.175h20.678v-12.2H650.18v12.2z" stroke-miterlimit="22.926" fill="#fdd26a" fill-rule="evenodd" stroke="#536b8b" stroke-width="2.657" stroke-linecap="round" stroke-linejoin="round"/><path d="M670.856 548h34.37M682.306 529.09v13.556M693.768 529.09v13.556M662.718 528.215v-4.463m3.258 4.463v-4.463M653.418 528.215v-4.463m3.258 4.463v-4.463" stroke-miterlimit="22.926" fill="none" stroke="#536b8b" stroke-width="2.6574999999999998" stroke-linecap="round" stroke-linejoin="round"/><path d="M705.218 563.175h20.678v-12.2h-20.678v12.2z" stroke-miterlimit="22.926" fill="#fdd26a" fill-rule="evenodd" stroke="#536b8b" stroke-width="2.657" stroke-linecap="round" stroke-linejoin="round"/><path d="M709.743 550.976h11.62V535.67h-11.62v15.306z" stroke-miterlimit="22.926" fill="#fdd26a" fill-rule="evenodd" stroke="#536b8b" stroke-width="2.657" stroke-linecap="round" stroke-linejoin="round"/><path d="M715.556 535.05h-2.905l2.906-21.403 2.903 21.402h-2.904z" fill="#fdd26a" fill-rule="evenodd"/><path d="M715.556 535.05h-2.905l2.906-21.403 2.903 21.402h-2.904zM709.743 537.96v-8.885M721.368 537.96v-8.885" stroke-miterlimit="22.926" fill="none" stroke="#536b8b" stroke-width="2.6574999999999998" stroke-linecap="round" stroke-linejoin="round"/><path d="M688.043 551.212c-2.5 0-4.547 2.047-4.547 4.548v8.665h9.095v-8.665c0-2.5-2.047-4.548-4.547-4.548M676.556 549.962c-1.094 0-1.99.895-1.99 1.99v7.745h3.978v-7.745c0-1.095-.895-1.99-1.988-1.99M699.518 549.962c-1.094 0-1.99.895-1.99 1.99v7.745h3.98v-7.745c0-1.095-.896-1.99-1.99-1.99M665.98 554.3c-.606 0-1.102.495-1.102 1.102v4.295h2.206v-4.295c0-.607-.496-1.103-1.103-1.103M660.156 554.3c-.607 0-1.103.495-1.103 1.102v4.295h2.206v-4.295c0-.607-.497-1.103-1.104-1.103M654.343 554.3c-.606 0-1.102.495-1.102 1.102v4.295h2.207v-4.295c0-.607-.498-1.103-1.104-1.103M690.093 532.772h-4.106v6.934h4.106v-6.934zM676.73 539.706h2.647v-6.934h-2.646v6.934zM699.343 532.772h-2.646v6.934h2.646v-6.934zM709.393 554.3c-.606 0-1.102.495-1.102 1.102v4.295h2.206v-4.295c0-.607-.497-1.103-1.103-1.103M715.206 554.3c-.607 0-1.103.495-1.103 1.102v4.295h2.205v-4.295c0-.607-.496-1.103-1.102-1.103M721.018 554.3c-.606 0-1.102.495-1.102 1.102v4.295h2.205v-4.295c0-.607-.496-1.103-1.102-1.103M715.556 539.29c-.782 0-1.42.64-1.42 1.42v5.526h2.838v-5.527c0-.78-.638-1.42-1.418-1.42" fill="#3d597a" fill-rule="evenodd"/><path d="M73.566 557.47h33.87v-46.21h-33.87v46.21z" stroke-miterlimit="22.926" fill="#fff" fill-rule="evenodd" stroke="#536b8b" stroke-width="2.657" stroke-linecap="square"/><path d="M81.52 525.27h17.96v-7.596H81.52v7.597z" stroke-miterlimit="22.926" fill="#dbe3f6" fill-rule="evenodd" stroke="#536b8b" stroke-width="2.657" stroke-linecap="round"/><path d="M90.5 531.12l4.198.98 4.198.98v3.924l-4.198.98-4.197.98-4.197-.98-4.196-.98v-3.924l4.196-.98 4.198-.98z" fill="#f1877a" fill-rule="evenodd"/><path d="M90.5 531.12l4.198.98 4.198.98v3.924l-4.198.98-4.197.98-4.197-.98-4.196-.98v-3.924l4.196-.98 4.198-.98z" stroke-miterlimit="22.926" fill="none" stroke="#536b8b" stroke-width="2.6574999999999998" stroke-linecap="round"/><path d="M83.74 544.81h13.52c1.718 0 3.123 1.405 3.123 3.124 0 1.716-1.405 3.122-3.122 3.122H83.74c-1.718 0-3.123-1.406-3.123-3.122 0-1.72 1.405-3.124 3.122-3.124" fill="#dbe3f6" fill-rule="evenodd"/><path d="M83.74 544.81h13.52c1.718 0 3.123 1.405 3.123 3.124 0 1.716-1.405 3.122-3.122 3.122H83.74c-1.718 0-3.123-1.406-3.123-3.122 0-1.72 1.405-3.124 3.122-3.124zM90.5 525.272v5.848M90.5 539.382v5.428" stroke-miterlimit="22.926" fill="none" stroke="#536b8b" stroke-width="2.6574999999999998" stroke-linecap="round"/><path d="M98.302 568.152h33.87v-46.21h-33.87v46.21z" stroke-miterlimit="22.926" fill="#536b8b" fill-rule="evenodd" stroke="#536b8b" stroke-width="2.657" stroke-linecap="square"/><path d="M105.07 531.425h20.334v-2.806H105.07v2.805zM105.07 538.176h7v-2.805h-7v2.806z" fill="#fff" fill-rule="evenodd"/><path d="M115.587 538.176h7v-2.805h-7v2.806z" fill="#f1877a" fill-rule="evenodd"/><path d="M105.07 544.93h20.334v-2.806H105.07v2.806zM105.07 551.68h13.96v-2.805h-13.96v2.806z" fill="#fff" fill-rule="evenodd"/><path d="M105.07 558.432h20.334v-2.805H105.07v2.805z" fill="#f1877a" fill-rule="evenodd"/><path d="M125.474 129.396c-8.655 0-16.112 7.08-16.112 15.73v2.57h32.225v-2.57c0-8.65-7.458-15.73-16.113-15.73" fill="#fdd26a" fill-rule="evenodd"/><path d="M125.474 129.396c-8.655 0-16.112 7.08-16.112 15.73v2.57h32.225v-2.57c0-8.65-7.458-15.73-16.113-15.73z" stroke-miterlimit="22.926" fill="none" stroke="#536b8b" stroke-width="2.6574999999999998" stroke-linecap="round" stroke-linejoin="round"/><path d="M125.028 124.51c-1.82 0-3.386 1.486-3.386 3.305v2.53c0 1.685.975 3.285 3.386 3.51 2.41-.225 3.386-1.825 3.386-3.51v-2.53c0-1.82-1.566-3.306-3.386-3.306" fill="#b3a8b3" fill-rule="evenodd"/><path d="M125.028 124.51c-1.82 0-3.386 1.486-3.386 3.305v2.53c0 1.685.975 3.285 3.386 3.51 2.41-.225 3.386-1.825 3.386-3.51v-2.53c0-1.82-1.566-3.306-3.386-3.306z" stroke-miterlimit="22.926" fill="none" stroke="#536b8b" stroke-width="2.6574999999999998" stroke-linecap="round" stroke-linejoin="round"/><path d="M125.028 108.384c-3.995 0-7.435 3.267-7.435 7.26v5.56c0 3.697 2.14 7.21 7.435 7.706 5.294-.496 7.435-4.01 7.435-7.706v-5.56c0-3.993-3.44-7.26-7.435-7.26" fill="#b3a8b3" fill-rule="evenodd"/><path d="M125.028 108.384c-3.995 0-7.435 3.267-7.435 7.26v5.56c0 3.697 2.14 7.21 7.435 7.706 5.294-.496 7.435-4.01 7.435-7.706v-5.56c0-3.993-3.44-7.26-7.435-7.26z" stroke-miterlimit="22.926" fill="none" stroke="#536b8b" stroke-width="2.6574999999999998" stroke-linecap="round" stroke-linejoin="round"/><path d="M116.547 117.184h1.085c.025-1.278 1.03-2.265 1.474-3.492.122-.337.672-1.797 1.41-2.136 1.206-.554 1.142 1.054 4.195 1.376.112-.012.217-.026.318-.04.1.014.208.028.318.04 3.052-.322 2.988-1.702 4.196-1.147.737.337 1.287 1.57 1.41 1.907.44 1.227 1.45 2.214 1.474 3.492h1.083c4.982-14.77-21.944-14.77-16.963 0" fill="#536b8b" fill-rule="evenodd"/><path d="M148.018 126.02c-10.254.002-19.087 8.39-19.087 18.637v3.044h38.177v-3.043c0-10.248-8.835-18.635-19.09-18.636" fill="#ef6e65" fill-rule="evenodd"/><path d="M148.018 126.02c-10.254.002-19.087 8.39-19.087 18.637v3.044h38.177v-3.043c0-10.248-8.835-18.635-19.09-18.636z" stroke-miterlimit="22.926" fill="none" stroke="#536b8b" stroke-width="2.6574999999999998" stroke-linecap="round" stroke-linejoin="round"/><path d="M147.48 120.22c-2.154 0-4.01 1.764-4.01 3.917v3c0 1.995 1.154 3.89 4.01 4.157 2.857-.267 4.012-2.162 4.012-4.158v-3c0-2.152-1.856-3.915-4.01-3.915" fill="#fff" fill-rule="evenodd"/><path d="M147.48 120.22c-2.154 0-4.01 1.764-4.01 3.917v3c0 1.995 1.154 3.89 4.01 4.157 2.857-.267 4.012-2.162 4.012-4.158v-3c0-2.152-1.856-3.915-4.01-3.915z" stroke-miterlimit="22.926" fill="none" stroke="#536b8b" stroke-width="2.6574999999999998" stroke-linecap="round" stroke-linejoin="round"/><path d="M147.48 101.12c-4.732 0-8.808 3.87-8.808 8.6v6.586c0 4.38 2.537 8.543 8.81 9.13 6.27-.587 8.807-4.75 8.807-9.13v-6.586c0-4.73-4.077-8.6-8.81-8.6" fill="#fff" fill-rule="evenodd"/><path d="M147.48 101.12c-4.732 0-8.808 3.87-8.808 8.6v6.586c0 4.38 2.537 8.543 8.81 9.13 6.27-.587 8.807-4.75 8.807-9.13v-6.586c0-4.73-4.077-8.6-8.81-8.6z" stroke-miterlimit="22.926" fill="none" stroke="#536b8b" stroke-width="2.6574999999999998" stroke-linecap="round" stroke-linejoin="round"/><path d="M141.718 98.396c-2.44 1.17-1.165 3.78-1.165 3.78-5.367-.364-4.6 7.103-2.995 9.373h1.32c.03-1.555 1.253-2.756 1.79-4.245.15-.41.333-1.276 1.23-1.688 1.466-.673 1.875-.223 5.585.167 3.71-.39 3.176-1.69 5.258-.97.933.323 1.41 2.08 1.557 2.49.54 1.49 1.762 2.69 1.794 4.245h1.602l.99-5.266c.715-7.988-11.574-10.468-16.964-7.888" fill="#536b8b" fill-rule="evenodd"/><path d="M729.618 314.96c0 .88-.715 1.595-1.597 1.595-.88 0-1.596-.715-1.596-1.596v-6.043c0-.645.264-1.23.69-1.656l.007-.006c.426-.425 1.013-.69 1.657-.69h13.782c.64 0 1.227.265 1.656.69l.002.003.004.004.005.005c.422.43.684 1.012.684 1.652v6.042c0 .88-.713 1.595-1.596 1.595-.882 0-1.597-.715-1.597-1.596v-5.2h-12.1v5.2z" fill="#2f415b"/><path d="M706.418 316.484h58.49c.725 0 1.32.593 1.32 1.318v38.742c0 .726-.595 1.32-1.32 1.32h-58.49c-.725 0-1.32-.594-1.32-1.32v-38.742c0-.726.595-1.318 1.32-1.318" fill="#2f415b" fill-rule="evenodd"/><path d="M706.418 316.484h58.49c.725 0 1.32.593 1.32 1.318v38.742c0 .726-.595 1.32-1.32 1.32h-58.49c-.725 0-1.32-.594-1.32-1.32v-38.742c0-.726.595-1.318 1.32-1.318z" stroke-miterlimit="22.926" fill="none" stroke="#536b8b" stroke-width="2.76375" stroke-linecap="round" stroke-linejoin="round"/><path d="M706.568 317.134h58.204v36.106h-58.204v-36.106z" fill="#3d597a" fill-rule="evenodd"/><path d="M735.668 317.084h29.245c.338 0 .645.192.88.508l-18.842 18.85h-23.273l-18.134-18.85c.234-.316.543-.508.88-.508h29.245z" fill="#96a0bb" fill-rule="evenodd"/><path d="M735.668 317.084h29.245c.338 0 .645.192.88.508l-18.842 18.85h-23.273l-18.134-18.85c.234-.316.543-.508.88-.508h29.245z" stroke-miterlimit="22.926" fill="none" stroke="#536b8b" stroke-width="2.76375" stroke-linecap="round" stroke-linejoin="round"/><path d="M730.943 332.784h9.45v-3.012h-9.45v3.012z" fill="#fdd26a" fill-rule="evenodd"/><path d="M716.568 323.446c-3.314 12.43-3.6 29.85-3.6 29.85l5.726 10.02 5.725-10.02s-.286-17.42-3.6-29.85h1.373v-4.77h-1.016c1.406-1.255 2.714-2.575 3.69-3.596v-1.825h-12.344v1.825c.974 1.02 2.283 2.34 3.69 3.597h-1.02v4.77h1.375z" fill="#ef6e65" fill-rule="evenodd"/><path d="M716.568 323.446c-3.314 12.43-3.6 29.85-3.6 29.85l5.726 10.02 5.725-10.02s-.286-17.42-3.6-29.85h1.373v-4.77h-1.016c1.406-1.255 2.714-2.575 3.69-3.596v-1.825h-12.344v1.825c.974 1.02 2.283 2.34 3.69 3.597h-1.02v4.77h1.375z" stroke-miterlimit="22.926" fill="none" stroke="#536b8b" stroke-width="2.6574999999999998" stroke-linecap="round" stroke-linejoin="round"/><path d="M675.593 116.32v29.56c0 1.17-.96 2.13-2.13 2.13h-14.08c-1.17 0-2.126-.96-2.126-2.13v-29.56c0-1.17.957-2.126 2.127-2.126h14.08c1.172 0 2.13.957 2.13 2.127" fill="#c7d5f6" fill-rule="evenodd"/><path d="M675.593 116.32v29.56c0 1.17-.96 2.13-2.13 2.13h-14.08c-1.17 0-2.126-.96-2.126-2.13v-29.56c0-1.17.957-2.126 2.127-2.126h14.08c1.172 0 2.13.957 2.13 2.127z" stroke-miterlimit="22.926" fill="none" stroke="#536b8b" stroke-width="2.6574999999999998" stroke-linecap="round" stroke-linejoin="round"/><path d="M659.306 141.32h14.246v-21.273h-14.246v21.274zM666.43 145.096c.548 0 .994-.446.994-.995 0-.546-.446-.993-.993-.993-.547 0-.994.447-.994.994 0 .55.447.996.995.996M661.656 115.996h3.753c.267 0 .486.22.486.485 0 .27-.222.485-.487.485h-3.754c-.265 0-.485-.216-.485-.484 0-.265.22-.484.486-.484" fill="#536b8b" fill-rule="evenodd"/><path d="M661.293 125.546h9.965v1.564h-9.965v-1.564z" fill="#fdd26a" fill-rule="evenodd"/><path d="M661.293 129.42h5.684v1.565h-5.684v-1.564z" fill="#dbf9ff" fill-rule="evenodd"/><path d="M661.293 133.31h9.16v1.562h-9.16v-1.563zM661.293 137.196h4.568v1.565h-4.567v-1.564z" fill="#fff" fill-rule="evenodd"/><path d="M666.806 137.196h4.567v1.565h-4.567v-1.564z" fill="#ef6e65" fill-rule="evenodd"/><path d="M661.293 121.66h5.29v1.562h-5.29v-1.563z" fill="#fff" fill-rule="evenodd"/><path d="M611.48 117.746c.02-1.494-.012-2.63.472-3.487 1.652-2.938 5.44-2.68 9.214-2.68 3.773 0 7.56-.258 9.213 2.68.457.812.452 1.874.467 3.252v24.81h.01l-.006.448c-.02 1.494.013 2.627-.47 3.487-1.654 2.935-5.44 2.68-9.214 2.68s-7.562.255-9.214-2.68c-.484-.86-.45-1.993-.47-3.487l-.006-.45v-24.125l.005-.45z" fill="#536b8b" fill-rule="evenodd"/><path d="M613.58 118.196h15.18v24.108h-15.18v-24.108z" fill="#3eabcc" fill-rule="evenodd"/><path d="M618.78 113.984h4.914c.245 0 .447.2.447.445 0 .246-.202.447-.446.447h-4.913c-.244 0-.446-.2-.446-.448 0-.246.202-.446.447-.446M618.368 116.01h5.73v1.054h-5.74v-1.055h.01z" fill="#dbe9f6" fill-rule="evenodd"/><path d="M623.543 143.984h-4.755c-.027 0-.055.003-.08.008-.08.018-.155.058-.21.113-.045.045-.075.102-.075.16 0 .012 0 .025.004.04l.197.906c.027.122.077.232.15.307.055.055.125.088.212.088h4.36c.086 0 .156-.034.21-.088.073-.073.125-.185.15-.306l.198-.906c.003-.014.004-.027.004-.04 0-.057-.03-.113-.076-.16-.054-.054-.13-.094-.21-.112-.025-.005-.053-.008-.08-.008m-4.754-.347h4.755c.05 0 .104.007.154.015.144.033.28.107.38.207.11.107.177.25.177.405h.002c0 .036-.005.074-.013.11l-.197.91c-.04.182-.12.354-.244.476v.002l-.004.004c-.117.115-.267.186-.452.186h-4.36c-.187 0-.34-.072-.457-.19-.124-.123-.206-.295-.244-.477l-.198-.91c-.01-.036-.012-.074-.012-.11 0-.156.07-.298.178-.406.1-.1.237-.175.38-.208.05-.008.103-.015.154-.015" fill="#dbe9f6"/><path d="M614.93 145.184h1.06v-.777h-1.06v.777zM626.043 145.184h1.06v-.777h-1.06v.777z" fill="#dbe9f6" fill-rule="evenodd"/><path d="M617.293 121.66h5.29v1.562h-5.29v-1.563zM661.868 104.996v46.066c0 1.823-1.492 3.315-3.316 3.315h-30.97c-1.824 0-3.318-1.49-3.318-3.315v-46.066c0-1.824 1.493-3.315 3.317-3.315h30.972c1.824 0 3.316 1.494 3.316 3.316" fill="#fff" fill-rule="evenodd"/><path d="M661.868 104.996v46.066c0 1.823-1.492 3.315-3.316 3.315h-30.97c-1.824 0-3.318-1.49-3.318-3.315v-46.066c0-1.824 1.493-3.315 3.317-3.315h30.972c1.824 0 3.316 1.494 3.316 3.316z" stroke-miterlimit="22.926" fill="none" stroke="#536b8b" stroke-width="2.6574999999999998" stroke-linecap="round" stroke-linejoin="round"/><path d="M628.356 147.046h29.412v-39.35h-29.412v39.35zM643.068 151.484c.854 0 1.55-.697 1.55-1.55 0-.854-.696-1.55-1.55-1.55-.854 0-1.55.696-1.55 1.55 0 .853.696 1.55 1.55 1.55M640.143 104.484h5.85c.416 0 .756.338.756.755 0 .415-.343.755-.757.755h-5.85c-.414 0-.755-.34-.755-.756 0-.418.34-.756.755-.756" fill="#536b8b" fill-rule="evenodd"/><path d="M633.006 117.37h17.528v1.832h-17.528v-1.83z" fill="#dbf9ff" fill-rule="evenodd"/><path d="M633.006 121.92h9.998v1.832h-9.998v-1.83z" fill="#ef6e65" fill-rule="evenodd"/><path d="M633.006 126.46h16.11v1.83h-16.11v-1.83zM633.006 131.01h8.033v1.83h-8.034v-1.83zM633.006 135.546h8.143v1.833h-8.144v-1.834z" fill="#fff" fill-rule="evenodd"/><path d="M633.006 140.096h18.183v1.83h-18.184v-1.83z" fill="#dbf9ff" fill-rule="evenodd"/><path d="M642.706 131.01h8.033v1.83h-8.034v-1.83z" fill="#ef6e65" fill-rule="evenodd"/><path d="M633.006 112.834h9.302v1.83h-9.302v-1.83z" fill="#fff" fill-rule="evenodd"/><path d="M617.293 125.97h5.29v1.565h-5.29v-1.564z" fill="#536b8b" fill-rule="evenodd"/><path d="M617.293 130.284h5.29v1.565h-5.29v-1.566z" fill="#fff" fill-rule="evenodd"/><path d="M617.293 134.584h5.29v1.565h-5.29v-1.566z" fill="#fdd26a" fill-rule="evenodd"/><path d="M617.293 138.896h5.29v1.564h-5.29v-1.564z" fill="#fff" fill-rule="evenodd"/></svg>