<?xml version="1.0" encoding="UTF-8" standalone="no"?>
<svg id="svg2" xmlns:rdf="http://www.w3.org/1999/02/22-rdf-syntax-ns#" xmlns="http://www.w3.org/2000/svg" xml:space="preserve" height="620" width="795" version="1.1" xmlns:cc="http://creativecommons.org/ns#" viewBox="0 0 795 620" xmlns:dc="http://purl.org/dc/elements/1.1/"><metadata id="metadata8"><rdf:RDF><cc:Work rdf:about=""><dc:format>image/svg+xml</dc:format><dc:type rdf:resource="http://purl.org/dc/dcmitype/StillImage"/><dc:title/></cc:Work></rdf:RDF></metadata><defs id="defs6"><clipPath id="clipPath20" clipPathUnits="userSpaceOnUse"><path id="path22" d="m0 496h636v-496h-636v496z"/></clipPath><clipPath id="clipPath98" clipPathUnits="userSpaceOnUse"><path id="path100" d="m177.72 302.16h265.39v-165.99h-265.39v165.99z"/></clipPath></defs><g id="g10" transform="matrix(1.25,0,0,-1.25,0,620)"><g id="g12" transform="translate(310.42 318.39)"><path id="path14" stroke-linejoin="round" d="m0 0v76.084" stroke="#536b8b" stroke-linecap="round" stroke-miterlimit="22.926" stroke-dasharray="4.252, 4.252" stroke-width="2.126" fill="none"/></g><g id="g16"><g id="g18" clip-path="url(#clipPath20)"><g id="g24" transform="translate(111.95 351.87)"><path id="path26" d="m0 0c22.528 0 40.959 18.432 40.959 40.96s-18.431 40.96-40.959 40.96-40.96-18.432-40.96-40.96 18.432-40.96 40.96-40.96" fill-rule="evenodd" fill="#dbf9ff"/></g><g id="g28" transform="translate(111.95 351.87)"><path id="path30" stroke-linejoin="round" d="m0 0v0c22.528 0 40.959 18.432 40.959 40.96s-18.431 40.96-40.959 40.96-40.96-18.432-40.96-40.96 18.432-40.96 40.96-40.96z" stroke="#536b8b" stroke-linecap="round" stroke-miterlimit="22.926" stroke-width="2.126" fill="none"/></g><g id="g32" transform="translate(129.92 391.74)"><path id="path34" d="m0 0c-6.925 0-12.89-5.663-12.89-12.584v-2.056h25.78v2.056c0 6.921-5.966 12.584-12.89 12.584" fill-rule="evenodd" fill="#96a0bb"/></g><g id="g36" transform="translate(129.92 391.74)"><path id="path38" stroke-linejoin="round" d="m0 0c-6.925 0-12.89-5.663-12.89-12.584v-2.056h25.78v2.056c0 6.921-5.966 12.584-12.89 12.584z" stroke="#536b8b" stroke-linecap="round" stroke-miterlimit="22.926" stroke-width="2.126" fill="none"/></g><g id="g40" transform="translate(129.57 395.65)"><path id="path42" d="m0 0c-1.456 0-2.709-1.19-2.709-2.645v-2.025c0-1.347 0.78-2.627 2.709-2.808 1.929 0.181 2.709 1.461 2.709 2.808v2.025c0 1.455-1.253 2.645-2.709 2.645" fill-rule="evenodd" fill="#fff"/></g><g id="g44" transform="translate(129.57 395.65)"><path id="path46" stroke-linejoin="round" d="m0 0c-1.456 0-2.709-1.19-2.709-2.645v-2.025c0-1.347 0.78-2.627 2.709-2.808 1.929 0.181 2.709 1.461 2.709 2.808v2.025c0 1.455-1.253 2.645-2.709 2.645z" stroke="#536b8b" stroke-linecap="round" stroke-miterlimit="22.926" stroke-width="2.126" fill="none"/></g><g id="g48" transform="translate(129.57 408.55)"><path id="path50" d="m0 0c-3.196 0-5.948-2.614-5.948-5.808v-4.448c0-2.958 1.713-5.768 5.948-6.165 4.235 0.397 5.948 3.207 5.948 6.165v4.448c0 3.194-2.753 5.808-5.948 5.808" fill-rule="evenodd" fill="#fff"/></g><g id="g52" transform="translate(129.57 408.55)"><path id="path54" stroke-linejoin="round" d="m0 0c-3.196 0-5.948-2.614-5.948-5.808v-4.448c0-2.958 1.713-5.768 5.948-6.165 4.235 0.397 5.948 3.207 5.948 6.165v4.448c0 3.194-2.753 5.808-5.948 5.808z" stroke="#536b8b" stroke-linecap="round" stroke-miterlimit="22.926" stroke-width="2.126" fill="none"/></g><g id="g56" transform="translate(125.93 410.16)"><path id="path58" d="m0 0c-2.693-1.292-4.509-5.618-2.621-8.288 0.404 1.906 1.337 3.096 2.734 3.737 7.075 3.25 8.174-0.88 9.469-3.737l1.108 3.318c0.082 0.915-0.593 2.671-1.443 3.019 0 0-0.444 1.214-1.981 1.951-0.671 0.299-3.942 1.251-3.942 1.844-0.57 0.248-2.524-1.59-3.324-1.844" fill-rule="evenodd" fill="#fdd26a"/></g><g id="g60" transform="translate(125.93 410.16)"><path id="path62" stroke-linejoin="round" d="m0 0c-2.693-1.292-4.509-5.618-2.621-8.288 0.404 1.906 1.337 3.096 2.734 3.737 7.075 3.25 8.174-0.88 9.469-3.737l1.108 3.318c0.082 0.915-0.593 2.671-1.443 3.019 0 0-0.444 1.214-1.981 1.951-0.671 0.299-3.942 1.251-3.942 1.844-0.57 0.248-2.524-1.59-3.324-1.844z" stroke="#536b8b" stroke-linecap="round" stroke-miterlimit="22.926" stroke-width="2.126" fill="none"/></g><g id="g64" transform="translate(167.84 319.23)"><path id="path66" d="m0 0h285.14c4.158 0 7.561-3.407 7.561-7.562v-190.23h-300.27v190.23c0.008 4.16 3.411 7.562 7.57 7.562" fill-rule="evenodd" fill="#536b8b"/></g><g id="g68" transform="translate(167.84 319.23)"><path id="path70" stroke-linejoin="round" d="m0 0h285.14c4.158 0 7.561-3.407 7.561-7.562v-190.23h-300.27v190.23c0.008 4.16 3.411 7.562 7.57 7.562z" stroke="#536b8b" stroke-linecap="round" stroke-miterlimit="22.926" stroke-width="2.211" fill="none"/></g><path id="path72" d="m177.72 136.17h265.39v165.99h-265.39v-165.99z" fill-rule="evenodd" fill="#76c88d"/><g id="g74" transform="translate(310.33 308.73)"><path id="path76" d="m0 0c1.534 0 2.784 1.251 2.784 2.784 0 1.534-1.25 2.785-2.784 2.785s-2.785-1.251-2.785-2.785c0-1.533 1.251-2.784 2.785-2.784" fill-rule="evenodd" fill="#ecedf6"/></g><path id="path78" stroke-linejoin="round" d="m124.29 110.43h372.25v11.011h-372.25v-11.011z" fill-rule="evenodd" stroke="#536b8b" stroke-linecap="round" stroke-miterlimit="22.926" stroke-width="2.211" fill="#ecedf6"/><g id="g80" transform="translate(282.98 120.34)"><path id="path82" d="m0 0h54.864v-1.881c0-2.027-1.659-3.686-3.687-3.686h-47.49c-2.028 0-3.687 1.659-3.687 3.686v1.881z" fill-rule="evenodd" fill="#b8c8d4"/></g><g id="g84" transform="translate(137.63 104.29)"><path id="path86" d="m0 0h172.78 172.78c4.705 0.597 9.405 3.241 13.343 6.136h-186.12-186.12c3.935-2.895 8.636-5.539 13.34-6.136" fill-rule="evenodd" fill="#dbe9f6"/></g><g id="g88" transform="translate(137.63 104.29)"><path id="path90" stroke-linejoin="round" d="m0 0h172.78 172.78c4.705 0.597 9.405 3.241 13.343 6.136h-186.12-186.12c3.935-2.895 8.636-5.539 13.34-6.136z" stroke="#536b8b" stroke-linecap="round" stroke-miterlimit="22.926" stroke-width="2.211" fill="none"/></g><path id="path92" d="m234.23 183.61h151.53v-7.323h-151.53v7.323zm68.442 61.868h36.763v-7.323h-36.763v7.323zm48.088 0h36.137v-7.323h-36.137v7.323zm-116.53 0h24.549v-7.323h-24.549v7.323zm0-15.466h101.9v-7.323h-101.9v7.323zm70.477-30.935h26.84v-7.323h-26.84v7.323zm-70.477 0h61.697v-7.323h-61.697v7.323zm0 15.467h138.03v-7.322h-138.03v7.322zm0 46.401h137.89v-7.323h-137.89v7.323zm127.52-92.802 11.682 0.065v-7.323l-11.682-0.065v7.323zm-127.52 0 116.61 0.37v-7.324l-116.61-0.369v7.323z" fill-rule="evenodd" fill="#39b773"/><g id="g94"><g id="g102"><g id="g104" opacity="0.3" clip-path="url(#clipPath98)"><g id="g106" transform="translate(177.72 136.17)"><path id="path108" d="m0 0 265.39 165.99h-265.39v-165.99z" fill-rule="evenodd" fill="#fff"/></g></g></g></g><g id="g110" transform="translate(310.42 277.28)"><path id="path112" d="m0 0 25.167-14.529 25.166-14.53-27.871-16.091-11.231 6.485-11.231 6.483l-11.23-6.483-11.231-6.485v-12.968-12.968l11.231-6.484 11.23-6.484 11.231 6.484 11.231 6.484 27.871-16.091-25.166-14.529-25.167-14.53-25.166 14.53-25.166 14.529v29.059 29.059l25.166 14.53 25.166 14.529z" fill-rule="evenodd" fill="#a2baf0"/></g><g id="g114" transform="translate(310.42 277.28)"><path id="path116" stroke-linejoin="round" d="m0 0 25.167-14.529 25.166-14.53-27.871-16.091-11.231 6.485-11.231 6.483l-11.23-6.483-11.231-6.485v-12.968-12.968l11.231-6.484 11.23-6.484 11.231 6.484 11.231 6.484 27.871-16.091-25.166-14.529-25.167-14.53-25.166 14.53-25.166 14.529v29.059 29.059l25.166 14.53 25.166 14.529z" stroke="#536b8b" stroke-linecap="round" stroke-miterlimit="22.926" stroke-width="2.126" fill="none"/></g><g id="g118" transform="translate(310.42 193.23)"><path id="path120" d="m0 0 11.23 6.483 11.232 6.485 27.87-16.091-25.166-14.529-25.166-14.53v32.182z" fill-rule="evenodd" fill="#c7d5f6"/></g><g id="g122" transform="translate(310.42 193.23)"><path id="path124" stroke-linejoin="round" d="m0 0 11.23 6.483 11.232 6.485 27.87-16.091-25.166-14.529-25.166-14.53v32.182z" stroke="#536b8b" stroke-linecap="round" stroke-miterlimit="22.926" stroke-width="2.126" fill="none"/></g><g id="g126" transform="translate(310.42 161.05)"><path id="path128" d="m0 0-25.166 14.53-25.166 14.53v29.058 29.06l27.871-16.092v-12.968-12.968l11.231-6.484 11.23-6.483v-32.183z" fill-rule="evenodd" fill="#fff"/></g><g id="g130" transform="translate(310.42 161.05)"><path id="path132" stroke-linejoin="round" d="m0 0-25.166 14.53-25.166 14.53v29.058 29.06l27.871-16.092v-12.968-12.968l11.231-6.484 11.23-6.483v-32.183z" stroke="#536b8b" stroke-linecap="round" stroke-miterlimit="22.926" stroke-width="2.126" fill="none"/></g><g id="g134" transform="translate(76.351 104.45)"><path id="path136" stroke-linejoin="round" d="m0 0v48.486c0.184 13.572 8.293 13.417 17.217 13.417h66.715" stroke="#536b8b" stroke-linecap="round" stroke-miterlimit="22.926" stroke-dasharray="4.252, 4.252" stroke-width="2.126" fill="none"/></g><g id="g138" transform="translate(508.88 351.87)"><path id="path140" stroke-linejoin="round" d="m0 0v-48.486c-0.184-13.571-8.294-13.416-17.218-13.416h-31.115" stroke="#536b8b" stroke-linecap="round" stroke-miterlimit="22.926" stroke-dasharray="4.252, 4.252" stroke-width="2.126" fill="none"/></g><g id="g142" transform="translate(461.04 223.07)"><path id="path144" stroke-linejoin="round" d="m0 0h80.797" stroke="#536b8b" stroke-linecap="round" stroke-miterlimit="22.926" stroke-dasharray="4.252, 4.252" stroke-width="2.126" fill="none"/></g><g id="g146" transform="translate(544.48 104.45)"><path id="path148" stroke-linejoin="round" d="m0 0v48.486c-0.184 13.572-8.294 13.417-17.218 13.417h-66.715" stroke="#536b8b" stroke-linecap="round" stroke-miterlimit="22.926" stroke-dasharray="4.252, 4.252" stroke-width="2.126" fill="none"/></g><g id="g150" transform="translate(310.42 394.47)"><path id="path152" d="m0 0c-22.528 0-40.959 18.432-40.959 40.96s18.431 40.96 40.959 40.96 40.96-18.432 40.96-40.96-18.432-40.96-40.96-40.96" fill-rule="evenodd" fill="#dbf9ff"/></g><g id="g154" transform="translate(310.42 394.47)"><path id="path156" stroke-linejoin="round" d="m0 0v0c-22.528 0-40.959 18.432-40.959 40.96s18.431 40.96 40.959 40.96 40.96-18.432 40.96-40.96-18.432-40.96-40.96-40.96z" stroke="#536b8b" stroke-linecap="round" stroke-miterlimit="22.926" stroke-width="2.126" fill="none"/></g><g id="g158" transform="translate(508.88 351.87)"><path id="path160" d="m0 0c-22.528 0-40.959 18.432-40.959 40.96s18.431 40.96 40.959 40.96 40.959-18.432 40.959-40.96-18.431-40.96-40.959-40.96" fill-rule="evenodd" fill="#dbf9ff"/></g><g id="g162" transform="translate(508.88 351.87)"><path id="path164" stroke-linejoin="round" d="m0 0v0c-22.528 0-40.959 18.432-40.959 40.96s18.431 40.96 40.959 40.96 40.959-18.432 40.959-40.96-18.431-40.96-40.959-40.96z" stroke="#536b8b" stroke-linecap="round" stroke-miterlimit="22.926" stroke-width="2.126" fill="none"/></g><g id="g166" transform="translate(582.59 186.23)"><path id="path168" d="m0 0c-22.528 0-40.959 18.432-40.959 40.96 0 22.527 18.431 40.959 40.959 40.959s40.96-18.432 40.96-40.959c0-22.528-18.432-40.96-40.96-40.96" fill-rule="evenodd" fill="#dbf9ff"/></g><g id="g170" transform="translate(582.59 186.23)"><path id="path172" stroke-linejoin="round" d="m0 0v0c-22.528 0-40.959 18.432-40.959 40.96 0 22.527 18.431 40.959 40.959 40.959s40.96-18.432 40.96-40.959c0-22.528-18.432-40.96-40.96-40.96z" stroke="#536b8b" stroke-linecap="round" stroke-miterlimit="22.926" stroke-width="2.126" fill="none"/></g><g id="g174" transform="translate(111.95 351.87)"><path id="path176" stroke-linejoin="round" d="m0 0v-48.486c0.184-13.571 8.293-13.416 17.218-13.416h31.115" stroke="#536b8b" stroke-linecap="round" stroke-miterlimit="22.926" stroke-dasharray="4.252, 4.252" stroke-width="2.126" fill="none"/></g><g id="g178" transform="translate(160.28 223.07)"><path id="path180" stroke-linejoin="round" d="m0 0h-80.797" stroke="#536b8b" stroke-linecap="round" stroke-miterlimit="22.926" stroke-dasharray="4.252, 4.252" stroke-width="2.126" fill="none"/></g><g id="g182" transform="translate(38.734 186.23)"><path id="path184" d="m0 0c22.528 0 40.959 18.432 40.959 40.96 0 22.527-18.431 40.959-40.959 40.959s-40.96-18.432-40.96-40.959c0-22.528 18.432-40.96 40.96-40.96" fill-rule="evenodd" fill="#dbf9ff"/></g><g id="g186" transform="translate(38.734 186.23)"><path id="path188" stroke-linejoin="round" d="m0 0v0c22.528 0 40.959 18.432 40.959 40.96 0 22.527-18.431 40.959-40.959 40.959s-40.96-18.432-40.96-40.959c0-22.528 18.432-40.96 40.96-40.96z" stroke="#536b8b" stroke-linecap="round" stroke-miterlimit="22.926" stroke-width="2.126" fill="none"/></g><g id="g190" transform="translate(76.351 22.532)"><path id="path192" d="m0 0c22.528 0 40.959 18.432 40.959 40.96 0 22.527-18.431 40.959-40.959 40.959s-40.96-18.432-40.96-40.959c0-22.528 18.432-40.96 40.96-40.96" fill-rule="evenodd" fill="#dbf9ff"/></g><g id="g194" transform="translate(76.351 22.532)"><path id="path196" stroke-linejoin="round" d="m0 0v0c22.528 0 40.959 18.432 40.959 40.96 0 22.527-18.431 40.959-40.959 40.959s-40.96-18.432-40.96-40.959c0-22.528 18.432-40.96 40.96-40.96z" stroke="#536b8b" stroke-linecap="round" stroke-miterlimit="22.926" stroke-width="2.126" fill="none"/></g><g id="g198" transform="translate(544.48 22.532)"><path id="path200" d="m0 0c22.528 0 40.959 18.432 40.959 40.96 0 22.527-18.431 40.959-40.959 40.959s-40.959-18.432-40.959-40.959c0-22.528 18.431-40.96 40.959-40.96" fill-rule="evenodd" fill="#dbf9ff"/></g><g id="g202" transform="translate(544.48 22.532)"><path id="path204" stroke-linejoin="round" d="m0 0v0c22.528 0 40.959 18.432 40.959 40.96 0 22.527-18.431 40.959-40.959 40.959s-40.959-18.432-40.959-40.959c0-22.528 18.431-40.96 40.959-40.96z" stroke="#536b8b" stroke-linecap="round" stroke-miterlimit="22.926" stroke-width="2.126" fill="none"/></g><path id="path206" stroke-linejoin="round" d="m283.33 418.24h54.168v34.392h-54.168v-34.392z" fill-rule="evenodd" stroke="#536b8b" stroke-linecap="round" stroke-miterlimit="22.926" stroke-width="2.126" fill="#aec0e5"/><path id="path208" stroke-linejoin="round" d="m283.33 447.27h54.168v5.358h-54.168v-5.358z" fill-rule="evenodd" stroke="#536b8b" stroke-linecap="round" stroke-miterlimit="22.926" stroke-width="2.126" fill="#536b8b"/><g id="g210" transform="translate(287.32 448.57)"><path id="path212" d="m0 0c0.707 0 1.283 0.563 1.283 1.254 0 0.689-0.576 1.253-1.283 1.253s-1.283-0.564-1.283-1.253c0-0.691 0.576-1.254 1.283-1.254" fill-rule="evenodd" fill="#fdd26a"/></g><g id="g214" transform="translate(291.56 448.57)"><path id="path216" d="m0 0c0.707 0 1.283 0.563 1.283 1.254 0 0.689-0.576 1.253-1.283 1.253s-1.283-0.564-1.283-1.253c0-0.691 0.576-1.254 1.283-1.254" fill-rule="evenodd" fill="#f1877a"/></g><g id="g218" transform="translate(295.8 448.57)"><path id="path220" d="m0 0c0.707 0 1.283 0.563 1.283 1.254 0 0.689-0.576 1.253-1.283 1.253s-1.283-0.564-1.283-1.253c0-0.691 0.576-1.254 1.283-1.254" fill-rule="evenodd" fill="#23ccf0"/></g><path id="path222" d="m311.79 431.53h11.385v-1.9h-11.385v1.9z" fill-rule="evenodd" fill="#ef6e65"/><path id="path224" d="m293.51 431.53h16.004v-1.9h-16.004v1.9z" fill-rule="evenodd" fill="#fdd26a"/><path id="path226" d="m293.51 426.18h21.764v-1.899h-21.764v1.899z" fill-rule="evenodd" fill="#fff"/><path id="path228" d="m302.28 442.23h10.728v-1.9h-10.728v1.9z" fill-rule="evenodd" fill="#fff"/><path id="path230" d="m293.51 442.23h6.715v-1.9h-6.715v1.9z" fill-rule="evenodd" fill="#ef6e65"/><path id="path232" d="m293.51 436.88h24.256v-1.899h-24.256v1.899z" fill-rule="evenodd" fill="#fff"/><g id="g234" transform="translate(25.382 241.98)"><path id="path236" d="m0 0h26.705v-29.811c0-3.515-5.979-6.365-13.352-6.365-7.374 0-13.353 2.85-13.353 6.365v29.811z" fill-rule="evenodd" fill="#536b8b"/></g><g id="g238" transform="translate(25.382 241.98)"><path id="path240" stroke-linejoin="round" d="m0 0h26.705v-29.811c0-3.515-5.979-6.365-13.352-6.365-7.374 0-13.353 2.85-13.353 6.365v29.811z" stroke="#536b8b" stroke-linecap="round" stroke-miterlimit="22.926" stroke-width="2.126" fill="none"/></g><g id="g242" transform="translate(44.151 241.45)"><path id="path244" d="m0 0h7.524v-28.892c0-2.484-3.083-4.627-7.524-5.604v34.496z" fill-rule="evenodd" fill="#3d597a"/></g><g id="g246" transform="translate(25.794 241.45)"><path id="path248" d="m0 0h7.524v-34.496c-4.441 0.977-7.524 3.12-7.524 5.604v28.892z" fill-rule="evenodd" fill="#7b859f"/></g><g id="g250" transform="translate(38.734 248.58)"><path id="path252" d="m0 0 27.499-9.964-27.499-9.965-27.499 9.965 27.499 9.964z" fill-rule="evenodd" fill="#3d597a"/></g><g id="g254" transform="translate(58.06 226.34)"><path id="path256" d="m0 0v9.761c0 0.614-0.531 0.936-1.117 1.117l-17.092 5.274c-0.587 0.182-1.117-0.503-1.117-1.117v-1.599" stroke="#e8a541" stroke-miterlimit="22.926" stroke-width="2.126" fill="none"/></g><g id="g258" transform="translate(58.06 226.34)"><path id="path260" d="m0 0 1.656-7.518 1.655-7.516h-3.311-3.311l1.655 7.516 1.656 7.518z" fill-rule="evenodd" fill="#faa21b"/></g><g id="g262" transform="translate(58.061 222.7)"><path id="path264" d="m0 0c1.445 0 2.624 1.179 2.624 2.624s-1.179 2.624-2.624 2.624-2.624-1.179-2.624-2.624 1.179-2.624 2.624-2.624" fill-rule="evenodd" fill="#faa21b"/></g><g id="g266" transform="translate(57.798 223.63)"><path id="path268" d="m0 0c1.171 0 2.126 0.955 2.126 2.126s-0.955 2.126-2.126 2.126-2.126-0.955-2.126-2.126 0.955-2.126 2.126-2.126" fill-rule="evenodd" fill="#ffc20e"/></g><g id="g270" transform="translate(544.49 92.112)"><path id="path272" d="m0 0c1.604 0 2.917-1.312 2.917-2.918v-1.013h-5.835v1.013c0 1.606 1.313 2.918 2.918 2.918" fill-rule="evenodd" fill="#96a0bb"/></g><g id="g274" transform="translate(544.49 92.112)"><path id="path276" stroke-linejoin="round" d="m0 0v0c1.604 0 2.917-1.312 2.917-2.918v-1.013h-5.835v1.013c0 1.606 1.313 2.918 2.918 2.918z" stroke="#536b8b" stroke-linecap="round" stroke-miterlimit="22.926" stroke-width="2.211" fill="none"/></g><path id="path278" stroke-linejoin="round" d="m540.97 79.932h7.026v8.431h-7.026v-8.431z" fill-rule="evenodd" stroke="#536b8b" stroke-linecap="round" stroke-miterlimit="22.926" stroke-width="2.126" fill="#fdd26a"/><path id="path280" stroke-linejoin="round" d="m533.18 44.717h22.613v27.135h-22.613v-27.135z" fill-rule="evenodd" stroke="#536b8b" stroke-linecap="round" stroke-miterlimit="22.926" stroke-width="2.126" fill="#fdd26a"/><g id="g282" transform="translate(544.49 84.095)"><path id="path284" d="m0 0c4.943 0 8.987-4.044 8.987-8.987v-3.122h-17.974v3.122c0 4.943 4.044 8.987 8.987 8.987" fill-rule="evenodd" fill="#96a0bb"/></g><g id="g286" transform="translate(544.49 84.095)"><path id="path288" stroke-linejoin="round" d="m0 0v0c4.943 0 8.987-4.044 8.987-8.987v-3.122h-17.974v3.122c0 4.943 4.044 8.987 8.987 8.987z" stroke="#536b8b" stroke-linecap="round" stroke-miterlimit="22.926" stroke-width="2.211" fill="none"/></g><path id="path290" stroke-linejoin="round" d="m524.23 59.787h2.606v13.612h-2.606v-13.612z" fill-rule="evenodd" stroke="#536b8b" stroke-linecap="round" stroke-miterlimit="22.926" stroke-width="2.126" fill="#fdd26a"/><g id="g292" transform="translate(544.49 92.45)"><path id="path294" stroke-linejoin="round" d="m0 0v3.582" stroke="#536b8b" stroke-linecap="round" stroke-miterlimit="22.926" stroke-width="2.211" fill="none"/></g><path id="path296" stroke-linejoin="round" d="m530.74 44.717h27.496v16.424h-27.496v-16.424z" fill-rule="evenodd" stroke="#536b8b" stroke-linecap="round" stroke-miterlimit="22.926" stroke-width="2.126" fill="#fdd26a"/><path id="path298" stroke-linejoin="round" d="m523.4 45.762h4.276v22.337h-4.276v-22.337z" fill-rule="evenodd" stroke="#536b8b" stroke-linecap="round" stroke-miterlimit="22.926" stroke-width="2.126" fill="#fdd26a"/><path id="path300" stroke-linejoin="round" d="m522.94 45.762h5.2v15.189h-5.2v-15.189z" fill-rule="evenodd" stroke="#536b8b" stroke-linecap="round" stroke-miterlimit="22.926" stroke-width="2.126" fill="#fdd26a"/><path id="path302" stroke-linejoin="round" d="m516.79 59.787h2.606v13.612h-2.606v-13.612z" fill-rule="evenodd" stroke="#536b8b" stroke-linecap="round" stroke-miterlimit="22.926" stroke-width="2.126" fill="#fdd26a"/><path id="path304" stroke-linejoin="round" d="m515.95 45.762h4.276v22.337h-4.276v-22.337z" fill-rule="evenodd" stroke="#536b8b" stroke-linecap="round" stroke-miterlimit="22.926" stroke-width="2.126" fill="#fdd26a"/><path id="path306" stroke-linejoin="round" d="m515.49 45.762h5.2v15.189h-5.2v-15.189z" fill-rule="evenodd" stroke="#536b8b" stroke-linecap="round" stroke-miterlimit="22.926" stroke-width="2.126" fill="#fdd26a"/><path id="path308" stroke-linejoin="round" d="m514.2 44.717h16.542v9.76h-16.542v-9.76z" fill-rule="evenodd" stroke="#536b8b" stroke-linecap="round" stroke-miterlimit="22.926" stroke-width="2.126" fill="#fdd26a"/><g id="g310" transform="translate(530.74 56.856)"><path id="path312" stroke-linejoin="round" d="m0 0h27.496" stroke="#536b8b" stroke-linecap="round" stroke-miterlimit="22.926" stroke-width="2.126" fill="none"/></g><g id="g314" transform="translate(539.9 71.985)"><path id="path316" stroke-linejoin="round" d="m0 0v-10.845" stroke="#536b8b" stroke-linecap="round" stroke-miterlimit="22.926" stroke-width="2.126" fill="none"/></g><g id="g318" transform="translate(549.07 71.985)"><path id="path320" stroke-linejoin="round" d="m0 0v-10.845" stroke="#536b8b" stroke-linecap="round" stroke-miterlimit="22.926" stroke-width="2.126" fill="none"/></g><g id="g322" transform="translate(524.23 72.685)"><path id="path324" stroke-linejoin="round" d="m0 0v3.57m2.606-3.57v3.57" stroke="#536b8b" stroke-linecap="round" stroke-miterlimit="22.926" stroke-width="2.126" fill="none"/></g><g id="g326" transform="translate(516.79 72.685)"><path id="path328" stroke-linejoin="round" d="m0 0v3.57m2.606-3.57v3.57" stroke="#536b8b" stroke-linecap="round" stroke-miterlimit="22.926" stroke-width="2.126" fill="none"/></g><path id="path330" stroke-linejoin="round" d="m558.23 44.717h16.542v9.76h-16.542v-9.76z" fill-rule="evenodd" stroke="#536b8b" stroke-linecap="round" stroke-miterlimit="22.926" stroke-width="2.126" fill="#fdd26a"/><path id="path332" stroke-linejoin="round" d="m561.85 54.476h9.295v12.245h-9.295v-12.245z" fill-rule="evenodd" stroke="#536b8b" stroke-linecap="round" stroke-miterlimit="22.926" stroke-width="2.126" fill="#fdd26a"/><g id="g334" transform="translate(566.5 67.218)"><path id="path336" d="m0 0h-2.324l2.324 17.121 2.323-17.121h-2.323z" fill-rule="evenodd" fill="#fdd26a"/></g><g id="g338" transform="translate(566.5 67.218)"><path id="path340" stroke-linejoin="round" d="m0 0h-2.324l2.324 17.121 2.323-17.121h-2.323z" stroke="#536b8b" stroke-linecap="round" stroke-miterlimit="22.926" stroke-width="2.126" fill="none"/></g><g id="g342" transform="translate(561.85 64.888)"><path id="path344" stroke-linejoin="round" d="m0 0v7.109" stroke="#536b8b" stroke-linecap="round" stroke-miterlimit="22.926" stroke-width="2.126" fill="none"/></g><g id="g346" transform="translate(571.15 64.888)"><path id="path348" stroke-linejoin="round" d="m0 0v7.109" stroke="#536b8b" stroke-linecap="round" stroke-miterlimit="22.926" stroke-width="2.126" fill="none"/></g><g id="g350" transform="translate(544.49 54.287)"><path id="path352" d="m0 0c-2.001 0-3.638-1.637-3.638-3.638v-6.932h7.276v6.932c0 2-1.638 3.638-3.638 3.638" fill-rule="evenodd" fill="#3d597a"/></g><g id="g354" transform="translate(535.3 55.287)"><path id="path356" d="m0 0c-0.875 0-1.591-0.716-1.591-1.592v-6.196h3.182v6.196c0 0.876-0.716 1.592-1.591 1.592" fill-rule="evenodd" fill="#3d597a"/></g><g id="g358" transform="translate(553.67 55.287)"><path id="path360" d="m0 0c-0.875 0-1.591-0.716-1.591-1.592v-6.196h3.182v6.196c0 0.876-0.716 1.592-1.591 1.592" fill-rule="evenodd" fill="#3d597a"/></g><g id="g362" transform="translate(526.84 51.818)"><path id="path364" d="m0 0c-0.485 0-0.882-0.397-0.882-0.883v-3.436h1.765v3.436c0 0.486-0.397 0.883-0.883 0.883" fill-rule="evenodd" fill="#3d597a"/></g><g id="g366" transform="translate(522.18 51.818)"><path id="path368" d="m0 0c-0.485 0-0.882-0.397-0.882-0.883v-3.436h1.765v3.436c0 0.486-0.397 0.883-0.883 0.883" fill-rule="evenodd" fill="#3d597a"/></g><g id="g370" transform="translate(517.53 51.818)"><path id="path372" d="m0 0c-0.485 0-0.882-0.397-0.882-0.883v-3.436h1.765v3.436c0 0.486-0.398 0.883-0.883 0.883" fill-rule="evenodd" fill="#3d597a"/></g><path id="path374" d="m546.13 69.039h-3.285v-5.547h3.285v5.547z" fill-rule="evenodd" fill="#3d597a"/><path id="path376" d="m535.44 63.492h2.117v5.547h-2.117v-5.547z" fill-rule="evenodd" fill="#3d597a"/><path id="path378" d="m553.53 69.039h-2.117v-5.547h2.117v5.547z" fill-rule="evenodd" fill="#3d597a"/><g id="g380" transform="translate(561.57 51.818)"><path id="path382" d="m0 0c-0.485 0-0.882-0.397-0.882-0.883v-3.436h1.764v3.436c0 0.486-0.397 0.883-0.882 0.883" fill-rule="evenodd" fill="#3d597a"/></g><g id="g384" transform="translate(566.22 51.818)"><path id="path386" d="m0 0c-0.485 0-0.882-0.397-0.882-0.883v-3.436h1.764v3.436c0 0.486-0.397 0.883-0.882 0.883" fill-rule="evenodd" fill="#3d597a"/></g><g id="g388" transform="translate(570.87 51.818)"><path id="path390" d="m0 0c-0.485 0-0.882-0.397-0.882-0.883v-3.436h1.764v3.436c0 0.486-0.397 0.883-0.882 0.883" fill-rule="evenodd" fill="#3d597a"/></g><g id="g392" transform="translate(566.5 63.825)"><path id="path394" d="m0 0c-0.625 0-1.136-0.511-1.136-1.135v-4.422h2.271v4.422c0 0.624-0.511 1.135-1.135 1.135" fill-rule="evenodd" fill="#3d597a"/></g><path id="path396" d="m52.908 49.281h27.096v36.969h-27.096v-36.969z" fill-rule="evenodd" stroke="#536b8b" stroke-linecap="square" stroke-miterlimit="22.926" stroke-width="2.126" fill="#fff"/><path id="path398" d="m59.272 75.04h14.367v6.078h-14.367v-6.078z" fill-rule="evenodd" stroke="#536b8b" stroke-linecap="round" stroke-miterlimit="22.926" stroke-width="2.126" fill="#dbe3f6"/><g id="g400" transform="translate(66.456 70.361)"><path id="path402" d="m0 0 3.358-0.783 3.358-0.785v-1.57-1.569l-3.358-0.784-3.358-0.784-3.358 0.784-3.357 0.784v1.569 1.57l3.357 0.785 3.358 0.783z" fill-rule="evenodd" fill="#f1877a"/></g><g id="g404" transform="translate(66.456 70.361)"><path id="path406" d="m0 0 3.358-0.783 3.358-0.785v-1.57-1.569l-3.358-0.784-3.358-0.784-3.358 0.784-3.357 0.784v1.569 1.57l3.357 0.785 3.358 0.783z" stroke="#536b8b" stroke-linecap="round" stroke-miterlimit="22.926" stroke-width="2.126" fill="none"/></g><g id="g408" transform="translate(61.047 59.409)"><path id="path410" d="m0 0h10.817c1.374 0 2.498-1.124 2.498-2.499 0-1.373-1.124-2.498-2.498-2.498h-10.817c-1.374 0-2.498 1.125-2.498 2.498 0 1.375 1.124 2.499 2.498 2.499" fill-rule="evenodd" fill="#dbe3f6"/></g><g id="g412" transform="translate(61.047 59.409)"><path id="path414" d="m0 0h10.817c1.374 0 2.498-1.124 2.498-2.499 0-1.373-1.124-2.498-2.498-2.498h-10.817c-1.374 0-2.498 1.125-2.498 2.498 0 1.375 1.124 2.499 2.498 2.499z" stroke="#536b8b" stroke-linecap="round" stroke-miterlimit="22.926" stroke-width="2.126" fill="none"/></g><g id="g416" transform="translate(66.456 75.039)"><path id="path418" d="m0 0v-4.678" stroke="#536b8b" stroke-linecap="round" stroke-miterlimit="22.926" stroke-width="2.126" fill="none"/></g><g id="g420" transform="translate(66.456 63.751)"><path id="path422" d="m0 0v-4.342" stroke="#536b8b" stroke-linecap="round" stroke-miterlimit="22.926" stroke-width="2.126" fill="none"/></g><path id="path424" d="m72.697 40.735h27.096v36.968h-27.096v-36.968z" fill-rule="evenodd" stroke="#536b8b" stroke-linecap="square" stroke-miterlimit="22.926" stroke-width="2.126" fill="#536b8b"/><path id="path426" d="m78.112 70.117h16.267v2.245h-16.267v-2.245z" fill-rule="evenodd" fill="#fff"/><path id="path428" d="m78.112 64.716h5.6v2.244h-5.6v-2.244z" fill-rule="evenodd" fill="#fff"/><path id="path430" d="m86.525 64.716h5.6v2.244h-5.6v-2.244z" fill-rule="evenodd" fill="#f1877a"/><path id="path432" d="m78.112 59.313h16.267v2.245h-16.267v-2.245z" fill-rule="evenodd" fill="#fff"/><path id="path434" d="m78.112 53.912h11.167v2.245h-11.167v-2.245z" fill-rule="evenodd" fill="#fff"/><path id="path436" d="m78.112 48.511h16.267v2.244h-16.267v-2.244z" fill-rule="evenodd" fill="#f1877a"/><g id="g438" transform="translate(94.435 391.74)"><path id="path440" d="m0 0c-6.924 0-12.89-5.663-12.89-12.584v-2.056h25.78v2.056c0 6.921-5.966 12.584-12.89 12.584" fill-rule="evenodd" fill="#fdd26a"/></g><g id="g442" transform="translate(94.435 391.74)"><path id="path444" stroke-linejoin="round" d="m0 0c-6.924 0-12.89-5.663-12.89-12.584v-2.056h25.78v2.056c0 6.921-5.966 12.584-12.89 12.584z" stroke="#536b8b" stroke-linecap="round" stroke-miterlimit="22.926" stroke-width="2.126" fill="none"/></g><g id="g446" transform="translate(94.078 395.65)"><path id="path448" d="m0 0c-1.456 0-2.709-1.19-2.709-2.645v-2.025c0-1.347 0.78-2.627 2.709-2.808 1.929 0.181 2.709 1.461 2.709 2.808v2.025c0 1.455-1.253 2.645-2.709 2.645" fill-rule="evenodd" fill="#b3a8b3"/></g><g id="g450" transform="translate(94.078 395.65)"><path id="path452" stroke-linejoin="round" d="m0 0c-1.456 0-2.709-1.19-2.709-2.645v-2.025c0-1.347 0.78-2.627 2.709-2.808 1.929 0.181 2.709 1.461 2.709 2.808v2.025c0 1.455-1.253 2.645-2.709 2.645z" stroke="#536b8b" stroke-linecap="round" stroke-miterlimit="22.926" stroke-width="2.126" fill="none"/></g><g id="g454" transform="translate(94.078 408.55)"><path id="path456" d="m0 0c-3.196 0-5.948-2.614-5.948-5.808v-4.448c0-2.958 1.713-5.768 5.948-6.165 4.235 0.397 5.948 3.207 5.948 6.165v4.448c0 3.194-2.753 5.808-5.948 5.808" fill-rule="evenodd" fill="#b3a8b3"/></g><g id="g458" transform="translate(94.078 408.55)"><path id="path460" stroke-linejoin="round" d="m0 0c-3.196 0-5.948-2.614-5.948-5.808v-4.448c0-2.958 1.713-5.768 5.948-6.165 4.235 0.397 5.948 3.207 5.948 6.165v4.448c0 3.194-2.753 5.808-5.948 5.808z" stroke="#536b8b" stroke-linecap="round" stroke-miterlimit="22.926" stroke-width="2.126" fill="none"/></g><g id="g462" transform="translate(87.293 401.51)"><path id="path464" d="m0 0h0.868c0.02 1.022 0.825 1.812 1.179 2.793 0.098 0.27 0.538 1.438 1.128 1.709 0.965 0.443 0.914-0.843 3.356-1.101 0.089 0.01 0.173 0.021 0.254 0.033 0.081-0.012 0.166-0.023 0.254-0.033 2.442 0.258 2.391 1.362 3.357 0.918 0.59-0.27 1.03-1.256 1.127-1.526 0.354-0.981 1.16-1.771 1.18-2.793h0.867c3.986 11.816-17.555 11.816-13.57 0" fill-rule="evenodd" fill="#536b8b"/></g><g id="g466" transform="translate(112.47 394.44)"><path id="path468" d="m0 0c-8.203-0.001-15.27-6.71-15.27-14.909v-2.435h30.541v2.435c0 8.199-7.068 14.908-15.271 14.909" fill-rule="evenodd" fill="#ef6e65"/></g><g id="g470" transform="translate(112.47 394.44)"><path id="path472" stroke-linejoin="round" d="m0 0c-8.203-0.001-15.27-6.71-15.27-14.909v-2.435h30.541v2.435c0 8.199-7.068 14.908-15.271 14.909z" stroke="#536b8b" stroke-linecap="round" stroke-miterlimit="22.926" stroke-width="2.126" fill="none"/></g><g id="g474" transform="translate(112.04 399.08)"><path id="path476" d="m0 0c-1.724 0-3.209-1.41-3.209-3.133v-2.399c0-1.597 0.924-3.113 3.209-3.326 2.285 0.213 3.209 1.729 3.209 3.326v2.399c0 1.723-1.485 3.133-3.209 3.133" fill-rule="evenodd" fill="#fff"/></g><g id="g478" transform="translate(112.04 399.08)"><path id="path480" stroke-linejoin="round" d="m0 0c-1.724 0-3.209-1.41-3.209-3.133v-2.399c0-1.597 0.924-3.113 3.209-3.326 2.285 0.213 3.209 1.729 3.209 3.326v2.399c0 1.723-1.485 3.133-3.209 3.133z" stroke="#536b8b" stroke-linecap="round" stroke-miterlimit="22.926" stroke-width="2.126" fill="none"/></g><g id="g482" transform="translate(112.04 414.36)"><path id="path484" d="m0 0c-3.786 0-7.047-3.096-7.047-6.879v-5.269c0-3.505 2.03-6.834 7.047-7.304 5.018 0.47 7.047 3.799 7.047 7.304v5.269c0 3.783-3.261 6.879-7.047 6.879" fill-rule="evenodd" fill="#fff"/></g><g id="g486" transform="translate(112.04 414.36)"><path id="path488" stroke-linejoin="round" d="m0 0c-3.786 0-7.047-3.096-7.047-6.879v-5.269c0-3.505 2.03-6.834 7.047-7.304 5.018 0.47 7.047 3.799 7.047 7.304v5.269c0 3.783-3.261 6.879-7.047 6.879z" stroke="#536b8b" stroke-linecap="round" stroke-miterlimit="22.926" stroke-width="2.126" fill="none"/></g><g id="g490" transform="translate(107.43 416.54)"><path id="path492" d="m0 0c-1.951-0.936-0.932-3.024-0.932-3.024-4.294 0.291-3.68-5.682-2.396-7.498h1.055c0.024 1.243 1.003 2.204 1.434 3.395 0.118 0.328 0.265 1.021 0.983 1.35 1.173 0.539 1.5 0.179 4.468-0.133 2.969 0.312 2.541 1.351 4.206 0.775 0.746-0.258 1.127-1.664 1.245-1.992 0.431-1.191 1.41-2.152 1.435-3.395h1.281l0.792 4.212c0.572 6.39-9.259 8.374-13.571 6.31" fill-rule="evenodd" fill="#536b8b"/></g><g id="g494" transform="translate(577.75 243.29)"><path id="path496" d="m0 0c0-0.705-0.572-1.277-1.278-1.277-0.705 0-1.277 0.572-1.277 1.277v4.833c0 0.516 0.211 0.985 0.552 1.325l0.005 0.006c0.34 0.34 0.81 0.551 1.325 0.551h11.026c0.513 0 0.982-0.211 1.325-0.552v0.001l0.002-0.003 0.003-0.003 0.004-0.003c0.338-0.343 0.547-0.81 0.547-1.322v-4.833c0-0.705-0.571-1.277-1.277-1.277s-1.278 0.572-1.278 1.277v4.16h-9.679v-4.16z" fill="#2f415b"/></g><g id="g498" transform="translate(559.19 242.07)"><path id="path500" d="m0 0h46.792c0.58 0 1.055-0.475 1.055-1.055v-30.993c0-0.581-0.475-1.056-1.055-1.056h-46.792c-0.58 0-1.055 0.475-1.055 1.056v30.993c0 0.581 0.475 1.055 1.055 1.055" fill-rule="evenodd" fill="#2f415b"/></g><g id="g502" transform="translate(559.19 242.07)"><path id="path504" stroke-linejoin="round" d="m0 0h46.792c0.58 0 1.055-0.475 1.055-1.055v-30.993c0-0.581-0.475-1.056-1.055-1.056h-46.792c-0.58 0-1.055 0.475-1.055 1.056v30.993c0 0.581 0.475 1.055 1.055 1.055z" stroke="#536b8b" stroke-linecap="round" stroke-miterlimit="22.926" stroke-width="2.211" fill="none"/></g><path id="path506" d="m559.31 241.55h46.563v-28.885h-46.563v28.885z" fill-rule="evenodd" fill="#3d597a"/><g id="g508" transform="translate(582.59 241.59)"><path id="path510" d="m0 0h23.396c0.27 0 0.516-0.154 0.703-0.407l-15.073-15.079h-18.619l-14.507 15.079c0.187 0.253 0.434 0.407 0.704 0.407h23.396z" fill-rule="evenodd" fill="#96a0bb"/></g><g id="g512" transform="translate(582.59 241.59)"><path id="path514" stroke-linejoin="round" d="m0 0h23.396c0.27 0 0.516-0.154 0.703-0.407l-15.073-15.079h-18.619l-14.507 15.079c0.187 0.253 0.434 0.407 0.704 0.407h23.396z" stroke="#536b8b" stroke-linecap="round" stroke-miterlimit="22.926" stroke-width="2.211" fill="none"/></g><path id="path516" d="m578.81 229.03h7.559v2.409h-7.559v-2.409z" fill-rule="evenodd" fill="#fdd26a"/><g id="g518" transform="translate(567.31 236.5)"><path id="path520" d="m0 0c-2.651-9.945-2.879-23.881-2.879-23.881l4.58-8.014 4.58 8.014s-0.228 13.936-2.879 23.881h1.098v3.815h-0.813c1.125 1.005 2.171 2.061 2.951 2.878v1.46h-9.874v-1.46c0.779-0.817 1.826-1.873 2.951-2.878h-0.814v-3.815h1.099z" fill-rule="evenodd" fill="#ef6e65"/></g><g id="g522" transform="translate(567.31 236.5)"><path id="path524" stroke-linejoin="round" d="m0 0c-2.651-9.945-2.879-23.881-2.879-23.881l4.58-8.014 4.58 8.014s-0.228 13.936-2.879 23.881h1.098v3.815h-0.813c1.125 1.005 2.171 2.061 2.951 2.878v1.46h-9.874v-1.46c0.779-0.817 1.826-1.873 2.951-2.878h-0.814v-3.815h1.099z" stroke="#536b8b" stroke-linecap="round" stroke-miterlimit="22.926" stroke-width="2.126" fill="none"/></g><g id="g526" transform="translate(534.53 402.2)"><path id="path528" d="m0 0v-23.648c0-0.936-0.767-1.703-1.703-1.703h-11.264c-0.936 0-1.702 0.767-1.702 1.703v23.648c0 0.936 0.766 1.702 1.702 1.702h11.264c0.937 0 1.703-0.766 1.703-1.702" fill-rule="evenodd" fill="#c7d5f6"/></g><g id="g530" transform="translate(534.53 402.2)"><path id="path532" stroke-linejoin="round" d="m0 0v-23.648c0-0.936-0.767-1.703-1.703-1.703h-11.264c-0.936 0-1.702 0.767-1.702 1.703v23.648c0 0.936 0.766 1.702 1.702 1.702h11.264c0.937 0 1.703-0.766 1.703-1.702z" stroke="#536b8b" stroke-linecap="round" stroke-miterlimit="22.926" stroke-width="2.126" fill="none"/></g><path id="path534" d="m521.5 382.2h11.397v17.019h-11.397v-17.019z" fill-rule="evenodd" fill="#536b8b"/><g id="g536" transform="translate(527.2 379.18)"><path id="path538" d="m0 0c0.438 0 0.795 0.357 0.795 0.796 0 0.438-0.357 0.795-0.795 0.795s-0.796-0.357-0.796-0.795c0-0.439 0.358-0.796 0.796-0.796" fill-rule="evenodd" fill="#536b8b"/></g><g id="g540" transform="translate(523.38 402.46)"><path id="path542" d="m0 0h3.003c0.214 0 0.389-0.175 0.389-0.388 0-0.214-0.177-0.387-0.389-0.387h-3.003c-0.212 0-0.388 0.173-0.388 0.387 0 0.213 0.175 0.388 0.388 0.388" fill-rule="evenodd" fill="#536b8b"/></g><path id="path544" d="m523.09 394.82h7.972v-1.251h-7.972v1.251z" fill-rule="evenodd" fill="#fdd26a"/><path id="path546" d="m523.09 391.72h4.547v-1.251h-4.547v1.251z" fill-rule="evenodd" fill="#dbf9ff"/><path id="path548" d="m523.09 388.61h7.327v-1.251h-7.327v1.251z" fill-rule="evenodd" fill="#fff"/><path id="path550" d="m523.09 385.5h3.654v-1.252h-3.654v1.252z" fill-rule="evenodd" fill="#fff"/><path id="path552" d="m527.5 385.5h3.654v-1.252h-3.654v1.252z" fill-rule="evenodd" fill="#ef6e65"/><path id="path554" d="m523.09 397.93h4.231v-1.251h-4.231v1.251z" fill-rule="evenodd" fill="#fff"/><g id="g556" transform="translate(483.24 401.06)"><path id="path558" d="m0 0c0.016 1.195-0.01 2.103 0.377 2.79 1.322 2.349 4.352 2.144 7.371 2.144s6.048 0.205 7.371-2.144c0.366-0.651 0.362-1.5 0.374-2.603v-19.848h0.007l-0.004-0.358c-0.016-1.195 0.01-2.102-0.377-2.79-1.323-2.348-4.352-2.143-7.371-2.143s-6.049-0.205-7.371 2.143c-0.387 0.688-0.361 1.595-0.377 2.79l-0.004 0.36v19.3l0.004 0.359z" fill-rule="evenodd" fill="#536b8b"/></g><path id="path560" d="m484.92 400.7h12.143v-19.286h-12.143v19.286z" fill-rule="evenodd" fill="#3eabcc"/><g id="g562" transform="translate(489.08 404.07)"><path id="path564" d="m0 0h3.931c0.196 0 0.357-0.16 0.357-0.356 0-0.198-0.162-0.359-0.357-0.359h-3.931c-0.196 0-0.357 0.161-0.357 0.359 0 0.196 0.161 0.356 0.357 0.356" fill-rule="evenodd" fill="#dbe9f6"/></g><g id="g566" transform="translate(488.75 402.45)"><path id="path568" d="m0 0h4.584v-0.844h-4.584-0.007v0.844h0.007z" fill-rule="evenodd" fill="#dbe9f6"/></g><g id="g570" transform="translate(492.89 380.07)"><path id="path572" d="m0 0h-3.804c-0.022 0-0.044-0.003-0.065-0.007-0.063-0.014-0.123-0.046-0.166-0.09-0.037-0.036-0.061-0.082-0.061-0.128 0-0.01 0.001-0.02 0.003-0.031l0.158-0.726c0.021-0.097 0.061-0.185 0.12-0.245 0.044-0.044 0.1-0.07 0.169-0.07h3.488c0.069 0 0.125 0.027 0.169 0.07 0.058 0.059 0.099 0.148 0.119 0.245l0.159 0.726c0.002 0.011 0.003 0.021 0.003 0.031 0 0.046-0.024 0.091-0.061 0.128-0.043 0.044-0.103 0.076-0.167 0.09-0.021 0.004-0.043 0.007-0.064 0.007m-3.804 0.277h3.804c0.041 0 0.083-0.005 0.123-0.012 0.115-0.026 0.224-0.085 0.304-0.165 0.087-0.087 0.142-0.2 0.142-0.325h0.001c0-0.029-0.004-0.059-0.01-0.089l-0.158-0.727c-0.031-0.146-0.096-0.283-0.195-0.381v-0.001l-0.003-0.003c-0.094-0.092-0.214-0.149-0.362-0.149h-3.488c-0.149 0-0.271 0.058-0.365 0.152-0.099 0.099-0.164 0.236-0.195 0.382l-0.158 0.727c-0.007 0.03-0.01 0.06-0.01 0.089 0 0.125 0.056 0.238 0.143 0.325 0.08 0.08 0.189 0.139 0.304 0.165 0.04 0.007 0.082 0.012 0.123 0.012" fill="#dbe9f6"/></g><path id="path574" d="m486 379.11h0.848v0.621h-0.848v-0.621z" fill-rule="evenodd" fill="#dbe9f6"/><path id="path576" d="m494.89 379.11h0.848v0.621h-0.848v-0.621z" fill-rule="evenodd" fill="#dbe9f6"/><path id="path578" d="m487.89 397.93h4.231v-1.251h-4.231v1.251z" fill-rule="evenodd" fill="#fff"/><g id="g580" transform="translate(523.55 411.26)"><path id="path582" d="m0 0v-36.853c0-1.458-1.194-2.652-2.653-2.652h-24.777c-1.458 0-2.653 1.193-2.653 2.652v36.853c0 1.459 1.194 2.652 2.653 2.652h24.777c1.459 0 2.653-1.194 2.653-2.652" fill-rule="evenodd" fill="#fff"/></g><g id="g584" transform="translate(523.55 411.26)"><path id="path586" stroke-linejoin="round" d="m0 0v-36.853c0-1.458-1.194-2.652-2.653-2.652h-24.777c-1.458 0-2.653 1.193-2.653 2.652v36.853c0 1.459 1.194 2.652 2.653 2.652h24.777c1.459 0 2.653-1.194 2.653-2.652z" stroke="#536b8b" stroke-linecap="round" stroke-miterlimit="22.926" stroke-width="2.126" fill="none"/></g><path id="path588" d="m496.74 377.62h23.53v31.481h-23.53v-31.481z" fill-rule="evenodd" fill="#536b8b"/><g id="g590" transform="translate(508.51 374.07)"><path id="path592" d="m0 0c0.683 0 1.24 0.557 1.24 1.24s-0.557 1.239-1.24 1.239-1.239-0.556-1.239-1.239 0.556-1.24 1.239-1.24" fill-rule="evenodd" fill="#536b8b"/></g><g id="g594" transform="translate(506.17 411.67)"><path id="path596" d="m0 0h4.68c0.333 0 0.605-0.271 0.605-0.604s-0.274-0.605-0.605-0.605h-4.68c-0.331 0-0.604 0.272-0.604 0.605s0.271 0.604 0.604 0.604" fill-rule="evenodd" fill="#536b8b"/></g><path id="path598" d="m500.46 401.36h14.023v-1.465h-14.023v1.465z" fill-rule="evenodd" fill="#dbf9ff"/><path id="path600" d="m500.46 397.72h7.999v-1.465h-7.999v1.465z" fill-rule="evenodd" fill="#ef6e65"/><path id="path602" d="m500.46 394.09h12.888v-1.466h-12.888v1.466z" fill-rule="evenodd" fill="#fff"/><path id="path604" d="m500.46 390.45h6.427v-1.465h-6.427v1.465z" fill-rule="evenodd" fill="#fff"/><path id="path606" d="m500.46 386.82h6.515v-1.466h-6.515v1.466z" fill-rule="evenodd" fill="#fff"/><path id="path608" d="m500.46 383.18h14.547v-1.465h-14.547v1.465z" fill-rule="evenodd" fill="#dbf9ff"/><path id="path610" d="m508.22 390.45h6.427v-1.465h-6.427v1.465z" fill-rule="evenodd" fill="#ef6e65"/><path id="path612" d="m500.46 404.99h7.442v-1.465h-7.442v1.465z" fill-rule="evenodd" fill="#fff"/><path id="path614" d="m487.89 394.48h4.231v-1.251h-4.231v1.251z" fill-rule="evenodd" fill="#536b8b"/><path id="path616" d="m487.89 391.03h4.231v-1.252h-4.231v1.252z" fill-rule="evenodd" fill="#fff"/><path id="path618" d="m487.89 387.59h4.231v-1.252h-4.231v1.252z" fill-rule="evenodd" fill="#fdd26a"/><path id="path620" d="m487.89 384.14h4.231v-1.251h-4.231v1.251z" fill-rule="evenodd" fill="#fff"/></g></g></g></svg>
