<?xml version="1.0" encoding="utf-8"?>
<!-- Generator: Adobe Illustrator 16.0.0, SVG Export Plug-In . SVG Version: 6.00 Build 0)  -->
<!DOCTYPE svg PUBLIC "-//W3C//DTD SVG 1.1//EN" "http://www.w3.org/Graphics/SVG/1.1/DTD/svg11.dtd">
<svg version="1.1" id="Layer_1" xmlns="http://www.w3.org/2000/svg" xmlns:xlink="http://www.w3.org/1999/xlink" x="0px" y="0px"
	 width="88px" height="88px" viewBox="0 0 88 88" enable-background="new 0 0 88 88" xml:space="preserve">
<g>
	
		<path fill-rule="evenodd" clip-rule="evenodd" fill="#DBF9FF" stroke="#536B8B" stroke-width="2.126" stroke-linecap="round" stroke-linejoin="round" stroke-miterlimit="22.9256" d="
		M44,0.782L44,0.782c23.77,0,43.219,19.448,43.219,43.218l0,0c0,23.77-19.449,43.219-43.219,43.219l0,0
		C20.229,87.219,0.782,67.77,0.782,44l0,0C0.782,20.229,20.229,0.782,44,0.782z"/>
	
		<path fill-rule="evenodd" clip-rule="evenodd" fill="#FFFFFF" stroke="#536B8B" stroke-width="2.126" stroke-linecap="round" stroke-linejoin="round" stroke-miterlimit="22.9256" d="
		M40.144,13.361c7.412,0,13.684,4.884,15.776,11.608c0.896-0.252,1.844-0.388,2.82-0.388c5.27,0,9.623,3.925,10.299,9.01
		c0.301-0.04,0.609-0.061,0.922-0.061c3.893,0,7.049,3.157,7.049,7.05c0,3.893-3.156,7.05-7.049,7.05L69.93,47.63H25.414h-5.192
		h-0.058l0-0.001c-2.829-0.031-5.134-2.355-5.134-5.191V41.81v-4.565v-0.397c-0.047-0.377-0.071-0.76-0.071-1.15
		c0-5.015,4.02-9.091,9.012-9.185C25.525,19.005,32.177,13.361,40.144,13.361z"/>
	
		<path fill-rule="evenodd" clip-rule="evenodd" fill="#EF6E65" stroke="#536B8B" stroke-width="2.126" stroke-linecap="round" stroke-linejoin="round" stroke-miterlimit="22.9256" d="
		M38.734,28.103h8.567c0.685,0,1.244,0.561,1.244,1.245v3.942c0,0.685-0.561,1.245-1.244,1.245h-8.567
		c-0.685,0-1.245-0.56-1.245-1.245v-3.942C37.489,28.664,38.049,28.103,38.734,28.103z"/>
	
		<line fill-rule="evenodd" clip-rule="evenodd" fill="none" stroke="#536B8B" stroke-width="2.126" stroke-linecap="round" stroke-linejoin="round" stroke-miterlimit="22.9256" x1="43.017" y1="41.355" x2="43.017" y2="61.379"/>
	
		<path fill-rule="evenodd" clip-rule="evenodd" fill="none" stroke="#536B8B" stroke-width="2.126" stroke-linecap="round" stroke-linejoin="round" stroke-miterlimit="22.9256" d="
		M26.083,61.438v-5.563c0-1.256,1.028-2.285,2.285-2.285h29.297c1.256,0,2.285,1.029,2.285,2.285v5.563"/>
	
		<line fill-rule="evenodd" clip-rule="evenodd" fill="none" stroke="#536B8B" stroke-width="2.126" stroke-linejoin="round" stroke-miterlimit="22.9256" x1="43.017" y1="34.536" x2="43.017" y2="37.454"/>
	
		<line fill-rule="evenodd" clip-rule="evenodd" fill="none" stroke="#536B8B" stroke-width="2.126" stroke-linejoin="round" stroke-miterlimit="22.9256" x1="45.781" y1="38.184" x2="40.254" y2="38.184"/>
	
		<path fill-rule="evenodd" clip-rule="evenodd" fill="#00A9D4" stroke="#536B8B" stroke-width="2.126" stroke-linecap="round" stroke-linejoin="round" stroke-miterlimit="22.9256" d="
		M38.734,64.559h8.567c0.685,0,1.244,0.561,1.244,1.244v3.941c0,0.686-0.561,1.246-1.244,1.246h-8.567
		c-0.685,0-1.245-0.561-1.245-1.246v-3.941C37.489,65.117,38.049,64.559,38.734,64.559z"/>
	
		<line fill-rule="evenodd" clip-rule="evenodd" fill="none" stroke="#536B8B" stroke-width="2.126" stroke-linejoin="round" stroke-miterlimit="22.9256" x1="43.017" y1="70.99" x2="43.017" y2="73.908"/>
	
		<line fill-rule="evenodd" clip-rule="evenodd" fill="none" stroke="#536B8B" stroke-width="2.126" stroke-linejoin="round" stroke-miterlimit="22.9256" x1="45.781" y1="74.639" x2="40.254" y2="74.639"/>
	
		<path fill-rule="evenodd" clip-rule="evenodd" fill="#FDD26A" stroke="#536B8B" stroke-width="2.126" stroke-linecap="round" stroke-linejoin="round" stroke-miterlimit="22.9256" d="
		M21.531,64.559h8.566c0.685,0,1.245,0.561,1.245,1.244v3.941c0,0.686-0.56,1.246-1.245,1.246h-8.566
		c-0.685,0-1.245-0.561-1.245-1.246v-3.941C20.286,65.117,20.846,64.559,21.531,64.559z"/>
	
		<line fill-rule="evenodd" clip-rule="evenodd" fill="none" stroke="#536B8B" stroke-width="2.126" stroke-linejoin="round" stroke-miterlimit="22.9256" x1="25.814" y1="70.99" x2="25.814" y2="73.908"/>
	
		<line fill-rule="evenodd" clip-rule="evenodd" fill="none" stroke="#536B8B" stroke-width="2.126" stroke-linejoin="round" stroke-miterlimit="22.9256" x1="28.578" y1="74.639" x2="23.051" y2="74.639"/>
	
		<path fill-rule="evenodd" clip-rule="evenodd" fill="#A2BAF0" stroke="#536B8B" stroke-width="2.126" stroke-linecap="round" stroke-linejoin="round" stroke-miterlimit="22.9256" d="
		M56.018,64.559h8.566c0.686,0,1.246,0.561,1.246,1.244v3.941c0,0.686-0.561,1.246-1.246,1.246h-8.566
		c-0.685,0-1.245-0.561-1.245-1.246v-3.941C54.772,65.117,55.333,64.559,56.018,64.559z"/>
	
		<line fill-rule="evenodd" clip-rule="evenodd" fill="none" stroke="#536B8B" stroke-width="2.126" stroke-linejoin="round" stroke-miterlimit="22.9256" x1="60.301" y1="70.99" x2="60.301" y2="73.908"/>
	
		<line fill-rule="evenodd" clip-rule="evenodd" fill="none" stroke="#536B8B" stroke-width="2.126" stroke-linejoin="round" stroke-miterlimit="22.9256" x1="63.064" y1="74.639" x2="57.537" y2="74.639"/>
	
		<path fill-rule="evenodd" clip-rule="evenodd" fill="none" stroke="#536B8B" stroke-width="2.126" stroke-linecap="round" stroke-linejoin="round" stroke-miterlimit="22.9256" d="
		M20.423,36.503c0-1.899,0.729-3.627,1.921-4.922 M24.935,29.776c0.81-0.333,1.693-0.523,2.619-0.541
		c0.722-3.48,2.828-6.456,5.716-8.322 M36.529,19.397c1.209-0.369,2.493-0.568,3.823-0.568"/>
</g>
</svg>
