<svg id="svg2" xmlns="http://www.w3.org/2000/svg" height="1350" viewBox="0 0 2400 1350" width="2400" version="1.1"><defs id="defs6"><clipPath id="clipPath18" clipPathUnits="userSpaceOnUse"><path id="path20" d="m0 1080h1920v-1080h-1920v1080z"/></clipPath></defs><g id="g10" transform="matrix(1.25,0,0,-1.25,0,1350)"><path id="path12" d="m0 0h1920v1080h-1920v-1080z" fill="#dbf9ff"/><g id="g14"><g id="g16" clip-path="url(#clipPath18)"><g id="g22" transform="translate(525.29 374.65)"><path id="path24" d="m0 0h-268.33c-32.785 0-59.362 26.577-59.362 59.362v263.68c0 32.785 26.577 59.362 59.362 59.362h268.33c32.785 0 59.362-26.577 59.362-59.362v-263.68c0-32.783-26.577-59.36-59.362-59.36" fill="#f7973b"/></g><g id="g26" transform="translate(525.29 374.65)"><path id="path28" d="m0 0h-268.33c-32.785 0-59.362 26.577-59.362 59.362v263.68c0 32.785 26.577 59.362 59.362 59.362h268.33c32.785 0 59.362-26.577 59.362-59.362v-263.68c0-32.783-26.577-59.36-59.362-59.36z" stroke="#465f81" stroke-miterlimit="10" stroke-width="5" fill="none"/></g><g id="g30" transform="translate(439.5 600.41)"><path id="path32" d="m0 0c-18.637 0-35.609-7.09-48.38-18.711-12.775 11.624-29.751 18.711-48.384 18.711-39.868 0-72.127-32.434-71.911-72.302l0.539-99.361h47.451v101c0 12.818 10.391 23.21 23.21 23.21h1.962c12.819 0 23.21-10.392 23.21-23.21v-101h0.93 46.521 0.931v101c0 12.818 10.391 23.21 23.209 23.21h1.963c12.818 0 23.21-10.392 23.21-23.21v-101h47.451v99.751c0.005 39.716-32.191 71.912-71.907 71.912" fill="#fff"/></g><g id="g34" transform="translate(439.5 600.41)"><path id="path36" stroke-linejoin="round" d="m0 0v0c-18.637 0-35.609-7.09-48.38-18.711-12.775 11.624-29.751 18.711-48.384 18.711v0c-39.868 0-72.127-32.434-71.911-72.302l0.539-99.361h47.451v101c0 12.818 10.391 23.21 23.21 23.21h1.962c12.819 0 23.21-10.392 23.21-23.21v-101h0.93 46.521 0.931v101c0 12.818 10.391 23.21 23.209 23.21h1.963c12.818 0 23.21-10.392 23.21-23.21v-101h47.451v99.751c0.005 39.716-32.191 71.912-71.907 71.912z" stroke="#465f81" stroke-linecap="round" stroke-miterlimit="10" stroke-width="5" fill="none"/></g><path id="path38" stroke-linejoin="round" d="m451.91 630.38h-121.58v60.571h121.58v-60.571z" stroke="#465f81" stroke-linecap="round" stroke-miterlimit="10" stroke-width="5" fill="#465f81"/><g id="g40" transform="translate(506.79 691.95)"><path id="path42" d="m0 0h-231.33c-4.419 0-8 3.582-8 8s3.581 8 8 8h231.33c4.418 0 8-3.582 8-8s-3.582-8-8-8" fill="#697e9d"/></g><g id="g44" transform="translate(506.79 691.95)"><path id="path46" stroke-linejoin="round" d="m0 0h-231.33c-4.419 0-8 3.582-8 8v0c0 4.418 3.581 8 8 8h231.33c4.418 0 8-3.582 8-8v0c0-4.418-3.582-8-8-8z" stroke="#465f81" stroke-linecap="round" stroke-miterlimit="10" stroke-width="5" fill="none"/></g><g id="g48" transform="translate(278.67 622.62)"><path id="path50" stroke-linejoin="round" d="m0 0v69.333" stroke="#465f81" stroke-linecap="round" stroke-miterlimit="10" stroke-width="5" fill="#697e9d"/></g><g id="g52" transform="translate(278.67 606.51)"><path id="path54" d="m0 0-10.994 10.994 10.994 10.994 10.994-10.994-10.994-10.994z" fill="#697e9d"/></g><g id="g56" transform="translate(278.67 606.51)"><path id="path58" stroke-linejoin="round" d="m0 0-10.994 10.994 10.994 10.994 10.994-10.994-10.994-10.994z" stroke="#465f81" stroke-linecap="round" stroke-miterlimit="10" stroke-width="5" fill="none"/></g><g id="g60" transform="translate(439.5,680)"><path id="path62" stroke-linejoin="round" d="m0 0v-38" stroke="#fff" stroke-linecap="round" stroke-miterlimit="10" stroke-width="5" fill="#697e9d"/></g><g id="g64" transform="translate(1715.4 394.32)"><path id="path66" d="m0 0h-413.08c-17.169 0-31.087 13.918-31.087 31.087v268.33c0 17.169 13.918 31.087 31.087 31.087h413.08c17.169 0 31.087-13.918 31.087-31.087v-268.33c0-17.172-13.918-31.09-31.087-31.09" fill="#f6c737"/></g><g id="g68" transform="translate(1715.4 394.32)"><path id="path70" d="m0 0h-413.08c-17.169 0-31.087 13.918-31.087 31.087v268.33c0 17.169 13.918 31.087 31.087 31.087h413.08c17.169 0 31.087-13.918 31.087-31.087v-268.33c0-17.172-13.918-31.09-31.087-31.09z" stroke="#465f81" stroke-miterlimit="10" stroke-width="5" fill="none"/></g><g id="g72" transform="translate(1704.9 422.98)"><path id="path74" d="m0 0h-392.02c-4.708 0-8.524 3.816-8.524 8.524v256.15c0 4.708 3.816 8.524 8.524 8.524l392.02 0.01c4.708 0 8.524-3.816 8.524-8.524v-256.15c0-4.714-3.816-8.53-8.524-8.53" fill="#465f81"/></g><g id="g76" transform="translate(1704.9 422.98)"><path id="path78" stroke-linejoin="round" d="m0 0h-392.02c-4.708 0-8.524 3.816-8.524 8.524v256.15c0 4.708 3.816 8.524 8.524 8.524l392.02 0.01c4.708 0 8.524-3.816 8.524-8.524v-256.15c0-4.714-3.816-8.53-8.524-8.53z" stroke="#465f81" stroke-linecap="round" stroke-miterlimit="10" stroke-width="5" fill="none"/></g><g id="g80" transform="translate(1321.9 674)"><path id="path82" stroke-linejoin="round" d="m0 0h373.85" stroke="#fff" stroke-linecap="round" stroke-miterlimit="10" stroke-width="5" fill="#465f81"/></g><g id="g84" transform="translate(1321.9 443.38)"><path id="path86" stroke-linejoin="round" d="m0 0h373.85" stroke="#fff" stroke-linecap="round" stroke-miterlimit="10" stroke-width="5" fill="#465f81"/></g><g id="g88" transform="translate(1337.4 561.58)"><path id="path90" stroke-linejoin="round" d="m0 0h342.85" stroke="#fff" stroke-linecap="round" stroke-miterlimit="22.926" stroke-dasharray="14, 10" stroke-width="5" fill="none"/></g><g id="g92" transform="translate(1444.7 482.2)"><path id="path94" d="m0 0c10.878 0 19.426 3.237 25.642 9.713 6.215 6.475 9.324 15.063 9.324 25.771 0 6.56-1.036 11.955-3.109 16.188-2.071 4.229-4.92 7.597-8.546 10.101-3.626 2.501-7.945 4.229-12.951 5.181-5.01 0.947-10.45 1.424-16.318 1.424h-13.728v-66.565c2.417-0.518 4.962-0.951 7.642-1.295 2.675-0.348 6.69-0.518 12.044-0.518m-11.396 85.214c2.933 0 5.868 0.129 8.805 0.389 2.935 0.258 5.698 0.558 8.289 0.906 6.734 2.76 12.173 7.033 16.318 12.821 4.143 5.783 6.215 12.388 6.215 19.814 0 10.878-2.848 18.863-8.546 23.959-5.699 5.091-13.04 7.64-22.016 7.64-3.801 0-7.083-0.089-9.843-0.259-2.764-0.174-5.269-0.433-7.512-0.777v-64.493h8.29zm-66.825-100.5v9.843c3.278 1.897 6.775 3.537 10.49 4.921 3.71 1.38 7.293 2.242 10.749 2.59v146.6c-3.456 0.688-7.082 1.683-10.878 2.979-3.801 1.295-7.253 2.805-10.361 4.533v9.842h41.7c6.56 0 12.777 0.259 18.649 0.777 5.868 0.518 12.602 0.777 20.203 0.777 8.288 0 16.317-0.607 24.088-1.813 7.769-1.21 14.674-3.368 20.721-6.476 6.042-3.107 10.878-7.47 14.504-13.08 3.626-5.613 5.439-12.82 5.439-21.627 0-5.528-0.995-10.664-2.979-15.411-1.987-4.751-4.75-8.936-8.288-12.562-3.541-3.626-7.685-6.649-12.432-9.065-4.751-2.42-9.887-4.144-15.411-5.18v-1.036c5.524-0.692 11.092-1.987 16.706-3.886 5.609-1.902 10.66-4.662 15.152-8.288 4.488-3.626 8.158-8.158 11.008-13.598 2.849-5.439 4.273-11.874 4.273-19.296 0-9.324-2.072-17.353-6.216-24.088-4.139-6.729-9.707-12.257-16.701-16.571-6.994-4.319-14.982-7.471-23.959-9.454-8.98-1.983-18.304-2.979-27.972-2.979-3.626 0-7.601 0.089-11.915 0.259-4.318 0.174-8.636 0.348-12.95 0.518-4.319 0.174-8.507 0.348-12.562 0.518-4.06 0.174-7.471 0.259-10.231 0.259h-30.822z" fill="#fff"/></g><g id="g96" transform="translate(1568.4 556.06)"><path id="path98" d="m0 0v-69.806c2.176-1.556 4.858-2.799 8.046-3.732 3.185-0.932 6.8-1.399 10.845-1.399 8.863 0 30.223 3.678 30.223 35.268 0 49.16-47.405 46.2-49.114 39.669m-33.585 70.128-17.726 1.87v8.862c2.332 0.933 5.401 1.867 9.212 2.799 3.809 0.933 7.774 1.75 11.896 2.449 4.118 0.7 8.163 1.319 12.128 1.866 3.964 0.543 7.346 0.969 10.145 1.283h7.93v-70.698l0.466-7c3.109 7.773 41.731 19.098 62.898-0.204 8.389-7.65 17.333-16.17 17.333-35.448 0-21.304-5.637-37.316-16.909-48.045-11.275-10.729-27.795-16.093-49.562-16.093-3.887 0-8.243 0.274-13.06 0.817-4.822 0.55-9.487 1.209-13.994 1.986-4.511 0.779-8.67 1.712-12.477 2.802-1.081-2.467-2.395-5.227-3.414-6.967-2.247 1.344-3.28 2.105-4.866 3.239v156.48z" fill="#fff"/></g><g id="g100" transform="translate(981.67 385)"><path id="path102" d="m0 0c-27-14.333-82.667-15-108 0 0 29.823 24.177 54 54 54s54-24.177 54-54" fill="#ff505d"/></g><g id="g104" transform="translate(981.67 385)"><path id="path106" d="m0 0c-27-14.333-82.667-15-108 0 0 29.823 24.177 54 54 54s54-24.177 54-54z" stroke="#465f81" stroke-miterlimit="10" stroke-width="5" fill="none"/></g><g id="g108" transform="translate(951.34 471.32)"><path id="path110" d="m0 0c0-13.077-10.601-23.678-23.678-23.678s-23.678 10.601-23.678 23.678 10.601 23.678 23.678 23.678 23.678-10.601 23.678-23.678" fill="#ff505d"/></g><g id="g112" transform="translate(951.34 471.32)"><path id="path114" d="m0 0c0-13.077-10.601-23.678-23.678-23.678s-23.678 10.601-23.678 23.678 10.601 23.678 23.678 23.678 23.678-10.601 23.678-23.678z" stroke="#465f81" stroke-miterlimit="10" stroke-width="5" fill="none"/></g><g id="g116" transform="translate(873.67 740.46)"><path id="path118" d="m0 0c27 14.333 82.667 15 108 0 0-29.823-24.177-54-54-54s-54 24.177-54 54" fill="#ff505d"/></g><g id="g120" transform="translate(873.67 740.46)"><path id="path122" d="m0 0c27 14.333 82.667 15 108 0 0-29.823-24.177-54-54-54s-54 24.177-54 54z" stroke="#465f81" stroke-miterlimit="10" stroke-width="5" fill="none"/></g><g id="g124" transform="translate(903.99 654.13)"><path id="path126" d="m0 0c0 13.077 10.601 23.678 23.678 23.678s23.678-10.601 23.678-23.678-10.601-23.678-23.678-23.678-23.678 10.601-23.678 23.678" fill="#ff505d"/></g><g id="g128" transform="translate(903.99 654.13)"><path id="path130" d="m0 0c0 13.077 10.601 23.678 23.678 23.678s23.678-10.601 23.678-23.678-10.601-23.678-23.678-23.678-23.678 10.601-23.678 23.678z" stroke="#465f81" stroke-miterlimit="10" stroke-width="5" fill="none"/></g><g id="g132" transform="translate(1105.4 616.73)"><path id="path134" d="m0 0c14.333-27 15-82.667 0-108-29.823 0-54 24.177-54 54s24.177 54 54 54" fill="#ff505d"/></g><g id="g136" transform="translate(1105.4 616.73)"><path id="path138" d="m0 0c14.333-27 15-82.667 0-108-29.823 0-54 24.177-54 54s24.177 54 54 54z" stroke="#465f81" stroke-miterlimit="10" stroke-width="5" fill="none"/></g><g id="g140" transform="translate(1019.1 586.41)"><path id="path142" d="m0 0c13.077 0 23.678-10.601 23.678-23.678s-10.601-23.678-23.678-23.678-23.678 10.601-23.678 23.678 10.601 23.678 23.678 23.678" fill="#ff505d"/></g><g id="g144" transform="translate(1019.1 586.41)"><path id="path146" d="m0 0c13.077 0 23.678-10.601 23.678-23.678s-10.601-23.678-23.678-23.678-23.678 10.601-23.678 23.678 10.601 23.678 23.678 23.678z" stroke="#465f81" stroke-miterlimit="10" stroke-width="5" fill="none"/></g><g id="g148" transform="translate(749.94 508.73)"><path id="path150" d="m0 0c-14.333 27-15 82.667 0 108 29.823 0 54-24.177 54-54s-24.177-54-54-54" fill="#ff505d"/></g><g id="g152" transform="translate(749.94 508.73)"><path id="path154" d="m0 0c-14.333 27-15 82.667 0 108 29.823 0 54-24.177 54-54s-24.177-54-54-54z" stroke="#465f81" stroke-miterlimit="10" stroke-width="5" fill="none"/></g><g id="g156" transform="translate(836.26 539.05)"><path id="path158" d="m0 0c-13.077 0-23.678 10.601-23.678 23.678s10.601 23.678 23.678 23.678 23.678-10.601 23.678-23.678-10.601-23.678-23.678-23.678" fill="#ff505d"/></g><g id="g160" transform="translate(836.26 539.05)"><path id="path162" d="m0 0c-13.077 0-23.678 10.601-23.678 23.678s10.601 23.678 23.678 23.678 23.678-10.601 23.678-23.678-10.601-23.678-23.678-23.678z" stroke="#465f81" stroke-miterlimit="10" stroke-width="5" fill="none"/></g><g id="g164" transform="translate(1091.5 475.24)"><path id="path166" d="m0 0c-8.957-29.227-47.848-69.061-76.367-76.368-21.089 21.089-21.089 55.28 0 76.368 21.088 21.088 55.279 21.088 76.367 0" fill="#ff505d"/></g><g id="g168" transform="translate(1091.5 475.24)"><path id="path170" d="m0 0c-8.957-29.227-47.848-69.061-76.367-76.368-21.089 21.089-21.089 55.28 0 76.368 21.088 21.088 55.279 21.088 76.367 0z" stroke="#465f81" stroke-miterlimit="10" stroke-width="5" fill="none"/></g><g id="g172" transform="translate(1009 514.84)"><path id="path174" d="m0 0c9.247-9.247 9.247-24.239 0-33.486s-24.239-9.247-33.486 0-9.247 24.239 0 33.486 24.239 9.247 33.486 0" fill="#ff505d"/></g><g id="g176" transform="translate(1009 514.84)"><path id="path178" d="m0 0c9.247-9.247 9.247-24.239 0-33.486s-24.239-9.247-33.486 0-9.247 24.239 0 33.486 24.239 9.247 33.486 0z" stroke="#465f81" stroke-miterlimit="10" stroke-width="5" fill="none"/></g><g id="g180" transform="translate(763.81 650.22)"><path id="path182" d="m0 0c8.957 29.227 47.848 69.061 76.367 76.368 21.089-21.089 21.089-55.28 0-76.368-21.088-21.088-55.279-21.088-76.367 0" fill="#ff505d"/></g><g id="g184" transform="translate(763.81 650.22)"><path id="path186" d="m0 0c8.957 29.227 47.848 69.061 76.367 76.368 21.089-21.089 21.089-55.28 0-76.368-21.088-21.088-55.279-21.088-76.367 0z" stroke="#465f81" stroke-miterlimit="10" stroke-width="5" fill="none"/></g><g id="g188" transform="translate(846.29 610.62)"><path id="path190" d="m0 0c-9.247 9.247-9.247 24.239 0 33.486s24.239 9.247 33.486 0 9.247-24.239 0-33.486-24.239-9.247-33.486 0" fill="#ff505d"/></g><g id="g192" transform="translate(846.29 610.62)"><path id="path194" d="m0 0c-9.247 9.247-9.247 24.239 0 33.486s24.239 9.247 33.486 0 9.247-24.239 0-33.486-24.239-9.247-33.486 0z" stroke="#465f81" stroke-miterlimit="10" stroke-width="5" fill="none"/></g><g id="g196" transform="translate(1015.2 726.58)"><path id="path198" d="m0 0c29.227-8.957 69.061-47.848 76.367-76.368-21.088-21.088-55.279-21.088-76.367 0-21.088 21.089-21.088 55.28 0 76.368" fill="#ff505d"/></g><g id="g200" transform="translate(1015.2 726.58)"><path id="path202" d="m0 0c29.227-8.957 69.061-47.848 76.367-76.368-21.088-21.088-55.279-21.088-76.367 0-21.088 21.089-21.088 55.28 0 76.368z" stroke="#465f81" stroke-miterlimit="10" stroke-width="5" fill="none"/></g><g id="g204" transform="translate(975.56 644.1)"><path id="path206" d="m0 0c9.247 9.247 24.239 9.247 33.486 0s9.247-24.239 0-33.486-24.239-9.247-33.486 0-9.247 24.239 0 33.486" fill="#ff505d"/></g><g id="g208" transform="translate(975.56 644.1)"><path id="path210" d="m0 0c9.247 9.247 24.239 9.247 33.486 0s9.247-24.239 0-33.486-24.239-9.247-33.486 0-9.247 24.239 0 33.486z" stroke="#465f81" stroke-miterlimit="10" stroke-width="5" fill="none"/></g><g id="g212" transform="translate(840.18 398.87)"><path id="path214" d="m0 0c-29.227 8.957-69.061 47.848-76.367 76.368 21.088 21.088 55.279 21.088 76.367 0 21.088-21.089 21.088-55.28 0-76.368" fill="#ff505d"/></g><g id="g216" transform="translate(840.18 398.87)"><path id="path218" d="m0 0c-29.227 8.957-69.061 47.848-76.367 76.368 21.088 21.088 55.279 21.088 76.367 0 21.088-21.089 21.088-55.28 0-76.368z" stroke="#465f81" stroke-miterlimit="10" stroke-width="5" fill="none"/></g><g id="g220" transform="translate(879.78 481.35)"><path id="path222" d="m0 0c-9.247-9.247-24.239-9.247-33.486 0s-9.247 24.239 0 33.486 24.239 9.247 33.486 0 9.247-24.239 0-33.486" fill="#ff505d"/></g><g id="g224" transform="translate(879.78 481.35)"><path id="path226" d="m0 0c-9.247-9.247-24.239-9.247-33.486 0s-9.247 24.239 0 33.486 24.239 9.247 33.486 0 9.247-24.239 0-33.486z" stroke="#465f81" stroke-miterlimit="10" stroke-width="5" fill="none"/></g></g></g></g></svg>
