<?xml version="1.0" encoding="utf-8"?>
<!-- Generator: Adobe Illustrator 16.0.0, SVG Export Plug-In . SVG Version: 6.00 Build 0)  -->
<!DOCTYPE svg PUBLIC "-//W3C//DTD SVG 1.1//EN" "http://www.w3.org/Graphics/SVG/1.1/DTD/svg11.dtd">
<svg version="1.1" id="Layer_1" xmlns="http://www.w3.org/2000/svg" xmlns:xlink="http://www.w3.org/1999/xlink" x="0px" y="0px"
	 width="88px" height="88px" viewBox="0 0 88 88" enable-background="new 0 0 88 88" xml:space="preserve">
<g>
	
		<path fill-rule="evenodd" clip-rule="evenodd" fill="#DBF9FF" stroke="#536B8B" stroke-width="2.211" stroke-linecap="round" stroke-linejoin="round" stroke-miterlimit="22.9256" d="
		M44,0.782L44,0.782C67.77,0.782,87.218,20.23,87.218,44l0,0c0,23.771-19.448,43.218-43.218,43.218l0,0
		C20.229,87.218,0.782,67.771,0.782,44l0,0C0.782,20.23,20.229,0.782,44,0.782z"/>
	
		<line fill-rule="evenodd" clip-rule="evenodd" fill="none" stroke="#536B8B" stroke-width="2.126" stroke-linecap="round" stroke-linejoin="round" stroke-miterlimit="22.9256" x1="44.058" y1="11.584" x2="44.058" y2="71.442"/>
	
		<line fill-rule="evenodd" clip-rule="evenodd" fill="none" stroke="#536B8B" stroke-width="2.126" stroke-linecap="round" stroke-linejoin="round" stroke-miterlimit="22.9256" x1="44.003" y1="66.799" x2="30.899" y2="69.475"/>
	
		<line fill-rule="evenodd" clip-rule="evenodd" fill="none" stroke="#536B8B" stroke-width="2.126" stroke-linecap="round" stroke-linejoin="round" stroke-miterlimit="22.9256" x1="44.003" y1="66.799" x2="57.105" y2="69.475"/>
	
		<rect x="19.06" y="18.506" fill-rule="evenodd" clip-rule="evenodd" fill="#FFFFFF" stroke="#536B8B" stroke-width="2.126" stroke-linecap="round" stroke-linejoin="round" stroke-miterlimit="22.9256" width="49.881" height="29.647"/>
	
		<path fill-rule="evenodd" clip-rule="evenodd" fill="#DBF9FF" stroke="#536B8B" stroke-width="2.126" stroke-linecap="round" stroke-linejoin="round" stroke-miterlimit="22.9256" d="
		M30.899,67.758L30.899,67.758c0.944,0,1.717,0.772,1.717,1.717l0,0c0,0.944-0.772,1.716-1.717,1.716l0,0
		c-0.943,0-1.716-0.771-1.716-1.716l0,0C29.184,68.53,29.956,67.758,30.899,67.758z"/>
	
		<path fill-rule="evenodd" clip-rule="evenodd" fill="#DBF9FF" stroke="#536B8B" stroke-width="2.126" stroke-linecap="round" stroke-linejoin="round" stroke-miterlimit="22.9256" d="
		M58.822,67.758L58.822,67.758c0.944,0,1.717,0.772,1.717,1.717l0,0c0,0.944-0.772,1.716-1.717,1.716l0,0
		c-0.944,0-1.717-0.771-1.717-1.716l0,0C57.105,68.53,57.878,67.758,58.822,67.758z"/>
	
		<path fill-rule="evenodd" clip-rule="evenodd" fill="#DBF9FF" stroke="#536B8B" stroke-width="2.126" stroke-linecap="round" stroke-linejoin="round" stroke-miterlimit="22.9256" d="
		M44.003,72.11L44.003,72.11c0.944,0,1.716,0.772,1.716,1.717l0,0c0,0.943-0.771,1.717-1.716,1.717l0,0
		c-0.944,0-1.717-0.773-1.717-1.717l0,0C42.286,72.883,43.059,72.11,44.003,72.11z"/>
	
		<line fill-rule="evenodd" clip-rule="evenodd" fill="none" stroke="#536B8B" stroke-width="2.126" stroke-linecap="round" stroke-linejoin="round" stroke-miterlimit="22.9256" x1="43.747" y1="14.38" x2="28.813" y2="18.381"/>
	
		<line fill-rule="evenodd" clip-rule="evenodd" fill="none" stroke="#536B8B" stroke-width="2.126" stroke-linecap="round" stroke-linejoin="round" stroke-miterlimit="22.9256" x1="43.747" y1="14.38" x2="58.68" y2="18.381"/>
	
		<rect x="24.544" y="23.522" fill-rule="evenodd" clip-rule="evenodd" fill="#FDD26A" stroke="#536B8B" stroke-width="2.126" stroke-linecap="round" stroke-linejoin="round" stroke-miterlimit="22.9256" width="10.741" height="12.768"/>
	
		<line fill-rule="evenodd" clip-rule="evenodd" fill="none" stroke="#536B8B" stroke-width="2.126" stroke-linecap="round" stroke-linejoin="round" stroke-miterlimit="22.9256" x1="40.667" y1="27.583" x2="57.705" y2="27.583"/>
	
		<line fill-rule="evenodd" clip-rule="evenodd" fill="none" stroke="#536B8B" stroke-width="2.126" stroke-linecap="round" stroke-linejoin="round" stroke-miterlimit="22.9256" x1="40.667" y1="31.115" x2="49.186" y2="31.115"/>
	
		<line fill-rule="evenodd" clip-rule="evenodd" fill="none" stroke="#536B8B" stroke-width="2.126" stroke-linecap="round" stroke-linejoin="round" stroke-miterlimit="22.9256" x1="40.667" y1="34.855" x2="57.081" y2="34.855"/>
	
		<rect x="24.544" y="41.068" fill-rule="evenodd" clip-rule="evenodd" fill="#EF6E65" stroke="#536B8B" stroke-width="2.126" stroke-linecap="round" stroke-linejoin="round" stroke-miterlimit="22.9256" width="10.741" height="3.192"/>
	
		<line fill-rule="evenodd" clip-rule="evenodd" fill="none" stroke="#536B8B" stroke-width="2.126" stroke-linecap="round" stroke-linejoin="round" stroke-miterlimit="22.9256" x1="40.667" y1="43.059" x2="49.761" y2="43.059"/>
	
		<line fill-rule="evenodd" clip-rule="evenodd" fill="none" stroke="#536B8B" stroke-width="2.126" stroke-linecap="round" stroke-linejoin="round" stroke-miterlimit="22.9256" x1="54.43" y1="43.059" x2="57.456" y2="43.059"/>
	
		<line fill-rule="evenodd" clip-rule="evenodd" fill="none" stroke="#536B8B" stroke-width="2.126" stroke-linecap="round" stroke-linejoin="round" stroke-miterlimit="22.9256" x1="60.613" y1="39.842" x2="70.561" y2="57.071"/>
</g>
</svg>
