<svg xmlns="http://www.w3.org/2000/svg" width="305.667" height="321.566" viewBox="0 0 305.66711 321.56552"><g transform="matrix(.72 0 0 .72 0 0)"><path d="M328.53 247.73h13.884c4.088.034 3.096 2.765 1.41 5.38-2.066 3.2 1.037 7.125 4.3 7.32 3.265-.195 6.367-4.12 4.303-7.32-1.688-2.615-2.68-5.346 1.41-5.38h14.33v-13.334c.035-4.08 2.77-3.09 5.39-1.405 3.21 2.06 7.14-1.033 7.337-4.293-.197-3.257-4.127-6.353-7.336-4.293-2.62 1.683-5.355 2.673-5.39-1.407V208.02h-14.332c-4.088.033-3.097 2.764-1.41 5.38 2.065 3.2-1.037 7.125-4.3 7.32-3.265-.195-6.368-4.12-4.303-7.32 1.687-2.616 2.68-5.347-1.41-5.38H328.53v39.71z" clip-rule="evenodd" fill="#dbe9f6" fill-rule="evenodd"/><path d="M348.125 261.593c-.023 0-.047 0-.07-.003-2.19-.13-4.37-1.617-5.424-3.698-.914-1.808-.835-3.78.218-5.413 1.557-2.416 1.27-3.103 1.23-3.173-.08-.15-.524-.407-1.673-.418H328.53c-.642 0-1.162-.52-1.162-1.16v-39.714c0-.643.52-1.163 1.162-1.163h13.884c1.887.017 3.132.567 3.71 1.638.906 1.68-.23 3.844-1.323 5.538-.77 1.194-.477 2.346-.095 3.1.672 1.325 2.07 2.313 3.42 2.425 1.352-.112 2.75-1.1 3.42-2.424.383-.755.677-1.906-.094-3.1-1.092-1.696-2.23-3.857-1.323-5.538.578-1.07 1.822-1.622 3.7-1.64h14.342c.64 0 1.16.522 1.16 1.164v14.98c.016 1.7.493 1.705.676 1.705.43 0 1.283-.22 2.925-1.276.88-.563 1.835-.85 2.845-.85 3.15 0 6.085 2.828 6.28 6.052.003.046.003.093 0 .14-.194 3.224-3.13 6.05-6.28 6.05-1.01 0-1.967-.284-2.843-.847-1.642-1.057-2.496-1.277-2.924-1.277-.182 0-.66 0-.677 1.713v13.323c0 .64-.52 1.16-1.16 1.16h-14.333c-1.14.01-1.583.268-1.663.418-.04.07-.327.756 1.23 3.17 1.053 1.632 1.13 3.605.215 5.414-1.056 2.08-3.234 3.566-5.425 3.697l-.07.002zm-18.432-15.03h12.72c1.888.018 3.134.57 3.71 1.64.907 1.682-.23 3.842-1.323 5.536-.77 1.194-.478 2.345-.095 3.1.67 1.326 2.068 2.314 3.42 2.425 1.35-.11 2.75-1.1 3.42-2.424.382-.754.676-1.905-.096-3.103-1.094-1.692-2.23-3.853-1.325-5.534.578-1.07 1.822-1.623 3.7-1.64h13.18v-12.17c.03-3.637 2.108-4.028 3-4.028 1.105 0 2.433.522 4.18 1.646.496.32 1.03.48 1.588.48 1.893 0 3.794-1.834 3.956-3.796-.163-1.96-2.064-3.794-3.957-3.794-.558 0-1.092.162-1.588.48-1.747 1.122-3.074 1.644-4.18 1.645-.892 0-2.97-.392-3-4.02v-13.827h-13.17c-1.14.01-1.583.267-1.663.417-.04.07-.327.757 1.23 3.173 1.053 1.63 1.13 3.604.216 5.412-1.056 2.08-3.234 3.567-5.426 3.7-.047.003-.093.003-.14 0-2.19-.133-4.37-1.62-5.425-3.7-.916-1.81-.837-3.78.216-5.413 1.557-2.415 1.27-3.102 1.23-3.172-.08-.15-.524-.407-1.673-.417h-12.71v37.386z" fill="#b8c8d4"/><path d="M288.893 208.017h13.884c4.09-.034 3.097-2.767 1.41-5.382-2.064-3.2 1.037-7.123 4.3-7.322 3.266.2 6.368 4.12 4.304 7.322-1.685 2.615-2.677 5.348 1.41 5.382h14.332v13.33c.035 4.082 2.772 3.092 5.393 1.407 3.207-2.06 7.138 1.036 7.335 4.294-.197 3.26-4.128 6.354-7.335 4.294-2.62-1.683-5.357-2.674-5.392 1.407v14.977H314.2c-4.088-.036-3.096-2.766-1.41-5.383 2.065-3.2-1.037-7.125-4.302-7.32-3.264.195-6.365 4.12-4.3 7.32 1.686 2.617 2.678 5.347-1.41 5.383h-13.886V230.69c.86-1.55 2.958-.665 4.985.637 3.206 2.062 7.137-1.036 7.336-4.294-.2-3.257-4.13-6.354-7.336-4.295-2.027 1.304-4.124 2.19-4.985.637v-15.358z" clip-rule="evenodd" fill="#dbe9f6" fill-rule="evenodd"/><path d="M328.53 248.89H314.2c-1.89-.016-3.133-.566-3.71-1.638-.907-1.682.23-3.84 1.322-5.536.77-1.195.478-2.347.096-3.103-.672-1.324-2.07-2.312-3.42-2.423-1.35.11-2.75 1.1-3.42 2.422-.383.755-.676 1.908.094 3.103 1.093 1.696 2.23 3.856 1.324 5.537-.577 1.07-1.822 1.622-3.7 1.638h-13.894c-.643 0-1.163-.52-1.163-1.16v-17.04c0-.197.05-.39.144-.564.51-.917 1.38-1.422 2.45-1.422 1.104 0 2.433.522 4.18 1.644.496.32 1.03.48 1.587.48 1.89 0 3.794-1.834 3.956-3.796-.16-1.926-2.1-3.796-3.956-3.796-.556 0-1.09.16-1.585.48-1.747 1.122-3.075 1.645-4.18 1.645-1.07 0-1.94-.505-2.45-1.424-.096-.172-.146-.366-.146-.563v-15.358c0-.643.52-1.163 1.16-1.163h13.885c1.14-.01 1.583-.267 1.664-.416.037-.07.324-.758-1.23-3.172-1.054-1.632-1.13-3.605-.217-5.413 1.053-2.08 3.232-3.566 5.423-3.7.048-.002.093-.002.142 0 2.19.134 4.37 1.62 5.422 3.7.915 1.81.837 3.78-.214 5.414-1.558 2.414-1.27 3.1-1.232 3.17.082.15.525.408 1.674.418h14.32c.644 0 1.164.52 1.164 1.163v13.33c.014 1.706.494 1.706.675 1.706.428 0 1.28-.22 2.924-1.275.878-.563 1.835-.85 2.845-.85 3.15 0 6.086 2.828 6.28 6.052.003.045.003.092 0 .14-.194 3.222-3.13 6.05-6.28 6.05-1.01 0-1.967-.285-2.843-.848-1.644-1.058-2.497-1.278-2.926-1.278-.182 0-.662 0-.677 1.715v14.97c0 .64-.52 1.16-1.164 1.16zm-20.043-15.03c.023 0 .047.002.07.004 2.19.13 4.37 1.617 5.423 3.698.916 1.81.84 3.78-.214 5.414-1.557 2.414-1.27 3.102-1.23 3.17.08.152.524.408 1.674.42l13.158-.046v-13.77c.03-3.64 2.108-4.03 3-4.03 1.105 0 2.434.52 4.18 1.644.498.318 1.032.48 1.59.48 1.892 0 3.793-1.834 3.954-3.796-.16-1.96-2.063-3.795-3.955-3.795-.557 0-1.09.16-1.588.48-1.748 1.122-3.077 1.645-4.183 1.645-.892 0-2.97-.392-3-4.02v-12.18h-13.17c-1.886-.016-3.13-.566-3.71-1.638-.905-1.682.232-3.842 1.325-5.536.77-1.195.477-2.346.095-3.102-.67-1.324-2.07-2.313-3.42-2.425-1.352.112-2.75 1.1-3.42 2.424-.383.758-.676 1.91.095 3.105 1.092 1.694 2.23 3.854 1.323 5.536-.578 1.07-1.822 1.623-3.7 1.64h-12.73v13.805c.26.154 1.06.147 3.193-1.224.876-.562 1.832-.85 2.842-.85 3.15 0 6.085 2.83 6.282 6.053.003.047.003.094 0 .142-.197 3.223-3.132 6.05-6.28 6.05-1.012 0-1.968-.285-2.845-.848-2.126-1.366-2.928-1.39-3.194-1.223v15.48h12.72c1.14-.01 1.585-.266 1.665-.417.04-.07.326-.757-1.23-3.172-1.052-1.632-1.13-3.604-.214-5.414 1.053-2.08 3.233-3.565 5.423-3.696l.067-.002z" fill="#b8c8d4"/><path d="M368.168 287.438h-13.885c-4.09.035-3.097 2.767-1.41 5.382 2.064 3.2-1.038 7.125-4.302 7.323-3.262-.198-6.364-4.122-4.3-7.323 1.686-2.615 2.68-5.347-1.41-5.382h-14.33v-15.18h-15.603v-14.094h15.604v-10.436h14.33c4.09.035 3.095 2.766 1.41 5.38-2.065 3.202 1.037 7.126 4.3 7.322 3.265-.196 6.367-4.12 4.303-7.322-1.687-2.614-2.68-5.345 1.41-5.38h13.885v13.2c-.035 4.08-2.77 3.09-5.393 1.406-3.207-2.06-7.137 1.037-7.337 4.295.2 3.255 4.13 6.352 7.337 4.29 2.62-1.682 5.357-2.673 5.393 1.407v15.11z" clip-rule="evenodd" fill="#dbe9f6" fill-rule="evenodd"/><path d="M348.57 301.306c-.022 0-.046 0-.07-.003-2.19-.133-4.37-1.62-5.423-3.7-.915-1.81-.836-3.78.217-5.412 1.556-2.413 1.268-3.1 1.23-3.17-.08-.15-.525-.407-1.675-.42l-14.32.003c-.643 0-1.163-.52-1.163-1.163v-14.016h-14.442c-.642 0-1.163-.52-1.163-1.164v-14.095c0-.644.52-1.164 1.163-1.164h14.442v-9.27c0-.643.52-1.164 1.162-1.164h14.33c1.886.017 3.13.568 3.71 1.64.905 1.68-.23 3.84-1.324 5.534-.772 1.197-.478 2.348-.095 3.103.67 1.325 2.07 2.313 3.42 2.424 1.35-.11 2.748-1.1 3.42-2.423.38-.756.676-1.906-.096-3.104-1.092-1.693-2.23-3.853-1.323-5.534.58-1.07 1.824-1.623 3.7-1.64h13.897c.642 0 1.162.52 1.162 1.164v13.2c-.033 3.64-2.11 4.03-3.003 4.03-1.104 0-2.434-.522-4.182-1.646-.495-.318-1.028-.48-1.585-.48-1.892 0-3.794 1.835-3.957 3.797.163 1.96 2.064 3.797 3.956 3.797.556 0 1.09-.16 1.585-.48 1.75-1.122 3.078-1.645 4.183-1.645.89 0 2.968.393 3 4.02v15.12c0 .643-.52 1.163-1.162 1.163H354.28c-1.063.01-1.562.23-1.663.417-.04.07-.327.758 1.23 3.173 1.052 1.63 1.13 3.603.214 5.41-1.052 2.082-3.23 3.568-5.42 3.7l-.07.003zm-18.877-15.03h13.166c1.886.016 3.13.566 3.71 1.637.905 1.682-.23 3.843-1.324 5.537-.77 1.196-.478 2.347-.096 3.102.67 1.324 2.068 2.313 3.42 2.425 1.353-.11 2.75-1.1 3.42-2.424.383-.756.677-1.906-.094-3.102-1.093-1.693-2.23-3.853-1.323-5.535.577-1.07 1.822-1.622 3.7-1.638h12.73V272.33c-.014-1.705-.494-1.705-.675-1.705-.428 0-1.282.222-2.927 1.275-.874.563-1.83.85-2.84.85-3.15 0-6.084-2.826-6.28-6.05-.005-.046-.005-.094 0-.142.196-3.223 3.132-6.05 6.28-6.05 1.01 0 1.966.285 2.843.848 1.644 1.057 2.497 1.278 2.925 1.278.182 0 .662 0 .678-1.717V248.89H354.28c-1.064.01-1.563.23-1.664.417-.038.07-.326.757 1.23 3.17 1.053 1.633 1.13 3.607.214 5.415-1.053 2.08-3.232 3.566-5.422 3.697-.047.002-.094.002-.14 0-2.19-.133-4.37-1.62-5.424-3.7-.916-1.808-.837-3.78.216-5.413 1.556-2.415 1.268-3.1 1.23-3.17-.08-.15-.525-.408-1.675-.42l-13.156.045v9.23c0 .643-.52 1.164-1.163 1.164h-14.44v11.77h14.44c.643 0 1.163.52 1.163 1.162v14.015z" fill="#b8c8d4"/><path d="M328.53 247.598h-13.884c-4.09-.034-3.097-2.766-1.41-5.382 2.063-3.2-1.04-7.125-4.302-7.32-3.263.195-6.367 4.12-4.302 7.32 1.686 2.616 2.68 5.348-1.41 5.382h-14.33v13.33c-.035 4.082-2.77 3.092-5.393 1.407-3.208-2.06-7.14 1.037-7.338 4.295.2 3.257 4.13 6.354 7.336 4.293 2.62-1.683 5.356-2.674 5.392 1.406v14.976h14.33c4.09-.034 3.096-2.765 1.41-5.38-2.065-3.202 1.04-7.125 4.302-7.322 3.263.197 6.365 4.12 4.3 7.32-1.685 2.617-2.677 5.348 1.412 5.382h13.884V270.27c-.86-1.552-2.96-.665-4.985.638-3.206 2.06-7.138-1.038-7.337-4.295.2-3.258 4.13-6.354 7.337-4.295 2.026 1.303 4.124 2.188 4.985.637v-15.36z" clip-rule="evenodd" fill="#dbe9f6" fill-rule="evenodd"/><path d="M328.53 288.472h-13.884c-1.888-.017-3.133-.568-3.71-1.64-.907-1.68.23-3.84 1.322-5.535.77-1.195.478-2.347.095-3.102-.67-1.324-2.068-2.313-3.42-2.425-1.352.112-2.75 1.102-3.42 2.426-.38.755-.675 1.905.096 3.1 1.09 1.696 2.227 3.857 1.32 5.537-.577 1.07-1.82 1.622-3.7 1.638l-14.34.003c-.642 0-1.162-.52-1.162-1.164v-14.98c-.016-1.704-.496-1.704-.677-1.704-.427 0-1.28.222-2.925 1.275-.876.564-1.833.85-2.844.85-3.147 0-6.082-2.825-6.28-6.05-.002-.046-.002-.093 0-.14.198-3.224 3.133-6.05 6.283-6.05 1.01 0 1.966.284 2.843.847 1.643 1.057 2.497 1.278 2.925 1.278.18 0 .66 0 .678-1.717v-13.32c0-.642.52-1.163 1.162-1.163h14.33c1.064-.01 1.563-.23 1.664-.417.038-.07.325-.757-1.23-3.173-1.053-1.63-1.13-3.603-.216-5.41 1.054-2.082 3.232-3.568 5.424-3.7.047-.004.094-.004.14 0 2.19.132 4.37 1.618 5.424 3.7.915 1.807.837 3.78-.216 5.41-1.556 2.415-1.268 3.103-1.23 3.173.1.187.6.408 1.675.418h13.874c.643 0 1.163.52 1.163 1.162v15.36c0 .196-.05.39-.146.563-.51.918-1.38 1.423-2.45 1.423-1.105 0-2.435-.522-4.18-1.646-.496-.317-1.03-.48-1.587-.48-1.89 0-3.793 1.835-3.955 3.797.162 1.96 2.064 3.795 3.956 3.795.56 0 1.093-.16 1.59-.48 1.744-1.123 3.073-1.646 4.18-1.646 1.07 0 1.94.505 2.45 1.423.095.173.145.367.145.564v17.036c0 .646-.52 1.167-1.164 1.167zm-19.595-15.03c.023 0 .047 0 .07.003 2.19.133 4.37 1.62 5.423 3.7.915 1.808.836 3.78-.216 5.41-1.556 2.416-1.268 3.103-1.23 3.173.08.15.525.407 1.675.418h12.712v-15.48c-.27-.168-1.073-.145-3.196 1.22-.877.563-1.833.85-2.843.85-3.15 0-6.085-2.826-6.28-6.05-.004-.047-.004-.094 0-.142.195-3.223 3.132-6.05 6.28-6.05 1.01 0 1.967.285 2.844.848 1.64 1.056 2.495 1.277 2.924 1.277.125 0 .208-.02.27-.057V248.76h-12.722c-1.888-.017-3.133-.567-3.71-1.64-.907-1.68.23-3.84 1.322-5.535.77-1.195.477-2.347.095-3.103-.67-1.324-2.068-2.31-3.42-2.423-1.35.11-2.748 1.1-3.42 2.422-.38.755-.675 1.906.096 3.1 1.093 1.697 2.23 3.857 1.323 5.54-.578 1.07-1.822 1.62-3.7 1.636h-13.177v12.167c-.032 3.64-2.11 4.03-3.002 4.03-1.105 0-2.434-.52-4.182-1.645-.496-.318-1.03-.48-1.586-.48-1.892 0-3.794 1.835-3.956 3.797.163 1.96 2.064 3.794 3.955 3.794.558 0 1.092-.16 1.588-.48 1.75-1.122 3.078-1.644 4.182-1.644.892 0 2.97.39 3 4.02l.002 13.825h13.167c1.14-.01 1.583-.266 1.664-.416.038-.07.325-.756-1.23-3.173-1.052-1.63-1.13-3.6-.216-5.41 1.053-2.08 3.232-3.566 5.423-3.7l.07-.002z" fill="#b8c8d4"/><path d="M197.275 147.91c13.754 0 24.975-3.965 24.975-8.825 0-4.86-11.22-8.822-24.975-8.822-13.756 0-24.975 3.963-24.975 8.822 0 4.86 11.22 8.825 24.975 8.825z" clip-rule="evenodd" fill="#dbe9f6" fill-rule="evenodd"/><path d="M197.275 149.072c-12.67 0-26.138-3.5-26.138-9.987 0-6.485 13.467-9.985 26.138-9.985 12.67 0 26.137 3.5 26.137 9.985 0 6.487-13.467 9.987-26.137 9.987zm0-17.647c-14.033 0-23.813 4.037-23.813 7.66 0 3.624 9.78 7.662 23.813 7.662 14.032 0 23.812-4.038 23.812-7.662 0-3.623-9.78-7.66-23.812-7.66z" fill="#b8c8d4"/><path d="M172.3 125.36h49.95v13.725H172.3z" clip-rule="evenodd" fill="#dbe9f6" fill-rule="evenodd"/><path d="M222.25 139.085V125.36H172.3v13.725" clip-rule="evenodd" fill="#dbe9f6" fill-rule="evenodd"/><path d="M222.25 140.248c-.643 0-1.163-.52-1.163-1.163v-12.563h-47.624v12.563c0 .643-.52 1.163-1.162 1.163-.64 0-1.16-.52-1.16-1.163V125.36c0-.643.52-1.163 1.16-1.163h49.95c.643 0 1.163.52 1.163 1.162v13.724c0 .643-.52 1.163-1.162 1.163z" fill="#b8c8d4"/><path d="M197.275 134.185c13.754 0 24.975-3.965 24.975-8.825 0-4.86-11.22-8.823-24.975-8.823-13.756 0-24.975 3.964-24.975 8.823 0 4.86 11.22 8.825 24.975 8.825z" clip-rule="evenodd" fill="#dbe9f6" fill-rule="evenodd"/><path d="M197.275 135.347c-12.67 0-26.138-3.5-26.138-9.987 0-6.486 13.467-9.985 26.138-9.985 12.67 0 26.137 3.5 26.137 9.985 0 6.487-13.467 9.987-26.137 9.987zm0-17.65c-14.033 0-23.813 4.04-23.813 7.662s9.78 7.66 23.813 7.66c14.032 0 23.812-4.038 23.812-7.66 0-3.625-9.78-7.663-23.812-7.663z" fill="#b8c8d4"/><path d="M197.275 134.18c13.754 0 24.975-3.965 24.975-8.824 0-4.86-11.22-8.824-24.975-8.824-13.756 0-24.975 3.964-24.975 8.824 0 4.86 11.22 8.823 24.975 8.823z" clip-rule="evenodd" fill="#dbe9f6" fill-rule="evenodd"/><path d="M197.275 135.34c-12.67 0-26.138-3.498-26.138-9.984s13.467-9.986 26.138-9.986c12.67 0 26.137 3.5 26.137 9.986 0 6.486-13.467 9.985-26.137 9.985zm0-17.647c-14.033 0-23.813 4.038-23.813 7.662 0 3.623 9.78 7.66 23.813 7.66 14.032 0 23.812-4.037 23.812-7.66 0-3.624-9.78-7.662-23.812-7.662z" fill="#b8c8d4"/><path d="M172.3 111.63h49.95v13.725H172.3z" clip-rule="evenodd" fill="#dbe9f6" fill-rule="evenodd"/><path d="M222.25 125.354V111.63H172.3v13.724" clip-rule="evenodd" fill="#dbe9f6" fill-rule="evenodd"/><path d="M222.25 126.518c-.643 0-1.163-.52-1.163-1.163v-12.563h-47.624v12.563c0 .643-.52 1.163-1.162 1.163-.64 0-1.16-.52-1.16-1.163V111.63c0-.644.52-1.163 1.16-1.163h49.95c.643 0 1.163.52 1.163 1.162v13.724c0 .642-.52 1.163-1.162 1.163z" fill="#b8c8d4"/><path d="M197.275 120.452c13.754 0 24.975-3.963 24.975-8.823s-11.22-8.825-24.975-8.825c-13.756 0-24.975 3.964-24.975 8.823 0 4.86 11.22 8.822 24.975 8.822z" clip-rule="evenodd" fill="#dbe9f6" fill-rule="evenodd"/><path d="M197.275 121.615c-12.67 0-26.138-3.5-26.138-9.986 0-6.487 13.467-9.988 26.138-9.988 12.67 0 26.137 3.5 26.137 9.986 0 6.486-13.467 9.985-26.137 9.985zm0-17.646c-14.033 0-23.813 4.035-23.813 7.66 0 3.622 9.78 7.66 23.813 7.66 14.032 0 23.812-4.038 23.812-7.66 0-3.625-9.78-7.66-23.812-7.66z" fill="#b8c8d4"/><path d="M197.275 120.452c13.754 0 24.975-3.963 24.975-8.823s-11.22-8.825-24.975-8.825c-13.756 0-24.975 3.964-24.975 8.823 0 4.86 11.22 8.822 24.975 8.822z" clip-rule="evenodd" fill="#dbe9f6" fill-rule="evenodd"/><path d="M197.275 121.615c-12.67 0-26.138-3.5-26.138-9.986 0-6.487 13.467-9.988 26.138-9.988 12.67 0 26.137 3.5 26.137 9.986 0 6.486-13.467 9.985-26.137 9.985zm0-17.646c-14.033 0-23.813 4.035-23.813 7.66 0 3.622 9.78 7.66 23.813 7.66 14.032 0 23.812-4.038 23.812-7.66 0-3.625-9.78-7.66-23.812-7.66z" fill="#b8c8d4"/><path d="M172.3 97.903h49.95v13.726H172.3z" clip-rule="evenodd" fill="#dbe9f6" fill-rule="evenodd"/><path d="M222.25 111.63V97.902H172.3v13.726" clip-rule="evenodd" fill="#dbe9f6" fill-rule="evenodd"/><path d="M222.25 112.792c-.643 0-1.163-.52-1.163-1.163V99.064h-47.624v12.563c0 .642-.52 1.162-1.162 1.162-.64 0-1.16-.52-1.16-1.163V97.902c0-.642.52-1.162 1.16-1.162h49.95c.643 0 1.163.522 1.163 1.163v13.726c0 .64-.52 1.16-1.162 1.16z" fill="#b8c8d4"/><path d="M197.275 106.728c13.754 0 24.975-3.964 24.975-8.824 0-4.86-11.22-8.823-24.975-8.823-13.756 0-24.975 3.965-24.975 8.825 0 4.86 11.22 8.824 24.975 8.824z" clip-rule="evenodd" fill="#dbe9f6" fill-rule="evenodd"/><path d="M197.275 107.89c-12.67 0-26.138-3.5-26.138-9.986 0-6.486 13.467-9.986 26.138-9.986 12.67 0 26.137 3.5 26.137 9.986 0 6.486-13.467 9.986-26.137 9.986zm0-17.648c-14.033 0-23.813 4.038-23.813 7.66s9.78 7.662 23.813 7.662c14.032 0 23.812-4.038 23.812-7.66s-9.78-7.662-23.812-7.662z" fill="#b8c8d4"/><path d="M197.275 106.723c13.754 0 24.975-3.965 24.975-8.824 0-4.86-11.22-8.825-24.975-8.825-13.756 0-24.975 3.964-24.975 8.823 0 4.86 11.22 8.823 24.975 8.823z" clip-rule="evenodd" fill="#dbe9f6" fill-rule="evenodd"/><path d="M197.275 107.885c-12.67 0-26.138-3.5-26.138-9.986 0-6.487 13.467-9.988 26.138-9.988 12.67 0 26.137 3.5 26.137 9.986 0 6.486-13.467 9.985-26.137 9.985zm0-17.648c-14.033 0-23.813 4.038-23.813 7.66s9.78 7.662 23.813 7.662c14.032 0 23.812-4.04 23.812-7.663 0-3.622-9.78-7.66-23.812-7.66z" fill="#b8c8d4"/><path d="M172.3 84.173h49.95V97.9H172.3z" clip-rule="evenodd" fill="#dbe9f6" fill-rule="evenodd"/><path d="M222.25 97.898V84.173H172.3v13.725" clip-rule="evenodd" fill="#dbe9f6" fill-rule="evenodd"/><path d="M222.25 99.062c-.643 0-1.163-.52-1.163-1.163V85.334h-47.624V97.9c0 .642-.52 1.162-1.162 1.162-.64 0-1.16-.52-1.16-1.163V84.17c0-.642.52-1.162 1.16-1.162h49.95c.643 0 1.163.522 1.163 1.163V97.9c0 .64-.52 1.162-1.162 1.162z" fill="#b8c8d4"/><path d="M197.275 92.996c13.754 0 24.975-3.964 24.975-8.824 0-4.86-11.22-8.822-24.975-8.822-13.756 0-24.975 3.963-24.975 8.822 0 4.86 11.22 8.824 24.975 8.824z" clip-rule="evenodd" fill="#dbe9f6" fill-rule="evenodd"/><path d="M197.275 94.158c-12.67 0-26.138-3.5-26.138-9.986 0-6.485 13.467-9.984 26.138-9.984 12.67 0 26.137 3.5 26.137 9.984 0 6.486-13.467 9.986-26.137 9.986zm0-17.646c-14.033 0-23.813 4.037-23.813 7.66 0 3.624 9.78 7.66 23.813 7.66 14.032 0 23.812-4.036 23.812-7.66 0-3.623-9.78-7.66-23.812-7.66z" fill="#b8c8d4"/><path d="M115.513 223.847l-3.15-3.146-6.288 6.28 3.15 3.144" clip-rule="evenodd" fill="#dbe9f6" fill-rule="evenodd"/><path d="M109.225 231.285c-.297 0-.594-.113-.82-.34l-3.15-3.145c-.218-.22-.34-.514-.34-.822 0-.31.122-.604.34-.823l6.29-6.277c.452-.453 1.187-.453 1.64 0l3.15 3.146c.218.22.34.514.34.823 0 .31-.122.605-.34.823l-6.288 6.275c-.228.227-.525.34-.822.34zm-1.504-4.306l1.506 1.5 4.644-4.634-1.506-1.503-4.643 4.635z" fill="#b8c8d4"/><path d="M122.874 223.526l-9.972-9.953-3.62 3.613 9.974 9.954" clip-rule="evenodd" fill="#dbe9f6" fill-rule="evenodd"/><path d="M119.256 228.303c-.298 0-.595-.113-.82-.34l-9.973-9.954c-.22-.22-.342-.517-.342-.825 0-.308.125-.604.344-.822l3.62-3.613c.452-.45 1.187-.45 1.64 0l9.973 9.955c.218.218.34.514.34.822 0 .31-.122.604-.34.823l-3.618 3.612c-.23.227-.526.34-.823.34zm-8.327-11.117l8.325 8.313 1.973-1.974-8.327-8.31-1.973 1.97z" fill="#b8c8d4"/><path d="M45.696 223.847l3.15-3.146 6.29 6.28-3.152 3.144" clip-rule="evenodd" fill="#dbe9f6" fill-rule="evenodd"/><path d="M51.984 231.285c-.298 0-.595-.113-.82-.34l-6.288-6.275c-.22-.218-.342-.515-.342-.823 0-.31.123-.605.34-.823l3.15-3.146c.454-.453 1.19-.453 1.643 0l6.29 6.277c.217.22.34.514.34.823 0 .31-.123.604-.34.822l-3.152 3.145c-.227.227-.524.34-.82.34zm-4.642-7.438l4.643 4.634 1.505-1.5-4.643-4.635-1.505 1.503z" fill="#b8c8d4"/><path d="M38.336 223.526l9.972-9.953 3.618 3.613-9.972 9.954" clip-rule="evenodd" fill="#dbe9f6" fill-rule="evenodd"/><path d="M41.954 228.303c-.297 0-.594-.113-.82-.34l-3.62-3.613c-.217-.22-.34-.514-.34-.823 0-.31.123-.604.34-.822l9.973-9.954c.454-.45 1.188-.45 1.643 0l3.618 3.615c.218.218.34.514.34.822 0 .308-.122.604-.34.823l-9.972 9.952c-.227.227-.524.34-.822.34zm-1.973-4.777l1.975 1.972 8.326-8.313-1.972-1.97-8.326 8.31z" fill="#b8c8d4"/><ellipse ry="17.891" rx="17.925" cy="261.299" cx="80.605" clip-rule="evenodd" fill="#dbe9f6" fill-rule="evenodd"/><path d="M80.605 280.353c-10.525 0-19.09-8.547-19.09-19.053s8.564-19.055 19.09-19.055c10.524 0 19.087 8.55 19.087 19.055 0 10.505-8.562 19.053-19.087 19.053zm0-35.782c-9.244 0-16.764 7.506-16.764 16.73 0 9.226 7.52 16.73 16.766 16.73 9.243 0 16.763-7.504 16.763-16.73 0-9.224-7.52-16.73-16.764-16.73z" fill="#b8c8d4"/><path d="M75.937 210.657h9.337v8.876h-9.337z" clip-rule="evenodd" fill="#dbe9f6" fill-rule="evenodd"/><path d="M85.273 220.696h-9.337c-.643 0-1.162-.52-1.162-1.163v-8.876c0-.643.52-1.163 1.162-1.163h9.337c.642 0 1.162.52 1.162 1.163v8.876c0 .643-.52 1.163-1.162 1.163zM77.1 218.37h7.01v-6.55H77.1v6.55z" fill="#b8c8d4"/><path d="M80.605 217.758c24.088 0 43.622 19.5 43.622 43.542s-19.534 43.54-43.622 43.54c-24.09 0-43.623-19.497-43.623-43.54s19.535-43.542 43.623-43.542zm0 8.887c-19.173 0-34.72 15.52-34.72 34.655 0 19.136 15.547 34.655 34.72 34.655 19.172 0 34.72-15.52 34.72-34.655 0-19.137-15.548-34.655-34.72-34.655z" clip-rule="evenodd" fill="#dbe9f6" fill-rule="evenodd"/><path d="M80.605 306.003c-24.695 0-44.785-20.054-44.785-44.703 0-24.65 20.09-44.704 44.785-44.704 24.694 0 44.784 20.055 44.784 44.704 0 24.65-20.09 44.703-44.786 44.703zm0-87.082c-23.413 0-42.46 19.013-42.46 42.38 0 23.37 19.047 42.378 42.46 42.378 23.412 0 42.46-19.01 42.46-42.377 0-23.366-19.047-42.38-42.46-42.38zm0 78.2c-19.786 0-35.883-16.068-35.883-35.82 0-19.75 16.097-35.816 35.883-35.816 19.784 0 35.88 16.067 35.88 35.817s-16.095 35.82-35.88 35.82zm0-69.31c-18.504 0-33.56 15.022-33.56 33.49 0 18.47 15.056 33.493 33.56 33.493 18.503 0 33.557-15.024 33.557-33.492 0-18.47-15.054-33.49-33.557-33.49z" fill="#b8c8d4"/><path d="M71.113 200.128h18.675v10.217H71.113z" clip-rule="evenodd" fill="#dbe9f6" fill-rule="evenodd"/><path d="M89.788 211.507H71.113c-.643 0-1.163-.52-1.163-1.162v-10.217c0-.642.52-1.162 1.163-1.162h18.675c.642 0 1.162.52 1.162 1.162v10.217c0 .64-.52 1.162-1.162 1.162zm-17.513-2.325h16.35v-7.89h-16.35v7.89z" fill="#b8c8d4"/><path d="M84.61 203.342v7.315" clip-rule="evenodd" fill="#dbe9f6" fill-rule="evenodd"/><path d="M84.61 211.82c-.642 0-1.162-.52-1.162-1.163v-7.315c0-.643.52-1.163 1.162-1.163.643 0 1.162.52 1.162 1.16v7.316c0 .643-.52 1.162-1.162 1.162z" fill="#b8c8d4"/><path d="M80.726 203.342v7.315" clip-rule="evenodd" fill="#dbe9f6" fill-rule="evenodd"/><path d="M80.726 211.82c-.643 0-1.162-.52-1.162-1.163v-7.315c0-.643.52-1.163 1.162-1.163.642 0 1.162.52 1.162 1.16v7.316c0 .643-.52 1.162-1.162 1.162z" fill="#b8c8d4"/><path d="M80.605 231.978l1.482 13.346 1.482 13.35h-5.93l1.483-13.35" clip-rule="evenodd" fill="#dbe9f6" fill-rule="evenodd"/><path d="M83.59 259.836h-5.95c-.33 0-.646-.14-.866-.388-.22-.247-.325-.575-.29-.903l2.966-26.695c.064-.59.563-1.035 1.155-1.035.592 0 1.09.445 1.154 1.035l2.94 26.483c.032.107.05.222.05.34 0 .642-.52 1.163-1.16 1.163zm-4.65-2.326h3.33l-1.665-15.002-1.666 15.002z" fill="#b8c8d4"/><path d="M80.605 261.3l24.154 13.918" clip-rule="evenodd" fill="#dbe9f6" fill-rule="evenodd"/><path d="M104.758 276.38c-.197 0-.396-.05-.58-.154l-24.153-13.918c-.556-.32-.747-1.032-.427-1.588.32-.558 1.03-.747 1.588-.428l24.153 13.92c.555.32.745 1.03.426 1.586-.216.374-.607.583-1.01.583z" fill="#b8c8d4"/><ellipse ry="6.074" rx="6.085" cy="261.299" cx="80.605" clip-rule="evenodd" fill="#dbe9f6" fill-rule="evenodd"/><path d="M80.605 268.536c-3.997 0-7.248-3.247-7.248-7.236 0-3.99 3.25-7.238 7.248-7.238 3.996 0 7.247 3.248 7.247 7.238s-3.25 7.236-7.247 7.236zm0-12.147c-2.715 0-4.924 2.2-4.924 4.91 0 2.707 2.21 4.91 4.926 4.91 2.714 0 4.923-2.203 4.923-4.91 0-2.71-2.21-4.91-4.924-4.91z" fill="#b8c8d4"/><path d="M45.885 261.3h6.997" clip-rule="evenodd" fill="#dbe9f6" fill-rule="evenodd"/><path d="M52.882 262.464h-6.997c-.643 0-1.162-.52-1.162-1.164 0-.644.52-1.163 1.162-1.163h6.997c.643 0 1.163.52 1.163 1.163s-.52 1.164-1.163 1.164z" fill="#b8c8d4"/><path d="M108.506 261.3h6.998" clip-rule="evenodd" fill="#dbe9f6" fill-rule="evenodd"/><path d="M115.504 262.464h-6.998c-.642 0-1.162-.52-1.162-1.164 0-.644.52-1.163 1.162-1.163h6.998c.643 0 1.162.52 1.162 1.163s-.52 1.164-1.162 1.164z" fill="#b8c8d4"/><path d="M80.605 288.93v6.987" clip-rule="evenodd" fill="#dbe9f6" fill-rule="evenodd"/><path d="M80.605 297.08c-.643 0-1.163-.522-1.163-1.163v-6.986c0-.64.52-1.162 1.163-1.162.642 0 1.162.52 1.162 1.164v6.987c0 .64-.52 1.16-1.162 1.16z" fill="#b8c8d4"/><path d="M178.557 1.118h56.414V62.9H178.56z" clip-rule="evenodd" fill="#fff" fill-rule="evenodd"/><path d="M234.97 64.02h-56.413c-.617 0-1.117-.5-1.117-1.118V1.118c0-.618.5-1.118 1.117-1.118h56.414c.62 0 1.12.5 1.12 1.118V62.9c0 .62-.5 1.12-1.118 1.12zm-55.296-2.236h54.18V2.234h-54.18v59.55z" fill="#536b8b"/><path d="M154.34 166.776l93.997-20.085v20.086" clip-rule="evenodd" fill="#e8a541" fill-rule="evenodd"/><path d="M154.34 167.895c-.57 0-1.05-.432-1.11-1-.06-.57.318-1.092.878-1.21l93.996-20.086c.327-.07.674.01.936.222.262.213.414.53.414.87v20.083c0 .618-.5 1.118-1.116 1.118H154.34zm92.88-19.822l-82.3 17.585h82.3v-17.585z" fill="#536b8b"/><path d="M173.76 157.147h97.053v149.368H173.76z" clip-rule="evenodd" fill="#fff" fill-rule="evenodd"/><path d="M270.813 307.634H173.76c-.62 0-1.12-.5-1.12-1.118v-149.37c0-.616.5-1.117 1.12-1.117h97.053c.617 0 1.117.5 1.117 1.116v149.368c0 .62-.5 1.12-1.117 1.12zm-95.937-2.236h94.82V158.266h-94.82v147.132zm31.89 65.494c-.62 0-1.12-.502-1.12-1.12 0-.618.5-1.117 1.12-1.117 1.465 0 2.955-.024 4.43-.074.624.005 1.133.466 1.153 1.08.02.62-.464 1.137-1.08 1.157-1.5.05-3.016.076-4.506.076zm-2.31-.02l-.02-.002c-1.503-.025-3.02-.077-4.507-.152-.62-.03-1.093-.558-1.06-1.175.03-.616.56-1.09 1.17-1.06 1.465.075 2.955.126 4.43.15.617.01 1.11.52 1.1 1.137-.01.613-.51 1.1-1.117 1.1zm11.24-.28c-.585 0-1.076-.453-1.116-1.044-.04-.616.425-1.148 1.04-1.19 1.463-.098 2.948-.223 4.416-.37.622-.06 1.162.385 1.225.998.065.614-.384 1.163-1 1.226-1.49.15-3 .278-4.49.378l-.075.002zm-20.167-.174c-.034 0-.066-.002-.1-.005-1.503-.128-3.01-.282-4.48-.456-.614-.073-1.053-.63-.98-1.24.073-.615.634-1.05 1.24-.98 1.447.172 2.93.323 4.41.45.615.052 1.07.593 1.02 1.208-.05.583-.537 1.023-1.112 1.023zm29.055-.727c-.55 0-1.03-.405-1.106-.965-.085-.612.345-1.176.956-1.26 1.452-.196 2.926-.42 4.38-.668.62-.103 1.187.306 1.29.914.104.61-.307 1.188-.914 1.29-1.48.25-2.98.48-4.455.68-.052.01-.102.01-.152.01zm-37.932-.33c-.056 0-.112-.003-.17-.012-1.464-.225-2.96-.48-4.442-.76-.606-.113-1.005-.697-.89-1.305.113-.605.7-1.003 1.304-.893 1.46.275 2.93.526 4.368.747.61.094 1.028.664.935 1.273-.085.555-.56.95-1.104.95zm46.742-1.17c-.52 0-.985-.362-1.094-.89-.124-.605.266-1.197.87-1.32 1.428-.295 2.883-.62 4.326-.968.595-.142 1.203.226 1.348.826.144.6-.226 1.205-.825 1.35-1.467.353-2.946.683-4.398.982-.076.016-.152.023-.227.023zm-55.524-.483c-.08 0-.162-.01-.244-.027-1.454-.327-2.927-.684-4.38-1.062-.598-.155-.956-.767-.8-1.363.153-.597.765-.956 1.36-.8 1.43.37 2.88.722 4.308 1.04.603.136.98.733.847 1.337-.115.52-.577.874-1.09.874zm64.213-1.612c-.49 0-.938-.324-1.077-.82-.165-.594.184-1.21.778-1.375 1.416-.394 2.847-.817 4.248-1.26.59-.19 1.216.142 1.4.73.187.588-.14 1.216-.728 1.4-1.427.45-2.88.882-4.32 1.282-.102.028-.202.042-.3.042zm-72.86-.64c-.106 0-.213-.015-.318-.045-1.42-.422-2.865-.88-4.3-1.357-.584-.195-.9-.83-.705-1.415.196-.584.827-.903 1.415-.705 1.41.47 2.83.92 4.226 1.333.594.176.93.798.756 1.39-.146.485-.59.8-1.072.8zm81.398-2.05c-.46 0-.89-.286-1.053-.746-.205-.583.1-1.22.682-1.428 1.372-.483 2.773-1.005 4.164-1.55.575-.22 1.224.06 1.45.635.223.575-.06 1.224-.636 1.448-1.415.553-2.84 1.084-4.236 1.577-.123.045-.25.064-.372.064zm-89.875-.784c-.13 0-.262-.022-.39-.07-1.4-.522-2.81-1.074-4.184-1.64-.57-.235-.842-.89-.606-1.46.234-.57.89-.842 1.46-.61 1.35.56 2.734 1.1 4.11 1.616.58.215.874.86.658 1.438-.167.45-.594.727-1.047.727zm98.22-2.483c-.434 0-.846-.252-1.027-.675-.245-.566.016-1.224.582-1.47 1.358-.586 2.72-1.2 4.047-1.828.56-.267 1.224-.024 1.487.532.265.56.025 1.225-.532 1.488-1.35.638-2.735 1.265-4.117 1.86-.145.063-.295.094-.442.094zm-106.46-.908c-.153 0-.31-.033-.46-.1-1.356-.615-2.724-1.26-4.064-1.923-.553-.272-.78-.943-.507-1.497.272-.556.944-.783 1.497-.51 1.318.652 2.664 1.287 3.997 1.89.563.254.813.917.56 1.48-.19.412-.595.658-1.02.658zm114.557-2.92c-.405 0-.797-.22-.995-.606-.282-.55-.067-1.224.48-1.506 1.316-.678 2.633-1.384 3.913-2.1.54-.298 1.222-.106 1.522.433.3.54.107 1.22-.432 1.52-1.303.73-2.64 1.448-3.978 2.137-.162.083-.337.123-.51.123zm-122.554-1.028c-.18 0-.36-.042-.527-.133-1.32-.71-2.642-1.446-3.93-2.193-.532-.31-.714-.993-.403-1.528.31-.534.993-.72 1.526-.406 1.265.735 2.563 1.46 3.862 2.156.544.292.748.97.457 1.514-.2.375-.587.59-.986.59zm130.368-3.336c-.38 0-.748-.192-.958-.542-.318-.528-.148-1.216.38-1.534 1.247-.753 2.513-1.545 3.76-2.357.52-.332 1.21-.187 1.546.33.336.517.19 1.21-.328 1.547-1.268.823-2.554 1.63-3.823 2.396-.182.11-.38.16-.577.16zm-138.085-1.142c-.202 0-.407-.056-.592-.17-1.265-.794-2.533-1.618-3.773-2.454-.512-.346-.646-1.04-.302-1.552.344-.512 1.038-.647 1.55-.303 1.22.822 2.47 1.634 3.713 2.413.522.328.68 1.018.354 1.54-.214.34-.577.526-.95.526zm145.586-3.74c-.353 0-.7-.166-.917-.477-.354-.505-.23-1.202.276-1.557 1.21-.847 2.418-1.723 3.59-2.604.495-.37 1.195-.27 1.565.222.37.494.27 1.194-.222 1.566-1.193.896-2.422 1.786-3.653 2.647-.194.14-.417.204-.64.204zm-152.987-1.25c-.228 0-.456-.068-.655-.213-1.22-.883-2.43-1.793-3.602-2.7-.487-.38-.576-1.08-.197-1.568.378-.488 1.08-.576 1.568-.197 1.15.894 2.343 1.788 3.543 2.656.5.363.61 1.063.25 1.563-.22.3-.562.46-.907.46zm160.14-4.12c-.328 0-.65-.143-.873-.417-.387-.48-.31-1.186.17-1.572 1.142-.918 2.288-1.872 3.408-2.837.468-.405 1.174-.35 1.576.117.403.47.35 1.174-.116 1.577-1.14.98-2.305 1.952-3.465 2.885-.207.166-.455.248-.7.248zm-167.194-1.358c-.252 0-.505-.086-.714-.26-1.144-.95-2.293-1.938-3.415-2.937-.46-.41-.502-1.118-.092-1.58.41-.46 1.117-.503 1.578-.092 1.104.98 2.233 1.955 3.358 2.89.475.395.54 1.1.146 1.573-.22.267-.54.405-.86.405zm173.968-4.48c-.302 0-.602-.12-.822-.36-.42-.453-.39-1.16.064-1.58 1.097-1.01 2.176-2.04 3.208-3.058.438-.434 1.146-.43 1.58.01.434.44.43 1.147-.01 1.58-1.05 1.038-2.15 2.085-3.264 3.112-.212.2-.485.296-.755.296zm-180.64-1.46c-.277 0-.555-.102-.772-.307-1.078-1.027-2.158-2.09-3.212-3.164-.432-.44-.425-1.147.015-1.58.44-.435 1.148-.428 1.58.015 1.036 1.053 2.1 2.1 3.16 3.107.446.425.464 1.135.038 1.58-.218.232-.513.35-.81.35zm187.005-4.814c-.278 0-.554-.102-.77-.307-.448-.427-.467-1.134-.043-1.58 1.013-1.067 2.02-2.166 2.997-3.267.41-.462 1.118-.504 1.577-.094.463.41.505 1.116.095 1.578-.992 1.118-2.017 2.234-3.046 3.32-.22.233-.516.35-.81.35zm-193.27-1.56c-.304 0-.604-.123-.824-.362-1.01-1.1-2.018-2.233-2.994-3.37-.402-.47-.35-1.175.12-1.577.468-.4 1.174-.348 1.575.12.96 1.12 1.95 2.233 2.944 3.314.42.455.39 1.162-.065 1.58-.215.196-.486.295-.756.295zm199.2-5.124c-.253 0-.506-.085-.714-.258-.476-.395-.542-1.1-.148-1.574.936-1.13 1.868-2.294 2.77-3.458.378-.488 1.08-.578 1.567-.2.487.378.578 1.08.2 1.568-.916 1.185-1.864 2.366-2.816 3.517-.223.268-.54.406-.86.406zm-205.025-1.66c-.328 0-.652-.145-.873-.42-.936-1.168-1.865-2.366-2.762-3.565-.37-.493-.27-1.193.226-1.563.494-.37 1.194-.27 1.564.226.882 1.178 1.796 2.358 2.717 3.506.386.48.31 1.184-.173 1.57-.206.164-.453.245-.698.245zm210.488-5.406c-.227 0-.456-.068-.653-.212-.5-.36-.612-1.06-.25-1.56.87-1.21 1.72-2.432 2.528-3.635.344-.513 1.035-.65 1.55-.306.514.344.65 1.04.306 1.55-.82 1.224-1.687 2.467-2.572 3.696-.22.304-.56.465-.908.465zm-215.846-1.757c-.354 0-.7-.167-.918-.48-.856-1.227-1.704-2.485-2.52-3.743-.334-.518-.187-1.21.33-1.546.52-.338 1.21-.19 1.547.33.8 1.235 1.634 2.476 2.476 3.682.353.507.228 1.204-.278 1.557-.195.135-.418.2-.638.2zm220.823-5.655c-.2 0-.406-.056-.59-.17-.523-.327-.683-1.017-.356-1.54.783-1.255 1.55-2.53 2.278-3.794.31-.534.99-.72 1.525-.41.534.31.718.993.41 1.527-.742 1.286-1.522 2.585-2.317 3.86-.212.34-.576.528-.95.528zm-225.688-1.855c-.38 0-.75-.193-.96-.542-.767-1.277-1.527-2.592-2.258-3.907-.3-.54-.106-1.22.434-1.52.538-.302 1.22-.106 1.52.434.72 1.292 1.467 2.586 2.222 3.842.318.528.147 1.215-.382 1.533-.182.11-.38.16-.576.16zm230.153-5.873c-.18 0-.358-.043-.526-.133-.546-.29-.75-.968-.46-1.514.7-1.312 1.376-2.636 2.014-3.937.27-.556.94-.784 1.495-.513.554.27.783.94.51 1.496-.646 1.323-1.337 2.67-2.05 4.007-.2.38-.59.593-.986.593zM89.003 298.74c-.405 0-.798-.223-.995-.608-.685-1.336-1.354-2.702-1.99-4.055-.263-.56-.022-1.225.536-1.486.562-.265 1.225-.02 1.487.536.627 1.33 1.285 2.672 1.958 3.986.28.55.064 1.223-.485 1.505-.163.083-.337.123-.51.123zm238.43-6.055c-.152 0-.308-.032-.457-.1-.563-.252-.814-.913-.56-1.478.597-1.332 1.183-2.7 1.74-4.063.233-.57.886-.843 1.458-.61.57.233.845.885.61 1.457-.566 1.388-1.163 2.777-1.77 4.134-.186.415-.595.66-1.02.66zm-242.238-2.05c-.434 0-.847-.254-1.028-.68-.594-1.382-1.17-2.79-1.71-4.182-.223-.574.063-1.223.637-1.445.578-.23 1.224.06 1.447.636.533 1.37 1.1 2.752 1.683 4.114.243.567-.02 1.224-.587 1.467-.144.064-.293.092-.44.092zm245.612-6.2c-.13 0-.26-.023-.388-.07-.58-.215-.876-.858-.663-1.438.508-1.37 1-2.78 1.466-4.183.192-.586.825-.905 1.412-.71.586.195.903.827.71 1.413-.474 1.43-.976 2.86-1.49 4.255-.168.45-.595.732-1.05.732zm-248.86-2.154c-.462 0-.894-.29-1.056-.75-.49-1.407-.97-2.853-1.417-4.293-.184-.59.145-1.216.734-1.4.588-.187 1.216.146 1.4.735.44 1.417.91 2.836 1.395 4.222.205.582-.102 1.22-.685 1.424-.12.043-.246.063-.368.063zm251.67-6.334c-.104 0-.21-.015-.315-.045-.593-.174-.932-.794-.758-1.387.415-1.414.81-2.853 1.176-4.273.152-.6.766-.96 1.36-.805.598.153.957.763.804 1.36-.37 1.443-.772 2.907-1.194 4.347-.144.487-.59.803-1.073.803zm-254.335-2.212c-.49 0-.94-.326-1.077-.823-.397-1.444-.773-2.913-1.12-4.365-.143-.602.23-1.204.83-1.347.598-.148 1.202.228 1.345.827.34 1.43.71 2.873 1.1 4.295.164.594-.187 1.21-.78 1.373-.1.027-.2.04-.298.04zm256.558-6.446c-.08 0-.16-.01-.24-.025-.604-.134-.984-.73-.853-1.332.32-1.45.616-2.91.88-4.345.112-.605.69-1.01 1.303-.896.606.11 1.008.693.896 1.302-.27 1.457-.57 2.943-.894 4.42-.117.522-.578.877-1.092.877zm-258.628-2.25c-.52 0-.986-.367-1.094-.898-.296-1.463-.57-2.954-.817-4.434-.1-.61.313-1.186.92-1.286.608-.103 1.186.31 1.287.92.242 1.453.512 2.92.803 4.356.12.604-.27 1.194-.874 1.317-.076.015-.15.023-.224.023zm260.253-6.54c-.055 0-.11-.005-.166-.013-.613-.09-1.034-.66-.94-1.27.214-1.45.41-2.93.58-4.396.07-.613.607-1.053 1.237-.983.612.07 1.053.625.98 1.24-.17 1.49-.37 2.99-.59 4.467-.082.555-.558.954-1.103.954zM75.742 256.22c-.552 0-1.032-.41-1.106-.973-.195-1.487-.368-2.994-.512-4.48-.06-.613.39-1.16 1.005-1.22.607-.06 1.16.39 1.22 1.004.14 1.46.31 2.943.5 4.406.08.612-.35 1.174-.96 1.255-.05.007-.1.01-.15.01zm262.742-6.604c-.03 0-.06-.002-.09-.004-.616-.05-1.075-.588-1.025-1.204.116-1.46.21-2.948.28-4.422.026-.617.552-1.106 1.166-1.065.617.03 1.094.554 1.064 1.17-.067 1.5-.164 3.014-.283 4.5-.047.584-.535 1.027-1.113 1.027zM74.88 247.323c-.586 0-1.077-.456-1.115-1.048-.094-1.488-.164-3.004-.207-4.505-.02-.616.468-1.132 1.084-1.15.632.006 1.132.47 1.15 1.087.042 1.475.11 2.964.203 4.426.04.617-.43 1.148-1.045 1.188-.023.003-.047.004-.07.004zm264.018-6.636h-.014c-.617-.008-1.11-.515-1.104-1.132.006-.56.01-1.12.01-1.68 0-.92-.01-1.838-.028-2.755-.014-.616.477-1.128 1.094-1.14h.024c.606 0 1.104.484 1.116 1.094.02.933.03 1.865.03 2.8 0 .57-.005 1.14-.012 1.708-.005.612-.505 1.105-1.116 1.105zm-264.278-2.3h-.006c-.617-.003-1.115-.507-1.112-1.123.007-1.495.04-3.012.097-4.506.02-.616.525-1.08 1.157-1.075.617.024 1.098.544 1.074 1.16-.055 1.47-.087 2.96-.094 4.43-.003.616-.503 1.114-1.117 1.114zm264.09-6.638c-.59 0-1.08-.464-1.114-1.06-.08-1.464-.187-2.95-.316-4.42-.055-.615.398-1.158 1.014-1.213.62-.06 1.158.4 1.212 1.015.133 1.493.24 3.007.323 4.496.03.616-.44 1.143-1.058 1.177l-.062.002zm-263.746-2.296c-.027 0-.055 0-.082-.003-.616-.044-1.078-.58-1.034-1.194.107-1.494.242-3.005.4-4.49.065-.615.62-1.063 1.23-.994.613.065 1.058.616.992 1.23-.155 1.46-.288 2.946-.394 4.415-.042.588-.532 1.037-1.112 1.037zm262.956-6.61c-.557 0-1.038-.415-1.108-.98-.18-1.455-.387-2.932-.616-4.39-.098-.61.32-1.182.928-1.278.623-.095 1.184.32 1.278.93.235 1.482.446 2.984.63 4.465.075.613-.36 1.17-.974 1.246-.046.005-.093.008-.138.008zm-262.01-2.28c-.053 0-.104-.003-.158-.01-.61-.087-1.036-.652-.95-1.264.207-1.475.445-2.973.706-4.45.106-.61.688-1.02 1.294-.908.608.106 1.015.688.907 1.295-.258 1.453-.49 2.926-.695 4.377-.08.558-.558.962-1.106.962zm260.614-6.55c-.524 0-.993-.37-1.097-.905-.28-1.448-.588-2.907-.915-4.337-.14-.602.237-1.202.84-1.34.6-.137 1.2.238 1.338.84.334 1.455.646 2.94.933 4.412.116.605-.28 1.192-.885 1.31-.072.013-.144.02-.214.02zm-259.064-2.25c-.077 0-.155-.01-.233-.025-.604-.13-.99-.723-.86-1.326.31-1.465.648-2.943 1.01-4.395.146-.6.753-.964 1.352-.817.6.148.963.755.814 1.354-.354 1.427-.687 2.88-.992 4.32-.113.524-.576.885-1.093.885zm257.067-6.46c-.495 0-.946-.33-1.08-.833-.377-1.424-.785-2.86-1.21-4.26-.18-.59.154-1.216.745-1.395.592-.183 1.214.154 1.394.746.433 1.427.848 2.887 1.232 4.338.158.597-.197 1.21-.794 1.367-.095.026-.192.04-.287.04zM79.61 203.086c-.103 0-.205-.014-.308-.043-.594-.17-.938-.788-.77-1.38.412-1.446.853-2.897 1.31-4.315.188-.59.816-.916 1.405-.724.588.188.91.818.722 1.406-.45 1.395-.884 2.82-1.288 4.24-.14.494-.587.814-1.074.814zm252.326-6.354c-.466 0-.9-.293-1.06-.758-.473-1.39-.978-2.797-1.503-4.183-.22-.577.07-1.223.648-1.44.58-.217 1.225.07 1.443.648.533 1.41 1.05 2.84 1.53 4.253.2.585-.112 1.22-.697 1.42-.12.04-.24.06-.36.06zM82.35 194.577c-.127 0-.255-.02-.38-.066-.58-.207-.883-.85-.673-1.43.507-1.407 1.044-2.82 1.595-4.2.23-.573.878-.854 1.452-.624.573.23.853.88.623 1.452-.54 1.357-1.068 2.747-1.567 4.13-.165.457-.594.74-1.05.74zm246.408-6.223c-.438 0-.852-.26-1.03-.687-.573-1.365-1.174-2.733-1.787-4.067-.256-.562-.01-1.225.55-1.483.56-.257 1.227-.012 1.48.55.626 1.356 1.237 2.748 1.818 4.136.24.57-.03 1.226-.598 1.464-.142.06-.29.087-.432.087zM85.65 186.3c-.15 0-.302-.03-.448-.094-.564-.25-.822-.908-.573-1.474.6-1.368 1.23-2.743 1.876-4.087.268-.557.935-.79 1.49-.523.558.268.79.936.524 1.492-.634 1.32-1.255 2.673-1.846 4.017-.183.42-.593.67-1.023.67zm239.367-6.085c-.408 0-.803-.226-1-.616-.665-1.328-1.357-2.65-2.058-3.936-.297-.542-.1-1.22.444-1.517.542-.296 1.22-.097 1.516.445.714 1.308 1.42 2.653 2.095 4.002.276.552.055 1.223-.497 1.5-.162.082-.333.12-.5.12zM89.513 178.26c-.175 0-.353-.04-.518-.127-.547-.286-.76-.96-.473-1.51.69-1.317 1.414-2.647 2.152-3.95.305-.538.985-.726 1.523-.422.536.307.725.99.42 1.525-.725 1.282-1.437 2.59-2.114 3.886-.2.383-.588.6-.99.6zm231.22-5.906c-.384 0-.756-.196-.965-.55-.744-1.263-1.525-2.535-2.32-3.783-.33-.52-.178-1.21.344-1.542.522-.33 1.21-.178 1.543.343.808 1.27 1.602 2.565 2.358 3.85.314.53.138 1.217-.394 1.53-.18.105-.375.155-.57.155zm-226.82-1.858c-.2 0-.4-.053-.584-.164-.528-.322-.693-1.01-.37-1.537.774-1.27 1.587-2.547 2.413-3.8.34-.516 1.034-.657 1.55-.317s.656 1.034.316 1.55c-.814 1.23-1.61 2.487-2.375 3.734-.21.345-.578.534-.954.534zm222.016-5.69c-.358 0-.708-.17-.925-.487-.83-1.213-1.693-2.43-2.568-3.62-.365-.496-.26-1.196.237-1.562.497-.366 1.196-.26 1.563.236.89 1.21 1.768 2.447 2.61 3.68.35.508.22 1.204-.29 1.553-.193.13-.412.195-.63.195zm-217.104-1.763c-.223 0-.45-.066-.646-.206-.502-.356-.62-1.054-.264-1.56.86-1.214 1.76-2.436 2.666-3.628.372-.494 1.075-.59 1.565-.215.492.373.587 1.075.213 1.566-.893 1.174-1.774 2.374-2.62 3.57-.218.308-.562.47-.913.47zm211.8-5.444c-.33 0-.657-.148-.878-.427-.905-1.146-1.85-2.302-2.805-3.436-.398-.472-.34-1.177.133-1.575.472-.4 1.178-.34 1.574.133.973 1.15 1.932 2.327 2.852 3.492.383.485.3 1.188-.185 1.57-.206.163-.45.24-.692.24zm-206.393-1.667c-.248 0-.498-.082-.705-.25-.48-.392-.55-1.096-.16-1.574.947-1.164 1.925-2.323 2.903-3.444.407-.464 1.113-.513 1.578-.107.465.405.513 1.11.107 1.576-.963 1.104-1.924 2.243-2.856 3.387-.22.27-.54.41-.867.41zm200.622-5.166c-.305 0-.608-.123-.828-.368-.98-1.084-2-2.174-3.028-3.24-.43-.443-.417-1.15.027-1.58.44-.43 1.15-.417 1.58.027 1.046 1.083 2.08 2.19 3.077 3.293.414.46.378 1.165-.08 1.58-.212.193-.48.288-.75.288zM110.11 149.2c-.273 0-.548-.098-.763-.3-.45-.42-.476-1.128-.055-1.58 1.022-1.096 2.076-2.186 3.13-3.243.437-.437 1.144-.437 1.58 0 .438.435.438 1.144.002 1.58-1.037 1.04-2.07 2.11-3.077 3.19-.22.236-.518.354-.817.354zm188.535-4.86c-.28 0-.56-.103-.777-.312-1.054-1.02-2.143-2.04-3.235-3.028-.458-.414-.493-1.12-.08-1.578.416-.46 1.124-.492 1.58-.08 1.11 1.006 2.217 2.042 3.29 3.08.443.43.455 1.136.025 1.58-.22.226-.51.34-.803.34zm-182.22-1.466c-.3 0-.597-.118-.816-.354-.424-.45-.4-1.158.05-1.58 1.094-1.024 2.22-2.044 3.34-3.027.466-.406 1.17-.358 1.578.104.405.465.36 1.17-.105 1.578-1.104.967-2.21 1.97-3.286 2.977-.217.2-.492.302-.766.302zm175.593-4.526c-.255 0-.51-.087-.72-.265-1.128-.953-2.282-1.896-3.432-2.803-.484-.383-.566-1.085-.185-1.57.385-.484 1.088-.568 1.57-.185 1.17.922 2.343 1.88 3.49 2.85.47.4.53 1.105.13 1.576-.22.264-.534.4-.85.4zM123.15 136.98c-.323 0-.645-.14-.865-.408-.392-.48-.32-1.183.157-1.573 1.16-.95 2.352-1.893 3.537-2.8.49-.374 1.19-.28 1.565.21.374.49.28 1.192-.21 1.567-1.166.89-2.337 1.816-3.48 2.75-.207.17-.457.253-.706.253zm161.858-4.167c-.23 0-.462-.07-.66-.218-1.186-.872-2.4-1.735-3.61-2.565-.51-.35-.638-1.046-.29-1.555.35-.51 1.045-.638 1.555-.29 1.23.845 2.466 1.722 3.67 2.61.497.365.603 1.065.236 1.562-.22.298-.56.456-.903.456zm-154.75-1.26c-.35 0-.692-.163-.91-.47-.358-.503-.24-1.2.262-1.56 1.226-.872 2.478-1.73 3.72-2.554.513-.343 1.208-.2 1.548.312.34.515.2 1.21-.314 1.55-1.22.808-2.45 1.653-3.657 2.512-.198.14-.424.208-.648.208zm147.388-3.79c-.206 0-.414-.058-.6-.177-1.236-.788-2.505-1.567-3.77-2.315-.532-.312-.708-1-.394-1.53.313-.532.998-.707 1.53-.393 1.287.76 2.577 1.554 3.835 2.355.52.333.673 1.024.34 1.544-.21.335-.57.518-.94.518zm-139.928-1.152c-.375 0-.742-.187-.953-.53-.323-.526-.16-1.215.367-1.538 1.277-.785 2.584-1.558 3.884-2.3.536-.303 1.22-.117 1.524.42.305.536.118 1.22-.42 1.524-1.276.73-2.562 1.488-3.817 2.26-.183.114-.385.167-.585.167zm132.25-3.39c-.183 0-.366-.043-.536-.136-1.29-.706-2.607-1.397-3.916-2.057-.55-.277-.772-.95-.495-1.5.28-.553.95-.774 1.504-.496 1.33.67 2.67 1.374 3.98 2.09.542.298.74.977.446 1.52-.204.37-.588.58-.983.58zm-124.472-1.036c-.4 0-.79-.218-.99-.598-.287-.547-.076-1.224.47-1.51 1.325-.697 2.682-1.38 4.033-2.033.553-.27 1.223-.034 1.49.52.27.558.034 1.225-.52 1.493-1.33.642-2.664 1.313-3.966 1.998-.165.088-.343.13-.52.13zm116.506-2.975c-.156 0-.315-.034-.467-.105-1.338-.617-2.698-1.22-4.044-1.786-.566-.24-.834-.896-.594-1.465.24-.57.896-.835 1.464-.596 1.368.575 2.752 1.187 4.11 1.815.562.26.806.923.548 1.483-.19.41-.593.65-1.016.65zm-108.44-.92c-.43 0-.84-.25-1.023-.667-.25-.564.004-1.226.57-1.475 1.37-.604 2.77-1.195 4.162-1.754.572-.23 1.224.048 1.453.62.23.573-.048 1.225-.62 1.454-1.37.55-2.747 1.13-4.094 1.726-.147.065-.3.096-.45.096zm100.23-2.543c-.134 0-.27-.023-.4-.074-1.37-.523-2.773-1.032-4.165-1.51-.584-.2-.895-.837-.693-1.42.2-.586.836-.895 1.42-.695 1.415.486 2.84 1.003 4.237 1.537.578.22.867.866.647 1.443-.17.446-.596.72-1.045.72zm-91.917-.796c-.457 0-.886-.28-1.05-.736-.21-.58.09-1.222.67-1.432 1.414-.512 2.853-1.005 4.275-1.466.583-.19 1.218.13 1.407.72.19.586-.13 1.217-.72 1.407-1.397.454-2.812.94-4.202 1.442-.125.047-.253.068-.38.068zm83.463-2.107c-.108 0-.218-.016-.326-.05-1.404-.43-2.837-.84-4.26-1.223-.597-.16-.95-.775-.79-1.37.16-.598.775-.953 1.37-.79 1.448.39 2.905.81 4.332 1.244.59.18.923.806.742 1.396-.146.482-.59.792-1.068.792zm-74.935-.655c-.486 0-.934-.32-1.074-.81-.17-.595.17-1.213.765-1.384 1.432-.41 2.896-.804 4.354-1.168.6-.15 1.204.214 1.353.813.15.597-.214 1.204-.813 1.353-1.43.36-2.87.745-4.278 1.15-.103.03-.207.045-.31.045zm66.306-1.666c-.086 0-.17-.01-.257-.028-1.43-.333-2.887-.646-4.332-.93-.604-.12-1-.71-.88-1.314.12-.605.703-.997 1.314-.88 1.47.29 2.95.607 4.406.946.602.14.977.74.837 1.342-.12.516-.58.865-1.088.865zm-57.64-.503c-.515 0-.98-.36-1.09-.885-.13-.604.254-1.198.857-1.327 1.46-.313 2.946-.605 4.423-.87.607-.107 1.19.297 1.298.905.11.608-.296 1.19-.903 1.298-1.45.26-2.914.548-4.348.855-.078.017-.158.025-.235.025zm48.87-1.226c-.06 0-.12-.004-.18-.015-1.452-.235-2.927-.448-4.386-.634-.612-.078-1.046-.64-.967-1.25.077-.612.64-1.044 1.25-.97 1.483.19 2.984.407 4.46.647.608.1 1.022.673.925 1.283-.09.55-.563.94-1.102.94zm-40.072-.35c-.548 0-1.025-.4-1.105-.958-.088-.61.337-1.178.947-1.266 1.484-.213 2.988-.403 4.47-.565.62-.072 1.167.375 1.233.99.067.612-.375 1.165-.988 1.23-1.458.16-2.937.35-4.397.56-.054.007-.107.01-.16.01zm31.206-.778c-.034 0-.07 0-.105-.005-1.46-.135-2.945-.25-4.418-.335-.615-.037-1.086-.565-1.05-1.182.036-.617.57-1.092 1.183-1.05 1.497.088 3.01.202 4.493.34.613.058 1.064.603 1.01 1.217-.056.58-.543 1.014-1.114 1.014zm-22.323-.193c-.58 0-1.067-.445-1.11-1.032-.047-.615.414-1.152 1.03-1.2 1.485-.11 3-.2 4.5-.26.61-.02 1.136.45 1.16 1.07.027.615-.452 1.137-1.07 1.162-1.474.06-2.96.147-4.422.258l-.087.003zm13.4-.332h-.03c-1.114-.03-2.206-.047-3.357-.042l-1.072.005h-.01c-.612 0-1.11-.495-1.116-1.108-.005-.618.49-1.123 1.108-1.128l1.09-.004c1.106-.004 2.28.014 3.418.043.617.016 1.104.528 1.09 1.146-.017.605-.514 1.088-1.12 1.088zm-3.63 326.898c-.4 0-.802-.002-1.203-.006-.616-.005-1.113-.51-1.108-1.127.003-.613.503-1.108 1.116-1.108h.01c.474.004.95.01 1.425.004 1.488 0 2.97-.014 4.446-.047.618-.015 1.13.474 1.144 1.092.015.616-.474 1.13-1.09 1.144-1.576.033-3.154.05-4.74.05zm-5.66-.088h-.033c-1.5-.046-2.998-.108-4.49-.187-.616-.032-1.09-.56-1.058-1.175.03-.617.557-1.092 1.172-1.058 1.477.077 2.957.138 4.44.183.618.02 1.103.533 1.085 1.15-.018.607-.515 1.087-1.117 1.087zm14.84-.114c-.595 0-1.09-.47-1.116-1.068-.028-.615.45-1.14 1.065-1.166 1.48-.068 2.96-.152 4.436-.252.607-.045 1.148.424 1.19 1.04.042.616-.425 1.148-1.04 1.19-1.49.1-2.986.186-4.487.254l-.05.002zm-23.764-.357c-.028 0-.057-.004-.086-.006-1.497-.112-2.99-.242-4.478-.39-.614-.06-1.063-.606-1.002-1.222.06-.616.61-1.065 1.222-1.002 1.47.146 2.946.273 4.427.386.613.047 1.074.583 1.03 1.2-.047.587-.536 1.033-1.115 1.033zm32.68-.25c-.57 0-1.06-.44-1.11-1.02-.057-.614.396-1.158 1.01-1.214 1.48-.134 2.953-.286 4.42-.454.632-.073 1.17.37 1.238.983.07.613-.37 1.168-.982 1.237-1.485.17-2.977.323-4.473.46-.036.004-.07.006-.104.006zm-41.575-.627c-.043 0-.09-.003-.134-.01-1.49-.18-2.976-.378-4.456-.593-.612-.088-1.035-.655-.946-1.266.09-.61.657-1.034 1.267-.947 1.465.213 2.933.41 4.405.59.613.073 1.05.63.976 1.242-.07.566-.55.983-1.11.983zm50.458-.39c-.55 0-1.03-.407-1.106-.968-.082-.61.345-1.174.956-1.26 1.47-.202 2.936-.42 4.396-.655.62-.096 1.184.317 1.28.928.1.61-.314 1.183-.925 1.28-1.48.24-2.96.46-4.447.664-.05.007-.102.01-.153.01zm-59.302-.894c-.062 0-.125-.007-.188-.018-1.48-.25-2.954-.516-4.423-.798-.606-.116-1.004-.703-.887-1.31.116-.606.705-1.002 1.31-.887 1.45.28 2.91.542 4.372.79.607.103 1.02.68.915 1.29-.09.546-.565.932-1.1.932zm68.126-.528c-.527 0-.997-.377-1.097-.916-.112-.607.29-1.19.896-1.302 1.46-.27 2.914-.556 4.36-.857.6-.13 1.196.26 1.32.865.13.604-.26 1.195-.863 1.322-1.465.307-2.935.596-4.41.868-.07.013-.137.02-.205.02zm-76.902-1.162c-.078 0-.158-.008-.237-.025-1.466-.316-2.927-.65-4.38-1-.602-.145-.97-.748-.826-1.35.144-.6.746-.967 1.348-.824 1.438.348 2.882.678 4.332.99.604.133.986.727.856 1.33-.114.523-.577.88-1.092.88zm85.654-.664c-.51 0-.968-.35-1.088-.864-.14-.602.233-1.203.835-1.343 1.445-.338 2.884-.69 4.316-1.06.595-.155 1.206.205 1.36.804.154.598-.206 1.208-.803 1.36-1.45.374-2.906.73-4.367 1.07-.084.02-.17.03-.253.03zm-94.344-1.426c-.096 0-.19-.013-.288-.038-1.45-.385-2.895-.786-4.33-1.203-.594-.175-.935-.795-.763-1.388.17-.593.79-.934 1.384-.762 1.42.414 2.848.81 4.28 1.19.598.158.953.77.795 1.367-.134.5-.586.833-1.08.833zm103-.8c-.487 0-.935-.323-1.074-.817-.168-.593.178-1.21.772-1.378 1.427-.403 2.85-.82 4.263-1.256.597-.18 1.215.15 1.396.74.18.59-.15 1.213-.74 1.394-1.432.44-2.868.862-4.313 1.27-.1.03-.203.044-.303.044zm-111.585-1.69c-.112 0-.226-.018-.337-.054-1.43-.45-2.855-.918-4.27-1.4-.585-.2-.897-.834-.698-1.42.2-.586.833-.896 1.418-.696 1.4.477 2.81.938 4.223 1.386.59.186.916.813.73 1.4-.15.478-.593.783-1.066.783zm120.147-.942c-.468 0-.904-.296-1.06-.766-.195-.585.12-1.22.707-1.414 1.41-.47 2.816-.955 4.214-1.455.58-.206 1.22.095 1.43.675.207.58-.095 1.222-.676 1.43-1.413.507-2.836.998-4.264 1.474-.116.038-.236.056-.352.056zm-128.61-1.943c-.127 0-.257-.022-.384-.07-1.408-.516-2.81-1.048-4.202-1.595-.574-.226-.857-.874-.632-1.45.226-.573.873-.857 1.45-.632 1.376.542 2.762 1.068 4.153 1.58.58.212.877.854.664 1.434-.166.452-.593.733-1.05.733zm137.05-1.083c-.447 0-.87-.273-1.042-.717-.222-.576.065-1.224.642-1.445 1.388-.535 2.768-1.084 4.14-1.65.57-.232 1.225.04 1.46.61.234.57-.037 1.224-.608 1.46-1.388.57-2.784 1.127-4.188 1.667-.133.05-.27.075-.403.075zm-145.355-2.18c-.144 0-.29-.03-.432-.088-1.378-.58-2.75-1.174-4.11-1.782-.564-.252-.817-.912-.565-1.476s.914-.82 1.477-.565c1.347.605 2.702 1.19 4.063 1.763.57.24.838.894.6 1.463-.18.43-.596.687-1.033.687zm153.646-1.232c-.43 0-.84-.25-1.023-.67-.248-.564.01-1.223.574-1.472 1.362-.598 2.716-1.21 4.06-1.837.558-.26 1.225-.02 1.485.543.26.56.02 1.225-.54 1.486-1.36.632-2.73 1.252-4.107 1.856-.147.065-.3.095-.45.095zm-161.78-2.405c-.16 0-.323-.034-.478-.108-1.352-.64-2.694-1.297-4.028-1.968-.552-.28-.774-.95-.496-1.503.278-.553.948-.774 1.5-.497 1.32.665 2.647 1.314 3.98 1.946.56.264.798.93.533 1.488-.19.404-.592.64-1.01.64zm169.902-1.382c-.412 0-.81-.23-1.003-.623-.274-.554-.05-1.224.505-1.497 1.332-.66 2.655-1.332 3.97-2.02.544-.285 1.22-.075 1.508.47.286.548.075 1.224-.472 1.51-1.328.697-2.666 1.378-4.014 2.045-.16.077-.33.115-.495.115zm-177.867-2.625c-.177 0-.356-.043-.523-.13-1.32-.702-2.632-1.42-3.936-2.15-.54-.304-.73-.984-.428-1.523.3-.538.98-.73 1.52-.428 1.288.725 2.585 1.433 3.89 2.127.546.29.752.966.463 1.51-.2.378-.587.594-.988.594zm185.8-1.53c-.393 0-.774-.21-.978-.577-.298-.54-.104-1.22.438-1.52 1.298-.717 2.59-1.45 3.87-2.2.532-.31 1.217-.13 1.528.404.31.533.13 1.217-.402 1.528-1.295.758-2.6 1.5-3.913 2.227-.172.094-.357.14-.54.14zM107.5 406.89c-.194 0-.39-.05-.57-.156-1.287-.762-2.565-1.54-3.834-2.33-.523-.325-.684-1.016-.357-1.54.326-.524 1.015-.682 1.54-.356 1.252.78 2.516 1.55 3.79 2.303.53.315.706 1 .392 1.53-.21.353-.58.55-.964.55zm201.31-1.676c-.376 0-.742-.19-.953-.533-.324-.524-.16-1.214.367-1.537 1.264-.776 2.52-1.567 3.765-2.373.517-.333 1.21-.186 1.544.333.334.52.186 1.21-.333 1.546-1.26.813-2.53 1.614-3.81 2.4-.18.11-.383.165-.582.165zm-208.884-3.042c-.21 0-.422-.06-.61-.183-1.253-.82-2.496-1.654-3.73-2.504-.507-.35-.636-1.046-.285-1.554.35-.51 1.047-.638 1.557-.288 1.217.84 2.445 1.663 3.684 2.474.517.338.66 1.03.323 1.547-.215.328-.572.507-.936.507zm216.4-1.818c-.356 0-.71-.173-.925-.49-.345-.51-.212-1.206.3-1.553 1.226-.833 2.443-1.68 3.65-2.542.504-.357 1.2-.24 1.56.262.36.504.24 1.2-.26 1.56-1.223.87-2.454 1.728-3.696 2.572-.192.13-.41.192-.626.192zM92.57 397.11c-.225 0-.453-.07-.65-.21-1.214-.877-2.418-1.767-3.61-2.67-.49-.37-.59-1.073-.217-1.565.372-.492 1.072-.592 1.565-.218 1.18.894 2.37 1.773 3.57 2.64.5.36.612 1.06.25 1.562-.216.3-.56.462-.906.462zm231.043-1.95c-.34 0-.677-.155-.896-.45-.37-.493-.27-1.193.227-1.563 1.188-.89 2.365-1.79 3.53-2.705.485-.38 1.188-.295 1.57.19.38.485.295 1.187-.19 1.568-1.18.927-2.37 1.838-3.572 2.736-.2.15-.435.222-.668.222zm-238.16-3.44c-.243 0-.488-.08-.693-.242-1.174-.93-2.336-1.873-3.487-2.83-.476-.396-.54-1.1-.146-1.574.395-.476 1.1-.54 1.573-.146 1.14.944 2.288 1.878 3.447 2.8.483.382.565 1.085.182 1.57-.223.276-.55.422-.88.422zm245.2-2.08c-.323 0-.644-.14-.864-.407-.393-.478-.323-1.183.154-1.573 1.145-.94 2.28-1.895 3.404-2.862.467-.4 1.174-.35 1.576.12.402.47.35 1.175-.12 1.577-1.137.977-2.284 1.94-3.442 2.893-.207.17-.458.254-.707.254zm-252.07-3.63c-.26 0-.52-.09-.732-.272-1.13-.984-2.247-1.98-3.354-2.987-.457-.414-.49-1.122-.074-1.58.416-.455 1.125-.49 1.58-.073 1.095.997 2.2 1.98 3.318 2.953.465.405.515 1.11.11 1.578-.222.254-.532.384-.845.384zm258.852-2.2c-.307 0-.61-.124-.83-.37-.413-.46-.377-1.165.083-1.58 1.102-.99 2.19-1.992 3.27-3.01.448-.424 1.157-.4 1.58.048.423.45.402 1.156-.047 1.58-1.09 1.028-2.192 2.044-3.31 3.047-.212.19-.48.286-.745.286zm-265.457-3.814c-.277 0-.555-.103-.77-.31-1.086-1.032-2.158-2.08-3.22-3.136-.437-.436-.437-1.144-.002-1.58.436-.438 1.144-.44 1.58-.003 1.05 1.044 2.11 2.077 3.183 3.1.445.426.463 1.135.037 1.58-.22.232-.515.348-.81.348zm271.964-2.314c-.287 0-.576-.113-.795-.334-.434-.44-.428-1.148.012-1.582 1.054-1.04 2.097-2.092 3.13-3.155.43-.442 1.138-.45 1.58-.02.442.43.453 1.137.022 1.58-1.042 1.076-2.098 2.14-3.164 3.19-.218.213-.5.323-.785.323zM65.65 373.686c-.295 0-.588-.116-.808-.346-1.037-1.08-2.063-2.174-3.074-3.28-.417-.454-.386-1.16.07-1.578.454-.42 1.16-.388 1.578.068 1 1.093 2.014 2.175 3.04 3.244.426.444.41 1.153-.034 1.58-.216.207-.494.312-.773.312zm284.516-2.42c-.27 0-.545-.1-.76-.3-.452-.42-.48-1.128-.06-1.58 1.006-1.086 2-2.183 2.982-3.292.41-.463 1.117-.505 1.577-.098.463.41.506 1.117.098 1.58-.992 1.12-2 2.23-3.017 3.33-.22.238-.518.36-.82.36zM59.61 367.093c-.31 0-.62-.13-.84-.38-.988-1.13-1.963-2.27-2.924-3.42-.396-.473-.333-1.18.14-1.574.474-.396 1.18-.334 1.574.14.95 1.14 1.914 2.266 2.89 3.38.407.464.36 1.17-.103 1.578-.213.184-.475.275-.737.275zm296.48-2.52c-.255 0-.512-.087-.722-.265-.47-.398-.53-1.104-.13-1.576.955-1.13 1.898-2.27 2.828-3.423.387-.48 1.092-.558 1.572-.167.48.388.555 1.09.167 1.57-.94 1.167-1.896 2.32-2.862 3.464-.22.262-.535.397-.853.397zM53.875 360.23c-.327 0-.652-.143-.873-.42-.936-1.173-1.857-2.354-2.766-3.55-.375-.49-.28-1.19.212-1.564.49-.375 1.192-.28 1.566.212.897 1.18 1.81 2.35 2.733 3.507.386.482.307 1.187-.176 1.57-.205.165-.45.246-.696.246zm307.828-2.606c-.237 0-.478-.076-.68-.233-.49-.376-.58-1.077-.204-1.565.902-1.173 1.793-2.355 2.67-3.55.366-.495 1.064-.603 1.562-.237.497.365.603 1.065.238 1.563-.887 1.208-1.787 2.405-2.7 3.59-.22.285-.552.435-.887.435zm-313.246-4.51c-.346 0-.687-.16-.905-.46-.882-1.215-1.75-2.44-2.603-3.672-.353-.508-.226-1.205.28-1.557.507-.35 1.203-.224 1.556.283.844 1.22 1.7 2.43 2.572 3.63.363.5.252 1.2-.248 1.563-.2.145-.428.214-.656.214zm318.536-2.685c-.222 0-.445-.066-.64-.203-.507-.354-.63-1.05-.274-1.556.85-1.212 1.684-2.433 2.505-3.663.343-.515 1.04-.65 1.55-.31.514.343.652 1.038.31 1.55-.83 1.245-1.677 2.48-2.535 3.706-.22.31-.565.477-.917.477zm-323.627-4.674c-.363 0-.72-.177-.935-.502-.824-1.253-1.636-2.516-2.433-3.787-.327-.523-.17-1.215.354-1.542.52-.33 1.213-.17 1.54.354.79 1.26 1.59 2.506 2.406 3.743.34.516.197 1.208-.317 1.548-.19.126-.403.186-.614.186zm328.583-2.752c-.206 0-.413-.056-.6-.175-.52-.33-.675-1.02-.344-1.543.792-1.248 1.57-2.507 2.335-3.773.32-.528 1.01-.696 1.536-.38.528.32.697 1.008.38 1.536-.775 1.28-1.563 2.554-2.363 3.816-.212.335-.574.52-.944.52zm-333.34-4.832c-.38 0-.752-.195-.96-.547-.77-1.29-1.52-2.59-2.26-3.896-.303-.54-.112-1.22.425-1.526.537-.305 1.22-.113 1.522.424.73 1.293 1.475 2.576 2.232 3.852.313.53.14 1.217-.39 1.533-.18.106-.376.157-.57.157zm337.947-2.808c-.188 0-.38-.048-.555-.148-.535-.306-.72-.99-.414-1.525.733-1.28 1.454-2.57 2.16-3.872.294-.54.97-.744 1.515-.448.542.293.743.97.45 1.513-.714 1.315-1.442 2.623-2.186 3.92-.206.36-.583.56-.97.56zm-342.347-4.99c-.398 0-.785-.216-.986-.593-.707-1.32-1.4-2.653-2.077-3.994-.278-.552-.058-1.224.493-1.503.552-.278 1.223-.057 1.502.494.67 1.325 1.354 2.642 2.054 3.95.29.546.085 1.223-.46 1.515-.168.09-.348.133-.526.133zm346.602-2.85c-.172 0-.346-.04-.51-.124-.55-.282-.766-.955-.484-1.504.674-1.315 1.335-2.638 1.98-3.968.27-.557.934-.79 1.492-.52.556.27.787.94.518 1.495-.652 1.345-1.318 2.684-2 4.012-.2.388-.59.61-.996.61zm-350.64-5.147c-.42 0-.82-.235-1.01-.638-.647-1.356-1.277-2.72-1.893-4.093-.255-.563-.003-1.225.56-1.478.563-.25 1.225 0 1.48.562.606 1.357 1.23 2.705 1.87 4.043.264.557.027 1.226-.53 1.49-.155.076-.32.11-.48.11zM384.7 319.5c-.157 0-.314-.03-.465-.1-.562-.258-.81-.92-.552-1.482.613-1.343 1.21-2.692 1.794-4.052.242-.567.896-.833 1.467-.586.567.244.83.9.586 1.47-.59 1.373-1.194 2.738-1.814 4.098-.19.41-.595.653-1.02.653zm-358.2-5.3c-.436 0-.85-.258-1.03-.685-.582-1.385-1.15-2.775-1.7-4.175-.228-.574.055-1.224.63-1.45.575-.23 1.223.056 1.448.63.545 1.384 1.105 2.76 1.683 4.127.24.57-.026 1.225-.596 1.464-.142.063-.29.09-.434.09zm361.714-2.887c-.14 0-.28-.026-.417-.082-.573-.227-.852-.88-.62-1.453.55-1.366 1.085-2.742 1.604-4.126.218-.577.863-.866 1.44-.652.577.217.87.862.653 1.44-.525 1.4-1.066 2.79-1.624 4.176-.175.434-.595.7-1.037.7zm-365-5.454c-.456 0-.884-.283-1.05-.734-.52-1.41-1.02-2.828-1.508-4.252-.2-.584.113-1.22.696-1.42.586-.2 1.22.113 1.42.697.48 1.41.977 2.81 1.49 4.204.212.58-.085 1.222-.664 1.435-.127.046-.257.07-.385.07zm368.138-2.904c-.122 0-.246-.02-.37-.063-.58-.204-.89-.842-.685-1.425.487-1.397.96-2.802 1.416-4.213.19-.586.824-.91 1.408-.72.59.19.91.82.72 1.408-.462 1.43-.94 2.85-1.434 4.262-.162.462-.594.75-1.056.75zM20.316 297.37c-.475 0-.915-.306-1.066-.782-.45-1.434-.888-2.873-1.308-4.32-.172-.592.17-1.213.762-1.385.592-.172 1.212.17 1.385.762.414 1.43.845 2.853 1.292 4.27.186.59-.142 1.217-.73 1.402-.112.037-.225.053-.337.053zm373.793-2.918c-.107 0-.215-.016-.32-.048-.594-.176-.93-.8-.754-1.39.424-1.42.832-2.844 1.223-4.273.162-.595.784-.945 1.37-.782.597.163.947.778.785 1.373-.396 1.448-.81 2.89-1.235 4.324-.145.485-.59.8-1.07.8zm-376.29-5.684c-.497 0-.95-.33-1.08-.832-.386-1.446-.753-2.9-1.105-4.36-.145-.6.225-1.203.825-1.348.598-.138 1.203.225 1.35.826.347 1.442.71 2.878 1.09 4.31.157.596-.197 1.21-.794 1.367-.096.027-.192.04-.287.04zm378.646-2.94c-.09 0-.18-.01-.27-.033-.6-.15-.966-.756-.817-1.354.355-1.435.697-2.876 1.02-4.325.136-.602.73-.98 1.337-.847.602.135.98.733.846 1.337-.328 1.464-.673 2.923-1.033 4.375-.126.507-.582.847-1.083.847zm-380.74-5.753c-.515 0-.978-.358-1.09-.882-.317-1.46-.617-2.93-.9-4.405-.117-.606.28-1.192.887-1.31.604-.115 1.192.28 1.31.888.278 1.457.575 2.91.888 4.354.13.604-.252 1.198-.855 1.33-.08.016-.16.025-.238.025zm382.693-2.97c-.074 0-.147-.01-.22-.023-.607-.12-1-.71-.878-1.316.29-1.45.563-2.905.82-4.367.106-.61.688-1.018 1.293-.91.608.107 1.015.687.907 1.295-.26 1.48-.536 2.953-.83 4.42-.104.528-.572.898-1.093.898zm-384.38-5.81c-.537 0-1.01-.387-1.1-.934-.25-1.474-.48-2.954-.696-4.44-.09-.61.335-1.18.946-1.267.61-.085 1.18.335 1.267.947.213 1.47.44 2.932.687 4.392.103.607-.31 1.184-.917 1.287-.063.01-.125.014-.187.014zm385.927-2.997c-.055 0-.11-.005-.17-.014-.608-.093-1.028-.662-.935-1.272.22-1.46.427-2.93.616-4.4.078-.613.635-1.056 1.25-.968.612.08 1.045.64.966 1.252-.19 1.49-.4 2.974-.625 4.452-.083.552-.56.95-1.103.95zm-387.206-5.85c-.556 0-1.04-.418-1.106-.986-.18-1.483-.343-2.974-.49-4.47-.06-.613.39-1.16 1.005-1.22.61-.064 1.16.39 1.22 1.003.145 1.48.306 2.95.483 4.418.074.613-.362 1.17-.976 1.245-.045.006-.09.01-.136.01zm388.346-3.017c-.04 0-.077 0-.117-.005-.615-.064-1.06-.614-.996-1.228.155-1.47.293-2.945.413-4.427.05-.616.577-1.07 1.206-1.024.614.05 1.072.59 1.022 1.206-.122 1.497-.263 2.99-.42 4.478-.058.573-.543 1-1.11 1zm-389.212-5.88c-.58 0-1.07-.447-1.114-1.034-.11-1.49-.205-2.988-.282-4.488-.03-.616.442-1.142 1.06-1.174.612-.03 1.14.442 1.173 1.06.078 1.482.17 2.962.28 4.436.047.615-.414 1.15-1.03 1.197l-.085.003zm389.944-3.028c-.022 0-.044 0-.066-.002-.616-.037-1.086-.565-1.05-1.183.087-1.476.158-2.956.21-4.44.02-.615.54-1.068 1.157-1.076.615.02 1.1.54 1.075 1.157-.055 1.5-.125 2.998-.213 4.49-.035.595-.527 1.054-1.115 1.054zm-390.404-5.9c-.602 0-1.1-.48-1.116-1.086-.043-1.496-.07-2.993-.078-4.496-.003-.618.494-1.12 1.11-1.124.6.028 1.122.493 1.125 1.11.01 1.485.035 2.967.077 4.445.018.617-.47 1.13-1.085 1.15h-.033zm390.724-3.03h-.016c-.617-.01-1.11-.516-1.102-1.134.012-.857.017-1.72.017-2.58 0-.622-.003-1.244-.008-1.864-.008-.618.487-1.123 1.104-1.128h.01c.613 0 1.112.492 1.117 1.107.008.628.01 1.256.01 1.885 0 .872-.005 1.743-.017 2.612-.006.613-.506 1.103-1.116 1.103zm-390.775-5.91l-.02-.002c-.617-.01-1.11-.52-1.1-1.137.026-1.497.068-2.994.128-4.485.026-.616.55-1.066 1.16-1.072.62.025 1.1.545 1.074 1.16-.058 1.475-.1 2.954-.124 4.436-.01.61-.51 1.1-1.117 1.1zm390.69-3.03c-.602 0-1.098-.478-1.117-1.083-.05-1.484-.112-2.964-.194-4.44-.034-.617.438-1.145 1.055-1.18.61-.037 1.144.44 1.178 1.055.082 1.493.147 2.99.196 4.49.023.62-.462 1.135-1.08 1.155h-.037zm-390.337-5.898c-.023 0-.047 0-.07-.003-.616-.04-1.084-.57-1.046-1.186.094-1.5.205-2.993.332-4.483.053-.614.595-1.062 1.21-1.02.614.055 1.07.596 1.018 1.21-.126 1.475-.236 2.953-.328 4.435-.04.592-.53 1.048-1.116 1.048zm389.843-3.03c-.58 0-1.07-.444-1.115-1.03-.116-1.48-.25-2.956-.398-4.427-.063-.614.385-1.163 1-1.226.624-.06 1.16.386 1.225 1 .15 1.487.284 2.98.402 4.478.048.615-.412 1.154-1.027 1.202l-.09.002zm-389.08-5.88c-.04 0-.08-.002-.122-.007-.614-.067-1.058-.62-.99-1.232.162-1.493.342-2.98.538-4.464.08-.61.65-1.042 1.254-.96.612.08 1.043.643.962 1.255-.193 1.466-.37 2.938-.532 4.413-.063.572-.547.997-1.11.997zm388.178-3.017c-.556 0-1.038-.413-1.108-.98-.184-1.472-.384-2.94-.6-4.403-.092-.61.33-1.18.94-1.27.607-.093 1.18.332 1.27.942.22 1.48.423 2.965.608 4.455.075.615-.358 1.173-.972 1.25-.046.006-.093.008-.138.008zM13.673 208.98c-.058 0-.115-.004-.174-.013-.61-.096-1.03-.667-.935-1.277.23-1.483.48-2.962.744-4.435.107-.607.693-1.006 1.297-.902.607.11 1.012.69.902 1.298-.263 1.458-.51 2.92-.736 4.385-.086.552-.56.946-1.102.946zm385.693-2.997c-.534 0-1.008-.384-1.1-.928-.252-1.463-.52-2.92-.806-4.372-.118-.605.276-1.192.88-1.312.614-.117 1.194.278 1.314.884.29 1.47.56 2.943.814 4.423.104.608-.305 1.187-.912 1.29-.064.013-.128.017-.19.017zM15.253 200.18c-.074 0-.15-.006-.225-.02-.604-.124-.995-.714-.872-1.32.3-1.47.616-2.936.948-4.395.137-.602.73-.983 1.34-.84.6.136.977.735.84 1.337-.33 1.442-.642 2.89-.938 4.345-.107.528-.573.894-1.093.894zm382.393-2.97c-.514 0-.976-.356-1.09-.878-.32-1.45-.654-2.893-1.006-4.33-.147-.6.22-1.204.82-1.352.59-.147 1.203.22 1.352.82.355 1.455.694 2.915 1.017 4.38.13.604-.25 1.2-.854 1.332-.08.02-.16.028-.24.028zM17.24 191.464c-.092 0-.184-.01-.275-.034-.598-.15-.96-.76-.81-1.357.366-1.455.75-2.904 1.15-4.347.165-.595.78-.94 1.376-.778.597.165.945.78.78 1.376-.396 1.426-.775 2.857-1.14 4.296-.125.506-.58.844-1.08.844zm378.283-2.94c-.493 0-.944-.328-1.078-.827-.386-1.433-.787-2.858-1.206-4.277-.176-.592.162-1.214.755-1.39.588-.173 1.213.165 1.388.758.423 1.436.83 2.88 1.22 4.328.16.596-.192 1.21-.79 1.37-.096.027-.195.04-.29.04zM19.628 182.85c-.107 0-.217-.016-.324-.05-.59-.178-.925-.802-.746-1.393.435-1.437.885-2.867 1.352-4.29.19-.586.82-.906 1.41-.713.586.192.906.824.713 1.41-.46 1.406-.906 2.82-1.335 4.24-.147.483-.59.795-1.07.795zm373.366-2.917c-.473 0-.913-.304-1.064-.778-.452-1.417-.922-2.828-1.406-4.23-.202-.585.107-1.22.69-1.423.585-.2 1.22.108 1.42.69.492 1.42.967 2.85 1.426 4.282.188.59-.137 1.218-.725 1.405-.113.034-.228.052-.34.052zm-370.582-5.58c-.124 0-.25-.02-.372-.064-.582-.207-.888-.846-.682-1.43.5-1.413 1.017-2.82 1.55-4.22.22-.578.863-.868 1.44-.648.577.22.867.865.648 1.442-.526 1.383-1.037 2.774-1.53 4.173-.162.458-.593.745-1.054.745zm367.653-2.898c-.453 0-.88-.278-1.047-.73-.52-1.394-1.053-2.78-1.602-4.16-.23-.573.052-1.224.625-1.452.57-.226 1.227.053 1.453.626.555 1.393 1.096 2.795 1.62 4.205.215.578-.08 1.223-.658 1.438-.127.05-.26.07-.39.07zM25.58 166.01c-.14 0-.28-.026-.42-.082-.57-.232-.846-.886-.613-1.457.563-1.384 1.142-2.76 1.735-4.13.245-.567.904-.827 1.47-.58.566.245.826.903.58 1.47-.586 1.354-1.158 2.715-1.715 4.084-.177.434-.595.698-1.036.698zm361.168-2.884c-.435 0-.848-.255-1.03-.68-.58-1.37-1.18-2.73-1.79-4.08-.255-.563-.006-1.226.557-1.48.564-.254 1.226-.005 1.48.557.618 1.368 1.222 2.743 1.812 4.127.24.568-.023 1.225-.59 1.467-.144.06-.292.09-.44.09zm-357.62-5.292c-.158 0-.317-.034-.47-.104-.56-.26-.805-.923-.546-1.483.626-1.358 1.268-2.71 1.924-4.05.27-.555.94-.783 1.496-.513.554.27.783.94.512 1.496-.65 1.326-1.283 2.66-1.9 4.003-.19.41-.595.65-1.017.65zm353.923-2.87c-.414 0-.814-.234-1.007-.634-.644-1.34-1.303-2.67-1.977-3.99-.28-.55-.063-1.225.487-1.505.552-.28 1.222-.063 1.504.487.682 1.338 1.35 2.683 2 4.037.268.555.033 1.223-.522 1.49-.156.076-.32.112-.483.112zm-350.004-5.14c-.173 0-.35-.04-.513-.125-.548-.286-.763-.96-.48-1.51.69-1.327 1.393-2.647 2.11-3.958.297-.543.976-.74 1.517-.444.54.296.74.975.442 1.517-.71 1.296-1.404 2.6-2.085 3.914-.197.383-.588.604-.992.604zm345.937-2.842c-.397 0-.783-.212-.985-.587-.704-1.308-1.424-2.606-2.157-3.896-.305-.538-.117-1.22.42-1.526.54-.304 1.22-.117 1.523.42.74 1.303 1.47 2.616 2.183 3.938.293.543.09 1.22-.453 1.515-.168.09-.35.134-.53.134zM37.328 142c-.19 0-.38-.05-.558-.15-.534-.31-.718-.993-.408-1.527.748-1.296 1.51-2.582 2.288-3.86.32-.526 1.01-.693 1.535-.373.528.32.695 1.01.374 1.536-.77 1.263-1.524 2.535-2.264 3.816-.207.358-.582.558-.97.558zm337.225-2.8c-.38 0-.75-.193-.96-.543-.764-1.272-1.54-2.536-2.333-3.79-.33-.52-.174-1.212.348-1.542.522-.33 1.212-.175 1.542.35.8 1.267 1.588 2.545 2.36 3.833.317.528.146 1.215-.383 1.533-.18.11-.378.16-.574.16zm-332.585-4.824c-.207 0-.416-.058-.602-.177-.52-.335-.672-1.026-.34-1.546.808-1.262 1.63-2.512 2.464-3.754.345-.51 1.038-.645 1.552-.302.512.345.647 1.04.303 1.552-.825 1.227-1.638 2.464-2.435 3.71-.214.334-.574.516-.942.516zm327.805-2.744c-.36 0-.717-.176-.932-.5-.82-1.235-1.654-2.462-2.503-3.68-.353-.505-.228-1.2.278-1.555.505-.354 1.202-.23 1.557.277.858 1.23 1.702 2.47 2.532 3.72.342.515.202 1.208-.313 1.55-.19.127-.403.188-.616.188zM46.95 126.968c-.224 0-.448-.066-.645-.204-.504-.356-.624-1.055-.268-1.56.864-1.223 1.74-2.435 2.632-3.638.366-.495 1.064-.6 1.56-.232.497.368.6 1.067.233 1.564-.88 1.188-1.748 2.388-2.603 3.597-.214.31-.56.473-.91.473zm317.705-2.677c-.345 0-.685-.156-.902-.455-.877-1.197-1.767-2.384-2.67-3.56-.375-.49-.28-1.19.208-1.568.49-.376 1.19-.282 1.568.207.912 1.19 1.813 2.39 2.698 3.6.365.5.256 1.198-.24 1.564-.2.145-.43.214-.66.214zm-312.388-4.497c-.24 0-.48-.076-.685-.234-.487-.38-.575-1.08-.197-1.57.92-1.183 1.85-2.354 2.796-3.516.39-.48 1.095-.552 1.574-.162.48.39.55 1.095.16 1.574-.933 1.148-1.854 2.307-2.763 3.477-.22.285-.55.432-.882.432zm306.942-2.598c-.33 0-.65-.143-.874-.418-.93-1.154-1.87-2.3-2.825-3.433-.395-.473-.336-1.18.137-1.575.473-.4 1.178-.338 1.574.134.967 1.146 1.92 2.304 2.86 3.473.385.48.31 1.185-.173 1.57-.205.168-.453.248-.7.248zm-301.305-4.33c-.257 0-.515-.09-.726-.27-.47-.4-.526-1.104-.126-1.575.972-1.14 1.955-2.27 2.953-3.387.41-.46 1.116-.502 1.577-.09.46.41.5 1.117.09 1.578-.985 1.107-1.958 2.224-2.92 3.35-.22.26-.533.394-.85.394zm295.542-2.51c-.31 0-.617-.127-.84-.378-.98-1.112-1.972-2.212-2.978-3.3-.418-.455-.39-1.162.063-1.58.454-.418 1.16-.39 1.58.062 1.015 1.1 2.02 2.213 3.01 3.337.41.463.365 1.17-.098 1.578-.21.188-.475.28-.738.28zm-289.594-4.16c-.273 0-.547-.1-.763-.3-.45-.423-.475-1.13-.053-1.58 1.022-1.096 2.057-2.18 3.104-3.252.434-.44 1.14-.45 1.583-.02.44.433.45 1.14.018 1.582-1.033 1.06-2.057 2.132-3.07 3.215-.22.235-.516.354-.815.354zm283.532-2.41c-.293 0-.585-.115-.805-.343-1.027-1.064-2.068-2.12-3.12-3.16-.44-.435-.444-1.143-.01-1.58.435-.44 1.143-.443 1.58-.01 1.065 1.055 2.12 2.12 3.16 3.198.428.444.415 1.152-.03 1.58-.215.21-.495.315-.774.315zM70.1 99.8c-.29 0-.58-.112-.798-.336-.433-.44-.424-1.15.017-1.58 1.07-1.05 2.153-2.085 3.25-3.107.45-.424 1.156-.398 1.577.053.422.45.397 1.158-.054 1.58-1.082 1.012-2.152 2.036-3.212 3.072-.217.212-.5.318-.78.318zm270.933-2.304c-.275 0-.552-.102-.768-.306-1.076-1.02-2.164-2.023-3.262-3.017-.458-.414-.494-1.12-.08-1.58.412-.457 1.12-.493 1.578-.08 1.113 1.005 2.213 2.022 3.3 3.052.45.424.47 1.133.046 1.58-.22.234-.515.35-.812.35zm-264.4-3.803c-.31 0-.614-.126-.835-.373-.41-.46-.37-1.167.09-1.578 1.117-1 2.246-1.985 3.387-2.96.47-.4 1.175-.344 1.576.127.4.467.346 1.173-.124 1.573-1.127.963-2.243 1.938-3.35 2.925-.212.19-.48.283-.743.283zm257.77-2.19c-.258 0-.518-.088-.73-.27-1.12-.968-2.25-1.923-3.393-2.864-.477-.395-.544-1.1-.15-1.576.39-.476 1.095-.545 1.572-.15 1.155.952 2.3 1.918 3.433 2.896.468.404.52 1.11.116 1.578-.22.255-.53.386-.846.386zM83.435 87.89c-.324 0-.646-.14-.867-.41-.39-.48-.317-1.185.16-1.574 1.162-.947 2.336-1.88 3.52-2.802.488-.38 1.19-.29 1.568.196.378.486.29 1.19-.196 1.567-1.17.912-2.33 1.835-3.48 2.77-.207.17-.457.253-.705.253zm244.08-2.068c-.243 0-.487-.078-.69-.24-1.164-.914-2.338-1.817-3.52-2.707-.494-.37-.593-1.07-.223-1.565.373-.493 1.07-.592 1.565-.22 1.195.898 2.382 1.81 3.56 2.736.483.382.567 1.084.186 1.57-.22.28-.548.426-.88.426zm-237.02-3.425c-.34 0-.678-.155-.897-.45-.367-.496-.264-1.197.23-1.565 1.205-.893 2.42-1.772 3.645-2.64.505-.356 1.2-.236 1.56.267.355.504.235 1.2-.27 1.56-1.21.854-2.41 1.725-3.602 2.61-.2.145-.43.217-.663.217zm229.88-1.94c-.226 0-.453-.066-.65-.207-1.202-.862-2.415-1.71-3.637-2.545-.51-.348-.64-1.043-.293-1.553.35-.51 1.042-.643 1.554-.293 1.233.842 2.46 1.7 3.676 2.57.5.36.617 1.058.258 1.56-.22.305-.56.467-.91.467zM97.8 77.227c-.358 0-.71-.172-.927-.492-.345-.513-.21-1.207.302-1.552 1.244-.838 2.498-1.662 3.762-2.472.52-.333 1.212-.18 1.544.338.335.52.184 1.212-.336 1.545-1.25.8-2.49 1.616-3.718 2.444-.193.13-.41.19-.624.19zm215.203-1.803c-.21 0-.42-.058-.608-.18-1.24-.806-2.487-1.598-3.747-2.375-.525-.325-.688-1.015-.364-1.54.326-.524 1.015-.688 1.538-.363 1.274.786 2.538 1.587 3.79 2.402.52.335.666 1.03.33 1.546-.215.33-.574.508-.94.508zm-207.667-3.027c-.377 0-.745-.19-.955-.537-.32-.527-.152-1.216.375-1.536 1.28-.78 2.57-1.548 3.87-2.3.536-.31 1.22-.126 1.528.408.31.534.126 1.22-.408 1.527-1.285.742-2.562 1.5-3.827 2.27-.182.11-.383.165-.58.165zm200.077-1.664c-.192 0-.387-.05-.564-.153-1.276-.75-2.56-1.482-3.853-2.202-.54-.3-.732-.98-.433-1.52.3-.54.98-.735 1.52-.434 1.308.728 2.606 1.47 3.895 2.226.53.313.71.997.397 1.53-.208.355-.58.552-.965.552zm-192.327-2.82c-.395 0-.777-.21-.98-.58-.297-.542-.1-1.222.442-1.52 1.315-.72 2.64-1.428 3.974-2.12.55-.282 1.223-.07 1.507.48.282.547.07 1.22-.48 1.506-1.318.683-2.628 1.382-3.928 2.095-.17.093-.355.137-.537.137zm184.534-1.517c-.176 0-.354-.042-.52-.13-1.307-.688-2.62-1.362-3.944-2.022-.553-.274-.777-.946-.503-1.498.274-.554.944-.78 1.5-.503 1.34.667 2.67 1.35 3.99 2.046.546.287.754.963.467 1.51-.2.38-.59.596-.99.596zm-176.584-2.61c-.413 0-.81-.23-1.004-.625-.27-.555-.043-1.224.512-1.495 1.348-.66 2.703-1.307 4.068-1.937.562-.258 1.224-.015 1.482.546.26.56.015 1.225-.546 1.483-1.35.623-2.688 1.262-4.02 1.914-.16.08-.326.117-.492.117zm168.606-1.368c-.16 0-.32-.034-.475-.106-1.336-.627-2.68-1.24-4.03-1.84-.565-.25-.82-.91-.57-1.474.25-.563.906-.818 1.475-.57 1.367.606 2.727 1.227 4.076 1.86.56.264.8.93.536 1.488-.19.406-.592.643-1.012.643zm-160.47-2.39c-.433 0-.844-.25-1.027-.672-.245-.566.015-1.225.58-1.47 1.378-.6 2.763-1.182 4.155-1.75.57-.232 1.223.042 1.456.614.232.57-.042 1.224-.613 1.456-1.377.56-2.746 1.138-4.107 1.73-.145.062-.297.092-.445.092zm152.323-1.215c-.144 0-.288-.028-.43-.086-1.36-.565-2.73-1.116-4.107-1.65-.575-.226-.86-.874-.637-1.448.226-.578.874-.86 1.448-.64 1.394.544 2.778 1.1 4.156 1.67.57.24.84.894.604 1.463-.177.43-.593.69-1.032.69zm-144.022-2.165c-.45 0-.875-.274-1.045-.72-.22-.577.07-1.224.647-1.443 1.402-.534 2.813-1.053 4.232-1.556.58-.207 1.22.1 1.427.68.207.58-.1 1.22-.68 1.427-1.403.498-2.798 1.01-4.186 1.538-.13.05-.264.073-.395.073zm135.705-1.07c-.126 0-.255-.02-.38-.066-1.392-.504-2.79-.992-4.196-1.466-.585-.196-.9-.83-.702-1.416.195-.585.83-.9 1.415-.703 1.423.48 2.838.974 4.244 1.484.58.21.88.85.67 1.43-.167.456-.596.74-1.053.74zm-127.253-1.925c-.47 0-.907-.3-1.062-.77-.193-.587.127-1.22.713-1.41 1.428-.47 2.86-.923 4.303-1.36.59-.18 1.213.156 1.392.746.18.59-.154 1.215-.745 1.394-1.425.432-2.843.88-4.254 1.343-.117.038-.234.056-.35.056zm118.782-.926c-.11 0-.222-.017-.333-.05-1.412-.44-2.832-.865-4.26-1.273-.592-.17-.935-.788-.765-1.382.17-.594.785-.938 1.38-.767 1.44.413 2.877.843 4.31 1.287.586.183.916.81.733 1.4-.15.478-.59.786-1.067.786zm-110.213-1.672c-.49 0-.938-.324-1.076-.82-.165-.593.184-1.21.778-1.375 1.44-.4 2.89-.786 4.344-1.155.6-.152 1.207.21 1.358.81.15.598-.21 1.207-.81 1.358-1.438.363-2.87.744-4.295 1.14-.1.027-.2.04-.3.04zm101.62-.787c-.093 0-.188-.012-.283-.037-1.43-.372-2.867-.73-4.31-1.072-.6-.143-.973-.745-.83-1.345.142-.603.746-.97 1.344-.83 1.46.345 2.915.707 4.363 1.086.597.154.955.765.798 1.362-.13.504-.583.837-1.08.837zm-92.955-1.41c-.51 0-.97-.35-1.09-.867-.14-.602.237-1.2.84-1.34 1.46-.333 2.923-.65 4.394-.95.6-.124 1.194.265 1.318.87.124.604-.266 1.195-.87 1.32-1.454.296-2.9.61-4.343.94-.085.02-.17.03-.25.03zm84.256-.65c-.077 0-.156-.01-.233-.024-1.447-.31-2.9-.6-4.356-.875-.607-.115-1.006-.7-.893-1.306.115-.606.695-1.01 1.306-.892 1.476.278 2.945.573 4.408.885.604.13.99.722.86 1.326-.112.527-.574.886-1.09.886zm-75.5-1.142c-.53 0-1.002-.38-1.1-.92-.11-.606.293-1.187.9-1.298 1.472-.267 2.95-.517 4.433-.75.61-.092 1.18.32 1.276.93.095.61-.32 1.184-.93 1.28-1.467.228-2.927.476-4.382.74-.066.013-.133.018-.2.018zm66.716-.515c-.06 0-.12-.004-.183-.015-1.46-.24-2.924-.464-4.394-.672-.61-.086-1.036-.652-.95-1.263.087-.612.644-1.043 1.264-.952 1.487.21 2.968.438 4.443.68.61.1 1.022.677.92 1.285-.088.548-.563.937-1.1.937zm-57.887-.873c-.552 0-1.03-.408-1.106-.97-.083-.61.347-1.174.96-1.256 1.48-.197 2.97-.38 4.46-.544.61-.07 1.166.375 1.233.988.068.614-.375 1.167-.988 1.234-1.475.162-2.945.342-4.41.538-.05.008-.1.01-.15.01zm49.037-.377c-.044 0-.088-.004-.133-.01-1.47-.173-2.94-.33-4.42-.47-.613-.058-1.064-.603-1.006-1.218.057-.614.6-1.062 1.217-1.008 1.496.142 2.986.3 4.47.476.614.072 1.053.628.98 1.242-.067.568-.55.987-1.11.987zm-40.153-.606c-.574 0-1.063-.438-1.113-1.02-.054-.616.4-1.158 1.017-1.212 1.488-.13 2.983-.243 4.48-.34.615-.044 1.148.428 1.188 1.043.04.616-.427 1.148-1.043 1.188-1.48.096-2.96.208-4.43.337-.036.003-.07.004-.1.004zm31.254-.24c-.027 0-.054 0-.08-.003-1.476-.103-2.954-.193-4.437-.266-.617-.03-1.093-.556-1.063-1.172.03-.616.562-1.098 1.17-1.06 1.502.073 2.998.164 4.487.27.617.044 1.08.58 1.037 1.194-.042.59-.532 1.04-1.113 1.04zm-22.335-.334c-.598 0-1.09-.47-1.117-1.072-.025-.616.454-1.138 1.07-1.163 1.494-.063 2.99-.107 4.493-.136h.02c.608 0 1.106.484 1.118 1.095.012.617-.48 1.127-1.097 1.14-1.484.027-2.966.072-4.442.134h-.046zm13.405-.102h-.03c-1.477-.04-2.957-.062-4.442-.066-.617-.003-1.116-.505-1.113-1.122.003-.616.503-1.114 1.118-1.114h.004c1.502.005 3 .027 4.493.066.617.017 1.104.53 1.088 1.147-.015.604-.513 1.087-1.117 1.087z" fill="#536b8b"/><path d="M168.92 161.615h97.056v149.368H168.92z" clip-rule="evenodd" fill="#fff" fill-rule="evenodd"/><path d="M265.976 312.1H168.92c-.616 0-1.116-.5-1.116-1.116v-149.37c0-.616.5-1.116 1.117-1.116h97.057c.616 0 1.116.5 1.116 1.117v149.368c0 .617-.5 1.118-1.116 1.118zm-95.938-2.235h94.82V162.733h-94.82v147.132z" fill="#536b8b"/><path d="M154.34 166.776h106.202v151.417h-106.2z" clip-rule="evenodd" fill="#fdd26a" fill-rule="evenodd"/><path d="M260.542 319.31h-106.2c-.618 0-1.12-.5-1.12-1.116V166.776c0-.617.502-1.118 1.12-1.118h106.2c.617 0 1.117.5 1.117 1.118v151.417c0 .618-.5 1.118-1.12 1.118zm-105.084-2.235h103.967v-149.18H155.458v149.18z" fill="#536b8b"/><path d="M260.542 267.047v-49.123l-9.833 5.62v37.88" clip-rule="evenodd" fill="#e8a541" fill-rule="evenodd"/><path d="M260.542 268.164c-.19 0-.383-.05-.555-.147l-9.833-5.62c-.348-.2-.563-.57-.563-.972v-37.88c0-.4.217-.77.565-.97l9.833-5.622c.345-.198.77-.198 1.115.003.345.2.557.568.557.968v49.123c0 .398-.213.766-.558.966-.172.1-.367.15-.56.15zm-8.716-7.388l7.6 4.344v-45.27l-7.6 4.345v36.58zM192.48 279.48h29.922v2.236h-29.92z" fill="#536b8b"/><path d="M207.44 184.442l15.56 8.965 15.558 8.966-17.23 9.93-6.943-4.002-6.944-4-6.94 4-6.943 4.004v16.004l6.943 4 6.94 4 6.945-4 6.942-4 17.23 9.927L223 247.2l-15.56 8.966-15.556-8.965-15.558-8.965v-35.86l15.558-8.967" clip-rule="evenodd" fill="#a2baf0" fill-rule="evenodd"/><path d="M207.44 257.284c-.192 0-.385-.05-.558-.15l-31.115-17.93c-.346-.2-.56-.57-.56-.97v-35.86c0-.4.214-.77.56-.97l31.115-17.93c.346-.2.77-.2 1.116 0l31.116 17.93c.347.2.56.568.56.97 0 .398-.213.77-.56.968l-17.23 9.93c-.345.198-.77.198-1.115 0l-13.33-7.68-12.768 7.356v14.712l12.768 7.356 13.33-7.68c.343-.197.77-.197 1.114 0l17.23 9.93c.347.2.56.57.56.968 0 .4-.213.77-.56.97l-31.116 17.93c-.172.1-.364.15-.557.15zm-29.997-19.695l29.998 17.285 28.88-16.642-14.99-8.638-13.33 7.68c-.345.2-.77.198-1.116 0l-13.885-8c-.348-.2-.56-.57-.56-.97V212.3c0-.4.212-.77.56-.97l13.884-8c.346-.2.77-.2 1.116 0l13.327 7.68 14.99-8.64-28.876-16.64-29.996 17.287v34.57z" fill="#536b8b"/><path d="M207.44 236.308l6.945-4 6.942-4 17.23 9.926L223 247.2l-15.56 8.965" clip-rule="evenodd" fill="#c7d5f6" fill-rule="evenodd"/><path d="M207.44 257.283c-.192 0-.386-.05-.56-.15-.345-.2-.558-.568-.558-.968v-19.857c0-.4.214-.77.56-.97l13.887-8c.342-.198.77-.198 1.113 0l17.23 9.93c.347.198.56.568.56.967 0 .4-.213.77-.56.97l-31.116 17.93c-.172.097-.364.148-.557.148zm1.12-20.33v17.276l27.76-15.997-14.992-8.638-12.77 7.357z" fill="#536b8b"/><path d="M207.44 256.166l-15.556-8.965-15.558-8.965v-35.86l17.23 9.93v16.003l6.943 4 6.94 4" clip-rule="evenodd" fill="#fff" fill-rule="evenodd"/><path d="M207.44 257.284c-.192 0-.385-.05-.558-.15l-31.115-17.93c-.346-.2-.56-.57-.56-.97v-35.86c0-.4.213-.77.56-.97.344-.2.77-.2 1.116 0l17.23 9.93c.346.2.56.568.56.97v15.356l13.325 7.678c.347.2.56.57.56.97v19.858c0 .4-.213.77-.56.968-.17.1-.363.15-.557.15zm-29.997-19.695l28.88 16.64v-17.277l-13.325-7.678c-.347-.2-.56-.57-.56-.97V212.95l-14.995-8.643v33.282z" fill="#536b8b"/><path d="M180.45 266.763h53.983v7.646H180.45z" clip-rule="evenodd" fill="#f1877a" fill-rule="evenodd"/><path d="M235.552 275.526h-56.22v-9.882h56.22v9.882zm-53.986-2.236h51.75v-5.41h-51.75v5.41zm15.314 11.395h21.123v2.236H196.88z" fill="#536b8b"/><path d="M249.24 353.428v23.895c0 15.796-12.95 28.717-28.772 28.717s-28.77-12.92-28.77-28.717v-23.895l11.84 15.898-.1-15.898h11.067l.455-13.21 5.712-2.162 4.415 2.09 1.263 13.282.258-10.775 5.49-2.245 2.862.77 2.12 1.458.715 10.793 1.104-5.397 4.624-2.368 4.155 1.8 1.56 5.962z" clip-rule="evenodd" fill="#f7bfb3" fill-rule="evenodd"/><path d="M197.996 395.2c-3.937-4.915-6.298-11.134-6.298-17.878l-7.626-29.644 5.078.08 6.544 5.072 7.845 16.495-.103-62.81c3.737-4.615 7.632-5.16 11.067 0l.455 34.005c7.08-2.712 6.644-2.88 10.964-.063l.425 12.97-.06-10.65c11.99-4.772 10.703-1.41 11.504 10.65l1.104-5.395 4.625-2.368.198.088.78 2.98v23.897c0 15.794-12.947 28.715-28.77 28.715-6.674 0-12.84-2.3-17.735-6.147z" clip-rule="evenodd" fill="#f8cfc3" fill-rule="evenodd"/><path d="M220.468 407.155c-15.383 0-28.165-11.52-29.732-26.794-.063-.61.384-1.16.998-1.223.614-.06 1.162.383 1.226.997 1.426 13.9 13.51 24.788 27.51 24.788 15.247 0 27.653-12.38 27.653-27.6v-23.894c0-.617.5-1.117 1.117-1.117.616 0 1.117.5 1.117 1.117v23.895c0 16.452-13.408 29.835-29.89 29.835zm-16.93-36.71c-.613 0-1.112-.497-1.116-1.112l-.102-15.898c-.004-.617.494-1.12 1.11-1.124h.008c.613 0 1.113.497 1.117 1.11l.1 15.9c.005.617-.492 1.12-1.108 1.125h-.008z" fill="#536b8b"/><path d="M184.183 348.263c6.414-1.108 12.463 2.645 13.57 9.047l5.73 12.423c-10.11-2.652-4.98-17.26-19.3-21.47z" clip-rule="evenodd" fill="#f7bfb3" fill-rule="evenodd"/><path d="M191.95 382.244c-.526 0-.994-.373-1.097-.91l-.272-1.42-7.595-31.976c-.07-.302-.015-.618.155-.876.17-.257.437-.433.74-.485 7.13-1.23 12.148 2.238 14.908 10.31l5.747 11.955c.268.556.033 1.223-.522 1.492-.558.267-1.224.033-1.49-.524l-5.777-12.017c-.02-.04-.036-.082-.05-.124-2.22-6.544-5.91-9.518-11.25-9.045l7.32 30.818.282 1.47c.116.607-.28 1.193-.888 1.31-.07.013-.14.02-.21.02z" fill="#536b8b"/><path d="M214.45 355.607l-1.905-1.02c-2.467-1.575-1.916-3.52-1.916-6.453v-45.138c2.21 1.34 3.403 3.4 3.82 6.79v45.82z" clip-rule="evenodd" fill="#f7bfb3" fill-rule="evenodd"/><path d="M214.96 356.238c-.615 0-1.116-.5-1.116-1.117v-46.78c0-2.554-2.08-4.632-4.64-4.632-2.56 0-4.64 2.078-4.64 4.632v46.78c0 .618-.5 1.118-1.117 1.118-.618 0-1.118-.5-1.118-1.117v-46.78c0-3.786 3.082-6.867 6.873-6.867 3.79 0 6.874 3.08 6.874 6.867v46.78c0 .618-.5 1.118-1.117 1.118z" fill="#536b8b"/><path d="M324.99 82.575l15.86-1.237 1.24 15.832-15.86 1.237" clip-rule="evenodd" fill="#dbf9ff" fill-rule="evenodd"/><path d="M326.228 99.524c-.578 0-1.067-.444-1.113-1.03l-1.238-15.83c-.023-.297.07-.59.265-.814.192-.226.467-.365.762-.39l15.86-1.236c.62-.052 1.153.41 1.2 1.026l1.24 15.833c.023.295-.07.588-.265.813-.194.225-.47.365-.765.388l-15.86 1.237c-.03.004-.06.005-.088.005zm-.037-15.92l1.065 13.602 13.633-1.063-1.064-13.604-13.632 1.063z" fill="#536b8b"/><path d="M132.444 113.9l14.612 6.283-6.295 14.584-14.61-6.284" clip-rule="evenodd" fill="#dbf9ff" fill-rule="evenodd"/><path d="M140.76 135.885c-.146 0-.297-.03-.44-.092l-14.61-6.282c-.272-.115-.487-.337-.598-.612-.11-.275-.105-.583.013-.856l6.295-14.582c.244-.566.9-.828 1.468-.584l14.61 6.282c.272.117.487.34.597.614.11.275.105.583-.012.856l-6.295 14.583c-.184.423-.596.676-1.027.676zm-13.14-7.987l12.557 5.4 5.41-12.53-12.56-5.4-5.407 12.53z" fill="#536b8b"/><path d="M1.118 225.32l11.627-10.84 10.86 11.606-11.63 10.84" clip-rule="evenodd" fill="#dbf9ff" fill-rule="evenodd"/><path d="M11.976 238.042c-.298 0-.596-.12-.816-.354L.302 226.083c-.203-.217-.312-.506-.3-.802.01-.296.137-.575.353-.78l11.628-10.837c.45-.42 1.157-.396 1.578.054l10.86 11.607c.202.216.31.505.3.8-.01.3-.14.578-.354.78l-11.628 10.84c-.216.2-.49.3-.76.3zM2.7 225.372l9.33 9.974 9.99-9.313-9.33-9.974-9.99 9.312z" fill="#536b8b"/><path d="M173.356 18.676h66.815v48.398h-66.813z" clip-rule="evenodd" fill="#536b8b" fill-rule="evenodd"/><path d="M198.033 432.87l11.03-11.44 11.464 11.01-11.032 11.442" clip-rule="evenodd" fill="#dbf9ff" fill-rule="evenodd"/><path d="M209.495 445c-.28 0-.558-.104-.774-.313l-11.46-11.013c-.214-.206-.337-.488-.343-.785-.006-.298.107-.585.313-.8l11.03-11.44c.428-.443 1.135-.455 1.58-.03l11.462 11.014c.214.206.337.49.343.785.006.296-.107.583-.313.797l-11.033 11.44c-.22.227-.513.342-.806.342zm-9.88-12.16l9.85 9.463 9.48-9.83-9.85-9.465-9.48 9.83zm12.213-119.725h-4.463c-.617 0-1.117-.5-1.117-1.117s.5-1.117 1.117-1.117h4.463c.617 0 1.117.5 1.117 1.12 0 .617-.5 1.116-1.117 1.116zm0 18.81h-4.463c-.617 0-1.117-.5-1.117-1.116 0-.62.5-1.12 1.117-1.12h4.463c.617 0 1.117.5 1.117 1.118 0 .615-.5 1.116-1.117 1.116zm-.878 3.602h-2.706c-.617 0-1.117-.5-1.117-1.117 0-.616.5-1.117 1.117-1.117h2.705c.615 0 1.115.5 1.115 1.117s-.5 1.117-1.117 1.117zm-24.69 22.49c-.487 0-.936-.323-1.074-.817-.167-.594.18-1.21.773-1.377l3.89-1.095c.596-.17 1.21.18 1.38.773.165.596-.18 1.214-.775 1.38l-3.892 1.094c-.102.03-.203.043-.303.043z" fill="#536b8b"/><path d="M14.516 96.695H70.93v61.783H14.516z" clip-rule="evenodd" fill="#fff" fill-rule="evenodd"/><path d="M70.93 159.596H14.516c-.618 0-1.118-.5-1.118-1.117V96.693c0-.618.5-1.118 1.118-1.118H70.93c.617 0 1.117.5 1.117 1.118v61.783c0 .618-.5 1.118-1.117 1.118zm-55.297-2.236h54.18V97.813h-54.18v59.547z" fill="#536b8b"/><path d="M9.315 114.252H76.13v48.398H9.314z" clip-rule="evenodd" fill="#dbf9ff" fill-rule="evenodd"/><path d="M76.13 163.77H9.315c-.617 0-1.118-.502-1.118-1.12v-48.397c0-.618.5-1.118 1.118-1.118H76.13c.617 0 1.117.5 1.117 1.118v48.398c0 .62-.5 1.12-1.117 1.12zm-65.697-2.238h64.58V115.37h-64.58v46.162z" fill="#536b8b"/><path d="M360.268 124.245h56.414v61.783h-56.414z" clip-rule="evenodd" fill="#fff" fill-rule="evenodd"/><path d="M416.682 187.146h-56.414c-.617 0-1.117-.5-1.117-1.118v-61.783c0-.617.5-1.118 1.12-1.118h56.413c.616 0 1.116.5 1.116 1.118v61.783c0 .618-.5 1.118-1.117 1.118zm-55.298-2.235h54.18v-59.546h-54.18v59.548z" fill="#536b8b"/><path d="M355.067 141.802h66.814v48.4H355.07z" clip-rule="evenodd" fill="#fdd26a" fill-rule="evenodd"/><path d="M421.882 191.318h-66.814c-.617 0-1.118-.5-1.118-1.117v-48.397c0-.617.5-1.118 1.118-1.118h66.814c.617 0 1.118.5 1.118 1.118v48.4c0 .616-.5 1.116-1.118 1.116zm-65.696-2.235h64.578V142.92h-64.578v46.163z" fill="#536b8b"/><path d="M341.095 315.277h56.413v61.783h-56.413z" clip-rule="evenodd" fill="#dbe9f6" fill-rule="evenodd"/><path d="M398.626 378.18h-58.65v-64.02h58.65v64.02zm-56.413-2.238h54.177v-59.547h-54.177v59.547z" fill="#536b8b"/><path d="M335.896 332.836h66.813v48.396h-66.815z" clip-rule="evenodd" fill="#f1877a" fill-rule="evenodd"/><path d="M403.826 382.352h-69.05v-50.635h69.05v50.635zm-66.812-2.237h64.577v-46.16h-64.575v46.16z" fill="#536b8b"/><path d="M50.4 343.35h56.413v61.784H50.4z" clip-rule="evenodd" fill="#536b8b" fill-rule="evenodd"/><path d="M390.51 241.13l11.514-10.955L413 241.672l-11.518 10.954" clip-rule="evenodd" fill="#dbf9ff" fill-rule="evenodd"/><path d="M401.482 253.744c-.294 0-.59-.116-.808-.346L389.7 241.9c-.205-.213-.316-.5-.31-.798.008-.297.133-.578.348-.783l11.516-10.956c.447-.423 1.153-.407 1.58.037L413.81 240.9c.203.214.314.5.307.8-.006.295-.132.576-.347.78l-11.517 10.956c-.217.206-.493.308-.77.308zm-9.392-12.577l9.43 9.88 9.9-9.413-9.434-9.88-9.896 9.413z" fill="#536b8b"/><path d="M362.554 150.223H376.1v8.654h-13.546z" clip-rule="evenodd" fill="#a2baf0" fill-rule="evenodd"/><path d="M377.217 159.995h-15.78v-10.89h15.78v10.89zm-13.545-2.236h11.31v-6.42h-11.31v6.42z" fill="#536b8b"/><path d="M381.702 150.223h13.544v8.654h-13.544z" clip-rule="evenodd" fill="#f1877a" fill-rule="evenodd"/><path d="M396.364 159.995h-15.78v-10.89h15.78v10.89zm-13.544-2.236h11.308v-6.42H382.82v6.42z" fill="#536b8b"/><path d="M400.85 150.223h13.546v8.654H400.85z" clip-rule="evenodd" fill="#a2baf0" fill-rule="evenodd"/><path d="M415.514 159.995h-15.78v-10.89h15.78v10.89zm-13.545-2.236h11.307v-6.42h-11.31v6.42zM369.326 174.245c-.616 0-1.118-.5-1.118-1.118v-14.25c0-.617.502-1.118 1.118-1.118.617 0 1.118.5 1.118 1.116v14.25c0 .617-.5 1.118-1.118 1.118zM388.475 174.245c-.617 0-1.118-.5-1.118-1.118v-14.25c0-.617.5-1.118 1.118-1.118.618 0 1.118.5 1.118 1.116v14.25c0 .617-.5 1.118-1.118 1.118z" fill="#536b8b"/><path d="M407.623 174.245c-.617 0-1.118-.5-1.118-1.118v-14.25c0-.617.5-1.118 1.118-1.118.616 0 1.118.5 1.118 1.116v14.25c0 .617-.5 1.118-1.116 1.118z" fill="#536b8b"/><path d="M362.554 173.127H376.1v8.653h-13.546z" clip-rule="evenodd" fill="#f1877a" fill-rule="evenodd"/><path d="M377.217 182.898h-15.78v-10.89h15.78v10.89zm-13.545-2.235h11.31v-6.418h-11.31v6.418z" fill="#536b8b"/><path d="M381.702 173.127h13.544v8.653h-13.544z" clip-rule="evenodd" fill="#a2baf0" fill-rule="evenodd"/><path d="M396.364 182.898h-15.78v-10.89h15.78v10.89zm-13.544-2.235h11.308v-6.418H382.82v6.418z" fill="#536b8b"/><path d="M400.85 173.127h13.546v8.653H400.85z" clip-rule="evenodd" fill="#f1877a" fill-rule="evenodd"/><path d="M415.514 182.898h-15.78v-10.89h15.78v10.89zm-13.545-2.235h11.307v-6.418h-11.31v6.418z" fill="#536b8b"/><path d="M238.12 356.335l-1.905-1.02c-2.468-1.574-1.915-3.52-1.915-6.454v-7.69c2.208 1.343 2.598 2.03 3.82 4.327v10.84z" clip-rule="evenodd" fill="#f7bfb3" fill-rule="evenodd"/><path d="M369.326 169.817l-1.714-2.964-1.715-2.963h6.86l-1.716 2.963M388.475 169.817l-1.715-2.964-1.715-2.963h6.858l-1.713 2.963M407.623 169.817l-1.716-2.964-1.714-2.963h6.86l-1.715 2.963" clip-rule="evenodd" fill="#536b8b" fill-rule="evenodd"/><path d="M404.964 130.813h-6.55c-.616 0-1.116-.5-1.116-1.118 0-.618.5-1.118 1.117-1.118h6.55c.616 0 1.116.5 1.116 1.118 0 .617-.5 1.118-1.115 1.118zm-12.262 0h-22.736c-.617 0-1.117-.5-1.117-1.118 0-.618.5-1.118 1.115-1.118H392.7c.618 0 1.118.5 1.118 1.118 0 .617-.5 1.118-1.118 1.118z" fill="#536b8b"/><path d="M388.69 135.072h-18.725c-.617 0-1.118-.5-1.118-1.117 0-.618.5-1.118 1.118-1.118h18.726c.618 0 1.12.5 1.12 1.118 0 .617-.5 1.117-1.12 1.117z" fill="#a2baf0"/><path d="M404.964 139.334h-34.998c-.617 0-1.117-.5-1.117-1.118 0-.618.5-1.118 1.115-1.118h34.998c.617 0 1.117.5 1.117 1.118 0 .618-.5 1.118-1.116 1.118z" fill="#536b8b"/><path d="M226.558 356.335l-1.905-1.02c-2.467-1.574-1.915-3.52-1.915-6.454V338.71c2.21 1.34 3.405 3.4 3.82 6.79v10.838z" clip-rule="evenodd" fill="#f7bfb3" fill-rule="evenodd"/><path d="M237.813 354.545c-.617 0-1.117-.5-1.117-1.117v-7.32c0-2.528-2.063-4.584-4.598-4.584-2.532 0-4.594 2.056-4.594 4.584v7.32c0 .616-.5 1.117-1.117 1.117s-1.117-.5-1.117-1.117v-7.32c0-3.76 3.063-6.818 6.828-6.818 3.767 0 6.832 3.06 6.832 6.818v7.32c0 .616-.5 1.117-1.117 1.117z" fill="#536b8b"/><path d="M226.388 357.01c-.617 0-1.117-.5-1.117-1.117V343.76c0-2.528-2.06-4.587-4.596-4.587-2.533 0-4.595 2.06-4.595 4.586v9.667c0 .616-.5 1.117-1.118 1.117-.615 0-1.116-.5-1.116-1.117v-9.67c0-3.76 3.063-6.82 6.83-6.82s6.83 3.06 6.83 6.82v12.135c0 .617-.5 1.117-1.116 1.117z" fill="#536b8b"/><path d="M346.51 339.646h22.792v8.654H346.51z" clip-rule="evenodd" fill="#fdd26a" fill-rule="evenodd"/><path d="M370.42 349.418h-25.028v-10.89h25.028v10.89zm-22.792-2.237h20.556v-6.414h-20.556v6.416z" fill="#536b8b"/><path d="M369.302 339.646h22.79v8.654h-22.79z" clip-rule="evenodd" fill="#dbf9ff" fill-rule="evenodd"/><path d="M393.21 349.418h-25.026v-10.89h25.027v10.89zm-22.79-2.237h20.555v-6.414H370.42v6.416z" fill="#536b8b"/><path d="M346.51 352.708h29.528v8.654H346.51z" clip-rule="evenodd" fill="#dbf9ff" fill-rule="evenodd"/><path d="M377.156 362.48H345.39v-10.89h31.766v10.89zm-29.528-2.236h27.292v-6.418h-27.292v6.418z" fill="#536b8b"/><path d="M346.51 365.77h35.81v8.654h-35.81z" clip-rule="evenodd" fill="#fdd26a" fill-rule="evenodd"/><path d="M383.438 375.54H345.39v-10.888h38.048v10.89zm-35.81-2.235h33.575v-6.415h-33.575v6.415z" fill="#536b8b"/><path d="M376.038 352.708h16.055v8.654h-16.055z" clip-rule="evenodd" fill="#fdd26a" fill-rule="evenodd"/><path d="M393.21 362.48h-18.29v-10.89h18.29v10.89zm-16.054-2.236h13.818v-6.418h-13.818v6.418z" fill="#536b8b"/><path d="M382.32 365.77h9.772v8.654h-9.772z" clip-rule="evenodd" fill="#dbf9ff" fill-rule="evenodd"/><path d="M393.21 375.54h-12.007v-10.888h12.008v10.89zm-9.772-2.235h7.536v-6.415h-7.536v6.415zM372.742 321.248h-22.736c-.616 0-1.117-.5-1.117-1.117 0-.616.5-1.115 1.115-1.115h22.736c.617 0 1.118.5 1.118 1.117s-.502 1.118-1.118 1.118zM382.615 325.51h-32.61c-.615 0-1.116-.503-1.116-1.12 0-.616.5-1.116 1.115-1.116h32.61c.616 0 1.116.5 1.116 1.117 0 .618-.5 1.12-1.116 1.12zM385.004 329.77h-34.998c-.616 0-1.117-.5-1.117-1.118 0-.618.5-1.117 1.115-1.117h34.998c.617 0 1.117.5 1.117 1.117s-.5 1.117-1.116 1.117zM249.237 374.886c-.617 0-1.117-.5-1.117-1.118v-22.4c0-2.526-2.062-4.584-4.594-4.584-1.224 0-2.374.48-3.246 1.35-.87.868-1.35 2.018-1.35 3.235v4.965c0 .617-.5 1.117-1.117 1.117s-1.117-.5-1.117-1.117v-4.967c0-3.763 3.063-6.82 6.83-6.82 3.765 0 6.828 3.06 6.828 6.82v22.398c0 .618-.5 1.118-1.117 1.118z" fill="#536b8b"/><path d="M73.434 351.192h-15.59c-.616 0-1.116-.5-1.116-1.118 0-.618.5-1.118 1.117-1.118h15.59c.616 0 1.116.5 1.116 1.118 0 .618-.5 1.118-1.115 1.118zM98.395 351.192H82.807c-.618 0-1.118-.5-1.118-1.118 0-.618.5-1.118 1.116-1.118h15.588c.617 0 1.117.5 1.117 1.118 0 .618-.5 1.118-1.116 1.118z" fill="#fff"/><path d="M92.58 355.93h-9.773c-.618 0-1.118-.5-1.118-1.118 0-.616.5-1.117 1.116-1.117h9.772c.616 0 1.117.5 1.117 1.117 0 .618-.5 1.118-1.118 1.118zM65.64 355.93h-8.146c-.617 0-1.118-.5-1.118-1.118 0-.616.5-1.117 1.118-1.117h8.145c.616 0 1.116.5 1.116 1.117 0 .618-.5 1.118-1.118 1.118z" fill="#f1877a"/><path d="M92.58 360.532h-9.773c-.618 0-1.118-.5-1.118-1.118 0-.618.5-1.12 1.116-1.12h9.772c.616 0 1.117.503 1.117 1.12 0 .617-.5 1.118-1.118 1.118zM71.16 360.532H57.493c-.617 0-1.118-.5-1.118-1.118 0-.618.5-1.12 1.118-1.12H71.16c.616 0 1.116.503 1.116 1.12 0 .617-.5 1.118-1.117 1.118zM98.995 360.532h-3.057c-.618 0-1.118-.5-1.118-1.118 0-.618.5-1.12 1.118-1.12h3.057c.618 0 1.118.503 1.118 1.12 0 .617-.5 1.118-1.118 1.118z" fill="#fff"/><path d="M45.2 360.908h66.814v48.398H45.2z" clip-rule="evenodd" fill="#a2baf0" fill-rule="evenodd"/><path d="M112.015 410.425H45.2c-.616 0-1.117-.502-1.117-1.118V360.91c0-.618.5-1.12 1.118-1.12h66.815c.617 0 1.117.502 1.117 1.12v48.397c.002.616-.498 1.118-1.115 1.118zm-65.697-2.237h64.578v-46.162H46.318v46.162z" fill="#536b8b"/><path d="M67.21 367.028h22.793v8.653H67.21z" clip-rule="evenodd" fill="#fdd26a" fill-rule="evenodd"/><path d="M91.12 376.8H66.094v-10.89H91.12v10.89zm-22.79-2.237h20.555v-6.417H68.33v6.417z" fill="#536b8b"/><path d="M78.607 400.555c-.617 0-1.118-.502-1.118-1.12v-23.753c0-.617.5-1.118 1.116-1.118.617 0 1.117.5 1.117 1.118v23.754c0 .617-.5 1.12-1.117 1.12z" fill="#536b8b"/><path d="M85.936 387.947H71.278c-.617 0-1.118-.5-1.118-1.118 0-.62.5-1.12 1.118-1.12h14.657c.617 0 1.117.5 1.117 1.12 0 .617-.5 1.116-1.116 1.116z" fill="#536b8b"/><path d="M60.285 383.43h10.663v6.8H60.285z" clip-rule="evenodd" fill="#fdd26a" fill-rule="evenodd"/><path d="M72.065 391.347H59.167v-9.035h12.898v9.035zm-10.663-2.236h8.43v-4.562H61.4v4.564z" fill="#536b8b"/><path d="M86.267 383.43H96.93v6.8H86.268z" clip-rule="evenodd" fill="#f1877a" fill-rule="evenodd"/><path d="M98.048 391.347h-12.9v-9.035h12.9v9.035zm-10.663-2.236h8.428v-4.562h-8.428v4.564zM85.936 400.555H71.278c-.617 0-1.118-.502-1.118-1.12 0-.615.5-1.116 1.118-1.116h14.657c.617 0 1.117.5 1.117 1.115 0 .617-.5 1.12-1.116 1.12z" fill="#536b8b"/><path d="M60.285 396.036h10.663v6.8H60.285z" clip-rule="evenodd" fill="#f1877a" fill-rule="evenodd"/><path d="M72.065 403.955H59.167v-9.037h12.898v9.037zm-10.663-2.237h8.43v-4.563H61.4v4.563z" fill="#536b8b"/><path d="M86.267 396.036H96.93v6.8H86.268z" clip-rule="evenodd" fill="#fdd26a" fill-rule="evenodd"/><path d="M98.048 403.955h-12.9v-9.037h12.9v9.037zm-10.663-2.237h8.428v-4.563h-8.428v4.563z" fill="#536b8b"/><path d="M221.71 8.046h-6.55c-.616 0-1.116-.5-1.116-1.117 0-.62.5-1.12 1.117-1.12h6.55c.617 0 1.117.5 1.117 1.12 0 .615-.5 1.115-1.117 1.115zm-12.263 0h-22.735c-.618 0-1.118-.5-1.118-1.117 0-.62.5-1.12 1.118-1.12h22.735c.617 0 1.117.5 1.117 1.12 0 .615-.5 1.115-1.117 1.115z" fill="#f1877a"/><path d="M205.437 12.308h-18.725c-.618 0-1.118-.5-1.118-1.118 0-.618.5-1.118 1.118-1.118h18.725c.617 0 1.117.5 1.117 1.118 0 .618-.5 1.118-1.117 1.118zM202.743 16.568h-16.03c-.62 0-1.12-.5-1.12-1.118 0-.618.5-1.118 1.12-1.118h16.03c.618 0 1.118.5 1.118 1.118 0 .617-.5 1.118-1.116 1.118zM225.435 12.308H211.41c-.618 0-1.118-.5-1.118-1.118 0-.618.5-1.118 1.117-1.118h14.024c.617 0 1.117.5 1.117 1.118 0 .618-.5 1.118-1.116 1.118z" fill="#536b8b"/><path d="M225.232 16.568H209.2c-.618 0-1.118-.5-1.118-1.118 0-.618.5-1.118 1.117-1.118h16.03c.618 0 1.118.5 1.118 1.118 0 .617-.5 1.118-1.118 1.118z" fill="#f1877a"/><path d="M55.776 103.915h-29.63c-.617 0-1.118-.5-1.118-1.118 0-.618.5-1.118 1.118-1.118h29.63c.617 0 1.118.5 1.118 1.116 0 .617-.5 1.118-1.118 1.118zM41.837 109.98h-17.3c-.617 0-1.117-.5-1.117-1.12 0-.616.5-1.116 1.118-1.116h17.3c.617 0 1.117.5 1.117 1.117 0 .62-.5 1.12-1.118 1.12z" fill="#536b8b"/><path d="M50.934 109.98H45.79c-.616 0-1.116-.5-1.116-1.12 0-.616.5-1.116 1.117-1.116h5.145c.617 0 1.117.5 1.117 1.117 0 .62-.5 1.12-1.116 1.12zM59.454 109.98h-5.14c-.62 0-1.12-.5-1.12-1.12 0-.616.5-1.116 1.12-1.116h5.14c.617 0 1.118.5 1.118 1.117 0 .62-.5 1.12-1.118 1.12z" fill="#fdd26a"/><path d="M18.788 119.07h6.95v9.703h-6.95z" clip-rule="evenodd" fill="#fdd26a" fill-rule="evenodd"/><path d="M25.737 129.89h-6.95c-.616 0-1.116-.5-1.116-1.116v-9.702c0-.618.5-1.118 1.12-1.118h6.95c.615 0 1.115.5 1.115 1.118v9.702c0 .617-.5 1.117-1.117 1.117zm-5.83-2.235h4.712v-7.467h-4.715v7.467z" fill="#536b8b"/><path d="M68.378 129.89h-43.76v-11.937h43.76v11.938zm-41.524-2.235h39.288v-7.467H26.854v7.467z" fill="#536b8b"/><path d="M18.788 133.7h6.95v9.702h-6.95z" clip-rule="evenodd" fill="#f1877a" fill-rule="evenodd"/><path d="M26.854 144.52H17.67v-11.937h9.184v11.937zm-6.948-2.236h4.713v-7.465h-4.715v7.463z" fill="#536b8b"/><path d="M68.378 144.52h-43.76v-11.937h43.76v11.937zm-41.524-2.236h39.288v-7.465H26.854v7.463z" fill="#536b8b"/><path d="M18.788 148.13h6.95v9.702h-6.95z" clip-rule="evenodd" fill="#fdd26a" fill-rule="evenodd"/><path d="M25.737 158.95h-6.95c-.616 0-1.116-.5-1.116-1.118v-9.702c0-.617.5-1.117 1.12-1.117h6.95c.615 0 1.115.5 1.115 1.117v9.702c0 .618-.5 1.118-1.117 1.118zm-5.83-2.235h4.712v-7.467h-4.715v7.467z" fill="#536b8b"/><g><path d="M68.378 158.95h-43.76v-11.938h43.76v11.938zm-41.524-2.235h39.288v-7.467H26.854v7.467z" fill="#536b8b"/></g><g><path d="M40.454 125.04h-9.9c-.618 0-1.12-.5-1.12-1.118 0-.617.502-1.117 1.12-1.117h9.9c.617 0 1.117.5 1.117 1.117 0 .618-.5 1.118-1.115 1.118z" fill="#536b8b"/></g><g><path d="M49.004 125.04h-4.617c-.618 0-1.118-.5-1.118-1.118 0-.617.5-1.117 1.116-1.117h4.617c.617 0 1.117.5 1.117 1.117 0 .618-.5 1.118-1.116 1.118z" fill="#536b8b"/></g><g><path d="M52.884 139.67h-22.33c-.618 0-1.12-.5-1.12-1.118 0-.618.502-1.118 1.12-1.118h22.33c.617 0 1.118.5 1.118 1.118 0 .618-.5 1.118-1.118 1.118z" fill="#536b8b"/></g><g><path d="M60.91 139.67h-4.618c-.617 0-1.117-.5-1.117-1.118 0-.618.5-1.118 1.117-1.118h4.618c.617 0 1.117.5 1.117 1.118 0 .618-.5 1.118-1.117 1.118z" fill="#536b8b"/></g><g><path d="M46.498 154.482H30.553c-.617 0-1.118-.5-1.118-1.118 0-.618.5-1.118 1.118-1.118h15.945c.617 0 1.118.5 1.118 1.118 0 .618-.5 1.118-1.118 1.118z" fill="#536b8b"/></g><g><path d="M182.828 25.035h7.344v6.598h-7.344z" clip-rule="evenodd" fill="#a2baf0" fill-rule="evenodd"/></g><g><path d="M214.35 29.354h-18.727c-.617 0-1.117-.5-1.117-1.117 0-.618.5-1.118 1.117-1.118h18.727c.617 0 1.117.5 1.117 1.116 0 .617-.5 1.117-1.117 1.117z" fill="#fff"/></g><g><path d="M192.552 34.542h7.345v6.598h-7.345z" clip-rule="evenodd" fill="#a2baf0" fill-rule="evenodd"/></g><g><path d="M183.932 44.05h7.343v6.597h-7.343z" clip-rule="evenodd" fill="#a2baf0" fill-rule="evenodd"/></g><g><path d="M198.065 53.556h7.345v6.596h-7.345z" clip-rule="evenodd" fill="#a2baf0" fill-rule="evenodd"/></g><g><path d="M226.366 29.354h-5.826c-.617 0-1.117-.5-1.117-1.117 0-.618.5-1.118 1.117-1.118h5.826c.617 0 1.117.5 1.117 1.116 0 .617-.5 1.117-1.117 1.117z" fill="#fff"/></g><g><path d="M221.98 38.96h-18.726c-.618 0-1.118-.502-1.118-1.12 0-.618.5-1.117 1.118-1.117h18.725c.615 0 1.115.5 1.115 1.118 0 .62-.5 1.12-1.117 1.12z" fill="#fff"/></g><g><path d="M207.503 48.465h-11.88c-.617 0-1.117-.5-1.117-1.117 0-.618.5-1.118 1.117-1.118h11.88c.617 0 1.117.5 1.117 1.118 0 .617-.5 1.117-1.117 1.117z" fill="#fff"/></g><g><path d="M218.24 57.97h-9.364c-.617 0-1.117-.5-1.117-1.117s.5-1.117 1.115-1.117h9.363c.616 0 1.116.5 1.116 1.117 0 .618-.5 1.118-1.117 1.118z" fill="#fff"/></g><g><path d="M226.777 57.97h-4.682c-.616 0-1.117-.5-1.117-1.117s.5-1.117 1.117-1.117h4.682c.617 0 1.117.5 1.117 1.117 0 .618-.5 1.118-1.117 1.118z" fill="#fff"/></g><g><path d="M220.353 48.465h-6.457c-.617 0-1.117-.5-1.117-1.117 0-.618.5-1.118 1.115-1.118h6.457c.616 0 1.117.5 1.117 1.118 0 .617-.5 1.117-1.118 1.117z" fill="#fff"/></g><g><path d="M231.01 48.465h-5.035c-.616 0-1.117-.5-1.117-1.117 0-.618.5-1.118 1.117-1.118h5.035c.616 0 1.117.5 1.117 1.118 0 .617-.5 1.117-1.117 1.117z" fill="#fff"/></g></g></svg>