<svg xmlns="http://www.w3.org/2000/svg" width="620" height="360" viewBox="0 0 620.00021 359.99945"><g transform="matrix(.85565 0 0 .79626 126.698 1.822)"><path d="M328.53 247.73h13.884c4.088.034 3.096 2.765 1.41 5.38-2.066 3.2 1.037 7.125 4.3 7.32 3.265-.195 6.367-4.12 4.303-7.32-1.688-2.615-2.68-5.346 1.41-5.38h14.33v-13.334c.035-4.08 2.77-3.09 5.39-1.405 3.21 2.06 7.14-1.032 7.337-4.292-.197-3.257-4.127-6.353-7.336-4.293-2.62 1.683-5.355 2.673-5.39-1.407V208.02h-14.332c-4.088.033-3.097 2.764-1.41 5.38 2.065 3.2-1.037 7.125-4.3 7.32-3.265-.195-6.368-4.12-4.303-7.32 1.687-2.616 2.68-5.347-1.41-5.38H328.53v39.71z" clip-rule="evenodd" fill="#dbe9f6" fill-rule="evenodd"/><path d="M348.125 261.593c-.023 0-.047 0-.07-.003-2.19-.13-4.37-1.617-5.424-3.698-.913-1.808-.834-3.78.22-5.413 1.556-2.417 1.27-3.104 1.23-3.174-.08-.15-.525-.407-1.674-.418H328.53a1.16 1.16 0 0 1-1.162-1.16v-39.714c0-.643.52-1.163 1.162-1.163h13.884c1.887.018 3.132.568 3.71 1.64.906 1.68-.23 3.843-1.323 5.537-.77 1.194-.476 2.346-.094 3.1.672 1.325 2.07 2.313 3.42 2.425 1.352-.112 2.75-1.1 3.42-2.424.383-.755.677-1.906-.094-3.1-1.092-1.696-2.23-3.857-1.323-5.538.577-1.07 1.82-1.622 3.7-1.64h14.34c.64 0 1.16.522 1.16 1.164v14.98c.017 1.7.494 1.705.677 1.705.43 0 1.283-.22 2.925-1.277a5.204 5.204 0 0 1 2.845-.85c3.15 0 6.085 2.828 6.28 6.052a1.09 1.09 0 0 1 0 .14c-.194 3.224-3.13 6.05-6.28 6.05a5.185 5.185 0 0 1-2.843-.847c-1.642-1.057-2.496-1.277-2.924-1.277-.182 0-.66 0-.677 1.714v13.323c0 .64-.52 1.16-1.16 1.16H353.84c-1.14.01-1.583.268-1.663.418-.04.07-.327.756 1.23 3.17 1.053 1.632 1.13 3.605.215 5.414-1.056 2.08-3.234 3.565-5.425 3.696l-.07.002zm-18.432-15.03h12.72c1.888.018 3.134.57 3.71 1.64.907 1.682-.23 3.842-1.323 5.536-.77 1.193-.478 2.344-.095 3.1.67 1.325 2.068 2.313 3.42 2.424 1.35-.11 2.75-1.1 3.42-2.424.382-.754.676-1.905-.096-3.103-1.095-1.692-2.23-3.853-1.326-5.534.578-1.07 1.822-1.623 3.7-1.64h13.18v-12.17c.03-3.637 2.108-4.028 3-4.028 1.105 0 2.433.522 4.18 1.646.496.32 1.03.48 1.588.48 1.893 0 3.794-1.833 3.956-3.795-.163-1.96-2.064-3.794-3.957-3.794-.557 0-1.09.163-1.587.48-1.747 1.123-3.074 1.645-4.18 1.646-.892 0-2.97-.392-3-4.02V209.18h-13.17c-1.14.01-1.583.266-1.663.416-.04.07-.327.757 1.23 3.173 1.053 1.63 1.13 3.603.216 5.41-1.056 2.08-3.234 3.568-5.426 3.7a1.09 1.09 0 0 1-.14 0c-2.19-.132-4.37-1.62-5.425-3.7-.916-1.81-.837-3.78.216-5.412 1.558-2.415 1.27-3.102 1.23-3.172-.08-.15-.523-.407-1.672-.417h-12.71v37.385z" fill="#b8c8d4"/><path d="M288.893 208.017h13.884c4.09-.034 3.097-2.767 1.41-5.382-2.064-3.2 1.037-7.123 4.3-7.322 3.266.2 6.368 4.12 4.304 7.322-1.684 2.615-2.676 5.348 1.41 5.382h14.333v13.33c.035 4.082 2.772 3.092 5.393 1.407 3.207-2.06 7.138 1.036 7.335 4.294-.196 3.26-4.127 6.354-7.334 4.294-2.62-1.683-5.357-2.674-5.392 1.407v14.976H314.2c-4.088-.036-3.096-2.766-1.41-5.383 2.065-3.2-1.037-7.125-4.302-7.32-3.264.195-6.365 4.12-4.3 7.32 1.686 2.617 2.678 5.347-1.41 5.383h-13.886V230.69c.86-1.55 2.958-.665 4.985.637 3.206 2.062 7.137-1.036 7.336-4.294-.2-3.257-4.13-6.354-7.336-4.295-2.027 1.304-4.124 2.19-4.985.637v-15.358z" clip-rule="evenodd" fill="#dbe9f6" fill-rule="evenodd"/><path d="M328.53 248.89H314.2c-1.89-.016-3.133-.566-3.71-1.638-.907-1.682.23-3.84 1.322-5.536.77-1.195.478-2.347.096-3.103-.672-1.324-2.07-2.312-3.42-2.423-1.35.11-2.75 1.1-3.42 2.422-.383.755-.676 1.908.094 3.103 1.093 1.696 2.23 3.856 1.324 5.537-.577 1.07-1.822 1.622-3.7 1.638h-13.894a1.16 1.16 0 0 1-1.163-1.16v-17.04c0-.197.05-.39.143-.564.51-.917 1.38-1.422 2.45-1.422 1.104 0 2.433.522 4.18 1.644.496.32 1.03.48 1.587.48 1.89 0 3.794-1.834 3.956-3.796-.16-1.926-2.1-3.796-3.956-3.796-.556 0-1.09.16-1.585.48-1.747 1.122-3.075 1.645-4.18 1.645-1.07 0-1.94-.504-2.45-1.423a1.155 1.155 0 0 1-.146-.563v-15.358c0-.643.52-1.163 1.16-1.163h13.884c1.14-.01 1.583-.267 1.664-.416.037-.07.324-.758-1.23-3.172-1.054-1.632-1.13-3.605-.217-5.413 1.054-2.08 3.233-3.566 5.424-3.7a1.68 1.68 0 0 1 .142 0c2.19.134 4.37 1.62 5.422 3.7.915 1.81.837 3.78-.214 5.414-1.558 2.414-1.27 3.1-1.232 3.17.082.15.525.408 1.674.418h14.32c.644 0 1.164.52 1.164 1.163v13.33c.014 1.706.494 1.706.675 1.706.428 0 1.28-.22 2.924-1.275a5.2 5.2 0 0 1 2.844-.85c3.15 0 6.086 2.828 6.28 6.052a1.09 1.09 0 0 1 0 .14c-.194 3.222-3.13 6.05-6.28 6.05a5.186 5.186 0 0 1-2.843-.848c-1.643-1.058-2.496-1.278-2.925-1.278-.182 0-.662 0-.677 1.715v14.97c0 .64-.52 1.16-1.164 1.16zm-20.043-15.03a.82.82 0 0 1 .07.004c2.19.13 4.37 1.617 5.423 3.698.916 1.81.84 3.78-.214 5.414-1.557 2.414-1.27 3.102-1.23 3.17.08.152.524.408 1.674.42l13.158-.046v-13.77c.03-3.64 2.108-4.03 3-4.03 1.105 0 2.434.52 4.18 1.644.498.318 1.032.48 1.59.48 1.892 0 3.793-1.834 3.954-3.796-.16-1.96-2.063-3.795-3.955-3.795-.557 0-1.09.16-1.588.48-1.75 1.122-3.078 1.645-4.184 1.645-.892 0-2.97-.392-3-4.02v-12.18h-13.17c-1.886-.016-3.13-.566-3.71-1.638-.905-1.682.232-3.842 1.325-5.536.77-1.195.478-2.346.096-3.102-.67-1.324-2.07-2.313-3.42-2.425-1.352.112-2.75 1.1-3.42 2.424-.383.76-.676 1.91.095 3.106 1.093 1.694 2.23 3.854 1.324 5.536-.578 1.07-1.822 1.623-3.7 1.64h-12.73v13.805c.26.154 1.06.147 3.193-1.224a5.193 5.193 0 0 1 2.842-.85c3.15 0 6.084 2.83 6.28 6.053a1.12 1.12 0 0 1 0 .142c-.196 3.223-3.13 6.05-6.28 6.05a5.19 5.19 0 0 1-2.844-.848c-2.126-1.366-2.928-1.39-3.194-1.223v15.48h12.72c1.14-.01 1.585-.266 1.665-.417.04-.07.326-.757-1.23-3.172-1.052-1.632-1.13-3.604-.214-5.414 1.053-2.08 3.233-3.565 5.423-3.696l.067-.002z" fill="#b8c8d4"/><path d="M368.168 287.438h-13.885c-4.09.035-3.097 2.767-1.41 5.382 2.064 3.2-1.038 7.125-4.302 7.323-3.26-.198-6.363-4.122-4.3-7.323 1.687-2.615 2.68-5.347-1.41-5.382h-14.33v-15.18H312.93v-14.094h15.604v-10.436h14.33c4.09.035 3.095 2.766 1.41 5.38-2.065 3.202 1.037 7.126 4.3 7.322 3.265-.196 6.367-4.12 4.303-7.322-1.687-2.614-2.68-5.345 1.41-5.38h13.885v13.2c-.035 4.08-2.77 3.09-5.393 1.406-3.207-2.06-7.137 1.037-7.337 4.295.2 3.254 4.13 6.35 7.337 4.29 2.62-1.683 5.357-2.674 5.393 1.406v15.11z" clip-rule="evenodd" fill="#dbe9f6" fill-rule="evenodd"/><path d="M348.57 301.306c-.022 0-.046 0-.07-.003-2.19-.133-4.37-1.62-5.423-3.7-.915-1.81-.836-3.78.217-5.412 1.556-2.412 1.268-3.1 1.23-3.17-.08-.15-.525-.406-1.675-.42l-14.32.004c-.644 0-1.164-.52-1.164-1.163v-14.015h-14.442c-.642 0-1.163-.52-1.163-1.164v-14.094c0-.644.52-1.164 1.164-1.164h14.442v-9.27c0-.643.52-1.164 1.162-1.164h14.33c1.886.017 3.13.568 3.71 1.64.905 1.68-.23 3.84-1.324 5.534-.772 1.197-.478 2.348-.095 3.103.67 1.325 2.07 2.313 3.42 2.424 1.35-.11 2.747-1.1 3.42-2.424.38-.756.675-1.906-.097-3.104-1.092-1.693-2.23-3.853-1.323-5.534.58-1.07 1.824-1.623 3.7-1.64h13.897c.642 0 1.162.52 1.162 1.164v13.2c-.034 3.64-2.11 4.03-3.004 4.03-1.104 0-2.434-.522-4.182-1.646a2.896 2.896 0 0 0-1.585-.48c-1.893 0-3.795 1.835-3.958 3.797.163 1.96 2.064 3.797 3.956 3.797.556 0 1.09-.16 1.585-.48 1.75-1.122 3.078-1.645 4.183-1.645.89 0 2.968.393 3 4.02v15.12c0 .643-.52 1.163-1.162 1.163H354.28c-1.063.01-1.562.23-1.663.417-.04.07-.327.758 1.23 3.173 1.052 1.63 1.13 3.603.214 5.41-1.05 2.082-3.23 3.568-5.42 3.7l-.07.003zm-18.877-15.03h13.166c1.885.016 3.13.566 3.71 1.637.904 1.682-.23 3.843-1.325 5.537-.77 1.196-.478 2.347-.096 3.102.67 1.324 2.067 2.313 3.42 2.425 1.352-.11 2.75-1.1 3.42-2.424.382-.756.676-1.906-.095-3.102-1.093-1.692-2.23-3.852-1.323-5.534.577-1.07 1.822-1.622 3.7-1.638h12.73V272.33c-.014-1.705-.494-1.705-.675-1.705-.428 0-1.282.222-2.927 1.275-.874.563-1.83.85-2.84.85-3.15 0-6.084-2.826-6.28-6.05a.674.674 0 0 1 0-.142c.196-3.223 3.132-6.05 6.28-6.05 1.01 0 1.966.285 2.843.848 1.644 1.057 2.497 1.278 2.925 1.278.182 0 .662 0 .678-1.717V248.89H354.28c-1.064.01-1.563.23-1.664.417-.038.07-.326.757 1.23 3.17 1.053 1.633 1.13 3.607.214 5.415-1.053 2.08-3.232 3.566-5.422 3.697a1.634 1.634 0 0 1-.14 0c-2.19-.134-4.37-1.62-5.424-3.7-.916-1.81-.837-3.78.216-5.414 1.556-2.415 1.268-3.1 1.23-3.17-.08-.15-.525-.408-1.675-.42l-13.156.045v9.23c0 .644-.52 1.165-1.164 1.165h-14.44v11.77h14.44c.643 0 1.163.52 1.163 1.162v14.015z" fill="#b8c8d4"/><path d="M328.53 247.598h-13.884c-4.09-.034-3.097-2.766-1.41-5.382 2.063-3.2-1.04-7.125-4.302-7.32-3.263.195-6.367 4.12-4.302 7.32 1.686 2.616 2.68 5.348-1.41 5.382h-14.33v13.33c-.035 4.082-2.77 3.092-5.393 1.407-3.21-2.06-7.14 1.037-7.34 4.295.2 3.257 4.13 6.354 7.337 4.293 2.62-1.683 5.356-2.674 5.392 1.406v14.975h14.33c4.09-.034 3.095-2.765 1.41-5.38-2.066-3.202 1.04-7.125 4.3-7.322 3.264.197 6.366 4.12 4.3 7.32-1.684 2.617-2.676 5.348 1.413 5.382h13.884V270.27c-.86-1.552-2.96-.665-4.985.638-3.206 2.06-7.138-1.038-7.337-4.295.2-3.258 4.13-6.354 7.337-4.295 2.026 1.303 4.124 2.188 4.985.637v-15.36z" clip-rule="evenodd" fill="#dbe9f6" fill-rule="evenodd"/><path d="M328.53 288.472h-13.884c-1.888-.017-3.133-.568-3.71-1.64-.907-1.68.23-3.84 1.322-5.535.77-1.195.478-2.347.095-3.102-.67-1.324-2.068-2.313-3.42-2.425-1.352.112-2.75 1.102-3.42 2.426-.38.755-.675 1.905.096 3.1 1.09 1.696 2.226 3.857 1.32 5.537-.578 1.07-1.82 1.622-3.7 1.638l-14.34.004c-.643 0-1.163-.52-1.163-1.164v-14.98c-.016-1.704-.496-1.704-.677-1.704-.427 0-1.28.222-2.925 1.275a5.18 5.18 0 0 1-2.844.85c-3.146 0-6.08-2.824-6.28-6.05a1.634 1.634 0 0 1 0-.14c.2-3.223 3.134-6.05 6.284-6.05 1.01 0 1.966.285 2.843.848 1.643 1.057 2.497 1.278 2.925 1.278.18 0 .66 0 .678-1.717V247.6c0-.643.52-1.164 1.162-1.164h14.33c1.064-.01 1.563-.23 1.664-.417.038-.07.325-.758-1.23-3.174-1.053-1.63-1.13-3.603-.216-5.41 1.054-2.082 3.232-3.568 5.424-3.7a.818.818 0 0 1 .14 0c2.19.132 4.37 1.618 5.424 3.7.915 1.807.837 3.78-.216 5.41-1.556 2.415-1.268 3.103-1.23 3.173.1.186.6.407 1.675.417h13.874c.644 0 1.164.52 1.164 1.162v15.36c0 .195-.05.39-.146.562-.51.918-1.38 1.423-2.45 1.423-1.105 0-2.435-.522-4.18-1.646a2.913 2.913 0 0 0-1.587-.48c-1.89 0-3.792 1.834-3.954 3.796.162 1.96 2.064 3.795 3.956 3.795.56 0 1.093-.16 1.59-.48 1.744-1.122 3.073-1.645 4.18-1.645 1.07 0 1.94.505 2.45 1.423.095.173.145.367.145.564v17.036c0 .646-.52 1.167-1.164 1.167zm-19.595-15.03c.023 0 .047 0 .07.003 2.19.133 4.37 1.62 5.423 3.7.915 1.808.836 3.78-.216 5.41-1.556 2.416-1.268 3.103-1.23 3.173.08.15.525.407 1.675.418h12.712v-15.48c-.27-.168-1.074-.145-3.197 1.22a5.19 5.19 0 0 1-2.843.85c-3.15 0-6.085-2.826-6.28-6.05a.842.842 0 0 1 0-.142c.195-3.223 3.132-6.05 6.28-6.05a5.19 5.19 0 0 1 2.844.848c1.64 1.056 2.495 1.277 2.924 1.277.125 0 .208-.02.27-.058V248.76h-12.722c-1.888-.017-3.133-.567-3.71-1.64-.907-1.68.23-3.84 1.322-5.535.77-1.195.477-2.347.095-3.103-.67-1.324-2.068-2.31-3.42-2.423-1.35.11-2.748 1.1-3.42 2.42-.38.756-.675 1.907.096 3.1 1.092 1.698 2.23 3.858 1.322 5.54-.578 1.07-1.822 1.62-3.7 1.637h-13.177v12.167c-.032 3.64-2.11 4.03-3.002 4.03-1.105 0-2.434-.52-4.182-1.645a2.904 2.904 0 0 0-1.585-.48c-1.892 0-3.794 1.834-3.956 3.796.162 1.96 2.063 3.794 3.954 3.794a2.89 2.89 0 0 0 1.588-.48c1.75-1.122 3.078-1.644 4.182-1.644.892 0 2.97.39 3 4.02l.002 13.825h13.167c1.14-.01 1.583-.265 1.664-.415.038-.07.325-.756-1.23-3.173-1.052-1.63-1.13-3.6-.216-5.41 1.054-2.08 3.233-3.566 5.424-3.7l.07-.002z" fill="#b8c8d4"/><path d="M197.275 147.91c13.754 0 24.975-3.965 24.975-8.825 0-4.86-11.22-8.822-24.975-8.822-13.756 0-24.975 3.963-24.975 8.822 0 4.86 11.22 8.825 24.975 8.825z" clip-rule="evenodd" fill="#dbe9f6" fill-rule="evenodd"/><path d="M197.275 149.072c-12.67 0-26.138-3.5-26.138-9.987 0-6.485 13.467-9.985 26.138-9.985 12.67 0 26.137 3.5 26.137 9.985 0 6.487-13.467 9.987-26.137 9.987zm0-17.647c-14.033 0-23.813 4.037-23.813 7.66 0 3.624 9.78 7.662 23.813 7.662 14.032 0 23.812-4.038 23.812-7.662 0-3.623-9.78-7.66-23.812-7.66z" fill="#b8c8d4"/><path d="M172.3 125.36h49.95v13.725H172.3z" clip-rule="evenodd" fill="#dbe9f6" fill-rule="evenodd"/><path d="M222.25 139.085V125.36H172.3v13.725" clip-rule="evenodd" fill="#dbe9f6" fill-rule="evenodd"/><path d="M222.25 140.248c-.643 0-1.163-.52-1.163-1.163v-12.563h-47.624v12.563a1.162 1.162 0 0 1-2.322 0V125.36c0-.643.52-1.163 1.16-1.163h49.95c.644 0 1.164.52 1.164 1.162v13.723c0 .643-.52 1.163-1.162 1.163z" fill="#b8c8d4"/><path d="M197.275 134.185c13.754 0 24.975-3.965 24.975-8.825 0-4.86-11.22-8.823-24.975-8.823-13.756 0-24.975 3.964-24.975 8.823 0 4.86 11.22 8.825 24.975 8.825z" clip-rule="evenodd" fill="#dbe9f6" fill-rule="evenodd"/><path d="M197.275 135.347c-12.67 0-26.138-3.5-26.138-9.987 0-6.486 13.467-9.985 26.138-9.985 12.67 0 26.137 3.5 26.137 9.985 0 6.487-13.467 9.987-26.137 9.987zm0-17.65c-14.033 0-23.813 4.04-23.813 7.662 0 3.62 9.78 7.66 23.813 7.66 14.032 0 23.812-4.04 23.812-7.66 0-3.626-9.78-7.664-23.812-7.664z" fill="#b8c8d4"/><path d="M197.275 134.18c13.754 0 24.975-3.965 24.975-8.824 0-4.86-11.22-8.824-24.975-8.824-13.756 0-24.975 3.964-24.975 8.824 0 4.86 11.22 8.823 24.975 8.823z" clip-rule="evenodd" fill="#dbe9f6" fill-rule="evenodd"/><path d="M197.275 135.34c-12.67 0-26.138-3.498-26.138-9.984s13.467-9.986 26.138-9.986c12.67 0 26.137 3.5 26.137 9.986 0 6.486-13.467 9.985-26.137 9.985zm0-17.647c-14.033 0-23.813 4.038-23.813 7.662 0 3.623 9.78 7.66 23.813 7.66 14.032 0 23.812-4.037 23.812-7.66 0-3.624-9.78-7.662-23.812-7.662z" fill="#b8c8d4"/><path d="M172.3 111.63h49.95v13.725H172.3z" clip-rule="evenodd" fill="#dbe9f6" fill-rule="evenodd"/><path d="M222.25 125.354V111.63H172.3v13.724" clip-rule="evenodd" fill="#dbe9f6" fill-rule="evenodd"/><path d="M222.25 126.518c-.643 0-1.163-.52-1.163-1.163v-12.563h-47.624v12.563a1.162 1.162 0 0 1-2.322 0V111.63c0-.644.52-1.163 1.16-1.163h49.95c.644 0 1.164.52 1.164 1.162v13.723c0 .642-.52 1.163-1.162 1.163z" fill="#b8c8d4"/><path d="M197.275 120.452c13.754 0 24.975-3.963 24.975-8.823s-11.22-8.826-24.975-8.826c-13.756 0-24.975 3.964-24.975 8.823 0 4.86 11.22 8.822 24.975 8.822z" clip-rule="evenodd" fill="#dbe9f6" fill-rule="evenodd"/><path d="M197.275 121.615c-12.67 0-26.138-3.5-26.138-9.986 0-6.488 13.467-9.99 26.138-9.99 12.67 0 26.137 3.5 26.137 9.987 0 6.486-13.467 9.985-26.137 9.985zm0-17.646c-14.033 0-23.813 4.034-23.813 7.66 0 3.62 9.78 7.66 23.813 7.66 14.032 0 23.812-4.04 23.812-7.66 0-3.626-9.78-7.66-23.812-7.66z" fill="#b8c8d4"/><path d="M197.275 120.452c13.754 0 24.975-3.963 24.975-8.823s-11.22-8.826-24.975-8.826c-13.756 0-24.975 3.964-24.975 8.823 0 4.86 11.22 8.822 24.975 8.822z" clip-rule="evenodd" fill="#dbe9f6" fill-rule="evenodd"/><path d="M197.275 121.615c-12.67 0-26.138-3.5-26.138-9.986 0-6.488 13.467-9.99 26.138-9.99 12.67 0 26.137 3.5 26.137 9.987 0 6.486-13.467 9.985-26.137 9.985zm0-17.646c-14.033 0-23.813 4.034-23.813 7.66 0 3.62 9.78 7.66 23.813 7.66 14.032 0 23.812-4.04 23.812-7.66 0-3.626-9.78-7.66-23.812-7.66z" fill="#b8c8d4"/><path d="M172.3 97.903h49.95v13.726H172.3z" clip-rule="evenodd" fill="#dbe9f6" fill-rule="evenodd"/><path d="M222.25 111.63V97.902H172.3v13.726" clip-rule="evenodd" fill="#dbe9f6" fill-rule="evenodd"/><path d="M222.25 112.792c-.643 0-1.163-.52-1.163-1.163V99.063h-47.624v12.563a1.162 1.162 0 0 1-2.322 0V97.9c0-.642.52-1.162 1.16-1.162h49.95c.644 0 1.164.522 1.164 1.163v13.726c0 .64-.52 1.16-1.162 1.16z" fill="#b8c8d4"/><path d="M197.275 106.728c13.754 0 24.975-3.964 24.975-8.824 0-4.86-11.22-8.823-24.975-8.823-13.756 0-24.975 3.966-24.975 8.826s11.22 8.824 24.975 8.824z" clip-rule="evenodd" fill="#dbe9f6" fill-rule="evenodd"/><path d="M197.275 107.89c-12.67 0-26.138-3.5-26.138-9.986 0-6.486 13.467-9.986 26.138-9.986 12.67 0 26.137 3.5 26.137 9.986 0 6.486-13.467 9.986-26.137 9.986zm0-17.648c-14.033 0-23.813 4.038-23.813 7.66s9.78 7.662 23.813 7.662c14.032 0 23.812-4.038 23.812-7.66s-9.78-7.662-23.812-7.662z" fill="#b8c8d4"/><path d="M197.275 106.723c13.754 0 24.975-3.965 24.975-8.824 0-4.86-11.22-8.826-24.975-8.826-13.756 0-24.975 3.964-24.975 8.823 0 4.86 11.22 8.823 24.975 8.823z" clip-rule="evenodd" fill="#dbe9f6" fill-rule="evenodd"/><path d="M197.275 107.885c-12.67 0-26.138-3.5-26.138-9.986 0-6.488 13.467-9.99 26.138-9.99 12.67 0 26.137 3.5 26.137 9.987 0 6.486-13.467 9.985-26.137 9.985zm0-17.648c-14.033 0-23.813 4.038-23.813 7.66s9.78 7.662 23.813 7.662c14.032 0 23.812-4.04 23.812-7.664 0-3.622-9.78-7.66-23.812-7.66z" fill="#b8c8d4"/><path d="M172.3 84.173h49.95V97.9H172.3z" clip-rule="evenodd" fill="#dbe9f6" fill-rule="evenodd"/><path d="M222.25 97.898V84.173H172.3v13.725" clip-rule="evenodd" fill="#dbe9f6" fill-rule="evenodd"/><path d="M222.25 99.062c-.643 0-1.163-.52-1.163-1.163V85.333h-47.624V97.9a1.162 1.162 0 0 1-2.322 0V84.17c0-.642.52-1.162 1.16-1.162h49.95c.644 0 1.164.522 1.164 1.163V97.9c0 .64-.52 1.162-1.162 1.162z" fill="#b8c8d4"/><path d="M197.275 92.996c13.754 0 24.975-3.964 24.975-8.824 0-4.86-11.22-8.822-24.975-8.822-13.756 0-24.975 3.963-24.975 8.822 0 4.86 11.22 8.824 24.975 8.824z" clip-rule="evenodd" fill="#dbe9f6" fill-rule="evenodd"/><path d="M197.275 94.158c-12.67 0-26.138-3.5-26.138-9.986 0-6.485 13.467-9.984 26.138-9.984 12.67 0 26.137 3.5 26.137 9.984 0 6.486-13.467 9.986-26.137 9.986zm0-17.646c-14.033 0-23.813 4.037-23.813 7.66 0 3.624 9.78 7.66 23.813 7.66 14.032 0 23.812-4.036 23.812-7.66 0-3.623-9.78-7.66-23.812-7.66z" fill="#b8c8d4"/><path d="M115.513 223.847l-3.15-3.146-6.288 6.28 3.15 3.145" clip-rule="evenodd" fill="#dbe9f6" fill-rule="evenodd"/><path d="M109.225 231.285c-.297 0-.594-.113-.82-.34l-3.15-3.145a1.166 1.166 0 0 1 0-1.645l6.29-6.277a1.16 1.16 0 0 1 1.64 0l3.15 3.146a1.167 1.167 0 0 1 0 1.646l-6.288 6.275a1.16 1.16 0 0 1-.822.34zm-1.504-4.306l1.507 1.5 4.644-4.635-1.505-1.503-4.643 4.635z" fill="#b8c8d4"/><path d="M122.874 223.526l-9.972-9.953-3.62 3.613 9.974 9.954" clip-rule="evenodd" fill="#dbe9f6" fill-rule="evenodd"/><path d="M119.256 228.303a1.15 1.15 0 0 1-.82-.34l-9.973-9.954a1.162 1.162 0 0 1 .002-1.647l3.62-3.614a1.165 1.165 0 0 1 1.64 0l9.974 9.954a1.163 1.163 0 0 1 0 1.645l-3.618 3.61c-.23.228-.526.34-.823.34zm-8.327-11.117l8.324 8.313 1.973-1.975-8.327-8.31-1.973 1.97z" fill="#b8c8d4"/><path d="M45.696 223.847l3.15-3.146 6.29 6.28-3.152 3.145" clip-rule="evenodd" fill="#dbe9f6" fill-rule="evenodd"/><path d="M51.984 231.285a1.15 1.15 0 0 1-.82-.34l-6.288-6.275a1.166 1.166 0 0 1-.002-1.646l3.15-3.146a1.163 1.163 0 0 1 1.643 0l6.29 6.277a1.163 1.163 0 0 1 0 1.645l-3.152 3.145c-.227.227-.524.34-.82.34zm-4.642-7.438l4.643 4.634 1.505-1.5-4.643-4.634-1.505 1.503z" fill="#b8c8d4"/><path d="M38.336 223.526l9.972-9.953 3.618 3.613-9.972 9.954" clip-rule="evenodd" fill="#dbe9f6" fill-rule="evenodd"/><path d="M41.954 228.303c-.297 0-.594-.113-.82-.34l-3.62-3.613a1.163 1.163 0 0 1 0-1.645l9.973-9.954a1.17 1.17 0 0 1 1.643 0l3.618 3.616a1.163 1.163 0 0 1 0 1.645l-9.972 9.953c-.227.227-.524.34-.822.34zm-1.973-4.777l1.976 1.972 8.326-8.313-1.972-1.97-8.326 8.31z" fill="#b8c8d4"/><ellipse ry="17.891" rx="17.925" cy="261.299" cx="80.605" clip-rule="evenodd" fill="#dbe9f6" fill-rule="evenodd"/><path d="M80.605 280.353c-10.525 0-19.09-8.547-19.09-19.053s8.564-19.055 19.09-19.055c10.524 0 19.087 8.55 19.087 19.055 0 10.505-8.562 19.053-19.087 19.053zm0-35.782c-9.244 0-16.764 7.507-16.764 16.73 0 9.227 7.52 16.73 16.767 16.73 9.243 0 16.763-7.503 16.763-16.73 0-9.223-7.52-16.73-16.764-16.73z" fill="#b8c8d4"/><path d="M75.937 210.657h9.337v8.876h-9.337z" clip-rule="evenodd" fill="#dbe9f6" fill-rule="evenodd"/><path d="M85.273 220.696h-9.337a1.16 1.16 0 0 1-1.162-1.163v-8.876c0-.643.52-1.163 1.162-1.163h9.337c.642 0 1.162.52 1.162 1.163v8.876c0 .643-.52 1.163-1.162 1.163zM77.1 218.37h7.01v-6.55H77.1v6.55z" fill="#b8c8d4"/><path d="M80.605 217.758c24.088 0 43.622 19.5 43.622 43.542s-19.534 43.54-43.622 43.54c-24.09 0-43.623-19.497-43.623-43.54s19.535-43.542 43.623-43.542zm0 8.887c-19.173 0-34.72 15.52-34.72 34.655 0 19.136 15.547 34.655 34.72 34.655 19.172 0 34.72-15.52 34.72-34.655 0-19.137-15.548-34.655-34.72-34.655z" clip-rule="evenodd" fill="#dbe9f6" fill-rule="evenodd"/><path d="M80.605 306.003c-24.695 0-44.785-20.054-44.785-44.703 0-24.65 20.09-44.704 44.785-44.704 24.694 0 44.784 20.055 44.784 44.704 0 24.65-20.09 44.703-44.787 44.703zm0-87.082c-23.413 0-42.46 19.014-42.46 42.38 0 23.37 19.047 42.38 42.46 42.38 23.412 0 42.46-19.01 42.46-42.378 0-23.366-19.047-42.38-42.46-42.38zm0 78.2c-19.786 0-35.883-16.067-35.883-35.82 0-19.75 16.097-35.815 35.883-35.815 19.784 0 35.88 16.067 35.88 35.817s-16.095 35.82-35.88 35.82zm0-69.31c-18.504 0-33.56 15.023-33.56 33.49 0 18.47 15.056 33.494 33.56 33.494 18.503 0 33.557-15.024 33.557-33.492 0-18.47-15.054-33.49-33.557-33.49z" fill="#b8c8d4"/><path d="M71.113 200.128h18.675v10.217H71.113z" clip-rule="evenodd" fill="#dbe9f6" fill-rule="evenodd"/><path d="M89.788 211.507H71.113c-.643 0-1.163-.52-1.163-1.162v-10.217c0-.642.52-1.162 1.163-1.162h18.675c.642 0 1.162.52 1.162 1.162v10.217c0 .64-.52 1.162-1.162 1.162zm-17.513-2.325h16.35v-7.89h-16.35v7.89z" fill="#b8c8d4"/><path d="M84.61 203.342v7.315" clip-rule="evenodd" fill="#dbe9f6" fill-rule="evenodd"/><path d="M84.61 211.82c-.642 0-1.162-.52-1.162-1.163v-7.315a1.162 1.162 0 0 1 2.324-.003v7.315a1.16 1.16 0 0 1-1.162 1.162z" fill="#b8c8d4"/><path d="M80.726 203.342v7.315" clip-rule="evenodd" fill="#dbe9f6" fill-rule="evenodd"/><path d="M80.726 211.82a1.16 1.16 0 0 1-1.162-1.163v-7.315a1.162 1.162 0 0 1 2.324-.003v7.315a1.16 1.16 0 0 1-1.162 1.162z" fill="#b8c8d4"/><path d="M80.605 231.978l1.482 13.346 1.482 13.35h-5.93l1.482-13.35" clip-rule="evenodd" fill="#dbe9f6" fill-rule="evenodd"/><path d="M83.59 259.836h-5.95c-.33 0-.646-.14-.866-.388a1.17 1.17 0 0 1-.29-.903l2.966-26.695a1.16 1.16 0 0 1 2.31 0l2.94 26.483a1.162 1.162 0 0 1-1.11 1.503zm-4.65-2.326h3.33l-1.665-15.002-1.666 15.002z" fill="#b8c8d4"/><path d="M80.605 261.3l24.154 13.918" clip-rule="evenodd" fill="#dbe9f6" fill-rule="evenodd"/><path d="M104.758 276.38c-.197 0-.396-.05-.58-.154l-24.153-13.918a1.164 1.164 0 0 1 1.16-2.016l24.154 13.92a1.163 1.163 0 0 1-.585 2.17z" fill="#b8c8d4"/><ellipse ry="6.074" rx="6.085" cy="261.299" cx="80.605" clip-rule="evenodd" fill="#dbe9f6" fill-rule="evenodd"/><path d="M80.605 268.536c-3.997 0-7.248-3.247-7.248-7.236 0-3.99 3.25-7.238 7.248-7.238 3.996 0 7.247 3.248 7.247 7.238s-3.25 7.236-7.247 7.236zm0-12.147c-2.715 0-4.924 2.2-4.924 4.91 0 2.706 2.21 4.91 4.927 4.91 2.714 0 4.923-2.204 4.923-4.91 0-2.71-2.21-4.91-4.924-4.91z" fill="#b8c8d4"/><path d="M45.885 261.3h6.997" clip-rule="evenodd" fill="#dbe9f6" fill-rule="evenodd"/><path d="M52.882 262.464h-6.997a1.16 1.16 0 0 1-1.162-1.164c0-.644.52-1.163 1.162-1.163h6.997a1.163 1.163 0 0 1 0 2.327z" fill="#b8c8d4"/><path d="M108.506 261.3h6.998" clip-rule="evenodd" fill="#dbe9f6" fill-rule="evenodd"/><path d="M115.504 262.464h-6.998c-.642 0-1.162-.52-1.162-1.164 0-.644.52-1.163 1.162-1.163h6.998a1.163 1.163 0 0 1 0 2.327z" fill="#b8c8d4"/><path d="M80.605 288.93v6.987" clip-rule="evenodd" fill="#dbe9f6" fill-rule="evenodd"/><path d="M80.605 297.08a1.163 1.163 0 0 1-1.163-1.163v-6.986a1.163 1.163 0 0 1 2.325.003v6.987c0 .64-.52 1.16-1.162 1.16z" fill="#b8c8d4"/><path d="M178.557 1.118h56.414V62.9h-56.41z" clip-rule="evenodd" fill="#fff" fill-rule="evenodd"/><path d="M234.97 64.02h-56.413c-.617 0-1.117-.5-1.117-1.118V1.118c0-.618.5-1.118 1.117-1.118h56.414c.62 0 1.12.5 1.12 1.118V62.9c0 .62-.5 1.12-1.117 1.12zm-55.296-2.236h54.18V2.234h-54.18v59.55z" fill="#536b8b"/><path d="M154.34 166.776l93.997-20.085v20.087" clip-rule="evenodd" fill="#e8a541" fill-rule="evenodd"/><path d="M154.34 167.895a1.118 1.118 0 0 1-.232-2.21l93.996-20.086c.327-.07.674.01.936.22.262.214.414.53.414.87v20.084c0 .618-.5 1.118-1.116 1.118H154.34zm92.88-19.822l-82.3 17.585h82.3v-17.585z" fill="#536b8b"/><path d="M173.76 157.147h97.053v149.368H173.76z" clip-rule="evenodd" fill="#fff" fill-rule="evenodd"/><path d="M270.813 307.634H173.76c-.62 0-1.12-.5-1.12-1.118v-149.37c0-.616.5-1.117 1.12-1.117h97.053c.617 0 1.117.5 1.117 1.115v149.368c0 .62-.5 1.12-1.117 1.12zm-95.937-2.236h94.82V158.266h-94.82v147.132zm31.89 65.494a1.12 1.12 0 0 1 0-2.237c1.465 0 2.955-.024 4.43-.074.624.006 1.133.467 1.153 1.08a1.12 1.12 0 0 1-1.08 1.158c-1.5.05-3.017.076-4.507.076zm-2.31-.02l-.02-.002c-1.503-.025-3.02-.077-4.507-.152a1.12 1.12 0 1 1 .11-2.235c1.464.075 2.954.126 4.43.15a1.12 1.12 0 0 1-.018 2.237zm11.24-.28a1.12 1.12 0 0 1-.076-2.234c1.463-.098 2.948-.223 4.416-.37a1.117 1.117 0 0 1 .225 2.224c-1.49.15-3 .278-4.49.378l-.074.002zm-20.167-.174c-.035 0-.067-.002-.1-.005-1.504-.128-3.01-.282-4.48-.456a1.118 1.118 0 0 1-.98-1.24 1.122 1.122 0 0 1 1.24-.98c1.446.172 2.93.323 4.41.45a1.117 1.117 0 0 1-.092 2.23zm29.054-.727a1.116 1.116 0 0 1-.15-2.224c1.452-.196 2.926-.42 4.38-.668a1.113 1.113 0 0 1 1.29.914 1.117 1.117 0 0 1-.914 1.29c-1.48.25-2.98.48-4.455.68-.052.01-.102.01-.152.01zm-37.932-.33c-.056 0-.112-.002-.17-.01-1.464-.226-2.96-.48-4.442-.76a1.115 1.115 0 0 1-.89-1.306c.113-.605.7-1.003 1.304-.893 1.46.276 2.93.527 4.368.748a1.118 1.118 0 0 1-.17 2.223zm46.742-1.17a1.116 1.116 0 0 1-.224-2.21 135.22 135.22 0 0 0 4.326-.967 1.123 1.123 0 0 1 1.348.826 1.12 1.12 0 0 1-.825 1.35c-1.468.352-2.947.682-4.4.98a1.1 1.1 0 0 1-.226.024zm-55.524-.482c-.08 0-.162-.01-.244-.027a135.97 135.97 0 0 1-4.38-1.06 1.117 1.117 0 1 1 .56-2.164c1.43.37 2.88.722 4.308 1.04.603.136.98.733.847 1.337-.114.52-.576.874-1.09.874zm64.213-1.612a1.118 1.118 0 0 1-.3-2.195c1.417-.394 2.848-.817 4.25-1.26a1.11 1.11 0 0 1 1.4.73 1.114 1.114 0 0 1-.73 1.4c-1.426.45-2.88.883-4.32 1.283a1.13 1.13 0 0 1-.3.042zm-72.86-.64c-.106 0-.213-.015-.318-.045-1.42-.42-2.865-.88-4.3-1.356a1.12 1.12 0 0 1-.705-1.415 1.116 1.116 0 0 1 1.415-.706c1.41.47 2.83.92 4.226 1.333.595.176.93.798.757 1.39-.146.485-.59.8-1.072.8zm81.398-2.05c-.46 0-.89-.286-1.052-.746a1.12 1.12 0 0 1 .682-1.428 127.838 127.838 0 0 0 4.164-1.55c.575-.22 1.224.06 1.45.635a1.12 1.12 0 0 1-.636 1.448c-1.415.553-2.84 1.084-4.236 1.577-.123.045-.25.064-.372.064zm-89.874-.784c-.13 0-.262-.022-.39-.07-1.4-.522-2.81-1.074-4.184-1.64a1.118 1.118 0 0 1-.606-1.46c.234-.57.89-.842 1.46-.61 1.35.56 2.734 1.1 4.11 1.616a1.117 1.117 0 0 1-.39 2.165zm98.22-2.483a1.12 1.12 0 0 1-.445-2.145c1.357-.587 2.72-1.2 4.046-1.83a1.114 1.114 0 0 1 1.487.533c.265.56.025 1.225-.532 1.488-1.35.638-2.735 1.265-4.117 1.86a1.108 1.108 0 0 1-.442.094zm-106.46-.91a1.13 1.13 0 0 1-.46-.1 134.15 134.15 0 0 1-4.064-1.922 1.118 1.118 0 0 1-.507-1.497 1.117 1.117 0 0 1 1.497-.51c1.318.653 2.664 1.288 3.997 1.89.562.255.812.918.56 1.48-.19.413-.596.66-1.02.66zm114.557-2.92a1.12 1.12 0 0 1-.515-2.112 130.167 130.167 0 0 0 3.913-2.1 1.117 1.117 0 0 1 1.09 1.953 129.03 129.03 0 0 1-3.977 2.138 1.117 1.117 0 0 1-.51.122zm-122.554-1.027c-.18 0-.36-.042-.528-.133-1.32-.71-2.642-1.446-3.93-2.193a1.118 1.118 0 0 1-.403-1.528c.31-.535.992-.72 1.525-.407a128.82 128.82 0 0 0 3.862 2.156 1.12 1.12 0 0 1-.53 2.103zm130.367-3.336a1.12 1.12 0 0 1-.578-2.076 131.32 131.32 0 0 0 3.76-2.357 1.12 1.12 0 0 1 1.218 1.877c-1.27.823-2.555 1.63-3.824 2.396-.182.11-.38.16-.577.16zm-138.085-1.142c-.202 0-.407-.056-.592-.17a138.27 138.27 0 0 1-3.773-2.454 1.117 1.117 0 0 1 1.248-1.855c1.22.823 2.47 1.635 3.713 2.414a1.12 1.12 0 0 1-.596 2.065zm145.586-3.74a1.118 1.118 0 0 1-.64-2.034c1.21-.847 2.418-1.723 3.59-2.604a1.12 1.12 0 0 1 1.565.222 1.12 1.12 0 0 1-.222 1.565 133.972 133.972 0 0 1-3.653 2.647c-.194.14-.417.204-.64.204zm-152.987-1.25c-.227 0-.455-.068-.654-.213a140.75 140.75 0 0 1-3.602-2.7 1.118 1.118 0 0 1 1.37-1.765c1.15.894 2.344 1.788 3.544 2.656.5.363.61 1.063.25 1.563-.22.3-.562.46-.907.46zm160.14-4.12a1.12 1.12 0 0 1-.703-1.99 130.58 130.58 0 0 0 3.41-2.836 1.116 1.116 0 0 1 1.575.116 1.12 1.12 0 0 1-.116 1.577 138.54 138.54 0 0 1-3.465 2.885 1.118 1.118 0 0 1-.7.248zm-167.193-1.358c-.252 0-.505-.086-.714-.26a131.335 131.335 0 0 1-3.415-2.937 1.118 1.118 0 0 1 1.486-1.672c1.104.98 2.233 1.955 3.358 2.89a1.117 1.117 0 0 1-.714 1.978zm173.968-4.48a1.117 1.117 0 0 1-.758-1.94 129.3 129.3 0 0 0 3.208-3.058 1.116 1.116 0 0 1 1.58.01c.434.44.43 1.146-.01 1.58a130.066 130.066 0 0 1-3.264 3.11c-.21.2-.484.297-.754.297zm-180.64-1.46a1.12 1.12 0 0 1-.772-.307 134.65 134.65 0 0 1-3.212-3.164 1.118 1.118 0 1 1 1.596-1.565c1.036 1.054 2.1 2.1 3.16 3.108.446.425.464 1.135.038 1.58-.218.232-.513.35-.81.35zm187.005-4.814a1.118 1.118 0 0 1-.813-1.887 132.335 132.335 0 0 0 2.997-3.267 1.116 1.116 0 0 1 1.577-.095c.464.41.506 1.116.096 1.578a138.398 138.398 0 0 1-3.046 3.32c-.22.233-.516.35-.81.35zm-193.27-1.56c-.304 0-.604-.123-.824-.362-1.01-1.1-2.018-2.232-2.994-3.37a1.117 1.117 0 0 1 1.695-1.456c.96 1.12 1.95 2.233 2.944 3.314a1.116 1.116 0 0 1-.82 1.875zm199.2-5.124c-.253 0-.506-.086-.714-.26a1.117 1.117 0 0 1-.148-1.573c.936-1.13 1.868-2.294 2.77-3.458a1.117 1.117 0 0 1 1.767 1.367 137.112 137.112 0 0 1-2.816 3.517c-.224.268-.54.406-.86.406zm-205.025-1.66c-.328 0-.652-.146-.873-.42a136.096 136.096 0 0 1-2.762-3.566 1.114 1.114 0 0 1 .226-1.563 1.116 1.116 0 0 1 1.564.227 133.294 133.294 0 0 0 2.717 3.506 1.115 1.115 0 0 1-.87 1.815zm210.488-5.407a1.116 1.116 0 0 1-.903-1.772c.87-1.21 1.72-2.43 2.528-3.634a1.116 1.116 0 1 1 1.856 1.244 133.844 133.844 0 0 1-2.572 3.696c-.22.304-.56.465-.908.465zm-215.846-1.757c-.354 0-.7-.167-.918-.48a134.42 134.42 0 0 1-2.52-3.743 1.12 1.12 0 0 1 .33-1.546c.52-.338 1.21-.19 1.546.33.8 1.235 1.634 2.476 2.476 3.682a1.12 1.12 0 0 1-.916 1.756zm220.823-5.655a1.118 1.118 0 0 1-.946-1.71c.783-1.254 1.55-2.53 2.278-3.793.31-.534.99-.72 1.525-.41.534.31.718.993.41 1.527a132.212 132.212 0 0 1-2.317 3.86c-.212.34-.576.528-.95.528zm-225.688-1.854c-.38 0-.75-.193-.96-.542a135.267 135.267 0 0 1-2.258-3.907 1.117 1.117 0 1 1 1.954-1.086c.72 1.293 1.467 2.587 2.222 3.843a1.117 1.117 0 0 1-.958 1.693zm230.153-5.873a1.12 1.12 0 0 1-.986-1.647c.7-1.312 1.375-2.636 2.013-3.937a1.116 1.116 0 1 1 2.005.982 126.768 126.768 0 0 1-2.05 4.007c-.2.38-.59.592-.986.592zM89.003 298.74a1.12 1.12 0 0 1-.995-.608 132.125 132.125 0 0 1-1.99-4.055 1.117 1.117 0 1 1 2.023-.95c.627 1.33 1.285 2.673 1.958 3.987a1.12 1.12 0 0 1-.996 1.628zm238.43-6.055a1.116 1.116 0 0 1-1.017-1.578c.597-1.332 1.183-2.7 1.74-4.063a1.12 1.12 0 0 1 1.458-.61c.57.233.845.885.61 1.457a135.12 135.12 0 0 1-1.77 4.135c-.186.415-.595.66-1.02.66zm-242.238-2.05c-.434 0-.847-.254-1.028-.68-.594-1.382-1.17-2.79-1.71-4.182a1.117 1.117 0 0 1 .637-1.445 1.11 1.11 0 0 1 1.447.636c.534 1.37 1.1 2.752 1.684 4.114a1.118 1.118 0 0 1-1.027 1.56zm245.612-6.2a1.12 1.12 0 0 1-1.05-1.508c.507-1.37 1-2.78 1.465-4.183a1.115 1.115 0 0 1 1.412-.71c.586.195.903.827.71 1.413-.474 1.43-.976 2.86-1.49 4.255-.168.45-.595.732-1.05.732zm-248.86-2.154c-.462 0-.894-.29-1.056-.75-.49-1.406-.97-2.852-1.416-4.292a1.118 1.118 0 1 1 2.134-.665c.44 1.417.91 2.836 1.395 4.222a1.116 1.116 0 0 1-1.053 1.487zm251.67-6.333a1.117 1.117 0 0 1-1.073-1.432c.415-1.414.81-2.853 1.176-4.273a1.117 1.117 0 1 1 2.164.555c-.37 1.443-.772 2.907-1.194 4.347a1.12 1.12 0 0 1-1.073.803zm-254.335-2.212c-.49 0-.94-.326-1.077-.823a134.267 134.267 0 0 1-1.12-4.365 1.12 1.12 0 1 1 2.175-.52c.34 1.43.71 2.873 1.1 4.295a1.118 1.118 0 0 1-1.078 1.413zm256.558-6.446a1.12 1.12 0 0 1-1.093-1.357c.32-1.45.616-2.91.88-4.346.112-.605.69-1.01 1.303-.896.606.11 1.008.694.896 1.303-.27 1.457-.57 2.943-.894 4.42a1.12 1.12 0 0 1-1.092.877zm-258.628-2.25a1.12 1.12 0 0 1-1.094-.9c-.296-1.462-.57-2.953-.817-4.433a1.12 1.12 0 1 1 2.208-.366c.242 1.454.512 2.92.803 4.357a1.12 1.12 0 0 1-1.097 1.34zm260.253-6.54a1.113 1.113 0 0 1-1.106-1.283c.213-1.45.41-2.93.58-4.397a1.108 1.108 0 0 1 1.236-.983c.612.07 1.053.625.98 1.24a132 132 0 0 1-.59 4.467 1.116 1.116 0 0 1-1.103.954zm-261.723-2.28c-.552 0-1.032-.41-1.106-.973a134.067 134.067 0 0 1-.512-4.48 1.118 1.118 0 1 1 2.225-.216c.14 1.46.31 2.944.5 4.407a1.12 1.12 0 0 1-1.11 1.265zm262.742-6.604c-.03 0-.06-.002-.09-.004a1.117 1.117 0 0 1-1.025-1.204c.115-1.46.21-2.948.28-4.422.025-.617.55-1.106 1.165-1.065a1.12 1.12 0 0 1 1.064 1.17c-.068 1.5-.165 3.015-.284 4.5a1.117 1.117 0 0 1-1.113 1.028zM74.88 247.323a1.12 1.12 0 0 1-1.115-1.048 131.536 131.536 0 0 1-.207-4.505 1.117 1.117 0 0 1 1.084-1.15c.632.006 1.132.47 1.15 1.087.042 1.475.11 2.964.203 4.426a1.12 1.12 0 0 1-1.115 1.192zm264.018-6.636h-.014a1.12 1.12 0 0 1-1.104-1.132 140.343 140.343 0 0 0-.018-4.435 1.116 1.116 0 0 1 1.094-1.14h.024c.606 0 1.104.484 1.116 1.094a130.553 130.553 0 0 1 .018 4.508 1.116 1.116 0 0 1-1.116 1.105zm-264.278-2.3h-.006a1.118 1.118 0 0 1-1.112-1.123c.007-1.495.04-3.012.097-4.506.02-.616.524-1.08 1.156-1.075a1.118 1.118 0 0 1 1.074 1.16c-.055 1.47-.087 2.96-.094 4.43a1.12 1.12 0 0 1-1.117 1.114zm264.09-6.638a1.12 1.12 0 0 1-1.114-1.06c-.08-1.465-.187-2.95-.316-4.42a1.117 1.117 0 0 1 1.014-1.214c.62-.06 1.158.4 1.212 1.015a136.6 136.6 0 0 1 .323 4.497c.03.616-.44 1.143-1.06 1.177l-.06.002zm-263.746-2.297c-.027 0-.055 0-.082-.003a1.117 1.117 0 0 1-1.034-1.194c.107-1.494.242-3.005.4-4.49a1.117 1.117 0 1 1 2.222.236c-.155 1.46-.288 2.946-.394 4.415a1.116 1.116 0 0 1-1.112 1.037zm262.956-6.61a1.118 1.118 0 0 1-1.108-.98c-.18-1.455-.387-2.932-.616-4.39-.098-.61.32-1.182.928-1.278a1.11 1.11 0 0 1 1.278.93c.235 1.482.446 2.984.63 4.465a1.118 1.118 0 0 1-1.112 1.254zm-262.01-2.28a1.12 1.12 0 0 1-1.108-1.274c.207-1.475.445-2.973.706-4.45a1.117 1.117 0 1 1 2.2.387 125.84 125.84 0 0 0-.694 4.376 1.12 1.12 0 0 1-1.106.962zm260.614-6.55a1.12 1.12 0 0 1-1.097-.905 131.77 131.77 0 0 0-.915-4.337 1.118 1.118 0 1 1 2.178-.5c.334 1.456.646 2.94.933 4.413a1.12 1.12 0 0 1-1.1 1.33zm-259.064-2.25a1.117 1.117 0 0 1-1.093-1.35 126.5 126.5 0 0 1 1.01-4.396 1.116 1.116 0 1 1 2.166.537c-.354 1.427-.687 2.88-.992 4.32a1.12 1.12 0 0 1-1.092.885zm257.067-6.46c-.495 0-.946-.33-1.08-.833-.377-1.424-.785-2.86-1.21-4.26a1.118 1.118 0 1 1 2.14-.65 126.26 126.26 0 0 1 1.23 4.34 1.117 1.117 0 0 1-.793 1.366c-.095.026-.192.04-.287.04zM79.61 203.086a1.12 1.12 0 0 1-1.078-1.423c.412-1.446.853-2.897 1.31-4.315a1.118 1.118 0 1 1 2.127.682 127.65 127.65 0 0 0-1.288 4.24c-.14.494-.586.814-1.073.814zm252.326-6.354c-.466 0-.9-.293-1.06-.758a130.96 130.96 0 0 0-1.503-4.183 1.12 1.12 0 1 1 2.09-.792c.535 1.41 1.052 2.84 1.532 4.254a1.118 1.118 0 0 1-1.057 1.48zM82.35 194.577a1.117 1.117 0 0 1-1.053-1.496 132.66 132.66 0 0 1 1.595-4.2 1.117 1.117 0 1 1 2.075.83 136.774 136.774 0 0 0-1.567 4.13c-.165.456-.594.74-1.05.74zm246.408-6.223c-.438 0-.852-.26-1.03-.687a134.003 134.003 0 0 0-1.787-4.067 1.12 1.12 0 0 1 .55-1.483 1.114 1.114 0 0 1 1.48.55 125.838 125.838 0 0 1 1.82 4.136 1.118 1.118 0 0 1-1.03 1.55zM85.65 186.3a1.12 1.12 0 0 1-1.02-1.568 130.1 130.1 0 0 1 1.875-4.087 1.12 1.12 0 0 1 2.014.97 132.71 132.71 0 0 0-1.846 4.016c-.183.42-.593.67-1.023.67zm239.367-6.085a1.12 1.12 0 0 1-1-.616 128.034 128.034 0 0 0-2.058-3.937 1.117 1.117 0 1 1 1.96-1.072c.713 1.308 1.42 2.653 2.094 4.002a1.118 1.118 0 0 1-.997 1.62zM89.513 178.26a1.118 1.118 0 0 1-.99-1.637 138.08 138.08 0 0 1 2.15-3.95 1.117 1.117 0 0 1 1.944 1.103 133.533 133.533 0 0 0-2.114 3.886c-.2.383-.588.6-.99.6zm231.22-5.906c-.384 0-.756-.196-.965-.55a127.928 127.928 0 0 0-2.32-3.783 1.117 1.117 0 0 1 1.887-1.198 130.22 130.22 0 0 1 2.358 3.85 1.116 1.116 0 0 1-.964 1.685zm-226.82-1.858a1.116 1.116 0 0 1-.954-1.7c.773-1.27 1.586-2.548 2.412-3.8a1.12 1.12 0 0 1 1.866 1.232c-.814 1.23-1.61 2.487-2.375 3.734-.21.345-.578.534-.954.534zm222.016-5.69c-.36 0-.71-.17-.926-.487a131.31 131.31 0 0 0-2.568-3.62 1.118 1.118 0 0 1 1.8-1.327c.89 1.21 1.768 2.447 2.61 3.68a1.115 1.115 0 0 1-.92 1.748zm-217.105-1.763a1.11 1.11 0 0 1-.646-.206 1.12 1.12 0 0 1-.265-1.56c.86-1.214 1.76-2.436 2.666-3.628a1.116 1.116 0 1 1 1.778 1.35 128.408 128.408 0 0 0-2.62 3.57c-.217.308-.56.47-.912.47zm211.8-5.444a1.12 1.12 0 0 1-.878-.428 141.584 141.584 0 0 0-2.805-3.436 1.117 1.117 0 0 1 .133-1.575c.472-.4 1.178-.34 1.574.134.972 1.15 1.93 2.327 2.85 3.492a1.117 1.117 0 0 1-.876 1.81zm-206.393-1.668a1.116 1.116 0 0 1-.865-1.824 131.54 131.54 0 0 1 2.903-3.444 1.12 1.12 0 0 1 1.578-.107c.465.405.513 1.11.107 1.576a132.228 132.228 0 0 0-2.856 3.387c-.22.27-.54.41-.868.41zm200.622-5.166c-.305 0-.608-.123-.828-.368-.98-1.084-2-2.174-3.028-3.24a1.116 1.116 0 1 1 1.607-1.553c1.046 1.083 2.08 2.19 3.077 3.293a1.12 1.12 0 0 1-.83 1.868zM110.11 149.2a1.12 1.12 0 0 1-.818-1.88 135.14 135.14 0 0 1 3.13-3.243 1.116 1.116 0 0 1 1.58 0c.438.435.438 1.144.002 1.58-1.037 1.04-2.07 2.11-3.077 3.19-.22.236-.518.354-.817.354zm188.535-4.86c-.28 0-.56-.103-.777-.312a132.68 132.68 0 0 0-3.235-3.028 1.118 1.118 0 0 1 1.5-1.658 139.177 139.177 0 0 1 3.29 3.08 1.117 1.117 0 0 1-.778 1.92zm-182.22-1.466c-.3 0-.597-.118-.816-.354-.425-.45-.4-1.158.05-1.58a141.58 141.58 0 0 1 3.34-3.027 1.12 1.12 0 0 1 1.577.104 1.12 1.12 0 0 1-.105 1.578 135.29 135.29 0 0 0-3.286 2.977 1.13 1.13 0 0 1-.766.302zm175.593-4.526c-.255 0-.51-.087-.72-.265a132.117 132.117 0 0 0-3.432-2.803 1.118 1.118 0 0 1 1.385-1.755c1.17.922 2.344 1.88 3.49 2.85.47.4.53 1.105.13 1.576-.22.265-.533.4-.85.4zM123.15 136.98a1.117 1.117 0 0 1-.708-1.98c1.16-.95 2.352-1.894 3.537-2.8a1.117 1.117 0 0 1 1.354 1.776c-1.166.89-2.337 1.816-3.48 2.75a1.11 1.11 0 0 1-.706.253zm161.858-4.167c-.23 0-.462-.07-.66-.218-1.186-.872-2.4-1.735-3.61-2.565a1.12 1.12 0 0 1 1.265-1.845c1.23.845 2.466 1.722 3.67 2.61.497.365.603 1.065.236 1.562a1.12 1.12 0 0 1-.904.456zm-154.75-1.26a1.12 1.12 0 0 1-.648-2.03c1.226-.872 2.478-1.73 3.72-2.554a1.116 1.116 0 1 1 1.234 1.86 132.83 132.83 0 0 0-3.657 2.513 1.12 1.12 0 0 1-.648.208zm147.388-3.79a1.11 1.11 0 0 1-.6-.177 132.446 132.446 0 0 0-3.77-2.315 1.116 1.116 0 1 1 1.136-1.922c1.287.76 2.577 1.554 3.835 2.355.52.333.673 1.024.34 1.544-.21.335-.57.518-.94.518zm-139.928-1.152a1.115 1.115 0 0 1-.586-2.067 139.418 139.418 0 0 1 3.884-2.3 1.117 1.117 0 1 1 1.104 1.944 140.04 140.04 0 0 0-3.817 2.26 1.1 1.1 0 0 1-.585.167zm132.25-3.39a1.11 1.11 0 0 1-.536-.135 131.612 131.612 0 0 0-3.916-2.057 1.118 1.118 0 0 1 1.01-1.996c1.33.67 2.67 1.374 3.98 2.09.54.298.74.977.445 1.52-.203.37-.587.58-.982.58zm-124.472-1.035a1.12 1.12 0 0 1-.52-2.108c1.325-.697 2.682-1.38 4.033-2.033a1.118 1.118 0 1 1 .97 2.013c-1.33.642-2.665 1.313-3.967 1.998a1.1 1.1 0 0 1-.52.13zm116.506-2.975c-.156 0-.315-.034-.467-.105a130.6 130.6 0 0 0-4.044-1.786 1.118 1.118 0 0 1 .87-2.06 128.12 128.12 0 0 1 4.11 1.813 1.118 1.118 0 0 1-.467 2.133zm-108.44-.92c-.43 0-.84-.25-1.023-.667a1.117 1.117 0 0 1 .57-1.475 135.97 135.97 0 0 1 4.16-1.754 1.117 1.117 0 1 1 .834 2.074c-1.37.55-2.747 1.13-4.094 1.726a1.11 1.11 0 0 1-.45.096zm100.23-2.543c-.134 0-.27-.023-.4-.074a131.373 131.373 0 0 0-4.165-1.51 1.116 1.116 0 0 1-.693-1.42c.2-.586.836-.895 1.42-.695 1.415.486 2.84 1.003 4.237 1.537a1.117 1.117 0 0 1-.397 2.163zm-91.917-.796c-.457 0-.886-.28-1.05-.735a1.12 1.12 0 0 1 .67-1.432 133.932 133.932 0 0 1 4.275-1.466 1.117 1.117 0 1 1 .687 2.127c-1.397.454-2.812.94-4.202 1.442a1.074 1.074 0 0 1-.38.068zm83.463-2.106c-.108 0-.218-.016-.326-.05a129.88 129.88 0 0 0-4.26-1.223 1.12 1.12 0 1 1 .58-2.16c1.448.39 2.905.81 4.332 1.245a1.118 1.118 0 0 1-.326 2.188zm-74.935-.655a1.118 1.118 0 0 1-.31-2.195 132.4 132.4 0 0 1 4.355-1.168 1.115 1.115 0 1 1 .54 2.166c-1.43.36-2.87.745-4.277 1.15-.103.03-.207.045-.31.045zm66.306-1.667c-.087 0-.17-.01-.258-.028-1.43-.333-2.887-.646-4.332-.93a1.12 1.12 0 0 1 .434-2.194c1.47.29 2.95.608 4.406.947a1.118 1.118 0 0 1-.25 2.207zm-57.64-.503c-.516 0-.98-.36-1.09-.885a1.116 1.116 0 0 1 .856-1.327c1.46-.313 2.946-.605 4.423-.87a1.12 1.12 0 0 1 1.297.905c.11.608-.296 1.19-.903 1.298-1.45.26-2.914.55-4.348.856a1.11 1.11 0 0 1-.235.025zm48.87-1.226a.994.994 0 0 1-.18-.015 132.265 132.265 0 0 0-4.387-.635 1.118 1.118 0 0 1 .283-2.22c1.483.19 2.984.407 4.46.647a1.118 1.118 0 0 1-.177 2.223zm-40.073-.35c-.548 0-1.025-.4-1.105-.958a1.12 1.12 0 0 1 .947-1.266c1.483-.213 2.987-.403 4.47-.565a1.11 1.11 0 0 1 1.232.99 1.114 1.114 0 0 1-.988 1.23c-1.458.16-2.937.35-4.397.56-.054.007-.107.01-.16.01zm31.206-.778c-.034 0-.07 0-.105-.005a128.72 128.72 0 0 0-4.418-.334 1.12 1.12 0 1 1 .133-2.232c1.497.088 3.01.202 4.493.34a1.123 1.123 0 0 1 1.01 1.217 1.12 1.12 0 0 1-1.114 1.015zm-22.323-.193c-.58 0-1.067-.445-1.11-1.032a1.12 1.12 0 0 1 1.03-1.2c1.485-.11 3-.2 4.5-.26a1.12 1.12 0 0 1 1.16 1.07 1.115 1.115 0 0 1-1.07 1.163c-1.474.06-2.96.147-4.422.258l-.087.004zm13.4-.332h-.03c-1.114-.03-2.206-.046-3.357-.04l-1.072.004h-.01a1.118 1.118 0 0 1-.007-2.236l1.09-.004c1.106-.004 2.28.014 3.418.043a1.12 1.12 0 0 1 1.09 1.146 1.12 1.12 0 0 1-1.12 1.088zm-3.63 326.9c-.4 0-.802-.003-1.203-.007a1.118 1.118 0 0 1 .008-2.235h.01c.474.004.95.01 1.425.004 1.488 0 2.97-.014 4.446-.047a1.118 1.118 0 1 1 .054 2.236c-1.576.033-3.154.05-4.74.05zm-5.66-.09h-.033c-1.5-.045-2.998-.107-4.49-.186a1.12 1.12 0 0 1-1.058-1.175 1.114 1.114 0 0 1 1.17-1.06 204.3 204.3 0 0 0 4.44.184 1.12 1.12 0 0 1-.03 2.237zm14.84-.113a1.118 1.118 0 0 1-.05-2.234c1.48-.068 2.96-.152 4.435-.252a1.118 1.118 0 1 1 .15 2.23c-1.49.1-2.986.187-4.487.255l-.05.002zm-23.764-.357c-.028 0-.057-.004-.086-.006-1.497-.112-2.99-.242-4.478-.39a1.116 1.116 0 0 1-1.002-1.222c.06-.616.61-1.065 1.222-1.002 1.47.146 2.946.273 4.427.386a1.122 1.122 0 0 1 1.03 1.2 1.12 1.12 0 0 1-1.116 1.033zm32.68-.25c-.57 0-1.06-.44-1.11-1.02a1.116 1.116 0 0 1 1.01-1.214c1.48-.134 2.953-.286 4.42-.454.632-.073 1.17.37 1.238.983.07.613-.37 1.168-.982 1.237-1.485.17-2.977.323-4.473.46a.933.933 0 0 1-.105.006zm-41.575-.627a.873.873 0 0 1-.133-.01c-1.49-.18-2.976-.378-4.456-.593a1.116 1.116 0 0 1-.945-1.266c.09-.61.657-1.034 1.267-.947 1.465.213 2.933.41 4.405.59a1.116 1.116 0 0 1-.134 2.225zm50.46-.39a1.118 1.118 0 0 1-.15-2.228c1.47-.202 2.935-.42 4.395-.655a1.112 1.112 0 0 1 1.28.928c.1.61-.314 1.183-.925 1.28-1.48.24-2.96.46-4.447.664-.05.007-.102.01-.153.01zm-59.303-.894c-.062 0-.125-.008-.188-.02a201.33 201.33 0 0 1-4.424-.797 1.118 1.118 0 0 1 .423-2.197c1.45.28 2.91.542 4.37.79a1.118 1.118 0 0 1-.184 2.222zm68.126-.53a1.12 1.12 0 0 1-.2-2.217c1.46-.27 2.913-.556 4.36-.857.6-.13 1.195.26 1.32.865.13.605-.26 1.196-.864 1.323-1.466.307-2.936.596-4.41.868-.07.014-.138.02-.206.02zm-76.902-1.16a1.13 1.13 0 0 1-.236-.026c-1.466-.316-2.927-.65-4.38-1a1.118 1.118 0 0 1 .522-2.174c1.438.348 2.882.678 4.332.99a1.12 1.12 0 0 1-.236 2.21zm85.655-.665a1.118 1.118 0 0 1-.253-2.207c1.445-.338 2.884-.69 4.316-1.06a1.116 1.116 0 0 1 1.36.804 1.116 1.116 0 0 1-.803 1.36c-1.45.374-2.906.73-4.367 1.07a1.1 1.1 0 0 1-.253.03zm-94.344-1.426a1.15 1.15 0 0 1-.287-.04c-1.45-.384-2.895-.785-4.33-1.202a1.122 1.122 0 0 1-.763-1.388c.17-.593.79-.934 1.384-.762 1.42.414 2.848.81 4.28 1.19a1.117 1.117 0 0 1-.285 2.2zm103-.8a1.118 1.118 0 0 1-.3-2.196c1.426-.403 2.85-.82 4.262-1.256a1.116 1.116 0 0 1 .656 2.134c-1.432.44-2.868.862-4.313 1.27-.1.03-.203.044-.303.044zm-111.584-1.69c-.112 0-.226-.02-.337-.055-1.43-.45-2.856-.918-4.27-1.4a1.12 1.12 0 0 1-.7-1.42c.2-.586.834-.896 1.42-.696 1.4.476 2.81.937 4.222 1.385.59.186.916.813.73 1.4a1.12 1.12 0 0 1-1.066.783zm120.147-.943c-.468 0-.904-.296-1.06-.766-.195-.584.12-1.22.707-1.413 1.41-.47 2.816-.955 4.214-1.455.58-.206 1.22.095 1.43.675a1.12 1.12 0 0 1-.676 1.43c-1.413.507-2.836.998-4.264 1.474a1.135 1.135 0 0 1-.352.057zm-128.61-1.943c-.127 0-.257-.022-.384-.07a194.28 194.28 0 0 1-4.203-1.595 1.12 1.12 0 0 1 .818-2.083 197.21 197.21 0 0 0 4.153 1.58 1.118 1.118 0 0 1-.386 2.167zm137.05-1.083a1.117 1.117 0 0 1-.4-2.162 190.69 190.69 0 0 0 4.14-1.65c.57-.23 1.226.04 1.46.61a1.12 1.12 0 0 1-.607 1.46 200.44 200.44 0 0 1-4.188 1.668c-.133.05-.27.075-.403.075zm-145.355-2.18c-.144 0-.29-.03-.432-.087-1.378-.58-2.75-1.174-4.11-1.782a1.117 1.117 0 0 1-.565-1.475c.253-.564.915-.82 1.478-.565a187.21 187.21 0 0 0 4.063 1.763 1.12 1.12 0 0 1-.432 2.15zm153.646-1.23a1.12 1.12 0 0 1-.45-2.142c1.364-.6 2.718-1.21 4.062-1.838a1.118 1.118 0 1 1 .945 2.03 208.23 208.23 0 0 1-4.107 1.855 1.11 1.11 0 0 1-.45.095zm-161.78-2.406c-.16 0-.323-.034-.478-.108a187.372 187.372 0 0 1-4.028-1.968 1.12 1.12 0 0 1 1.004-2 185.05 185.05 0 0 0 3.98 1.946c.56.264.798.93.533 1.488-.19.404-.592.64-1.01.64zm169.902-1.382a1.118 1.118 0 0 1-.498-2.12 202.48 202.48 0 0 0 3.97-2.02 1.12 1.12 0 0 1 1.508.47 1.12 1.12 0 0 1-.472 1.51 188.914 188.914 0 0 1-4.014 2.045c-.16.077-.33.115-.495.115zm-177.867-2.625a1.13 1.13 0 0 1-.524-.13c-1.32-.702-2.632-1.42-3.936-2.15a1.118 1.118 0 0 1 1.092-1.95c1.288.724 2.585 1.432 3.89 2.126a1.116 1.116 0 0 1-.525 2.104zm185.8-1.53a1.12 1.12 0 0 1-.54-2.097c1.297-.717 2.59-1.45 3.87-2.2a1.118 1.118 0 0 1 1.125 1.932c-1.295.758-2.6 1.5-3.913 2.227-.172.093-.357.14-.54.14zM107.5 406.89c-.194 0-.39-.05-.57-.156a201.638 201.638 0 0 1-3.834-2.33 1.118 1.118 0 1 1 1.183-1.896c1.25.78 2.515 1.55 3.79 2.303a1.118 1.118 0 0 1-.573 2.08zm201.31-1.676a1.117 1.117 0 0 1-.586-2.07c1.264-.776 2.52-1.567 3.765-2.373a1.118 1.118 0 0 1 1.21 1.88c-1.26.813-2.53 1.614-3.81 2.4a1.12 1.12 0 0 1-.582.165zm-208.884-3.042c-.21 0-.422-.06-.61-.183a189.528 189.528 0 0 1-3.73-2.505 1.12 1.12 0 1 1 1.272-1.842c1.218.84 2.446 1.664 3.685 2.475a1.118 1.118 0 0 1-.613 2.054zm216.4-1.818a1.12 1.12 0 0 1-.925-.49 1.12 1.12 0 0 1 .3-1.553 190.3 190.3 0 0 0 3.65-2.54 1.12 1.12 0 0 1 1.3 1.822c-1.222.87-2.453 1.727-3.695 2.57-.192.13-.41.193-.626.193zM92.57 397.11c-.225 0-.453-.07-.65-.21a197.745 197.745 0 0 1-3.61-2.67 1.118 1.118 0 1 1 1.348-1.783c1.18.894 2.37 1.773 3.57 2.64a1.12 1.12 0 0 1-.656 2.024zm231.043-1.95c-.34 0-.677-.155-.896-.45a1.114 1.114 0 0 1 .227-1.563c1.188-.89 2.365-1.79 3.53-2.705a1.118 1.118 0 0 1 1.38 1.758 185.4 185.4 0 0 1-3.572 2.736c-.2.15-.435.222-.668.222zm-238.16-3.44c-.243 0-.488-.08-.693-.242a189.6 189.6 0 0 1-3.487-2.83 1.117 1.117 0 1 1 1.427-1.72 226.26 226.26 0 0 0 3.447 2.8c.483.382.565 1.085.182 1.57a1.13 1.13 0 0 1-.88.422zm245.2-2.08a1.116 1.116 0 0 1-.71-1.98c1.144-.94 2.28-1.895 3.403-2.862a1.118 1.118 0 1 1 1.456 1.697c-1.137.977-2.284 1.94-3.442 2.893-.206.17-.457.254-.706.254zm-252.07-3.63c-.26 0-.52-.09-.732-.272-1.13-.984-2.246-1.98-3.353-2.987a1.118 1.118 0 1 1 1.506-1.652c1.095.997 2.2 1.98 3.318 2.953a1.12 1.12 0 0 1-.734 1.963zm258.852-2.2a1.118 1.118 0 0 1-.747-1.95c1.102-.99 2.19-1.992 3.27-3.01a1.118 1.118 0 0 1 1.533 1.628 180.61 180.61 0 0 1-3.31 3.047c-.21.19-.48.286-.744.286zm-265.457-3.814c-.277 0-.555-.103-.77-.31a198.435 198.435 0 0 1-3.22-3.136 1.118 1.118 0 1 1 1.578-1.583c1.05 1.044 2.11 2.077 3.183 3.1a1.12 1.12 0 0 1-.774 1.928zm271.964-2.314a1.12 1.12 0 0 1-.783-1.916 211.652 211.652 0 0 0 3.13-3.155 1.118 1.118 0 1 1 1.6 1.56 190.364 190.364 0 0 1-3.163 3.19 1.12 1.12 0 0 1-.785.324zM65.65 373.686c-.295 0-.588-.116-.808-.346a183.297 183.297 0 0 1-3.074-3.28 1.116 1.116 0 0 1 .07-1.578 1.113 1.113 0 0 1 1.578.068c1 1.093 2.014 2.175 3.04 3.244a1.12 1.12 0 0 1-.807 1.892zm284.516-2.42a1.12 1.12 0 0 1-.82-1.88c1.006-1.086 2-2.183 2.982-3.292a1.118 1.118 0 0 1 1.675 1.482c-.992 1.12-2 2.23-3.017 3.33-.22.238-.518.36-.82.36zM59.61 367.093c-.31 0-.62-.13-.84-.38-.988-1.13-1.963-2.27-2.924-3.42a1.118 1.118 0 1 1 1.714-1.434c.95 1.14 1.914 2.265 2.89 3.38a1.12 1.12 0 0 1-.103 1.577 1.124 1.124 0 0 1-.737.275zm296.48-2.52a1.118 1.118 0 0 1-.852-1.84c.955-1.13 1.898-2.27 2.828-3.424a1.115 1.115 0 0 1 1.572-.168c.48.388.555 1.09.167 1.57-.94 1.167-1.896 2.32-2.862 3.464a1.11 1.11 0 0 1-.853.397zM53.875 360.23c-.327 0-.652-.143-.873-.42a190.53 190.53 0 0 1-2.766-3.55c-.375-.49-.28-1.19.212-1.564a1.116 1.116 0 0 1 1.566.212 190.2 190.2 0 0 0 2.733 3.507 1.115 1.115 0 0 1-.176 1.57c-.204.165-.45.246-.695.246zm307.828-2.606c-.237 0-.478-.076-.68-.233a1.115 1.115 0 0 1-.204-1.564 198.092 198.092 0 0 0 2.67-3.55 1.118 1.118 0 0 1 1.8 1.326 194.38 194.38 0 0 1-2.7 3.59 1.12 1.12 0 0 1-.888.435zm-313.246-4.51c-.346 0-.687-.16-.905-.46a201.65 201.65 0 0 1-2.603-3.672 1.12 1.12 0 0 1 .28-1.557 1.12 1.12 0 0 1 1.555.283c.844 1.22 1.7 2.43 2.572 3.63a1.12 1.12 0 0 1-.904 1.777zm318.536-2.685a1.11 1.11 0 0 1-.64-.204 1.114 1.114 0 0 1-.274-1.556c.85-1.212 1.683-2.433 2.504-3.663a1.118 1.118 0 1 1 1.86 1.24c-.83 1.245-1.677 2.48-2.535 3.706-.22.31-.566.477-.918.477zm-323.627-4.675a1.12 1.12 0 0 1-.935-.502A208.16 208.16 0 0 1 40 341.466a1.12 1.12 0 0 1 .354-1.542c.52-.33 1.213-.17 1.54.354.79 1.26 1.59 2.506 2.406 3.743a1.118 1.118 0 0 1-.93 1.735zm328.583-2.752a1.118 1.118 0 0 1-.944-1.718 202.36 202.36 0 0 0 2.334-3.773 1.124 1.124 0 0 1 1.536-.38c.528.32.697 1.008.38 1.536a218.52 218.52 0 0 1-2.363 3.816c-.212.335-.574.52-.944.52zM38.61 338.17c-.38 0-.753-.194-.96-.546-.77-1.29-1.52-2.59-2.26-3.896a1.123 1.123 0 0 1 .424-1.526 1.116 1.116 0 0 1 1.522.424 207.21 207.21 0 0 0 2.232 3.852 1.122 1.122 0 0 1-.96 1.69zm337.946-2.807a1.118 1.118 0 0 1-.97-1.673c.734-1.28 1.455-2.57 2.16-3.872a1.117 1.117 0 0 1 1.966 1.065 192.04 192.04 0 0 1-2.186 3.92c-.206.36-.583.56-.97.56zm-342.347-4.99a1.12 1.12 0 0 1-.987-.593c-.707-1.32-1.4-2.653-2.077-3.994a1.118 1.118 0 0 1 1.995-1.01c.67 1.326 1.353 2.643 2.053 3.95a1.12 1.12 0 0 1-.986 1.65zm346.6-2.85a1.116 1.116 0 0 1-.994-1.628 200.8 200.8 0 0 0 1.98-3.97c.27-.556.935-.79 1.493-.52.555.27.786.94.517 1.496a194.548 194.548 0 0 1-2 4.012c-.2.388-.59.61-.996.61zm-350.64-5.147c-.42 0-.82-.235-1.01-.638a192.187 192.187 0 0 1-1.892-4.093 1.116 1.116 0 0 1 .56-1.478c.563-.25 1.225 0 1.48.562.606 1.356 1.23 2.704 1.87 4.042a1.12 1.12 0 0 1-1.01 1.6zM384.7 319.5a1.117 1.117 0 0 1-1.017-1.582c.613-1.343 1.21-2.692 1.794-4.052a1.112 1.112 0 0 1 1.467-.586c.567.244.83.9.586 1.47a204.772 204.772 0 0 1-1.814 4.098c-.19.41-.595.653-1.02.653zm-358.2-5.3a1.12 1.12 0 0 1-1.03-.685 191.924 191.924 0 0 1-1.7-4.175 1.116 1.116 0 0 1 .63-1.45 1.112 1.112 0 0 1 1.448.63c.545 1.384 1.105 2.76 1.683 4.127.24.57-.025 1.225-.595 1.464-.142.064-.29.09-.434.09zm361.714-2.887c-.14 0-.28-.026-.417-.082a1.114 1.114 0 0 1-.62-1.452c.55-1.366 1.085-2.742 1.604-4.126a1.12 1.12 0 0 1 2.093.788 186.78 186.78 0 0 1-1.623 4.176 1.12 1.12 0 0 1-1.037.7zm-365-5.454a1.12 1.12 0 0 1-1.05-.735c-.52-1.41-1.02-2.828-1.508-4.252a1.118 1.118 0 0 1 2.116-.723c.48 1.41.977 2.81 1.49 4.204a1.12 1.12 0 0 1-1.05 1.505zm368.138-2.905a1.12 1.12 0 0 1-1.055-1.488c.487-1.397.96-2.802 1.416-4.213a1.12 1.12 0 0 1 1.408-.72c.59.19.91.82.72 1.408-.46 1.43-.94 2.85-1.433 4.262a1.12 1.12 0 0 1-1.056.75zM20.316 297.37a1.12 1.12 0 0 1-1.066-.782 209.09 209.09 0 0 1-1.308-4.32 1.12 1.12 0 0 1 2.147-.623c.413 1.43.844 2.853 1.29 4.27a1.117 1.117 0 0 1-1.066 1.455zm373.793-2.918a1.117 1.117 0 0 1-1.074-1.438c.423-1.42.83-2.844 1.222-4.273a1.118 1.118 0 1 1 2.155.592c-.396 1.448-.81 2.89-1.235 4.324-.145.485-.59.8-1.07.8zm-376.29-5.684c-.498 0-.95-.33-1.08-.832-.387-1.446-.754-2.9-1.106-4.36-.145-.6.225-1.203.825-1.348a1.127 1.127 0 0 1 1.35.826c.346 1.442.71 2.878 1.09 4.31a1.118 1.118 0 0 1-.795 1.367c-.096.028-.192.04-.287.04zm378.645-2.94a1.12 1.12 0 0 1-1.087-1.387 191.57 191.57 0 0 0 1.02-4.325 1.12 1.12 0 0 1 2.183.49 198.7 198.7 0 0 1-1.033 4.374 1.118 1.118 0 0 1-1.083.848zm-380.74-5.753c-.515 0-.978-.358-1.09-.882-.317-1.46-.617-2.93-.9-4.405a1.12 1.12 0 0 1 2.197-.422c.278 1.457.575 2.91.888 4.354a1.12 1.12 0 0 1-1.093 1.355zm382.693-2.97a1.116 1.116 0 0 1-1.098-1.34c.29-1.45.563-2.904.82-4.366a1.117 1.117 0 1 1 2.2.384c-.26 1.48-.536 2.953-.83 4.42a1.118 1.118 0 0 1-1.093.898zm-384.38-5.81c-.537 0-1.01-.387-1.1-.934-.25-1.473-.48-2.953-.696-4.44a1.117 1.117 0 1 1 2.213-.32c.213 1.47.44 2.933.687 4.393a1.12 1.12 0 0 1-1.104 1.3zm385.927-2.997a1.117 1.117 0 0 1-1.105-1.286c.22-1.46.427-2.93.616-4.4a1.11 1.11 0 0 1 1.25-.968c.612.08 1.045.64.966 1.252-.19 1.49-.4 2.974-.625 4.452-.083.552-.56.95-1.103.95zm-387.206-5.85c-.557 0-1.04-.418-1.107-.986-.18-1.483-.343-2.974-.49-4.47a1.118 1.118 0 1 1 2.225-.217c.145 1.48.306 2.95.483 4.418a1.12 1.12 0 0 1-1.11 1.255zm388.345-3.017c-.04 0-.077 0-.117-.004a1.118 1.118 0 0 1-.996-1.228c.155-1.47.293-2.945.413-4.427a1.118 1.118 0 0 1 2.228.182 188.95 188.95 0 0 1-.42 4.48c-.057.572-.542 1-1.11 1zm-389.212-5.88c-.58 0-1.07-.446-1.114-1.033-.11-1.49-.206-2.988-.283-4.488a1.12 1.12 0 0 1 1.06-1.175c.612-.03 1.14.442 1.173 1.06.078 1.482.17 2.962.28 4.436a1.116 1.116 0 0 1-1.03 1.198l-.085.003zm389.944-3.027c-.022 0-.044 0-.066-.002a1.12 1.12 0 0 1-1.05-1.182c.088-1.476.16-2.956.21-4.44.02-.615.54-1.068 1.158-1.076.615.02 1.1.54 1.075 1.157-.055 1.5-.125 2.997-.213 4.49a1.118 1.118 0 0 1-1.115 1.053zm-390.404-5.9c-.602 0-1.1-.48-1.116-1.086-.043-1.496-.07-2.993-.078-4.496a1.118 1.118 0 0 1 1.11-1.123c.6.028 1.12.493 1.124 1.11.01 1.485.035 2.967.077 4.445a1.12 1.12 0 0 1-1.084 1.15h-.033zm390.724-3.03h-.016a1.12 1.12 0 0 1-1.1-1.134 184.61 184.61 0 0 0 .008-4.445 1.113 1.113 0 0 1 1.104-1.128h.01c.613 0 1.112.492 1.117 1.107a189.22 189.22 0 0 1-.007 4.497 1.115 1.115 0 0 1-1.117 1.102zm-390.775-5.91l-.02-.002a1.12 1.12 0 0 1-1.1-1.136c.026-1.497.068-2.994.128-4.485.026-.617.55-1.067 1.16-1.073.62.025 1.1.545 1.074 1.16a192.05 192.05 0 0 0-.124 4.436c-.01.61-.51 1.1-1.117 1.1zm390.69-3.03a1.118 1.118 0 0 1-1.117-1.083 203.72 203.72 0 0 0-.194-4.44 1.12 1.12 0 0 1 1.056-1.18 1.12 1.12 0 0 1 1.178 1.055c.082 1.493.147 2.99.196 4.49a1.114 1.114 0 0 1-1.08 1.155h-.037zm-390.337-5.898c-.023 0-.047 0-.07-.003a1.12 1.12 0 0 1-1.046-1.186c.093-1.5.204-2.993.33-4.483a1.128 1.128 0 0 1 1.21-1.02c.615.055 1.07.596 1.02 1.21a191.51 191.51 0 0 0-.33 4.435 1.12 1.12 0 0 1-1.115 1.048zm389.843-3.03c-.58 0-1.07-.444-1.115-1.03a201.54 201.54 0 0 0-.398-4.427 1.12 1.12 0 0 1 2.225-.226c.15 1.487.284 2.98.402 4.478a1.12 1.12 0 0 1-1.027 1.202l-.09.002zm-389.08-5.88a1.117 1.117 0 0 1-1.112-1.24c.162-1.492.342-2.98.538-4.463a1.118 1.118 0 1 1 2.216.295c-.193 1.466-.37 2.938-.532 4.413a1.12 1.12 0 0 1-1.11.997zm388.178-3.017a1.117 1.117 0 0 1-1.108-.98c-.184-1.472-.384-2.94-.6-4.403a1.116 1.116 0 1 1 2.21-.328c.22 1.48.423 2.965.608 4.455a1.12 1.12 0 0 1-1.11 1.258zM13.673 208.98a1.12 1.12 0 0 1-1.11-1.29c.23-1.483.48-2.962.744-4.435a1.118 1.118 0 0 1 2.2.396c-.264 1.458-.51 2.92-.737 4.385-.085.552-.56.946-1.1.946zm385.693-2.997a1.117 1.117 0 0 1-1.1-.928c-.252-1.463-.52-2.92-.806-4.372a1.12 1.12 0 0 1 .88-1.312 1.12 1.12 0 0 1 1.314.885c.29 1.47.56 2.943.814 4.423a1.117 1.117 0 0 1-1.102 1.307zM15.253 200.18a1.23 1.23 0 0 1-.225-.02 1.12 1.12 0 0 1-.872-1.32c.3-1.47.616-2.936.948-4.395a1.11 1.11 0 0 1 1.34-.84c.6.136.977.735.84 1.337-.33 1.442-.642 2.89-.938 4.345a1.117 1.117 0 0 1-1.093.894zm382.393-2.97c-.514 0-.976-.356-1.09-.878-.32-1.45-.654-2.893-1.006-4.33a1.118 1.118 0 0 1 2.172-.532c.355 1.455.694 2.915 1.017 4.38a1.12 1.12 0 0 1-1.095 1.36zM17.24 191.464a1.12 1.12 0 0 1-1.085-1.39c.366-1.456.75-2.905 1.15-4.348a1.12 1.12 0 0 1 2.156.598 197.772 197.772 0 0 0-1.14 4.296c-.124.506-.58.844-1.08.844zm378.283-2.94c-.493 0-.944-.328-1.078-.827a185.108 185.108 0 0 0-1.206-4.277 1.118 1.118 0 0 1 2.142-.632c.423 1.436.83 2.88 1.22 4.328a1.117 1.117 0 0 1-1.08 1.41zM19.628 182.85a1.117 1.117 0 0 1-1.07-1.443 194.2 194.2 0 0 1 1.352-4.29 1.117 1.117 0 1 1 2.123.697 195.03 195.03 0 0 0-1.335 4.24 1.12 1.12 0 0 1-1.07.795zm373.366-2.917a1.12 1.12 0 0 1-1.064-.778 188.715 188.715 0 0 0-1.406-4.23 1.117 1.117 0 0 1 2.11-.733c.492 1.42.967 2.85 1.426 4.282a1.117 1.117 0 0 1-1.065 1.457zm-370.582-5.58a1.122 1.122 0 0 1-1.054-1.494 190 190 0 0 1 1.55-4.22c.22-.58.863-.87 1.44-.65.577.22.867.866.648 1.443a180.46 180.46 0 0 0-1.53 4.173 1.118 1.118 0 0 1-1.054.745zm367.653-2.898c-.453 0-.88-.278-1.047-.73a206.4 206.4 0 0 0-1.602-4.16 1.117 1.117 0 1 1 2.078-.826 193.186 193.186 0 0 1 1.62 4.204 1.12 1.12 0 0 1-1.048 1.508zM25.58 166.01a1.12 1.12 0 0 1-1.033-1.54 202.21 202.21 0 0 1 1.735-4.13 1.117 1.117 0 1 1 2.05.89 200.956 200.956 0 0 0-1.715 4.085 1.12 1.12 0 0 1-1.036.698zm361.168-2.884a1.12 1.12 0 0 1-1.03-.68c-.58-1.37-1.18-2.73-1.79-4.08a1.117 1.117 0 1 1 2.037-.923 211.164 211.164 0 0 1 1.812 4.127 1.12 1.12 0 0 1-1.03 1.557zm-357.62-5.292a1.118 1.118 0 0 1-1.016-1.587c.626-1.358 1.268-2.71 1.924-4.05a1.12 1.12 0 0 1 2.008.983c-.65 1.326-1.283 2.66-1.9 4.003-.19.41-.595.65-1.017.65zm353.923-2.87a1.12 1.12 0 0 1-1.006-.634c-.644-1.34-1.303-2.67-1.977-3.99a1.12 1.12 0 0 1 1.99-1.018c.683 1.338 1.35 2.683 2 4.037a1.116 1.116 0 0 1-1.004 1.6zm-350.003-5.14a1.123 1.123 0 0 1-.993-1.635c.69-1.328 1.393-2.648 2.11-3.96a1.117 1.117 0 1 1 1.96 1.074 192.49 192.49 0 0 0-2.086 3.914 1.115 1.115 0 0 1-.992.604zm345.937-2.842c-.397 0-.783-.212-.985-.587a193.92 193.92 0 0 0-2.158-3.896 1.12 1.12 0 0 1 .42-1.527 1.116 1.116 0 0 1 1.523.42 205.87 205.87 0 0 1 2.183 3.938 1.12 1.12 0 0 1-.983 1.65zM37.328 142a1.117 1.117 0 0 1-.966-1.677c.748-1.296 1.51-2.582 2.288-3.86a1.12 1.12 0 1 1 1.91 1.163 187.586 187.586 0 0 0-2.265 3.816 1.117 1.117 0 0 1-.97.558zm337.225-2.8c-.38 0-.75-.193-.96-.543a193.442 193.442 0 0 0-2.333-3.79 1.118 1.118 0 1 1 1.89-1.192c.8 1.267 1.588 2.545 2.36 3.833a1.118 1.118 0 0 1-.957 1.693zm-332.585-4.824a1.12 1.12 0 0 1-.942-1.723c.808-1.263 1.63-2.513 2.464-3.755a1.12 1.12 0 0 1 1.855 1.25 194.026 194.026 0 0 0-2.435 3.71 1.117 1.117 0 0 1-.942.515zm327.805-2.744a1.12 1.12 0 0 1-.932-.5 196.86 196.86 0 0 0-2.502-3.68 1.117 1.117 0 0 1 1.835-1.278 196.22 196.22 0 0 1 2.532 3.72 1.117 1.117 0 0 1-.93 1.738zM46.95 126.968a1.118 1.118 0 0 1-.913-1.764 195.33 195.33 0 0 1 2.632-3.638 1.118 1.118 0 1 1 1.793 1.332 201.8 201.8 0 0 0-2.604 3.597 1.1 1.1 0 0 1-.91.473zm317.705-2.677a1.11 1.11 0 0 1-.902-.454 197.636 197.636 0 0 0-2.67-3.56 1.12 1.12 0 0 1 1.776-1.36c.913 1.19 1.814 2.39 2.7 3.6a1.12 1.12 0 0 1-.24 1.563c-.2.144-.43.213-.66.213zm-312.388-4.496a1.116 1.116 0 0 1-.882-1.804c.92-1.183 1.85-2.354 2.796-3.516a1.118 1.118 0 1 1 1.735 1.412 202.445 202.445 0 0 0-2.763 3.477 1.11 1.11 0 0 1-.882.432zm306.942-2.598c-.33 0-.65-.143-.875-.418-.93-1.154-1.87-2.3-2.825-3.433a1.12 1.12 0 1 1 1.71-1.44c.968 1.145 1.92 2.303 2.86 3.472.386.48.31 1.185-.172 1.57a1.098 1.098 0 0 1-.7.248zm-301.306-4.33c-.257 0-.515-.09-.726-.27a1.117 1.117 0 0 1-.126-1.575c.972-1.14 1.955-2.27 2.953-3.386a1.116 1.116 0 0 1 1.577-.09c.46.41.5 1.117.09 1.578a220.745 220.745 0 0 0-2.92 3.35 1.11 1.11 0 0 1-.85.394zm295.542-2.51c-.31 0-.617-.127-.84-.378a186.154 186.154 0 0 0-2.978-3.3 1.12 1.12 0 0 1 1.643-1.518c1.016 1.1 2.02 2.213 3.01 3.337a1.117 1.117 0 0 1-.835 1.858zm-289.594-4.16a1.118 1.118 0 0 1-.816-1.88 194.4 194.4 0 0 1 3.103-3.252c.434-.44 1.14-.45 1.583-.02.44.433.45 1.14.018 1.582a217.052 217.052 0 0 0-3.07 3.215 1.11 1.11 0 0 1-.814.355zm283.532-2.41c-.293 0-.585-.115-.805-.343a189.702 189.702 0 0 0-3.12-3.16 1.116 1.116 0 1 1 1.57-1.59 198.47 198.47 0 0 1 3.16 3.198 1.117 1.117 0 0 1-.03 1.58c-.216.21-.496.316-.775.316zM70.1 99.8a1.116 1.116 0 0 1-.78-1.916 173.25 173.25 0 0 1 3.25-3.107 1.118 1.118 0 1 1 1.523 1.633 202.3 202.3 0 0 0-3.213 3.072c-.217.212-.5.318-.78.318zm270.933-2.304c-.275 0-.552-.102-.768-.306a193.42 193.42 0 0 0-3.262-3.017 1.12 1.12 0 0 1 1.498-1.66 187.05 187.05 0 0 1 3.3 3.052 1.117 1.117 0 0 1-.765 1.93zm-264.4-3.803a1.12 1.12 0 0 1-.745-1.95c1.117-1 2.246-1.986 3.387-2.96a1.118 1.118 0 1 1 1.452 1.7 211.09 211.09 0 0 0-3.35 2.924c-.212.19-.48.283-.743.283zm257.77-2.19c-.258 0-.518-.088-.73-.27a185.29 185.29 0 0 0-3.393-2.864 1.12 1.12 0 1 1 1.422-1.727c1.155.952 2.3 1.918 3.433 2.896a1.118 1.118 0 0 1-.73 1.963zM83.435 87.89a1.118 1.118 0 0 1-.707-1.984c1.162-.947 2.336-1.88 3.52-2.802a1.117 1.117 0 1 1 1.372 1.763c-1.17.912-2.33 1.835-3.48 2.77-.207.17-.457.253-.705.253zm244.08-2.068c-.243 0-.487-.078-.69-.24a219.113 219.113 0 0 0-3.52-2.707 1.117 1.117 0 0 1 1.342-1.785c1.195.898 2.382 1.81 3.56 2.736a1.12 1.12 0 0 1 .186 1.57c-.22.28-.548.426-.88.426zm-237.02-3.425c-.34 0-.678-.155-.897-.45a1.12 1.12 0 0 1 .23-1.565 211.14 211.14 0 0 1 3.645-2.64 1.122 1.122 0 0 1 1.56.267c.355.503.235 1.2-.27 1.56a184.94 184.94 0 0 0-3.602 2.61c-.2.144-.43.216-.662.216zm229.88-1.94a1.11 1.11 0 0 1-.65-.207 195.558 195.558 0 0 0-3.637-2.545 1.118 1.118 0 0 1 1.26-1.846c1.234.84 2.46 1.7 3.677 2.57.5.36.617 1.057.258 1.56-.22.304-.56.466-.91.466zM97.8 77.227a1.118 1.118 0 0 1-.625-2.044 196.453 196.453 0 0 1 3.762-2.472 1.12 1.12 0 1 1 1.208 1.884c-1.25.8-2.49 1.616-3.718 2.444-.193.13-.41.19-.624.19zm215.203-1.803c-.21 0-.42-.058-.608-.18a186.37 186.37 0 0 0-3.747-2.375 1.118 1.118 0 0 1 1.174-1.903c1.274.785 2.538 1.586 3.79 2.4a1.116 1.116 0 0 1-.61 2.055zm-207.667-3.027a1.12 1.12 0 0 1-.58-2.073c1.28-.78 2.57-1.548 3.87-2.3a1.118 1.118 0 1 1 1.12 1.935c-1.284.74-2.56 1.5-3.826 2.27-.183.11-.384.164-.58.164zm200.077-1.664a1.12 1.12 0 0 1-.564-.153c-1.277-.75-2.56-1.482-3.854-2.202a1.118 1.118 0 0 1 1.087-1.954c1.308.728 2.606 1.47 3.895 2.226a1.12 1.12 0 0 1-.568 2.082zm-192.327-2.82a1.12 1.12 0 0 1-.538-2.1c1.315-.72 2.64-1.428 3.974-2.12a1.118 1.118 0 0 1 1.027 1.986 189.07 189.07 0 0 0-3.93 2.094c-.17.093-.354.137-.536.137zm184.534-1.517c-.176 0-.354-.042-.52-.13a200.418 200.418 0 0 0-3.944-2.022 1.118 1.118 0 1 1 .997-2c1.34.666 2.67 1.35 3.99 2.045a1.118 1.118 0 0 1-.523 2.105zm-176.584-2.61a1.118 1.118 0 0 1-.492-2.12c1.348-.66 2.703-1.307 4.068-1.937a1.116 1.116 0 0 1 1.482.545c.26.56.015 1.225-.546 1.483-1.35.623-2.688 1.262-4.02 1.914a1.09 1.09 0 0 1-.492.117zm168.606-1.368c-.16 0-.32-.034-.475-.106a215.38 215.38 0 0 0-4.03-1.84 1.117 1.117 0 0 1 .905-2.044c1.367.606 2.727 1.227 4.076 1.86a1.117 1.117 0 0 1-.476 2.13zm-160.47-2.39a1.116 1.116 0 0 1-.447-2.142c1.378-.6 2.763-1.182 4.155-1.75a1.118 1.118 0 1 1 .843 2.07c-1.377.56-2.746 1.138-4.107 1.73a1.134 1.134 0 0 1-.445.092zm152.323-1.215a1.13 1.13 0 0 1-.43-.086 186.03 186.03 0 0 0-4.107-1.65 1.12 1.12 0 0 1-.637-1.448c.227-.58.875-.86 1.45-.64 1.393.543 2.777 1.1 4.155 1.67.57.24.84.893.604 1.462-.178.43-.594.69-1.033.69zm-144.022-2.165a1.12 1.12 0 0 1-.398-2.163 193.844 193.844 0 0 1 4.232-1.556c.58-.208 1.22.1 1.427.68.207.58-.1 1.22-.68 1.426a198.89 198.89 0 0 0-4.186 1.538 1.1 1.1 0 0 1-.395.073zm135.705-1.07c-.126 0-.255-.02-.38-.066-1.392-.504-2.79-.992-4.196-1.466-.585-.196-.9-.83-.702-1.416.195-.585.83-.9 1.415-.703 1.423.48 2.838.974 4.244 1.484.58.21.88.85.67 1.43-.168.457-.597.74-1.054.74zm-127.253-1.925c-.47 0-.907-.3-1.062-.77a1.116 1.116 0 0 1 .713-1.41c1.428-.47 2.86-.923 4.303-1.36.59-.18 1.212.156 1.39.746.18.59-.153 1.214-.744 1.393-1.425.432-2.843.88-4.254 1.343a1.128 1.128 0 0 1-.35.056zm118.782-.926a1.17 1.17 0 0 1-.333-.05c-1.412-.44-2.832-.865-4.26-1.273a1.117 1.117 0 1 1 .615-2.15c1.44.414 2.876.844 4.31 1.288a1.12 1.12 0 0 1-.335 2.186zm-110.213-1.672a1.117 1.117 0 0 1-.298-2.195c1.44-.4 2.89-.786 4.344-1.155a1.118 1.118 0 1 1 .548 2.168c-1.438.363-2.87.744-4.295 1.14-.1.027-.2.04-.3.04zm101.62-.787a1.11 1.11 0 0 1-.283-.037 203.88 203.88 0 0 0-4.31-1.07 1.118 1.118 0 0 1 .515-2.176c1.46.345 2.915.707 4.363 1.086.597.154.955.765.798 1.362-.13.504-.583.837-1.08.837zm-92.955-1.41a1.117 1.117 0 0 1-.25-2.207c1.46-.332 2.922-.65 4.393-.95a1.118 1.118 0 1 1 .448 2.19c-1.453.297-2.9.61-4.342.94a1.1 1.1 0 0 1-.25.03zm84.255-.65c-.077 0-.156-.01-.233-.024-1.447-.31-2.9-.6-4.356-.875a1.12 1.12 0 0 1-.893-1.307 1.115 1.115 0 0 1 1.306-.892c1.475.28 2.944.574 4.407.886.604.13.99.722.86 1.326a1.115 1.115 0 0 1-1.09.886zm-75.5-1.142a1.118 1.118 0 0 1-.2-2.218c1.472-.267 2.95-.517 4.433-.75a1.118 1.118 0 0 1 .346 2.21 175.58 175.58 0 0 0-4.382.74 1.033 1.033 0 0 1-.2.018zm66.716-.515c-.06 0-.12-.003-.182-.014-1.46-.24-2.924-.464-4.394-.672a1.118 1.118 0 0 1-.95-1.263 1.112 1.112 0 0 1 1.264-.95c1.487.21 2.968.437 4.443.68.61.1 1.023.676.92 1.284a1.115 1.115 0 0 1-1.1.937zm-57.886-.872a1.118 1.118 0 0 1-.146-2.226c1.48-.197 2.97-.38 4.46-.544a1.117 1.117 0 1 1 .245 2.222c-1.475.162-2.945.342-4.41.538-.05.008-.1.01-.15.01zm49.037-.377c-.043 0-.087-.003-.132-.01-1.47-.172-2.94-.33-4.42-.47a1.117 1.117 0 0 1 .21-2.225c1.497.142 2.987.3 4.47.476a1.118 1.118 0 0 1-.13 2.23zm-40.152-.605a1.117 1.117 0 0 1-.096-2.232c1.488-.13 2.983-.243 4.48-.34a1.118 1.118 0 1 1 .145 2.23c-1.48.097-2.96.21-4.43.338a1.21 1.21 0 0 1-.1.005zm31.254-.24c-.027 0-.054 0-.08-.003a216.896 216.896 0 0 0-4.437-.266 1.12 1.12 0 0 1-1.063-1.172 1.116 1.116 0 0 1 1.17-1.06c1.502.073 2.998.164 4.487.27a1.12 1.12 0 0 1-.077 2.234zm-22.335-.334a1.12 1.12 0 0 1-.047-2.234c1.494-.063 2.99-.107 4.493-.136h.02a1.116 1.116 0 0 1 .02 2.235c-1.483.027-2.965.072-4.44.134h-.047zm13.405-.1h-.03c-1.477-.04-2.957-.063-4.442-.067a1.118 1.118 0 0 1 .005-2.236h.004c1.5.005 3 .027 4.492.066a1.118 1.118 0 0 1-.03 2.234z" fill="#536b8b"/><path d="M168.92 161.615h97.056v149.368H168.92z" clip-rule="evenodd" fill="#fff" fill-rule="evenodd"/><path d="M265.976 312.1H168.92c-.616 0-1.116-.5-1.116-1.116v-149.37c0-.616.5-1.116 1.117-1.116h97.058c.616 0 1.116.5 1.116 1.117v149.368c0 .617-.5 1.118-1.116 1.118zm-95.938-2.235h94.82V162.733h-94.82v147.132z" fill="#536b8b"/><path d="M154.34 166.776h106.202v151.417h-106.2z" clip-rule="evenodd" fill="#fdd26a" fill-rule="evenodd"/><path d="M260.542 319.31h-106.2c-.618 0-1.12-.5-1.12-1.116V166.776a1.12 1.12 0 0 1 1.12-1.118h106.2c.617 0 1.117.5 1.117 1.118v151.417c0 .618-.5 1.118-1.12 1.118zm-105.084-2.235h103.967v-149.18H155.458v149.18z" fill="#536b8b"/><path d="M260.542 267.047v-49.123l-9.833 5.62v37.88" clip-rule="evenodd" fill="#e8a541" fill-rule="evenodd"/><path d="M260.542 268.164c-.19 0-.383-.05-.555-.147l-9.833-5.62a1.12 1.12 0 0 1-.563-.972v-37.88c0-.4.218-.77.566-.97l9.833-5.622a1.117 1.117 0 0 1 1.672.97v49.124a1.117 1.117 0 0 1-1.12 1.116zm-8.716-7.388l7.6 4.344v-45.27l-7.6 4.345v36.58zM192.48 279.48h29.922v2.236h-29.92z" fill="#536b8b"/><path d="M207.44 184.442l15.56 8.965 15.558 8.966-17.23 9.93-6.943-4.002-6.944-4-6.94 4-6.942 4.005v16.004l6.943 4 6.94 4 6.946-4 6.942-4 17.23 9.926L223 247.2l-15.56 8.966-15.556-8.965-15.558-8.964v-35.86l15.558-8.967" clip-rule="evenodd" fill="#a2baf0" fill-rule="evenodd"/><path d="M207.44 257.284c-.192 0-.385-.05-.558-.15l-31.115-17.93a1.12 1.12 0 0 1-.56-.97v-35.86c0-.4.214-.77.56-.97l31.115-17.93c.346-.2.77-.2 1.116 0l31.116 17.93a1.117 1.117 0 0 1 0 1.938l-17.23 9.93a1.12 1.12 0 0 1-1.115 0l-13.33-7.68-12.77 7.356v14.712l12.77 7.356 13.33-7.68c.342-.197.77-.197 1.113 0l17.23 9.93a1.118 1.118 0 0 1 0 1.938l-31.116 17.93c-.172.1-.364.15-.557.15zm-29.997-19.695l29.998 17.284 28.88-16.642-14.99-8.638-13.33 7.68c-.344.2-.77.198-1.115 0l-13.885-8c-.348-.2-.56-.57-.56-.97V212.3c0-.4.212-.77.56-.97l13.884-8c.346-.2.77-.2 1.116 0l13.327 7.68 14.99-8.64-28.876-16.64-29.995 17.287v34.57z" fill="#536b8b"/><path d="M207.44 236.308l6.945-4 6.942-4 17.23 9.926L223 247.2l-15.56 8.965" clip-rule="evenodd" fill="#c7d5f6" fill-rule="evenodd"/><path d="M207.44 257.283a1.118 1.118 0 0 1-1.118-1.118v-19.857c0-.4.214-.77.56-.97l13.887-8c.34-.198.77-.198 1.112 0l17.23 9.93a1.12 1.12 0 0 1 0 1.937l-31.116 17.93a1.135 1.135 0 0 1-.557.148zm1.12-20.33v17.276l27.76-15.998-14.992-8.638-12.77 7.357z" fill="#536b8b"/><path d="M207.44 256.166l-15.556-8.965-15.558-8.964v-35.86l17.23 9.93v16.003l6.943 4 6.94 4" clip-rule="evenodd" fill="#fff" fill-rule="evenodd"/><path d="M207.44 257.284c-.192 0-.385-.05-.558-.15l-31.115-17.93a1.12 1.12 0 0 1-.56-.97v-35.86a1.12 1.12 0 0 1 1.676-.97l17.23 9.93c.346.2.56.568.56.97v15.356l13.325 7.678c.347.2.56.57.56.97v19.858c0 .4-.213.77-.56.968-.17.1-.363.15-.557.15zm-29.997-19.695l28.88 16.64V236.95l-13.325-7.678a1.12 1.12 0 0 1-.56-.97V212.95l-14.995-8.643v33.282z" fill="#536b8b"/><path d="M180.45 266.763h53.983v7.646H180.45z" clip-rule="evenodd" fill="#f1877a" fill-rule="evenodd"/><path d="M235.552 275.526h-56.22v-9.882h56.22v9.882zm-53.986-2.236h51.75v-5.41h-51.75v5.41zm15.314 11.395h21.123v2.236H196.88z" fill="#536b8b"/><path d="M249.24 353.428v23.895c0 15.796-12.95 28.717-28.772 28.717s-28.77-12.92-28.77-28.717v-23.895l11.84 15.898-.1-15.898h11.067l.455-13.21 5.712-2.162 4.415 2.09 1.263 13.282.258-10.775 5.49-2.245 2.862.77 2.12 1.458.715 10.793 1.104-5.398 4.623-2.368 4.155 1.8 1.56 5.962z" clip-rule="evenodd" fill="#f7bfb3" fill-rule="evenodd"/><path d="M197.996 395.2c-3.937-4.915-6.298-11.134-6.298-17.878l-7.626-29.644 5.078.08 6.544 5.072 7.845 16.495-.104-62.81c3.737-4.615 7.632-5.16 11.067 0l.455 34.005c7.08-2.712 6.644-2.88 10.964-.063l.425 12.97-.06-10.65c11.99-4.772 10.703-1.41 11.504 10.65l1.105-5.395 4.625-2.368.198.088.78 2.98v23.897c0 15.793-12.947 28.714-28.77 28.714-6.674 0-12.84-2.3-17.735-6.147z" clip-rule="evenodd" fill="#f8cfc3" fill-rule="evenodd"/><path d="M220.468 407.155c-15.383 0-28.165-11.52-29.732-26.794a1.117 1.117 0 0 1 2.224-.225c1.426 13.9 13.51 24.788 27.51 24.788 15.247 0 27.653-12.38 27.653-27.6V353.43a1.117 1.117 0 0 1 2.234 0v23.894c0 16.452-13.408 29.835-29.89 29.835zm-16.93-36.71a1.118 1.118 0 0 1-1.116-1.112l-.102-15.898a1.118 1.118 0 0 1 1.11-1.124h.008a1.12 1.12 0 0 1 1.117 1.11l.1 15.9a1.117 1.117 0 0 1-1.108 1.126h-.008z" fill="#536b8b"/><path d="M184.183 348.263c6.414-1.108 12.463 2.645 13.57 9.047l5.73 12.423c-10.11-2.652-4.98-17.26-19.3-21.47z" clip-rule="evenodd" fill="#f7bfb3" fill-rule="evenodd"/><path d="M191.95 382.244a1.12 1.12 0 0 1-1.097-.91l-.272-1.42-7.594-31.976a1.127 1.127 0 0 1 .155-.876c.17-.257.438-.433.74-.485 7.13-1.23 12.15 2.238 14.91 10.31l5.746 11.955a1.115 1.115 0 0 1-2.012.968l-5.777-12.017a.945.945 0 0 1-.05-.124c-2.22-6.545-5.91-9.52-11.25-9.046l7.32 30.818.282 1.47a1.12 1.12 0 0 1-1.1 1.33z" fill="#536b8b"/><path d="M214.45 355.607l-1.905-1.02c-2.467-1.575-1.916-3.52-1.916-6.453v-45.138c2.21 1.34 3.402 3.4 3.82 6.79v45.82z" clip-rule="evenodd" fill="#f7bfb3" fill-rule="evenodd"/><path d="M214.96 356.238c-.615 0-1.116-.5-1.116-1.117v-46.78a4.64 4.64 0 0 0-9.28 0v46.78a1.117 1.117 0 0 1-2.235.002v-46.78c0-3.786 3.08-6.867 6.872-6.867 3.79 0 6.874 3.08 6.874 6.867v46.78c0 .618-.5 1.118-1.117 1.118z" fill="#536b8b"/><path d="M324.99 82.575l15.86-1.237 1.24 15.832-15.86 1.237" clip-rule="evenodd" fill="#dbf9ff" fill-rule="evenodd"/><path d="M326.228 99.524a1.117 1.117 0 0 1-1.113-1.03l-1.238-15.83a1.124 1.124 0 0 1 1.027-1.204l15.86-1.236a1.11 1.11 0 0 1 1.2 1.026l1.24 15.833c.023.295-.07.588-.265.813-.195.225-.47.365-.766.388l-15.86 1.237a.668.668 0 0 1-.088.006zm-.037-15.92l1.066 13.602 13.633-1.063-1.065-13.604-13.632 1.062z" fill="#536b8b"/><path d="M132.444 113.9l14.612 6.283-6.295 14.584-14.61-6.284" clip-rule="evenodd" fill="#dbf9ff" fill-rule="evenodd"/><path d="M140.76 135.885a1.11 1.11 0 0 1-.44-.092l-14.61-6.282a1.114 1.114 0 0 1-.585-1.468l6.295-14.58c.244-.567.9-.83 1.468-.585l14.61 6.282a1.12 1.12 0 0 1 .585 1.47l-6.295 14.582a1.122 1.122 0 0 1-1.027.676zm-13.14-7.987l12.557 5.4 5.41-12.53-12.56-5.4-5.407 12.53z" fill="#536b8b"/><path d="M1.118 225.32l11.627-10.84 10.86 11.606-11.63 10.84" clip-rule="evenodd" fill="#dbf9ff" fill-rule="evenodd"/><path d="M11.976 238.042a1.12 1.12 0 0 1-.816-.354L.302 226.083a1.11 1.11 0 0 1-.3-.802c.01-.295.137-.574.353-.78l11.628-10.836a1.118 1.118 0 0 1 1.578.054l10.86 11.607a1.118 1.118 0 0 1-.053 1.58l-11.628 10.84c-.217.2-.49.3-.76.3zM2.7 225.372l9.33 9.974 9.99-9.313-9.33-9.974-9.99 9.31z" fill="#536b8b"/><path d="M173.356 18.676h66.815v48.398H173.36z" clip-rule="evenodd" fill="#536b8b" fill-rule="evenodd"/><path d="M198.033 432.87l11.03-11.44 11.464 11.01-11.032 11.442" clip-rule="evenodd" fill="#dbf9ff" fill-rule="evenodd"/><path d="M209.495 445c-.28 0-.558-.104-.774-.313l-11.46-11.013a1.12 1.12 0 0 1-.03-1.585l11.03-11.44a1.122 1.122 0 0 1 1.58-.03l11.463 11.013a1.118 1.118 0 0 1 .03 1.582l-11.033 11.44a1.12 1.12 0 0 1-.806.342zm-9.88-12.16l9.85 9.463 9.48-9.83-9.85-9.465-9.48 9.83zm12.213-119.725h-4.463a1.117 1.117 0 0 1 0-2.234h4.463a1.118 1.118 0 0 1 0 2.237zm0 18.81h-4.463a1.118 1.118 0 0 1 0-2.236h4.463a1.117 1.117 0 0 1 0 2.233zm-.878 3.602h-2.706a1.117 1.117 0 0 1 0-2.234h2.705a1.116 1.116 0 0 1-.003 2.234zm-24.69 22.49a1.117 1.117 0 0 1-.3-2.194l3.89-1.095a1.118 1.118 0 0 1 .604 2.153l-3.892 1.095c-.102.03-.203.043-.303.043z" fill="#536b8b"/><path d="M14.516 96.695H70.93v61.783H14.516z" clip-rule="evenodd" fill="#fff" fill-rule="evenodd"/><path d="M70.93 159.596H14.516c-.618 0-1.118-.5-1.118-1.117V96.692c0-.618.5-1.118 1.118-1.118H70.93c.617 0 1.117.5 1.117 1.118v61.783c0 .618-.5 1.118-1.117 1.118zm-55.297-2.236h54.18V97.813h-54.18v59.547z" fill="#536b8b"/><path d="M9.315 114.252H76.13v48.398H9.314z" clip-rule="evenodd" fill="#dbf9ff" fill-rule="evenodd"/><path d="M76.13 163.77H9.315a1.12 1.12 0 0 1-1.118-1.12v-48.397c0-.618.5-1.118 1.118-1.118H76.13c.617 0 1.117.5 1.117 1.118v48.398c0 .62-.5 1.12-1.117 1.12zm-65.697-2.238h64.58V115.37h-64.58v46.162z" fill="#536b8b"/><path d="M360.268 124.245h56.414v61.783h-56.414z" clip-rule="evenodd" fill="#fff" fill-rule="evenodd"/><path d="M416.682 187.146h-56.414c-.617 0-1.117-.5-1.117-1.118v-61.783c0-.617.5-1.118 1.12-1.118h56.414c.616 0 1.116.5 1.116 1.118v61.783c0 .618-.5 1.118-1.117 1.118zm-55.298-2.235h54.18v-59.545h-54.18v59.548z" fill="#536b8b"/><path d="M355.067 141.802h66.814v48.4h-66.81z" clip-rule="evenodd" fill="#fdd26a" fill-rule="evenodd"/><path d="M421.882 191.318h-66.814c-.617 0-1.118-.5-1.118-1.117v-48.396c0-.617.5-1.118 1.118-1.118h66.814c.617 0 1.118.5 1.118 1.118v48.4c0 .616-.5 1.116-1.118 1.116zm-65.696-2.235h64.578V142.92h-64.578v46.163z" fill="#536b8b"/><path d="M341.095 315.277h56.413v61.783h-56.413z" clip-rule="evenodd" fill="#dbe9f6" fill-rule="evenodd"/><path d="M398.626 378.18h-58.65v-64.02h58.65v64.02zm-56.413-2.238h54.177v-59.547h-54.177v59.547z" fill="#536b8b"/><path d="M335.896 332.836h66.813v48.396h-66.816z" clip-rule="evenodd" fill="#f1877a" fill-rule="evenodd"/><path d="M403.826 382.352h-69.05v-50.635h69.05v50.635zm-66.812-2.237h64.577v-46.16h-64.574v46.16z" fill="#536b8b"/><path d="M50.4 343.35h56.413v61.784H50.4z" clip-rule="evenodd" fill="#536b8b" fill-rule="evenodd"/><path d="M390.51 241.13l11.514-10.955L413 241.672l-11.518 10.954" clip-rule="evenodd" fill="#dbf9ff" fill-rule="evenodd"/><path d="M401.482 253.744c-.294 0-.59-.116-.808-.346L389.7 241.9a1.117 1.117 0 0 1 .038-1.58l11.516-10.957a1.123 1.123 0 0 1 1.58.037l10.976 11.5a1.12 1.12 0 0 1-.04 1.58l-11.517 10.956a1.113 1.113 0 0 1-.77.308zm-9.392-12.577l9.43 9.88 9.9-9.413-9.434-9.88-9.896 9.413z" fill="#536b8b"/><path d="M362.554 150.223H376.1v8.654h-13.546z" clip-rule="evenodd" fill="#a2baf0" fill-rule="evenodd"/><path d="M377.217 159.995h-15.78v-10.89h15.78v10.89zm-13.545-2.236h11.31v-6.42h-11.31v6.42z" fill="#536b8b"/><path d="M381.702 150.223h13.544v8.654h-13.544z" clip-rule="evenodd" fill="#f1877a" fill-rule="evenodd"/><path d="M396.364 159.995h-15.78v-10.89h15.78v10.89zm-13.544-2.236h11.308v-6.42H382.82v6.42z" fill="#536b8b"/><path d="M400.85 150.223h13.546v8.654H400.85z" clip-rule="evenodd" fill="#a2baf0" fill-rule="evenodd"/><path d="M415.514 159.995h-15.78v-10.89h15.78v10.89zm-13.545-2.236h11.306v-6.42h-11.31v6.42zm-32.644 16.485a1.12 1.12 0 0 1-1.118-1.118v-14.25a1.12 1.12 0 0 1 2.236-.002v14.25c0 .617-.5 1.118-1.118 1.118zm19.15 0c-.618 0-1.12-.5-1.12-1.118v-14.25a1.118 1.118 0 0 1 2.237-.002v14.25c0 .617-.5 1.118-1.118 1.118z" fill="#536b8b"/><path d="M407.623 174.245c-.617 0-1.118-.5-1.118-1.118v-14.25a1.118 1.118 0 0 1 2.236-.002v14.25c0 .617-.5 1.118-1.115 1.118z" fill="#536b8b"/><path d="M362.554 173.127H376.1v8.653h-13.546z" clip-rule="evenodd" fill="#f1877a" fill-rule="evenodd"/><path d="M377.217 182.898h-15.78v-10.89h15.78v10.89zm-13.545-2.235h11.31v-6.418h-11.31v6.418z" fill="#536b8b"/><path d="M381.702 173.127h13.544v8.653h-13.544z" clip-rule="evenodd" fill="#a2baf0" fill-rule="evenodd"/><path d="M396.364 182.898h-15.78v-10.89h15.78v10.89zm-13.544-2.235h11.308v-6.418H382.82v6.418z" fill="#536b8b"/><path d="M400.85 173.127h13.546v8.653H400.85z" clip-rule="evenodd" fill="#f1877a" fill-rule="evenodd"/><path d="M415.514 182.898h-15.78v-10.89h15.78v10.89zm-13.545-2.235h11.306v-6.418h-11.31v6.418z" fill="#536b8b"/><path d="M238.12 356.335l-1.905-1.02c-2.468-1.574-1.915-3.52-1.915-6.454v-7.69c2.208 1.344 2.598 2.03 3.82 4.328v10.84z" clip-rule="evenodd" fill="#f7bfb3" fill-rule="evenodd"/><path d="M369.326 169.817l-1.714-2.964-1.715-2.963h6.86l-1.716 2.963m17.435 2.964l-1.715-2.964-1.715-2.963h6.858l-1.713 2.963m17.433 2.964l-1.716-2.964-1.714-2.963h6.86l-1.715 2.963" clip-rule="evenodd" fill="#536b8b" fill-rule="evenodd"/><path d="M404.964 130.813h-6.55a1.117 1.117 0 0 1 0-2.236h6.55a1.117 1.117 0 0 1 0 2.236zm-12.262 0h-22.736a1.117 1.117 0 0 1-.002-2.236H392.7a1.117 1.117 0 0 1 0 2.236z" fill="#536b8b"/><path d="M388.69 135.072h-18.725a1.118 1.118 0 0 1 0-2.235h18.726a1.118 1.118 0 0 1 0 2.235z" fill="#a2baf0"/><path d="M404.964 139.334h-34.998a1.117 1.117 0 0 1-.002-2.236h34.998a1.117 1.117 0 0 1 0 2.236z" fill="#536b8b"/><path d="M226.558 356.335l-1.905-1.02c-2.467-1.574-1.915-3.52-1.915-6.454v-10.15c2.21 1.34 3.405 3.4 3.82 6.79v10.838z" clip-rule="evenodd" fill="#f7bfb3" fill-rule="evenodd"/><path d="M237.813 354.545c-.617 0-1.117-.5-1.117-1.117v-7.32c0-2.528-2.063-4.584-4.598-4.584a4.595 4.595 0 0 0-4.594 4.584v7.32a1.118 1.118 0 0 1-2.234 0v-7.32c0-3.76 3.063-6.818 6.828-6.818 3.767 0 6.832 3.06 6.832 6.818v7.32c0 .616-.5 1.117-1.117 1.117z" fill="#536b8b"/><path d="M226.388 357.01c-.617 0-1.117-.5-1.117-1.117V343.76a4.596 4.596 0 0 0-9.19 0v9.666a1.118 1.118 0 0 1-2.234 0v-9.67c0-3.76 3.063-6.82 6.83-6.82s6.83 3.06 6.83 6.82v12.135c0 .618-.5 1.118-1.116 1.118z" fill="#536b8b"/><path d="M346.51 339.646h22.792v8.654H346.51z" clip-rule="evenodd" fill="#fdd26a" fill-rule="evenodd"/><path d="M370.42 349.418h-25.028v-10.89h25.028v10.89zm-22.792-2.237h20.556v-6.413h-20.556v6.416z" fill="#536b8b"/><path d="M369.302 339.646h22.79v8.654h-22.79z" clip-rule="evenodd" fill="#dbf9ff" fill-rule="evenodd"/><path d="M393.21 349.418h-25.026v-10.89h25.027v10.89zm-22.79-2.237h20.555v-6.413H370.42v6.416z" fill="#536b8b"/><path d="M346.51 352.708h29.528v8.654H346.51z" clip-rule="evenodd" fill="#dbf9ff" fill-rule="evenodd"/><path d="M377.156 362.48H345.39v-10.89h31.766v10.89zm-29.528-2.236h27.292v-6.418h-27.292v6.418z" fill="#536b8b"/><path d="M346.51 365.77h35.81v8.654h-35.81z" clip-rule="evenodd" fill="#fdd26a" fill-rule="evenodd"/><path d="M383.438 375.54H345.39v-10.888h38.048v10.89zm-35.81-2.235h33.575v-6.415h-33.575v6.415z" fill="#536b8b"/><path d="M376.038 352.708h16.055v8.654h-16.055z" clip-rule="evenodd" fill="#fdd26a" fill-rule="evenodd"/><path d="M393.21 362.48h-18.29v-10.89h18.29v10.89zm-16.054-2.236h13.818v-6.418h-13.818v6.418z" fill="#536b8b"/><path d="M382.32 365.77h9.772v8.654h-9.772z" clip-rule="evenodd" fill="#dbf9ff" fill-rule="evenodd"/><path d="M393.21 375.54h-12.007v-10.888h12.008v10.89zm-9.772-2.235h7.536v-6.415h-7.536v6.415zm-10.696-52.057h-22.736a1.115 1.115 0 0 1-.002-2.232h22.735a1.118 1.118 0 0 1 0 2.236zm9.873 4.262h-32.61a1.12 1.12 0 0 1-1.116-1.12c0-.616.5-1.116 1.114-1.116h32.61a1.12 1.12 0 0 1 0 2.237zm2.39 4.26h-35a1.118 1.118 0 0 1 0-2.235H385a1.117 1.117 0 0 1 0 2.234zm-135.768 45.116c-.617 0-1.117-.5-1.117-1.118v-22.4c0-2.526-2.062-4.584-4.594-4.584-1.224 0-2.374.48-3.246 1.35a4.546 4.546 0 0 0-1.35 3.235v4.964a1.117 1.117 0 0 1-2.234 0v-4.967c0-3.763 3.063-6.82 6.83-6.82 3.765 0 6.828 3.06 6.828 6.82v22.398c0 .618-.5 1.118-1.117 1.118z" fill="#536b8b"/><path d="M73.434 351.192h-15.59a1.117 1.117 0 0 1 0-2.236h15.59c.617 0 1.117.5 1.117 1.118 0 .618-.5 1.118-1.114 1.118zm24.96 0H82.808a1.117 1.117 0 0 1-.002-2.236h15.588a1.117 1.117 0 0 1 0 2.236z" fill="#fff"/><path d="M92.58 355.93h-9.773a1.117 1.117 0 0 1-.002-2.235h9.772a1.118 1.118 0 0 1 0 2.235zm-26.94 0h-8.146a1.118 1.118 0 0 1 0-2.235h8.145a1.117 1.117 0 0 1-.003 2.235z" fill="#f1877a"/><path d="M92.58 360.532h-9.773a1.12 1.12 0 0 1-.002-2.238h9.77a1.12 1.12 0 0 1 0 2.238zm-21.42 0H57.493a1.118 1.118 0 0 1 0-2.238H71.16a1.12 1.12 0 0 1 0 2.238zm27.835 0h-3.057a1.12 1.12 0 0 1 0-2.238h3.057a1.12 1.12 0 0 1 0 2.238z" fill="#fff"/><path d="M45.2 360.908h66.814v48.398H45.2z" clip-rule="evenodd" fill="#a2baf0" fill-rule="evenodd"/><path d="M112.015 410.425H45.2a1.12 1.12 0 0 1-1.117-1.118V360.91c0-.618.5-1.12 1.118-1.12h66.816a1.12 1.12 0 0 1 1.117 1.12v48.397a1.115 1.115 0 0 1-1.115 1.118zm-65.697-2.237h64.578v-46.162H46.318v46.162z" fill="#536b8b"/><path d="M67.21 367.028h22.793v8.653H67.21z" clip-rule="evenodd" fill="#fdd26a" fill-rule="evenodd"/><path d="M91.12 376.8H66.094v-10.89H91.12v10.89zm-22.79-2.237h20.555v-6.417H68.33v6.417z" fill="#536b8b"/><path d="M78.607 400.555a1.12 1.12 0 0 1-1.118-1.12v-23.753a1.118 1.118 0 0 1 2.232 0v23.754c0 .617-.5 1.12-1.117 1.12z" fill="#536b8b"/><path d="M85.936 387.947H71.278a1.118 1.118 0 0 1 0-2.238h14.657a1.118 1.118 0 0 1 0 2.235z" fill="#536b8b"/><path d="M60.285 383.43h10.663v6.8H60.285z" clip-rule="evenodd" fill="#fdd26a" fill-rule="evenodd"/><path d="M72.065 391.347H59.167v-9.035h12.898v9.035zm-10.663-2.236h8.43v-4.56H61.4v4.563z" fill="#536b8b"/><path d="M86.267 383.43H96.93v6.8H86.268z" clip-rule="evenodd" fill="#f1877a" fill-rule="evenodd"/><path d="M98.048 391.347h-12.9v-9.035h12.9v9.035zm-10.663-2.236h8.428v-4.56h-8.428v4.563zm-1.45 11.445H71.28a1.118 1.118 0 0 1 0-2.236h14.657a1.116 1.116 0 0 1 0 2.234z" fill="#536b8b"/><path d="M60.285 396.036h10.663v6.8H60.285z" clip-rule="evenodd" fill="#f1877a" fill-rule="evenodd"/><path d="M72.065 403.955H59.167v-9.037h12.898v9.037zm-10.663-2.237h8.43v-4.563H61.4v4.563z" fill="#536b8b"/><path d="M86.267 396.036H96.93v6.8H86.268z" clip-rule="evenodd" fill="#fdd26a" fill-rule="evenodd"/><path d="M98.048 403.955h-12.9v-9.037h12.9v9.037zm-10.663-2.237h8.428v-4.563h-8.428v4.563z" fill="#536b8b"/><path d="M221.71 8.046h-6.55a1.118 1.118 0 0 1 0-2.237h6.55a1.118 1.118 0 0 1 0 2.234zm-12.263 0h-22.735a1.118 1.118 0 0 1 0-2.237h22.735a1.118 1.118 0 0 1 0 2.234z" fill="#f1877a"/><path d="M205.437 12.308h-18.725a1.117 1.117 0 0 1 0-2.236h18.725a1.117 1.117 0 0 1 0 2.236zm-2.694 4.26h-16.03a1.118 1.118 0 0 1 0-2.236h16.03a1.117 1.117 0 0 1 .002 2.236zm22.692-4.26H211.41a1.117 1.117 0 0 1 0-2.236h14.023a1.117 1.117 0 0 1 0 2.236z" fill="#536b8b"/><path d="M225.232 16.568H209.2a1.117 1.117 0 0 1 0-2.236h16.03a1.117 1.117 0 0 1 0 2.236z" fill="#f1877a"/><path d="M55.776 103.915h-29.63a1.118 1.118 0 0 1 0-2.236h29.63a1.118 1.118 0 0 1 0 2.233zm-13.94 6.065h-17.3a1.118 1.118 0 0 1 .002-2.236h17.3a1.118 1.118 0 0 1 0 2.237z" fill="#536b8b"/><path d="M50.934 109.98H45.79a1.117 1.117 0 0 1 0-2.236h5.146c.617 0 1.117.5 1.117 1.117 0 .62-.5 1.12-1.116 1.12zm8.52 0h-5.14a1.118 1.118 0 0 1 0-2.236h5.14a1.118 1.118 0 0 1 0 2.237z" fill="#fdd26a"/><path d="M18.788 119.07h6.95v9.703h-6.95z" clip-rule="evenodd" fill="#fdd26a" fill-rule="evenodd"/><path d="M25.737 129.89h-6.95c-.616 0-1.116-.5-1.116-1.116v-9.702c0-.618.5-1.118 1.12-1.118h6.95c.616 0 1.116.5 1.116 1.118v9.702c0 .617-.5 1.117-1.117 1.117zm-5.83-2.235h4.712v-7.467h-4.716v7.467z" fill="#536b8b"/><path d="M68.378 129.89h-43.76v-11.937h43.76v11.938zm-41.524-2.235h39.288v-7.467H26.854v7.467z" fill="#536b8b"/><path d="M18.788 133.7h6.95v9.702h-6.95z" clip-rule="evenodd" fill="#f1877a" fill-rule="evenodd"/><path d="M26.854 144.52H17.67v-11.937h9.184v11.937zm-6.948-2.236h4.713v-7.465h-4.716v7.462z" fill="#536b8b"/><path d="M68.378 144.52h-43.76v-11.937h43.76v11.937zm-41.524-2.236h39.288v-7.465H26.854v7.462z" fill="#536b8b"/><path d="M18.788 148.13h6.95v9.702h-6.95z" clip-rule="evenodd" fill="#fdd26a" fill-rule="evenodd"/><path d="M25.737 158.95h-6.95c-.616 0-1.116-.5-1.116-1.118v-9.702c0-.617.5-1.117 1.12-1.117h6.95c.616 0 1.116.5 1.116 1.117v9.702c0 .618-.5 1.118-1.117 1.118zm-5.83-2.235h4.712v-7.467h-4.716v7.467z" fill="#536b8b"/><path d="M68.378 158.95h-43.76v-11.938h43.76v11.938zm-41.524-2.235h39.288v-7.467H26.854v7.467zM40.454 125.04h-9.9c-.618 0-1.12-.5-1.12-1.118a1.12 1.12 0 0 1 1.12-1.117h9.9a1.117 1.117 0 0 1 .002 2.235zM49.004 125.04h-4.617a1.117 1.117 0 0 1-.002-2.235h4.617a1.117 1.117 0 0 1 0 2.235zM52.884 139.67h-22.33a1.12 1.12 0 0 1 0-2.236h22.33a1.118 1.118 0 0 1 0 2.236zM60.91 139.67h-4.618a1.117 1.117 0 0 1 0-2.236h4.618a1.117 1.117 0 0 1 0 2.236z" fill="#536b8b"/><path d="M46.498 154.482H30.553a1.118 1.118 0 0 1 0-2.236h15.945a1.118 1.118 0 0 1 0 2.236z" fill="#536b8b"/><path d="M182.828 25.035h7.344v6.598h-7.344z" clip-rule="evenodd" fill="#a2baf0" fill-rule="evenodd"/><path d="M214.35 29.354h-18.727a1.117 1.117 0 0 1 0-2.235h18.727a1.117 1.117 0 0 1 0 2.232z" fill="#fff"/><path d="M192.552 34.542h7.345v6.598h-7.345zM183.932 44.05h7.343v6.597h-7.343zM198.065 53.556h7.345v6.596h-7.345z" clip-rule="evenodd" fill="#a2baf0" fill-rule="evenodd"/><path d="M226.366 29.354h-5.826a1.117 1.117 0 0 1 0-2.235h5.826a1.117 1.117 0 0 1 0 2.232zM221.98 38.96h-18.726a1.12 1.12 0 0 1 0-2.237h18.725c.614 0 1.114.5 1.114 1.118 0 .62-.5 1.12-1.117 1.12zM207.503 48.465h-11.88a1.117 1.117 0 0 1 0-2.235h11.88a1.117 1.117 0 0 1 0 2.235zM218.24 57.97h-9.364a1.117 1.117 0 0 1-.002-2.234h9.363a1.117 1.117 0 0 1 0 2.235zM226.777 57.97h-4.682a1.118 1.118 0 0 1 0-2.234h4.682a1.117 1.117 0 0 1 0 2.235zM220.353 48.465h-6.457a1.117 1.117 0 0 1-.002-2.235h6.457a1.118 1.118 0 0 1 0 2.235zM231.01 48.465h-5.035a1.118 1.118 0 0 1 0-2.235h5.035a1.118 1.118 0 0 1 0 2.235z" fill="#fff"/></g></svg>