<svg xmlns="http://www.w3.org/2000/svg" width="2400" height="1350" viewBox="0 0 2400 1350"><defs><clipPath id="a"><path d="M0 1080h1920v-1080h-1920v1080z"/></clipPath><clipPath id="b"><path d="M0 1080h1920v-1080h-1920v1080z"/></clipPath><clipPath id="c"><path d="M1076.062 571.195c-93.801-93.801-93.801-245.882 0-339.683 93.8-93.8 245.881-93.8 339.682 0 93.801 93.801 93.801 245.882 0 339.683-46.9 46.9-108.371 70.35-169.841 70.35-61.471 0-122.941-23.45-169.841-70.35"/></clipPath><clipPath id="d"><path d="M0 1080h1920v-1080h-1920v1080z"/></clipPath></defs><g><path d="M0 1350h2400v-1350h-2400v1350z" fill="#dbf9ff"/><g clip-path="url(#a)"><path d="M1207.554 1413.597l-7.609-1463.899" stroke="#a6ccd6" stroke-width="6.25" stroke-linecap="round" stroke-linejoin="round" stroke-miterlimit="22.926" stroke-dasharray="14, 10" fill="none"/><path d="M-78.75 660.452l2565-7.609" stroke="#a6ccd6" stroke-width="6.25" stroke-linecap="round" stroke-linejoin="round" stroke-miterlimit="22.926" stroke-dasharray="14, 10" fill="none"/><path d="M607.87 225v128.05c0 27.636-22.419 50.03-50.055 50l-200.334-.57" stroke="#a6ccd6" stroke-width="6.25" stroke-linecap="round" stroke-linejoin="round" stroke-miterlimit="22.926" stroke-dasharray="14, 10" fill="none"/><path d="M1603.429 939.693h-801.779c-8.059 0-14.592-6.534-14.592-14.594v-524.691c0-8.059 6.534-14.592 14.592-14.592h801.779c8.06 0 14.594 6.534 14.594 14.592v524.691c0 8.06-6.534 14.594-14.594 14.594" fill="#465f81" fill-rule="evenodd"/><path d="M1603.429 939.693h-801.779c-8.059 0-14.592-6.534-14.592-14.594v-524.691c0-8.059 6.534-14.592 14.592-14.592h801.779c8.06 0 14.594 6.534 14.594 14.592v524.691c0 8.06-6.534 14.594-14.594 14.594z" stroke="#465f81" stroke-width="6.25" stroke-linecap="round" stroke-linejoin="round" stroke-miterlimit="22.926" fill="none"/><path d="M827.77 412.163c0 6.214-5.036 11.25-11.25 11.25s-11.25-5.036-11.25-11.25 5.036-11.25 11.25-11.25 11.25 5.036 11.25 11.25" fill="#ed1c24" fill-rule="evenodd"/><path d="M865.27 412.163c0 6.214-5.036 11.25-11.25 11.25s-11.25-5.036-11.25-11.25 5.036-11.25 11.25-11.25 11.25 5.036 11.25 11.25" fill="#fdd26a" fill-rule="evenodd"/><path d="M902.354 412.163c0 6.214-5.036 11.25-11.25 11.25s-11.25-5.036-11.25-11.25 5.036-11.25 11.25-11.25 11.25 5.036 11.25 11.25" fill="#79a8dc" fill-rule="evenodd"/><path d="M1601.081 922.324h-594.56v-420.752h594.56v420.752z" fill="#2c4968" fill-rule="evenodd"/><path d="M1601.081 481.68h-795.81v-40.756h795.81v40.756z" fill="#2c4968" fill-rule="evenodd"/><path d="M1102.326 652.844h-59.7c-4.201 0-7.609 3.406-7.609 7.609 0 4.203 3.407 7.609 7.609 7.609h59.7c4.203 0 7.609-3.406 7.609-7.609 0-4.202-3.406-7.609-7.609-7.609" fill="#fdd26a" fill-rule="evenodd"/><path d="M1102.326 534.719h-59.7c-4.201 0-7.609 3.406-7.609 7.609 0 4.203 3.407 7.609 7.609 7.609h59.7c4.203 0 7.609-3.406 7.609-7.609 0-4.202-3.406-7.609-7.609-7.609" fill="#fdd26a" fill-rule="evenodd"/><path d="M1102.326 740.969h-59.7c-4.201 0-7.609 3.406-7.609 7.609 0 4.203 3.407 7.609 7.609 7.609h59.7c4.203 0 7.609-3.406 7.609-7.609 0-4.202-3.406-7.609-7.609-7.609" fill="#fdd26a" fill-rule="evenodd"/><path d="M1171.648 624.094h-129.021c-4.201 0-7.609 3.406-7.609 7.609 0 4.203 3.407 7.609 7.609 7.609h129.021c4.203 0 7.609-3.406 7.609-7.609 0-4.202-3.406-7.609-7.609-7.609" fill="#fff" fill-rule="evenodd"/><path d="M1335.614 624.094h-129.021c-4.201 0-7.609 3.406-7.609 7.609 0 4.203 3.407 7.609 7.609 7.609h129.021c4.203 0 7.609-3.406 7.609-7.609 0-4.202-3.406-7.609-7.609-7.609" fill="#fff" fill-rule="evenodd"/><path d="M1263.495 740.969h-129.021c-4.201 0-7.609 3.406-7.609 7.609 0 4.203 3.407 7.609 7.609 7.609h129.021c4.203 0 7.609-3.406 7.609-7.609 0-4.202-3.406-7.609-7.609-7.609" fill="#fff" fill-rule="evenodd"/><path d="M1263.495 652.844h-129.021c-4.201 0-7.609 3.406-7.609 7.609 0 4.203 3.407 7.609 7.609 7.609h129.021c4.203 0 7.609-3.406 7.609-7.609 0-4.202-3.406-7.609-7.609-7.609" fill="#fff" fill-rule="evenodd"/><path d="M1171.648 712.249h-129.021c-4.201 0-7.609 3.406-7.609 7.609 0 4.203 3.407 7.609 7.609 7.609h129.021c4.203 0 7.609-3.406 7.609-7.609 0-4.202-3.406-7.609-7.609-7.609" fill="#fff" fill-rule="evenodd"/><path d="M1375.162 681.833h-129.021c-4.201 0-7.609 3.406-7.609 7.609 0 4.203 3.407 7.609 7.609 7.609h129.021c4.203 0 7.609-3.406 7.609-7.609 0-4.202-3.406-7.609-7.609-7.609" fill="#fff" fill-rule="evenodd"/><path d="M1135.451 594.719h-92.825c-4.201 0-7.609 3.406-7.609 7.609 0 4.203 3.407 7.609 7.609 7.609h92.825c4.203 0 7.609-3.406 7.609-7.609 0-4.202-3.406-7.609-7.609-7.609" fill="#fff" fill-rule="evenodd"/><path d="M1335.215 594.719h-92.825c-4.201 0-7.609 3.406-7.609 7.609 0 4.203 3.407 7.609 7.609 7.609h92.825c4.203 0 7.609-3.406 7.609-7.609 0-4.202-3.406-7.609-7.609-7.609" fill="#fff" fill-rule="evenodd"/><path d="M1461.285 594.719h-92.825c-4.201 0-7.609 3.406-7.609 7.609 0 4.203 3.407 7.609 7.609 7.609h92.825c4.203 0 7.609-3.406 7.609-7.609 0-4.202-3.406-7.609-7.609-7.609" fill="#fff" fill-rule="evenodd"/><path d="M1468.514 740.969h-92.825c-4.201 0-7.609 3.406-7.609 7.609 0 4.203 3.407 7.609 7.609 7.609h92.825c4.203 0 7.609-3.406 7.609-7.609 0-4.202-3.406-7.609-7.609-7.609" fill="#fff" fill-rule="evenodd"/><path d="M1187.451 564.719h-144.825c-4.203 0-7.609 3.406-7.609 7.609 0 4.203 3.406 7.609 7.609 7.609h144.825c4.203 0 7.609-3.406 7.609-7.609 0-4.202-3.406-7.609-7.609-7.609" fill="#fff" fill-rule="evenodd"/><path d="M1212.409 594.719h-46.032c-4.203 0-7.609 3.406-7.609 7.609 0 4.203 3.406 7.609 7.609 7.609h46.032c4.203 0 7.609-3.406 7.609-7.609 0-4.202-3.406-7.609-7.609-7.609" fill="#fdd26a" fill-rule="evenodd"/><path d="M1342.826 740.969h-46.032c-4.203 0-7.609 3.406-7.609 7.609 0 4.203 3.406 7.609 7.609 7.609h46.032c4.203 0 7.609-3.406 7.609-7.609 0-4.202-3.406-7.609-7.609-7.609" fill="#fdd26a" fill-rule="evenodd"/><path d="M1135.451 681.833h-92.825c-4.201 0-7.609 3.406-7.609 7.609 0 4.203 3.407 7.609 7.609 7.609h92.825c4.203 0 7.609-3.406 7.609-7.609 0-4.202-3.406-7.609-7.609-7.609" fill="#fff" fill-rule="evenodd"/><path d="M1213.659 681.833h-46.032c-4.203 0-7.609 3.406-7.609 7.609 0 4.203 3.406 7.609 7.609 7.609h46.032c4.203 0 7.609-3.406 7.609-7.609 0-4.202-3.406-7.609-7.609-7.609" fill="#fdd26a" fill-rule="evenodd"/><path d="M1375.162 859.663h-129.021c-4.201 0-7.609 3.406-7.609 7.609 0 4.203 3.407 7.609 7.609 7.609h129.021c4.203 0 7.609-3.406 7.609-7.609 0-4.202-3.406-7.609-7.609-7.609" fill="#fff" fill-rule="evenodd"/><path d="M1135.451 859.663h-92.825c-4.201 0-7.609 3.406-7.609 7.609 0 4.203 3.407 7.609 7.609 7.609h92.825c4.203 0 7.609-3.406 7.609-7.609 0-4.202-3.406-7.609-7.609-7.609" fill="#fff" fill-rule="evenodd"/><path d="M1213.659 859.663h-46.032c-4.203 0-7.609 3.406-7.609 7.609 0 4.203 3.406 7.609 7.609 7.609h46.032c4.203 0 7.609-3.406 7.609-7.609 0-4.202-3.406-7.609-7.609-7.609" fill="#fdd26a" fill-rule="evenodd"/><path d="M1342.826 652.844h-46.032c-4.203 0-7.609 3.406-7.609 7.609 0 4.203 3.406 7.609 7.609 7.609h46.032c4.203 0 7.609-3.406 7.609-7.609 0-4.202-3.406-7.609-7.609-7.609" fill="#fdd26a" fill-rule="evenodd"/><path d="M1414.493 624.094h-46.032c-4.203 0-7.609 3.406-7.609 7.609 0 4.203 3.406 7.609 7.609 7.609h46.032c4.203 0 7.609-3.406 7.609-7.609 0-4.202-3.406-7.609-7.609-7.609" fill="#fdd26a" fill-rule="evenodd"/><path d="M1102.326 799.51h-59.7c-4.201 0-7.609 3.406-7.609 7.609 0 4.203 3.407 7.609 7.609 7.609h59.7c4.203 0 7.609-3.406 7.609-7.609 0-4.202-3.406-7.609-7.609-7.609" fill="#fdd26a" fill-rule="evenodd"/><path d="M1171.648 770.76h-129.021c-4.201 0-7.609 3.406-7.609 7.609 0 4.203 3.407 7.609 7.609 7.609h129.021c4.203 0 7.609-3.406 7.609-7.609 0-4.202-3.406-7.609-7.609-7.609" fill="#fff" fill-rule="evenodd"/><path d="M1335.614 770.76h-129.021c-4.201 0-7.609 3.406-7.609 7.609 0 4.203 3.407 7.609 7.609 7.609h129.021c4.203 0 7.609-3.406 7.609-7.609 0-4.202-3.406-7.609-7.609-7.609" fill="#fff" fill-rule="evenodd"/><path d="M1263.495 799.51h-129.021c-4.201 0-7.609 3.406-7.609 7.609 0 4.203 3.407 7.609 7.609 7.609h129.021c4.203 0 7.609-3.406 7.609-7.609 0-4.202-3.406-7.609-7.609-7.609" fill="#fff" fill-rule="evenodd"/><path d="M1135.451 828.499h-92.825c-4.201 0-7.609 3.406-7.609 7.609 0 4.203 3.407 7.609 7.609 7.609h92.825c4.203 0 7.609-3.406 7.609-7.609 0-4.202-3.406-7.609-7.609-7.609" fill="#fff" fill-rule="evenodd"/><path d="M1312.201 828.499h-144.574c-4.203 0-7.609 3.406-7.609 7.609 0 4.203 3.406 7.609 7.609 7.609h144.574c4.203 0 7.609-3.406 7.609-7.609 0-4.202-3.406-7.609-7.609-7.609" fill="#fdd26a" fill-rule="evenodd"/><path d="M1342.826 799.51h-46.032c-4.203 0-7.609 3.406-7.609 7.609 0 4.203 3.406 7.609 7.609 7.609h46.032c4.203 0 7.609-3.406 7.609-7.609 0-4.202-3.406-7.609-7.609-7.609" fill="#fdd26a" fill-rule="evenodd"/><path d="M1414.493 770.76h-46.032c-4.203 0-7.609 3.406-7.609 7.609 0 4.203 3.406 7.609 7.609 7.609h46.032c4.203 0 7.609-3.406 7.609-7.609 0-4.202-3.406-7.609-7.609-7.609" fill="#fdd26a" fill-rule="evenodd"/><path d="M1490.326 624.094h-46.032c-4.203 0-7.609 3.406-7.609 7.609 0 4.203 3.406 7.609 7.609 7.609h46.032c4.203 0 7.609-3.406 7.609-7.609 0-4.202-3.406-7.609-7.609-7.609" fill="#fdd26a" fill-rule="evenodd"/><path d="M913.395 515.496h-102.291" stroke="#fff" stroke-width="6.25" stroke-linecap="round" stroke-linejoin="round" stroke-miterlimit="22.926" fill="none"/><path d="M955.895 547.722h-144.791" stroke="#fff" stroke-width="6.25" stroke-linecap="round" stroke-linejoin="round" stroke-miterlimit="22.926" fill="none"/><path d="M921.52 581.888h-110.416" stroke="#fff" stroke-width="6.25" stroke-linecap="round" stroke-linejoin="round" stroke-miterlimit="22.926" fill="none"/><path d="M936.104 614.191h-125" stroke="#fff" stroke-width="6.25" stroke-linecap="round" stroke-linejoin="round" stroke-miterlimit="22.926" fill="none"/><path d="M895.603 648.357h-84.5" stroke="#fff" stroke-width="6.25" stroke-linecap="round" stroke-linejoin="round" stroke-miterlimit="22.926" fill="none"/><path d="M936.104 680.583h-125" stroke="#fff" stroke-width="6.25" stroke-linecap="round" stroke-linejoin="round" stroke-miterlimit="22.926" fill="none"/><path d="M903.604 714.749h-92.5" stroke="#fff" stroke-width="6.25" stroke-linecap="round" stroke-linejoin="round" stroke-miterlimit="22.926" fill="none"/><path d="M407.481 397.455v525.995" stroke="#a6ccd6" stroke-width="6.25" stroke-linecap="round" stroke-linejoin="round" stroke-miterlimit="22.926" stroke-dasharray="14, 10" fill="none"/><path d="M2004.706 389.846v525.995" stroke="#a6ccd6" stroke-width="6.25" stroke-linecap="round" stroke-linejoin="round" stroke-miterlimit="22.926" stroke-dasharray="14, 10" fill="none"/><path d="M1984.706 652.844c0-11.046 8.954-20 20-20s20 8.954 20 20-8.954 20-20 20-20-8.954-20-20" fill="#dbf9ff" fill-rule="evenodd"/><path d="M1984.706 652.844c0-11.046 8.954-20 20-20s20 8.954 20 20-8.954 20-20 20-20-8.954-20-20z" stroke="#a6ccd6" stroke-width="6.25" stroke-linecap="round" stroke-linejoin="round" stroke-miterlimit="10" fill="none"/><path d="M387.481 660.452c0-11.046 8.954-20 20-20s20 8.954 20 20-8.954 20-20 20-20-8.954-20-20" fill="#dbf9ff" fill-rule="evenodd"/><path d="M387.481 660.452c0-11.046 8.954-20 20-20s20 8.954 20 20-8.954 20-20 20-20-8.954-20-20z" stroke="#a6ccd6" stroke-width="6.25" stroke-linecap="round" stroke-linejoin="round" stroke-miterlimit="10" fill="none"/><path d="M2152.813 435.855h-296.214c-13.924 0-25.213-11.289-25.213-25.214v-169.15c0-13.925 11.289-25.214 25.213-25.214h296.214c13.925 0 25.214 11.289 25.214 25.214v169.15c0 13.925-11.289 25.214-25.214 25.214" fill="#dbf9ff" fill-rule="evenodd"/><path d="M2152.813 435.855h-296.214c-13.924 0-25.213-11.289-25.213-25.214v-169.15c0-13.925 11.289-25.214 25.213-25.214h296.214c13.925 0 25.214 11.289 25.214 25.214v169.15c0 13.925-11.289 25.214-25.214 25.214z" stroke="#a6ccd6" stroke-width="6.25" stroke-linecap="round" stroke-linejoin="round" stroke-miterlimit="10" fill="none"/><path d="M1878.635 265.301h75.834" fill="#dbf9ff" fill-rule="evenodd" stroke="#a6ccd6" stroke-width="6.25" stroke-linecap="round" stroke-linejoin="round" stroke-miterlimit="10"/><path d="M1878.635 301.454h108.75" fill="#dbf9ff" fill-rule="evenodd" stroke="#a6ccd6" stroke-width="6.25" stroke-linecap="round" stroke-linejoin="round" stroke-miterlimit="10"/><path d="M2006.501 301.454h37.966" fill="#dbf9ff" fill-rule="evenodd" stroke="#a6ccd6" stroke-width="6.25" stroke-linecap="round" stroke-linejoin="round" stroke-miterlimit="10"/><path d="M2063.168 301.454h37.968" fill="#dbf9ff" fill-rule="evenodd" stroke="#a6ccd6" stroke-width="6.25" stroke-linecap="round" stroke-linejoin="round" stroke-miterlimit="10"/><path d="M1878.635 335.544h64.166" fill="#dbf9ff" fill-rule="evenodd" stroke="#a6ccd6" stroke-width="6.25" stroke-linecap="round" stroke-linejoin="round" stroke-miterlimit="10"/><path d="M1964.26 335.544h64.166" fill="#dbf9ff" fill-rule="evenodd" stroke="#a6ccd6" stroke-width="6.25" stroke-linecap="round" stroke-linejoin="round" stroke-miterlimit="10"/><path d="M510.777 1063.969h-206.593c-13.925 0-25.214-11.289-25.214-25.214v-112.38c0-13.925 11.289-25.214 25.214-25.214h206.593c13.925 0 25.214 11.289 25.214 25.214v112.38c0 13.925-11.289 25.214-25.214 25.214" fill="#dbf9ff" fill-rule="evenodd"/><path d="M510.777 1063.969h-206.593c-13.925 0-25.214-11.289-25.214-25.214v-112.38c0-13.925 11.289-25.214 25.214-25.214h206.593c13.925 0 25.214 11.289 25.214 25.214v112.38c0 13.925-11.289 25.214-25.214 25.214z" stroke="#a6ccd6" stroke-width="6.25" stroke-linecap="round" stroke-linejoin="round" stroke-miterlimit="10" fill="none"/><path d="M492.064 926.423l-72.5 74.684-21.666-22.182-36.667 50.13-20-20.339-18.332 21.589" fill="#dbf9ff" fill-rule="evenodd" stroke="#a6ccd6" stroke-width="6.25" stroke-linecap="round" stroke-linejoin="round" stroke-miterlimit="10"/><path d="M2060.482 1012.99h-110.461c-10.079 0-18.25-8.17-18.25-18.249v-56.593c0-10.079 8.171-18.25 18.25-18.25h110.461c10.079 0 18.249 8.171 18.249 18.25v56.593c0 10.079-8.17 18.249-18.249 18.249" fill="#dbf9ff" fill-rule="evenodd"/><path d="M2060.482 1012.99h-110.461c-10.079 0-18.25-8.17-18.25-18.249v-56.593c0-10.079 8.171-18.25 18.25-18.25h110.461c10.079 0 18.249 8.171 18.249 18.25v56.593c0 10.079-8.17 18.249-18.249 18.249z" stroke="#a6ccd6" stroke-width="6.25" stroke-linecap="round" stroke-linejoin="round" stroke-miterlimit="10" fill="none"/><path d="M2034.554 966.445c0 15.36-12.453 27.813-27.813 27.813s-27.813-12.453-27.813-27.813 12.453-27.813 27.813-27.813 27.813 12.453 27.813 27.813" fill="#dbf9ff" fill-rule="evenodd"/><path d="M2034.554 966.445c0 15.36-12.453 27.813-27.813 27.813s-27.813-12.453-27.813-27.813 12.453-27.813 27.813-27.813 27.813 12.453 27.813 27.813z" stroke="#a6ccd6" stroke-width="6.25" stroke-linecap="round" stroke-linejoin="round" stroke-miterlimit="10" fill="none"/><path d="M1950.251 966.445h110" fill="#dbf9ff" fill-rule="evenodd" stroke="#a6ccd6" stroke-width="6.25" stroke-linecap="round" stroke-linejoin="round" stroke-miterlimit="10"/><path d="M643.633 202.001c0 19.751-16.012 35.764-35.764 35.764-19.751 0-35.764-16.012-35.764-35.764 0-19.751 16.012-35.764 35.764-35.764 19.751 0 35.764 16.012 35.764 35.764" fill="#dbf9ff" fill-rule="evenodd"/><path d="M643.633 202.001c0 19.751-16.012 35.764-35.764 35.764-19.751 0-35.764-16.012-35.764-35.764 0-19.751 16.012-35.764 35.764-35.764 19.751 0 35.764 16.012 35.764 35.764z" stroke="#a6ccd6" stroke-width="6.25" stroke-linecap="round" stroke-linejoin="round" stroke-miterlimit="10" fill="none"/><path d="M482.327 400.913c0 41.336-33.51 74.846-74.846 74.846-41.336 0-74.846-33.51-74.846-74.846 0-41.336 33.51-74.846 74.846-74.846 41.336 0 74.846 33.51 74.846 74.846" fill="#dbf9ff" fill-rule="evenodd"/><path d="M482.327 400.913c0 41.336-33.51 74.846-74.846 74.846-41.336 0-74.846-33.51-74.846-74.846 0-41.336 33.51-74.846 74.846-74.846 41.336 0 74.846 33.51 74.846 74.846z" stroke="#a6ccd6" stroke-width="6.25" stroke-linecap="round" stroke-linejoin="round" stroke-miterlimit="10" fill="none"/><path d="M443.245 400.913c0 19.751-16.012 35.764-35.764 35.764-19.751 0-35.764-16.012-35.764-35.764 0-19.751 16.012-35.764 35.764-35.764 19.751 0 35.764 16.012 35.764 35.764" fill="#dbf9ff" fill-rule="evenodd"/><path d="M443.245 400.913c0 19.751-16.012 35.764-35.764 35.764-19.751 0-35.764-16.012-35.764-35.764 0-19.751 16.012-35.764 35.764-35.764 19.751 0 35.764 16.012 35.764 35.764z" stroke="#a6ccd6" stroke-width="6.25" stroke-linecap="round" stroke-linejoin="round" stroke-miterlimit="10" fill="none"/></g><path d="M1913.92 1143.73l-61.12 61.12-58.054-58.054 61.12-61.12 58.054 58.054z" fill="#e8a541"/><path d="M1913.92 1143.73l-61.12 61.12-58.054-58.054 61.12-61.12 58.054 58.054z" stroke="#465f81" stroke-width="6.25" stroke-linecap="round" stroke-linejoin="round" stroke-miterlimit="22.926" fill="none"/><g clip-path="url(#b)"><path d="M1854.963 1100.739l-45.153 45.153c-11.514 11.514-30.179 11.514-41.691 0l-8.886-8.886c-11.514-11.513-11.514-30.177 0-41.691l45.153-45.153c11.513-11.513 30.179-11.513 41.691 0l8.886 8.886c11.513 11.513 11.513 30.179 0 41.691" fill="#fdd26a"/><path d="M1854.963 1100.739l-45.153 45.153c-11.514 11.514-30.179 11.514-41.691 0l-8.886-8.886c-11.514-11.513-11.514-30.177 0-41.691l45.153-45.153c11.513-11.513 30.179-11.513 41.691 0l8.886 8.886c11.513 11.513 11.513 30.179 0 41.691z" stroke="#465f81" stroke-width="6.25" stroke-linecap="round" stroke-linejoin="round" stroke-miterlimit="10" fill="none"/><path d="M1807.098 598.589c137.916 137.916 137.916 361.521 0 499.438-137.916 137.916-361.521 137.916-499.438 0-137.916-137.916-137.916-361.521 0-499.438 137.916-137.916 361.521-137.916 499.438 0" fill="#fdd26a"/><path d="M1807.098 598.589c137.916 137.916 137.916 361.521 0 499.438-137.916 137.916-361.521 137.916-499.438 0-137.916-137.916-137.916-361.521 0-499.438 137.916-137.916 361.521-137.916 499.438 0z" stroke="#465f81" stroke-width="6.25" stroke-linecap="round" stroke-linejoin="round" stroke-miterlimit="10" fill="none"/><path d="M1769.68 636.007c117.251 117.251 117.251 307.353 0 424.603-117.251 117.251-307.353 117.251-424.603 0-117.251-117.25-117.251-307.351 0-424.603 117.25-117.251 307.351-117.251 424.603 0" fill="#2c4968"/><path d="M1769.68 636.007c117.251 117.251 117.251 307.353 0 424.603-117.251 117.251-307.353 117.251-424.603 0-117.251-117.25-117.251-307.351 0-424.603 117.25-117.251 307.351-117.251 424.603 0z" stroke="#465f81" stroke-width="6.25" stroke-miterlimit="10" fill="none"/><path d="M2319.24 1493.292l-116.877 116.877-356.586-356.585c-15.664-15.664-15.664-41.059 0-56.722l60.155-60.156c15.664-15.662 41.06-15.662 56.722 0l356.586 356.586z" fill="#6394c2"/><path d="M2319.24 1493.292l-116.877 116.877-356.586-356.585c-15.664-15.664-15.664-41.059 0-56.722l60.155-60.156c15.664-15.662 41.06-15.662 56.722 0l356.586 356.586z" stroke="#465f81" stroke-width="6.25" stroke-linecap="round" stroke-linejoin="round" stroke-miterlimit="10" fill="none"/><path d="M1898.424 1260.019l219.259 219.259c5.637 5.639 14.779 5.639 20.416 0 5.637-5.637 5.637-14.777 0-20.415l-164.016-164.016c-5.637-5.637-5.637-14.777 0-20.415l2.591-2.591c5.637-5.637 14.777-5.637 20.415 0l213.899 213.897" fill="#6394c2" stroke="#465f81" stroke-width="6.25" stroke-linecap="round" stroke-linejoin="round" stroke-miterlimit="10"/><path d="M1906.648 1134.218l146.231 146.231" fill="#6394c2" stroke="#465f81" stroke-width="6.25" stroke-linecap="round" stroke-linejoin="round" stroke-miterlimit="10"/><path d="M1886.632 1161.382l65.222 65.222" fill="#6394c2" stroke="#465f81" stroke-width="6.25" stroke-linecap="round" stroke-linejoin="round" stroke-miterlimit="10"/><path d="M1345.077 1060.61c-117.251-117.251-117.251-307.353 0-424.603 117.251-117.251 307.353-117.251 424.603 0" fill="#465f81" stroke="#465f81" stroke-width="6.25" stroke-linecap="round" stroke-linejoin="round" stroke-miterlimit="22.926"/><path d="M1550.37 592.897c144.88 0 262.329 117.449 262.329 262.329" stroke="#fff" stroke-width="6.25" stroke-linecap="round" stroke-linejoin="round" stroke-miterlimit="10" fill="none"/></g><text transform="matrix(1.25 0 0 1.25 1235.919 671.006)" style="-inkscape-font-specification:GothamPro-Bold" font-weight="bold" font-size="36" font-family="Gotham Pro" fill="#fff" clip-path="url(#c)"><tspan x="0 23.256001 47.556 69.984001 92.052002 107.1 128.7 139.5 162.53999 173.34" y="0">$query = &quot;</tspan><tspan x="0 18.072001 40.139999 51.012001 73.080002 93.636002 108.576 119.376 139.392 163.29601 185.724 208.15199 223.092 233.892 249.912 265.392 281.41199 292.21201 305.96399 320.47198 344.37601 378.57599 389.37601 410.68799 433.116 448.056 470.48401 481.284 512.28003 534.70801 556.776 571.284" y="43.2">select count (*) from auth where</tspan><tspan x="0 22.427999 43.740002 77.940002 100.008 110.808 133.84801" y="86.4">name =</tspan><tspan x="144.64799 154.944 165.744 189 211.42799 232.74001 266.94 289.008 299.80801" y="86.4">&apos; $name &apos;</tspan><tspan x="310.104 320.90399 342.216 364.64401 388.944 413.24399 434.556 452.26801 470.34 481.14001 504.17999 514.97998 525.276" y="86.4">andpass = &apos;</tspan><tspan x="536.07599 559.33197 583.63202 604.94397 622.65601 640.18799 670.284 694.18799 708.87598 733.17603 743.47198" y="86.4">$password&apos;</tspan><tspan x="754.27197 772.992 783.79199 794.448 817.70398 832.21198 854.28003 872.35199 894.78003 905.65198 920.59198" y="86.4">&quot; ;$result</tspan><tspan x="0 23.040001 77.040001 110.7 131.58 149.65199 173.952 184.82401 206.424 230.724 253.15199 275.22 290.26801 311.86801 322.668 338.68799 349.48801 372.74399 397.04401 419.47198 441.54001 456.58801 478.18799 488.98801 505.008 515.80798" y="129.6">= mysql_query ( $query ) ;</tspan><tspan x="0 10.872 24.624001 35.424 51.444 63.108002 86.363998 100.872 122.94 141.01199 163.44 174.312 189.252" y="172.8">if (!$result)</tspan><tspan x="0 17.1 39.167999 59.723999 82.152 106.056 116.856 127.152 153.72 175.032 197.46001 219.888 243.79201 258.73199 269.53201 284.57999 307.008 329.436 340.23599 364.53601 386.96399 409.03201 424.07999 442.62 452.91599 463.21201" y="216">{echo &apos;Cannot run query.&apos;;</tspan><tspan x="0 43.200001 64.188004 85.211998 96.084 111.024" y="259.2">exit;</tspan><tspan x="0" y="302.4">}</tspan><tspan x="0 23.256001 43.271999 67.176003 89.603996 112.032 126.972 137.772 160.812 171.612 205.272 226.15199 244.224 268.52399 279.396 300.996 315.504 337.57199 355.64401 378.07199 388.944 403.884 414.68399 430.70401 441.504 464.76001 479.26801 501.336 519.40802 541.836 552.70801 567.64801 577.94397 588.74402 614.30402 624.59998 635.40002 661.67999 672.47998 688.5" y="345.6">$count = mysql_result ( $result, 0, 0 );</tspan><tspan x="0 10.872 24.624001 35.424 51.444 62.243999 85.5 105.5196 129.4236 151.85159 174.2796 189.2196 200.01961 223.0596 233.8596 260.13959 270.93961 286.95959 309.02759 329.58359 352.0116 375.91559 386.71561 405.43561 428.47559 450.90359 461.7756 484.81561 512.1756 534.24359 548.75159 570.81958 581.61963 592.49158 607.43158 618.23163 629.10358 647.1756 657.97559 669.63959 692.67963 711.75958 734.18762 745.05957 768.09961 786.81958 797.61963" y="388.8">if ( $count &gt; 0 )echo &quot;&lt;hl&gt;Here it is !&lt;/hl&gt;&quot; ;</tspan><tspan x="0 43.200001 65.267998 85.823997 108.252 132.15601 142.95599 161.67599 173.772 184.57201 208.87199 230.94 245.88 256.67999 277.20001 301.104 323.53201 334.332 355.64401 370.15201 392.22 403.01999 427.32001 438.19199 459.504 483.80399 494.604 515.12402 539.02802 561.45599 572.25598 592.81201 614.12402 636.552 647.35199 665.42401 687.492 709.56 720.35999 735.29999 757.72803 768.59998 786.672 797.47198 815.54401 837.612 858.16803 872.67603 894.74402 909.68402" y="432">echo &quot;I bet you are glad you can see this secret</tspan><tspan x="0 24.299999 45.612 69.912003 91.620003 101.916 120.636" y="475.2">page.&quot;;</tspan><tspan x="0 15.048 25.92 45.647999 67.716003 92.015999 102.816 117.2124 141.11639 151.9164 173.5164 184.3884 205.5564 236.5524 247.3524 262.29239 284.7204 295.59241 313.6644 324.46439 338.97241 361.04041 379.1124 403.01639 425.4444 439.95239 459.96841 481.67639 491.97241 510.69241" y="518.4">rized to view this resource.&quot;;</tspan><tspan x="0" y="561.6">}</tspan></text><path d="M1769.68 636.007c117.251 117.251 117.251 307.353 0 424.603-117.251 117.251-307.353 117.251-424.603 0-117.251-117.25-117.251-307.351 0-424.603 117.25-117.251 307.351-117.251 424.603 0z" stroke="#465f81" stroke-width="6.25" stroke-miterlimit="10" fill="none" clip-path="url(#d)"/></g></svg>