<svg id="svg2" xmlns="http://www.w3.org/2000/svg" height="1350" viewBox="0 0 2400 1350" width="2400" version="1.1"><defs id="defs6"><clipPath id="clipPath18" clipPathUnits="userSpaceOnUse"><path id="path20" d="m0 1080h1920v-1080h-1920v1080z"/></clipPath><clipPath id="clipPath338" clipPathUnits="userSpaceOnUse"><path id="path340" d="m0 1080h1920v-1080h-1920v1080z"/></clipPath><clipPath id="clipPath398" clipPathUnits="userSpaceOnUse"><path id="path400" d="m1076.1 571.2c-93.801-93.801-93.801-245.88 0-339.68 93.8-93.8 245.88-93.8 339.68 0 93.801 93.801 93.801 245.88 0 339.68-46.9 46.9-108.37 70.35-169.84 70.35-61.471 0-122.94-23.45-169.84-70.35"/></clipPath><clipPath id="clipPath444" clipPathUnits="userSpaceOnUse"><path id="path446" d="m0 1080h1920v-1080h-1920v1080z"/></clipPath></defs><g id="g10" transform="matrix(1.25,0,0,-1.25,0,1350)"><path id="path12" d="m0 0h1920v1080h-1920v-1080z" fill="#dbf9ff"/><g id="g14"><g id="g16" clip-path="url(#clipPath18)"><g id="g22" transform="translate(966.04 -50.878)"><path id="path24" stroke-linejoin="round" d="m0 0-6.087 1171.1" stroke="#a6ccd6" stroke-linecap="round" stroke-miterlimit="22.926" stroke-dasharray="14, 10" stroke-width="5" fill="none"/></g><g id="g26" transform="translate(-63 551.64)"><path id="path28" stroke-linejoin="round" d="m0 0 2052 6.087" stroke="#a6ccd6" stroke-linecap="round" stroke-miterlimit="22.926" stroke-dasharray="14, 10" stroke-width="5" fill="none"/></g><g id="g30" transform="translate(486.3 900)"><path id="path32" stroke-linejoin="round" d="m0 0v-102.44c0-22.109-17.935-40.024-40.044-40l-160.27 0.456" stroke="#a6ccd6" stroke-linecap="round" stroke-miterlimit="22.926" stroke-dasharray="14, 10" stroke-width="5" fill="none"/></g><g id="g34" transform="translate(1282.7 328.25)"><path id="path36" d="m0 0h-641.42c-6.447 0-11.674 5.227-11.674 11.675v419.75c0 6.447 5.227 11.674 11.674 11.674h641.42c6.448 0 11.675-5.227 11.675-11.674v-419.75c0-6.443-5.227-11.67-11.675-11.67" fill-rule="evenodd" fill="#465f81"/></g><g id="g38" transform="translate(1282.7 328.25)"><path id="path40" stroke-linejoin="round" d="m0 0h-641.42c-6.447 0-11.674 5.227-11.674 11.675v419.75c0 6.447 5.227 11.674 11.674 11.674h641.42c6.448 0 11.675-5.227 11.675-11.674v-419.75c0-6.443-5.227-11.67-11.675-11.67z" stroke="#465f81" stroke-linecap="round" stroke-miterlimit="22.926" stroke-width="5" fill="none"/></g><g id="g42" transform="translate(662.22 750.27)"><path id="path44" d="m0 0c0-4.971-4.029-9-9-9s-9 4.029-9 9 4.029 9 9 9 9-4.029 9-9" fill-rule="evenodd" fill="#ed1c24"/></g><g id="g46" transform="translate(692.22 750.27)"><path id="path48" d="m0 0c0-4.971-4.029-9-9-9s-9 4.029-9 9 4.029 9 9 9 9-4.029 9-9" fill-rule="evenodd" fill="#fdd26a"/></g><g id="g50" transform="translate(721.88 750.27)"><path id="path52" d="m0 0c0-4.971-4.029-9-9-9s-9 4.029-9 9 4.029 9 9 9 9-4.029 9-9" fill-rule="evenodd" fill="#79a8dc"/></g><path id="path54" d="m1280.9 342.14h-475.65v336.6h475.65v-336.6z" fill-rule="evenodd" fill="#2c4968"/><path id="path56" d="m1280.9 694.66h-636.65v32.605h636.65v-32.605z" fill-rule="evenodd" fill="#2c4968"/><g id="g58" transform="translate(881.86 557.72)"><path id="path60" d="m0 0h-47.76c-3.361 0-6.087-2.725-6.087-6.087s2.726-6.087 6.087-6.087h47.76c3.362 0 6.087 2.725 6.087 6.087s-2.725 6.087-6.087 6.087" fill-rule="evenodd" fill="#fdd26a"/></g><g id="g62" transform="translate(881.86 652.22)"><path id="path64" d="m0 0h-47.76c-3.361 0-6.087-2.725-6.087-6.087s2.726-6.087 6.087-6.087h47.76c3.362 0 6.087 2.725 6.087 6.087s-2.725 6.087-6.087 6.087" fill-rule="evenodd" fill="#fdd26a"/></g><g id="g66" transform="translate(881.86 487.22)"><path id="path68" d="m0 0h-47.76c-3.361 0-6.087-2.725-6.087-6.087s2.726-6.087 6.087-6.087h47.76c3.362 0 6.087 2.725 6.087 6.087s-2.725 6.087-6.087 6.087" fill-rule="evenodd" fill="#fdd26a"/></g><g id="g70" transform="translate(937.32 580.72)"><path id="path72" d="m0 0h-103.22c-3.361 0-6.087-2.725-6.087-6.087s2.726-6.087 6.087-6.087h103.22c3.362 0 6.087 2.725 6.087 6.087s-2.725 6.087-6.087 6.087" fill-rule="evenodd" fill="#fff"/></g><g id="g74" transform="translate(1068.5 580.72)"><path id="path76" d="m0 0h-103.22c-3.361 0-6.087-2.725-6.087-6.087s2.726-6.087 6.087-6.087h103.22c3.362 0 6.087 2.725 6.087 6.087s-2.725 6.087-6.087 6.087" fill-rule="evenodd" fill="#fff"/></g><g id="g78" transform="translate(1010.8 487.22)"><path id="path80" d="m0 0h-103.22c-3.361 0-6.087-2.725-6.087-6.087s2.726-6.087 6.087-6.087h103.22c3.362 0 6.087 2.725 6.087 6.087s-2.725 6.087-6.087 6.087" fill-rule="evenodd" fill="#fff"/></g><g id="g82" transform="translate(1010.8 557.72)"><path id="path84" d="m0 0h-103.22c-3.361 0-6.087-2.725-6.087-6.087s2.726-6.087 6.087-6.087h103.22c3.362 0 6.087 2.725 6.087 6.087s-2.725 6.087-6.087 6.087" fill-rule="evenodd" fill="#fff"/></g><g id="g86" transform="translate(937.32 510.2)"><path id="path88" d="m0 0h-103.22c-3.361 0-6.087-2.725-6.087-6.087s2.726-6.087 6.087-6.087h103.22c3.362 0 6.087 2.725 6.087 6.087s-2.725 6.087-6.087 6.087" fill-rule="evenodd" fill="#fff"/></g><g id="g90" transform="translate(1100.1 534.53)"><path id="path92" d="m0 0h-103.22c-3.361 0-6.087-2.725-6.087-6.087s2.726-6.087 6.087-6.087h103.22c3.362 0 6.087 2.725 6.087 6.087s-2.725 6.087-6.087 6.087" fill-rule="evenodd" fill="#fff"/></g><g id="g94" transform="translate(908.36 604.22)"><path id="path96" d="m0 0h-74.26c-3.361 0-6.087-2.725-6.087-6.087s2.726-6.087 6.087-6.087h74.26c3.362 0 6.087 2.725 6.087 6.087s-2.725 6.087-6.087 6.087" fill-rule="evenodd" fill="#fff"/></g><g id="g98" transform="translate(1068.2 604.22)"><path id="path100" d="m0 0h-74.26c-3.361 0-6.087-2.725-6.087-6.087s2.726-6.087 6.087-6.087h74.26c3.362 0 6.087 2.725 6.087 6.087s-2.725 6.087-6.087 6.087" fill-rule="evenodd" fill="#fff"/></g><g id="g102" transform="translate(1169 604.22)"><path id="path104" d="m0 0h-74.26c-3.361 0-6.087-2.725-6.087-6.087s2.726-6.087 6.087-6.087h74.26c3.362 0 6.087 2.725 6.087 6.087s-2.725 6.087-6.087 6.087" fill-rule="evenodd" fill="#fff"/></g><g id="g106" transform="translate(1174.8 487.22)"><path id="path108" d="m0 0h-74.26c-3.361 0-6.087-2.725-6.087-6.087s2.726-6.087 6.087-6.087h74.26c3.362 0 6.087 2.725 6.087 6.087s-2.725 6.087-6.087 6.087" fill-rule="evenodd" fill="#fff"/></g><g id="g110" transform="translate(949.96 628.22)"><path id="path112" d="m0 0h-115.86c-3.362 0-6.087-2.725-6.087-6.087s2.725-6.087 6.087-6.087h115.86c3.362 0 6.087 2.725 6.087 6.087s-2.725 6.087-6.087 6.087" fill-rule="evenodd" fill="#fff"/></g><g id="g114" transform="translate(969.93 604.22)"><path id="path116" d="m0 0h-36.826c-3.362 0-6.087-2.725-6.087-6.087s2.725-6.087 6.087-6.087h36.826c3.362 0 6.087 2.725 6.087 6.087s-2.725 6.087-6.087 6.087" fill-rule="evenodd" fill="#fdd26a"/></g><g id="g118" transform="translate(1074.3 487.22)"><path id="path120" d="m0 0h-36.826c-3.362 0-6.087-2.725-6.087-6.087s2.725-6.087 6.087-6.087h36.826c3.362 0 6.087 2.725 6.087 6.087s-2.725 6.087-6.087 6.087" fill-rule="evenodd" fill="#fdd26a"/></g><g id="g122" transform="translate(908.36 534.53)"><path id="path124" d="m0 0h-74.26c-3.361 0-6.087-2.725-6.087-6.087s2.726-6.087 6.087-6.087h74.26c3.362 0 6.087 2.725 6.087 6.087s-2.725 6.087-6.087 6.087" fill-rule="evenodd" fill="#fff"/></g><g id="g126" transform="translate(970.93 534.53)"><path id="path128" d="m0 0h-36.826c-3.362 0-6.087-2.725-6.087-6.087s2.725-6.087 6.087-6.087h36.826c3.362 0 6.087 2.725 6.087 6.087s-2.725 6.087-6.087 6.087" fill-rule="evenodd" fill="#fdd26a"/></g><g id="g130" transform="translate(1100.1 392.27)"><path id="path132" d="m0 0h-103.22c-3.361 0-6.087-2.725-6.087-6.087s2.726-6.087 6.087-6.087h103.22c3.362 0 6.087 2.725 6.087 6.087s-2.725 6.087-6.087 6.087" fill-rule="evenodd" fill="#fff"/></g><g id="g134" transform="translate(908.36 392.27)"><path id="path136" d="m0 0h-74.26c-3.361 0-6.087-2.725-6.087-6.087s2.726-6.087 6.087-6.087h74.26c3.362 0 6.087 2.725 6.087 6.087s-2.725 6.087-6.087 6.087" fill-rule="evenodd" fill="#fff"/></g><g id="g138" transform="translate(970.93 392.27)"><path id="path140" d="m0 0h-36.826c-3.362 0-6.087-2.725-6.087-6.087s2.725-6.087 6.087-6.087h36.826c3.362 0 6.087 2.725 6.087 6.087s-2.725 6.087-6.087 6.087" fill-rule="evenodd" fill="#fdd26a"/></g><g id="g142" transform="translate(1074.3 557.72)"><path id="path144" d="m0 0h-36.826c-3.362 0-6.087-2.725-6.087-6.087s2.725-6.087 6.087-6.087h36.826c3.362 0 6.087 2.725 6.087 6.087s-2.725 6.087-6.087 6.087" fill-rule="evenodd" fill="#fdd26a"/></g><g id="g146" transform="translate(1131.6 580.72)"><path id="path148" d="m0 0h-36.826c-3.362 0-6.087-2.725-6.087-6.087s2.725-6.087 6.087-6.087h36.826c3.362 0 6.087 2.725 6.087 6.087s-2.725 6.087-6.087 6.087" fill-rule="evenodd" fill="#fdd26a"/></g><g id="g150" transform="translate(881.86 440.39)"><path id="path152" d="m0 0h-47.76c-3.361 0-6.087-2.725-6.087-6.087s2.726-6.087 6.087-6.087h47.76c3.362 0 6.087 2.725 6.087 6.087s-2.725 6.087-6.087 6.087" fill-rule="evenodd" fill="#fdd26a"/></g><g id="g154" transform="translate(937.32 463.39)"><path id="path156" d="m0 0h-103.22c-3.361 0-6.087-2.725-6.087-6.087s2.726-6.087 6.087-6.087h103.22c3.362 0 6.087 2.725 6.087 6.087s-2.725 6.087-6.087 6.087" fill-rule="evenodd" fill="#fff"/></g><g id="g158" transform="translate(1068.5 463.39)"><path id="path160" d="m0 0h-103.22c-3.361 0-6.087-2.725-6.087-6.087s2.726-6.087 6.087-6.087h103.22c3.362 0 6.087 2.725 6.087 6.087s-2.725 6.087-6.087 6.087" fill-rule="evenodd" fill="#fff"/></g><g id="g162" transform="translate(1010.8 440.39)"><path id="path164" d="m0 0h-103.22c-3.361 0-6.087-2.725-6.087-6.087s2.726-6.087 6.087-6.087h103.22c3.362 0 6.087 2.725 6.087 6.087s-2.725 6.087-6.087 6.087" fill-rule="evenodd" fill="#fff"/></g><g id="g166" transform="translate(908.36 417.2)"><path id="path168" d="m0 0h-74.26c-3.361 0-6.087-2.725-6.087-6.087s2.726-6.087 6.087-6.087h74.26c3.362 0 6.087 2.725 6.087 6.087s-2.725 6.087-6.087 6.087" fill-rule="evenodd" fill="#fff"/></g><g id="g170" transform="translate(1049.8 417.2)"><path id="path172" d="m0 0h-115.66c-3.362 0-6.087-2.725-6.087-6.087s2.725-6.087 6.087-6.087h115.66c3.362 0 6.087 2.725 6.087 6.087s-2.725 6.087-6.087 6.087" fill-rule="evenodd" fill="#fdd26a"/></g><g id="g174" transform="translate(1074.3 440.39)"><path id="path176" d="m0 0h-36.826c-3.362 0-6.087-2.725-6.087-6.087s2.725-6.087 6.087-6.087h36.826c3.362 0 6.087 2.725 6.087 6.087s-2.725 6.087-6.087 6.087" fill-rule="evenodd" fill="#fdd26a"/></g><g id="g178" transform="translate(1131.6 463.39)"><path id="path180" d="m0 0h-36.826c-3.362 0-6.087-2.725-6.087-6.087s2.725-6.087 6.087-6.087h36.826c3.362 0 6.087 2.725 6.087 6.087s-2.725 6.087-6.087 6.087" fill-rule="evenodd" fill="#fdd26a"/></g><g id="g182" transform="translate(1192.3 580.72)"><path id="path184" d="m0 0h-36.826c-3.362 0-6.087-2.725-6.087-6.087s2.725-6.087 6.087-6.087h36.826c3.362 0 6.087 2.725 6.087 6.087s-2.725 6.087-6.087 6.087" fill-rule="evenodd" fill="#fdd26a"/></g><g id="g186" transform="translate(730.72 667.6)"><path id="path188" stroke-linejoin="round" d="m0 0h-81.833" stroke="#fff" stroke-linecap="round" stroke-miterlimit="22.926" stroke-width="5" fill="none"/></g><g id="g190" transform="translate(764.72 641.82)"><path id="path192" stroke-linejoin="round" d="m0 0h-115.83" stroke="#fff" stroke-linecap="round" stroke-miterlimit="22.926" stroke-width="5" fill="none"/></g><g id="g194" transform="translate(737.22 614.49)"><path id="path196" stroke-linejoin="round" d="m0 0h-88.333" stroke="#fff" stroke-linecap="round" stroke-miterlimit="22.926" stroke-width="5" fill="none"/></g><g id="g198" transform="translate(748.88 588.65)"><path id="path200" stroke-linejoin="round" d="m0 0h-100" stroke="#fff" stroke-linecap="round" stroke-miterlimit="22.926" stroke-width="5" fill="none"/></g><g id="g202" transform="translate(716.48 561.31)"><path id="path204" stroke-linejoin="round" d="m0 0h-67.6" stroke="#fff" stroke-linecap="round" stroke-miterlimit="22.926" stroke-width="5" fill="none"/></g><g id="g206" transform="translate(748.88 535.53)"><path id="path208" stroke-linejoin="round" d="m0 0h-100" stroke="#fff" stroke-linecap="round" stroke-miterlimit="22.926" stroke-width="5" fill="none"/></g><g id="g210" transform="translate(722.88 508.2)"><path id="path212" stroke-linejoin="round" d="m0 0h-74" stroke="#fff" stroke-linecap="round" stroke-miterlimit="22.926" stroke-width="5" fill="none"/></g><g id="g214" transform="translate(325.98 762.04)"><path id="path216" stroke-linejoin="round" d="m0 0v-420.8" stroke="#a6ccd6" stroke-linecap="round" stroke-miterlimit="22.926" stroke-dasharray="14, 10" stroke-width="5" fill="none"/></g><g id="g218" transform="translate(1603.8 768.12)"><path id="path220" stroke-linejoin="round" d="m0 0v-420.8" stroke="#a6ccd6" stroke-linecap="round" stroke-miterlimit="22.926" stroke-dasharray="14, 10" stroke-width="5" fill="none"/></g><g id="g222" transform="translate(1587.8 557.72)"><path id="path224" d="m0 0c0 8.837 7.163 16 16 16s16-7.163 16-16-7.163-16-16-16-16 7.163-16 16" fill-rule="evenodd" fill="#dbf9ff"/></g><g id="g226" transform="translate(1587.8 557.72)"><path id="path228" stroke-linejoin="round" d="m0 0c0 8.837 7.163 16 16 16s16-7.163 16-16-7.163-16-16-16-16 7.163-16 16z" stroke="#a6ccd6" stroke-linecap="round" stroke-miterlimit="10" stroke-width="5" fill="none"/></g><g id="g230" transform="translate(309.98 551.64)"><path id="path232" d="m0 0c0 8.837 7.163 16 16 16s16-7.163 16-16-7.163-16-16-16-16 7.163-16 16" fill-rule="evenodd" fill="#dbf9ff"/></g><g id="g234" transform="translate(309.98 551.64)"><path id="path236" stroke-linejoin="round" d="m0 0c0 8.837 7.163 16 16 16s16-7.163 16-16-7.163-16-16-16-16 7.163-16 16z" stroke="#a6ccd6" stroke-linecap="round" stroke-miterlimit="10" stroke-width="5" fill="none"/></g><g id="g238" transform="translate(1722.3 731.32)"><path id="path240" d="m0 0h-236.97c-11.139 0-20.17 9.031-20.17 20.171v135.32c0 11.14 9.031 20.171 20.17 20.171h236.97c11.14 0 20.171-9.031 20.171-20.171v-135.32c0-11.139-9.031-20.17-20.171-20.17" fill-rule="evenodd" fill="#dbf9ff"/></g><g id="g242" transform="translate(1722.3 731.32)"><path id="path244" stroke-linejoin="round" d="m0 0h-236.97c-11.139 0-20.17 9.031-20.17 20.171v135.32c0 11.14 9.031 20.171 20.17 20.171h236.97c11.14 0 20.171-9.031 20.171-20.171v-135.32c0-11.139-9.031-20.17-20.171-20.17z" stroke="#a6ccd6" stroke-linecap="round" stroke-miterlimit="10" stroke-width="5" fill="none"/></g><g id="g246" transform="translate(1502.9 867.76)"><path id="path248" stroke-linejoin="round" d="m0 0h60.667" fill-rule="evenodd" stroke="#a6ccd6" stroke-linecap="round" stroke-miterlimit="10" stroke-width="5" fill="#dbf9ff"/></g><g id="g250" transform="translate(1502.9 838.84)"><path id="path252" stroke-linejoin="round" d="m0 0h87" fill-rule="evenodd" stroke="#a6ccd6" stroke-linecap="round" stroke-miterlimit="10" stroke-width="5" fill="#dbf9ff"/></g><g id="g254" transform="translate(1605.2 838.84)"><path id="path256" stroke-linejoin="round" d="m0 0h30.373" fill-rule="evenodd" stroke="#a6ccd6" stroke-linecap="round" stroke-miterlimit="10" stroke-width="5" fill="#dbf9ff"/></g><g id="g258" transform="translate(1650.5 838.84)"><path id="path260" stroke-linejoin="round" d="m0 0h30.374" fill-rule="evenodd" stroke="#a6ccd6" stroke-linecap="round" stroke-miterlimit="10" stroke-width="5" fill="#dbf9ff"/></g><g id="g262" transform="translate(1502.9 811.56)"><path id="path264" stroke-linejoin="round" d="m0 0h51.333" fill-rule="evenodd" stroke="#a6ccd6" stroke-linecap="round" stroke-miterlimit="10" stroke-width="5" fill="#dbf9ff"/></g><g id="g266" transform="translate(1571.4 811.56)"><path id="path268" stroke-linejoin="round" d="m0 0h51.333" fill-rule="evenodd" stroke="#a6ccd6" stroke-linecap="round" stroke-miterlimit="10" stroke-width="5" fill="#dbf9ff"/></g><g id="g270" transform="translate(408.62 228.83)"><path id="path272" d="m0 0h-165.27c-11.14 0-20.171 9.031-20.171 20.171v89.904c0 11.14 9.031 20.171 20.171 20.171h165.27c11.14 0 20.171-9.031 20.171-20.171v-89.904c0-11.145-9.031-20.176-20.171-20.176" fill-rule="evenodd" fill="#dbf9ff"/></g><g id="g274" transform="translate(408.62 228.83)"><path id="path276" stroke-linejoin="round" d="m0 0h-165.27c-11.14 0-20.171 9.031-20.171 20.171v89.904c0 11.14 9.031 20.171 20.171 20.171h165.27c11.14 0 20.171-9.031 20.171-20.171v-89.904c0-11.145-9.031-20.176-20.171-20.176z" stroke="#a6ccd6" stroke-linecap="round" stroke-miterlimit="10" stroke-width="5" fill="none"/></g><g id="g278" transform="translate(393.65 338.86)"><path id="path280" stroke-linejoin="round" d="m0 0-58-59.747-17.333 17.746-29.334-40.104-16 16.271-14.666-17.271" fill-rule="evenodd" stroke="#a6ccd6" stroke-linecap="round" stroke-miterlimit="10" stroke-width="5" fill="#dbf9ff"/></g><g id="g282" transform="translate(1648.4 269.61)"><path id="path284" d="m0 0h-88.369c-8.063 0-14.6 6.536-14.6 14.599v45.274c0 8.063 6.537 14.6 14.6 14.6h88.369c8.063 0 14.599-6.537 14.599-14.6v-45.274c0.001-8.063-6.535-14.599-14.598-14.599" fill-rule="evenodd" fill="#dbf9ff"/></g><g id="g286" transform="translate(1648.4 269.61)"><path id="path288" stroke-linejoin="round" d="m0 0h-88.369c-8.063 0-14.6 6.536-14.6 14.599v45.274c0 8.063 6.537 14.6 14.6 14.6h88.369c8.063 0 14.599-6.537 14.599-14.6v-45.274c0.001-8.063-6.535-14.599-14.598-14.599z" stroke="#a6ccd6" stroke-linecap="round" stroke-miterlimit="10" stroke-width="5" fill="none"/></g><g id="g290" transform="translate(1627.6 306.84)"><path id="path292" d="m0 0c0-12.288-9.962-22.25-22.25-22.25s-22.25 9.962-22.25 22.25 9.962 22.25 22.25 22.25 22.25-9.962 22.25-22.25" fill-rule="evenodd" fill="#dbf9ff"/></g><g id="g294" transform="translate(1627.6 306.84)"><path id="path296" stroke-linejoin="round" d="m0 0c0-12.288-9.962-22.25-22.25-22.25s-22.25 9.962-22.25 22.25 9.962 22.25 22.25 22.25 22.25-9.962 22.25-22.25z" stroke="#a6ccd6" stroke-linecap="round" stroke-miterlimit="10" stroke-width="5" fill="none"/></g><g id="g298" transform="translate(1560.2 306.84)"><path id="path300" stroke-linejoin="round" d="m0 0h88" fill-rule="evenodd" stroke="#a6ccd6" stroke-linecap="round" stroke-miterlimit="10" stroke-width="5" fill="#dbf9ff"/></g><g id="g302" transform="translate(514.91 918.4)"><path id="path304" d="m0 0c0-15.801-12.81-28.611-28.611-28.611s-28.611 12.81-28.611 28.611 12.81 28.611 28.611 28.611 28.611-12.81 28.611-28.611" fill-rule="evenodd" fill="#dbf9ff"/></g><g id="g306" transform="translate(514.91 918.4)"><path id="path308" stroke-linejoin="round" d="m0 0c0-15.801-12.81-28.611-28.611-28.611s-28.611 12.81-28.611 28.611 12.81 28.611 28.611 28.611 28.611-12.81 28.611-28.611z" stroke="#a6ccd6" stroke-linecap="round" stroke-miterlimit="10" stroke-width="5" fill="none"/></g><g id="g310" transform="translate(385.86 759.27)"><path id="path312" d="m0 0c0-33.069-26.808-59.877-59.877-59.877s-59.877 26.808-59.877 59.877 26.808 59.877 59.877 59.877c33.065 0 59.873-26.808 59.873-59.877" fill-rule="evenodd" fill="#dbf9ff"/></g><g id="g314" transform="translate(385.86 759.27)"><path id="path316" stroke-linejoin="round" d="m0 0c0-33.069-26.808-59.877-59.877-59.877s-59.877 26.808-59.877 59.877 26.808 59.877 59.877 59.877c33.065 0 59.873-26.808 59.873-59.877z" stroke="#a6ccd6" stroke-linecap="round" stroke-miterlimit="10" stroke-width="5" fill="none"/></g><g id="g318" transform="translate(354.6 759.27)"><path id="path320" d="m0 0c0-15.801-12.81-28.611-28.611-28.611s-28.611 12.81-28.611 28.611 12.81 28.611 28.611 28.611 28.611-12.81 28.611-28.611" fill-rule="evenodd" fill="#dbf9ff"/></g><g id="g322" transform="translate(354.6 759.27)"><path id="path324" stroke-linejoin="round" d="m0 0c0-15.801-12.81-28.611-28.611-28.611s-28.611 12.81-28.611 28.611 12.81 28.611 28.611 28.611 28.611-12.81 28.611-28.611z" stroke="#a6ccd6" stroke-linecap="round" stroke-miterlimit="10" stroke-width="5" fill="none"/></g></g></g><g id="g326" transform="translate(1531.1 165.02)"><path id="path328" d="m0 0-48.896-48.896-46.443 46.443 48.896 48.896 46.443-46.443z" fill="#e8a541"/></g><g id="g330" transform="translate(1531.1 165.02)"><path id="path332" stroke-linejoin="round" d="m0 0-48.896-48.896-46.443 46.443 48.896 48.896 46.443-46.443z" stroke="#465f81" stroke-linecap="round" stroke-miterlimit="22.926" stroke-width="5" fill="none"/></g><g id="g334"><g id="g336" clip-path="url(#clipPath338)"><g id="g342" transform="translate(1484 199.41)"><path id="path344" d="m0 0-36.122-36.122c-9.211-9.211-24.143-9.211-33.353 0l-7.109 7.109c-9.211 9.21-9.211 24.142 0 33.353l36.122 36.122c9.21 9.21 24.143 9.21 33.353 0l7.109-7.109c9.21-9.21 9.21-24.143 0-33.353" fill="#fdd26a"/></g><g id="g346" transform="translate(1484 199.41)"><path id="path348" stroke-linejoin="round" d="m0 0-36.122-36.122c-9.211-9.211-24.143-9.211-33.353 0l-7.109 7.109c-9.211 9.21-9.211 24.142 0 33.353l36.122 36.122c9.21 9.21 24.143 9.21 33.353 0l7.109-7.109c9.21-9.21 9.21-24.143 0-33.353z" stroke="#465f81" stroke-linecap="round" stroke-miterlimit="10" stroke-width="5" fill="none"/></g><g id="g350" transform="translate(1445.7 601.13)"><path id="path352" d="m0 0c110.33-110.33 110.33-289.22 0-399.55s-289.22-110.33-399.55 0-110.33 289.22 0 399.55 289.22 110.33 399.55 0" fill="#fdd26a"/></g><g id="g354" transform="translate(1445.7 601.13)"><path id="path356" stroke-linejoin="round" d="m0 0c110.33-110.33 110.33-289.22 0-399.55s-289.22-110.33-399.55 0-110.33 289.22 0 399.55 289.22 110.33 399.55 0z" stroke="#465f81" stroke-linecap="round" stroke-miterlimit="10" stroke-width="5" fill="none"/></g><g id="g358" transform="translate(1415.7 571.19)"><path id="path360" d="m0 0c93.801-93.801 93.801-245.88 0-339.68-93.801-93.801-245.88-93.801-339.68 0-93.801 93.8-93.801 245.88 0 339.68 93.8 93.801 245.88 93.801 339.68 0" fill="#2c4968"/></g><g id="g362" transform="translate(1415.7 571.19)"><path id="path364" d="m0 0c93.801-93.801 93.801-245.88 0-339.68-93.801-93.801-245.88-93.801-339.68 0-93.801 93.8-93.801 245.88 0 339.68 93.8 93.801 245.88 93.801 339.68 0z" stroke="#465f81" stroke-miterlimit="10" stroke-width="5" fill="none"/></g><g id="g366" transform="translate(1855.4 -114.63)"><path id="path368" d="m0 0-93.502-93.502-285.27 285.27c-12.531 12.531-12.531 32.847 0 45.378l48.124 48.125c12.531 12.53 32.848 12.53 45.378 0l285.27-285.28z" fill="#6394c2"/></g><g id="g370" transform="translate(1855.4 -114.63)"><path id="path372" stroke-linejoin="round" d="m0 0-93.502-93.502-285.27 285.27c-12.531 12.531-12.531 32.847 0 45.378l48.124 48.125c12.531 12.53 32.848 12.53 45.378 0l285.27-285.28z" stroke="#465f81" stroke-linecap="round" stroke-miterlimit="10" stroke-width="5" fill="none"/></g><g id="g374" transform="translate(1518.7 71.985)"><path id="path376" stroke-linejoin="round" d="m0 0 175.41-175.41c4.51-4.511 11.823-4.511 16.333 0v0c4.51 4.51 4.51 11.822 0 16.332l-131.21 131.22c-4.51 4.51-4.51 11.822 0 16.332l2.073 2.073c4.51 4.51 11.822 4.51 16.332 0l171.12-171.12" stroke="#465f81" stroke-linecap="round" stroke-miterlimit="10" stroke-width="5" fill="#6394c2"/></g><g id="g378" transform="translate(1525.3 172.63)"><path id="path380" stroke-linejoin="round" d="m0 0 116.98-116.98" stroke="#465f81" stroke-linecap="round" stroke-miterlimit="10" stroke-width="5" fill="#6394c2"/></g><g id="g382" transform="translate(1509.3 150.89)"><path id="path384" stroke-linejoin="round" d="m0 0 52.178-52.178" stroke="#465f81" stroke-linecap="round" stroke-miterlimit="10" stroke-width="5" fill="#6394c2"/></g><g id="g386" transform="translate(1076.1 231.51)"><path id="path388" stroke-linejoin="round" d="m0 0c-93.801 93.801-93.801 245.88 0 339.68 93.801 93.801 245.88 93.801 339.68 0" stroke="#465f81" stroke-linecap="round" stroke-miterlimit="22.926" stroke-width="5" fill="#465f81"/></g><g id="g390" transform="translate(1240.3 605.68)"><path id="path392" stroke-linejoin="round" d="m0 0c115.9 0 209.86-93.959 209.86-209.86" stroke="#fff" stroke-linecap="round" stroke-miterlimit="10" stroke-width="5" fill="none"/></g></g></g><g id="g394"><g id="g396" clip-path="url(#clipPath398)"><text id="text402" font-weight="bold" transform="matrix(1 0 0 -1 988.74 543.2)" font-size="36px" font-family="&apos;Gotham Pro&apos;" fill="#ffffff"><tspan id="tspan404" y="0" x="0 23.256001 47.556 69.984001 92.052002 107.1 128.7 139.5 162.53999 173.34">$query = &quot;</tspan><tspan id="tspan406" y="43.200001" x="0 18.072001 40.139999 51.012001 73.080002 93.636002 108.576 119.376 139.392 163.29601 185.724 208.15199 223.092 233.892 249.912 265.392 281.41199 292.21201 305.96399 320.47198 344.37601 378.57599 389.37601 410.68799 433.116 448.056 470.48401 481.284 512.28003 534.70801 556.776 571.284">select count (*) from auth where</tspan><tspan id="tspan408" y="86.400002" x="0 22.427999 43.740002 77.940002 100.008 110.808 133.84801">name = </tspan><tspan id="tspan410" y="86.400002" x="144.64799 154.944 165.744 189 211.42799 232.74001 266.94 289.008 299.80801">&apos; $name &apos;</tspan><tspan id="tspan412" y="86.400002" x="310.104 320.90399 342.216 364.64401 388.944 413.24399 434.556 452.26801 470.34 481.14001 504.17999 514.97998 525.276"> andpass = &apos; </tspan><tspan id="tspan414" y="86.400002" x="536.07599 559.33197 583.63202 604.94397 622.65601 640.18799 670.284 694.18799 708.87598 733.17603 743.47198">$password&apos; </tspan><tspan id="tspan416" y="86.400002" x="754.27197 772.992 783.79199 794.448 817.70398 832.21198 854.28003 872.35199 894.78003 905.65198 920.59198">&quot; ;$result </tspan><tspan id="tspan418" y="129.60001" x="0 23.040001 77.040001 110.7 131.58 149.65199 173.952 184.82401 206.424 230.724 253.15199 275.22 290.26801 311.86801 322.668 338.68799 349.48801 372.74399 397.04401 419.47198 441.54001 456.58801 478.18799 488.98801 505.008 515.80798">= mysql_query ( $query ) ;</tspan><tspan id="tspan420" y="172.8" x="0 10.872 24.624001 35.424 51.444 63.108002 86.363998 100.872 122.94 141.01199 163.44 174.312 189.252">if (!$result)</tspan><tspan id="tspan422" y="216" x="0 17.1 39.167999 59.723999 82.152 106.056 116.856 127.152 153.72 175.032 197.46001 219.888 243.79201 258.73199 269.53201 284.57999 307.008 329.436 340.23599 364.53601 386.96399 409.03201 424.07999 442.62 452.91599 463.21201">{echo &apos;Cannot run query.&apos;;</tspan><tspan id="tspan424" y="259.20001" x="0 43.200001 64.188004 85.211998 96.084 111.024"> exit;</tspan><tspan id="tspan426" y="302.39999" x="0">}</tspan><tspan id="tspan428" y="345.60001" x="0 23.256001 43.271999 67.176003 89.603996 112.032 126.972 137.772 160.812 171.612 205.272 226.15199 244.224 268.52399 279.396 300.996 315.504 337.57199 355.64401 378.07199 388.944 403.884 414.68399 430.70401 441.504 464.76001 479.26801 501.336 519.40802 541.836 552.70801 567.64801 577.94397 588.74402 614.30402 624.59998 635.40002 661.67999 672.47998 688.5">$count = mysql_result ( $result, 0, 0 );</tspan><tspan id="tspan430" y="388.79999" x="0 10.872 24.624001 35.424 51.444 62.243999 85.5 105.5196 129.4236 151.85159 174.2796 189.2196 200.01961 223.0596 233.8596 260.13959 270.93961 286.95959 309.02759 329.58359 352.0116 375.91559 386.71561 405.43561 428.47559 450.90359 461.7756 484.81561 512.1756 534.24359 548.75159 570.81958 581.61963 592.49158 607.43158 618.23163 629.10358 647.1756 657.97559 669.63959 692.67963 711.75958 734.18762 745.05957 768.09961 786.81958 797.61963">if ( $count &gt; 0 )echo &quot;&lt;hl&gt;Here it is !&lt;/hl&gt;&quot; ;</tspan><tspan id="tspan432" y="432" x="0 43.200001 65.267998 85.823997 108.252 132.15601 142.95599 161.67599 173.772 184.57201 208.87199 230.94 245.88 256.67999 277.20001 301.104 323.53201 334.332 355.64401 370.15201 392.22 403.01999 427.32001 438.19199 459.504 483.80399 494.604 515.12402 539.02802 561.45599 572.25598 592.81201 614.12402 636.552 647.35199 665.42401 687.492 709.56 720.35999 735.29999 757.72803 768.59998 786.672 797.47198 815.54401 837.612 858.16803 872.67603 894.74402 909.68402"> echo &quot;I bet you are glad you can see this secret </tspan><tspan id="tspan434" y="475.20001" x="0 24.299999 45.612 69.912003 91.620003 101.916 120.636">page.&quot;;</tspan><tspan id="tspan436" y="518.40002" x="0 15.048 25.92 45.647999 67.716003 92.015999 102.816 117.2124 141.11639 151.9164 173.5164 184.3884 205.5564 236.5524 247.3524 262.29239 284.7204 295.59241 313.6644 324.46439 338.97241 361.04041 379.1124 403.01639 425.4444 439.95239 459.96841 481.67639 491.97241 510.69241">rized to view this resource.&quot;;</tspan><tspan id="tspan438" y="561.59998" x="0">}</tspan></text>
</g></g><g id="g440"><g id="g442" clip-path="url(#clipPath444)"><g id="g448" transform="translate(1415.7 571.19)"><path id="path450" d="m0 0c93.801-93.801 93.801-245.88 0-339.68-93.801-93.801-245.88-93.801-339.68 0-93.801 93.8-93.801 245.88 0 339.68 93.8 93.801 245.88 93.801 339.68 0z" stroke="#465f81" stroke-miterlimit="10" stroke-width="5" fill="none"/></g></g></g></g></svg>
