<?xml version="1.0" encoding="utf-8"?>
<!-- Generator: Adobe Illustrator 16.0.0, SVG Export Plug-In . SVG Version: 6.00 Build 0)  -->
<!DOCTYPE svg PUBLIC "-//W3C//DTD SVG 1.1//EN" "http://www.w3.org/Graphics/SVG/1.1/DTD/svg11.dtd">
<svg version="1.1" id="Layer_1" xmlns="http://www.w3.org/2000/svg" xmlns:xlink="http://www.w3.org/1999/xlink" x="0px" y="0px"
	 width="88px" height="88px" viewBox="0 0 88 88" enable-background="new 0 0 88 88" xml:space="preserve">
<g>
	
		<path fill="#DBF9FF" stroke="#536B8B" stroke-width="2.126" stroke-linecap="round" stroke-linejoin="round" stroke-miterlimit="22.9256" d="
		M44,0.782L44,0.782C67.77,0.782,87.219,20.23,87.219,44l0,0c0,23.77-19.449,43.219-43.219,43.219l0,0
		C20.23,87.219,0.782,67.77,0.782,44l0,0C0.782,20.229,20.23,0.782,44,0.782z"/>
	
		<rect x="38.775" y="25.151" fill="#FFFFFF" stroke="#536B8B" stroke-width="2.126" stroke-linecap="round" stroke-linejoin="round" stroke-miterlimit="22.9256" width="27.637" height="39.478"/>
	
		<rect x="34.81" y="20.909" fill="#FFFFFF" stroke="#536B8B" stroke-width="2.126" stroke-linecap="round" stroke-linejoin="round" stroke-miterlimit="22.9256" width="27.637" height="39.478"/>
	
		<line fill="none" stroke="#536B8B" stroke-width="2.126" stroke-linecap="square" stroke-linejoin="round" stroke-miterlimit="22.9256" x1="39.861" y1="24.956" x2="57.188" y2="24.956"/>
	
		<path fill="none" stroke="#A2BAF0" stroke-width="2.126" stroke-linecap="square" stroke-linejoin="round" stroke-miterlimit="22.9256" d="
		M39.861,52.879h14.663 M39.861,33.935h13.542 M39.861,30.146h14.663 M39.861,37.724h14.663 M39.861,41.512h17.272 M39.861,45.301
		h14.663 M39.861,49.09h18.329"/>
	
		<rect x="22.443" y="28.532" fill="#FDD26A" stroke="#536B8B" stroke-width="2.126" stroke-linecap="round" stroke-linejoin="round" stroke-miterlimit="22.9256" width="27.637" height="39.478"/>
	<polygon fill="#536B8B" points="30.124,32.69 31.691,33.595 33.258,34.5 31.522,35.502 30.823,35.098 30.124,34.694 29.424,35.098 
		28.724,35.502 28.724,36.31 28.724,37.118 29.424,37.521 30.124,37.925 30.823,37.521 31.522,37.118 33.258,38.12 31.691,39.024 
		30.124,39.929 28.556,39.024 26.989,38.12 26.989,36.31 26.989,34.5 28.556,33.595 	"/>
	
		<polyline fill="none" stroke="#536B8B" stroke-width="2.126" stroke-linecap="round" stroke-linejoin="round" stroke-miterlimit="22.9256" points="
		50.08,41.868 45.578,43.333 45.578,53.209 50.08,54.676 	"/>
	
		<line fill="none" stroke="#536B8B" stroke-width="2.126" stroke-linecap="square" stroke-miterlimit="22.9256" x1="35.709" y1="36.31" x2="41.217" y2="36.31"/>
	
		<line fill="none" stroke="#EF6E65" stroke-width="2.126" stroke-linecap="round" stroke-linejoin="round" stroke-miterlimit="22.9256" x1="28.034" y1="46.225" x2="39.654" y2="46.225"/>
	
		<line fill="none" stroke="#536B8B" stroke-width="2.126" stroke-linecap="square" stroke-miterlimit="22.9256" x1="28.034" y1="50.996" x2="31.873" y2="50.996"/>
	
		<polygon fill="#E8A541" stroke="#536B8B" stroke-width="2.126" stroke-linecap="round" stroke-linejoin="round" stroke-miterlimit="22.9256" points="
		22.443,28.532 34.81,23.296 34.81,28.532 	"/>
</g>
</svg>
