<?xml version="1.0" encoding="utf-8"?>
<!-- Generator: Adobe Illustrator 16.0.0, SVG Export Plug-In . SVG Version: 6.00 Build 0)  -->
<!DOCTYPE svg PUBLIC "-//W3C//DTD SVG 1.1//EN" "http://www.w3.org/Graphics/SVG/1.1/DTD/svg11.dtd">
<svg version="1.1" id="Layer_1" xmlns="http://www.w3.org/2000/svg" xmlns:xlink="http://www.w3.org/1999/xlink" x="0px" y="0px"
	 width="646px" height="413px" viewBox="0 0 646 413" enable-background="new 0 0 646 413" xml:space="preserve">
<g>
	<g>
		<g>
			<path fill="#DBDFEA" d="M433.324,204.414l-2.48-2.494l31.034-30.747l2.48,2.494L433.324,204.414z M474.513,163.608l-2.48-2.494
				l15.518-15.373l2.481,2.494L474.513,163.608z"/>
		</g>
	</g>
	<g>
		
			<rect x="474.127" y="230.693" transform="matrix(0.1292 0.9916 -0.9916 0.1292 680.3546 -238.3458)" fill="#DBDFEA" width="3.515" height="75.015"/>
	</g>
	<g>
		
			<rect x="102.241" y="266.443" transform="matrix(0.9916 0.129 -0.129 0.9916 35.7537 -15.7823)" fill="#DBDFEA" width="75.015" height="3.515"/>
	</g>
	<g>
		<g>
			<path fill="#DBDFEA" d="M196.531,209.431l-32.465-29.237l2.359-2.609l32.465,29.237L196.531,209.431z M153.444,170.628
				l-16.233-14.619l2.359-2.609l16.233,14.618L153.444,170.628z"/>
		</g>
	</g>
	<g>
		<path fill-rule="evenodd" clip-rule="evenodd" fill="#ECEDF6" d="M514.638,229.191c18.516,0,33.617-15.072,33.617-33.553
			c0-18.479-15.102-33.552-33.617-33.552s-33.617,15.072-33.617,33.552C481.021,214.119,496.122,229.191,514.638,229.191z"/>
		<path fill="#CBD4DD" d="M514.638,230.485c-19.252,0-34.915-15.633-34.915-34.847c0-19.215,15.663-34.847,34.915-34.847
			s34.915,15.632,34.915,34.847C549.553,214.853,533.89,230.485,514.638,230.485z M514.638,163.383
			c-17.82,0-32.319,14.47-32.319,32.256s14.499,32.257,32.319,32.257c17.821,0,32.319-14.471,32.319-32.257
			S532.459,163.383,514.638,163.383z"/>
	</g>
	<g>
		<rect x="476.974" y="42.578" fill-rule="evenodd" clip-rule="evenodd" fill="#FDD26A" width="90.828" height="58.517"/>
		<path fill="#536B8B" d="M567.802,102.34h-90.828c-0.689,0-1.249-0.558-1.249-1.245V42.578c0-0.688,0.56-1.246,1.249-1.246h90.828
			c0.689,0,1.249,0.559,1.249,1.246v58.517C569.051,101.782,568.491,102.34,567.802,102.34z M478.222,99.849h88.332V43.823h-88.332
			V99.849z"/>
	</g>
	<g>
		<rect x="466.503" y="50.025" fill-rule="evenodd" clip-rule="evenodd" fill="#FFFFFF" width="90.827" height="58.518"/>
		<path fill="#536B8B" d="M557.33,109.838h-90.827c-0.717,0-1.298-0.58-1.298-1.295V50.025c0-0.715,0.581-1.295,1.298-1.295h90.827
			c0.716,0,1.298,0.58,1.298,1.295v58.518C558.628,109.258,558.046,109.838,557.33,109.838z M467.801,107.248h88.231V51.321h-88.231
			V107.248z"/>
	</g>
	<g>
		<path fill-rule="evenodd" clip-rule="evenodd" fill="#ECEDF6" d="M241.786,159.81c17.602,0,31.958-14.328,31.958-31.896
			c0-17.568-14.356-31.896-31.958-31.896c-17.603,0-31.959,14.328-31.959,31.896C209.827,145.481,224.184,159.81,241.786,159.81z"/>
		<path fill="#CBD4DD" d="M241.786,161.105c-18.339,0-33.257-14.891-33.257-33.191c0-18.303,14.918-33.192,33.257-33.192
			c18.338,0,33.256,14.89,33.256,33.192C275.042,146.215,260.124,161.105,241.786,161.105z M241.786,97.313
			c-16.906,0-30.661,13.728-30.661,30.602c0,16.873,13.755,30.601,30.661,30.601s30.66-13.728,30.66-30.601
			C272.446,111.04,258.692,97.313,241.786,97.313z"/>
	</g>
	<g>
		<path fill-rule="evenodd" clip-rule="evenodd" fill="#ECEDF6" d="M260.971,153.422c-5.342,4.01-11.986,6.388-19.185,6.388
			c-7.199,0-13.843-2.379-19.187-6.388v-8.542c0-3.436,2.815-6.246,6.257-6.246h0.002c0.162,0,0.324,0.007,0.482,0.02
			c0.309-0.05,0.628-0.076,0.959-0.076h11.486h11.484c0.331,0,0.65,0.026,0.959,0.076c0.158-0.013,0.32-0.02,0.483-0.02h0.001
			c3.441,0,6.257,2.811,6.257,6.246V153.422z"/>
		<path fill="#CBD4DD" d="M241.786,161.105c-7.266,0-14.171-2.3-19.967-6.648c-0.326-0.245-0.518-0.628-0.518-1.035v-8.542
			c0-4.159,3.389-7.542,7.555-7.542c0.146,0,0.29,0.005,0.432,0.014c0.333-0.046,0.673-0.069,1.012-0.069h22.971
			c0.339,0,0.679,0.023,1.012,0.069c0.142-0.009,0.286-0.014,0.431-0.014c4.166,0,7.556,3.383,7.556,7.542v8.542
			c0,0.407-0.191,0.79-0.518,1.035C255.956,158.806,249.054,161.105,241.786,161.105z M223.897,152.767
			c5.234,3.763,11.405,5.748,17.889,5.748c6.484,0,12.654-1.985,17.887-5.748v-7.887c0-2.729-2.225-4.951-4.959-4.951
			c-0.131,0-0.26,0.006-0.386,0.016c-0.103,0.005-0.204,0.003-0.304-0.013c-0.242-0.038-0.494-0.059-0.754-0.059H230.3
			c-0.26,0-0.512,0.021-0.754,0.059c-0.101,0.016-0.202,0.018-0.304,0.013c-0.126-0.01-0.255-0.016-0.384-0.016
			c-2.736,0-4.961,2.222-4.961,4.951V152.767z"/>
	</g>
	<g>
		<path fill="#CBD4DD" d="M531.42,209.975c-0.716,0-1.298-0.58-1.298-1.295v-22.65c0-4.313-1.711-8.276-4.819-11.158
			c-2.939-2.728-6.786-4.125-10.569-3.854c-0.042,0.002-0.082,0.004-0.122,0.003c-4.463-0.092-8.414,1.364-11.198,4.088
			c-2.786,2.726-4.26,6.503-4.26,10.922v22.65c0,0.715-0.581,1.295-1.298,1.295s-1.298-0.58-1.298-1.295v-22.65
			c0-5.058,1.79-9.594,5.038-12.772c3.273-3.201,7.89-4.9,13.008-4.829c4.478-0.309,9.014,1.345,12.466,4.545
			c3.643,3.378,5.648,8.016,5.648,13.057v22.65C532.718,209.395,532.137,209.975,531.42,209.975z"/>
	</g>
	<g>
		<path fill-rule="evenodd" clip-rule="evenodd" fill="#ECEDF6" d="M241.773,121.77L241.773,121.77h0.013l0,0l0.013-0.001l0,0
			c2.636,0,4.791,2.152,4.791,4.784v11.962c0,2.631-2.155,4.784-4.791,4.784l0,0l-0.013-0.001h-0.013l0,0
			c-2.636,0-4.794-2.152-4.794-4.783v-11.962C236.979,123.922,239.137,121.77,241.773,121.77z"/>
		<path fill="#CBD4DD" d="M241.799,144.594c-0.02,0-0.039,0-0.061-0.001l-0.012-0.001c0,0-0.002,0-0.003,0
			c-3.311,0-6.042-2.726-6.042-6.077v-11.962c0-3.353,2.732-6.079,6.092-6.079h0.001c3.382,0,6.113,2.727,6.113,6.079v11.962
			C247.888,141.867,245.156,144.594,241.799,144.594z M241.799,123.064c-1.953,0-3.521,1.565-3.521,3.488v11.962
			c0,1.923,1.568,3.488,3.496,3.488h0.025c1.926,0,3.493-1.564,3.493-3.488v-11.962
			C245.292,124.629,243.725,123.064,241.799,123.064z"/>
	</g>
	<g>
		<path fill-rule="evenodd" clip-rule="evenodd" fill="#ECEDF6" d="M241.786,136.451c-5.586-0.487-11.173-5.423-11.693-11.863
			h-0.039v-6.394v-0.978h0.039c0.521-6.44,6.107-9.389,11.693-9.876c5.585,0.487,11.171,3.436,11.691,9.876h0.04v0.978v6.394h-0.04
			C252.957,131.028,247.371,135.964,241.786,136.451z"/>
		<path fill="#CBD4DD" d="M241.786,137.746c-0.038,0-0.076-0.001-0.114-0.005c-6.459-0.563-12.156-6.244-12.844-12.738
			c-0.047-0.13-0.072-0.27-0.072-0.415v-7.371c0-0.15,0.026-0.296,0.073-0.432c0.758-7.146,7.098-10.233,12.843-10.734
			c0.076-0.007,0.151-0.007,0.228,0c5.748,0.501,12.092,3.592,12.843,10.748c0.047,0.131,0.073,0.271,0.073,0.418v7.371
			c0,0.153-0.026,0.301-0.075,0.438c-0.698,6.484-6.389,12.153-12.841,12.716C241.861,137.745,241.823,137.746,241.786,137.746z
			 M231.352,124.277c0.018,0.067,0.028,0.136,0.034,0.207c0.487,6.021,5.753,10.2,10.4,10.666
			c4.646-0.466,9.911-4.645,10.398-10.666c0.006-0.074,0.017-0.146,0.035-0.217v-6.735c-0.019-0.068-0.029-0.139-0.035-0.211
			c-0.578-7.149-7.958-8.447-10.398-8.68c-2.442,0.232-9.822,1.53-10.4,8.68c-0.006,0.072-0.017,0.143-0.034,0.212V124.277z"/>
	</g>
	<g>
		<path fill-rule="evenodd" clip-rule="evenodd" fill="#ECEDF6" d="M233.109,110.822c2.249-2.106,5.463-3.201,8.677-3.481
			c3.212,0.28,6.426,1.375,8.675,3.481c-2.249,2.664-5.463,4.416-8.675,4.697C238.572,115.238,235.358,113.486,233.109,110.822z"/>
		<path fill="#CBD4DD" d="M241.786,116.814c-0.038,0-0.076-0.001-0.114-0.005c-3.519-0.308-7.091-2.234-9.556-5.153
			c-0.443-0.526-0.397-1.309,0.105-1.779c2.28-2.135,5.638-3.493,9.45-3.826c0.076-0.007,0.151-0.007,0.228,0
			c3.813,0.333,7.169,1.691,9.449,3.826c0.503,0.471,0.549,1.253,0.105,1.779c-2.465,2.919-6.036,4.846-9.555,5.153
			C241.861,116.813,241.823,116.814,241.786,116.814z M235.004,110.948c1.915,1.835,4.367,3.029,6.782,3.271
			c2.414-0.241,4.865-1.436,6.78-3.271c-1.775-1.252-4.131-2.059-6.78-2.307C239.135,108.89,236.779,109.696,235.004,110.948z"/>
	</g>
	<g>
		<path fill="#CBD4DD" d="M241.784,131.475c-1.861,0-3.54-1.173-4.174-2.92c-0.244-0.673,0.104-1.415,0.777-1.659
			c0.672-0.244,1.418,0.104,1.662,0.775c0.264,0.727,0.961,1.214,1.734,1.214c0.774,0,1.472-0.488,1.736-1.215
			c0.244-0.673,0.991-1.018,1.663-0.774c0.674,0.245,1.021,0.988,0.776,1.66C245.324,130.302,243.646,131.475,241.784,131.475z"/>
	</g>
	<g>
		<path fill-rule="evenodd" clip-rule="evenodd" fill="#CBD4DD" d="M247.026,122.588c1.01,0,1.833-0.822,1.833-1.829
			c0-1.008-0.823-1.83-1.833-1.83c-1.009,0-1.832,0.822-1.832,1.83C245.194,121.766,246.018,122.588,247.026,122.588z"/>
	</g>
	<g>
		<path fill-rule="evenodd" clip-rule="evenodd" fill="#CBD4DD" d="M236.544,122.588c1.009,0,1.832-0.822,1.832-1.829
			c0-1.008-0.823-1.83-1.832-1.83c-1.01,0-1.833,0.822-1.833,1.83C234.711,121.766,235.534,122.588,236.544,122.588z"/>
	</g>
	<g>
		<path fill="#CBD4DD" d="M228.716,158.226c-0.717,0-1.298-0.58-1.298-1.296v-10.012c0-0.715,0.581-1.295,1.298-1.295
			s1.298,0.58,1.298,1.295v10.012C230.014,157.646,229.433,158.226,228.716,158.226z"/>
	</g>
	<g>
		<path fill="#CBD4DD" d="M254.854,158.226c-0.717,0-1.298-0.58-1.298-1.296v-10.012c0-0.715,0.581-1.295,1.298-1.295
			s1.298,0.58,1.298,1.295v10.012C256.152,157.646,255.571,158.226,254.854,158.226z"/>
	</g>
	<g>
		<g>
			<path fill-rule="evenodd" clip-rule="evenodd" fill="#ECEDF6" d="M385.021,170.556c23.533,0,42.727-19.155,42.727-42.642
				s-19.193-42.643-42.727-42.643c-23.532,0-42.726,19.156-42.726,42.643S361.488,170.556,385.021,170.556z"/>
			<path fill="#CBD4DD" d="M385.021,171.852c-24.274,0-44.023-19.711-44.023-43.938c0-24.229,19.749-43.938,44.023-43.938
				s44.024,19.71,44.024,43.938C429.045,152.141,409.295,171.852,385.021,171.852z M385.021,86.566
				c-22.843,0-41.428,18.549-41.428,41.348c0,22.798,18.585,41.347,41.428,41.347c22.844,0,41.429-18.549,41.429-41.347
				C426.449,105.115,407.864,86.566,385.021,86.566z"/>
		</g>
		<g>
			<path fill-rule="evenodd" clip-rule="evenodd" fill="#ECEDF6" d="M410.672,162.016c-7.144,5.361-16.025,8.54-25.65,8.54
				s-18.507-3.179-25.65-8.54v-11.419c0-4.594,3.764-8.352,8.367-8.352l0,0c0.218,0,0.434,0.009,0.646,0.025
				c0.41-0.066,0.839-0.101,1.28-0.101h15.356h15.354c0.444,0,0.872,0.034,1.282,0.101c0.212-0.017,0.429-0.025,0.646-0.025h0.002
				c4.603,0,8.367,3.759,8.367,8.352V162.016z"/>
			<path fill="#CBD4DD" d="M385.021,171.852c-9.619,0-18.759-3.044-26.43-8.801c-0.327-0.244-0.519-0.628-0.519-1.035v-11.419
				c0-5.319,4.336-9.646,9.665-9.646c0.199,0,0.396,0.006,0.593,0.018c0.437-0.062,0.885-0.093,1.334-0.093h30.71
				c0.451,0,0.899,0.031,1.336,0.093c0.195-0.012,0.394-0.018,0.592-0.018c5.33,0,9.667,4.327,9.667,9.646v11.419
				c0,0.407-0.191,0.791-0.519,1.035C403.78,168.808,394.642,171.852,385.021,171.852z M360.669,161.363
				c7.11,5.169,15.517,7.897,24.353,7.897c8.837,0,17.243-2.729,24.353-7.897v-10.767c0-3.891-3.171-7.056-7.069-7.056
				c-0.186,0-0.37,0.008-0.55,0.021c-0.102,0.007-0.203,0.002-0.304-0.014c-0.349-0.056-0.711-0.084-1.076-0.084h-30.71
				c-0.364,0-0.726,0.028-1.074,0.084c-0.101,0.016-0.202,0.021-0.304,0.014c-0.181-0.014-0.364-0.021-0.549-0.021
				c-3.898,0-7.069,3.165-7.069,7.056V161.363z"/>
		</g>
		<g>
			<path fill-rule="evenodd" clip-rule="evenodd" fill="#ECEDF6" d="M385.003,119.699L385.003,119.699h0.019l0,0l0.016-0.001l0,0
				c3.524,0,6.408,2.878,6.408,6.395v15.994c0,3.517-2.884,6.395-6.408,6.395l0,0h-0.016h-0.018h-0.001
				c-3.522,0-6.406-2.878-6.406-6.396v-15.993C378.597,122.576,381.48,119.699,385.003,119.699z"/>
			<path fill="#CBD4DD" d="M385.037,149.776h-0.016c-4.266,0-7.723-3.449-7.723-7.69v-15.993c0-4.239,3.457-7.688,7.704-7.688h0.001
				c4.284,0,7.739,3.449,7.739,7.688v15.994C392.743,146.327,389.286,149.776,385.037,149.776z M385.037,120.994
				c-2.851,0.001-5.143,2.287-5.143,5.099v15.993c0,2.813,2.292,5.1,5.108,5.1h0.034c2.818,0,5.11-2.286,5.11-5.099v-15.994
				C390.147,123.281,387.855,120.994,385.037,120.994z"/>
		</g>
		<g>
			<path fill-rule="evenodd" clip-rule="evenodd" fill="#ECEDF6" d="M385.021,139.328c-7.843-0.685-15.686-7.926-15.686-17.168
				v-17.095h15.686h15.684v17.095C400.705,131.402,392.862,138.644,385.021,139.328z"/>
			<path fill="#CBD4DD" d="M385.021,140.623c-0.038,0-0.075-0.001-0.113-0.005c-8.147-0.711-16.869-8.298-16.869-18.458v-17.095
				c0-0.716,0.581-1.296,1.297-1.296h31.369c0.717,0,1.298,0.58,1.298,1.296v17.095c0,10.16-8.722,17.747-16.868,18.458
				C385.098,140.622,385.06,140.623,385.021,140.623z M370.634,106.36v15.8c0,8.693,7.417,15.196,14.388,15.867
				c6.97-0.671,14.387-7.174,14.387-15.867v-15.8H370.634z"/>
		</g>
		<g>
			<path fill="#CBD4DD" d="M385.021,132.238c-2.308,0-4.386-1.454-5.17-3.617c-0.244-0.673,0.104-1.415,0.778-1.659
				c0.674-0.242,1.419,0.104,1.662,0.777c0.415,1.142,1.511,1.908,2.729,1.908s2.315-0.767,2.73-1.909
				c0.244-0.673,0.988-1.021,1.663-0.775c0.674,0.243,1.021,0.986,0.777,1.659C389.404,130.785,387.327,132.238,385.021,132.238z"/>
		</g>
		<g>
			<g>
				<path fill-rule="evenodd" clip-rule="evenodd" fill="#ECEDF6" d="M391.713,119.376c1.125,0,2.044-0.917,2.044-2.04
					c0-1.124-0.919-2.04-2.044-2.04c-1.126,0-2.045,0.916-2.045,2.04C389.668,118.459,390.587,119.376,391.713,119.376z"/>
				<path fill="#CBD4DD" d="M391.713,120.671c-1.843,0-3.343-1.496-3.343-3.335c0-1.84,1.5-3.336,3.343-3.336
					c1.842,0,3.342,1.496,3.342,3.336C395.055,119.175,393.555,120.671,391.713,120.671z M391.713,116.591
					c-0.412,0-0.747,0.335-0.747,0.745s0.335,0.744,0.747,0.744c0.411,0,0.746-0.334,0.746-0.744S392.124,116.591,391.713,116.591z"
					/>
			</g>
			<g>
				<path fill-rule="evenodd" clip-rule="evenodd" fill="#ECEDF6" d="M378.329,119.376c1.126,0,2.044-0.917,2.044-2.04
					c0-1.124-0.918-2.04-2.044-2.04c-1.125,0-2.044,0.916-2.044,2.04C376.285,118.459,377.204,119.376,378.329,119.376z"/>
				<path fill="#CBD4DD" d="M378.329,120.671c-1.842,0-3.342-1.496-3.342-3.335c0-1.84,1.5-3.336,3.342-3.336
					c1.843,0,3.341,1.496,3.341,3.336C381.67,119.175,380.172,120.671,378.329,120.671z M378.329,116.591
					c-0.411,0-0.746,0.335-0.746,0.745s0.335,0.744,0.746,0.744s0.745-0.334,0.745-0.744S378.74,116.591,378.329,116.591z"/>
			</g>
		</g>
		<g>
			<path fill="#CBD4DD" d="M367.548,168.001c-0.717,0-1.298-0.58-1.298-1.295v-13.385c0-0.715,0.581-1.296,1.298-1.296
				s1.298,0.581,1.298,1.296v13.385C368.846,167.421,368.265,168.001,367.548,168.001z"/>
		</g>
		<g>
			<path fill="#CBD4DD" d="M402.494,168.001c-0.717,0-1.298-0.58-1.298-1.295v-13.385c0-0.715,0.581-1.296,1.298-1.296
				s1.298,0.581,1.298,1.296v13.385C403.792,167.421,403.211,168.001,402.494,168.001z"/>
		</g>
		<g>
			<path fill-rule="evenodd" clip-rule="evenodd" fill="#ECEDF6" d="M371.338,99.236c-2.849,0-5.159,2.306-5.159,5.15
				c0,2.843,2.311,5.149,5.159,5.149c1.552,0,2.942-0.683,3.888-1.764c0.742,1.935,2.621,3.31,4.82,3.31
				c2.068,0,3.854-1.216,4.675-2.971c0.823,1.755,2.607,2.971,4.676,2.971c2.154,0,4-1.318,4.772-3.19
				c0.915,0.821,2.124,1.321,3.451,1.321c2.85,0,5.159-2.305,5.159-5.148c0-2.3-1.512-4.249-3.598-4.909
				c0.032-0.235,0.051-0.478,0.051-0.724c0-2.844-2.311-5.149-5.16-5.149c-1.466,0-2.79,0.611-3.729,1.591
				c0.014-0.153,0.021-0.307,0.021-0.464c0-2.844-2.311-5.149-5.159-5.149c-2.788,0-5.061,2.208-5.156,4.968
				c-0.906-0.789-2.092-1.267-3.39-1.267c-2.848,0-5.159,2.305-5.159,5.149c0,0.39,0.043,0.77,0.126,1.135
				C371.531,99.239,371.435,99.236,371.338,99.236z"/>
			<path fill="#CBD4DD" d="M389.396,112.378c-1.787,0-3.473-0.749-4.676-2.004c-1.201,1.255-2.887,2.004-4.675,2.004
				c-2.057,0-3.974-0.997-5.176-2.597c-1.041,0.679-2.265,1.05-3.532,1.05c-3.561,0-6.457-2.891-6.457-6.444
				c0-3.168,2.302-5.808,5.321-6.346c0.038-3.521,2.92-6.375,6.457-6.375c0.861,0,1.706,0.171,2.486,0.497
				c0.909-2.468,3.273-4.199,6.06-4.199c2.918,0,5.39,1.942,6.188,4.599c0.829-0.377,1.737-0.576,2.68-0.576
				c3.52,0,6.391,2.824,6.457,6.321c2.157,1.081,3.548,3.283,3.548,5.757c0,3.554-2.896,6.444-6.457,6.444
				c-1.063,0-2.101-0.261-3.024-0.75C393.397,111.386,391.486,112.378,389.396,112.378z M384.721,106.816
				c0.504,0,0.962,0.291,1.176,0.746c0.634,1.352,2.008,2.225,3.5,2.225c1.572,0,2.974-0.938,3.572-2.389
				c0.161-0.39,0.501-0.676,0.913-0.77c0.409-0.094,0.841,0.019,1.155,0.301c0.711,0.638,1.628,0.988,2.583,0.988
				c2.129,0,3.861-1.729,3.861-3.854c0-1.688-1.082-3.164-2.692-3.675c-0.602-0.19-0.979-0.785-0.894-1.409
				c0.025-0.179,0.039-0.362,0.039-0.549c0-2.125-1.732-3.854-3.862-3.854c-1.064,0-2.055,0.423-2.791,1.191
				c-0.379,0.397-0.975,0.512-1.475,0.284c-0.502-0.228-0.806-0.748-0.755-1.296c0.01-0.114,0.015-0.229,0.015-0.348
				c0-2.126-1.732-3.854-3.861-3.854c-2.093,0-3.787,1.633-3.859,3.717c-0.017,0.5-0.319,0.944-0.779,1.145
				c-0.458,0.198-0.993,0.117-1.37-0.212c-0.702-0.611-1.603-0.948-2.537-0.948c-2.129,0-3.861,1.729-3.861,3.854
				c0,0.287,0.032,0.573,0.094,0.85c0.091,0.397-0.013,0.813-0.276,1.124c-0.266,0.311-0.662,0.48-1.067,0.454
				c-2.189-0.12-4.071,1.653-4.071,3.849c0,2.125,1.732,3.854,3.861,3.854c1.116,0,2.177-0.481,2.91-1.32
				c0.299-0.343,0.756-0.504,1.205-0.424c0.448,0.079,0.822,0.388,0.984,0.813c0.569,1.481,2.019,2.478,3.608,2.478
				c1.492,0,2.867-0.873,3.5-2.225C383.76,107.107,384.217,106.816,384.721,106.816L384.721,106.816z"/>
		</g>
		<g>
			<path fill="#CBD4DD" d="M385.177,157.986c-0.333,0-0.664-0.126-0.918-0.379l-14.368-14.342c-0.509-0.506-0.509-1.326,0-1.832
				c0.506-0.506,1.327-0.506,1.834,0l13.452,13.426l13.451-13.426c0.507-0.506,1.328-0.506,1.835,0c0.508,0.506,0.508,1.326,0,1.832
				l-14.369,14.342C385.84,157.86,385.509,157.986,385.177,157.986z"/>
		</g>
	</g>
	<g>
		<path fill="#CBD4DD" d="M514.638,230.485c-0.716,0-1.298-0.58-1.298-1.294c0-0.716,0.582-1.296,1.298-1.296
			c6.278,0,12.255-2.089,17.323-6.048v-8.362c0-2.908-2.143-5.274-4.775-5.274h-25.095c-2.589,0-4.776,2.417-4.776,5.274v8.986
			c0,0.716-0.581,1.295-1.298,1.295s-1.298-0.579-1.298-1.295v-8.986c0-4.336,3.307-7.864,7.372-7.864h25.095
			c4.065,0,7.371,3.528,7.371,7.864v8.986c0,0.389-0.175,0.758-0.478,1.003C528.441,228.062,521.72,230.485,514.638,230.485z"/>
	</g>
	<g>
		<path fill-rule="evenodd" clip-rule="evenodd" fill="#ECEDF6" d="M514.624,189.176L514.624,189.176h0.014l0,0h0.013h0.001
			c2.772,0,5.041,2.264,5.041,5.031v12.585c0,2.767-2.269,5.029-5.041,5.029h-0.001h-0.013h-0.014l0,0
			c-2.772,0-5.041-2.263-5.041-5.03v-12.584C509.583,191.44,511.852,189.176,514.624,189.176z"/>
		<path fill="#CBD4DD" d="M514.651,213.117h-0.014c-3.509,0-6.353-2.838-6.353-6.326v-12.584c0-3.488,2.844-6.326,6.339-6.326
			c3.522,0,6.366,2.838,6.366,6.326v12.585C520.99,210.279,518.147,213.117,514.651,213.117z M514.651,190.472
			c-2.091,0-3.771,1.676-3.771,3.735v12.584c0,2.061,1.68,3.735,3.743,3.735h0.027c2.064,0,3.743-1.675,3.743-3.734v-12.585
			C518.395,192.147,516.716,190.472,514.651,190.472z"/>
	</g>
	<g>
		<path fill-rule="evenodd" clip-rule="evenodd" fill="#ECEDF6" d="M514.638,204.62c-6.17-0.539-12.341-6.237-12.341-13.508v-7.887
			c0-5.491,9.947-0.057,12.341,0.824c7.018-2.584,12.341-7.468,12.341,2.835v4.228C526.979,198.383,520.809,204.081,514.638,204.62z
			"/>
		<path fill="#CBD4DD" d="M514.638,205.915c-0.038,0-0.075-0.002-0.113-0.006c-6.531-0.569-13.525-6.651-13.525-14.797v-7.887
			c0-2.328,1.45-3.719,3.879-3.719c2.676,0,6.299,1.613,8.696,2.679c0.41,0.184,0.776,0.347,1.077,0.474
			c1.146-0.442,2.244-0.939,3.311-1.422c2.283-1.034,4.257-1.928,5.964-1.928c4.351,0,4.351,5.504,4.351,7.575v4.228
			c0,8.146-6.993,14.228-13.524,14.797C514.714,205.913,514.676,205.915,514.638,205.915z M504.878,182.098
			c-1.105,0-1.283,0.332-1.283,1.128v7.887c0,6.679,5.688,11.677,11.043,12.206c5.355-0.529,11.043-5.527,11.043-12.206v-4.228
			c0-4.984-1.274-4.984-1.755-4.984c-1.146,0-2.966,0.824-4.893,1.696c-1.192,0.539-2.543,1.151-3.945,1.668
			c-0.292,0.106-0.609,0.107-0.898,0c-0.39-0.143-0.971-0.399-1.673-0.712C510.454,183.635,507.001,182.098,504.878,182.098z"/>
	</g>
	<g>
		<path fill="#CBD4DD" d="M514.637,199.318c-1.932,0-3.671-1.218-4.327-3.028c-0.244-0.673,0.104-1.415,0.779-1.659
			c0.671-0.244,1.418,0.104,1.661,0.777c0.286,0.788,1.044,1.319,1.887,1.319s1.602-0.531,1.89-1.321
			c0.244-0.673,0.99-1.019,1.663-0.775c0.674,0.245,1.021,0.989,0.776,1.661C518.307,198.102,516.566,199.318,514.637,199.318z"/>
	</g>
	<g>
		<g>
			<path fill-rule="evenodd" clip-rule="evenodd" fill="#CBD4DD" d="M519.902,188.922c0.887,0,1.608-0.722,1.608-1.605
				s-0.722-1.605-1.608-1.605c-0.885,0-1.607,0.722-1.607,1.605S519.018,188.922,519.902,188.922z"/>
		</g>
		<g>
			<path fill-rule="evenodd" clip-rule="evenodd" fill="#CBD4DD" d="M509.372,188.922c0.887,0,1.608-0.722,1.608-1.605
				s-0.722-1.605-1.608-1.605c-0.885,0-1.608,0.722-1.608,1.605S508.487,188.922,509.372,188.922z"/>
		</g>
	</g>
	<g>
		<path fill="#CBD4DD" d="M500.891,227.457c-0.717,0-1.298-0.58-1.298-1.295V215.63c0-0.715,0.581-1.296,1.298-1.296
			s1.298,0.581,1.298,1.296v10.532C502.188,226.877,501.607,227.457,500.891,227.457z"/>
	</g>
	<g>
		<path fill="#CBD4DD" d="M528.386,227.457c-0.717,0-1.298-0.58-1.298-1.295V215.63c0-0.715,0.581-1.296,1.298-1.296
			c0.716,0,1.298,0.581,1.298,1.296v10.532C529.684,226.877,529.102,227.457,528.386,227.457z"/>
	</g>
	<g>
		<g>
			<path fill-rule="evenodd" clip-rule="evenodd" fill="#ECEDF6" d="M101.071,241.609c22.098,0,40.121-17.989,40.121-40.043
				c0-22.055-18.023-40.043-40.121-40.043c-22.099,0-40.121,17.988-40.121,40.043C60.95,223.62,78.973,241.609,101.071,241.609z"/>
			<path fill="#CBD4DD" d="M101.071,242.904c-22.839,0-41.419-18.544-41.419-41.338s18.58-41.339,41.419-41.339
				s41.419,18.545,41.419,41.339S123.91,242.904,101.071,242.904z M101.071,162.818c-21.407,0-38.823,17.382-38.823,38.748
				c0,21.365,17.416,38.747,38.823,38.747s38.823-17.382,38.823-38.747C139.895,180.2,122.479,162.818,101.071,162.818z"/>
		</g>
		<g>
			<path fill-rule="evenodd" clip-rule="evenodd" fill="#ECEDF6" d="M125.158,233.591c-6.708,5.034-15.049,8.02-24.087,8.02
				s-17.379-2.986-24.087-8.02v-10.725c0-4.313,3.535-7.842,7.857-7.842h0.001c0.203,0,0.407,0.01,0.605,0.024
				c0.387-0.062,0.789-0.095,1.204-0.095h14.419h14.418c0.417,0,0.817,0.033,1.204,0.095c0.199-0.015,0.403-0.024,0.606-0.024h0.001
				c4.322,0,7.857,3.529,7.857,7.842V233.591z"/>
			<path fill="#CBD4DD" d="M101.071,242.905c-9.049,0-17.647-2.862-24.866-8.279c-0.327-0.245-0.519-0.628-0.519-1.035v-10.725
				c0-5.038,4.107-9.137,9.155-9.137c0.186,0,0.37,0.007,0.553,0.018c0.414-0.059,0.836-0.088,1.258-0.088h28.837
				c0.422,0,0.844,0.029,1.258,0.088c0.183-0.011,0.368-0.018,0.553-0.018c5.049,0,9.156,4.099,9.156,9.137v10.725
				c0,0.407-0.191,0.79-0.519,1.035C118.721,240.043,110.122,242.905,101.071,242.905z M78.282,232.937
				c6.658,4.829,14.522,7.378,22.789,7.378c8.268,0,16.134-2.548,22.789-7.378v-10.07c0-3.61-2.942-6.547-6.56-6.547
				c-0.172,0-0.343,0.009-0.511,0.021c-0.1,0.007-0.202,0.003-0.302-0.012c-0.327-0.053-0.663-0.079-0.999-0.079H86.652
				c-0.336,0-0.672,0.026-0.999,0.079c-0.099,0.015-0.202,0.019-0.303,0.012c-0.166-0.012-0.337-0.021-0.508-0.021
				c-3.617,0-6.561,2.937-6.561,6.547V232.937z"/>
		</g>
		<g>
			<path fill-rule="evenodd" clip-rule="evenodd" fill="#ECEDF6" d="M89.576,214.954h22.988c-0.778,5.627-5.648,9.998-11.493,9.998
				l0,0C95.228,224.952,90.356,220.581,89.576,214.954z"/>
			<path fill="#CBD4DD" d="M101.071,226.247c-6.407,0-11.902-4.779-12.78-11.115c-0.051-0.372,0.06-0.747,0.307-1.029
				c0.246-0.282,0.604-0.443,0.979-0.443h22.988c0.375,0,0.731,0.161,0.979,0.443c0.246,0.282,0.358,0.657,0.308,1.029
				C112.975,221.468,107.48,226.247,101.071,226.247z M91.179,216.249c1.267,4.313,5.284,7.408,9.893,7.408
				c4.61,0,8.626-3.096,9.892-7.408H91.179z"/>
		</g>
		<g>
			<path fill-rule="evenodd" clip-rule="evenodd" fill="#ECEDF6" d="M89.576,214.954h22.988c-0.778,5.627-5.648,9.998-11.493,9.998
				l0,0C95.228,224.952,90.356,220.581,89.576,214.954z"/>
			<path fill="#CBD4DD" d="M101.071,226.247c-6.407,0-11.902-4.779-12.78-11.115c-0.051-0.372,0.06-0.747,0.307-1.029
				c0.246-0.282,0.604-0.443,0.979-0.443h22.988c0.375,0,0.731,0.161,0.979,0.443c0.246,0.282,0.358,0.657,0.308,1.029
				C112.975,221.468,107.48,226.247,101.071,226.247z M91.179,216.249c1.267,4.313,5.284,7.408,9.893,7.408
				c4.61,0,8.626-3.096,9.892-7.408H91.179z"/>
		</g>
		<g>
			<path fill-rule="evenodd" clip-rule="evenodd" fill="#ECEDF6" d="M101.056,193.854L101.056,193.854h0.016l0,0l0.015-0.001h0.001
				c3.31,0,6.018,2.702,6.018,6.005v15.019c0,3.303-2.708,6.005-6.018,6.005h-0.001l-0.015-0.001h-0.016l0,0
				c-3.31,0-6.018-2.701-6.018-6.004v-15.019C95.038,196.556,97.745,193.854,101.056,193.854z"/>
			<path fill="#CBD4DD" d="M101.087,222.177c-0.03,0-0.062-0.001-0.093-0.004l-0.016-0.001c-0.002,0-0.004,0-0.006,0
				c-3.954,0-7.232-3.272-7.232-7.296v-15.019c0-4.025,3.281-7.299,7.315-7.299h0.001c4.064,0,7.346,3.273,7.346,7.299v15.019
				C108.402,218.901,105.121,222.177,101.087,222.177z M101.087,195.147c-2.634,0.001-4.751,2.113-4.751,4.71v15.019
				c0,2.597,2.117,4.709,4.72,4.709c0.014,0,0.033,0,0.054,0.001c2.592-0.012,4.697-2.121,4.697-4.71v-15.019
				C105.807,197.261,103.689,195.147,101.087,195.147z"/>
		</g>
		<g>
			<path fill-rule="evenodd" clip-rule="evenodd" fill="#ECEDF6" d="M101.071,212.284c-7.365-0.642-14.729-7.441-14.729-16.121
				V180.11h14.729h14.728v16.053C115.799,204.843,108.436,211.643,101.071,212.284z"/>
			<path fill="#CBD4DD" d="M101.071,213.581c-0.038,0-0.075-0.003-0.113-0.006c-7.686-0.671-15.913-7.827-15.913-17.412V180.11
				c0-0.716,0.581-1.295,1.298-1.295h29.456c0.717,0,1.298,0.579,1.298,1.295v16.053c0,9.585-8.229,16.741-15.912,17.412
				C101.147,213.578,101.109,213.581,101.071,213.581z M87.641,181.405v14.758c0,8.118,6.922,14.19,13.431,14.821
				c6.508-0.631,13.43-6.703,13.43-14.821v-14.758H87.641z"/>
		</g>
		<g>
			<path fill="#CBD4DD" d="M101.07,205.707c-2.2,0-4.182-1.387-4.929-3.449c-0.244-0.673,0.104-1.416,0.778-1.659
				c0.672-0.244,1.418,0.104,1.661,0.776c0.379,1.041,1.378,1.741,2.489,1.741c1.11,0,2.111-0.7,2.491-1.742
				c0.245-0.673,0.988-1.02,1.663-0.775c0.674,0.244,1.021,0.987,0.776,1.66C105.25,204.321,103.268,205.707,101.07,205.707z"/>
		</g>
		<g>
			<g>
				<path fill-rule="evenodd" clip-rule="evenodd" fill="#ECEDF6" d="M107.355,193.549c1.057,0,1.919-0.859,1.919-1.916
					c0-1.054-0.862-1.915-1.919-1.915c-1.058,0-1.92,0.861-1.92,1.915C105.436,192.689,106.298,193.549,107.355,193.549z"/>
				<path fill="#CBD4DD" d="M107.355,194.845c-1.773,0-3.217-1.441-3.217-3.212c0-1.77,1.443-3.211,3.217-3.211
					s3.217,1.441,3.217,3.211C110.572,193.403,109.129,194.845,107.355,194.845z M107.355,191.013c-0.343,0-0.622,0.278-0.622,0.62
					c0,0.343,0.279,0.621,0.622,0.621s0.621-0.278,0.621-0.621C107.977,191.291,107.698,191.013,107.355,191.013z"/>
			</g>
			<g>
				<path fill-rule="evenodd" clip-rule="evenodd" fill="#ECEDF6" d="M94.787,193.549c1.058,0,1.92-0.859,1.92-1.916
					c0-1.054-0.862-1.915-1.92-1.915s-1.919,0.861-1.919,1.915C92.868,192.689,93.729,193.549,94.787,193.549z"/>
				<path fill="#CBD4DD" d="M94.787,194.845c-1.773,0-3.217-1.441-3.217-3.212c0-1.77,1.443-3.211,3.217-3.211
					c1.774,0,3.218,1.441,3.218,3.211C98.005,193.403,96.562,194.845,94.787,194.845z M94.787,191.013
					c-0.343,0-0.621,0.278-0.621,0.62c0,0.343,0.278,0.621,0.621,0.621s0.622-0.278,0.622-0.621
					C95.409,191.291,95.13,191.013,94.787,191.013z"/>
			</g>
		</g>
		<g>
			<path fill-rule="evenodd" clip-rule="evenodd" fill="#ECEDF6" d="M86.343,186.587c1.111-2.652,7.782-4.609,10.471-4.609
				c12.046,0,22.101,7.337,24-10.569c-5.302,2.5-11.696-0.871-19.584-1.16C79.663,167.937,84.419,185.138,86.343,186.587z"/>
			<path fill="#CBD4DD" d="M86.343,187.882c-0.279,0-0.554-0.09-0.782-0.261c-1.548-1.166-3.301-6.612-1.727-11.305
				c1.16-3.456,4.467-7.576,13.637-7.576c1.22,0,2.531,0.074,3.897,0.221c2.96,0.104,5.825,0.668,8.353,1.165
				c2.366,0.465,4.602,0.904,6.597,0.904c1.521,0,2.81-0.26,3.941-0.793c0.426-0.199,0.926-0.157,1.306,0.115
				c0.384,0.271,0.59,0.727,0.54,1.192c-0.983,9.264-4.21,13.216-10.789,13.216c-1.979,0-4.129-0.329-6.404-0.678
				c-2.6-0.398-5.287-0.811-8.098-0.811c-2.685,0-8.497,1.961-9.274,3.814c-0.154,0.369-0.471,0.646-0.858,0.751
				C86.569,187.867,86.456,187.882,86.343,187.882z M97.471,171.331c-5.849,0-9.547,1.789-10.993,5.317
				c-1.129,2.756-0.593,5.932,0.034,7.68c2.672-2.303,7.972-3.646,10.302-3.646c3.008,0,5.922,0.446,8.492,0.841
				c2.175,0.333,4.229,0.647,6.01,0.647c3.311,0,6.625-0.724,7.938-8.861c-0.911,0.209-1.884,0.313-2.937,0.313
				c-2.248,0-4.604-0.464-7.098-0.954c-2.553-0.501-5.191-1.021-8.037-1.124C99.816,171.399,98.598,171.331,97.471,171.331z"/>
		</g>
		<g>
			<path fill="#CBD4DD" d="M84.663,239.289c-0.717,0-1.298-0.579-1.298-1.295v-12.568c0-0.715,0.581-1.295,1.298-1.295
				c0.716,0,1.298,0.58,1.298,1.295v12.568C85.961,238.71,85.379,239.289,84.663,239.289z"/>
		</g>
		<g>
			<path fill="#CBD4DD" d="M117.479,239.289c-0.716,0-1.298-0.579-1.298-1.295v-12.568c0-0.715,0.582-1.295,1.298-1.295
				c0.717,0,1.298,0.58,1.298,1.295v12.568C118.776,238.71,118.195,239.289,117.479,239.289z"/>
		</g>
	</g>
	<g>
		<path fill="#536B8B" d="M552.761,295.79h-3.612c-0.689,0-1.248-0.559-1.248-1.245c0-0.688,0.559-1.247,1.248-1.247h3.612
			c0.689,0,1.249,0.559,1.249,1.247C554.01,295.231,553.45,295.79,552.761,295.79z M544.156,295.79h-4.991
			c-0.689,0-1.249-0.559-1.249-1.245c0-0.688,0.56-1.247,1.249-1.247h4.991c0.689,0,1.249,0.559,1.249,1.247
			C545.405,295.231,544.846,295.79,544.156,295.79z M534.173,295.79h-4.991c-0.689,0-1.249-0.559-1.249-1.245
			c0-0.688,0.56-1.247,1.249-1.247h4.991c0.689,0,1.249,0.559,1.249,1.247C535.422,295.231,534.862,295.79,534.173,295.79z
			 M524.189,295.79h-4.992c-0.688,0-1.248-0.559-1.248-1.245c0-0.688,0.56-1.247,1.248-1.247h4.992c0.689,0,1.248,0.559,1.248,1.247
			C525.438,295.231,524.879,295.79,524.189,295.79z M514.206,295.79h-4.992c-0.688,0-1.248-0.559-1.248-1.245
			c0-0.688,0.56-1.247,1.248-1.247h4.992c0.688,0,1.248,0.559,1.248,1.247C515.454,295.231,514.895,295.79,514.206,295.79z
			 M504.222,295.79h-4.991c-0.689,0-1.249-0.559-1.249-1.245c0-0.688,0.56-1.247,1.249-1.247h4.991c0.689,0,1.249,0.559,1.249,1.247
			C505.471,295.231,504.911,295.79,504.222,295.79z M494.238,295.79h-4.991c-0.689,0-1.249-0.559-1.249-1.245
			c0-0.688,0.56-1.247,1.249-1.247h4.991c0.689,0,1.249,0.559,1.249,1.247C495.487,295.231,494.928,295.79,494.238,295.79z
			 M484.255,295.79h-4.992c-0.688,0-1.248-0.559-1.248-1.245c0-0.688,0.56-1.247,1.248-1.247h4.992c0.689,0,1.248,0.559,1.248,1.247
			C485.503,295.231,484.944,295.79,484.255,295.79z M474.271,295.79h-4.992c-0.689,0-1.248-0.559-1.248-1.245
			c0-0.688,0.559-1.247,1.248-1.247h4.992c0.688,0,1.248,0.559,1.248,1.247C475.52,295.231,474.96,295.79,474.271,295.79z
			 M464.286,295.79h-4.991c-0.689,0-1.249-0.559-1.249-1.245c0-0.688,0.56-1.247,1.249-1.247h4.991c0.689,0,1.249,0.559,1.249,1.247
			C465.535,295.231,464.976,295.79,464.286,295.79z M454.303,295.79h-4.992c-0.688,0-1.248-0.559-1.248-1.245
			c0-0.688,0.56-1.247,1.248-1.247h4.992c0.689,0,1.249,0.559,1.249,1.247C455.552,295.231,454.992,295.79,454.303,295.79z
			 M444.319,295.79h-4.992c-0.688,0-1.248-0.559-1.248-1.245c0-0.688,0.56-1.247,1.248-1.247h4.992c0.688,0,1.248,0.559,1.248,1.247
			C445.567,295.231,445.008,295.79,444.319,295.79z M434.336,295.79h-4.992c-0.689,0-1.249-0.559-1.249-1.245
			c0-0.688,0.56-1.247,1.249-1.247h4.992c0.688,0,1.248,0.559,1.248,1.247C435.584,295.231,435.024,295.79,434.336,295.79z
			 M424.352,295.79h-4.991c-0.689,0-1.249-0.559-1.249-1.245c0-0.688,0.56-1.247,1.249-1.247h4.991c0.689,0,1.249,0.559,1.249,1.247
			C425.601,295.231,425.041,295.79,424.352,295.79z M414.368,295.79h-4.992c-0.688,0-1.248-0.559-1.248-1.245
			c0-0.688,0.56-1.247,1.248-1.247h4.992c0.689,0,1.249,0.559,1.249,1.247C415.617,295.231,415.058,295.79,414.368,295.79z
			 M404.385,295.79h-4.992c-0.688,0-1.248-0.559-1.248-1.245c0-0.688,0.56-1.247,1.248-1.247h4.992c0.688,0,1.248,0.559,1.248,1.247
			C405.633,295.231,405.073,295.79,404.385,295.79z M394.401,295.79h-4.992c-0.689,0-1.249-0.559-1.249-1.245
			c0-0.688,0.56-1.247,1.249-1.247h4.992c0.688,0,1.248,0.559,1.248,1.247C395.649,295.231,395.09,295.79,394.401,295.79z
			 M384.417,295.79h-4.991c-0.689,0-1.249-0.559-1.249-1.245c0-0.688,0.56-1.247,1.249-1.247h4.991c0.689,0,1.249,0.559,1.249,1.247
			C385.666,295.231,385.106,295.79,384.417,295.79z M374.434,295.79h-4.991c-0.689,0-1.249-0.559-1.249-1.245
			c0-0.688,0.56-1.247,1.249-1.247h4.991c0.689,0,1.249,0.559,1.249,1.247C375.683,295.231,375.123,295.79,374.434,295.79z
			 M364.45,295.79h-4.993c-0.688,0-1.248-0.559-1.248-1.245c0-0.688,0.56-1.247,1.248-1.247h4.993c0.688,0,1.248,0.559,1.248,1.247
			C365.698,295.231,365.139,295.79,364.45,295.79z M354.465,295.79h-4.991c-0.689,0-1.249-0.559-1.249-1.245
			c0-0.688,0.56-1.247,1.249-1.247h4.991c0.689,0,1.249,0.559,1.249,1.247C355.714,295.231,355.154,295.79,354.465,295.79z
			 M344.481,295.79h-4.991c-0.689,0-1.249-0.559-1.249-1.245c0-0.688,0.56-1.247,1.249-1.247h4.991c0.689,0,1.249,0.559,1.249,1.247
			C345.73,295.231,345.171,295.79,344.481,295.79z M334.498,295.79h-4.992c-0.688,0-1.248-0.559-1.248-1.245
			c0-0.688,0.56-1.247,1.248-1.247h4.992c0.689,0,1.248,0.559,1.248,1.247C335.746,295.231,335.188,295.79,334.498,295.79z
			 M324.515,295.79h-4.992c-0.688,0-1.248-0.559-1.248-1.245c0-0.688,0.56-1.247,1.248-1.247h4.992c0.688,0,1.248,0.559,1.248,1.247
			C325.763,295.231,325.203,295.79,324.515,295.79z M314.531,295.79h-4.992c-0.689,0-1.249-0.559-1.249-1.245
			c0-0.688,0.56-1.247,1.249-1.247h4.992c0.688,0,1.248,0.559,1.248,1.247C315.779,295.231,315.22,295.79,314.531,295.79z"/>
	</g>
	<g>
		<path fill="#536B8B" d="M306.807,289.207c-0.32,0-0.639-0.121-0.883-0.364c-0.487-0.486-0.487-1.275,0-1.762l3.53-3.523
			c0.488-0.485,1.277-0.485,1.766,0c0.487,0.486,0.487,1.275,0,1.762l-3.53,3.523C307.445,289.086,307.127,289.207,306.807,289.207z
			 M313.867,282.162c-0.32,0-0.639-0.123-0.883-0.366c-0.487-0.486-0.487-1.275,0-1.762l3.528-3.521
			c0.489-0.485,1.277-0.485,1.766,0c0.487,0.486,0.487,1.275,0,1.762l-3.528,3.521C314.506,282.039,314.187,282.162,313.867,282.162
			z M320.926,275.116c-0.319,0-0.639-0.122-0.883-0.365c-0.487-0.486-0.487-1.275,0-1.762l3.53-3.523
			c0.488-0.485,1.277-0.485,1.766,0c0.487,0.486,0.487,1.275,0,1.762l-3.53,3.523C321.564,274.994,321.246,275.116,320.926,275.116z
			 M327.986,268.07c-0.32,0-0.639-0.123-0.883-0.366c-0.487-0.486-0.487-1.275,0-1.762l3.529-3.521c0.489-0.485,1.277-0.485,1.766,0
			c0.487,0.487,0.487,1.276,0,1.763l-3.529,3.521C328.625,267.947,328.306,268.07,327.986,268.07z M335.045,261.025
			c-0.32,0-0.639-0.123-0.883-0.365c-0.487-0.486-0.487-1.276,0-1.763l3.53-3.523c0.488-0.484,1.277-0.484,1.766,0
			c0.487,0.486,0.487,1.276,0,1.763l-3.53,3.523C335.684,260.902,335.365,261.025,335.045,261.025z M342.105,253.979
			c-0.32,0-0.639-0.123-0.883-0.364c-0.487-0.488-0.487-1.277,0-1.763l3.529-3.522c0.49-0.485,1.278-0.484,1.766,0
			c0.487,0.487,0.487,1.276,0,1.763l-3.529,3.522C342.743,253.855,342.425,253.979,342.105,253.979z M349.165,246.934
			c-0.319,0-0.639-0.123-0.883-0.365c-0.487-0.486-0.487-1.275,0-1.763l3.529-3.523c0.488-0.484,1.276-0.484,1.766,0
			c0.487,0.486,0.487,1.275,0,1.763l-3.529,3.523C349.804,246.811,349.485,246.934,349.165,246.934z M356.224,239.887
			c-0.319,0-0.638-0.122-0.883-0.364c-0.487-0.487-0.487-1.276,0-1.763l3.53-3.522c0.488-0.485,1.277-0.485,1.766,0
			c0.487,0.488,0.487,1.276,0,1.763l-3.53,3.522C356.862,239.765,356.544,239.887,356.224,239.887z M363.284,232.842
			c-0.32,0-0.639-0.122-0.883-0.365c-0.487-0.486-0.487-1.275,0-1.762l3.53-3.522c0.488-0.485,1.277-0.485,1.766,0
			c0.487,0.485,0.487,1.275,0,1.761l-3.53,3.523C363.923,232.72,363.604,232.842,363.284,232.842z M370.343,225.795
			c-0.319,0-0.639-0.121-0.883-0.364c-0.487-0.487-0.487-1.275,0-1.762l3.53-3.522c0.488-0.485,1.277-0.485,1.766,0
			c0.487,0.487,0.487,1.275,0,1.762l-3.53,3.522C370.981,225.674,370.663,225.795,370.343,225.795z M377.403,218.75
			c-0.32,0-0.639-0.122-0.883-0.365c-0.487-0.486-0.487-1.275,0-1.762l3.53-3.522c0.488-0.485,1.276-0.485,1.766,0
			c0.486,0.486,0.486,1.275,0,1.762l-3.53,3.522C378.042,218.628,377.723,218.75,377.403,218.75z M384.463,211.704
			c-0.319,0-0.639-0.121-0.883-0.365c-0.487-0.485-0.487-1.274,0-1.761l3.529-3.522c0.488-0.486,1.277-0.487,1.766-0.001
			c0.487,0.486,0.487,1.274,0,1.761l-3.529,3.523C385.102,211.582,384.783,211.704,384.463,211.704z M391.522,204.658
			c-0.32,0-0.639-0.121-0.883-0.364c-0.487-0.486-0.487-1.275,0-1.762l3.529-3.522c0.489-0.486,1.277-0.486,1.766,0
			c0.487,0.486,0.487,1.274,0,1.761l-3.529,3.523C392.161,204.537,391.842,204.658,391.522,204.658z M398.582,197.613
			c-0.319,0-0.639-0.122-0.883-0.365c-0.487-0.486-0.487-1.275,0-1.762l3.53-3.522c0.488-0.486,1.277-0.486,1.766,0
			c0.487,0.486,0.487,1.274,0,1.761l-3.53,3.523C399.221,197.491,398.902,197.613,398.582,197.613z M405.642,190.567
			c-0.32,0-0.639-0.122-0.883-0.365c-0.487-0.486-0.487-1.275,0-1.762l3.529-3.522c0.488-0.486,1.277-0.486,1.766,0
			c0.487,0.486,0.487,1.274,0,1.761l-3.529,3.523C406.279,190.445,405.961,190.567,405.642,190.567z M412.701,183.521
			c-0.319,0-0.639-0.122-0.883-0.365c-0.487-0.486-0.487-1.274,0-1.761l3.53-3.523c0.488-0.486,1.277-0.486,1.766,0
			c0.487,0.486,0.487,1.274,0,1.762l-3.53,3.522C413.34,183.399,413.021,183.521,412.701,183.521z M419.762,176.476
			c-0.32,0-0.639-0.121-0.883-0.364c-0.487-0.486-0.487-1.275,0-1.762l3.528-3.523c0.488-0.486,1.277-0.486,1.766,0
			c0.487,0.486,0.487,1.275,0,1.762l-3.528,3.522C420.4,176.354,420.081,176.476,419.762,176.476z M426.82,169.43
			c-0.32,0-0.639-0.122-0.883-0.365c-0.487-0.485-0.487-1.274,0-1.761l3.53-3.523c0.488-0.486,1.277-0.486,1.766,0
			c0.487,0.486,0.487,1.275,0,1.762l-3.53,3.522C427.459,169.308,427.141,169.43,426.82,169.43z M433.881,162.385
			c-0.32,0-0.639-0.122-0.883-0.365c-0.487-0.486-0.487-1.275,0-1.762l3.529-3.523c0.488-0.485,1.277-0.485,1.766,0
			c0.487,0.486,0.487,1.275,0,1.762l-3.53,3.523C434.519,162.263,434.2,162.385,433.881,162.385z M440.939,155.338
			c-0.32,0-0.639-0.122-0.883-0.365c-0.487-0.486-0.487-1.274,0-1.762l3.53-3.522c0.488-0.486,1.276-0.485,1.766,0.001
			c0.487,0.486,0.487,1.274,0,1.761l-3.53,3.523C441.578,155.217,441.259,155.338,440.939,155.338z M447.999,148.292
			c-0.319,0-0.639-0.122-0.883-0.365c-0.487-0.486-0.487-1.274,0-1.762l3.53-3.521c0.488-0.486,1.277-0.486,1.766,0
			c0.487,0.486,0.487,1.274,0,1.762l-3.53,3.522C448.638,148.171,448.319,148.292,447.999,148.292z M455.06,141.246
			c-0.32,0-0.639-0.121-0.883-0.364c-0.487-0.486-0.487-1.275,0-1.762l3.528-3.522c0.489-0.486,1.277-0.486,1.766,0
			c0.487,0.486,0.487,1.275,0,1.761l-3.528,3.523C455.698,141.125,455.379,141.246,455.06,141.246z M462.118,134.2
			c-0.319,0-0.639-0.121-0.883-0.364c-0.487-0.486-0.487-1.275,0-1.762l3.53-3.522c0.488-0.486,1.277-0.486,1.766,0
			c0.487,0.486,0.487,1.275,0,1.762l-3.53,3.522C462.757,134.079,462.438,134.2,462.118,134.2z M469.179,127.155
			c-0.32,0-0.639-0.122-0.883-0.365c-0.487-0.486-0.487-1.275,0-1.762l3.53-3.522c0.488-0.485,1.276-0.486,1.766,0
			c0.486,0.486,0.486,1.275,0,1.762l-3.53,3.522C469.817,127.033,469.498,127.155,469.179,127.155z M476.237,120.109
			c-0.319,0-0.639-0.122-0.883-0.365c-0.487-0.486-0.487-1.275,0-1.762l2.555-2.549c0.488-0.485,1.277-0.486,1.766,0
			c0.487,0.487,0.487,1.275,0,1.762l-2.555,2.549C476.876,119.987,476.558,120.109,476.237,120.109z"/>
	</g>
	<g>
		<path fill="#536B8B" d="M304.076,295.79h-4.992c-0.689,0-1.249-0.559-1.249-1.245c0-0.688,0.56-1.247,1.249-1.247h4.992
			c0.688,0,1.248,0.559,1.248,1.247C305.324,295.231,304.765,295.79,304.076,295.79z M294.092,295.79h-4.991
			c-0.689,0-1.249-0.559-1.249-1.245c0-0.688,0.56-1.247,1.249-1.247h4.991c0.689,0,1.249,0.559,1.249,1.247
			C295.341,295.231,294.781,295.79,294.092,295.79z M284.108,295.79h-4.992c-0.688,0-1.248-0.559-1.248-1.245
			c0-0.688,0.56-1.247,1.248-1.247h4.992c0.689,0,1.249,0.559,1.249,1.247C285.357,295.231,284.798,295.79,284.108,295.79z
			 M274.125,295.79h-4.992c-0.688,0-1.248-0.559-1.248-1.245c0-0.688,0.56-1.247,1.248-1.247h4.992c0.688,0,1.248,0.559,1.248,1.247
			C275.373,295.231,274.813,295.79,274.125,295.79z M264.142,295.79h-4.992c-0.689,0-1.249-0.559-1.249-1.245
			c0-0.688,0.56-1.247,1.249-1.247h4.992c0.688,0,1.248,0.559,1.248,1.247C265.39,295.231,264.83,295.79,264.142,295.79z
			 M254.157,295.79h-4.992c-0.689,0-1.249-0.559-1.249-1.245c0-0.688,0.56-1.247,1.249-1.247h4.992c0.689,0,1.249,0.559,1.249,1.247
			C255.406,295.231,254.847,295.79,254.157,295.79z M244.173,295.79h-4.992c-0.688,0-1.248-0.559-1.248-1.245
			c0-0.688,0.56-1.247,1.248-1.247h4.992c0.688,0,1.248,0.559,1.248,1.247C245.421,295.231,244.861,295.79,244.173,295.79z
			 M234.189,295.79h-4.992c-0.689,0-1.248-0.559-1.248-1.245c0-0.688,0.559-1.247,1.248-1.247h4.992
			c0.688,0,1.248,0.559,1.248,1.247C235.438,295.231,234.878,295.79,234.189,295.79z M224.205,295.79h-4.991
			c-0.689,0-1.249-0.559-1.249-1.245c0-0.688,0.56-1.247,1.249-1.247h4.991c0.689,0,1.249,0.559,1.249,1.247
			C225.454,295.231,224.895,295.79,224.205,295.79z M214.222,295.79h-4.991c-0.689,0-1.249-0.559-1.249-1.245
			c0-0.688,0.56-1.247,1.249-1.247h4.991c0.689,0,1.249,0.559,1.249,1.247C215.471,295.231,214.911,295.79,214.222,295.79z
			 M204.238,295.79h-4.992c-0.688,0-1.248-0.559-1.248-1.245c0-0.688,0.56-1.247,1.248-1.247h4.992c0.689,0,1.248,0.559,1.248,1.247
			C205.486,295.231,204.928,295.79,204.238,295.79z M194.255,295.79h-4.992c-0.688,0-1.248-0.559-1.248-1.245
			c0-0.688,0.56-1.247,1.248-1.247h4.992c0.688,0,1.248,0.559,1.248,1.247C195.503,295.231,194.943,295.79,194.255,295.79z
			 M184.271,295.79h-4.991c-0.689,0-1.249-0.559-1.249-1.245c0-0.688,0.56-1.247,1.249-1.247h4.991c0.689,0,1.249,0.559,1.249,1.247
			C185.52,295.231,184.96,295.79,184.271,295.79z M174.287,295.79h-4.991c-0.689,0-1.249-0.559-1.249-1.245
			c0-0.688,0.56-1.247,1.249-1.247h4.991c0.689,0,1.249,0.559,1.249,1.247C175.536,295.231,174.977,295.79,174.287,295.79z
			 M164.304,295.79h-4.992c-0.688,0-1.248-0.559-1.248-1.245c0-0.688,0.56-1.247,1.248-1.247h4.992c0.689,0,1.248,0.559,1.248,1.247
			C165.552,295.231,164.993,295.79,164.304,295.79z M154.32,295.79h-4.993c-0.689,0-1.249-0.559-1.249-1.245
			c0-0.688,0.56-1.247,1.249-1.247h4.993c0.688,0,1.248,0.559,1.248,1.247C155.568,295.231,155.009,295.79,154.32,295.79z
			 M144.335,295.79h-4.991c-0.689,0-1.249-0.559-1.249-1.245c0-0.688,0.56-1.247,1.249-1.247h4.991c0.689,0,1.249,0.559,1.249,1.247
			C145.584,295.231,145.024,295.79,144.335,295.79z M134.352,295.79h-4.992c-0.688,0-1.248-0.559-1.248-1.245
			c0-0.688,0.56-1.247,1.248-1.247h4.992c0.689,0,1.249,0.559,1.249,1.247C135.601,295.231,135.041,295.79,134.352,295.79z
			 M124.368,295.79h-4.992c-0.688,0-1.248-0.559-1.248-1.245c0-0.688,0.56-1.247,1.248-1.247h4.992c0.688,0,1.248,0.559,1.248,1.247
			C125.616,295.231,125.057,295.79,124.368,295.79z M114.385,295.79h-4.992c-0.689,0-1.248-0.559-1.248-1.245
			c0-0.688,0.559-1.247,1.248-1.247h4.992c0.688,0,1.248,0.559,1.248,1.247C115.633,295.231,115.073,295.79,114.385,295.79z
			 M104.4,295.79h-4.991c-0.689,0-1.249-0.559-1.249-1.245c0-0.688,0.56-1.247,1.249-1.247h4.991c0.689,0,1.249,0.559,1.249,1.247
			C105.649,295.231,105.09,295.79,104.4,295.79z M94.417,295.79h-4.991c-0.689,0-1.249-0.559-1.249-1.245
			c0-0.688,0.56-1.247,1.249-1.247h4.991c0.689,0,1.249,0.559,1.249,1.247C95.666,295.231,95.106,295.79,94.417,295.79z
			 M84.434,295.79h-4.992c-0.688,0-1.248-0.559-1.248-1.245c0-0.688,0.56-1.247,1.248-1.247h4.992c0.688,0,1.248,0.559,1.248,1.247
			C85.682,295.231,85.122,295.79,84.434,295.79z M74.45,295.79h-4.992c-0.689,0-1.248-0.559-1.248-1.245
			c0-0.688,0.559-1.247,1.248-1.247h4.992c0.688,0,1.248,0.559,1.248,1.247C75.698,295.231,75.139,295.79,74.45,295.79z
			 M64.466,295.79h-3.611c-0.688,0-1.248-0.559-1.248-1.245c0-0.688,0.56-1.247,1.248-1.247h3.611c0.689,0,1.249,0.559,1.249,1.247
			C65.715,295.231,65.155,295.79,64.466,295.79z"/>
	</g>
	<g>
		<path fill="#536B8B" d="M306.807,289.207c-0.32,0-0.639-0.121-0.883-0.364l-3.53-3.523c-0.487-0.486-0.487-1.275,0-1.762
			c0.488-0.485,1.277-0.485,1.766,0l3.53,3.523c0.487,0.486,0.487,1.275,0,1.762C307.445,289.086,307.127,289.207,306.807,289.207z
			 M299.746,282.162c-0.319,0-0.638-0.123-0.882-0.366l-3.529-3.521c-0.487-0.486-0.487-1.275,0-1.762
			c0.488-0.485,1.277-0.485,1.766,0l3.528,3.521c0.487,0.486,0.487,1.275,0,1.762C300.385,282.039,300.066,282.162,299.746,282.162z
			 M292.688,275.116c-0.319,0-0.639-0.122-0.883-0.365l-3.53-3.523c-0.487-0.486-0.487-1.275,0-1.762
			c0.489-0.485,1.277-0.485,1.766,0l3.53,3.523c0.487,0.486,0.487,1.275,0,1.762C293.326,274.994,293.008,275.116,292.688,275.116z
			 M285.628,268.07c-0.32,0-0.639-0.123-0.883-0.366l-3.529-3.521c-0.487-0.486-0.487-1.276,0-1.763
			c0.488-0.485,1.277-0.485,1.766,0l3.529,3.521c0.487,0.486,0.487,1.275,0,1.762C286.267,267.947,285.947,268.07,285.628,268.07z
			 M278.568,261.025c-0.319,0-0.639-0.123-0.883-0.365l-3.529-3.523c-0.487-0.486-0.487-1.276,0-1.763
			c0.488-0.484,1.276-0.484,1.765,0l3.53,3.523c0.487,0.486,0.487,1.276,0,1.763C279.207,260.902,278.889,261.025,278.568,261.025z
			 M271.509,253.979c-0.32,0-0.639-0.123-0.883-0.364l-3.53-3.523c-0.487-0.486-0.487-1.276,0-1.763
			c0.488-0.485,1.277-0.485,1.766,0l3.53,3.523c0.487,0.485,0.487,1.276,0,1.763C272.147,253.855,271.828,253.979,271.509,253.979z
			 M264.449,246.934c-0.319,0-0.639-0.123-0.883-0.365l-3.529-3.523c-0.487-0.486-0.487-1.276,0-1.763
			c0.488-0.484,1.276-0.484,1.766,0l3.529,3.523c0.487,0.486,0.487,1.276,0,1.763C265.088,246.811,264.77,246.934,264.449,246.934z
			 M257.39,239.887c-0.32,0-0.639-0.122-0.883-0.364l-3.53-3.523c-0.487-0.486-0.487-1.275,0-1.763c0.488-0.485,1.277-0.485,1.766,0
			l3.53,3.523c0.487,0.486,0.487,1.276,0,1.763C258.028,239.765,257.709,239.887,257.39,239.887z M250.331,232.842
			c-0.32,0-0.639-0.122-0.883-0.365l-3.53-3.523c-0.487-0.485-0.487-1.275,0-1.761c0.488-0.485,1.277-0.485,1.766,0l3.529,3.522
			c0.487,0.486,0.487,1.275,0,1.762C250.969,232.72,250.65,232.842,250.331,232.842z M243.271,225.795
			c-0.32,0-0.639-0.121-0.883-0.364l-3.53-3.523c-0.487-0.486-0.487-1.275,0-1.762c0.488-0.485,1.277-0.485,1.766,0l3.53,3.523
			c0.487,0.486,0.487,1.275,0,1.762C243.909,225.674,243.591,225.795,243.271,225.795z M236.21,218.749
			c-0.319,0-0.638-0.122-0.883-0.365l-3.528-3.521c-0.487-0.486-0.487-1.275,0-1.762c0.488-0.485,1.277-0.485,1.766,0l3.528,3.521
			c0.487,0.486,0.487,1.275,0,1.762C236.849,218.627,236.53,218.749,236.21,218.749z M229.151,211.703
			c-0.319,0-0.639-0.121-0.883-0.364l-3.53-3.524c-0.487-0.485-0.487-1.273,0-1.76c0.488-0.486,1.277-0.486,1.766,0l3.53,3.522
			c0.487,0.487,0.487,1.274,0,1.762C229.79,211.582,229.472,211.703,229.151,211.703z M222.092,204.658
			c-0.32,0-0.639-0.122-0.883-0.365l-3.529-3.523c-0.487-0.486-0.487-1.275,0-1.762c0.488-0.486,1.277-0.485,1.766,0.001
			l3.529,3.523c0.487,0.486,0.487,1.275,0,1.762C222.729,204.537,222.411,204.658,222.092,204.658z M215.032,197.612
			c-0.319,0-0.639-0.122-0.883-0.365l-3.53-3.523c-0.486-0.486-0.486-1.274,0-1.761c0.489-0.486,1.277-0.486,1.766,0l3.53,3.523
			c0.487,0.486,0.487,1.274,0,1.761C215.671,197.49,215.353,197.612,215.032,197.612z M207.973,190.566
			c-0.32,0-0.639-0.122-0.883-0.365l-3.53-3.523c-0.487-0.485-0.487-1.274,0-1.761c0.488-0.486,1.277-0.486,1.766,0l3.53,3.522
			c0.487,0.486,0.487,1.275,0,1.762C208.611,190.444,208.292,190.566,207.973,190.566z M200.913,183.521
			c-0.319,0-0.639-0.122-0.883-0.365l-3.529-3.521c-0.487-0.487-0.487-1.275,0-1.762c0.488-0.486,1.276-0.487,1.766,0l3.529,3.521
			c0.487,0.487,0.487,1.275,0,1.762C201.552,183.398,201.233,183.521,200.913,183.521z M193.854,176.475
			c-0.32,0-0.639-0.121-0.883-0.364l-3.53-3.522c-0.487-0.487-0.487-1.275,0-1.762c0.488-0.486,1.277-0.487,1.766-0.001l3.53,3.522
			c0.487,0.487,0.487,1.275,0,1.762C194.492,176.353,194.173,176.475,193.854,176.475z M186.794,169.429
			c-0.319,0-0.638-0.121-0.883-0.364l-3.529-3.523c-0.487-0.486-0.487-1.274,0-1.761c0.488-0.486,1.277-0.487,1.766-0.001
			l3.529,3.522c0.487,0.487,0.487,1.275,0,1.762C187.433,169.307,187.114,169.429,186.794,169.429z M179.734,162.383
			c-0.32,0-0.639-0.122-0.883-0.365l-3.53-3.522c-0.487-0.486-0.487-1.275,0-1.762c0.488-0.486,1.277-0.486,1.766,0l3.53,3.523
			c0.487,0.486,0.487,1.274,0,1.761C180.373,162.261,180.054,162.383,179.734,162.383z M172.674,155.337
			c-0.319,0-0.639-0.122-0.883-0.365l-3.528-3.522c-0.487-0.486-0.487-1.275,0-1.762c0.488-0.486,1.277-0.486,1.766,0l3.528,3.523
			c0.487,0.486,0.487,1.275,0,1.762C173.313,155.216,172.994,155.337,172.674,155.337z M165.615,148.292
			c-0.319,0-0.639-0.123-0.883-0.366l-3.53-3.522c-0.487-0.486-0.487-1.274,0-1.761c0.488-0.486,1.277-0.486,1.766,0l3.53,3.522
			c0.487,0.487,0.487,1.275,0,1.761C166.254,148.169,165.936,148.292,165.615,148.292z M158.556,141.246
			c-0.32,0-0.639-0.122-0.883-0.365l-3.529-3.523c-0.487-0.486-0.487-1.275,0-1.762c0.488-0.486,1.277-0.485,1.766,0.001
			l3.529,3.523c0.486,0.486,0.486,1.275,0,1.762C159.193,141.125,158.875,141.246,158.556,141.246z M151.496,134.2
			c-0.319,0-0.639-0.122-0.883-0.365l-3.53-3.523c-0.487-0.486-0.487-1.274,0-1.761c0.489-0.486,1.277-0.486,1.766,0l3.53,3.523
			c0.487,0.486,0.487,1.274,0,1.761C152.135,134.078,151.816,134.2,151.496,134.2z M144.437,127.154
			c-0.32,0-0.639-0.122-0.883-0.365l-3.53-3.522c-0.487-0.487-0.487-1.275,0-1.762c0.488-0.486,1.277-0.486,1.766,0l3.53,3.522
			c0.487,0.486,0.487,1.275,0,1.762C145.075,127.032,144.756,127.154,144.437,127.154z M137.377,120.108
			c-0.319,0-0.639-0.122-0.883-0.365l-2.553-2.548c-0.487-0.486-0.487-1.274,0-1.762c0.488-0.486,1.277-0.486,1.766,0l2.553,2.548
			c0.487,0.486,0.487,1.275,0,1.762C138.016,119.986,137.697,120.108,137.377,120.108z"/>
	</g>
	<g>
		<path fill="#536B8B" d="M313.402,286.482c-0.689,0-1.248-0.559-1.248-1.247v-4.981c0-0.688,0.559-1.246,1.248-1.246
			s1.249,0.559,1.249,1.246v4.981C314.651,285.924,314.092,286.482,313.402,286.482z M313.402,276.519
			c-0.689,0-1.248-0.559-1.248-1.247v-4.982c0-0.687,0.559-1.245,1.248-1.245s1.249,0.559,1.249,1.245v4.982
			C314.651,275.96,314.092,276.519,313.402,276.519z M313.402,266.554c-0.689,0-1.248-0.559-1.248-1.246v-4.982
			c0-0.687,0.559-1.245,1.248-1.245s1.249,0.559,1.249,1.245v4.982C314.651,265.995,314.092,266.554,313.402,266.554z
			 M313.402,256.59c-0.689,0-1.248-0.559-1.248-1.246v-4.982c0-0.688,0.559-1.246,1.248-1.246s1.249,0.559,1.249,1.246v4.982
			C314.651,256.031,314.092,256.59,313.402,256.59z M313.402,246.626c-0.689,0-1.248-0.559-1.248-1.247v-4.981
			c0-0.688,0.559-1.246,1.248-1.246s1.249,0.559,1.249,1.246v4.981C314.651,246.067,314.092,246.626,313.402,246.626z
			 M313.402,236.662c-0.689,0-1.248-0.559-1.248-1.247v-4.983c0-0.688,0.559-1.245,1.248-1.245s1.249,0.558,1.249,1.245v4.983
			C314.651,236.104,314.092,236.662,313.402,236.662z M313.402,226.696c-0.689,0-1.248-0.559-1.248-1.246v-4.982
			c0-0.688,0.559-1.245,1.248-1.245s1.249,0.557,1.249,1.245v4.982C314.651,226.138,314.092,226.696,313.402,226.696z
			 M313.402,216.732c-0.689,0-1.248-0.559-1.248-1.247v-4.981c0-0.688,0.559-1.245,1.248-1.245s1.249,0.558,1.249,1.245v4.981
			C314.651,216.174,314.092,216.732,313.402,216.732z M313.402,206.768c-0.689,0-1.248-0.558-1.248-1.246v-4.981
			c0-0.688,0.559-1.246,1.248-1.246s1.249,0.559,1.249,1.246v4.981C314.651,206.21,314.092,206.768,313.402,206.768z
			 M313.402,196.804c-0.689,0-1.248-0.559-1.248-1.246v-4.981c0-0.688,0.559-1.246,1.248-1.246s1.249,0.558,1.249,1.246v4.981
			C314.651,196.245,314.092,196.804,313.402,196.804z M313.402,186.839c-0.689,0-1.248-0.558-1.248-1.245v-4.982
			c0-0.688,0.559-1.245,1.248-1.245s1.249,0.558,1.249,1.245v4.982C314.651,186.281,314.092,186.839,313.402,186.839z
			 M313.402,176.875c-0.689,0-1.248-0.558-1.248-1.245v-4.982c0-0.688,0.559-1.246,1.248-1.246s1.249,0.559,1.249,1.246v4.982
			C314.651,176.317,314.092,176.875,313.402,176.875z M313.402,166.91c-0.689,0-1.248-0.557-1.248-1.245v-4.982
			c0-0.688,0.559-1.245,1.248-1.245s1.249,0.558,1.249,1.245v4.982C314.651,166.354,314.092,166.91,313.402,166.91z
			 M313.402,156.946c-0.689,0-1.248-0.558-1.248-1.246v-4.981c0-0.688,0.559-1.246,1.248-1.246s1.249,0.558,1.249,1.246v4.981
			C314.651,156.389,314.092,156.946,313.402,156.946z M313.402,146.981c-0.689,0-1.248-0.558-1.248-1.245v-4.982
			c0-0.688,0.559-1.245,1.248-1.245s1.249,0.558,1.249,1.245v4.982C314.651,146.424,314.092,146.981,313.402,146.981z
			 M313.402,137.018c-0.689,0-1.248-0.558-1.248-1.245v-4.982c0-0.688,0.559-1.245,1.248-1.245s1.249,0.558,1.249,1.245v4.982
			C314.651,136.46,314.092,137.018,313.402,137.018z M313.402,127.054c-0.689,0-1.248-0.558-1.248-1.246v-4.981
			c0-0.688,0.559-1.246,1.248-1.246s1.249,0.559,1.249,1.246v4.981C314.651,126.496,314.092,127.054,313.402,127.054z
			 M313.402,117.09c-0.689,0-1.248-0.559-1.248-1.246v-4.981c0-0.688,0.559-1.246,1.248-1.246s1.249,0.559,1.249,1.246v4.981
			C314.651,116.531,314.092,117.09,313.402,117.09z M313.402,107.125c-0.689,0-1.248-0.558-1.248-1.245v-4.982
			c0-0.688,0.559-1.246,1.248-1.246s1.249,0.558,1.249,1.246v4.982C314.651,106.567,314.092,107.125,313.402,107.125z
			 M313.402,97.161c-0.689,0-1.248-0.559-1.248-1.246v-4.981c0-0.688,0.559-1.246,1.248-1.246s1.249,0.558,1.249,1.246v4.981
			C314.651,96.603,314.092,97.161,313.402,97.161z M313.402,87.196c-0.689,0-1.248-0.558-1.248-1.246v-4.981
			c0-0.688,0.559-1.246,1.248-1.246s1.249,0.559,1.249,1.246v4.981C314.651,86.639,314.092,87.196,313.402,87.196z M313.402,77.232
			c-0.689,0-1.248-0.558-1.248-1.246v-4.981c0-0.688,0.559-1.246,1.248-1.246s1.249,0.558,1.249,1.246v4.981
			C314.651,76.675,314.092,77.232,313.402,77.232z M313.402,67.268c-0.689,0-1.248-0.558-1.248-1.245V61.04
			c0-0.688,0.559-1.245,1.248-1.245s1.249,0.558,1.249,1.245v4.982C314.651,66.71,314.092,67.268,313.402,67.268z M313.402,57.304
			c-0.689,0-1.248-0.558-1.248-1.245v-4.982c0-0.688,0.559-1.245,1.248-1.245s1.249,0.558,1.249,1.245v4.982
			C314.651,56.746,314.092,57.304,313.402,57.304z M313.402,47.34c-0.689,0-1.248-0.558-1.248-1.246v-3.605
			c0-0.688,0.559-1.245,1.248-1.245s1.249,0.558,1.249,1.245v3.605C314.651,46.782,314.092,47.34,313.402,47.34z"/>
	</g>
	<g>
		<rect x="161.358" y="190.882" fill-rule="evenodd" clip-rule="evenodd" fill="#96A0BB" width="304.088" height="207.326"/>
		<path fill="#536B8B" d="M465.446,399.504H161.358c-0.717,0-1.298-0.58-1.298-1.296V190.882c0-0.716,0.581-1.295,1.298-1.295
			h304.088c0.717,0,1.298,0.579,1.298,1.295v207.326C466.744,398.924,466.163,399.504,465.446,399.504z M162.656,396.913h301.492
			V192.177H162.656V396.913z"/>
	</g>
	<g>
		<rect x="180.505" y="217.668" fill-rule="evenodd" clip-rule="evenodd" fill="#5285C4" width="265.796" height="155.354"/>
		<path fill="#536B8B" d="M446.301,374.317H180.505c-0.717,0-1.298-0.58-1.298-1.295V217.668c0-0.715,0.581-1.296,1.298-1.296
			h265.796c0.716,0,1.297,0.581,1.297,1.296v155.354C447.598,373.737,447.017,374.317,446.301,374.317z M181.803,371.727h263.2
			V218.963h-263.2V371.727z"/>
	</g>
	<g>
		<polygon fill-rule="evenodd" clip-rule="evenodd" fill="#638DC9" points="182.023,371.984 443.519,219.145 182.023,219.145 		"/>
	</g>
	<g>
		<path fill-rule="evenodd" clip-rule="evenodd" fill="#96A0BB" d="M128.305,384.711H498.5v13.498
			c0,7.425-6.084,13.495-13.521,13.495h-343.15c-7.438,0-13.523-6.07-13.523-13.495V384.711z"/>
		<path fill="#536B8B" d="M484.979,413h-343.15c-8.173,0-14.821-6.636-14.821-14.791v-13.498c0-0.714,0.582-1.294,1.298-1.294H498.5
			c0.717,0,1.298,0.58,1.298,1.294v13.498C499.798,406.364,493.149,413,484.979,413z M129.603,386.007v12.202
			c0,6.728,5.484,12.2,12.226,12.2h343.15c6.74,0,12.224-5.473,12.224-12.2v-12.202H129.603z"/>
	</g>
	<g>
		<path fill-rule="evenodd" clip-rule="evenodd" fill="#7A88AB" d="M497.063,398.767c-0.315,6.352-5.617,11.445-12.055,11.445
			H141.83c-6.437,0-11.737-5.094-12.054-11.445H497.063z"/>
	</g>
	<g>
		<path fill-rule="evenodd" clip-rule="evenodd" fill="#537AAD" d="M230.4,341.563l137.475-0.382v7.562L230.4,349.125V341.563
			L230.4,341.563z M230.4,245.729h142.67v7.563H230.4V245.729L230.4,245.729z M230.4,293.646h142.813v7.561H230.4V293.646
			L230.4,293.646z M230.4,309.618h63.835v7.563H230.4V309.618L230.4,309.618z M303.321,309.618h27.771v7.563h-27.771V309.618
			L303.321,309.618z M230.4,277.674h105.43v7.562H230.4V277.674L230.4,277.674z M230.4,261.701h25.4v7.562h-25.4V261.701
			L230.4,261.701z M350.97,261.701h37.391v7.562H350.97V261.701L350.97,261.701z M301.215,261.701h38.038v7.562h-38.038V261.701
			L301.215,261.701z M230.4,325.591h156.787v7.562H230.4V325.591z"/>
	</g>
	<g>
		<path fill-rule="evenodd" clip-rule="evenodd" fill="#5981B1" d="M230.4,343.859l3.949-2.308l-3.949,0.011V343.859L230.4,343.859z
			 M248.719,333.152l12.938-7.562H230.4v7.562H248.719L248.719,333.152z M276.045,317.181l12.938-7.563H230.4v7.563H276.045
			L276.045,317.181z M303.372,301.207l12.938-7.561H230.4v7.561H303.372L303.372,301.207z M330.7,285.235l5.13-2.999v-4.563H230.4
			v7.562H330.7L330.7,285.235z M358.025,269.263l12.939-7.562H350.97v7.562H358.025L358.025,269.263z M230.4,245.729h142.67v7.563
			H230.4V245.729L230.4,245.729z M230.4,261.701h25.4v7.562h-25.4V261.701L230.4,261.701z M301.215,261.701h38.038v7.562h-38.038
			V261.701z"/>
	</g>
	<g>
		<g>
			<polygon fill-rule="evenodd" clip-rule="evenodd" fill="#A2BAF0" points="313.402,235.687 339.286,250.603 365.17,265.517 
				336.504,282.033 324.953,275.377 313.402,268.722 301.852,275.377 290.302,282.033 290.302,295.344 290.302,308.657 
				301.852,315.313 313.402,321.969 324.953,315.313 336.504,308.657 365.17,325.175 339.286,340.089 313.402,355.004 
				287.52,340.089 261.636,325.175 261.636,295.344 261.636,265.517 287.52,250.603 			"/>
			<path fill="#536B8B" d="M313.402,356.249c-0.216,0-0.431-0.056-0.624-0.166l-51.766-29.83c-0.387-0.223-0.625-0.634-0.625-1.078
				v-59.658c0-0.445,0.238-0.856,0.625-1.08l51.766-29.829c0.386-0.222,0.862-0.222,1.248,0l51.768,29.829
				c0.386,0.224,0.625,0.635,0.625,1.08c0,0.444-0.239,0.855-0.625,1.079l-28.666,16.517c-0.385,0.222-0.862,0.222-1.247,0
				l-22.479-12.951l-21.852,12.591v25.187l21.852,12.592l22.479-12.952c0.385-0.223,0.862-0.223,1.247,0l28.666,16.518
				c0.386,0.222,0.625,0.633,0.625,1.079c0,0.444-0.239,0.855-0.625,1.078l-51.768,29.83
				C313.834,356.193,313.618,356.249,313.402,356.249z M262.885,324.455l50.518,29.11l49.271-28.391l-26.17-15.079l-22.478,12.952
				c-0.386,0.222-0.862,0.222-1.248,0l-23.101-13.313c-0.386-0.223-0.624-0.633-0.624-1.078v-26.624
				c0-0.444,0.238-0.855,0.624-1.079l23.101-13.311c0.386-0.223,0.862-0.223,1.248,0l22.478,12.952l26.17-15.079l-49.271-28.392
				l-50.518,29.109V324.455z"/>
		</g>
		<g>
			<polygon fill-rule="evenodd" clip-rule="evenodd" fill="#C7D5F6" points="313.402,321.969 324.953,315.313 336.504,308.657 
				365.17,325.175 339.286,340.089 313.402,355.003 			"/>
			<path fill="#536B8B" d="M313.402,356.248c-0.216,0-0.431-0.056-0.624-0.166c-0.386-0.224-0.624-0.635-0.624-1.079v-33.034
				c0-0.444,0.238-0.855,0.624-1.079l23.103-13.312c0.385-0.223,0.862-0.223,1.247,0l28.666,16.518
				c0.386,0.222,0.625,0.633,0.625,1.079c0,0.444-0.239,0.855-0.625,1.078l-51.768,29.829
				C313.834,356.192,313.618,356.248,313.402,356.248z M314.651,322.688v30.158l48.022-27.671l-26.17-15.079L314.651,322.688z"/>
		</g>
		<g>
			<polygon fill-rule="evenodd" clip-rule="evenodd" fill="#FFFFFF" points="313.402,355.004 287.52,340.089 261.636,325.175 
				261.636,295.344 261.636,265.517 290.302,282.033 290.302,295.344 290.302,308.657 301.852,315.313 313.402,321.969 			"/>
			<path fill="#536B8B" d="M313.402,356.249c-0.216,0-0.431-0.056-0.624-0.166l-51.766-29.83c-0.387-0.223-0.625-0.634-0.625-1.078
				v-59.658c0-0.445,0.238-0.856,0.625-1.08c0.385-0.221,0.862-0.221,1.247,0l28.666,16.518c0.386,0.224,0.625,0.635,0.625,1.079
				v25.905l22.476,12.951c0.387,0.224,0.625,0.635,0.625,1.079v33.035c0,0.444-0.238,0.855-0.625,1.079
				C313.834,356.193,313.618,356.249,313.402,356.249z M262.885,324.455l49.27,28.392v-30.159l-22.477-12.952
				c-0.386-0.223-0.624-0.633-0.624-1.078v-25.905l-26.169-15.079V324.455z"/>
		</g>
	</g>
	<g>
		<ellipse fill-rule="evenodd" clip-rule="evenodd" fill="#7A88AB" cx="313.402" cy="203.478" rx="5.363" ry="5.352"/>
		<path fill="#536B8B" d="M313.402,210.126c-3.673,0-6.661-2.981-6.661-6.647c0-3.665,2.988-6.647,6.661-6.647
			c3.674,0,6.661,2.982,6.661,6.647C320.063,207.145,317.076,210.126,313.402,210.126z M313.402,199.421
			c-2.241,0-4.065,1.82-4.065,4.058c0,2.238,1.824,4.057,4.065,4.057s4.065-1.818,4.065-4.057
			C317.468,201.241,315.644,199.421,313.402,199.421z"/>
	</g>
	<g>
		<path fill-rule="evenodd" clip-rule="evenodd" fill="#96A0BB" d="M261.12,384.711h104.565v3.813c0,2.098-1.718,3.812-3.819,3.812
			h-96.927c-2.101,0-3.819-1.714-3.819-3.812V384.711z"/>
		<path fill="#536B8B" d="M361.866,393.632h-96.927c-2.822,0-5.117-2.291-5.117-5.107v-3.813c0-0.714,0.581-1.294,1.298-1.294
			h104.565c0.717,0,1.298,0.58,1.298,1.294v3.813C366.983,391.341,364.688,393.632,361.866,393.632z M262.418,386.007v2.518
			c0,1.388,1.131,2.517,2.521,2.517h96.927c1.391,0,2.522-1.129,2.522-2.517v-2.518H262.418z"/>
	</g>
	<g>
		<ellipse fill-rule="evenodd" clip-rule="evenodd" fill="#FFFFFF" cx="168.858" cy="150.283" rx="5.956" ry="5.945"/>
		<path fill="#EF6E65" d="M168.858,157.474c-3.973,0-7.205-3.226-7.205-7.19s3.232-7.19,7.205-7.19s7.205,3.226,7.205,7.19
			S172.831,157.474,168.858,157.474z M168.858,145.584c-2.597,0-4.708,2.107-4.708,4.699c0,2.591,2.111,4.699,4.708,4.699
			c2.596,0,4.708-2.108,4.708-4.699C173.566,147.691,171.454,145.584,168.858,145.584z"/>
	</g>
	<g>
		<rect x="77.066" y="45.11" fill-rule="evenodd" clip-rule="evenodd" fill="#536B8B" width="108.335" height="69.797"/>
		<path fill="#536B8B" d="M185.401,116.202H77.066c-0.717,0-1.298-0.58-1.298-1.295V45.11c0-0.715,0.581-1.296,1.298-1.296h108.335
			c0.717,0,1.298,0.581,1.298,1.296v69.797C186.699,115.622,186.118,116.202,185.401,116.202z M78.364,113.611h105.739V46.405
			H78.364V113.611z"/>
	</g>
	<g>
		<rect x="281.918" y="1.246" fill-rule="evenodd" clip-rule="evenodd" fill="#FFFFFF" width="62.417" height="86.768"/>
		<path fill="#536B8B" d="M344.335,89.26h-62.417c-0.689,0-1.248-0.559-1.248-1.246V1.246c0-0.688,0.559-1.246,1.248-1.246h62.417
			c0.689,0,1.247,0.558,1.247,1.246v86.768C345.582,88.701,345.024,89.26,344.335,89.26z M283.165,86.769h59.923V2.491h-59.923
			V86.769z"/>
	</g>
	<g>
		<path fill="#536B8B" d="M321.797,30.278h-7.244c-0.689,0-1.248-0.558-1.248-1.246c0-0.688,0.559-1.245,1.248-1.245h7.244
			c0.689,0,1.248,0.558,1.248,1.245C323.045,29.721,322.486,30.278,321.797,30.278z M308.23,30.278h-15.582
			c-0.688,0-1.247-0.558-1.247-1.246c0-0.688,0.559-1.245,1.247-1.245h15.582c0.689,0,1.247,0.558,1.247,1.245
			C309.478,29.721,308.92,30.278,308.23,30.278z"/>
	</g>
	<g>
		<path fill="#A2BAF0" d="M313.367,78.44h-20.719c-0.688,0-1.248-0.558-1.248-1.245c0-0.688,0.56-1.245,1.248-1.245h20.719
			c0.688,0,1.248,0.557,1.248,1.245C314.615,77.883,314.056,78.44,313.367,78.44z"/>
	</g>
	<g>
		<path fill="#536B8B" d="M331.37,36.353h-38.722c-0.688,0-1.247-0.558-1.247-1.245s0.559-1.246,1.247-1.246h38.722
			c0.689,0,1.248,0.559,1.248,1.246S332.06,36.353,331.37,36.353z"/>
	</g>
	<g>
		<path fill="#536B8B" d="M320.795,47.836h-20.523c-0.688,0-1.247-0.559-1.247-1.246s0.559-1.245,1.247-1.245h20.523
			c0.689,0,1.248,0.558,1.248,1.245S321.484,47.836,320.795,47.836z"/>
	</g>
	<g>
		<path fill="#536B8B" d="M314.833,52.883h-14.562c-0.688,0-1.247-0.559-1.247-1.246s0.559-1.245,1.247-1.245h14.562
			c0.689,0,1.248,0.558,1.248,1.245S315.522,52.883,314.833,52.883z"/>
	</g>
	<g>
		<path fill="#536B8B" d="M323.747,57.93h-23.476c-0.688,0-1.247-0.558-1.247-1.245c0-0.688,0.559-1.246,1.247-1.246h23.476
			c0.689,0,1.248,0.558,1.248,1.246C324.995,57.372,324.437,57.93,323.747,57.93z"/>
	</g>
	<g>
		<path fill="#A2BAF0" d="M326.501,71.609h-12.515c-0.689,0-1.249-0.558-1.249-1.245s0.56-1.246,1.249-1.246h12.515
			c0.689,0,1.249,0.559,1.249,1.246S327.19,71.609,326.501,71.609z M308.665,71.609h-16.017c-0.688,0-1.248-0.558-1.248-1.245
			s0.56-1.246,1.248-1.246h16.017c0.689,0,1.249,0.559,1.249,1.246S309.354,71.609,308.665,71.609z"/>
	</g>
	<g>
		<rect x="78.048" y="57.574" fill-rule="evenodd" clip-rule="evenodd" fill="#A2BAF0" width="106.373" height="44.868"/>
	</g>
	<g>
		<rect x="1.248" y="247.922" fill-rule="evenodd" clip-rule="evenodd" fill="#FFFFFF" width="62.416" height="86.769"/>
		<path fill="#536B8B" d="M63.664,335.936H1.248c-0.689,0-1.248-0.558-1.248-1.245v-86.769c0-0.688,0.559-1.244,1.248-1.244h62.416
			c0.688,0,1.247,0.556,1.247,1.244v86.769C64.911,335.378,64.353,335.936,63.664,335.936z M2.495,333.446h59.921v-84.279H2.495
			V333.446z"/>
	</g>
	<g>
		<rect x="12.036" y="270.086" fill-rule="evenodd" clip-rule="evenodd" fill="#FDD26A" width="17.781" height="11.272"/>
		<path fill="#536B8B" d="M29.817,282.604H12.036c-0.689,0-1.249-0.559-1.249-1.246v-11.272c0-0.688,0.56-1.246,1.249-1.246h17.781
			c0.688,0,1.248,0.559,1.248,1.246v11.272C31.065,282.046,30.506,282.604,29.817,282.604z M13.284,280.112h15.284v-8.78H13.284
			V280.112z"/>
	</g>
	<g>
		<rect x="36.054" y="269.137" fill="#536B8B" width="13.728" height="2.492"/>
	</g>
	<g>
		<rect x="36.054" y="274.772" fill="#536B8B" width="8.112" height="2.492"/>
	</g>
	<g>
		<rect x="36.054" y="280.408" fill="#536B8B" width="13.728" height="2.492"/>
	</g>
	<g>
		<rect x="33.56" y="291.525" fill-rule="evenodd" clip-rule="evenodd" fill="#F1877A" width="17.78" height="11.271"/>
		<path fill="#536B8B" d="M52.589,304.043H32.311v-13.765h20.278V304.043z M34.808,301.551h15.284v-8.78H34.808V301.551z"/>
	</g>
	<g>
		<rect x="11.257" y="290.575" fill="#536B8B" width="13.726" height="2.492"/>
	</g>
	<g>
		<rect x="11.257" y="296.211" fill="#536B8B" width="8.11" height="2.492"/>
	</g>
	<g>
		<rect x="11.257" y="301.849" fill="#536B8B" width="13.726" height="2.492"/>
	</g>
	<g>
		<rect x="36.054" y="310.371" fill="#536B8B" width="13.728" height="2.492"/>
	</g>
	<g>
		<rect x="36.054" y="316.006" fill="#536B8B" width="8.112" height="2.492"/>
	</g>
	<g>
		<rect x="36.054" y="321.644" fill="#536B8B" width="13.728" height="2.492"/>
	</g>
	<g>
		<rect x="8.568" y="254.668" fill-rule="evenodd" clip-rule="evenodd" fill="#89A7C0" width="45.354" height="7.576"/>
	</g>
	<g>
		<rect x="12.036" y="311.319" fill-rule="evenodd" clip-rule="evenodd" fill="#A2BAF0" width="17.779" height="11.273"/>
		<path fill="#536B8B" d="M31.064,323.839H10.787v-13.766h20.277V323.839z M13.284,321.347h15.283v-8.781H13.284V321.347z"/>
	</g>
	<g>
		<polygon fill-rule="evenodd" clip-rule="evenodd" fill="#91A6F1" points="78.048,81.427 94.7,81.427 94.7,67.67 111.354,67.67 
			111.354,89.261 128.008,89.261 128.008,80.09 144.661,80.09 144.661,87.732 161.314,87.732 161.314,93.274 177.969,93.274 
			177.969,102.442 161.314,102.442 144.661,102.442 128.008,102.442 111.354,102.442 94.7,102.442 78.048,102.442 		"/>
	</g>
	<g>
		<ellipse fill-rule="evenodd" clip-rule="evenodd" fill="#FFFFFF" cx="131.728" cy="80.124" rx="15.622" ry="15.592"/>
		<path fill="#536B8B" d="M131.728,97.011c-9.33,0-16.92-7.574-16.92-16.886c0-9.313,7.59-16.888,16.92-16.888
			s16.92,7.575,16.92,16.888C148.647,89.437,141.058,97.011,131.728,97.011z M131.728,65.828c-7.898,0-14.324,6.413-14.324,14.297
			c0,7.883,6.426,14.296,14.324,14.296s14.324-6.413,14.324-14.296C146.052,72.241,139.626,65.828,131.728,65.828z"/>
	</g>
	<g>
		<polygon fill-rule="evenodd" clip-rule="evenodd" fill="#F1877A" points="139.916,80.125 133.773,83.663 127.633,87.201 
			127.633,80.125 127.633,73.047 133.773,76.586 		"/>
		<path fill="#536B8B" d="M127.633,88.447c-0.215,0-0.431-0.056-0.623-0.167c-0.387-0.223-0.625-0.634-0.625-1.079V73.047
			c0-0.445,0.238-0.856,0.625-1.078c0.385-0.224,0.862-0.224,1.247,0l12.282,7.077c0.387,0.223,0.625,0.634,0.625,1.079
			s-0.238,0.856-0.625,1.078l-12.282,7.077C128.064,88.392,127.849,88.447,127.633,88.447z M128.882,75.204v9.84l8.538-4.919
			L128.882,75.204z"/>
	</g>
	<g>
		<rect x="542.044" y="244.122" fill-rule="evenodd" clip-rule="evenodd" fill="#536B8B" width="102.659" height="66.94"/>
		<path fill="#536B8B" d="M644.703,312.357H542.044c-0.717,0-1.298-0.581-1.298-1.295v-66.94c0-0.716,0.581-1.296,1.298-1.296
			h102.659c0.716,0,1.297,0.58,1.297,1.296v66.94C646,311.776,645.419,312.357,644.703,312.357z M543.342,309.767h100.063v-64.35
			H543.342V309.767z"/>
	</g>
	<g>
		<rect x="583.152" y="311.597" fill-rule="evenodd" clip-rule="evenodd" fill="#A2BAF0" width="20.441" height="21.281"/>
		<path fill="#536B8B" d="M603.594,334.125h-20.441c-0.689,0-1.249-0.559-1.249-1.247v-21.281c0-0.688,0.56-1.247,1.249-1.247
			h20.441c0.689,0,1.249,0.559,1.249,1.247v21.281C604.843,333.566,604.283,334.125,603.594,334.125z M584.4,331.633h17.945v-18.791
			H584.4V331.633z"/>
	</g>
	<g>
		<rect x="584.571" y="313.02" fill-rule="evenodd" clip-rule="evenodd" fill="#91A6F1" width="17.611" height="3.603"/>
	</g>
	<g>
		<rect x="550.204" y="252.131" fill-rule="evenodd" clip-rule="evenodd" fill="#FFFFFF" width="86.337" height="45.438"/>
		<path fill="#536B8B" d="M637.789,298.813h-88.833v-47.929h88.833V298.813z M551.453,296.321h83.839v-42.945h-83.839V296.321z"/>
	</g>
	<g>
		<rect x="586.704" y="303.424" fill-rule="evenodd" clip-rule="evenodd" fill="#FFFFFF" width="13.714" height="2.838"/>
	</g>
	<g>
		<rect x="594.093" y="279.007" fill-rule="evenodd" clip-rule="evenodd" fill="#EF6E65" width="10.155" height="2.764"/>
	</g>
	<g>
		<rect x="567.428" y="279.007" fill-rule="evenodd" clip-rule="evenodd" fill="#FDD26A" width="23.344" height="2.764"/>
	</g>
	<g>
		<rect x="567.428" y="286.793" fill-rule="evenodd" clip-rule="evenodd" fill="#536B8B" width="46.832" height="2.767"/>
	</g>
	<g>
		<rect x="567.428" y="263.433" fill-rule="evenodd" clip-rule="evenodd" fill="#536B8B" width="9.289" height="2.766"/>
	</g>
	<g>
		<rect x="579.979" y="263.433" fill-rule="evenodd" clip-rule="evenodd" fill="#EF6E65" width="9.795" height="2.766"/>
	</g>
	<g>
		<rect x="593.324" y="263.433" fill-rule="evenodd" clip-rule="evenodd" fill="#536B8B" width="13.909" height="2.766"/>
	</g>
	<g>
		<rect x="567.428" y="271.219" fill-rule="evenodd" clip-rule="evenodd" fill="#536B8B" width="54.712" height="2.766"/>
	</g>
	<g>
		<rect x="551.653" y="253.563" fill-rule="evenodd" clip-rule="evenodd" fill="#A2BAF0" width="83.459" height="5.174"/>
	</g>
	<g>
		<rect x="567.526" y="331.633" fill="#536B8B" width="54.681" height="2.492"/>
	</g>
	<g>
		<rect x="292.048" y="8.933" fill-rule="evenodd" clip-rule="evenodd" fill="#FDD26A" width="42.158" height="12.174"/>
		<path fill="#536B8B" d="M334.206,22.352h-42.158c-0.689,0-1.248-0.558-1.248-1.245V8.933c0-0.688,0.559-1.246,1.248-1.246h42.158
			c0.688,0,1.248,0.558,1.248,1.246v12.174C335.454,21.794,334.895,22.352,334.206,22.352z M293.297,19.86h39.66v-9.683h-39.66
			V19.86z"/>
	</g>
	<g>
		<rect x="293.523" y="14.338" fill-rule="evenodd" clip-rule="evenodd" fill="#E8A541" width="39.266" height="5.34"/>
	</g>
	<g>
		<ellipse fill-rule="evenodd" clip-rule="evenodd" fill="#FFFFFF" cx="110.208" cy="293.882" rx="5.957" ry="5.945"/>
		<path fill="#EF6E65" d="M110.208,301.074c-3.973,0-7.205-3.227-7.205-7.191s3.232-7.19,7.205-7.19s7.205,3.226,7.205,7.19
			S114.181,301.074,110.208,301.074z M110.208,289.185c-2.596,0-4.708,2.106-4.708,4.698c0,2.591,2.112,4.699,4.708,4.699
			c2.597,0,4.708-2.108,4.708-4.699C114.916,291.291,112.805,289.185,110.208,289.185z"/>
	</g>
	<g>
		<ellipse fill-rule="evenodd" clip-rule="evenodd" fill="#FFFFFF" cx="313.402" cy="120.216" rx="5.957" ry="5.945"/>
		<path fill="#EF6E65" d="M313.402,127.407c-3.973,0-7.204-3.227-7.204-7.191s3.231-7.19,7.204-7.19s7.206,3.226,7.206,7.19
			S317.375,127.407,313.402,127.407z M313.402,115.517c-2.596,0-4.707,2.108-4.707,4.699c0,2.592,2.111,4.7,4.707,4.7
			c2.597,0,4.709-2.108,4.709-4.7C318.111,117.625,315.999,115.517,313.402,115.517z"/>
	</g>
	<g>
		<ellipse fill-rule="evenodd" clip-rule="evenodd" fill="#FFFFFF" cx="444.557" cy="150.283" rx="5.957" ry="5.945"/>
		<path fill="#EF6E65" d="M444.557,157.474c-3.973,0-7.205-3.226-7.205-7.19s3.232-7.19,7.205-7.19s7.205,3.226,7.205,7.19
			S448.529,157.474,444.557,157.474z M444.557,145.584c-2.596,0-4.708,2.107-4.708,4.699c0,2.591,2.112,4.699,4.708,4.699
			c2.597,0,4.708-2.108,4.708-4.699C449.265,147.691,447.153,145.584,444.557,145.584z"/>
	</g>
	<g>
		<ellipse fill-rule="evenodd" clip-rule="evenodd" fill="#FFFFFF" cx="504.214" cy="294.545" rx="5.956" ry="5.945"/>
		<path fill="#EF6E65" d="M504.214,301.735c-3.973,0-7.205-3.226-7.205-7.19s3.232-7.191,7.205-7.191s7.205,3.227,7.205,7.191
			S508.187,301.735,504.214,301.735z M504.214,289.846c-2.597,0-4.708,2.108-4.708,4.699c0,2.592,2.111,4.698,4.708,4.698
			c2.596,0,4.708-2.106,4.708-4.698C508.922,291.954,506.81,289.846,504.214,289.846z"/>
	</g>
	<g>
		<rect x="456.03" y="57.475" fill-rule="evenodd" clip-rule="evenodd" fill="#A2BAF0" width="90.827" height="58.517"/>
		<path fill="#536B8B" d="M546.857,117.286H456.03c-0.716,0-1.298-0.58-1.298-1.295V57.475c0-0.716,0.582-1.295,1.298-1.295h90.827
			c0.717,0,1.298,0.579,1.298,1.295v58.517C548.155,116.706,547.574,117.286,546.857,117.286z M457.328,114.695h88.231V58.77
			h-88.231V114.695z"/>
	</g>
	<g>
		<rect x="465.396" y="67.413" fill-rule="evenodd" clip-rule="evenodd" fill="#CAD7F6" width="25.669" height="38.641"/>
		<path fill="#536B8B" d="M491.065,107.349h-25.669c-0.717,0-1.298-0.58-1.298-1.295V67.413c0-0.715,0.581-1.296,1.298-1.296h25.669
			c0.716,0,1.298,0.581,1.298,1.296v38.641C492.363,106.769,491.781,107.349,491.065,107.349z M466.694,104.758h23.073v-36.05
			h-23.073V104.758z"/>
	</g>
	<g>
		<rect x="498.044" y="67.413" fill-rule="evenodd" clip-rule="evenodd" fill="#FFFFFF" width="40.74" height="38.641"/>
		<path fill="#536B8B" d="M538.784,107.349h-40.74c-0.717,0-1.298-0.58-1.298-1.295V67.413c0-0.715,0.581-1.296,1.298-1.296h40.74
			c0.717,0,1.298,0.581,1.298,1.296v38.641C540.082,106.769,539.501,107.349,538.784,107.349z M499.342,104.758h38.145v-36.05
			h-38.145V104.758z"/>
	</g>
	<g>
		<ellipse fill-rule="evenodd" clip-rule="evenodd" fill="#FFFFFF" cx="470.147" cy="102.41" rx="8.954" ry="8.937"/>
		<path fill="#536B8B" d="M470.147,112.643c-5.652,0-10.251-4.59-10.251-10.231s4.599-10.231,10.251-10.231
			c5.653,0,10.252,4.59,10.252,10.231S475.801,112.643,470.147,112.643z M470.147,94.77c-4.222,0-7.655,3.428-7.655,7.642
			c0,4.213,3.434,7.641,7.655,7.641s7.656-3.428,7.656-7.641C477.804,98.197,474.369,94.77,470.147,94.77z"/>
	</g>
	<g>
		<path fill="#536B8B" d="M470.581,107.818c-0.717,0-1.298-0.58-1.298-1.295v-7.748c0-0.715,0.581-1.295,1.298-1.295
			c0.716,0,1.298,0.58,1.298,1.295v7.748C471.879,107.238,471.297,107.818,470.581,107.818z"/>
	</g>
	<g>
		<path fill="#536B8B" d="M467.782,102.295c-0.382,0-0.761-0.166-1.017-0.488c-0.446-0.56-0.354-1.374,0.207-1.82l2.8-2.224
			c0.561-0.446,1.377-0.354,1.824,0.206c0.445,0.56,0.353,1.375-0.208,1.82l-2.8,2.225
			C468.351,102.203,468.065,102.295,467.782,102.295z"/>
	</g>
	<g>
		<rect x="470.21" y="72.005" fill-rule="evenodd" clip-rule="evenodd" fill="#F1877A" width="16.041" height="7.662"/>
		<path fill="#536B8B" d="M487.499,80.912h-18.537V70.759h18.537V80.912z M471.459,78.421h13.543V73.25h-13.543V78.421z"/>
	</g>
	<g>
		<rect x="470.21" y="84.72" fill-rule="evenodd" clip-rule="evenodd" fill="#536B8B" width="11.409" height="3.973"/>
		<path fill="#536B8B" d="M482.867,89.938h-13.905v-6.465h13.905V89.938z M471.459,87.447h8.911v-1.482h-8.911V87.447z"/>
	</g>
	<g>
		<path fill="#536B8B" d="M528.056,75.416h-22.392c-0.688,0-1.247-0.558-1.247-1.246c0-0.688,0.559-1.245,1.247-1.245h22.392
			c0.688,0,1.247,0.558,1.247,1.245C529.303,74.858,528.744,75.416,528.056,75.416z"/>
	</g>
	<g>
		<path fill="#A2BAF0" d="M528.056,81.53h-22.392c-0.688,0-1.248-0.559-1.248-1.246s0.56-1.245,1.248-1.245h22.392
			c0.688,0,1.248,0.558,1.248,1.245S528.744,81.53,528.056,81.53z"/>
	</g>
	<g>
		<path fill="#A2BAF0" d="M528.056,87.646h-22.392c-0.688,0-1.248-0.559-1.248-1.246s0.56-1.245,1.248-1.245h22.392
			c0.688,0,1.248,0.558,1.248,1.245S528.744,87.646,528.056,87.646z"/>
	</g>
	<g>
		<path fill="#A2BAF0" d="M528.056,93.759h-22.392c-0.688,0-1.248-0.559-1.248-1.246s0.56-1.245,1.248-1.245h22.392
			c0.688,0,1.248,0.558,1.248,1.245S528.744,93.759,528.056,93.759z"/>
	</g>
	<g>
		<path fill="#A2BAF0" d="M528.056,99.874h-22.392c-0.688,0-1.248-0.559-1.248-1.246s0.56-1.245,1.248-1.245h22.392
			c0.688,0,1.248,0.558,1.248,1.245S528.744,99.874,528.056,99.874z"/>
	</g>
	<g>
		<path fill="#EF6E65" d="M334.206,65.633h-42.158c-0.689,0-1.248-0.559-1.248-1.246V40.881c0-0.688,0.559-1.246,1.248-1.246h42.158
			c0.688,0,1.248,0.559,1.248,1.246v23.506C335.454,65.074,334.895,65.633,334.206,65.633z M293.297,63.142h39.66V42.126h-39.66
			V63.142z"/>
	</g>
	<g>
		<path fill="#536B8B" d="M335.634,66.286c-0.068,0-0.139-0.026-0.191-0.079c-0.105-0.105-0.105-0.275,0-0.382l1.764-1.76
			c0.105-0.105,0.277-0.105,0.383,0s0.105,0.276,0,0.382l-1.763,1.76C335.773,66.26,335.703,66.286,335.634,66.286z"/>
	</g>
	<g>
		<path fill="#536B8B" d="M337.121,67.77c-0.068,0-0.139-0.026-0.191-0.079c-0.105-0.106-0.105-0.276,0-0.382l1.762-1.76
			c0.106-0.105,0.278-0.105,0.384,0s0.105,0.276,0,0.382l-1.763,1.759C337.26,67.743,337.19,67.77,337.121,67.77z"/>
	</g>
	<g>
		<path fill="#536B8B" d="M338.605,69.252c-0.068,0-0.139-0.026-0.191-0.078c-0.105-0.106-0.105-0.276,0-0.382l1.764-1.761
			c0.105-0.106,0.277-0.105,0.383-0.001c0.105,0.106,0.105,0.276,0,0.382l-1.763,1.761
			C338.745,69.226,338.675,69.252,338.605,69.252z"/>
	</g>
	<g>
		<polygon fill-rule="evenodd" clip-rule="evenodd" fill="#A2BAF0" points="332.674,79.618 327.028,73.984 353.066,47.999 
			358.711,53.633 		"/>
		<path fill="#536B8B" d="M332.674,80.913c-0.332,0-0.664-0.126-0.917-0.379l-5.646-5.634c-0.244-0.243-0.381-0.572-0.381-0.916
			s0.137-0.673,0.381-0.916l26.038-25.985c0.243-0.243,0.573-0.379,0.917-0.379l0,0c0.344,0,0.674,0.136,0.919,0.379l5.644,5.634
			c0.507,0.505,0.507,1.326-0.001,1.832l-26.037,25.985C333.338,80.787,333.007,80.913,332.674,80.913z M328.864,73.984l3.81,3.802
			l24.201-24.153l-3.809-3.802L328.864,73.984z"/>
	</g>
	<g>
		<polygon fill-rule="evenodd" clip-rule="evenodd" fill="#91A6F1" points="331.783,79.252 329.274,76.747 354.537,51.534 
			357.047,54.038 		"/>
	</g>
	<g>
		<polygon fill-rule="evenodd" clip-rule="evenodd" fill="#A2BAF0" points="323.791,82.831 325.4,78.398 327.011,73.965 
			329.842,76.792 332.674,79.618 328.232,81.225 		"/>
		<path fill="#536B8B" d="M323.791,84.126c-0.338,0-0.67-0.132-0.917-0.379c-0.356-0.355-0.475-0.885-0.303-1.357l3.219-8.866
			c0.151-0.416,0.505-0.727,0.938-0.823c0.435-0.096,0.886,0.035,1.2,0.349l5.662,5.653c0.314,0.313,0.446,0.765,0.35,1.197
			c-0.096,0.432-0.406,0.786-0.824,0.937l-8.883,3.213C324.089,84.102,323.938,84.126,323.791,84.126z M327.535,76.321l-1.578,4.349
			l4.356-1.576L327.535,76.321z"/>
	</g>
	<g>
		<polygon fill-rule="evenodd" clip-rule="evenodd" fill="#536B8B" points="323.812,82.912 325.192,78.974 326.423,80.203 
			327.656,81.434 		"/>
	</g>
	<g>
		<g>
			<path fill="#DBDFEA" d="M293.65,178.657h-3.521v-43.644h3.521V178.657z M293.65,120.735h-3.521V98.914h3.521V120.735z"/>
		</g>
	</g>
</g>
</svg>
