<?xml version="1.0" encoding="utf-8"?>
<!-- Generator: Adobe Illustrator 19.2.0, SVG Export Plug-In . SVG Version: 6.00 Build 0)  -->
<svg version="1.1" id="Layer_1" xmlns="http://www.w3.org/2000/svg" xmlns:xlink="http://www.w3.org/1999/xlink" x="0px" y="0px"
	 viewBox="0 0 600 465" style="enable-background:new 0 0 600 465;" xml:space="preserve">
<style type="text/css">
	
		.st0{fill-rule:evenodd;clip-rule:evenodd;fill:#ECEDF6;stroke:#CBD4DD;stroke-width:2.2203;stroke-linecap:round;stroke-linejoin:round;stroke-miterlimit:22.9256;}
	
		.st1{fill-rule:evenodd;clip-rule:evenodd;fill:#DBF9FF;stroke:#536B8B;stroke-width:2.135;stroke-linecap:round;stroke-linejoin:round;stroke-miterlimit:22.9256;}
	.st2{fill-rule:evenodd;clip-rule:evenodd;fill:#E9F4F4;}
	.st3{fill-rule:evenodd;clip-rule:evenodd;fill:#BAD1D1;}
	.st4{fill-rule:evenodd;clip-rule:evenodd;fill:#DBE9F6;}
	.st5{clip-path:url(#SVGID_2_);}
	
		.st6{fill-rule:evenodd;clip-rule:evenodd;fill:none;stroke:#B8C8D4;stroke-width:2.2203;stroke-linecap:square;stroke-miterlimit:22.9256;}
	.st7{fill-rule:evenodd;clip-rule:evenodd;fill:#B8C8D4;}
	
		.st8{fill-rule:evenodd;clip-rule:evenodd;fill:none;stroke:#536B8B;stroke-width:2.2203;stroke-linecap:round;stroke-linejoin:round;stroke-miterlimit:22.9256;}
	
		.st9{fill-rule:evenodd;clip-rule:evenodd;fill:none;stroke:#536B8B;stroke-width:2.135;stroke-linecap:round;stroke-linejoin:round;stroke-miterlimit:22.9256;}
	.st10{fill:#536B8B;}
	
		.st11{fill-rule:evenodd;clip-rule:evenodd;fill:#FDD26A;stroke:#536B8B;stroke-width:2.135;stroke-linecap:round;stroke-linejoin:round;stroke-miterlimit:22.9256;}
	
		.st12{fill-rule:evenodd;clip-rule:evenodd;fill:#96A0BB;stroke:#536B8B;stroke-width:2.135;stroke-linecap:square;stroke-miterlimit:22.9256;}
	
		.st13{fill-rule:evenodd;clip-rule:evenodd;fill:#96A0BB;stroke:#536B8B;stroke-width:2.135;stroke-linecap:round;stroke-linejoin:round;stroke-miterlimit:22.9256;}
	.st14{fill-rule:evenodd;clip-rule:evenodd;fill:#7084A3;}
	
		.st15{fill-rule:evenodd;clip-rule:evenodd;fill:#FFFFFF;stroke:#536B8B;stroke-width:2.135;stroke-linecap:square;stroke-miterlimit:22.9256;}
	.st16{fill-rule:evenodd;clip-rule:evenodd;fill:#FFFFFF;}
	.st17{fill-rule:evenodd;clip-rule:evenodd;fill:#F1877A;}
	.st18{fill-rule:evenodd;clip-rule:evenodd;fill:#536B8B;}
	.st19{fill-rule:evenodd;clip-rule:evenodd;fill:#A2BAF0;}
	
		.st20{fill-rule:evenodd;clip-rule:evenodd;fill:none;stroke:#536B8B;stroke-width:2.135;stroke-linecap:square;stroke-miterlimit:22.9256;}
	
		.st21{fill-rule:evenodd;clip-rule:evenodd;fill:#A2BAF0;stroke:#536B8B;stroke-width:2.135;stroke-linecap:round;stroke-linejoin:round;stroke-miterlimit:22.9256;}
	
		.st22{fill-rule:evenodd;clip-rule:evenodd;fill:#C7D5F6;stroke:#536B8B;stroke-width:2.135;stroke-linecap:round;stroke-linejoin:round;stroke-miterlimit:22.9256;}
	
		.st23{fill-rule:evenodd;clip-rule:evenodd;fill:#FFFFFF;stroke:#536B8B;stroke-width:2.135;stroke-linecap:round;stroke-linejoin:round;stroke-miterlimit:22.9256;}
	.st24{fill-rule:evenodd;clip-rule:evenodd;fill:#3EABCC;}
	.st25{fill-rule:evenodd;clip-rule:evenodd;fill:#89A7C0;}
	.st26{fill:#DBE9F6;}
	
		.st27{fill-rule:evenodd;clip-rule:evenodd;fill:#DBE9F6;stroke:#536B8B;stroke-width:2.135;stroke-linecap:square;stroke-miterlimit:22.9256;}
	
		.st28{fill-rule:evenodd;clip-rule:evenodd;fill:#E9F4F4;stroke:#536B8B;stroke-width:2.135;stroke-linecap:square;stroke-miterlimit:22.9256;}
	.st29{fill-rule:evenodd;clip-rule:evenodd;fill:#B7BDCD;}
	.st30{fill-rule:evenodd;clip-rule:evenodd;fill:#B1C1D0;}
	.st31{fill-rule:evenodd;clip-rule:evenodd;fill:#7B859F;}
	
		.st32{fill-rule:evenodd;clip-rule:evenodd;fill:none;stroke:#ECEDF6;stroke-width:2.2203;stroke-linecap:round;stroke-linejoin:round;stroke-miterlimit:22.9256;}
	.st33{fill-rule:evenodd;clip-rule:evenodd;fill:#FDD26A;}
	
		.st34{fill-rule:evenodd;clip-rule:evenodd;fill:#00A9D4;stroke:#536B8B;stroke-width:2.135;stroke-linecap:round;stroke-linejoin:round;stroke-miterlimit:22.9256;}
	
		.st35{fill-rule:evenodd;clip-rule:evenodd;fill:#FDD26A;stroke:#536B8B;stroke-width:2.135;stroke-linecap:square;stroke-miterlimit:22.9256;}
	
		.st36{fill-rule:evenodd;clip-rule:evenodd;fill:#F1877A;stroke:#536B8B;stroke-width:2.135;stroke-linecap:square;stroke-miterlimit:22.9256;}
	
		.st37{fill-rule:evenodd;clip-rule:evenodd;fill:#A2BAF0;stroke:#536B8B;stroke-width:2.135;stroke-linecap:square;stroke-miterlimit:22.9256;}
	
		.st38{fill-rule:evenodd;clip-rule:evenodd;fill:none;stroke:#89A7C0;stroke-width:4.27;stroke-linecap:square;stroke-miterlimit:22.9256;}
</style>
<path class="st0" d="M301.7,136.2c8.4,0,15.6,5.6,18,13.2c1-0.3,2.1-0.4,3.2-0.4c6,0,11,4.5,11.7,10.3c0.3,0,0.7-0.1,1.1-0.1
	c4.4,0,8,3.6,8,8c0,4.4-3.6,8-8,8l0,0h-50.7H279h-0.1l0,0c-3.2,0-5.8-2.7-5.8-5.9v-0.7v-5.2V163c-0.1-0.4-0.1-0.9-0.1-1.3
	c0-5.7,4.6-10.4,10.3-10.5C285,142.6,292.6,136.2,301.7,136.2z"/>
<path class="st1" d="M432.9,72.2L432.9,72.2c23.9,0,43.4,19.5,43.4,43.4l0,0c0,23.9-19.5,43.4-43.4,43.4l0,0
	c-23.9,0-43.4-19.5-43.4-43.4l0,0C389.5,91.7,409.1,72.2,432.9,72.2z"/>
<g>
	<path class="st2" d="M438.8,115.5h-11.2v23.3c0,2.3-1.9,4.1-4.1,4.1l0,0H443l0,0c-2.3,0-4.1-1.9-4.1-4.1V115.5L438.8,115.5z
		 M427.6,115.5h11.2H427.6z"/>
</g>
<rect x="427.6" y="117.4" class="st3" width="11.2" height="16.4"/>
<path class="st0" d="M172.1,165.7c19.3,0,35.7,12.7,41.1,30.3c2.3-0.7,4.8-1,7.4-1c13.7,0,25.1,10.2,26.8,23.5
	c0.8-0.1,1.6-0.2,2.4-0.2c10.1,0,18.4,8.2,18.4,18.4S260,255,249.9,255h-0.1H133.7h-13.5H120l0,0c-7.4-0.1-13.4-6.1-13.4-13.5v-1.6
	v-11.9v-1c-0.1-1-0.2-2-0.2-3c0-13.1,10.5-23.7,23.5-24C134,180.4,151.4,165.7,172.1,165.7z"/>
<path class="st0" d="M421.4,177.2c14.2,0,26.2,9.4,30.2,22.2c1.7-0.5,3.5-0.7,5.4-0.7c10.1,0,18.4,7.5,19.7,17.2
	c0.6-0.1,1.2-0.1,1.8-0.1c7.5,0,13.5,6,13.5,13.5c0,7.5-6,13.5-13.5,13.5h-0.1h-85.2h-9.9h-0.1l0,0c-5.4-0.1-9.8-4.5-9.8-9.9v-1.2
	V223v-0.8c-0.1-0.7-0.1-1.5-0.1-2.2c0-9.6,7.7-17.4,17.3-17.6C393.4,188.1,406.2,177.2,421.4,177.2z"/>
<path class="st4" d="M273,167.7c39,0,72.1,25.7,83.1,61.2c4.7-1.3,9.7-2,14.9-2c27.8,0,50.7,20.7,54.3,47.5c1.6-0.2,3.2-0.3,4.9-0.3
	c20.5,0,37.1,16.6,37.1,37.1c0,20.5-16.6,37.1-37.1,37.1l-0.2,0H195.4h-27.4h-0.3l0,0c-14.9-0.2-27-12.4-27-27.4v-3.3v-24.1v-2.1
	c-0.2-2-0.4-4-0.4-6.1c0-26.4,21.2-47.9,47.5-48.4C196,197.4,231.1,167.7,273,167.7z"/>
<g>
	<defs>
		<path id="SVGID_1_" d="M273,167.7c39,0,72.1,25.7,83.1,61.2c4.7-1.3,9.7-2,14.9-2c27.8,0,50.7,20.7,54.3,47.5
			c1.6-0.2,3.2-0.3,4.9-0.3c20.5,0,37.1,16.6,37.1,37.1c0,20.5-16.6,37.1-37.1,37.1l-0.2,0H195.4h-27.4h-0.3l0,0
			c-14.9-0.2-27-12.4-27-27.4v-3.3v-24.1v-2.1c-0.2-2-0.4-4-0.4-6.1c0-26.4,21.2-47.9,47.5-48.4C196,197.4,231.1,167.7,273,167.7z"
			/>
	</defs>
	<clipPath id="SVGID_2_">
		<use xlink:href="#SVGID_1_"  style="overflow:visible;"/>
	</clipPath>
	<g class="st5">
		<g>
			<g>
				<g>
					<g>
						<rect x="153.7" y="253.5" class="st6" width="38.8" height="88.5"/>
						<line class="st6" x1="153.7" y1="297.7" x2="192.6" y2="297.7"/>
						<line class="st6" x1="153.7" y1="312.5" x2="192.6" y2="312.5"/>
						<line class="st6" x1="153.7" y1="253.5" x2="192.6" y2="253.5"/>
						<line class="st6" x1="153.7" y1="327.2" x2="192.6" y2="327.2"/>
						<line class="st6" x1="153.7" y1="342" x2="192.6" y2="342"/>
						<line class="st6" x1="153.7" y1="283" x2="192.6" y2="283"/>
						<line class="st6" x1="153.7" y1="268.2" x2="192.6" y2="268.2"/>
						<g>
							<circle class="st7" cx="161.5" cy="260.8" r="2.8"/>
							<g>
								<line class="st6" x1="170.1" y1="259.1" x2="170.1" y2="262.2"/>
								<line class="st6" x1="175.1" y1="259.1" x2="175.1" y2="262.2"/>
								<line class="st6" x1="180.1" y1="259.1" x2="180.1" y2="262.2"/>
								<line class="st6" x1="185.1" y1="259.1" x2="185.1" y2="262.2"/>
							</g>
						</g>
						<g>
							<circle class="st7" cx="161.5" cy="275.6" r="2.8"/>
							<g>
								<line class="st6" x1="170.1" y1="273.9" x2="170.1" y2="276.9"/>
								<line class="st6" x1="175.1" y1="273.9" x2="175.1" y2="276.9"/>
								<line class="st6" x1="180.1" y1="273.9" x2="180.1" y2="276.9"/>
								<line class="st6" x1="185.1" y1="273.9" x2="185.1" y2="276.9"/>
							</g>
						</g>
						<g>
							<circle class="st7" cx="161.5" cy="290.3" r="2.8"/>
							<g>
								<line class="st6" x1="170.1" y1="288.6" x2="170.1" y2="291.7"/>
								<line class="st6" x1="175.1" y1="288.6" x2="175.1" y2="291.7"/>
								<line class="st6" x1="180.1" y1="288.6" x2="180.1" y2="291.7"/>
								<line class="st6" x1="185.1" y1="288.6" x2="185.1" y2="291.7"/>
							</g>
						</g>
						<g>
							<circle class="st7" cx="161.5" cy="305.1" r="2.8"/>
							<g>
								<line class="st6" x1="170.1" y1="303.4" x2="170.1" y2="306.5"/>
								<line class="st6" x1="175.1" y1="303.4" x2="175.1" y2="306.5"/>
								<line class="st6" x1="180.1" y1="303.4" x2="180.1" y2="306.5"/>
								<line class="st6" x1="185.1" y1="303.4" x2="185.1" y2="306.5"/>
							</g>
						</g>
						<g>
							<circle class="st7" cx="161.5" cy="319.8" r="2.8"/>
							<g>
								<line class="st6" x1="170.1" y1="318.1" x2="170.1" y2="321.2"/>
								<line class="st6" x1="175.1" y1="318.1" x2="175.1" y2="321.2"/>
								<line class="st6" x1="180.1" y1="318.1" x2="180.1" y2="321.2"/>
								<line class="st6" x1="185.1" y1="318.1" x2="185.1" y2="321.2"/>
							</g>
						</g>
						<g>
							<circle class="st7" cx="161.5" cy="334.6" r="2.8"/>
							<g>
								<line class="st6" x1="170.1" y1="332.9" x2="170.1" y2="336"/>
								<line class="st6" x1="175.1" y1="332.9" x2="175.1" y2="336"/>
								<line class="st6" x1="180.1" y1="332.9" x2="180.1" y2="336"/>
								<line class="st6" x1="185.1" y1="332.9" x2="185.1" y2="336"/>
							</g>
						</g>
					</g>
					<g>
						<rect x="105.3" y="253.5" class="st6" width="38.8" height="88.5"/>
						<line class="st6" x1="105.3" y1="297.7" x2="144.2" y2="297.7"/>
						<line class="st6" x1="105.3" y1="312.5" x2="144.2" y2="312.5"/>
						<line class="st6" x1="105.3" y1="253.5" x2="144.2" y2="253.5"/>
						<line class="st6" x1="105.3" y1="327.2" x2="144.2" y2="327.2"/>
						<line class="st6" x1="105.3" y1="342" x2="144.2" y2="342"/>
						<line class="st6" x1="105.3" y1="283" x2="144.2" y2="283"/>
						<line class="st6" x1="105.3" y1="268.2" x2="144.2" y2="268.2"/>
						<g>
							<circle class="st7" cx="113.1" cy="260.8" r="2.8"/>
							<g>
								<line class="st6" x1="121.6" y1="259.1" x2="121.6" y2="262.2"/>
								<line class="st6" x1="126.7" y1="259.1" x2="126.7" y2="262.2"/>
								<line class="st6" x1="131.7" y1="259.1" x2="131.7" y2="262.2"/>
								<line class="st6" x1="136.7" y1="259.1" x2="136.7" y2="262.2"/>
							</g>
						</g>
						<g>
							<circle class="st7" cx="113.1" cy="275.6" r="2.8"/>
							<g>
								<line class="st6" x1="121.6" y1="273.9" x2="121.6" y2="276.9"/>
								<line class="st6" x1="126.7" y1="273.9" x2="126.7" y2="276.9"/>
								<line class="st6" x1="131.7" y1="273.9" x2="131.7" y2="276.9"/>
								<line class="st6" x1="136.7" y1="273.9" x2="136.7" y2="276.9"/>
							</g>
						</g>
						<g>
							<circle class="st7" cx="113.1" cy="290.3" r="2.8"/>
							<g>
								<line class="st6" x1="121.6" y1="288.6" x2="121.6" y2="291.7"/>
								<line class="st6" x1="126.7" y1="288.6" x2="126.7" y2="291.7"/>
								<line class="st6" x1="131.7" y1="288.6" x2="131.7" y2="291.7"/>
								<line class="st6" x1="136.7" y1="288.6" x2="136.7" y2="291.7"/>
							</g>
						</g>
						<g>
							<circle class="st7" cx="113.1" cy="305.1" r="2.8"/>
							<g>
								<line class="st6" x1="121.6" y1="303.4" x2="121.6" y2="306.5"/>
								<line class="st6" x1="126.7" y1="303.4" x2="126.7" y2="306.5"/>
								<line class="st6" x1="131.7" y1="303.4" x2="131.7" y2="306.5"/>
								<line class="st6" x1="136.7" y1="303.4" x2="136.7" y2="306.5"/>
							</g>
						</g>
						<g>
							<circle class="st7" cx="113.1" cy="319.8" r="2.8"/>
							<g>
								<line class="st6" x1="121.6" y1="318.1" x2="121.6" y2="321.2"/>
								<line class="st6" x1="126.7" y1="318.1" x2="126.7" y2="321.2"/>
								<line class="st6" x1="131.7" y1="318.1" x2="131.7" y2="321.2"/>
								<line class="st6" x1="136.7" y1="318.1" x2="136.7" y2="321.2"/>
							</g>
						</g>
						<g>
							<circle class="st7" cx="113.1" cy="334.6" r="2.8"/>
							<g>
								<line class="st6" x1="121.6" y1="332.9" x2="121.6" y2="336"/>
								<line class="st6" x1="126.7" y1="332.9" x2="126.7" y2="336"/>
								<line class="st6" x1="131.7" y1="332.9" x2="131.7" y2="336"/>
								<line class="st6" x1="136.7" y1="332.9" x2="136.7" y2="336"/>
							</g>
						</g>
					</g>
					<g>
						<rect x="202.2" y="253.5" class="st6" width="38.8" height="88.5"/>
						<line class="st6" x1="202.2" y1="297.7" x2="241" y2="297.7"/>
						<line class="st6" x1="202.2" y1="312.5" x2="241" y2="312.5"/>
						<line class="st6" x1="202.2" y1="253.5" x2="241" y2="253.5"/>
						<line class="st6" x1="202.2" y1="327.2" x2="241" y2="327.2"/>
						<line class="st6" x1="202.2" y1="342" x2="241" y2="342"/>
						<line class="st6" x1="202.2" y1="283" x2="241" y2="283"/>
						<line class="st6" x1="202.2" y1="268.2" x2="241" y2="268.2"/>
						<g>
							<circle class="st7" cx="209.9" cy="260.8" r="2.8"/>
							<g>
								<line class="st6" x1="218.5" y1="259.1" x2="218.5" y2="262.2"/>
								<line class="st6" x1="223.5" y1="259.1" x2="223.5" y2="262.2"/>
								<line class="st6" x1="228.5" y1="259.1" x2="228.5" y2="262.2"/>
								<line class="st6" x1="233.5" y1="259.1" x2="233.5" y2="262.2"/>
							</g>
						</g>
						<g>
							<circle class="st7" cx="209.9" cy="275.6" r="2.8"/>
							<g>
								<line class="st6" x1="218.5" y1="273.9" x2="218.5" y2="276.9"/>
								<line class="st6" x1="223.5" y1="273.9" x2="223.5" y2="276.9"/>
								<line class="st6" x1="228.5" y1="273.9" x2="228.5" y2="276.9"/>
								<line class="st6" x1="233.5" y1="273.9" x2="233.5" y2="276.9"/>
							</g>
						</g>
						<g>
							<circle class="st7" cx="209.9" cy="290.3" r="2.8"/>
							<g>
								<line class="st6" x1="218.5" y1="288.6" x2="218.5" y2="291.7"/>
								<line class="st6" x1="223.5" y1="288.6" x2="223.5" y2="291.7"/>
								<line class="st6" x1="228.5" y1="288.6" x2="228.5" y2="291.7"/>
								<line class="st6" x1="233.5" y1="288.6" x2="233.5" y2="291.7"/>
							</g>
						</g>
						<g>
							<circle class="st7" cx="209.9" cy="305.1" r="2.8"/>
							<g>
								<line class="st6" x1="218.5" y1="303.4" x2="218.5" y2="306.5"/>
								<line class="st6" x1="223.5" y1="303.4" x2="223.5" y2="306.5"/>
								<line class="st6" x1="228.5" y1="303.4" x2="228.5" y2="306.5"/>
								<line class="st6" x1="233.5" y1="303.4" x2="233.5" y2="306.5"/>
							</g>
						</g>
						<g>
							<circle class="st7" cx="209.9" cy="319.8" r="2.8"/>
							<g>
								<line class="st6" x1="218.5" y1="318.1" x2="218.5" y2="321.2"/>
								<line class="st6" x1="223.5" y1="318.1" x2="223.5" y2="321.2"/>
								<line class="st6" x1="228.5" y1="318.1" x2="228.5" y2="321.2"/>
								<line class="st6" x1="233.5" y1="318.1" x2="233.5" y2="321.2"/>
							</g>
						</g>
						<g>
							<circle class="st7" cx="209.9" cy="334.6" r="2.8"/>
							<g>
								<line class="st6" x1="218.5" y1="332.9" x2="218.5" y2="336"/>
								<line class="st6" x1="223.5" y1="332.9" x2="223.5" y2="336"/>
								<line class="st6" x1="228.5" y1="332.9" x2="228.5" y2="336"/>
								<line class="st6" x1="233.5" y1="332.9" x2="233.5" y2="336"/>
							</g>
						</g>
					</g>
					<g>
						<rect x="250.6" y="253.5" class="st6" width="38.8" height="88.5"/>
						<line class="st6" x1="250.6" y1="297.7" x2="289.4" y2="297.7"/>
						<line class="st6" x1="250.6" y1="312.5" x2="289.4" y2="312.5"/>
						<line class="st6" x1="250.6" y1="253.5" x2="289.4" y2="253.5"/>
						<line class="st6" x1="250.6" y1="327.2" x2="289.4" y2="327.2"/>
						<line class="st6" x1="250.6" y1="342" x2="289.4" y2="342"/>
						<line class="st6" x1="250.6" y1="283" x2="289.4" y2="283"/>
						<line class="st6" x1="250.6" y1="268.2" x2="289.4" y2="268.2"/>
						<g>
							<circle class="st7" cx="258.3" cy="260.8" r="2.8"/>
							<g>
								<line class="st6" x1="266.9" y1="259.1" x2="266.9" y2="262.2"/>
								<line class="st6" x1="271.9" y1="259.1" x2="271.9" y2="262.2"/>
								<line class="st6" x1="276.9" y1="259.1" x2="276.9" y2="262.2"/>
								<line class="st6" x1="281.9" y1="259.1" x2="281.9" y2="262.2"/>
							</g>
						</g>
						<g>
							<circle class="st7" cx="258.3" cy="275.6" r="2.8"/>
							<g>
								<line class="st6" x1="266.9" y1="273.9" x2="266.9" y2="276.9"/>
								<line class="st6" x1="271.9" y1="273.9" x2="271.9" y2="276.9"/>
								<line class="st6" x1="276.9" y1="273.9" x2="276.9" y2="276.9"/>
								<line class="st6" x1="281.9" y1="273.9" x2="281.9" y2="276.9"/>
							</g>
						</g>
						<g>
							<circle class="st7" cx="258.3" cy="290.3" r="2.8"/>
							<g>
								<line class="st6" x1="266.9" y1="288.6" x2="266.9" y2="291.7"/>
								<line class="st6" x1="271.9" y1="288.6" x2="271.9" y2="291.7"/>
								<line class="st6" x1="276.9" y1="288.6" x2="276.9" y2="291.7"/>
								<line class="st6" x1="281.9" y1="288.6" x2="281.9" y2="291.7"/>
							</g>
						</g>
						<g>
							<circle class="st7" cx="258.3" cy="305.1" r="2.8"/>
							<g>
								<line class="st6" x1="266.9" y1="303.4" x2="266.9" y2="306.5"/>
								<line class="st6" x1="271.9" y1="303.4" x2="271.9" y2="306.5"/>
								<line class="st6" x1="276.9" y1="303.4" x2="276.9" y2="306.5"/>
								<line class="st6" x1="281.9" y1="303.4" x2="281.9" y2="306.5"/>
							</g>
						</g>
						<g>
							<circle class="st7" cx="258.3" cy="319.8" r="2.8"/>
							<g>
								<line class="st6" x1="266.9" y1="318.1" x2="266.9" y2="321.2"/>
								<line class="st6" x1="271.9" y1="318.1" x2="271.9" y2="321.2"/>
								<line class="st6" x1="276.9" y1="318.1" x2="276.9" y2="321.2"/>
								<line class="st6" x1="281.9" y1="318.1" x2="281.9" y2="321.2"/>
							</g>
						</g>
						<g>
							<circle class="st7" cx="258.3" cy="334.6" r="2.8"/>
							<g>
								<line class="st6" x1="266.9" y1="332.9" x2="266.9" y2="336"/>
								<line class="st6" x1="271.9" y1="332.9" x2="271.9" y2="336"/>
								<line class="st6" x1="276.9" y1="332.9" x2="276.9" y2="336"/>
								<line class="st6" x1="281.9" y1="332.9" x2="281.9" y2="336"/>
							</g>
						</g>
					</g>
				</g>
				<g>
					<g>
						<rect x="153.7" y="151" class="st6" width="38.8" height="88.5"/>
						<line class="st6" x1="153.7" y1="195.3" x2="192.6" y2="195.3"/>
						<line class="st6" x1="153.7" y1="210" x2="192.6" y2="210"/>
						<line class="st6" x1="153.7" y1="151" x2="192.6" y2="151"/>
						<line class="st6" x1="153.7" y1="224.8" x2="192.6" y2="224.8"/>
						<line class="st6" x1="153.7" y1="239.5" x2="192.6" y2="239.5"/>
						<line class="st6" x1="153.7" y1="180.5" x2="192.6" y2="180.5"/>
						<line class="st6" x1="153.7" y1="165.8" x2="192.6" y2="165.8"/>
						<g>
							<circle class="st7" cx="161.5" cy="158.4" r="2.8"/>
							<g>
								<line class="st6" x1="170.1" y1="156.7" x2="170.1" y2="159.7"/>
								<line class="st6" x1="175.1" y1="156.7" x2="175.1" y2="159.7"/>
								<line class="st6" x1="180.1" y1="156.7" x2="180.1" y2="159.7"/>
								<line class="st6" x1="185.1" y1="156.7" x2="185.1" y2="159.7"/>
							</g>
						</g>
						<g>
							<circle class="st7" cx="161.5" cy="173.1" r="2.8"/>
							<g>
								<line class="st6" x1="170.1" y1="171.4" x2="170.1" y2="174.5"/>
								<line class="st6" x1="175.1" y1="171.4" x2="175.1" y2="174.5"/>
								<line class="st6" x1="180.1" y1="171.4" x2="180.1" y2="174.5"/>
								<line class="st6" x1="185.1" y1="171.4" x2="185.1" y2="174.5"/>
							</g>
						</g>
						<g>
							<circle class="st7" cx="161.5" cy="187.9" r="2.8"/>
							<g>
								<line class="st6" x1="170.1" y1="186.2" x2="170.1" y2="189.2"/>
								<line class="st6" x1="175.1" y1="186.2" x2="175.1" y2="189.2"/>
								<line class="st6" x1="180.1" y1="186.2" x2="180.1" y2="189.2"/>
								<line class="st6" x1="185.1" y1="186.2" x2="185.1" y2="189.2"/>
							</g>
						</g>
						<g>
							<circle class="st7" cx="161.5" cy="202.6" r="2.8"/>
							<g>
								<line class="st6" x1="170.1" y1="200.9" x2="170.1" y2="204"/>
								<line class="st6" x1="175.1" y1="200.9" x2="175.1" y2="204"/>
								<line class="st6" x1="180.1" y1="200.9" x2="180.1" y2="204"/>
								<line class="st6" x1="185.1" y1="200.9" x2="185.1" y2="204"/>
							</g>
						</g>
						<g>
							<circle class="st7" cx="161.5" cy="217.4" r="2.8"/>
							<g>
								<line class="st6" x1="170.1" y1="215.7" x2="170.1" y2="218.8"/>
								<line class="st6" x1="175.1" y1="215.7" x2="175.1" y2="218.8"/>
								<line class="st6" x1="180.1" y1="215.7" x2="180.1" y2="218.8"/>
								<line class="st6" x1="185.1" y1="215.7" x2="185.1" y2="218.8"/>
							</g>
						</g>
						<g>
							<circle class="st7" cx="161.5" cy="232.1" r="2.8"/>
							<g>
								<line class="st6" x1="170.1" y1="230.4" x2="170.1" y2="233.5"/>
								<line class="st6" x1="175.1" y1="230.4" x2="175.1" y2="233.5"/>
								<line class="st6" x1="180.1" y1="230.4" x2="180.1" y2="233.5"/>
								<line class="st6" x1="185.1" y1="230.4" x2="185.1" y2="233.5"/>
							</g>
						</g>
					</g>
					<g>
						<rect x="105.3" y="151" class="st6" width="38.8" height="88.5"/>
						<line class="st6" x1="105.3" y1="195.3" x2="144.2" y2="195.3"/>
						<line class="st6" x1="105.3" y1="210" x2="144.2" y2="210"/>
						<line class="st6" x1="105.3" y1="151" x2="144.2" y2="151"/>
						<line class="st6" x1="105.3" y1="224.8" x2="144.2" y2="224.8"/>
						<line class="st6" x1="105.3" y1="239.5" x2="144.2" y2="239.5"/>
						<line class="st6" x1="105.3" y1="180.5" x2="144.2" y2="180.5"/>
						<line class="st6" x1="105.3" y1="165.8" x2="144.2" y2="165.8"/>
						<g>
							<circle class="st7" cx="113.1" cy="158.4" r="2.8"/>
							<g>
								<line class="st6" x1="121.6" y1="156.7" x2="121.6" y2="159.7"/>
								<line class="st6" x1="126.7" y1="156.7" x2="126.7" y2="159.7"/>
								<line class="st6" x1="131.7" y1="156.7" x2="131.7" y2="159.7"/>
								<line class="st6" x1="136.7" y1="156.7" x2="136.7" y2="159.7"/>
							</g>
						</g>
						<g>
							<circle class="st7" cx="113.1" cy="173.1" r="2.8"/>
							<g>
								<line class="st6" x1="121.6" y1="171.4" x2="121.6" y2="174.5"/>
								<line class="st6" x1="126.7" y1="171.4" x2="126.7" y2="174.5"/>
								<line class="st6" x1="131.7" y1="171.4" x2="131.7" y2="174.5"/>
								<line class="st6" x1="136.7" y1="171.4" x2="136.7" y2="174.5"/>
							</g>
						</g>
						<g>
							<circle class="st7" cx="113.1" cy="187.9" r="2.8"/>
							<g>
								<line class="st6" x1="121.6" y1="186.2" x2="121.6" y2="189.2"/>
								<line class="st6" x1="126.7" y1="186.2" x2="126.7" y2="189.2"/>
								<line class="st6" x1="131.7" y1="186.2" x2="131.7" y2="189.2"/>
								<line class="st6" x1="136.7" y1="186.2" x2="136.7" y2="189.2"/>
							</g>
						</g>
						<g>
							<circle class="st7" cx="113.1" cy="202.6" r="2.8"/>
							<g>
								<line class="st6" x1="121.6" y1="200.9" x2="121.6" y2="204"/>
								<line class="st6" x1="126.7" y1="200.9" x2="126.7" y2="204"/>
								<line class="st6" x1="131.7" y1="200.9" x2="131.7" y2="204"/>
								<line class="st6" x1="136.7" y1="200.9" x2="136.7" y2="204"/>
							</g>
						</g>
						<g>
							<circle class="st7" cx="113.1" cy="217.4" r="2.8"/>
							<g>
								<line class="st6" x1="121.6" y1="215.7" x2="121.6" y2="218.8"/>
								<line class="st6" x1="126.7" y1="215.7" x2="126.7" y2="218.8"/>
								<line class="st6" x1="131.7" y1="215.7" x2="131.7" y2="218.8"/>
								<line class="st6" x1="136.7" y1="215.7" x2="136.7" y2="218.8"/>
							</g>
						</g>
						<g>
							<circle class="st7" cx="113.1" cy="232.1" r="2.8"/>
							<g>
								<line class="st6" x1="121.6" y1="230.4" x2="121.6" y2="233.5"/>
								<line class="st6" x1="126.7" y1="230.4" x2="126.7" y2="233.5"/>
								<line class="st6" x1="131.7" y1="230.4" x2="131.7" y2="233.5"/>
								<line class="st6" x1="136.7" y1="230.4" x2="136.7" y2="233.5"/>
							</g>
						</g>
					</g>
					<g>
						<rect x="202.2" y="151" class="st6" width="38.8" height="88.5"/>
						<line class="st6" x1="202.2" y1="195.3" x2="241" y2="195.3"/>
						<line class="st6" x1="202.2" y1="210" x2="241" y2="210"/>
						<line class="st6" x1="202.2" y1="151" x2="241" y2="151"/>
						<line class="st6" x1="202.2" y1="224.8" x2="241" y2="224.8"/>
						<line class="st6" x1="202.2" y1="239.5" x2="241" y2="239.5"/>
						<line class="st6" x1="202.2" y1="180.5" x2="241" y2="180.5"/>
						<line class="st6" x1="202.2" y1="165.8" x2="241" y2="165.8"/>
						<g>
							<circle class="st7" cx="209.9" cy="158.4" r="2.8"/>
							<g>
								<line class="st6" x1="218.5" y1="156.7" x2="218.5" y2="159.7"/>
								<line class="st6" x1="223.5" y1="156.7" x2="223.5" y2="159.7"/>
								<line class="st6" x1="228.5" y1="156.7" x2="228.5" y2="159.7"/>
								<line class="st6" x1="233.5" y1="156.7" x2="233.5" y2="159.7"/>
							</g>
						</g>
						<g>
							<circle class="st7" cx="209.9" cy="173.1" r="2.8"/>
							<g>
								<line class="st6" x1="218.5" y1="171.4" x2="218.5" y2="174.5"/>
								<line class="st6" x1="223.5" y1="171.4" x2="223.5" y2="174.5"/>
								<line class="st6" x1="228.5" y1="171.4" x2="228.5" y2="174.5"/>
								<line class="st6" x1="233.5" y1="171.4" x2="233.5" y2="174.5"/>
							</g>
						</g>
						<g>
							<circle class="st7" cx="209.9" cy="187.9" r="2.8"/>
							<g>
								<line class="st6" x1="218.5" y1="186.2" x2="218.5" y2="189.2"/>
								<line class="st6" x1="223.5" y1="186.2" x2="223.5" y2="189.2"/>
								<line class="st6" x1="228.5" y1="186.2" x2="228.5" y2="189.2"/>
								<line class="st6" x1="233.5" y1="186.2" x2="233.5" y2="189.2"/>
							</g>
						</g>
						<g>
							<circle class="st7" cx="209.9" cy="202.6" r="2.8"/>
							<g>
								<line class="st6" x1="218.5" y1="200.9" x2="218.5" y2="204"/>
								<line class="st6" x1="223.5" y1="200.9" x2="223.5" y2="204"/>
								<line class="st6" x1="228.5" y1="200.9" x2="228.5" y2="204"/>
								<line class="st6" x1="233.5" y1="200.9" x2="233.5" y2="204"/>
							</g>
						</g>
						<g>
							<circle class="st7" cx="209.9" cy="217.4" r="2.8"/>
							<g>
								<line class="st6" x1="218.5" y1="215.7" x2="218.5" y2="218.8"/>
								<line class="st6" x1="223.5" y1="215.7" x2="223.5" y2="218.8"/>
								<line class="st6" x1="228.5" y1="215.7" x2="228.5" y2="218.8"/>
								<line class="st6" x1="233.5" y1="215.7" x2="233.5" y2="218.8"/>
							</g>
						</g>
						<g>
							<circle class="st7" cx="209.9" cy="232.1" r="2.8"/>
							<g>
								<line class="st6" x1="218.5" y1="230.4" x2="218.5" y2="233.5"/>
								<line class="st6" x1="223.5" y1="230.4" x2="223.5" y2="233.5"/>
								<line class="st6" x1="228.5" y1="230.4" x2="228.5" y2="233.5"/>
								<line class="st6" x1="233.5" y1="230.4" x2="233.5" y2="233.5"/>
							</g>
						</g>
					</g>
					<g>
						<rect x="250.6" y="151" class="st6" width="38.8" height="88.5"/>
						<line class="st6" x1="250.6" y1="195.3" x2="289.4" y2="195.3"/>
						<line class="st6" x1="250.6" y1="210" x2="289.4" y2="210"/>
						<line class="st6" x1="250.6" y1="151" x2="289.4" y2="151"/>
						<line class="st6" x1="250.6" y1="224.8" x2="289.4" y2="224.8"/>
						<line class="st6" x1="250.6" y1="239.5" x2="289.4" y2="239.5"/>
						<line class="st6" x1="250.6" y1="180.5" x2="289.4" y2="180.5"/>
						<line class="st6" x1="250.6" y1="165.8" x2="289.4" y2="165.8"/>
						<g>
							<circle class="st7" cx="258.3" cy="158.4" r="2.8"/>
							<g>
								<line class="st6" x1="266.9" y1="156.7" x2="266.9" y2="159.7"/>
								<line class="st6" x1="271.9" y1="156.7" x2="271.9" y2="159.7"/>
								<line class="st6" x1="276.9" y1="156.7" x2="276.9" y2="159.7"/>
								<line class="st6" x1="281.9" y1="156.7" x2="281.9" y2="159.7"/>
							</g>
						</g>
						<g>
							<circle class="st7" cx="258.3" cy="173.1" r="2.8"/>
							<g>
								<line class="st6" x1="266.9" y1="171.4" x2="266.9" y2="174.5"/>
								<line class="st6" x1="271.9" y1="171.4" x2="271.9" y2="174.5"/>
								<line class="st6" x1="276.9" y1="171.4" x2="276.9" y2="174.5"/>
								<line class="st6" x1="281.9" y1="171.4" x2="281.9" y2="174.5"/>
							</g>
						</g>
						<g>
							<circle class="st7" cx="258.3" cy="187.9" r="2.8"/>
							<g>
								<line class="st6" x1="266.9" y1="186.2" x2="266.9" y2="189.2"/>
								<line class="st6" x1="271.9" y1="186.2" x2="271.9" y2="189.2"/>
								<line class="st6" x1="276.9" y1="186.2" x2="276.9" y2="189.2"/>
								<line class="st6" x1="281.9" y1="186.2" x2="281.9" y2="189.2"/>
							</g>
						</g>
						<g>
							<circle class="st7" cx="258.3" cy="202.6" r="2.8"/>
							<g>
								<line class="st6" x1="266.9" y1="200.9" x2="266.9" y2="204"/>
								<line class="st6" x1="271.9" y1="200.9" x2="271.9" y2="204"/>
								<line class="st6" x1="276.9" y1="200.9" x2="276.9" y2="204"/>
								<line class="st6" x1="281.9" y1="200.9" x2="281.9" y2="204"/>
							</g>
						</g>
						<g>
							<circle class="st7" cx="258.3" cy="217.4" r="2.8"/>
							<g>
								<line class="st6" x1="266.9" y1="215.7" x2="266.9" y2="218.8"/>
								<line class="st6" x1="271.9" y1="215.7" x2="271.9" y2="218.8"/>
								<line class="st6" x1="276.9" y1="215.7" x2="276.9" y2="218.8"/>
								<line class="st6" x1="281.9" y1="215.7" x2="281.9" y2="218.8"/>
							</g>
						</g>
						<g>
							<circle class="st7" cx="258.3" cy="232.1" r="2.8"/>
							<g>
								<line class="st6" x1="266.9" y1="230.4" x2="266.9" y2="233.5"/>
								<line class="st6" x1="271.9" y1="230.4" x2="271.9" y2="233.5"/>
								<line class="st6" x1="276.9" y1="230.4" x2="276.9" y2="233.5"/>
								<line class="st6" x1="281.9" y1="230.4" x2="281.9" y2="233.5"/>
							</g>
						</g>
					</g>
				</g>
			</g>
			<g>
				<g>
					<g>
						<rect x="347.4" y="253.5" class="st6" width="38.8" height="88.5"/>
						<line class="st6" x1="347.4" y1="297.7" x2="386.3" y2="297.7"/>
						<line class="st6" x1="347.4" y1="312.5" x2="386.3" y2="312.5"/>
						<line class="st6" x1="347.4" y1="253.5" x2="386.3" y2="253.5"/>
						<line class="st6" x1="347.4" y1="327.2" x2="386.3" y2="327.2"/>
						<line class="st6" x1="347.4" y1="342" x2="386.3" y2="342"/>
						<line class="st6" x1="347.4" y1="283" x2="386.3" y2="283"/>
						<line class="st6" x1="347.4" y1="268.2" x2="386.3" y2="268.2"/>
						<g>
							<circle class="st7" cx="355.2" cy="260.8" r="2.8"/>
							<g>
								<line class="st6" x1="363.7" y1="259.1" x2="363.7" y2="262.2"/>
								<line class="st6" x1="368.8" y1="259.1" x2="368.8" y2="262.2"/>
								<line class="st6" x1="373.8" y1="259.1" x2="373.8" y2="262.2"/>
								<line class="st6" x1="378.8" y1="259.1" x2="378.8" y2="262.2"/>
							</g>
						</g>
						<g>
							<circle class="st7" cx="355.2" cy="275.6" r="2.8"/>
							<g>
								<line class="st6" x1="363.7" y1="273.9" x2="363.7" y2="276.9"/>
								<line class="st6" x1="368.8" y1="273.9" x2="368.8" y2="276.9"/>
								<line class="st6" x1="373.8" y1="273.9" x2="373.8" y2="276.9"/>
								<line class="st6" x1="378.8" y1="273.9" x2="378.8" y2="276.9"/>
							</g>
						</g>
						<g>
							<circle class="st7" cx="355.2" cy="290.3" r="2.8"/>
							<g>
								<line class="st6" x1="363.7" y1="288.6" x2="363.7" y2="291.7"/>
								<line class="st6" x1="368.8" y1="288.6" x2="368.8" y2="291.7"/>
								<line class="st6" x1="373.8" y1="288.6" x2="373.8" y2="291.7"/>
								<line class="st6" x1="378.8" y1="288.6" x2="378.8" y2="291.7"/>
							</g>
						</g>
						<g>
							<circle class="st7" cx="355.2" cy="305.1" r="2.8"/>
							<g>
								<line class="st6" x1="363.7" y1="303.4" x2="363.7" y2="306.5"/>
								<line class="st6" x1="368.8" y1="303.4" x2="368.8" y2="306.5"/>
								<line class="st6" x1="373.8" y1="303.4" x2="373.8" y2="306.5"/>
								<line class="st6" x1="378.8" y1="303.4" x2="378.8" y2="306.5"/>
							</g>
						</g>
						<g>
							<circle class="st7" cx="355.2" cy="319.8" r="2.8"/>
							<g>
								<line class="st6" x1="363.7" y1="318.1" x2="363.7" y2="321.2"/>
								<line class="st6" x1="368.8" y1="318.1" x2="368.8" y2="321.2"/>
								<line class="st6" x1="373.8" y1="318.1" x2="373.8" y2="321.2"/>
								<line class="st6" x1="378.8" y1="318.1" x2="378.8" y2="321.2"/>
							</g>
						</g>
						<g>
							<circle class="st7" cx="355.2" cy="334.6" r="2.8"/>
							<g>
								<line class="st6" x1="363.7" y1="332.9" x2="363.7" y2="336"/>
								<line class="st6" x1="368.8" y1="332.9" x2="368.8" y2="336"/>
								<line class="st6" x1="373.8" y1="332.9" x2="373.8" y2="336"/>
								<line class="st6" x1="378.8" y1="332.9" x2="378.8" y2="336"/>
							</g>
						</g>
					</g>
					<g>
						<rect x="299" y="253.5" class="st6" width="38.8" height="88.5"/>
						<line class="st6" x1="299" y1="297.7" x2="337.9" y2="297.7"/>
						<line class="st6" x1="299" y1="312.5" x2="337.9" y2="312.5"/>
						<line class="st6" x1="299" y1="253.5" x2="337.9" y2="253.5"/>
						<line class="st6" x1="299" y1="327.2" x2="337.9" y2="327.2"/>
						<line class="st6" x1="299" y1="342" x2="337.9" y2="342"/>
						<line class="st6" x1="299" y1="283" x2="337.9" y2="283"/>
						<line class="st6" x1="299" y1="268.2" x2="337.9" y2="268.2"/>
						<g>
							<circle class="st7" cx="306.7" cy="260.8" r="2.8"/>
							<g>
								<line class="st6" x1="315.3" y1="259.1" x2="315.3" y2="262.2"/>
								<line class="st6" x1="320.4" y1="259.1" x2="320.4" y2="262.2"/>
								<line class="st6" x1="325.4" y1="259.1" x2="325.4" y2="262.2"/>
								<line class="st6" x1="330.4" y1="259.1" x2="330.4" y2="262.2"/>
							</g>
						</g>
						<g>
							<circle class="st7" cx="306.7" cy="275.6" r="2.8"/>
							<g>
								<line class="st6" x1="315.3" y1="273.9" x2="315.3" y2="276.9"/>
								<line class="st6" x1="320.4" y1="273.9" x2="320.4" y2="276.9"/>
								<line class="st6" x1="325.4" y1="273.9" x2="325.4" y2="276.9"/>
								<line class="st6" x1="330.4" y1="273.9" x2="330.4" y2="276.9"/>
							</g>
						</g>
						<g>
							<circle class="st7" cx="306.7" cy="290.3" r="2.8"/>
							<g>
								<line class="st6" x1="315.3" y1="288.6" x2="315.3" y2="291.7"/>
								<line class="st6" x1="320.4" y1="288.6" x2="320.4" y2="291.7"/>
								<line class="st6" x1="325.4" y1="288.6" x2="325.4" y2="291.7"/>
								<line class="st6" x1="330.4" y1="288.6" x2="330.4" y2="291.7"/>
							</g>
						</g>
						<g>
							<circle class="st7" cx="306.7" cy="305.1" r="2.8"/>
							<g>
								<line class="st6" x1="315.3" y1="303.4" x2="315.3" y2="306.5"/>
								<line class="st6" x1="320.4" y1="303.4" x2="320.4" y2="306.5"/>
								<line class="st6" x1="325.4" y1="303.4" x2="325.4" y2="306.5"/>
								<line class="st6" x1="330.4" y1="303.4" x2="330.4" y2="306.5"/>
							</g>
						</g>
						<g>
							<circle class="st7" cx="306.7" cy="319.8" r="2.8"/>
							<g>
								<line class="st6" x1="315.3" y1="318.1" x2="315.3" y2="321.2"/>
								<line class="st6" x1="320.4" y1="318.1" x2="320.4" y2="321.2"/>
								<line class="st6" x1="325.4" y1="318.1" x2="325.4" y2="321.2"/>
								<line class="st6" x1="330.4" y1="318.1" x2="330.4" y2="321.2"/>
							</g>
						</g>
						<g>
							<circle class="st7" cx="306.7" cy="334.6" r="2.8"/>
							<g>
								<line class="st6" x1="315.3" y1="332.9" x2="315.3" y2="336"/>
								<line class="st6" x1="320.4" y1="332.9" x2="320.4" y2="336"/>
								<line class="st6" x1="325.4" y1="332.9" x2="325.4" y2="336"/>
								<line class="st6" x1="330.4" y1="332.9" x2="330.4" y2="336"/>
							</g>
						</g>
					</g>
					<g>
						<rect x="395.8" y="253.5" class="st6" width="38.8" height="88.5"/>
						<line class="st6" x1="395.8" y1="297.7" x2="434.7" y2="297.7"/>
						<line class="st6" x1="395.8" y1="312.5" x2="434.7" y2="312.5"/>
						<line class="st6" x1="395.8" y1="253.5" x2="434.7" y2="253.5"/>
						<line class="st6" x1="395.8" y1="327.2" x2="434.7" y2="327.2"/>
						<line class="st6" x1="395.8" y1="342" x2="434.7" y2="342"/>
						<line class="st6" x1="395.8" y1="283" x2="434.7" y2="283"/>
						<line class="st6" x1="395.8" y1="268.2" x2="434.7" y2="268.2"/>
						<g>
							<circle class="st7" cx="403.6" cy="260.8" r="2.8"/>
							<g>
								<line class="st6" x1="412.2" y1="259.1" x2="412.2" y2="262.2"/>
								<line class="st6" x1="417.2" y1="259.1" x2="417.2" y2="262.2"/>
								<line class="st6" x1="422.2" y1="259.1" x2="422.2" y2="262.2"/>
								<line class="st6" x1="427.2" y1="259.1" x2="427.2" y2="262.2"/>
							</g>
						</g>
						<g>
							<circle class="st7" cx="403.6" cy="275.6" r="2.8"/>
							<g>
								<line class="st6" x1="412.2" y1="273.9" x2="412.2" y2="276.9"/>
								<line class="st6" x1="417.2" y1="273.9" x2="417.2" y2="276.9"/>
								<line class="st6" x1="422.2" y1="273.9" x2="422.2" y2="276.9"/>
								<line class="st6" x1="427.2" y1="273.9" x2="427.2" y2="276.9"/>
							</g>
						</g>
						<g>
							<circle class="st7" cx="403.6" cy="290.3" r="2.8"/>
							<g>
								<line class="st6" x1="412.2" y1="288.6" x2="412.2" y2="291.7"/>
								<line class="st6" x1="417.2" y1="288.6" x2="417.2" y2="291.7"/>
								<line class="st6" x1="422.2" y1="288.6" x2="422.2" y2="291.7"/>
								<line class="st6" x1="427.2" y1="288.6" x2="427.2" y2="291.7"/>
							</g>
						</g>
						<g>
							<circle class="st7" cx="403.6" cy="305.1" r="2.8"/>
							<g>
								<line class="st6" x1="412.2" y1="303.4" x2="412.2" y2="306.5"/>
								<line class="st6" x1="417.2" y1="303.4" x2="417.2" y2="306.5"/>
								<line class="st6" x1="422.2" y1="303.4" x2="422.2" y2="306.5"/>
								<line class="st6" x1="427.2" y1="303.4" x2="427.2" y2="306.5"/>
							</g>
						</g>
						<g>
							<circle class="st7" cx="403.6" cy="319.8" r="2.8"/>
							<g>
								<line class="st6" x1="412.2" y1="318.1" x2="412.2" y2="321.2"/>
								<line class="st6" x1="417.2" y1="318.1" x2="417.2" y2="321.2"/>
								<line class="st6" x1="422.2" y1="318.1" x2="422.2" y2="321.2"/>
								<line class="st6" x1="427.2" y1="318.1" x2="427.2" y2="321.2"/>
							</g>
						</g>
						<g>
							<circle class="st7" cx="403.6" cy="334.6" r="2.8"/>
							<g>
								<line class="st6" x1="412.2" y1="332.9" x2="412.2" y2="336"/>
								<line class="st6" x1="417.2" y1="332.9" x2="417.2" y2="336"/>
								<line class="st6" x1="422.2" y1="332.9" x2="422.2" y2="336"/>
								<line class="st6" x1="427.2" y1="332.9" x2="427.2" y2="336"/>
							</g>
						</g>
					</g>
					<g>
						<rect x="444.2" y="253.5" class="st6" width="38.8" height="88.5"/>
						<line class="st6" x1="444.2" y1="297.7" x2="483.1" y2="297.7"/>
						<line class="st6" x1="444.2" y1="312.5" x2="483.1" y2="312.5"/>
						<line class="st6" x1="444.2" y1="253.5" x2="483.1" y2="253.5"/>
						<line class="st6" x1="444.2" y1="327.2" x2="483.1" y2="327.2"/>
						<line class="st6" x1="444.2" y1="342" x2="483.1" y2="342"/>
						<line class="st6" x1="444.2" y1="283" x2="483.1" y2="283"/>
						<line class="st6" x1="444.2" y1="268.2" x2="483.1" y2="268.2"/>
						<g>
							<circle class="st7" cx="452" cy="260.8" r="2.8"/>
							<g>
								<line class="st6" x1="460.6" y1="259.1" x2="460.6" y2="262.2"/>
								<line class="st6" x1="465.6" y1="259.1" x2="465.6" y2="262.2"/>
								<line class="st6" x1="470.6" y1="259.1" x2="470.6" y2="262.2"/>
								<line class="st6" x1="475.6" y1="259.1" x2="475.6" y2="262.2"/>
							</g>
						</g>
						<g>
							<circle class="st7" cx="452" cy="275.6" r="2.8"/>
							<g>
								<line class="st6" x1="460.6" y1="273.9" x2="460.6" y2="276.9"/>
								<line class="st6" x1="465.6" y1="273.9" x2="465.6" y2="276.9"/>
								<line class="st6" x1="470.6" y1="273.9" x2="470.6" y2="276.9"/>
								<line class="st6" x1="475.6" y1="273.9" x2="475.6" y2="276.9"/>
							</g>
						</g>
						<g>
							<circle class="st7" cx="452" cy="290.3" r="2.8"/>
							<g>
								<line class="st6" x1="460.6" y1="288.6" x2="460.6" y2="291.7"/>
								<line class="st6" x1="465.6" y1="288.6" x2="465.6" y2="291.7"/>
								<line class="st6" x1="470.6" y1="288.6" x2="470.6" y2="291.7"/>
								<line class="st6" x1="475.6" y1="288.6" x2="475.6" y2="291.7"/>
							</g>
						</g>
						<g>
							<circle class="st7" cx="452" cy="305.1" r="2.8"/>
							<g>
								<line class="st6" x1="460.6" y1="303.4" x2="460.6" y2="306.5"/>
								<line class="st6" x1="465.6" y1="303.4" x2="465.6" y2="306.5"/>
								<line class="st6" x1="470.6" y1="303.4" x2="470.6" y2="306.5"/>
								<line class="st6" x1="475.6" y1="303.4" x2="475.6" y2="306.5"/>
							</g>
						</g>
						<g>
							<circle class="st7" cx="452" cy="319.8" r="2.8"/>
							<g>
								<line class="st6" x1="460.6" y1="318.1" x2="460.6" y2="321.2"/>
								<line class="st6" x1="465.6" y1="318.1" x2="465.6" y2="321.2"/>
								<line class="st6" x1="470.6" y1="318.1" x2="470.6" y2="321.2"/>
								<line class="st6" x1="475.6" y1="318.1" x2="475.6" y2="321.2"/>
							</g>
						</g>
						<g>
							<circle class="st7" cx="452" cy="334.6" r="2.8"/>
							<g>
								<line class="st6" x1="460.6" y1="332.9" x2="460.6" y2="336"/>
								<line class="st6" x1="465.6" y1="332.9" x2="465.6" y2="336"/>
								<line class="st6" x1="470.6" y1="332.9" x2="470.6" y2="336"/>
								<line class="st6" x1="475.6" y1="332.9" x2="475.6" y2="336"/>
							</g>
						</g>
					</g>
				</g>
				<g>
					<g>
						<rect x="347.4" y="151" class="st6" width="38.8" height="88.5"/>
						<line class="st6" x1="347.4" y1="195.3" x2="386.3" y2="195.3"/>
						<line class="st6" x1="347.4" y1="210" x2="386.3" y2="210"/>
						<line class="st6" x1="347.4" y1="151" x2="386.3" y2="151"/>
						<line class="st6" x1="347.4" y1="224.8" x2="386.3" y2="224.8"/>
						<line class="st6" x1="347.4" y1="239.5" x2="386.3" y2="239.5"/>
						<line class="st6" x1="347.4" y1="180.5" x2="386.3" y2="180.5"/>
						<line class="st6" x1="347.4" y1="165.8" x2="386.3" y2="165.8"/>
						<g>
							<circle class="st7" cx="355.2" cy="158.4" r="2.8"/>
							<g>
								<line class="st6" x1="363.7" y1="156.7" x2="363.7" y2="159.7"/>
								<line class="st6" x1="368.8" y1="156.7" x2="368.8" y2="159.7"/>
								<line class="st6" x1="373.8" y1="156.7" x2="373.8" y2="159.7"/>
								<line class="st6" x1="378.8" y1="156.7" x2="378.8" y2="159.7"/>
							</g>
						</g>
						<g>
							<circle class="st7" cx="355.2" cy="173.1" r="2.8"/>
							<g>
								<line class="st6" x1="363.7" y1="171.4" x2="363.7" y2="174.5"/>
								<line class="st6" x1="368.8" y1="171.4" x2="368.8" y2="174.5"/>
								<line class="st6" x1="373.8" y1="171.4" x2="373.8" y2="174.5"/>
								<line class="st6" x1="378.8" y1="171.4" x2="378.8" y2="174.5"/>
							</g>
						</g>
						<g>
							<circle class="st7" cx="355.2" cy="187.9" r="2.8"/>
							<g>
								<line class="st6" x1="363.7" y1="186.2" x2="363.7" y2="189.2"/>
								<line class="st6" x1="368.8" y1="186.2" x2="368.8" y2="189.2"/>
								<line class="st6" x1="373.8" y1="186.2" x2="373.8" y2="189.2"/>
								<line class="st6" x1="378.8" y1="186.2" x2="378.8" y2="189.2"/>
							</g>
						</g>
						<g>
							<circle class="st7" cx="355.2" cy="202.6" r="2.8"/>
							<g>
								<line class="st6" x1="363.7" y1="200.9" x2="363.7" y2="204"/>
								<line class="st6" x1="368.8" y1="200.9" x2="368.8" y2="204"/>
								<line class="st6" x1="373.8" y1="200.9" x2="373.8" y2="204"/>
								<line class="st6" x1="378.8" y1="200.9" x2="378.8" y2="204"/>
							</g>
						</g>
						<g>
							<circle class="st7" cx="355.2" cy="217.4" r="2.8"/>
							<g>
								<line class="st6" x1="363.7" y1="215.7" x2="363.7" y2="218.8"/>
								<line class="st6" x1="368.8" y1="215.7" x2="368.8" y2="218.8"/>
								<line class="st6" x1="373.8" y1="215.7" x2="373.8" y2="218.8"/>
								<line class="st6" x1="378.8" y1="215.7" x2="378.8" y2="218.8"/>
							</g>
						</g>
						<g>
							<circle class="st7" cx="355.2" cy="232.1" r="2.8"/>
							<g>
								<line class="st6" x1="363.7" y1="230.4" x2="363.7" y2="233.5"/>
								<line class="st6" x1="368.8" y1="230.4" x2="368.8" y2="233.5"/>
								<line class="st6" x1="373.8" y1="230.4" x2="373.8" y2="233.5"/>
								<line class="st6" x1="378.8" y1="230.4" x2="378.8" y2="233.5"/>
							</g>
						</g>
					</g>
					<g>
						<rect x="299" y="151" class="st6" width="38.8" height="88.5"/>
						<line class="st6" x1="299" y1="195.3" x2="337.9" y2="195.3"/>
						<line class="st6" x1="299" y1="210" x2="337.9" y2="210"/>
						<line class="st6" x1="299" y1="151" x2="337.9" y2="151"/>
						<line class="st6" x1="299" y1="224.8" x2="337.9" y2="224.8"/>
						<line class="st6" x1="299" y1="239.5" x2="337.9" y2="239.5"/>
						<line class="st6" x1="299" y1="180.5" x2="337.9" y2="180.5"/>
						<line class="st6" x1="299" y1="165.8" x2="337.9" y2="165.8"/>
						<g>
							<circle class="st7" cx="306.7" cy="158.4" r="2.8"/>
							<g>
								<line class="st6" x1="315.3" y1="156.7" x2="315.3" y2="159.7"/>
								<line class="st6" x1="320.4" y1="156.7" x2="320.4" y2="159.7"/>
								<line class="st6" x1="325.4" y1="156.7" x2="325.4" y2="159.7"/>
								<line class="st6" x1="330.4" y1="156.7" x2="330.4" y2="159.7"/>
							</g>
						</g>
						<g>
							<circle class="st7" cx="306.7" cy="173.1" r="2.8"/>
							<g>
								<line class="st6" x1="315.3" y1="171.4" x2="315.3" y2="174.5"/>
								<line class="st6" x1="320.4" y1="171.4" x2="320.4" y2="174.5"/>
								<line class="st6" x1="325.4" y1="171.4" x2="325.4" y2="174.5"/>
								<line class="st6" x1="330.4" y1="171.4" x2="330.4" y2="174.5"/>
							</g>
						</g>
						<g>
							<circle class="st7" cx="306.7" cy="187.9" r="2.8"/>
							<g>
								<line class="st6" x1="315.3" y1="186.2" x2="315.3" y2="189.2"/>
								<line class="st6" x1="320.4" y1="186.2" x2="320.4" y2="189.2"/>
								<line class="st6" x1="325.4" y1="186.2" x2="325.4" y2="189.2"/>
								<line class="st6" x1="330.4" y1="186.2" x2="330.4" y2="189.2"/>
							</g>
						</g>
						<g>
							<circle class="st7" cx="306.7" cy="202.6" r="2.8"/>
							<g>
								<line class="st6" x1="315.3" y1="200.9" x2="315.3" y2="204"/>
								<line class="st6" x1="320.4" y1="200.9" x2="320.4" y2="204"/>
								<line class="st6" x1="325.4" y1="200.9" x2="325.4" y2="204"/>
								<line class="st6" x1="330.4" y1="200.9" x2="330.4" y2="204"/>
							</g>
						</g>
						<g>
							<circle class="st7" cx="306.7" cy="217.4" r="2.8"/>
							<g>
								<line class="st6" x1="315.3" y1="215.7" x2="315.3" y2="218.8"/>
								<line class="st6" x1="320.4" y1="215.7" x2="320.4" y2="218.8"/>
								<line class="st6" x1="325.4" y1="215.7" x2="325.4" y2="218.8"/>
								<line class="st6" x1="330.4" y1="215.7" x2="330.4" y2="218.8"/>
							</g>
						</g>
						<g>
							<circle class="st7" cx="306.7" cy="232.1" r="2.8"/>
							<g>
								<line class="st6" x1="315.3" y1="230.4" x2="315.3" y2="233.5"/>
								<line class="st6" x1="320.4" y1="230.4" x2="320.4" y2="233.5"/>
								<line class="st6" x1="325.4" y1="230.4" x2="325.4" y2="233.5"/>
								<line class="st6" x1="330.4" y1="230.4" x2="330.4" y2="233.5"/>
							</g>
						</g>
					</g>
					<g>
						<rect x="395.8" y="151" class="st6" width="38.8" height="88.5"/>
						<line class="st6" x1="395.8" y1="195.3" x2="434.7" y2="195.3"/>
						<line class="st6" x1="395.8" y1="210" x2="434.7" y2="210"/>
						<line class="st6" x1="395.8" y1="151" x2="434.7" y2="151"/>
						<line class="st6" x1="395.8" y1="224.8" x2="434.7" y2="224.8"/>
						<line class="st6" x1="395.8" y1="239.5" x2="434.7" y2="239.5"/>
						<line class="st6" x1="395.8" y1="180.5" x2="434.7" y2="180.5"/>
						<line class="st6" x1="395.8" y1="165.8" x2="434.7" y2="165.8"/>
						<g>
							<circle class="st7" cx="403.6" cy="158.4" r="2.8"/>
							<g>
								<line class="st6" x1="412.2" y1="156.7" x2="412.2" y2="159.7"/>
								<line class="st6" x1="417.2" y1="156.7" x2="417.2" y2="159.7"/>
								<line class="st6" x1="422.2" y1="156.7" x2="422.2" y2="159.7"/>
								<line class="st6" x1="427.2" y1="156.7" x2="427.2" y2="159.7"/>
							</g>
						</g>
						<g>
							<circle class="st7" cx="403.6" cy="173.1" r="2.8"/>
							<g>
								<line class="st6" x1="412.2" y1="171.4" x2="412.2" y2="174.5"/>
								<line class="st6" x1="417.2" y1="171.4" x2="417.2" y2="174.5"/>
								<line class="st6" x1="422.2" y1="171.4" x2="422.2" y2="174.5"/>
								<line class="st6" x1="427.2" y1="171.4" x2="427.2" y2="174.5"/>
							</g>
						</g>
						<g>
							<circle class="st7" cx="403.6" cy="187.9" r="2.8"/>
							<g>
								<line class="st6" x1="412.2" y1="186.2" x2="412.2" y2="189.2"/>
								<line class="st6" x1="417.2" y1="186.2" x2="417.2" y2="189.2"/>
								<line class="st6" x1="422.2" y1="186.2" x2="422.2" y2="189.2"/>
								<line class="st6" x1="427.2" y1="186.2" x2="427.2" y2="189.2"/>
							</g>
						</g>
						<g>
							<circle class="st7" cx="403.6" cy="202.6" r="2.8"/>
							<g>
								<line class="st6" x1="412.2" y1="200.9" x2="412.2" y2="204"/>
								<line class="st6" x1="417.2" y1="200.9" x2="417.2" y2="204"/>
								<line class="st6" x1="422.2" y1="200.9" x2="422.2" y2="204"/>
								<line class="st6" x1="427.2" y1="200.9" x2="427.2" y2="204"/>
							</g>
						</g>
						<g>
							<circle class="st7" cx="403.6" cy="217.4" r="2.8"/>
							<g>
								<line class="st6" x1="412.2" y1="215.7" x2="412.2" y2="218.8"/>
								<line class="st6" x1="417.2" y1="215.7" x2="417.2" y2="218.8"/>
								<line class="st6" x1="422.2" y1="215.7" x2="422.2" y2="218.8"/>
								<line class="st6" x1="427.2" y1="215.7" x2="427.2" y2="218.8"/>
							</g>
						</g>
						<g>
							<circle class="st7" cx="403.6" cy="232.1" r="2.8"/>
							<g>
								<line class="st6" x1="412.2" y1="230.4" x2="412.2" y2="233.5"/>
								<line class="st6" x1="417.2" y1="230.4" x2="417.2" y2="233.5"/>
								<line class="st6" x1="422.2" y1="230.4" x2="422.2" y2="233.5"/>
								<line class="st6" x1="427.2" y1="230.4" x2="427.2" y2="233.5"/>
							</g>
						</g>
					</g>
					<g>
						<rect x="444.2" y="151" class="st6" width="38.8" height="88.5"/>
						<line class="st6" x1="444.2" y1="195.3" x2="483.1" y2="195.3"/>
						<line class="st6" x1="444.2" y1="210" x2="483.1" y2="210"/>
						<line class="st6" x1="444.2" y1="151" x2="483.1" y2="151"/>
						<line class="st6" x1="444.2" y1="224.8" x2="483.1" y2="224.8"/>
						<line class="st6" x1="444.2" y1="239.5" x2="483.1" y2="239.5"/>
						<line class="st6" x1="444.2" y1="180.5" x2="483.1" y2="180.5"/>
						<line class="st6" x1="444.2" y1="165.8" x2="483.1" y2="165.8"/>
						<g>
							<circle class="st7" cx="452" cy="158.4" r="2.8"/>
							<g>
								<line class="st6" x1="460.6" y1="156.7" x2="460.6" y2="159.7"/>
								<line class="st6" x1="465.6" y1="156.7" x2="465.6" y2="159.7"/>
								<line class="st6" x1="470.6" y1="156.7" x2="470.6" y2="159.7"/>
								<line class="st6" x1="475.6" y1="156.7" x2="475.6" y2="159.7"/>
							</g>
						</g>
						<g>
							<circle class="st7" cx="452" cy="173.1" r="2.8"/>
							<g>
								<line class="st6" x1="460.6" y1="171.4" x2="460.6" y2="174.5"/>
								<line class="st6" x1="465.6" y1="171.4" x2="465.6" y2="174.5"/>
								<line class="st6" x1="470.6" y1="171.4" x2="470.6" y2="174.5"/>
								<line class="st6" x1="475.6" y1="171.4" x2="475.6" y2="174.5"/>
							</g>
						</g>
						<g>
							<circle class="st7" cx="452" cy="187.9" r="2.8"/>
							<g>
								<line class="st6" x1="460.6" y1="186.2" x2="460.6" y2="189.2"/>
								<line class="st6" x1="465.6" y1="186.2" x2="465.6" y2="189.2"/>
								<line class="st6" x1="470.6" y1="186.2" x2="470.6" y2="189.2"/>
								<line class="st6" x1="475.6" y1="186.2" x2="475.6" y2="189.2"/>
							</g>
						</g>
						<g>
							<circle class="st7" cx="452" cy="202.6" r="2.8"/>
							<g>
								<line class="st6" x1="460.6" y1="200.9" x2="460.6" y2="204"/>
								<line class="st6" x1="465.6" y1="200.9" x2="465.6" y2="204"/>
								<line class="st6" x1="470.6" y1="200.9" x2="470.6" y2="204"/>
								<line class="st6" x1="475.6" y1="200.9" x2="475.6" y2="204"/>
							</g>
						</g>
						<g>
							<circle class="st7" cx="452" cy="217.4" r="2.8"/>
							<g>
								<line class="st6" x1="460.6" y1="215.7" x2="460.6" y2="218.8"/>
								<line class="st6" x1="465.6" y1="215.7" x2="465.6" y2="218.8"/>
								<line class="st6" x1="470.6" y1="215.7" x2="470.6" y2="218.8"/>
								<line class="st6" x1="475.6" y1="215.7" x2="475.6" y2="218.8"/>
							</g>
						</g>
						<g>
							<circle class="st7" cx="452" cy="232.1" r="2.8"/>
							<g>
								<line class="st6" x1="460.6" y1="230.4" x2="460.6" y2="233.5"/>
								<line class="st6" x1="465.6" y1="230.4" x2="465.6" y2="233.5"/>
								<line class="st6" x1="470.6" y1="230.4" x2="470.6" y2="233.5"/>
								<line class="st6" x1="475.6" y1="230.4" x2="475.6" y2="233.5"/>
							</g>
						</g>
					</g>
				</g>
			</g>
		</g>
	</g>
</g>
<path class="st8" d="M273,167.7c39,0,72.1,25.7,83.1,61.2c4.7-1.3,9.7-2,14.9-2c27.8,0,50.7,20.7,54.3,47.5c1.6-0.2,3.2-0.3,4.9-0.3
	c20.5,0,37.1,16.6,37.1,37.1c0,20.5-16.6,37.1-37.1,37.1l-0.2,0H195.4h-27.4h-0.3l0,0c-14.9-0.2-27-12.4-27-27.4v-3.3v-24.1v-2.1
	c-0.2-2-0.4-4-0.4-6.1c0-26.4,21.2-47.9,47.5-48.4C196,197.4,231.1,167.7,273,167.7z"/>
<path class="st9" d="M156.8,288.6c0-11.1,4.3-21.2,11.2-28.8 M183.1,249.3c4.7-1.9,9.9-3.1,15.3-3.2c4.2-20.3,16.5-37.7,33.4-48.6
	 M250.9,188.7c7.1-2.2,14.6-3.3,22.3-3.3"/>
<g>
	<path class="st10" d="M189.6,221.8h-4.3c-0.6,0-1.1-0.5-1.1-1.1c0-0.6,0.5-1.1,1.1-1.1h4.3c0.6,0,1.1,0.5,1.1,1.1
		C190.7,221.3,190.2,221.8,189.6,221.8z M181.1,221.8h-4.3c-0.6,0-1.1-0.5-1.1-1.1c0-0.6,0.5-1.1,1.1-1.1h4.3c0.6,0,1.1,0.5,1.1,1.1
		C182.1,221.3,181.7,221.8,181.1,221.8z M172.5,221.8h-4.3c-0.6,0-1.1-0.5-1.1-1.1c0-0.6,0.5-1.1,1.1-1.1h4.3c0.6,0,1.1,0.5,1.1,1.1
		C173.6,221.3,173.1,221.8,172.5,221.8z M164,221.8h-4.3c-0.6,0-1.1-0.5-1.1-1.1c0-0.6,0.5-1.1,1.1-1.1h4.3c0.6,0,1.1,0.5,1.1,1.1
		C165,221.3,164.5,221.8,164,221.8z M155.4,221.8h-4.3c-0.6,0-1.1-0.5-1.1-1.1c0-0.6,0.5-1.1,1.1-1.1h4.3c0.6,0,1.1,0.5,1.1,1.1
		C156.5,221.3,156,221.8,155.4,221.8z M146.8,221.8h-2.4c-0.6,0-1.3,0-1.9,0c-0.6,0-1.1-0.5-1.1-1.1c0-0.6,0.5-1.1,1.1-1.1
		c0,0,0,0,0,0c0.6,0,1.2,0,1.9,0h2.4c0.6,0,1.1,0.5,1.1,1.1C147.9,221.3,147.4,221.8,146.8,221.8z M138.3,221.7
		C138.3,221.7,138.2,221.7,138.3,221.7c-1.8-0.1-3.2-0.4-4.5-0.7c-0.6-0.1-0.9-0.7-0.8-1.3c0.1-0.6,0.7-0.9,1.3-0.8
		c1.2,0.3,2.5,0.5,4,0.6c0.6,0,1,0.6,1,1.1C139.3,221.2,138.8,221.7,138.3,221.7z M130.1,219.4c-0.2,0-0.4-0.1-0.6-0.2
		c-1.3-0.9-2.4-2-3.3-3.3c-0.3-0.5-0.2-1.2,0.3-1.5c0.5-0.3,1.2-0.2,1.5,0.3c0.7,1.1,1.6,2,2.7,2.7c0.5,0.3,0.6,1,0.3,1.5
		C130.8,219.2,130.5,219.4,130.1,219.4z M125.5,212.5c-0.5,0-0.9-0.3-1-0.8c-0.3-1.3-0.6-2.8-0.7-4.4c0-0.6,0.4-1.1,1-1.1
		c0.6-0.1,1.1,0.4,1.1,1c0.1,1.5,0.3,2.8,0.7,4c0.2,0.6-0.2,1.2-0.8,1.3C125.7,212.5,125.6,212.5,125.5,212.5z M124.7,204
		c-0.6,0-1.1-0.5-1.1-1.1v-4.3c0-0.6,0.5-1.1,1.1-1.1c0.6,0,1.1,0.5,1.1,1.1v4.3C125.8,203.5,125.3,204,124.7,204z M124.7,195.5
		c-0.6,0-1.1-0.5-1.1-1.1v-4.3c0-0.6,0.5-1.1,1.1-1.1c0.6,0,1.1,0.5,1.1,1.1v4.3C125.8,195,125.3,195.5,124.7,195.5z M124.7,186.9
		c-0.6,0-1.1-0.5-1.1-1.1v-4.3c0-0.6,0.5-1.1,1.1-1.1c0.6,0,1.1,0.5,1.1,1.1v4.3C125.8,186.4,125.3,186.9,124.7,186.9z M124.7,178.4
		c-0.6,0-1.1-0.5-1.1-1.1V173c0-0.6,0.5-1.1,1.1-1.1c0.6,0,1.1,0.5,1.1,1.1v4.3C125.8,177.9,125.3,178.4,124.7,178.4z M124.7,169.8
		c-0.6,0-1.1-0.5-1.1-1.1v-4.3c0-0.6,0.5-1.1,1.1-1.1c0.6,0,1.1,0.5,1.1,1.1v4.3C125.8,169.4,125.3,169.8,124.7,169.8z M124.7,161.3
		c-0.6,0-1.1-0.5-1.1-1.1V156c0-0.6,0.5-1.1,1.1-1.1c0.6,0,1.1,0.5,1.1,1.1v4.3C125.8,160.8,125.3,161.3,124.7,161.3z M124.7,152.8
		c-0.6,0-1.1-0.5-1.1-1.1v-4.3c0-0.6,0.5-1.1,1.1-1.1c0.6,0,1.1,0.5,1.1,1.1v4.3C125.8,152.3,125.3,152.8,124.7,152.8z"/>
</g>
<g>
	<path class="st10" d="M279.8,169c-0.6,0-1.1-0.5-1.1-1.1v-4.3c0-0.6,0.5-1.1,1.1-1.1c0.6,0,1.1,0.5,1.1,1.1v4.3
		C280.8,168.5,280.4,169,279.8,169z M279.8,160.5c-0.6,0-1.1-0.5-1.1-1.1v-4.3c0-0.6,0.5-1.1,1.1-1.1c0.6,0,1.1,0.5,1.1,1.1v4.3
		C280.8,160,280.4,160.5,279.8,160.5z M279.8,151.9c-0.6,0-1.1-0.5-1.1-1.1v-4.3c0-0.6,0.5-1.1,1.1-1.1c0.6,0,1.1,0.5,1.1,1.1v4.3
		C280.8,151.5,280.4,151.9,279.8,151.9z M279.8,143.4c-0.6,0-1.1-0.5-1.1-1.1v-4.3c0-0.6,0.5-1.1,1.1-1.1c0.6,0,1.1,0.5,1.1,1.1v4.3
		C280.8,142.9,280.4,143.4,279.8,143.4z M279.8,134.8c-0.6,0-1.1-0.5-1.1-1.1v-4.3c0-0.6,0.5-1.1,1.1-1.1c0.6,0,1.1,0.5,1.1,1.1v4.3
		C280.8,134.4,280.4,134.8,279.8,134.8z M279.8,126.3c-0.6,0-1.1-0.5-1.1-1.1V121c0-0.6,0.5-1.1,1.1-1.1c0.6,0,1.1,0.5,1.1,1.1v4.3
		C280.8,125.8,280.4,126.3,279.8,126.3z M279.8,117.8c-0.6,0-1.1-0.5-1.1-1.1v-4.3c0-0.6,0.5-1.1,1.1-1.1c0.6,0,1.1,0.5,1.1,1.1v4.3
		C280.8,117.3,280.4,117.8,279.8,117.8z M279.8,109.2c-0.6,0-1.1-0.5-1.1-1.1v-4.3c0-0.6,0.5-1.1,1.1-1.1c0.6,0,1.1,0.5,1.1,1.1v4.3
		C280.8,108.8,280.4,109.2,279.8,109.2z M279.8,100.7c-0.6,0-1.1-0.5-1.1-1.1v-4.3c0-0.6,0.5-1.1,1.1-1.1c0.6,0,1.1,0.5,1.1,1.1v4.3
		C280.8,100.2,280.4,100.7,279.8,100.7z M279.8,92.1c-0.6,0-1.1-0.5-1.1-1.1v-4.3c0-0.6,0.5-1.1,1.1-1.1c0.6,0,1.1,0.5,1.1,1.1v4.3
		C280.8,91.7,280.4,92.1,279.8,92.1z"/>
</g>
<g>
	<path class="st10" d="M413.2,233.4h-2.4c-0.6,0-1.1-0.5-1.1-1.1c0-0.6,0.5-1.1,1.1-1.1h2.4c0.6,0,1.2,0,1.9,0c0,0,0,0,0,0
		c0.6,0,1.1,0.5,1.1,1.1c0,0.6-0.5,1.1-1.1,1.1C414.5,233.4,413.9,233.4,413.2,233.4z M406.6,233.4h-4.3c-0.6,0-1.1-0.5-1.1-1.1
		c0-0.6,0.5-1.1,1.1-1.1h4.3c0.6,0,1.1,0.5,1.1,1.1C407.6,232.9,407.1,233.4,406.6,233.4z M398,233.4h-4.3c-0.6,0-1.1-0.5-1.1-1.1
		c0-0.6,0.5-1.1,1.1-1.1h4.3c0.6,0,1.1,0.5,1.1,1.1C399.1,232.9,398.6,233.4,398,233.4z M419.4,233.2c-0.6,0-1-0.4-1.1-1
		c0-0.6,0.4-1.1,1-1.1c1.6-0.1,2.9-0.3,4-0.6c0.6-0.1,1.2,0.2,1.3,0.8c0.1,0.6-0.2,1.2-0.8,1.3C422.6,232.9,421.1,233.1,419.4,233.2
		C419.4,233.2,419.4,233.2,419.4,233.2z M427.5,230.9c-0.3,0-0.7-0.2-0.9-0.5c-0.3-0.5-0.2-1.2,0.3-1.5c1.1-0.7,1.9-1.6,2.7-2.7
		c0.3-0.5,1-0.6,1.5-0.3c0.5,0.3,0.6,1,0.3,1.5c-0.9,1.3-2,2.5-3.3,3.3C427.9,230.9,427.7,230.9,427.5,230.9z M432.1,224
		c-0.1,0-0.2,0-0.3,0c-0.6-0.2-0.9-0.7-0.8-1.3c0.3-1.2,0.5-2.5,0.7-4c0-0.6,0.6-1,1.1-1c0.6,0,1,0.6,1,1.1
		c-0.1,1.6-0.4,3.1-0.7,4.4C433,223.7,432.6,224,432.1,224z M432.9,215.5c-0.6,0-1.1-0.5-1.1-1.1v-4.3c0-0.6,0.5-1.1,1.1-1.1
		c0.6,0,1.1,0.5,1.1,1.1v4.3C434,215.1,433.5,215.5,432.9,215.5z M432.9,207c-0.6,0-1.1-0.5-1.1-1.1v-4.3c0-0.6,0.5-1.1,1.1-1.1
		c0.6,0,1.1,0.5,1.1,1.1v4.3C434,206.5,433.5,207,432.9,207z M432.9,198.5c-0.6,0-1.1-0.5-1.1-1.1v-4.3c0-0.6,0.5-1.1,1.1-1.1
		c0.6,0,1.1,0.5,1.1,1.1v4.3C434,198,433.5,198.5,432.9,198.5z M432.9,189.9c-0.6,0-1.1-0.5-1.1-1.1v-4.3c0-0.6,0.5-1.1,1.1-1.1
		c0.6,0,1.1,0.5,1.1,1.1v4.3C434,189.4,433.5,189.9,432.9,189.9z M432.9,181.4c-0.6,0-1.1-0.5-1.1-1.1V176c0-0.6,0.5-1.1,1.1-1.1
		c0.6,0,1.1,0.5,1.1,1.1v4.3C434,180.9,433.5,181.4,432.9,181.4z M432.9,172.8c-0.6,0-1.1-0.5-1.1-1.1v-4.3c0-0.6,0.5-1.1,1.1-1.1
		c0.6,0,1.1,0.5,1.1,1.1v4.3C434,172.4,433.5,172.8,432.9,172.8z M432.9,164.3c-0.6,0-1.1-0.5-1.1-1.1V159c0-0.6,0.5-1.1,1.1-1.1
		c0.6,0,1.1,0.5,1.1,1.1v4.3C434,163.8,433.5,164.3,432.9,164.3z"/>
</g>
<g>
	<path class="st10" d="M140.7,292.5h-4.3c-0.6,0-1.1-0.5-1.1-1.1c0-0.6,0.5-1.1,1.1-1.1h4.3c0.6,0,1.1,0.5,1.1,1.1
		C141.8,292,141.3,292.5,140.7,292.5z M132.2,292.5h-4.3c-0.6,0-1.1-0.5-1.1-1.1c0-0.6,0.5-1.1,1.1-1.1h4.3c0.6,0,1.1,0.5,1.1,1.1
		C133.3,292,132.8,292.5,132.2,292.5z M123.6,292.5h-4.3c-0.6,0-1.1-0.5-1.1-1.1c0-0.6,0.5-1.1,1.1-1.1h4.3c0.6,0,1.1,0.5,1.1,1.1
		C124.7,292,124.2,292.5,123.6,292.5z M115.1,292.5h-4.3c-0.6,0-1.1-0.5-1.1-1.1c0-0.6,0.5-1.1,1.1-1.1h4.3c0.6,0,1.1,0.5,1.1,1.1
		C116.2,292,115.7,292.5,115.1,292.5z M106.6,292.5h-4.3c-0.6,0-1.1-0.5-1.1-1.1c0-0.6,0.5-1.1,1.1-1.1h4.3c0.6,0,1.1,0.5,1.1,1.1
		C107.6,292,107.2,292.5,106.6,292.5z M98,292.5h-4.3c-0.6,0-1.1-0.5-1.1-1.1c0-0.6,0.5-1.1,1.1-1.1H98c0.6,0,1.1,0.5,1.1,1.1
		C99.1,292,98.6,292.5,98,292.5z M89.5,292.5h-2.7c-0.6,0-1.1-0.5-1.1-1.1c0-0.6,0.5-1.1,1.1-1.1h2.7c0.6,0,1.1,0.5,1.1,1.1
		C90.6,292,90.1,292.5,89.5,292.5z"/>
</g>
<g>
	<path class="st10" d="M513.2,292.5h-4.3c-0.6,0-1.1-0.5-1.1-1.1c0-0.6,0.5-1.1,1.1-1.1h4.3c0.6,0,1.1,0.5,1.1,1.1
		C514.3,292,513.8,292.5,513.2,292.5z M504.7,292.5h-4.3c-0.6,0-1.1-0.5-1.1-1.1c0-0.6,0.5-1.1,1.1-1.1h4.3c0.6,0,1.1,0.5,1.1,1.1
		C505.7,292,505.3,292.5,504.7,292.5z M496.1,292.5h-4.3c-0.6,0-1.1-0.5-1.1-1.1c0-0.6,0.5-1.1,1.1-1.1h4.3c0.6,0,1.1,0.5,1.1,1.1
		C497.2,292,496.7,292.5,496.1,292.5z M487.6,292.5h-4.3c-0.6,0-1.1-0.5-1.1-1.1c0-0.6,0.5-1.1,1.1-1.1h4.3c0.6,0,1.1,0.5,1.1,1.1
		C488.7,292,488.2,292.5,487.6,292.5z M479,292.5h-4.3c-0.6,0-1.1-0.5-1.1-1.1c0-0.6,0.5-1.1,1.1-1.1h4.3c0.6,0,1.1,0.5,1.1,1.1
		C480.1,292,479.6,292.5,479,292.5z M470.5,292.5h-4.3c-0.6,0-1.1-0.5-1.1-1.1c0-0.6,0.5-1.1,1.1-1.1h4.3c0.6,0,1.1,0.5,1.1,1.1
		C471.6,292,471.1,292.5,470.5,292.5z M462,292.5h-0.3c-0.6,0-1.1-0.5-1.1-1.1c0-0.6,0.5-1.1,1.1-1.1h0.3c0.6,0,1.1,0.5,1.1,1.1
		C463,292,462.6,292.5,462,292.5z"/>
</g>
<g>
	<path class="st10" d="M204.3,422.7h-2.4c-0.6,0-1.1-0.5-1.1-1.1c0-0.6,0.5-1.1,1.1-1.1h2.4c0.6,0,1.2,0,1.9,0c0,0,0,0,0,0
		c0.6,0,1.1,0.5,1.1,1.1c0,0.6-0.5,1.1-1.1,1.1C205.6,422.7,205,422.7,204.3,422.7z M197.7,422.7h-4.3c-0.6,0-1.1-0.5-1.1-1.1
		c0-0.6,0.5-1.1,1.1-1.1h4.3c0.6,0,1.1,0.5,1.1,1.1C198.7,422.2,198.3,422.7,197.7,422.7z M189.1,422.7h-4.3c-0.6,0-1.1-0.5-1.1-1.1
		c0-0.6,0.5-1.1,1.1-1.1h4.3c0.6,0,1.1,0.5,1.1,1.1C190.2,422.2,189.7,422.7,189.1,422.7z M210.5,422.5c-0.6,0-1-0.4-1.1-1
		c0-0.6,0.4-1.1,1-1.1c1.6-0.1,2.9-0.3,4-0.6c0.6-0.1,1.2,0.2,1.3,0.8c0.1,0.6-0.2,1.2-0.8,1.3C213.7,422.2,212.3,422.4,210.5,422.5
		C210.5,422.5,210.5,422.5,210.5,422.5z M218.6,420.2c-0.3,0-0.7-0.2-0.9-0.5c-0.3-0.5-0.2-1.2,0.3-1.5c1.1-0.7,1.9-1.6,2.7-2.7
		c0.3-0.5,1-0.6,1.5-0.3c0.5,0.3,0.6,1,0.3,1.5c-0.9,1.3-2,2.5-3.3,3.3C219,420.2,218.8,420.2,218.6,420.2z M223.2,413.3
		c-0.1,0-0.2,0-0.3,0c-0.6-0.2-0.9-0.7-0.8-1.3c0.3-1.2,0.5-2.5,0.7-4c0-0.6,0.6-1,1.1-1c0.6,0,1,0.6,1,1.1
		c-0.1,1.6-0.4,3.1-0.7,4.4C224.1,413,223.7,413.3,223.2,413.3z M224,404.8c-0.6,0-1.1-0.5-1.1-1.1v-4.3c0-0.6,0.5-1.1,1.1-1.1
		s1.1,0.5,1.1,1.1v4.3C225.1,404.4,224.6,404.8,224,404.8z M224,396.3c-0.6,0-1.1-0.5-1.1-1.1V391c0-0.6,0.5-1.1,1.1-1.1
		s1.1,0.5,1.1,1.1v4.3C225.1,395.8,224.6,396.3,224,396.3z M224,387.8c-0.6,0-1.1-0.5-1.1-1.1v-4.3c0-0.6,0.5-1.1,1.1-1.1
		s1.1,0.5,1.1,1.1v4.3C225.1,387.3,224.6,387.8,224,387.8z M224,379.2c-0.6,0-1.1-0.5-1.1-1.1v-4.3c0-0.6,0.5-1.1,1.1-1.1
		s1.1,0.5,1.1,1.1v4.3C225.1,378.7,224.6,379.2,224,379.2z M224,370.7c-0.6,0-1.1-0.5-1.1-1.1v-4.3c0-0.6,0.5-1.1,1.1-1.1
		s1.1,0.5,1.1,1.1v4.3C225.1,370.2,224.6,370.7,224,370.7z M224,362.1c-0.6,0-1.1-0.5-1.1-1.1v-4.3c0-0.6,0.5-1.1,1.1-1.1
		s1.1,0.5,1.1,1.1v4.3C225.1,361.7,224.6,362.1,224,362.1z M224,353.6c-0.6,0-1.1-0.5-1.1-1.1v-4.3c0-0.6,0.5-1.1,1.1-1.1
		s1.1,0.5,1.1,1.1v4.3C225.1,353.1,224.6,353.6,224,353.6z"/>
</g>
<g>
	<path class="st10" d="M379.3,422.7H375c-0.6,0-1.1-0.5-1.1-1.1c0-0.6,0.5-1.1,1.1-1.1h4.3c0.6,0,1.1,0.5,1.1,1.1
		C380.3,422.2,379.9,422.7,379.3,422.7z M370.7,422.7h-4.3c-0.6,0-1.1-0.5-1.1-1.1c0-0.6,0.5-1.1,1.1-1.1h4.3c0.6,0,1.1,0.5,1.1,1.1
		C371.8,422.2,371.3,422.7,370.7,422.7z M362.2,422.7h-2.4c-0.6,0-1.3,0-1.9,0c-0.6,0-1.1-0.5-1.1-1.1c0-0.6,0.5-1.1,1.1-1.1
		c0,0,0,0,0,0c0.6,0,1.2,0,1.9,0h2.4c0.6,0,1.1,0.5,1.1,1.1C363.2,422.2,362.8,422.7,362.2,422.7z M353.6,422.5
		C353.6,422.5,353.6,422.5,353.6,422.5c-1.8-0.1-3.2-0.4-4.5-0.7c-0.6-0.1-0.9-0.7-0.8-1.3c0.1-0.6,0.7-0.9,1.3-0.8
		c1.2,0.3,2.5,0.5,4,0.6c0.6,0,1,0.6,1,1.1C354.6,422.1,354.2,422.5,353.6,422.5z M345.5,420.2c-0.2,0-0.4-0.1-0.6-0.2
		c-1.3-0.9-2.4-2-3.3-3.3c-0.3-0.5-0.2-1.2,0.3-1.5c0.5-0.3,1.2-0.2,1.5,0.3c0.7,1.1,1.6,2,2.7,2.7c0.5,0.3,0.6,1,0.3,1.5
		C346.2,420.1,345.8,420.2,345.5,420.2z M340.9,413.3c-0.5,0-0.9-0.3-1-0.8c-0.3-1.3-0.6-2.8-0.7-4.4c0-0.6,0.4-1.1,1-1.1
		c0.6,0,1.1,0.4,1.1,1c0.1,1.5,0.3,2.8,0.7,4c0.2,0.6-0.2,1.2-0.8,1.3C341,413.3,341,413.3,340.9,413.3z M340.1,404.8
		c-0.6,0-1.1-0.5-1.1-1.1v-4.3c0-0.6,0.5-1.1,1.1-1.1c0.6,0,1.1,0.5,1.1,1.1v4.3C341.1,404.4,340.7,404.8,340.1,404.8z M340.1,396.3
		c-0.6,0-1.1-0.5-1.1-1.1V391c0-0.6,0.5-1.1,1.1-1.1c0.6,0,1.1,0.5,1.1,1.1v4.3C341.1,395.8,340.7,396.3,340.1,396.3z M340.1,387.8
		c-0.6,0-1.1-0.5-1.1-1.1v-4.3c0-0.6,0.5-1.1,1.1-1.1c0.6,0,1.1,0.5,1.1,1.1v4.3C341.1,387.3,340.7,387.8,340.1,387.8z M340.1,379.2
		c-0.6,0-1.1-0.5-1.1-1.1v-4.3c0-0.6,0.5-1.1,1.1-1.1c0.6,0,1.1,0.5,1.1,1.1v4.3C341.1,378.7,340.7,379.2,340.1,379.2z M340.1,370.7
		c-0.6,0-1.1-0.5-1.1-1.1v-4.3c0-0.6,0.5-1.1,1.1-1.1c0.6,0,1.1,0.5,1.1,1.1v4.3C341.1,370.2,340.7,370.7,340.1,370.7z M340.1,362.1
		c-0.6,0-1.1-0.5-1.1-1.1v-4.3c0-0.6,0.5-1.1,1.1-1.1c0.6,0,1.1,0.5,1.1,1.1v4.3C341.1,361.7,340.7,362.1,340.1,362.1z M340.1,353.6
		c-0.6,0-1.1-0.5-1.1-1.1v-4.3c0-0.6,0.5-1.1,1.1-1.1c0.6,0,1.1,0.5,1.1,1.1v4.3C341.1,353.1,340.7,353.6,340.1,353.6z"/>
</g>
<path class="st1" d="M43.4,248L43.4,248c23.9,0,43.4,19.5,43.4,43.4l0,0c0,23.9-19.5,43.4-43.4,43.4l0,0C19.5,334.9,0,315.3,0,291.4
	l0,0C0,267.6,19.5,248,43.4,248z"/>
<path class="st1" d="M140.6,378.2L140.6,378.2c23.9,0,43.4,19.5,43.4,43.4l0,0c0,23.9-19.5,43.4-43.4,43.4l0,0
	c-23.9,0-43.4-19.5-43.4-43.4l0,0C97.2,397.7,116.7,378.2,140.6,378.2z"/>
<path class="st1" d="M423.5,378.2L423.5,378.2c23.9,0,43.4,19.5,43.4,43.4l0,0c0,23.9-19.5,43.4-43.4,43.4l0,0
	c-23.9,0-43.4-19.5-43.4-43.4l0,0C380.1,397.7,399.6,378.2,423.5,378.2z"/>
<path class="st1" d="M556.6,248L556.6,248c23.9,0,43.4,19.5,43.4,43.4l0,0c0,23.9-19.5,43.4-43.4,43.4l0,0
	c-23.9,0-43.4-19.5-43.4-43.4l0,0C513.2,267.6,532.7,248,556.6,248z"/>
<path class="st1" d="M279.8,0L279.8,0c23.9,0,43.4,19.5,43.4,43.4l0,0c0,23.9-19.5,43.4-43.4,43.4l0,0c-23.9,0-43.4-19.5-43.4-43.4
	l0,0C236.4,19.5,255.9,0,279.8,0z"/>
<path class="st1" d="M124.7,60.6L124.7,60.6c23.9,0,43.4,19.5,43.4,43.4l0,0c0,23.9-19.5,43.4-43.4,43.4l0,0
	c-23.9,0-43.4-19.5-43.4-43.4l0,0C81.3,80.1,100.9,60.6,124.7,60.6z"/>
<path class="st11" d="M279.8,134.4c3.9,0,7.1-3.2,7.1-7.1c0-3.9-3.2-7.1-7.1-7.1c-3.9,0-7.1,3.2-7.1,7.1
	C272.7,131.3,275.9,134.4,279.8,134.4z"/>
<path class="st11" d="M124.7,183.2c3.9,0,7.1-3.2,7.1-7.1c0-3.9-3.2-7.1-7.1-7.1c-3.9,0-7.1,3.2-7.1,7.1
	C117.7,180,120.8,183.2,124.7,183.2z"/>
<path class="st11" d="M113.8,298.5c3.9,0,7.1-3.2,7.1-7.1s-3.2-7.1-7.1-7.1c-3.9,0-7.1,3.2-7.1,7.1S109.9,298.5,113.8,298.5z"/>
<path class="st11" d="M224,384c3.9,0,7.1-3.2,7.1-7.1c0-3.9-3.2-7.1-7.1-7.1c-3.9,0-7.1,3.2-7.1,7.1C217,380.9,220.1,384,224,384z"
	/>
<path class="st11" d="M340.1,402.6c3.9,0,7.1-3.2,7.1-7.1s-3.2-7.1-7.1-7.1s-7.1,3.2-7.1,7.1S336.2,402.6,340.1,402.6z"/>
<path class="st11" d="M486.2,298.5c3.9,0,7.1-3.2,7.1-7.1s-3.2-7.1-7.1-7.1c-3.9,0-7.1,3.2-7.1,7.1S482.3,298.5,486.2,298.5z"/>
<path class="st11" d="M432.9,209.2c3.9,0,7.1-3.2,7.1-7.1c0-3.9-3.2-7.1-7.1-7.1c-3.9,0-7.1,3.2-7.1,7.1
	C425.9,206.1,429,209.2,432.9,209.2z"/>
<rect x="113.5" y="400.3" class="st12" width="54.2" height="35.4"/>
<rect x="135.2" y="435.9" class="st13" width="10.8" height="11.3"/>
<rect x="136.2" y="436.9" class="st14" width="8.8" height="1.8"/>
<rect x="117.8" y="404.5" class="st15" width="45.5" height="24"/>
<rect x="137.1" y="431.6" class="st16" width="7.2" height="1.5"/>
<path class="st17" d="M126.9,418.7h12.3v1.5h-12.3V418.7L126.9,418.7z M141,418.7h5.4v1.5H141V418.7z"/>
<rect x="126.9" y="422.8" class="st18" width="24.7" height="1.5"/>
<rect x="126.9" y="410.5" class="st18" width="4.9" height="1.5"/>
<rect x="133.5" y="410.5" class="st17" width="5.2" height="1.5"/>
<rect x="140.6" y="410.5" class="st18" width="7.3" height="1.5"/>
<rect x="126.9" y="414.6" class="st18" width="28.9" height="1.5"/>
<rect x="118.8" y="405.5" class="st19" width="43.6" height="2.7"/>
<line class="st20" x1="127.6" y1="447.2" x2="155.1" y2="447.2"/>
<g>
	<polygon class="st21" points="287.5,229.7 305.5,240.1 323.4,250.4 303.5,261.9 295.5,257.3 287.5,252.6 279.5,257.3 271.5,261.9 
		271.5,271.1 271.5,280.4 279.5,285 287.5,289.6 295.5,285 303.5,280.4 323.4,291.8 305.5,302.2 287.5,312.5 269.6,302.2 
		251.7,291.8 251.7,271.1 251.7,250.4 269.6,240.1 	"/>
	<polygon class="st22" points="287.5,289.6 295.5,285 303.5,280.4 323.4,291.8 305.5,302.2 287.5,312.5 	"/>
	<polygon class="st23" points="287.5,312.5 269.6,302.2 251.7,291.8 251.7,271.1 251.7,250.4 271.5,261.9 271.5,271.1 271.5,280.4 
		279.5,285 287.5,289.6 	"/>
</g>
<path class="st18" d="M109.2,84c0-2.4,0-4.2,0.8-5.6c2.7-4.7,8.7-4.3,14.8-4.3c6.1,0,12.1-0.4,14.8,4.3c0.7,1.3,0.7,3,0.8,5.2v39.8
	h0l0,0.7c0,2.4,0,4.2-0.8,5.6c-2.7,4.7-8.7,4.3-14.8,4.3c-6.1,0-12.1,0.4-14.8-4.3c-0.8-1.4-0.7-3.2-0.8-5.6l0-0.7V84.7L109.2,84z"
	/>
<rect x="112.5" y="84.7" class="st24" width="24.4" height="38.7"/>
<rect x="112.5" y="84.7" class="st16" width="24.4" height="38.7"/>
<path class="st4" d="M120.9,77.9h7.9c0.4,0,0.7,0.3,0.7,0.7l0,0c0,0.4-0.3,0.7-0.7,0.7h-7.9c-0.4,0-0.7-0.3-0.7-0.7l0,0
	C120.2,78.3,120.5,77.9,120.9,77.9z"/>
<rect x="112.5" y="84.7" class="st25" width="24.4" height="2.7"/>
<polygon class="st4" points="120.2,81.2 129.4,81.2 129.4,82.9 120.2,82.9 120.2,82.9 120.2,81.2 "/>
<path class="st26" d="M120.9,125.6h7.6c0.1,0,0.2,0,0.2,0c0.2,0,0.4,0.2,0.6,0.3c0.2,0.2,0.3,0.4,0.3,0.7h0c0,0.1,0,0.1,0,0.2
	l-0.3,1.5c-0.1,0.3-0.2,0.6-0.4,0.8l0,0l0,0c-0.2,0.2-0.4,0.3-0.7,0.3h-7c-0.3,0-0.5-0.1-0.7-0.3l0,0c-0.2-0.2-0.3-0.5-0.4-0.8
	l-0.3-1.5c0-0.1,0-0.1,0-0.2c0-0.3,0.1-0.5,0.3-0.7c0.2-0.2,0.4-0.3,0.6-0.3C120.7,125.6,120.8,125.6,120.9,125.6L120.9,125.6z
	 M128.5,126.1h-7.6c0,0-0.1,0-0.1,0c-0.1,0-0.2,0.1-0.3,0.2c-0.1,0.1-0.1,0.2-0.1,0.3c0,0,0,0,0,0.1l0.3,1.5c0,0.2,0.1,0.4,0.2,0.5
	v0v0c0.1,0.1,0.2,0.1,0.3,0.1h7c0.1,0,0.3-0.1,0.3-0.1c0.1-0.1,0.2-0.3,0.2-0.5l0.3-1.5c0,0,0,0,0-0.1h0c0-0.1,0-0.2-0.1-0.3
	c-0.1-0.1-0.2-0.2-0.3-0.2C128.6,126.1,128.6,126.1,128.5,126.1z"/>
<rect x="114.7" y="126.8" class="st4" width="1.7" height="1.2"/>
<rect x="132.6" y="126.8" class="st4" width="1.7" height="1.2"/>
<path class="st18" d="M545.9,261.6h21.5c2.5,0,4.5,2,4.5,4.5v50.6c0,2.5-2,4.5-4.5,4.5h-21.5c-2.5,0-4.5-2-4.5-4.5v-50.6
	C541.3,263.7,543.4,261.6,545.9,261.6z"/>
<rect x="544.1" y="269.8" class="st16" width="25" height="42.5"/>
<g>
	<circle class="st4" cx="552" cy="265.7" r="0.9"/>
	<path class="st4" d="M555.5,265h6c0.4,0,0.7,0.3,0.7,0.7l0,0c0,0.4-0.3,0.7-0.7,0.7h-6c-0.4,0-0.7-0.3-0.7-0.7l0,0
		C554.8,265.3,555.1,265,555.5,265z"/>
</g>
<circle class="st4" cx="556.6" cy="316.8" r="2.5"/>
<path class="st15" d="M17.8,272.6L17.8,272.6h4v-0.5c0-0.3,0.2-0.5,0.5-0.5h10.3c0.3,0,0.5,0.2,0.5,0.5v0.5h2v-0.5
	c0-0.3,0.2-0.5,0.5-0.5h3.7c0.3,0,0.5,0.2,0.5,0.5v0.5h19.2H69c1.5,0,2.7,1.2,2.7,2.7v33.3c0,1.5-1.2,2.7-2.7,2.7H22.4h-4.6l0,0
	h-0.1l0,0l-0.1,0l0,0l-0.1,0l0,0l-0.1,0h0l-0.1,0h0l-0.1,0l-0.1,0h0l-0.1,0l0,0l-0.1,0l0,0l-0.1,0l0,0l-0.1,0l-0.1,0l0,0l-0.1,0
	l-0.1,0l0,0l-0.1,0l-0.1,0l-0.1,0h0l-0.1,0l-0.1,0l0,0l-0.1,0h0l-0.1,0l-0.1,0l-0.1,0l-0.1,0l0,0l-0.1,0h0l-0.1,0l0,0l-0.1,0h0
	l-0.1,0l-0.1,0l0,0l0,0c0,0-0.1-0.1-0.1-0.1v0l0,0l0,0v0l0,0l0,0l0,0l0-0.1h0l0-0.1l0,0l0-0.1l0,0l0-0.1l0,0l0-0.1l0,0l0-0.1l0,0
	l0-0.1l0-0.1l0-0.1l0,0l0-0.1l0,0l0-0.1v0l0-0.1l0,0l0-0.1v0l0-0.1l0,0l0-0.1l0,0l0-0.1v0l0-0.1l0,0l0-0.1l0,0l0-0.1l0,0l0-0.1v0
	l0-0.1v0l0-0.1l0,0l0-0.1v0l0-0.1v0l0-0.1l0,0l0-0.1l0,0l0-0.1l0,0l0-0.1l0,0v-33.3l0-0.1l0-0.1l0-0.1l0-0.1l0-0.1l0-0.1l0-0.1
	l0-0.1l0-0.1l0-0.1l0-0.1l0-0.1l0-0.1l0-0.1l0-0.1l0-0.1l0-0.1l0-0.1l0-0.1h0l0-0.1l0-0.1l0-0.1l0-0.1l0-0.1l0-0.1l0-0.1h0l0-0.1
	l0-0.1l0,0l0,0l0,0l0,0l0,0l0,0h0l0,0l0,0l0,0l0,0l0,0l0.1,0l0.1,0l0.1,0h0l0.1,0l0,0l0.1,0l0,0l0.1,0h0l0.1,0h0l0.1,0l0.1,0l0.1,0
	l0,0l0.1,0h0l0.1,0l0,0l0.1,0l0,0l0.1,0h0l0.1,0l0,0l0.1,0l0,0l0.1,0l0,0l0.1,0h0l0.1,0h0l0.1,0h0l0.1,0l0,0l0.1,0l0,0l0.1,0h0
	l0.1,0h0l0.1,0h0l0.1,0h0l0.1,0l0,0L17.8,272.6L17.8,272.6L17.8,272.6z"/>
<rect x="21.6" y="277.2" class="st27" width="43.6" height="29"/>
<ellipse transform="matrix(0.974 -0.2264 0.2264 0.974 -64.3291 22.9199)" class="st18" cx="67.8" cy="292" rx="1.4" ry="1.4"/>
<ellipse transform="matrix(0.9741 -0.2261 0.2261 0.9741 -65.518 11.7947)" class="st18" cx="18.7" cy="292" rx="0.8" ry="0.8"/>
<path class="st18" d="M256.4,23.9h23.4h23.4c1.7,0,3.1,1.4,3.1,3.1v29.9h-26.4h-26.4V26.9C253.3,25.3,254.7,23.9,256.4,23.9z"/>
<polygon class="st2" points="256.7,27.9 279.8,27.9 302.9,27.9 302.9,56.9 279.8,56.9 256.7,56.9 "/>
<path class="st28" d="M311.5,56.9v2.4c0,1.7-1.4,3.1-3.1,3.1h-57.4c-1.7,0-3.1-1.4-3.1-3.1v-2.4H311.5z"/>
<circle class="st16" cx="279.8" cy="25.6" r="0.6"/>
<path class="st29" d="M289.5,57.9V59c0,0.6-0.5,1-1,1H271c-0.6,0-1-0.5-1-1v-1.1H289.5z"/>
<path class="st18" d="M400.2,402.4h23.4h23.4c1.7,0,3.1,1.4,3.1,3.1v29.9h-26.4h-26.4v-29.9C397.1,403.7,398.5,402.4,400.2,402.4z"
	/>
<polygon class="st25" points="400.4,406.4 423.5,406.4 446.6,406.4 446.6,435.4 423.5,435.4 400.4,435.4 "/>
<circle class="st16" cx="423.5" cy="404.1" r="0.9"/>
<polygon class="st30" points="400.4,406.4 423.5,406.4 446.6,406.4 446.6,410.8 423.5,410.8 400.4,410.8 "/>
<path class="st18" d="M388.9,435.1h69.2v2.2c0,1.2-1,2.2-2.2,2.2h-64.8c-1.2,0-2.2-1-2.2-2.2V435.1z"/>
<path class="st31" d="M430.7,435.1v0.8c0,0.4-0.3,0.7-0.7,0.7h-13c-0.4,0-0.7-0.3-0.7-0.7v-0.8H430.7z"/>
<path class="st0" d="M275.8,367.8c8.4,0,15.6,5.6,18,13.2c1-0.3,2.1-0.4,3.2-0.4c6,0,11,4.5,11.7,10.3c0.3,0,0.7-0.1,1.1-0.1
	c4.4,0,8,3.6,8,8c0,4.4-3.6,8-8,8h0H259h-5.9H253l0,0c-3.2,0-5.8-2.7-5.8-5.9v-0.7V395v-0.5c-0.1-0.4-0.1-0.9-0.1-1.3
	c0-5.7,4.6-10.4,10.3-10.5C259.1,374.2,266.7,367.8,275.8,367.8z"/>
<path class="st20" d="M427.6,115.3v23.3c0,2.3-1.9,4.1-4.1,4.1h-3.8"/>
<path class="st20" d="M438.8,115.3v23.3c0,2.3,1.9,4.1,4.1,4.1h3.8"/>
<g>
	<path class="st28" d="M407.7,92.8h50.4c1,0,1.8,0.8,1.8,1.8l0,33.7c0,1-0.8,1.8-1.8,1.8l-50.4,0c-1,0-1.8-0.8-1.8-1.8V94.6
		C405.9,93.6,406.7,92.8,407.7,92.8z"/>
	<path class="st18" d="M407.7,92.8h50.4c1,0,1.8,0.8,1.8,1.8v28.9h-54V94.6C405.9,93.6,406.7,92.8,407.7,92.8z"/>
	<rect x="408.5" y="97" class="st16" width="48.8" height="23.3"/>
	<circle class="st18" cx="432.9" cy="126.4" r="1.2"/>
</g>
<line class="st20" x1="419.7" y1="142.7" x2="444.9" y2="142.7"/>
<line class="st32" x1="195.8" y1="359.4" x2="145.2" y2="359.4"/>
<line class="st0" x1="134.4" y1="344.5" x2="113.2" y2="344.5"/>
<line class="st32" x1="357" y1="144.1" x2="335.8" y2="144.1"/>
<line class="st32" x1="408" y1="359.4" x2="352.7" y2="359.4"/>
<line class="st0" x1="477.4" y1="359.4" x2="454.6" y2="359.4"/>
<line class="st32" x1="503.5" y1="322.7" x2="480.6" y2="322.7"/>
<line class="st0" x1="379.8" y1="184" x2="341.1" y2="184"/>
<line class="st0" x1="248.8" y1="132.2" x2="231.7" y2="132.2"/>
<line class="st0" x1="244.4" y1="159" x2="205.7" y2="159"/>
<line class="st32" x1="120.9" y1="268.4" x2="103.8" y2="268.4"/>
<line class="st0" x1="489.1" y1="260.2" x2="451.5" y2="260.2"/>
<line class="st0" x1="375.3" y1="379.2" x2="357.9" y2="379.2"/>
<line class="st0" x1="299.2" y1="423.1" x2="281.8" y2="423.1"/>
<line class="st32" x1="261.2" y1="359.9" x2="243.9" y2="359.9"/>
<line class="st32" x1="311.8" y1="359.9" x2="294.5" y2="359.9"/>
<rect x="411.7" y="100.3" class="st15" width="21.5" height="16.5"/>
<rect x="414.6" y="103.2" class="st17" width="15.8" height="10.8"/>
<rect x="437.2" y="100.3" class="st15" width="15.8" height="16.5"/>
<rect x="440.1" y="103.2" class="st33" width="10.1" height="10.8"/>
<rect x="26.4" y="284.3" class="st34" width="7.9" height="8.3"/>
<rect x="39.5" y="284.3" class="st35" width="7.9" height="8.3"/>
<rect x="52.5" y="284.3" class="st36" width="7.9" height="8.3"/>
<g>
	<rect x="25.5" y="297" class="st18" width="2.1" height="2.1"/>
	<rect x="29.7" y="297" class="st18" width="2.1" height="2.1"/>
	<rect x="33.9" y="297" class="st18" width="2.1" height="2.1"/>
	<rect x="38.1" y="297" class="st18" width="2.1" height="2.1"/>
	<rect x="42.3" y="297" class="st18" width="2.1" height="2.1"/>
	<rect x="46.6" y="297" class="st18" width="2.1" height="2.1"/>
	<rect x="50.8" y="297" class="st18" width="2.1" height="2.1"/>
	<rect x="55" y="297" class="st18" width="2.1" height="2.1"/>
	<rect x="59.2" y="297" class="st18" width="2.1" height="2.1"/>
</g>
<rect x="547.5" y="277.2" class="st34" width="8.5" height="8.5"/>
<line class="st20" x1="559.5" y1="277.4" x2="564.9" y2="277.4"/>
<line class="st20" x1="559.5" y1="281.6" x2="562.2" y2="281.6"/>
<line class="st20" x1="559.5" y1="285.9" x2="564.9" y2="285.9"/>
<rect x="557.7" y="293.3" class="st36" width="8.5" height="8.5"/>
<line class="st20" x1="547.7" y1="293.5" x2="553" y2="293.5"/>
<line class="st20" x1="547.7" y1="297.8" x2="550.4" y2="297.8"/>
<line class="st20" x1="547.7" y1="302" x2="553" y2="302"/>
<rect x="547.5" y="308.2" class="st37" width="8.5" height="4.2"/>
<line class="st20" x1="559.5" y1="308.4" x2="564.9" y2="308.4"/>
<line class="st20" x1="559.5" y1="312.7" x2="562.2" y2="312.7"/>
<line class="st20" x1="559.5" y1="316.9" x2="564.9" y2="316.9"/>
<rect x="544.1" y="269.8" class="st25" width="25.1" height="2.7"/>
<rect x="403" y="427.3" class="st16" width="9" height="1.1"/>
<rect x="403" y="430.3" class="st16" width="18" height="1.1"/>
<rect x="403" y="421.3" class="st16" width="3.6" height="1.1"/>
<rect x="407.9" y="421.3" class="st16" width="3.8" height="1.1"/>
<rect x="403" y="424.3" class="st16" width="15" height="1.1"/>
<path class="st16" d="M425.8,427.3h7.1v1.1h-7.1V427.3L425.8,427.3z M434,427.3h3.1v1.1H434V427.3z"/>
<rect x="425.8" y="430.3" class="st16" width="14.3" height="1.1"/>
<rect x="425.8" y="421.3" class="st16" width="2.8" height="1.1"/>
<rect x="429.7" y="421.3" class="st16" width="9.7" height="1.1"/>
<rect x="425.8" y="424.3" class="st16" width="16.7" height="1.1"/>
<polygon class="st33" points="403.8,415.2 423.5,415.2 443.2,415.2 443.2,417.3 423.5,417.3 403.8,417.3 "/>
<rect x="116.2" y="90.3" class="st15" width="17.1" height="16.5"/>
<rect x="119.1" y="93" class="st17" width="11.4" height="11"/>
<line class="st38" x1="117" y1="112" x2="132.2" y2="112"/>
<line class="st20" x1="115.9" y1="117.8" x2="133.5" y2="117.8"/>
<line class="st20" x1="115.9" y1="121.2" x2="125.9" y2="121.2"/>
<rect x="278.8" y="40.3" class="st33" width="14.9" height="1.5"/>
<rect x="278.8" y="44.4" class="st18" width="18.5" height="1.5"/>
<rect x="278.8" y="32" class="st18" width="3.7" height="1.5"/>
<rect x="283.7" y="32" class="st17" width="3.9" height="1.5"/>
<rect x="289" y="32" class="st18" width="5.5" height="1.5"/>
<rect x="278.8" y="36.2" class="st18" width="21.6" height="1.5"/>
<rect x="278.8" y="48.1" class="st18" width="18.5" height="1.5"/>
<polygon class="st25" points="256.7,27.9 265.8,27.9 275,27.9 275,55.8 265.8,55.8 256.7,55.8 "/>
<rect x="278.8" y="51.9" class="st18" width="18.5" height="1.5"/>
<polygon class="st35" points="259.3,32 265.8,32 272.3,32 272.3,41.9 265.8,41.9 259.3,41.9 "/>
<polygon class="st34" points="259.3,46.7 265.8,46.7 272.3,46.7 272.3,51.7 265.8,51.7 259.3,51.7 "/>
</svg>
