<?xml version="1.0" encoding="UTF-8" standalone="no"?>
<!-- Created with Inkscape (http://www.inkscape.org/) -->

<svg
   xmlns:dc="http://purl.org/dc/elements/1.1/"
   xmlns:cc="http://creativecommons.org/ns#"
   xmlns:rdf="http://www.w3.org/1999/02/22-rdf-syntax-ns#"
   xmlns:svg="http://www.w3.org/2000/svg"
   xmlns="http://www.w3.org/2000/svg"
   xmlns:sodipodi="http://sodipodi.sourceforge.net/DTD/sodipodi-0.dtd"
   xmlns:inkscape="http://www.inkscape.org/namespaces/inkscape"
   width="22.44478mm"
   height="13.753147mm"
   viewBox="0 0 79.528749 48.731623"
   id="svg3852"
   version="1.1"
   inkscape:version="0.91 r13725"
   sodipodi:docname="contentauthoring.svg">
  <defs
     id="defs3854" />
  <sodipodi:namedview
     id="base"
     pagecolor="#ffffff"
     bordercolor="#666666"
     borderopacity="1.0"
     inkscape:pageopacity="0.0"
     inkscape:pageshadow="2"
     inkscape:zoom="0.35"
     inkscape:cx="-562.37848"
     inkscape:cy="352.93723"
     inkscape:document-units="px"
     inkscape:current-layer="layer1"
     showgrid="false"
     fit-margin-top="0"
     fit-margin-left="0"
     fit-margin-right="0"
     fit-margin-bottom="0"
     inkscape:window-width="1867"
     inkscape:window-height="1056"
     inkscape:window-x="53"
     inkscape:window-y="24"
     inkscape:window-maximized="1" />
  <metadata
     id="metadata3857">
    <rdf:RDF>
      <cc:Work
         rdf:about="">
        <dc:format>image/svg+xml</dc:format>
        <dc:type
           rdf:resource="http://purl.org/dc/dcmitype/StillImage" />
        <dc:title></dc:title>
      </cc:Work>
    </rdf:RDF>
  </metadata>
  <g
     inkscape:label="Layer 1"
     inkscape:groupmode="layer"
     id="layer1"
     transform="translate(-443.09277,-836.56781)">
    <g
       transform="matrix(1.25,0,0,-1.25,327.18239,1295.2258)"
       id="g3811">
      <path
         inkscape:connector-curvature="0"
         id="path20"
         style="fill:#7c818a;fill-opacity:1;fill-rule:nonzero;stroke:none"
         d="m 100.3464,334.56039 48.388,0 0,30.241 -48.388,0 0,-30.241 z m 49.451,-2.127 -50.513997,0 c -0.587,0 -1.064,0.476 -1.064,1.064 l 0,32.366 c 0,0.588 0.477,1.063 1.064,1.063 l 50.513997,0 c 0.587,0 1.064,-0.475 1.064,-1.063 l 0,-32.366 c 0,-0.588 -0.477,-1.064 -1.064,-1.064" />
      <g
         transform="translate(94.855303,332.43309)"
         id="g22">
        <path
           inkscape:connector-curvature="0"
           id="path24"
           style="fill:#7c818a;fill-opacity:1;fill-rule:nonzero;stroke:none"
           d="m 0,0 0,-1.184 c 0,-0.652 0.53,-1.181 1.183,-1.181 l 57.004,0 c 0.652,0 1.182,0.529 1.182,1.181 L 59.369,0 0,0 Z m 58.187,-4.492 -57.004,0 c -1.825,0 -3.31,1.484 -3.31,3.308 l 0,2.248 c 0,0.586 0.477,1.063 1.064,1.063 l 61.496,0 c 0.587,0 1.063,-0.477 1.063,-1.063 l 0,-2.248 c 0,-1.824 -1.485,-3.308 -3.309,-3.308" />
      </g>
      <path
         inkscape:connector-curvature="0"
         id="path26"
         style="fill:#7c818a;fill-opacity:1;fill-rule:nonzero;stroke:none"
         d="m 100.3464,334.56039 48.388,0 0,26.757 -48.388,0 0,-26.757 z m 49.451,-2.127 -50.513997,0 c -0.587,0 -1.064,0.476 -1.064,1.064 l 0,28.882 c 0,0.586 0.477,1.063 1.064,1.063 l 50.513997,0 c 0.587,0 1.064,-0.477 1.064,-1.063 l 0,-28.882 c 0,-0.588 -0.477,-1.064 -1.064,-1.064" />
      <path
         inkscape:connector-curvature="0"
         id="path28"
         style="fill:#7c818a;fill-opacity:1;fill-rule:evenodd;stroke:none"
         d="m 124.6114,333.92439 2.098,0 0,28.08 -2.098,0 0,-28.08 z" />
      <path
         inkscape:connector-curvature="0"
         id="path30"
         style="fill:#7c818a;fill-opacity:1;fill-rule:nonzero;stroke:none"
         d="m 121.8444,354.80939 -7.669,0 0,2.125 7.669,0 0,-2.125 z" />
      <path
         inkscape:connector-curvature="0"
         id="path32"
         style="fill:#7c818a;fill-opacity:1;fill-rule:nonzero;stroke:none"
         d="m 112.3114,354.80939 -8.527,0 0,2.127 8.527,0 0,-2.127 z" />
      <path
         inkscape:connector-curvature="0"
         id="path34"
         style="fill:#7c818a;fill-opacity:1;fill-rule:nonzero;stroke:none"
         d="m 116.4744,349.54339 -12.69,0 0,2.127 12.69,0 0,-2.127 z" />
      <path
         inkscape:connector-curvature="0"
         id="path36"
         style="fill:#7c818a;fill-opacity:1;fill-rule:nonzero;stroke:none"
         d="m 120.9694,344.27739 -17.186,0 0,2.127 17.186,0 0,-2.127 z" />
      <path
         inkscape:connector-curvature="0"
         id="path38"
         style="fill:#7c818a;fill-opacity:1;fill-rule:nonzero;stroke:none"
         d="m 121.1324,339.01439 -4.48,0 0,2.125 4.48,0 0,-2.125 z" />
      <path
         inkscape:connector-curvature="0"
         id="path40"
         style="fill:#7c818a;fill-opacity:1;fill-rule:nonzero;stroke:none"
         d="m 114.6764,339.01439 -10.893,0 0,2.125 10.893,0 0,-2.125 z" />
      <g
         transform="translate(137.2322,354.22709)"
         id="g42">
        <path
           inkscape:connector-curvature="0"
           id="path44"
           style="fill:#7c818a;fill-opacity:1;fill-rule:nonzero;stroke:none"
           d="m 0,0 c -3.448,0 -6.253,-2.805 -6.253,-6.252 0,-3.449 2.805,-6.255 6.253,-6.255 3.448,0 6.252,2.806 6.252,6.255 C 6.252,-2.805 3.448,0 0,0 m 0,-14.367 c -4.476,0 -8.116,3.64 -8.116,8.115 0,4.475 3.64,8.113 8.116,8.113 4.475,0 8.115,-3.638 8.115,-8.113 0,-4.475 -3.64,-8.115 -8.115,-8.115" />
      </g>
      <g
         transform="translate(137.1814,344.03759)"
         id="g46">
        <path
           inkscape:connector-curvature="0"
           id="path48"
           style="fill:#7c818a;fill-opacity:1;fill-rule:nonzero;stroke:none"
           d="m 0,0 c -2.171,0 -3.937,1.766 -3.937,3.938 0,2.169 1.766,3.935 3.937,3.935 0.655,0 1.308,-0.166 1.885,-0.48 L 2.507,7.055 1.829,5.809 1.207,6.148 C 0.837,6.35 0.42,6.457 0,6.457 c -1.389,0 -2.519,-1.131 -2.519,-2.519 0,-1.391 1.13,-2.522 2.519,-2.522 0.528,0 1.056,0.172 1.483,0.482 L 2.058,2.316 2.891,1.17 2.317,0.752 C 1.639,0.26 0.838,0 0,0" />
      </g>
    </g>
  </g>
</svg>
