<?xml version="1.0" encoding="UTF-8" standalone="no"?>
<!-- Created with Inkscape (http://www.inkscape.org/) -->

<svg
   xmlns:dc="http://purl.org/dc/elements/1.1/"
   xmlns:cc="http://creativecommons.org/ns#"
   xmlns:rdf="http://www.w3.org/1999/02/22-rdf-syntax-ns#"
   xmlns:svg="http://www.w3.org/2000/svg"
   xmlns="http://www.w3.org/2000/svg"
   xmlns:sodipodi="http://sodipodi.sourceforge.net/DTD/sodipodi-0.dtd"
   xmlns:inkscape="http://www.inkscape.org/namespaces/inkscape"
   width="22.056807mm"
   height="18.493462mm"
   viewBox="0 0 78.154039 65.528013"
   id="svg4915"
   version="1.1"
   inkscape:version="0.91 r13725"
   sodipodi:docname="curriculumcontent.svg">
  <defs
     id="defs4917" />
  <sodipodi:namedview
     id="base"
     pagecolor="#ffffff"
     bordercolor="#666666"
     borderopacity="1.0"
     inkscape:pageopacity="0.0"
     inkscape:pageshadow="2"
     inkscape:zoom="0.35"
     inkscape:cx="-705.92298"
     inkscape:cy="332.76402"
     inkscape:document-units="px"
     inkscape:current-layer="layer1"
     showgrid="false"
     fit-margin-top="0"
     fit-margin-left="0"
     fit-margin-right="0"
     fit-margin-bottom="0"
     inkscape:window-width="1867"
     inkscape:window-height="1056"
     inkscape:window-x="53"
     inkscape:window-y="24"
     inkscape:window-maximized="1" />
  <metadata
     id="metadata4920">
    <rdf:RDF>
      <cc:Work
         rdf:about="">
        <dc:format>image/svg+xml</dc:format>
        <dc:type
           rdf:resource="http://purl.org/dc/dcmitype/StillImage" />
        <dc:title></dc:title>
      </cc:Work>
    </rdf:RDF>
  </metadata>
  <g
     inkscape:label="Layer 1"
     inkscape:groupmode="layer"
     id="layer1"
     transform="translate(-586.63727,-799.59821)">
    <g
       transform="matrix(1.25,0,0,-1.25,30.902311,1059.4377)"
       id="g3971">
      <g
         transform="translate(451.69308,200.14638)"
         id="g274">
        <path
           inkscape:connector-curvature="0"
           id="path276"
           style="fill:#7c818a;fill-opacity:1;fill-rule:nonzero;stroke:none"
           d="M 0,0 24.693,-5.989 48.313,-0.893 23.619,5.098 0,0 Z m 24.677,-8.617 c -0.103,0 -0.205,0.012 -0.306,0.036 l -30.485,7.394 c -0.588,0.142 -0.999,0.671 -0.991,1.277 0.006,0.604 0.431,1.124 1.023,1.252 l 29.444,6.354 c 0.191,0.041 0.388,0.039 0.579,-0.007 L 54.427,0.295 c 0.588,-0.143 0.999,-0.672 0.991,-1.277 -0.007,-0.605 -0.432,-1.124 -1.023,-1.252 L 24.95,-8.588 c -0.09,-0.019 -0.181,-0.029 -0.273,-0.029" />
      </g>
      <g
         transform="translate(472.23798,168.39448)"
         id="g278">
        <path
           inkscape:connector-curvature="0"
           id="path280"
           style="fill:#7c818a;fill-opacity:1;fill-rule:nonzero;stroke:none"
           d="m 0,0 c -6.56,0.284 -10.396,1.295 -11.156,1.9 -0.134,0.565 -0.641,0.985 -1.246,0.985 -0.707,0 -1.281,-0.573 -1.281,-1.281 0,-3.102 8.215,-3.949 13.683,-4.168 L 0,0 Z" />
      </g>
      <path
         inkscape:connector-curvature="0"
         id="path282"
         style="fill:#7c818a;fill-opacity:1;fill-rule:nonzero;stroke:none"
         d="m 473.53618,158.04318 25.639,0 0,18.476 -25.639,0 0,-18.476 z m 28.234,-2.594 -30.83,0 0,23.664 30.83,0 0,-23.664 z" />
      <path
         inkscape:connector-curvature="0"
         id="path284"
         style="fill:#7c818a;fill-opacity:1;fill-rule:nonzero;stroke:none"
         d="m 451.42518,184.87818 -2.596,0 0,13.313 2.596,0 0,-13.313 z" />
      <path
         inkscape:connector-curvature="0"
         id="path286"
         style="fill:#7c818a;fill-opacity:1;fill-rule:nonzero;stroke:none"
         d="m 465.49918,171.62318 -2.596,0 0,12.896 2.596,0 0,-12.896 z" />
      <path
         inkscape:connector-curvature="0"
         id="path288"
         style="fill:#7c818a;fill-opacity:1;fill-rule:nonzero;stroke:none"
         d="m 465.49918,187.35318 -2.596,0 0,4.645 2.596,0 0,-4.645 z" />
      <g
         transform="translate(448.40888,177.55558)"
         id="g290">
        <path
           inkscape:connector-curvature="0"
           id="path292"
           style="fill:#7c818a;fill-opacity:1;fill-rule:nonzero;stroke:none"
           d="M 0,0 3.318,0 1.66,6.149 0,0 Z m 6.705,-2.595 -10.092,0 5.047,18.709 5.045,-18.709 z" />
      </g>
      <g
         transform="translate(477.09338,181.42378)"
         id="g294">
        <path
           inkscape:connector-curvature="0"
           id="path296"
           style="fill:#7c818a;fill-opacity:1;fill-rule:nonzero;stroke:none"
           d="M 0,0 0,-6.516" />
      </g>
      <path
         inkscape:connector-curvature="0"
         id="path298"
         style="fill:#7c818a;fill-opacity:1;fill-rule:nonzero;stroke:none"
         d="m 478.39118,174.90818 -2.596,0 0,6.516 2.596,0 0,-6.516 z" />
      <g
         transform="translate(495.61688,181.42378)"
         id="g300">
        <path
           inkscape:connector-curvature="0"
           id="path302"
           style="fill:#7c818a;fill-opacity:1;fill-rule:nonzero;stroke:none"
           d="M 0,0 0,-6.516" />
      </g>
      <path
         inkscape:connector-curvature="0"
         id="path304"
         style="fill:#7c818a;fill-opacity:1;fill-rule:nonzero;stroke:none"
         d="m 496.91518,174.90818 -2.596,0 0,6.516 2.596,0 0,-6.516 z" />
      <g
         transform="translate(471.49288,172.48628)"
         id="g306">
        <path
           inkscape:connector-curvature="0"
           id="path308"
           style="fill:#7c818a;fill-opacity:1;fill-rule:nonzero;stroke:none"
           d="M 0,0 29.695,0" />
      </g>
      <path
         inkscape:connector-curvature="0"
         id="path310"
         style="fill:#7c818a;fill-opacity:1;fill-rule:nonzero;stroke:none"
         d="m 501.18818,171.18918 -29.695,0 0,2.595 29.695,0 0,-2.595 z" />
      <g
         transform="translate(476.53188,167.45008)"
         id="g312">
        <path
           inkscape:connector-curvature="0"
           id="path314"
           style="fill:#7c818a;fill-opacity:1;fill-rule:nonzero;stroke:none"
           d="M 0,0 4.029,0" />
      </g>
      <path
         inkscape:connector-curvature="0"
         id="path316"
         style="fill:#7c818a;fill-opacity:1;fill-rule:nonzero;stroke:none"
         d="m 480.56118,166.15218 -4.029,0 0,2.596 4.029,0 0,-2.596 z" />
      <g
         transform="translate(484.32588,167.45008)"
         id="g318">
        <path
           inkscape:connector-curvature="0"
           id="path320"
           style="fill:#7c818a;fill-opacity:1;fill-rule:nonzero;stroke:none"
           d="M 0,0 4.029,0" />
      </g>
      <path
         inkscape:connector-curvature="0"
         id="path322"
         style="fill:#7c818a;fill-opacity:1;fill-rule:nonzero;stroke:none"
         d="m 488.35518,166.15218 -4.029,0 0,2.596 4.029,0 0,-2.596 z" />
      <g
         transform="translate(492.11978,167.45008)"
         id="g324">
        <path
           inkscape:connector-curvature="0"
           id="path326"
           style="fill:#7c818a;fill-opacity:1;fill-rule:nonzero;stroke:none"
           d="M 0,0 4.029,0" />
      </g>
      <path
         inkscape:connector-curvature="0"
         id="path328"
         style="fill:#7c818a;fill-opacity:1;fill-rule:nonzero;stroke:none"
         d="m 496.14918,166.15218 -4.029,0 0,2.596 4.029,0 0,-2.596 z" />
      <g
         transform="translate(476.53188,161.93158)"
         id="g330">
        <path
           inkscape:connector-curvature="0"
           id="path332"
           style="fill:#7c818a;fill-opacity:1;fill-rule:nonzero;stroke:none"
           d="M 0,0 4.029,0" />
      </g>
      <path
         inkscape:connector-curvature="0"
         id="path334"
         style="fill:#7c818a;fill-opacity:1;fill-rule:nonzero;stroke:none"
         d="m 480.56118,160.63418 -4.029,0 0,2.595 4.029,0 0,-2.595 z" />
      <g
         transform="translate(484.32588,161.93158)"
         id="g336">
        <path
           inkscape:connector-curvature="0"
           id="path338"
           style="fill:#7c818a;fill-opacity:1;fill-rule:nonzero;stroke:none"
           d="M 0,0 4.029,0" />
      </g>
      <path
         inkscape:connector-curvature="0"
         id="path340"
         style="fill:#7c818a;fill-opacity:1;fill-rule:nonzero;stroke:none"
         d="m 488.35518,160.63418 -4.029,0 0,2.595 4.029,0 0,-2.595 z" />
      <g
         transform="translate(492.11978,161.93158)"
         id="g342">
        <path
           inkscape:connector-curvature="0"
           id="path344"
           style="fill:#7c818a;fill-opacity:1;fill-rule:nonzero;stroke:none"
           d="M 0,0 4.029,0" />
      </g>
      <path
         inkscape:connector-curvature="0"
         id="path346"
         style="fill:#7c818a;fill-opacity:1;fill-rule:nonzero;stroke:none"
         d="m 496.14918,160.63418 -4.029,0 0,2.595 4.029,0 0,-2.595 z" />
      <g
         transform="translate(458.55238,197.14738)"
         id="g348">
        <path
           inkscape:connector-curvature="0"
           id="path350"
           style="fill:#7c818a;fill-opacity:1;fill-rule:nonzero;stroke:none"
           d="m 0,0 0,-27.249 c 0,-0.717 0.581,-1.297 1.298,-1.297 0.717,0 1.298,0.58 1.298,1.297 l 0,26.619 L 0,0 Z" />
      </g>
      <g
         transform="translate(490.55238,195.88668)"
         id="g352">
        <path
           inkscape:connector-curvature="0"
           id="path354"
           style="fill:#7c818a;fill-opacity:1;fill-rule:nonzero;stroke:none"
           d="m 0,0 0,-16.988 c 0,-0.717 0.581,-1.297 1.298,-1.297 0.717,0 1.298,0.58 1.298,1.297 l 0,17.549 L 0,0 Z" />
      </g>
      <g
         transform="translate(493.10518,202.26358)"
         id="g356">
        <path
           inkscape:connector-curvature="0"
           id="path358"
           style="fill:#7c818a;fill-opacity:1;fill-rule:nonzero;stroke:none"
           d="m 0,0 c -0.104,0.61 -0.613,1.084 -1.255,1.084 -0.425,0 -0.784,-0.217 -1.02,-0.533 L 0,0 Z" />
      </g>
    </g>
  </g>
</svg>
