<?xml version="1.0" encoding="UTF-8" standalone="no"?>
<!-- Created with Inkscape (http://www.inkscape.org/) -->

<svg
   xmlns:dc="http://purl.org/dc/elements/1.1/"
   xmlns:cc="http://creativecommons.org/ns#"
   xmlns:rdf="http://www.w3.org/1999/02/22-rdf-syntax-ns#"
   xmlns:svg="http://www.w3.org/2000/svg"
   xmlns="http://www.w3.org/2000/svg"
   xmlns:sodipodi="http://sodipodi.sourceforge.net/DTD/sodipodi-0.dtd"
   xmlns:inkscape="http://www.inkscape.org/namespaces/inkscape"
   width="22.640924mm"
   height="22.367662mm"
   viewBox="0 0 80.223748 79.255496"
   id="svg4204"
   version="1.1"
   inkscape:version="0.91 r13725"
   sodipodi:docname="infrastructure.svg">
  <defs
     id="defs4206" />
  <sodipodi:namedview
     id="base"
     pagecolor="#ffffff"
     bordercolor="#666666"
     borderopacity="1.0"
     inkscape:pageopacity="0.0"
     inkscape:pageshadow="2"
     inkscape:zoom="1.979899"
     inkscape:cx="52.592262"
     inkscape:cy="52.462123"
     inkscape:document-units="px"
     inkscape:current-layer="layer1"
     showgrid="false"
     fit-margin-top="0"
     fit-margin-left="0"
     fit-margin-right="0"
     fit-margin-bottom="0"
     inkscape:window-width="748"
     inkscape:window-height="560"
     inkscape:window-x="1106"
     inkscape:window-y="278"
     inkscape:window-maximized="0" />
  <metadata
     id="metadata4209">
    <rdf:RDF>
      <cc:Work
         rdf:about="">
        <dc:format>image/svg+xml</dc:format>
        <dc:type
           rdf:resource="http://purl.org/dc/dcmitype/StillImage" />
        <dc:title></dc:title>
      </cc:Work>
    </rdf:RDF>
  </metadata>
  <g
     inkscape:label="Layer 1"
     inkscape:groupmode="layer"
     id="layer1"
     transform="translate(-551.31669,-864.163)">
    <g
       transform="matrix(1.25,0,0,-1.25,469.46398,1329.6964)"
       id="g4120">
      <g
         transform="translate(71.815171,338.15672)"
         id="g50">
        <path
           inkscape:connector-curvature="0"
           id="path52"
           style="fill:#7c818a;fill-opacity:1;fill-rule:nonzero;stroke:none"
           d="m 0,0 49.733,0 c 3.301,0 5.987,2.686 5.987,5.986 0,3.301 -2.686,5.987 -5.987,5.987 -0.266,0 -0.529,-0.018 -0.786,-0.051 -0.577,-0.083 -1.113,0.334 -1.19,0.914 -0.612,4.61 -4.586,8.086 -9.244,8.086 -0.862,0 -1.714,-0.116 -2.532,-0.348 -0.551,-0.152 -1.132,0.157 -1.303,0.708 C 32.657,27.778 26.725,32.143 19.917,32.143 12.625,32.143 6.26,26.968 4.783,19.838 4.683,19.352 4.259,19 3.762,18.991 c -4.394,-0.083 -7.969,-3.726 -7.969,-8.122 0,-0.339 0.022,-0.681 0.063,-1.018 0.006,-0.043 0.009,-0.087 0.009,-0.131 l 0,-5.59 c 0,-2.252 1.831,-4.104 4.082,-4.129 0.018,0 0.035,0 0.053,-0.001 m 49.733,-2.127 -49.739,0 c -0.023,0 -0.047,10e-4 -0.07,0.003 -3.411,0.037 -6.185,2.843 -6.185,6.254 l 0,5.525 c -0.048,0.403 -0.072,0.811 -0.072,1.214 0,5.265 4.064,9.674 9.219,10.197 1.976,7.698 9.01,13.204 17.031,13.204 7.412,0 13.911,-4.549 16.471,-11.418 0.697,0.13 1.408,0.197 2.125,0.197 5.384,0 10.023,-3.783 11.176,-8.95 0.015,0 0.029,10e-4 0.044,10e-4 4.474,0 8.113,-3.64 8.113,-8.114 0,-4.473 -3.639,-8.113 -8.113,-8.113" />
      </g>
      <g
         transform="translate(90.321471,355.55712)"
         id="g54">
        <path
           inkscape:connector-curvature="0"
           id="path56"
           style="fill:#7c818a;fill-opacity:1;fill-rule:nonzero;stroke:none"
           d="m 0,0 c -0.097,0 -0.182,-0.085 -0.182,-0.182 l 0,-3.942 c 0,-0.099 0.083,-0.182 0.182,-0.182 l 8.566,0 c 0.098,0 0.183,0.085 0.183,0.182 l 0,3.942 C 8.749,-0.085 8.664,0 8.566,0 L 0,0 Z m 8.566,-6.433 -8.566,0 c -1.272,0 -2.308,1.037 -2.308,2.309 l 0,3.942 c 0,1.273 1.036,2.309 2.308,2.309 l 8.566,0 c 1.273,0 2.309,-1.036 2.309,-2.309 l 0,-3.942 c 0,-1.272 -1.036,-2.309 -2.309,-2.309" />
      </g>
      <g
         transform="translate(94.604671,322.28172)"
         id="g58">
        <path
           inkscape:connector-curvature="0"
           id="path60"
           style="fill:#7c818a;fill-opacity:1;fill-rule:nonzero;stroke:none"
           d="m 0,0 c -0.587,0 -1.063,0.477 -1.063,1.063 l 0,20.024 c 0,0.587 0.476,1.063 1.063,1.063 0.587,0 1.063,-0.476 1.063,-1.063 l 0,-20.024 C 1.063,0.477 0.587,0 0,0" />
      </g>
      <g
         transform="translate(111.53877,322.22312)"
         id="g62">
        <path
           inkscape:connector-curvature="0"
           id="path64"
           style="fill:#7c818a;fill-opacity:1;fill-rule:nonzero;stroke:none"
           d="m 0,0 c -0.587,0 -1.063,0.477 -1.063,1.063 l 0,5.562 c 0,0.674 -0.548,1.222 -1.223,1.222 l -29.297,0 c -0.673,0 -1.222,-0.548 -1.222,-1.222 l 0,-5.562 C -32.805,0.477 -33.281,0 -33.868,0 c -0.587,0 -1.063,0.477 -1.063,1.063 l 0,5.562 c 0,1.846 1.502,3.349 3.348,3.349 l 29.297,0 c 1.847,0 3.349,-1.503 3.349,-3.349 l 0,-5.562 C 1.063,0.477 0.587,0 0,0" />
      </g>
      <path
         inkscape:connector-curvature="0"
         id="path66"
         style="fill:#7c818a;fill-opacity:1;fill-rule:nonzero;stroke:none"
         d="m 95.667171,347.26932 -2.126,0 0,2.919 2.126,0 0,-2.919 z" />
      <path
         inkscape:connector-curvature="0"
         id="path68"
         style="fill:#7c818a;fill-opacity:1;fill-rule:nonzero;stroke:none"
         d="m 97.368171,345.47732 -5.527,0 0,2.127 5.527,0 0,-2.127 z" />
      <g
         transform="translate(90.321471,319.10202)"
         id="g70">
        <path
           inkscape:connector-curvature="0"
           id="path72"
           style="fill:#7c818a;fill-opacity:1;fill-rule:nonzero;stroke:none"
           d="m 0,0 c -0.099,0 -0.182,-0.082 -0.182,-0.181 l 0,-3.942 c 0,-0.099 0.083,-0.182 0.182,-0.182 l 8.566,0 c 0.098,0 0.183,0.085 0.183,0.182 l 0,3.942 C 8.749,-0.084 8.664,0 8.566,0 L 0,0 Z m 8.566,-6.432 -8.566,0 c -1.272,0 -2.308,1.036 -2.308,2.309 l 0,3.942 c 0,1.273 1.036,2.308 2.308,2.308 l 8.566,0 c 1.273,0 2.309,-1.035 2.309,-2.308 l 0,-3.942 c 0,-1.273 -1.036,-2.309 -2.309,-2.309" />
      </g>
      <path
         inkscape:connector-curvature="0"
         id="path74"
         style="fill:#7c818a;fill-opacity:1;fill-rule:nonzero;stroke:none"
         d="m 95.667171,310.81532 -2.126,0 0,2.919 2.126,0 0,-2.919 z" />
      <path
         inkscape:connector-curvature="0"
         id="path76"
         style="fill:#7c818a;fill-opacity:1;fill-rule:nonzero;stroke:none"
         d="m 97.368171,309.02232 -5.527,0 0,2.127 5.527,0 0,-2.127 z" />
      <g
         transform="translate(73.118371,319.10202)"
         id="g78">
        <path
           inkscape:connector-curvature="0"
           id="path80"
           style="fill:#7c818a;fill-opacity:1;fill-rule:nonzero;stroke:none"
           d="m 0,0 c -0.099,0 -0.182,-0.082 -0.182,-0.181 l 0,-3.942 c 0,-0.099 0.083,-0.182 0.182,-0.182 l 8.566,0 c 0.098,0 0.183,0.085 0.183,0.182 l 0,3.942 C 8.749,-0.084 8.664,0 8.566,0 L 0,0 Z m 8.566,-6.432 -8.566,0 c -1.272,0 -2.308,1.036 -2.308,2.309 l 0,3.942 c 0,1.273 1.036,2.308 2.308,2.308 l 8.566,0 c 1.273,0 2.309,-1.035 2.309,-2.308 l 0,-3.942 c 0,-1.273 -1.036,-2.309 -2.309,-2.309" />
      </g>
      <path
         inkscape:connector-curvature="0"
         id="path82"
         style="fill:#7c818a;fill-opacity:1;fill-rule:nonzero;stroke:none"
         d="m 78.465171,310.81532 -2.126,0 0,2.919 2.126,0 0,-2.919 z" />
      <path
         inkscape:connector-curvature="0"
         id="path84"
         style="fill:#7c818a;fill-opacity:1;fill-rule:nonzero;stroke:none"
         d="m 80.165171,309.02232 -5.527,0 0,2.127 5.527,0 0,-2.127 z" />
      <g
         transform="translate(107.60517,319.10202)"
         id="g86">
        <path
           inkscape:connector-curvature="0"
           id="path88"
           style="fill:#7c818a;fill-opacity:1;fill-rule:nonzero;stroke:none"
           d="m 0,0 c -0.097,0 -0.182,-0.084 -0.182,-0.181 l 0,-3.942 c 0,-0.099 0.083,-0.182 0.182,-0.182 l 8.567,0 c 0.097,0 0.182,0.085 0.182,0.182 l 0,3.942 C 8.749,-0.084 8.664,0 8.567,0 L 0,0 Z m 8.567,-6.432 -8.567,0 c -1.272,0 -2.308,1.036 -2.308,2.309 l 0,3.942 c 0,1.273 1.036,2.308 2.308,2.308 l 8.567,0 c 1.272,0 2.308,-1.035 2.308,-2.308 l 0,-3.942 c 0,-1.273 -1.036,-2.309 -2.308,-2.309" />
      </g>
      <path
         inkscape:connector-curvature="0"
         id="path90"
         style="fill:#7c818a;fill-opacity:1;fill-rule:nonzero;stroke:none"
         d="m 112.95217,310.81532 -2.126,0 0,2.919 2.126,0 0,-2.919 z" />
      <path
         inkscape:connector-curvature="0"
         id="path92"
         style="fill:#7c818a;fill-opacity:1;fill-rule:nonzero;stroke:none"
         d="m 114.65217,309.02232 -5.527,0 0,2.127 5.527,0 0,-2.127 z" />
      <g
         transform="translate(88.116371,364.26222)"
         id="g94">
        <path
           inkscape:connector-curvature="0"
           id="path96"
           style="fill:#7c818a;fill-opacity:1;fill-rule:nonzero;stroke:none"
           d="M 0,0 C -0.455,0 -0.876,0.295 -1.016,0.753 -1.187,1.314 -0.872,1.909 -0.31,2.08 1.026,2.488 2.417,2.695 3.823,2.695 4.41,2.695 4.886,2.219 4.886,1.632 4.886,1.045 4.41,0.568 3.823,0.568 2.627,0.568 1.445,0.394 0.311,0.047 0.208,0.016 0.103,0 0,0 m -11.594,-10.378 c -0.418,0 -0.814,0.248 -0.983,0.659 -0.224,0.543 0.035,1.164 0.578,1.388 0.696,0.286 1.423,0.475 2.171,0.563 0.904,3.352 3.055,6.312 5.993,8.208 0.493,0.319 1.15,0.178 1.469,-0.315 0.319,-0.493 0.177,-1.151 -0.316,-1.47 -2.691,-1.738 -4.605,-4.524 -5.252,-7.644 -0.101,-0.486 -0.524,-0.837 -1.02,-0.847 -0.777,-0.016 -1.529,-0.171 -2.236,-0.462 -0.132,-0.054 -0.269,-0.08 -0.404,-0.08 m -4.511,-6.727 c -0.587,0 -1.063,0.476 -1.063,1.063 0,2.097 0.782,4.101 2.202,5.643 0.397,0.43 1.069,0.459 1.502,0.062 0.431,-0.397 0.459,-1.07 0.061,-1.502 -1.057,-1.148 -1.639,-2.641 -1.639,-4.203 0,-0.587 -0.477,-1.063 -1.063,-1.063" />
      </g>
    </g>
  </g>
</svg>
