<?xml version="1.0" encoding="UTF-8" standalone="no"?>
<!-- Created with Inkscape (http://www.inkscape.org/) -->

<svg
   xmlns:dc="http://purl.org/dc/elements/1.1/"
   xmlns:cc="http://creativecommons.org/ns#"
   xmlns:rdf="http://www.w3.org/1999/02/22-rdf-syntax-ns#"
   xmlns:svg="http://www.w3.org/2000/svg"
   xmlns="http://www.w3.org/2000/svg"
   xmlns:sodipodi="http://sodipodi.sourceforge.net/DTD/sodipodi-0.dtd"
   xmlns:inkscape="http://www.inkscape.org/namespaces/inkscape"
   width="18.918713mm"
   height="23.313496mm"
   viewBox="0 0 67.034808 82.606874"
   id="svg4510"
   version="1.1"
   inkscape:version="0.91 r13725"
   sodipodi:docname="learning.svg">
  <defs
     id="defs4512" />
  <sodipodi:namedview
     id="base"
     pagecolor="#ffffff"
     bordercolor="#666666"
     borderopacity="1.0"
     inkscape:pageopacity="0.0"
     inkscape:pageshadow="2"
     inkscape:zoom="0.98994949"
     inkscape:cx="-110.62614"
     inkscape:cy="-21.48768"
     inkscape:document-units="px"
     inkscape:current-layer="layer1"
     showgrid="false"
     fit-margin-top="0"
     fit-margin-left="0"
     fit-margin-right="0"
     fit-margin-bottom="0"
     inkscape:window-width="1867"
     inkscape:window-height="1056"
     inkscape:window-x="53"
     inkscape:window-y="24"
     inkscape:window-maximized="1" />
  <metadata
     id="metadata4515">
    <rdf:RDF>
      <cc:Work
         rdf:about="">
        <dc:format>image/svg+xml</dc:format>
        <dc:type
           rdf:resource="http://purl.org/dc/dcmitype/StillImage" />
        <dc:title></dc:title>
      </cc:Work>
    </rdf:RDF>
  </metadata>
  <g
     inkscape:label="Layer 1"
     inkscape:groupmode="layer"
     id="layer1"
     transform="translate(-352.19688,-399.6302)">
    <g
       transform="matrix(1.25,0,0,-1.25,-210.10959,864.96355)"
       id="g3940">
      <path
         inkscape:connector-curvature="0"
         id="path170"
         style="fill:#7c818a;fill-opacity:1;fill-rule:nonzero;stroke:none"
         d="m 451.97218,335.69718 47.754,0 0,27.521 -47.754,0 0,-27.521 z m 48.818,-2.125 -49.881,0 c -0.587,0 -1.064,0.477 -1.064,1.062 l 0,29.647 c 0,0.587 0.477,1.063 1.064,1.063 l 49.881,0 c 0.586,0 1.063,-0.476 1.063,-1.063 l 0,-29.647 c 0,-0.585 -0.477,-1.062 -1.063,-1.062" />
      <g
         transform="translate(475.85218,309.61518)"
         id="g172">
        <path
           inkscape:connector-curvature="0"
           id="path174"
           style="fill:#7c818a;fill-opacity:1;fill-rule:nonzero;stroke:none"
           d="m 0,0 c -0.354,0 -0.653,-0.299 -0.653,-0.654 0,-0.354 0.299,-0.653 0.653,-0.653 0.354,0 0.653,0.299 0.653,0.653 C 0.653,-0.293 0.36,0 0,0 m 0,-3.434 c -1.532,0 -2.78,1.246 -2.78,2.78 0,1.533 1.248,2.779 2.78,2.779 1.532,0 2.778,-1.246 2.778,-2.779 0,-1.534 -1.246,-2.78 -2.778,-2.78" />
      </g>
      <g
         transform="translate(460.66178,363.34318)"
         id="g176">
        <path
           inkscape:connector-curvature="0"
           id="path178"
           style="fill:#7c818a;fill-opacity:1;fill-rule:nonzero;stroke:none"
           d="m 0,0 c -0.469,0 -0.898,0.313 -1.025,0.789 -0.153,0.566 0.183,1.149 0.752,1.301 L 14.66,6.092 C 15.227,6.243 15.809,5.907 15.961,5.34 16.113,4.773 15.777,4.19 15.209,4.038 L 0.275,0.037 C 0.184,0.012 0.092,0 0,0" />
      </g>
      <g
         transform="translate(490.52998,363.34318)"
         id="g180">
        <path
           inkscape:connector-curvature="0"
           id="path182"
           style="fill:#7c818a;fill-opacity:1;fill-rule:nonzero;stroke:none"
           d="m 0,0 c -0.092,0 -0.184,0.012 -0.276,0.037 l -14.932,4.001 c -0.568,0.152 -0.904,0.735 -0.752,1.302 0.152,0.567 0.734,0.903 1.301,0.752 L 0.274,2.09 C 0.841,1.938 1.178,1.355 1.025,0.789 0.898,0.313 0.469,0 0,0" />
      </g>
      <path
         inkscape:connector-curvature="0"
         id="path184"
         style="fill:#7c818a;fill-opacity:1;fill-rule:nonzero;stroke:none"
         d="m 457.45718,347.56118 8.615,0 0,10.642 -8.615,0 0,-10.642 z m 9.677,-2.126 -10.741,0 c -0.587,0 -1.063,0.476 -1.063,1.063 l 0,12.767 c 0,0.587 0.476,1.063 1.063,1.063 l 10.741,0 c 0.587,0 1.063,-0.476 1.063,-1.063 l 0,-12.767 c 0,-0.587 -0.476,-1.063 -1.063,-1.063" />
      <g
         transform="translate(489.55438,354.14148)"
         id="g186">
        <path
           inkscape:connector-curvature="0"
           id="path188"
           style="fill:#7c818a;fill-opacity:1;fill-rule:nonzero;stroke:none"
           d="m 0,0 -17.038,0 c -0.587,0 -1.064,0.476 -1.064,1.063 0,0.587 0.477,1.063 1.064,1.063 L 0,2.126 C 0.587,2.126 1.063,1.65 1.063,1.063 1.063,0.476 0.587,0 0,0" />
      </g>
      <g
         transform="translate(481.03488,350.60978)"
         id="g190">
        <path
           inkscape:connector-curvature="0"
           id="path192"
           style="fill:#7c818a;fill-opacity:1;fill-rule:nonzero;stroke:none"
           d="m 0,0 -8.519,0 c -0.586,0 -1.063,0.476 -1.063,1.063 0,0.587 0.477,1.063 1.063,1.063 L 0,2.126 C 0.587,2.126 1.063,1.65 1.063,1.063 1.063,0.476 0.587,0 0,0" />
      </g>
      <g
         transform="translate(488.93038,346.86958)"
         id="g194">
        <path
           inkscape:connector-curvature="0"
           id="path196"
           style="fill:#7c818a;fill-opacity:1;fill-rule:nonzero;stroke:none"
           d="m 0,0 -16.414,0 c -0.587,0 -1.064,0.476 -1.064,1.063 0,0.587 0.477,1.063 1.064,1.063 L 0,2.126 C 0.587,2.126 1.063,1.65 1.063,1.063 1.063,0.476 0.587,0 0,0" />
      </g>
      <path
         inkscape:connector-curvature="0"
         id="path198"
         style="fill:#7c818a;fill-opacity:1;fill-rule:nonzero;stroke:none"
         d="m 457.45718,339.59218 8.615,0 0,1.066 -8.615,0 0,-1.066 z m 9.677,-2.127 -10.741,0 c -0.587,0 -1.063,0.476 -1.063,1.062 l 0,3.193 c 0,0.586 0.476,1.063 1.063,1.063 l 10.741,0 c 0.587,0 1.063,-0.477 1.063,-1.063 l 0,-3.193 c 0,-0.586 -0.476,-1.062 -1.063,-1.062" />
      <g
         transform="translate(481.60998,338.66588)"
         id="g200">
        <path
           inkscape:connector-curvature="0"
           id="path202"
           style="fill:#7c818a;fill-opacity:1;fill-rule:nonzero;stroke:none"
           d="m 0,0 -9.094,0 c -0.587,0 -1.063,0.477 -1.063,1.062 0,0.588 0.476,1.065 1.063,1.065 L 0,2.127 C 0.587,2.127 1.063,1.65 1.063,1.062 1.063,0.477 0.587,0 0,0" />
      </g>
      <g
         transform="translate(489.30538,338.66588)"
         id="g204">
        <path
           inkscape:connector-curvature="0"
           id="path206"
           style="fill:#7c818a;fill-opacity:1;fill-rule:nonzero;stroke:none"
           d="m 0,0 -3.026,0 c -0.587,0 -1.064,0.477 -1.064,1.062 0,0.588 0.477,1.065 1.064,1.065 L 0,2.127 C 0.587,2.127 1.063,1.65 1.063,1.062 1.063,0.477 0.587,0 0,0" />
      </g>
      <g
         transform="translate(502.41078,324.65418)"
         id="g208">
        <path
           inkscape:connector-curvature="0"
           id="path210"
           style="fill:#7c818a;fill-opacity:1;fill-rule:nonzero;stroke:none"
           d="m 0,0 c -0.367,0 -0.725,0.189 -0.922,0.531 l -9.947,17.229 c -0.293,0.51 -0.119,1.158 0.39,1.452 0.506,0.292 1.158,0.12 1.452,-0.389 L 0.92,1.594 C 1.213,1.086 1.039,0.436 0.53,0.143 0.363,0.045 0.181,0 0,0" />
      </g>
      <g
         transform="translate(476.97038,364.28168)"
         id="g212">
        <path
           inkscape:connector-curvature="0"
           id="path214"
           style="fill:#7c818a;fill-opacity:1;fill-rule:nonzero;stroke:none"
           d="m 0,0 0,6.922 c 0,0.587 -0.477,1.063 -1.063,1.063 -0.587,0 -1.064,-0.476 -1.064,-1.063 L -2.127,0 0,0 Z" />
      </g>
      <g
         transform="translate(474.84338,334.63468)"
         id="g216">
        <path
           inkscape:connector-curvature="0"
           id="path218"
           style="fill:#7c818a;fill-opacity:1;fill-rule:nonzero;stroke:none"
           d="m 0,0 0,-23.289 c 0,-0.586 0.477,-1.063 1.063,-1.063 0.587,0 1.064,0.477 1.064,1.063 L 2.127,0 0,0 Z" />
      </g>
      <g
         transform="translate(490.91078,312.01948)"
         id="g220">
        <path
           inkscape:connector-curvature="0"
           id="path222"
           style="fill:#7c818a;fill-opacity:1;fill-rule:nonzero;stroke:none"
           d="m 0,0 c -0.354,0 -0.653,0.299 -0.653,0.654 0,0.354 0.299,0.653 0.653,0.653 0.354,0 0.653,-0.299 0.653,-0.653 C 0.653,0.299 0.354,0 0,0 m 0,3.434 c -0.842,0 -1.588,-0.385 -2.099,-0.977 l -12.507,2.555 c -0.12,0.023 -0.236,0.015 -0.349,0 l 0,-2.1 12.198,-2.49 c 0.12,-1.424 1.304,-2.547 2.757,-2.547 1.533,0 2.78,1.246 2.78,2.779 0,1.532 -1.247,2.78 -2.78,2.78" />
      </g>
      <g
         transform="translate(460.24968,312.67378)"
         id="g224">
        <path
           inkscape:connector-curvature="0"
           id="path226"
           style="fill:#7c818a;fill-opacity:1;fill-rule:nonzero;stroke:none"
           d="M 0,0 C 0,0.354 0.299,0.652 0.653,0.652 1.008,0.652 1.307,0.354 1.307,0 1.307,-0.355 1.008,-0.654 0.653,-0.654 0.299,-0.654 0,-0.355 0,0 m -2.127,0 c 0,-1.533 1.247,-2.779 2.78,-2.779 1.453,0 2.637,1.123 2.757,2.547 l 12.198,2.49 0,2.099 c -0.113,0.016 -0.229,0.024 -0.348,0 L 2.752,1.803 C 2.241,2.395 1.495,2.779 0.653,2.779 -0.88,2.779 -2.127,1.531 -2.127,0" />
      </g>
    </g>
  </g>
</svg>
