<?xml version="1.0" encoding="UTF-8" standalone="no"?>
<!-- Created with Inkscape (http://www.inkscape.org/) -->

<svg
   xmlns:dc="http://purl.org/dc/elements/1.1/"
   xmlns:cc="http://creativecommons.org/ns#"
   xmlns:rdf="http://www.w3.org/1999/02/22-rdf-syntax-ns#"
   xmlns:svg="http://www.w3.org/2000/svg"
   xmlns="http://www.w3.org/2000/svg"
   xmlns:sodipodi="http://sodipodi.sourceforge.net/DTD/sodipodi-0.dtd"
   xmlns:inkscape="http://www.inkscape.org/namespaces/inkscape"
   width="16.261433mm"
   height="17.366014mm"
   viewBox="0 0 57.61925 61.533122"
   id="svg4784"
   version="1.1"
   inkscape:version="0.91 r13725"
   sodipodi:docname="projecttemplates.svg">
  <defs
     id="defs4786" />
  <sodipodi:namedview
     id="base"
     pagecolor="#ffffff"
     bordercolor="#666666"
     borderopacity="1.0"
     inkscape:pageopacity="0.0"
     inkscape:pageshadow="2"
     inkscape:zoom="0.35"
     inkscape:cx="-679.04752"
     inkscape:cy="247.90942"
     inkscape:document-units="px"
     inkscape:current-layer="layer1"
     showgrid="false"
     fit-margin-top="0"
     fit-margin-left="0"
     fit-margin-right="0"
     fit-margin-bottom="0"
     inkscape:window-width="1867"
     inkscape:window-height="1056"
     inkscape:window-x="53"
     inkscape:window-y="24"
     inkscape:window-maximized="1" />
  <metadata
     id="metadata4789">
    <rdf:RDF>
      <cc:Work
         rdf:about="">
        <dc:format>image/svg+xml</dc:format>
        <dc:type
           rdf:resource="http://purl.org/dc/dcmitype/StillImage" />
        <dc:title></dc:title>
      </cc:Work>
    </rdf:RDF>
  </metadata>
  <g
     inkscape:label="Layer 1"
     inkscape:groupmode="layer"
     id="layer1"
     transform="translate(-559.76181,-718.7385)">
    <g
       transform="matrix(1.25,0,0,-1.25,186.77783,975.4156)"
       id="g4016">
      <path
         inkscape:connector-curvature="0"
         id="path228"
         style="fill:#7c818a;fill-opacity:1;fill-rule:nonzero;stroke:none"
         d="m 335.25818,199.16918 -19.453,0 0,2.127 19.453,0 0,-2.127 z" />
      <path
         inkscape:connector-curvature="0"
         id="path230"
         style="fill:#7c818a;fill-opacity:1;fill-rule:nonzero;stroke:none"
         d="m 300.51418,158.24218 25.51,0 0,37.35 -25.51,0 0,-37.35 z m 26.574,-2.127 -27.638,0 c -0.586,0 -1.063,0.477 -1.063,1.062 l 0,39.478 c 0,0.587 0.477,1.063 1.063,1.063 l 27.638,0 c 0.586,0 1.063,-0.476 1.063,-1.063 l 0,-39.478 c 0,-0.585 -0.477,-1.062 -1.063,-1.062" />
      <g
         transform="translate(307.13148,192.49698)"
         id="g232">
        <path
           inkscape:connector-curvature="0"
           id="path234"
           style="fill:#7c818a;fill-opacity:1;fill-rule:evenodd;stroke:none"
           d="M 0,0 1.566,-0.904 3.135,-1.809 1.398,-2.811 0.699,-2.407 0,-2.004 -0.699,-2.407 -1.4,-2.811 l 0,-0.808 0,-0.808 L -0.699,-4.83 0,-5.234 0.699,-4.83 1.398,-4.427 3.135,-5.429 1.566,-6.334 0,-7.238 l -1.568,0.904 -1.567,0.905 0,1.81 0,1.81 1.567,0.905 L 0,0 Z" />
      </g>
      <g
         transform="translate(327.08858,169.44918)"
         id="g236">
        <path
           inkscape:connector-curvature="0"
           id="path238"
           style="fill:#7c818a;fill-opacity:1;fill-rule:nonzero;stroke:none"
           d="m 0,0 c -0.109,0 -0.221,0.018 -0.33,0.053 l -4.502,1.466 c -0.438,0.142 -0.734,0.55 -0.734,1.01 l 0,9.876 c 0,0.46 0.296,0.868 0.734,1.011 l 4.502,1.466 C 0.23,15.063 0.828,14.758 1.01,14.2 1.191,13.642 0.887,13.042 0.328,12.86 l -3.767,-1.226 0,-8.333 3.767,-1.227 C 0.887,1.893 1.191,1.293 1.01,0.734 0.863,0.285 0.447,0 0,0" />
      </g>
      <path
         inkscape:connector-curvature="0"
         id="path240"
         style="fill:#7c818a;fill-opacity:1;fill-rule:nonzero;stroke:none"
         d="m 319.28818,187.81418 -7.635,0 0,2.127 7.635,0 0,-2.127 z" />
      <g
         transform="translate(316.66078,177.90028)"
         id="g242">
        <path
           inkscape:connector-curvature="0"
           id="path244"
           style="fill:#7c818a;fill-opacity:1;fill-rule:nonzero;stroke:none"
           d="m 0,0 -11.619,0 c -0.588,0 -1.065,0.477 -1.065,1.063 0,0.587 0.477,1.064 1.065,1.064 L 0,2.127 C 0.588,2.127 1.064,1.65 1.064,1.063 1.064,0.477 0.588,0 0,0" />
      </g>
      <path
         inkscape:connector-curvature="0"
         id="path246"
         style="fill:#7c818a;fill-opacity:1;fill-rule:nonzero;stroke:none"
         d="m 309.94418,173.12818 -5.967,0 0,2.127 5.967,0 0,-2.127 z" />
      <g
         transform="translate(304.68818,197.71868)"
         id="g248">
        <path
           inkscape:connector-curvature="0"
           id="path250"
           style="fill:#7c818a;fill-opacity:1;fill-rule:nonzero;stroke:none"
           d="m 0,0 6.066,0 0,2.568 L 0,0 Z m 7.129,-2.127 -12.367,0 c -0.506,0 -0.942,0.356 -1.041,0.852 -0.102,0.496 0.162,0.994 0.627,1.19 L 6.715,5.151 C 7.043,5.291 7.418,5.256 7.717,5.059 8.014,4.862 8.193,4.529 8.193,4.173 l 0,-5.236 c 0,-0.587 -0.476,-1.064 -1.064,-1.064" />
      </g>
      <g
         transform="translate(339.45578,205.34168)"
         id="g252">
        <path
           inkscape:connector-curvature="0"
           id="path254"
           style="fill:#7c818a;fill-opacity:1;fill-rule:nonzero;stroke:none"
           d="m 0,0 -27.639,0 c -0.586,0 -1.062,-0.477 -1.062,-1.063 l 0,-7.624 2.127,0 0,6.56 25.51,0 0,-37.351 -11.303,0 0,-2.126 12.367,0 c 0.586,0 1.062,0.476 1.062,1.063 l 0,39.478 C 1.062,-0.477 0.586,0 0,0" />
      </g>
      <g
         transform="translate(343.42058,201.10048)"
         id="g256">
        <path
           inkscape:connector-curvature="0"
           id="path258"
           style="fill:#7c818a;fill-opacity:1;fill-rule:nonzero;stroke:none"
           d="m 0,0 -3.965,0 0,-2.127 2.901,0 0,-37.351 -15.268,0 0,-2.126 16.332,0 c 0.586,0 1.062,0.476 1.062,1.063 l 0,39.478 C 1.062,-0.477 0.586,0 0,0" />
      </g>
      <path
         inkscape:connector-curvature="0"
         id="path260"
         style="fill:#7c818a;fill-opacity:1;fill-rule:nonzero;stroke:none"
         d="m 332.59418,180.95018 -5.506,0 0,-2.127 5.506,0 0,2.127 z" />
      <path
         inkscape:connector-curvature="0"
         id="path262"
         style="fill:#7c818a;fill-opacity:1;fill-rule:nonzero;stroke:none"
         d="m 327.08818,190.18918 4.385,0 0,2.127 -4.385,0 0,-2.127 z" />
      <path
         inkscape:connector-curvature="0"
         id="path264"
         style="fill:#7c818a;fill-opacity:1;fill-rule:nonzero;stroke:none"
         d="m 332.59418,188.52718 -5.506,0 0,-2.127 5.506,0 0,2.127 z" />
      <path
         inkscape:connector-curvature="0"
         id="path266"
         style="fill:#7c818a;fill-opacity:1;fill-rule:nonzero;stroke:none"
         d="m 327.08818,193.97818 5.506,0 0,2.127 -5.506,0 0,-2.127 z" />
      <path
         inkscape:connector-curvature="0"
         id="path268"
         style="fill:#7c818a;fill-opacity:1;fill-rule:nonzero;stroke:none"
         d="m 327.08818,175.03518 9.172,0 0,2.127 -9.172,0 0,-2.127 z" />
      <path
         inkscape:connector-curvature="0"
         id="path270"
         style="fill:#7c818a;fill-opacity:1;fill-rule:nonzero;stroke:none"
         d="m 327.08818,171.24618 5.506,0 0,2.127 -5.506,0 0,-2.127 z" />
      <path
         inkscape:connector-curvature="0"
         id="path272"
         style="fill:#7c818a;fill-opacity:1;fill-rule:nonzero;stroke:none"
         d="m 335.20418,184.73918 -8.115,0 0,-2.127 8.115,0 0,2.127 z" />
    </g>
  </g>
</svg>
