<?xml version="1.0" encoding="UTF-8" standalone="no"?>
<svg
   xmlns:dc="http://purl.org/dc/elements/1.1/"
   xmlns:cc="http://creativecommons.org/ns#"
   xmlns:rdf="http://www.w3.org/1999/02/22-rdf-syntax-ns#"
   xmlns:svg="http://www.w3.org/2000/svg"
   xmlns="http://www.w3.org/2000/svg"
   xmlns:sodipodi="http://sodipodi.sourceforge.net/DTD/sodipodi-0.dtd"
   xmlns:inkscape="http://www.inkscape.org/namespaces/inkscape"
   id="svg2"
   xml:space="preserve"
   height="22.990906"
   viewBox="0 0 17.990032 22.990671"
   width="17.990032"
   version="1.1"
   inkscape:version="0.91 r13725"
   sodipodi:docname="specifications.svg"><metadata
     id="metadata27"><rdf:RDF><cc:Work
         rdf:about=""><dc:format>image/svg+xml</dc:format><dc:type
           rdf:resource="http://purl.org/dc/dcmitype/StillImage" /><dc:title></dc:title></cc:Work></rdf:RDF></metadata><sodipodi:namedview
     pagecolor="#ffffff"
     bordercolor="#666666"
     borderopacity="1"
     objecttolerance="10"
     gridtolerance="10"
     guidetolerance="10"
     inkscape:pageopacity="0"
     inkscape:pageshadow="2"
     inkscape:window-width="1920"
     inkscape:window-height="1017"
     id="namedview25"
     showgrid="false"
     fit-margin-top="0"
     fit-margin-left="0"
     fit-margin-right="0"
     fit-margin-bottom="0"
     inkscape:zoom="6.4363052"
     inkscape:cx="9.04875"
     inkscape:cy="12.062062"
     inkscape:window-x="-8"
     inkscape:window-y="-8"
     inkscape:window-maximized="1"
     inkscape:current-layer="svg2" /><defs
     id="defs6"><clipPath
       id="clipPath24"
       clipPathUnits="userSpaceOnUse"><path
         id="path26"
         d="m 0,29.333 25,0 L 25,0 0,0 0,29.333 Z"
         inkscape:connector-curvature="0" /></clipPath></defs><g
     id="g10"
     transform="matrix(1.25,0,0,-1.25,-6.57625,29.262344)"><g
       id="g12"
       transform="translate(16.872,7.3333)"><path
         id="path14"
         d="m 0,0 0,-2.066 -11.361,0 0,15.616 2.531,0"
         stroke-miterlimit="10"
         inkscape:connector-curvature="0"
         style="fill:none;stroke:#6a707b;stroke-width:0.5;stroke-linecap:round;stroke-linejoin:round;stroke-miterlimit:10" /></g><g
       id="g16"
       transform="translate(19.403,20.607)"><path
         id="path18"
         d="m 0,0 0,-13.063 -11.361,0 0,15.616 8.892,0"
         stroke-miterlimit="10"
         inkscape:connector-curvature="0"
         style="fill:none;stroke:#6a707b;stroke-width:0.5;stroke-linecap:round;stroke-linejoin:round;stroke-miterlimit:10" /></g><g
       id="g20"><g
         id="g22"
         clip-path="url(#clipPath24)"><g
           id="g28"
           transform="translate(14.515,20.949)"><path
             id="path30"
             d="m 0,0 c -0.091,0.049 -0.212,0.013 -0.268,-0.052 l -0.41,-0.505 c -0.263,0.037 -0.527,0.035 -0.784,-0.008 l -0.418,0.497 c -0.063,0.076 -0.185,0.098 -0.271,0.047 l -0.993,-0.568 c -0.085,-0.05 -0.127,-0.164 -0.092,-0.257 l 0.215,-0.605 c -0.103,-0.124 -0.2,-0.257 -0.281,-0.404 -0.08,-0.146 -0.139,-0.298 -0.189,-0.452 L -4.117,-2.449 C -4.215,-2.47 -4.29,-2.568 -4.285,-2.667 L -4.232,-3.81 C -4.228,-3.909 -4.145,-4 -4.046,-4.012 L -3.403,-4.1 c 0.101,-0.239 0.242,-0.462 0.415,-0.663 l -0.207,-0.618 c -0.032,-0.094 0.012,-0.207 0.099,-0.256 l 1.002,-0.55 c 0.087,-0.049 0.208,-0.025 0.271,0.053 l 0.41,0.506 c 0.263,-0.039 0.526,-0.038 0.783,0.005 l 0.418,-0.495 c 0.065,-0.075 0.184,-0.097 0.27,-0.048 l 0.992,0.568 c 0.087,0.049 0.129,0.164 0.096,0.258 l -0.214,0.607 c 0.101,0.124 0.196,0.256 0.276,0.401 0.079,0.145 0.141,0.297 0.191,0.451 l 0.627,0.144 c 0.096,0.023 0.169,0.119 0.165,0.217 l -0.052,1.143 c -0.004,0.099 -0.086,0.189 -0.184,0.203 l -0.643,0.086 c -0.103,0.24 -0.242,0.463 -0.415,0.665 l 0.207,0.618 C 1.135,-0.71 1.09,-0.598 1.002,-0.55 L 0,0 Z"
             stroke-miterlimit="10"
             inkscape:connector-curvature="0"
             style="fill:none;stroke:#6a707b;stroke-width:0.5;stroke-linecap:round;stroke-linejoin:round;stroke-miterlimit:10" /></g><g
           id="g32"
           transform="translate(13.964,18.757)"><path
             id="path34"
             d="m 0,0 c 0.5,-0.275 0.681,-0.896 0.406,-1.396 -0.274,-0.5 -0.896,-0.682 -1.396,-0.407 -0.5,0.275 -0.681,0.897 -0.406,1.397 C -1.122,0.094 -0.5,0.274 0,0 Z"
             stroke-miterlimit="10"
             inkscape:connector-curvature="0"
             style="fill:none;stroke:#6a707b;stroke-width:0.5;stroke-linecap:round;stroke-linejoin:round;stroke-miterlimit:10" /></g><g
           id="g36"
           transform="translate(10.361,12.38)"><path
             id="path38"
             d="M 0,0 6.723,0"
             stroke-miterlimit="10"
             inkscape:connector-curvature="0"
             style="fill:none;stroke:#6a707b;stroke-width:0.5;stroke-linecap:round;stroke-linejoin:round;stroke-miterlimit:10" /></g><g
           id="g40"
           transform="translate(10.361,10.912)"><path
             id="path42"
             d="M 0,0 6.723,0"
             stroke-miterlimit="10"
             inkscape:connector-curvature="0"
             style="fill:none;stroke:#6a707b;stroke-width:0.5;stroke-linecap:round;stroke-linejoin:round;stroke-miterlimit:10" /></g><g
           id="g44"
           transform="translate(10.361,9.4866)"><path
             id="path46"
             d="M 0,0 4.92,0"
             stroke-miterlimit="10"
             inkscape:connector-curvature="0"
             style="fill:none;stroke:#6a707b;stroke-width:0.5;stroke-linecap:round;stroke-linejoin:round;stroke-miterlimit:10" /></g><g
           id="g48"
           transform="translate(16.934,23.16)"><path
             id="path50"
             d="m 0,0 0,-2.553 2.469,0 L 0,0 Z"
             stroke-miterlimit="10"
             inkscape:connector-curvature="0"
             style="fill:none;stroke:#6a707b;stroke-width:0.5;stroke-linecap:round;stroke-linejoin:round;stroke-miterlimit:10" /></g></g></g></g></svg>