<?xml version="1.0" encoding="UTF-8" standalone="no"?>
<!-- Created with Inkscape (http://www.inkscape.org/) -->

<svg
   xmlns:dc="http://purl.org/dc/elements/1.1/"
   xmlns:cc="http://creativecommons.org/ns#"
   xmlns:rdf="http://www.w3.org/1999/02/22-rdf-syntax-ns#"
   xmlns:svg="http://www.w3.org/2000/svg"
   xmlns="http://www.w3.org/2000/svg"
   xmlns:sodipodi="http://sodipodi.sourceforge.net/DTD/sodipodi-0.dtd"
   xmlns:inkscape="http://www.inkscape.org/namespaces/inkscape"
   width="20.806833mm"
   height="13.786555mm"
   viewBox="0 0 73.725 48.849999"
   id="svg4336"
   version="1.1"
   inkscape:version="0.91 r13725"
   sodipodi:docname="webbased.svg">
  <defs
     id="defs4338" />
  <sodipodi:namedview
     id="base"
     pagecolor="#ffffff"
     bordercolor="#666666"
     borderopacity="1.0"
     inkscape:pageopacity="0.0"
     inkscape:pageshadow="2"
     inkscape:zoom="2.8"
     inkscape:cx="-61.275137"
     inkscape:cy="-19.205069"
     inkscape:document-units="px"
     inkscape:current-layer="layer1"
     showgrid="false"
     fit-margin-top="0"
     fit-margin-left="0"
     fit-margin-right="0"
     fit-margin-bottom="0"
     inkscape:window-width="1867"
     inkscape:window-height="1056"
     inkscape:window-x="53"
     inkscape:window-y="24"
     inkscape:window-maximized="1" />
  <metadata
     id="metadata4341">
    <rdf:RDF>
      <cc:Work
         rdf:about="">
        <dc:format>image/svg+xml</dc:format>
        <dc:type
           rdf:resource="http://purl.org/dc/dcmitype/StillImage" />
        <dc:title></dc:title>
      </cc:Work>
    </rdf:RDF>
  </metadata>
  <g
     inkscape:label="Layer 1"
     inkscape:groupmode="layer"
     id="layer1"
     transform="translate(-508.85178,-510.79435)">
    <g
       transform="matrix(1.25,0,0,-1.25,233.74907,961.12475)"
       id="g4146">
      <path
         inkscape:connector-curvature="0"
         id="path98"
         style="fill:#7c818a;fill-opacity:1;fill-rule:nonzero;stroke:none"
         d="m 222.20817,323.31032 54.727,0 0,34.829 -54.727,0 0,-34.829 z m 55.79,-2.126 -56.853,0 c -0.587,0 -1.063,0.476 -1.063,1.062 l 0,36.955 c 0,0.587 0.476,1.063 1.063,1.063 l 56.853,0 c 0.587,0 1.064,-0.476 1.064,-1.063 l 0,-36.955 c 0,-0.586 -0.477,-1.062 -1.064,-1.062" />
      <path
         inkscape:connector-curvature="0"
         id="path100"
         style="fill:#7c818a;fill-opacity:1;fill-rule:nonzero;stroke:none"
         d="m 222.20817,354.50732 54.727,0 0,3.632 -54.727,0 0,-3.632 z m 55.79,-2.126 -56.853,0 c -0.587,0 -1.063,0.477 -1.063,1.063 l 0,5.757 c 0,0.587 0.476,1.063 1.063,1.063 l 56.853,0 c 0.587,0 1.064,-0.476 1.064,-1.063 l 0,-5.757 c 0,-0.586 -0.477,-1.063 -1.064,-1.063" />
      <g
         transform="translate(225.32737,354.84422)"
         id="g102">
        <path
           inkscape:connector-curvature="0"
           id="path104"
           style="fill:#7c818a;fill-opacity:1;fill-rule:evenodd;stroke:none"
           d="M 0,0 C 0.742,0 1.347,0.604 1.347,1.347 1.347,2.088 0.742,2.693 0,2.693 -0.742,2.693 -1.347,2.088 -1.347,1.347 -1.347,0.604 -0.742,0 0,0" />
      </g>
      <g
         transform="translate(229.78047,354.84422)"
         id="g106">
        <path
           inkscape:connector-curvature="0"
           id="path108"
           style="fill:#7c818a;fill-opacity:1;fill-rule:evenodd;stroke:none"
           d="M 0,0 C 0.742,0 1.347,0.604 1.347,1.347 1.347,2.088 0.742,2.693 0,2.693 -0.742,2.693 -1.347,2.088 -1.347,1.347 -1.347,0.604 -0.742,0 0,0" />
      </g>
      <g
         transform="translate(234.23357,354.84422)"
         id="g110">
        <path
           inkscape:connector-curvature="0"
           id="path112"
           style="fill:#7c818a;fill-opacity:1;fill-rule:evenodd;stroke:none"
           d="M 0,0 C 0.742,0 1.347,0.604 1.347,1.347 1.347,2.088 0.742,2.693 0,2.693 -0.742,2.693 -1.347,2.088 -1.347,1.347 -1.347,0.604 -0.742,0 0,0" />
      </g>
      <path
         inkscape:connector-curvature="0"
         id="path114"
         style="fill:#7c818a;fill-opacity:1;fill-rule:nonzero;stroke:none"
         d="m 226.67917,344.73832 9.002,0 0,2.422 -9.002,0 0,-2.422 z m 11.128,-2.126 -13.253,0 0,6.675 13.253,0 0,-6.675 z" />
      <path
         inkscape:connector-curvature="0"
         id="path116"
         style="fill:#7c818a;fill-opacity:1;fill-rule:nonzero;stroke:none"
         d="m 226.67917,328.78132 9.002,0 0,2.422 -9.002,0 0,-2.422 z m 11.128,-2.127 -13.253,0 0,6.675 13.253,0 0,-6.675 z" />
      <path
         inkscape:connector-curvature="0"
         id="path118"
         style="fill:#7c818a;fill-opacity:1;fill-rule:nonzero;stroke:none"
         d="m 232.24317,331.20332 -2.126,0 0,13.534 2.126,0 0,-13.534 z" />
      <g
         transform="translate(231.18037,334.98092)"
         id="g120">
        <path
           inkscape:connector-curvature="0"
           id="path122"
           style="fill:#7c818a;fill-opacity:1;fill-rule:evenodd;stroke:none"
           d="m 0,0 -1.605,2.461 -1.606,2.46 3.211,0 3.211,0 L 1.605,2.461 0,0 Z" />
      </g>
      <path
         inkscape:connector-curvature="0"
         id="path124"
         style="fill:#7c818a;fill-opacity:1;fill-rule:nonzero;stroke:none"
         d="m 244.18717,344.73832 9.002,0 0,2.422 -9.002,0 0,-2.422 z m 11.127,-2.126 -13.254,0 0,6.675 13.254,0 0,-6.675 z" />
      <path
         inkscape:connector-curvature="0"
         id="path126"
         style="fill:#7c818a;fill-opacity:1;fill-rule:nonzero;stroke:none"
         d="m 244.18717,328.78132 9.002,0 0,2.422 -9.002,0 0,-2.422 z m 11.127,-2.127 -13.254,0 0,6.675 13.254,0 0,-6.675 z" />
      <path
         inkscape:connector-curvature="0"
         id="path128"
         style="fill:#7c818a;fill-opacity:1;fill-rule:nonzero;stroke:none"
         d="m 249.75117,331.20332 -2.127,0 0,13.534 2.127,0 0,-13.534 z" />
      <g
         transform="translate(248.68767,334.98092)"
         id="g130">
        <path
           inkscape:connector-curvature="0"
           id="path132"
           style="fill:#7c818a;fill-opacity:1;fill-rule:evenodd;stroke:none"
           d="m 0,0 -1.606,2.461 -1.606,2.46 3.212,0 3.212,0 L 1.605,2.461 0,0 Z" />
      </g>
      <path
         inkscape:connector-curvature="0"
         id="path134"
         style="fill:#7c818a;fill-opacity:1;fill-rule:nonzero;stroke:none"
         d="m 261.69417,344.73832 9.002,0 0,2.422 -9.002,0 0,-2.422 z m 11.128,-2.126 -13.255,0 0,6.675 13.255,0 0,-6.675 z" />
      <path
         inkscape:connector-curvature="0"
         id="path136"
         style="fill:#7c818a;fill-opacity:1;fill-rule:nonzero;stroke:none"
         d="m 261.69417,328.78132 9.002,0 0,2.422 -9.002,0 0,-2.422 z m 11.128,-2.127 -13.255,0 0,6.675 13.255,0 0,-6.675 z" />
      <path
         inkscape:connector-curvature="0"
         id="path138"
         style="fill:#7c818a;fill-opacity:1;fill-rule:nonzero;stroke:none"
         d="m 267.25917,331.20332 -2.127,0 0,13.534 2.127,0 0,-13.534 z" />
      <g
         transform="translate(266.19547,334.98092)"
         id="g140">
        <path
           inkscape:connector-curvature="0"
           id="path142"
           style="fill:#7c818a;fill-opacity:1;fill-rule:evenodd;stroke:none"
           d="m 0,0 -1.606,2.461 -1.606,2.46 3.212,0 3.212,0 L 1.605,2.461 0,0 Z" />
      </g>
    </g>
  </g>
</svg>
