<svg xmlns="http://www.w3.org/2000/svg" width="26" height="32"><path fill="#324D5B" d="M2 0v32h-2v-32h2z"/><path fill="#C8C8C8" d="M14 5.001h12v18h-12v-18z"/><path fill="#2B424D" d="M17 8v3h3v-3h-3zm9 3v-3h-3v3h3zm0 6v-3h-3v3h3zm-9-3v3h3v-3h-3zm9 9v-3h-3v3h3zm-9 0h3v-3h-3v3zm6-18h-3v3h3v-3zm-3 6v3h3v-3h-3zm0 9h3v-3h-3v3z"/><path fill="#969696" d="M14 20h3l-3 3.001v-3.001z"/><path fill="#EBEBEB" d="M2 2h15v18h-15v-18z"/><path fill="#324D5B" d="M2 5v3h3v-3h-3zm9 3v-3h-3v3h3zm6 0v-3h-3v3h3zm0 6v-3h-3v3h3zm-9 0h3v-3h-3v3zm-6-3v3h3v-3h-3zm15 9v-3h-3v3h3zm-9 0h3v-3h-3v3zm-6 0h3v-3h-3v3zm6-18h-3v3h3v-3zm6 0h-3v3h3v-3zm-3 6v3h3v-3h-3zm-3 0h-3v3h3v-3zm3 9h3v-3h-3v3zm-6-3v3h3v-3h-3z"/></svg>