<svg xmlns="http://www.w3.org/2000/svg" width="32.031" height="32.006"><path fill="#E4E7E7" d="M2.015.003h28c1.104 0 2 .895 2 2v28c0 1.104-.896 2-2 2h-28c-1.104 0-2-.896-2-2v-28c0-1.105.896-2 2-2z"/><path fill="#BF392C" d="M4.515 3.003c.829 0 1.5.671 1.5 1.5s-.671 1.5-1.5 1.5c-.828 0-1.5-.672-1.5-1.5 0-.829.672-1.5 1.5-1.5z"/><path fill="#E37948" d="M9.515 3.003c.829 0 1.5.671 1.5 1.5s-.671 1.5-1.5 1.5c-.828 0-1.5-.672-1.5-1.5 0-.829.672-1.5 1.5-1.5z"/><path fill="#3DB39E" d="M14.515 3.003c.829 0 1.5.671 1.5 1.5s-.671 1.5-1.5 1.5c-.828 0-1.5-.672-1.5-1.5 0-.829.672-1.5 1.5-1.5z"/><path fill="#fff" d="M3.015 9.003h26v20h-26v-20z"/><path fill="#CCD0D2" d="M18.015 12.003v8h8v-8h-8zm-2 0h-10v3h10v-3zm0 5h-10v3h10v-3zm-10 9h20v-4h-20v4z"/></svg>