<svg xmlns="http://www.w3.org/2000/svg" width="32" height="29"><path fill="#2494BC" d="M31.984 4c0-2.485-1.983-4-4.469-4h-1c-.828 0-1.5.672-1.5 1.5 0 .829.672 1.5 1.5 1.5h.5c1.104 0 2 .896 2 2v18h3l-.051-18c.018-.166.02-.828.02-1z"/><path fill="#2494BC" d="M.047 4c0-2.485 1.983-4 4.469-4h1c.828 0 1.5.672 1.5 1.5 0 .829-.672 1.5-1.5 1.5h-.5c-1.104 0-2 .896-2 2v18h-3l.051-18c-.019-.166-.02-.828-.02-1z"/><path fill="#26A6D1" d="M27.016 15h-5c-2.502 0-4.556 1.842-4.925 4.239-.312-.149-.679-.239-1.076-.239s-.766.09-1.076.239c-.369-2.397-2.423-4.239-4.924-4.239h-5c-2.762 0-5 2.238-5 5v4c0 2.763 2.238 5 5 5h5c2.762 0 5-2.237 5-5v-1.778c.296-.133.63-.222 1-.222.369 0 .704.089 1 .222v1.778c0 2.763 2.237 5 5 5h5c2.762 0 5-2.237 5-5v-4c.001-2.762-2.238-5-4.999-5zm-15.001 9c0 1.104-.896 2-2 2h-5c-1.104 0-2-.896-2-2v-4c0-1.104.896-2 2-2h5c1.104 0 2 .896 2 2v4zm17.001 0c0 1.104-.896 2-2 2h-5c-1.104 0-2-.896-2-2v-4c0-1.104.896-2 2-2h5c1.104 0 2 .896 2 2v4z"/></svg>