<?xml version="1.0" encoding="utf-8"?>
<!-- Generator: Adobe Illustrator 16.2.1, SVG Export Plug-In . SVG Version: 6.00 Build 0)  -->
<!DOCTYPE svg PUBLIC "-//W3C//DTD SVG 1.1//EN" "http://www.w3.org/Graphics/SVG/1.1/DTD/svg11.dtd">
<svg version="1.1" id="Слой_1" xmlns="http://www.w3.org/2000/svg" xmlns:xlink="http://www.w3.org/1999/xlink" x="0px" y="0px"
	 width="31.965px" height="32px" viewBox="0 0 31.965 32" enable-background="new 0 0 31.965 32" xml:space="preserve">
<path fill="#26A6D1" d="M30.973,6.287l-5.338-4.642c0,0-1.494-1.645-2.658-1.645H8.99C7.826,0,6.332,1.645,6.332,1.645L0.995,6.287
	c-0.95,0.552-1.276,1.775-0.728,2.731l2.986,5.465c0.549,0.956,1.768,0.1,2.731-0.482V29c0,1.748,1.321,3,3,3h14c1.68,0,3-1.252,3-3
	V14.001c0.965,0.582,2.18,1.438,2.729,0.482l2.986-5.465C32.249,8.062,31.922,6.838,30.973,6.287z"/>
<path fill="#46B3D8" d="M15.985,9c0.83,0,6-4.926,6-5.715V0.429c0-0.15-0.03-0.292-0.075-0.429H10.062
	c-0.045,0.137-0.076,0.279-0.076,0.429v2.856C9.985,4.075,15.156,9,15.985,9z"/>
<path fill="#208EB2" d="M12.985,0h6c0.553,0,1,0.447,1,1v2c0,0.553-3.447,4-4,4l0,0c-0.552,0-4-3.447-4-4V1
	C11.985,0.448,12.434,0,12.985,0z"/>
<path fill="#EFC75E" d="M18.884,12h-5.799c-1.16,0-2.101,0.94-2.101,2.1v0.03c0,0.558,0.222,1.091,0.615,1.485l2.77,2.77
	C14.764,18.779,15.298,19,15.854,19h0.26c0.557,0,1.092-0.223,1.486-0.615l2.77-2.77c0.395-0.395,0.615-0.928,0.615-1.485V14.1
	C20.985,12.941,20.044,12,18.884,12z"/>
<path fill="#CC6039" d="M13.987,16.756c0.353,0.141,1.048,0.248,1.685,0.248c1.559,0,2.312-0.519,2.312-1.117
	c0-0.571-0.568-0.889-1.687-1.143c-0.91-0.207-1.312-0.386-1.312-0.749c0-0.265,0.343-0.582,1.244-0.582
	c0.598,0,1.04,0.115,1.254,0.185l0.234-0.41c-0.294-0.098-0.783-0.189-1.46-0.189c-1.283,0-2.136,0.449-2.136,1.055
	c0,0.548,0.667,0.877,1.744,1.102c0.892,0.201,1.244,0.409,1.244,0.772c0,0.392-0.51,0.662-1.382,0.662
	c-0.588,0-1.146-0.114-1.527-0.253L13.987,16.756z"/>
<g>
	<g>
		<path fill="#2295BC" d="M5.985,14c0.552,0,1-0.447,1-1V9h-1V14z M24.985,9v4c0,0.553,0.449,1,1,1V9H24.985z"/>
	</g>
</g>
</svg>
