<?xml version="1.0" encoding="utf-8"?>
<!-- Generator: Adobe Illustrator 16.2.1, SVG Export Plug-In . SVG Version: 6.00 Build 0)  -->
<!DOCTYPE svg PUBLIC "-//W3C//DTD SVG 1.1//EN" "http://www.w3.org/Graphics/SVG/1.1/DTD/svg11.dtd">
<svg version="1.1" id="Слой_1" xmlns="http://www.w3.org/2000/svg" xmlns:xlink="http://www.w3.org/1999/xlink" x="0px" y="0px"
	 width="28px" height="32px" viewBox="0 0 28 32" enable-background="new 0 0 28 32" xml:space="preserve">
<path fill="#E2574C" d="M2,3h24c1.104,0,2,0.896,2,2v25c0,1.104-0.896,2-2,2H2c-1.104,0-2-0.896-2-2V5C0,3.896,0.896,3,2,3z"/>
<path fill="#BF392C" d="M13,7h2v25h-2V7z"/>
<g>
	<g>
		<path fill="#F1ABA6" d="M10,14c0.553,0,1-0.447,1-1s-0.447-1-1-1s-1,0.447-1,1S9.447,14,10,14z M10,16c-0.553,0-1,0.447-1,1
			s0.447,1,1,1s1-0.447,1-1S10.553,16,10,16z M10,20c-0.553,0-1,0.447-1,1s0.447,1,1,1s1-0.447,1-1S10.553,20,10,20z M10,24
			c-0.553,0-1,0.447-1,1s0.447,1,1,1s1-0.447,1-1S10.553,24,10,24z"/>
	</g>
</g>
<path fill="#F1ABA6" d="M18,14h7v2h-7V14z"/>
<path fill="#A63124" d="M7,0h14c0.553,0,1,0.447,1,1v6c0,0.553-0.447,1-1,1H7C6.447,8,6,7.553,6,7V1C6,0.447,6.447,0,7,0z"/>
<path fill="#CB4E44" d="M26,30H2c-1.104,0-2-0.896-2-2v2c0,1.104,0.896,2,2,2h24c1.104,0,2-0.896,2-2v-2C28,29.104,27.104,30,26,30z
	"/>
<rect x="13" y="30" fill="#AC3327" width="2" height="2"/>
<path fill="#EB8A82" d="M6,1v6c0,0.553,0.447,1,1,1h7L6.293,0.293C6.111,0.474,6,0.724,6,1z"/>
<path fill="#EB8A82" d="M14,8h7c0.553,0,1-0.447,1-1V1c0-0.276-0.111-0.526-0.293-0.707L14,8z"/>
<polygon fill="#C85D53" points="14,8 13,7 13,8 "/>
<polygon fill="#C85D53" points="15,8 15,7 14,8 "/>
</svg>
