<svg xmlns="http://www.w3.org/2000/svg" xmlns:xlink="http://www.w3.org/1999/xlink" width="140.027mm" height="153.613mm" viewBox="0 0 496.16015 544.29886"><g><g transform="translate(-119.798 -255.965) translate(108.494 447.944)"><g><defs><path d="M82.673 74.588c0 8.833-4.611 16.59-11.558 20.993h-26.555c-6.947-4.403-11.559-12.16-11.559-20.993 0-13.717 11.12-24.836 24.836-24.836 13.717 0 24.836 11.12 24.836 24.836" id="a"/></defs><clipPath id="b"><use overflow="visible" xlink:href="#a" width="100%" height="100%"/></clipPath><path d="M109.759 109.416c-6.529 1.178-8.787-7.065-14.917-8.57-5.58-1.37-9.381.507-15.118-2.465-4.085-2.118-10.08-6.611-11.386-10.821-.606-1.951.56-3.602.135-5.502-.684-3.058-3.433-5.672-4.094-8.671-2.591-11.738 11.786-10.991 20.728-6.456 4.763 2.416 9.772 6.168 13.188 1.868 3.28-4.129 2.754-9.52 9.084-11.613 9.447-3.123 24.893 6.716 30.776 14.354 1.441 1.872 2.016 4.067 3.485 5.906 1.958 2.449 4.79 3.164 6.804 5.287 3.343 3.524 4.533 8.317 4.309 12.365-.372 6.728-9.061 24.397-19.984 19.086-4.511-2.193-4.558-8.096-10.808-6.575-1.138.277-2.044 1.92-3.488 2.303-2.772.736-5.84-1.014-8.714-.496" clip-path="url(#b)" fill="#7675dc"/><path d="M109.759 109.416c-6.529 1.178-8.787-7.065-14.917-8.57-5.58-1.37-9.381.507-15.118-2.465-4.085-2.118-10.08-6.611-11.386-10.821-.606-1.951.56-3.602.135-5.502-.684-3.058-3.433-5.672-4.094-8.671-2.591-11.738 11.786-10.991 20.728-6.456 4.763 2.416 9.772 6.168 13.188 1.868 3.28-4.129 2.754-9.52 9.084-11.613 9.447-3.123 24.893 6.716 30.776 14.354 1.441 1.872 2.016 4.067 3.485 5.906 1.958 2.449 4.79 3.164 6.804 5.287 3.343 3.524 4.533 8.317 4.309 12.365-.372 6.728-9.061 24.397-19.984 19.086-4.511-2.193-4.558-8.096-10.808-6.575-1.138.277-2.044 1.92-3.488 2.303-2.772.736-5.84-1.014-8.714-.496z" stroke-miterlimit="10" clip-path="url(#b)" stroke="#6a6ace" stroke-width="2" fill="none"/></g><g><path d="M317.276 207.497c4.097-.759 8.175-1.878 12.189-3.368l-3.482-9.374c-21.463 7.972-45.077 3.692-60.167-10.902l-6.951 7.188c14.983 14.489 36.931 20.435 58.411 16.456z" stroke-miterlimit="10" fill="#8c99a8" stroke="#535b6b" stroke-width="2"/><path d="M259.513 187.351c14.944 13.725 36.339 19.291 57.293 15.41 3.026-.56 6.042-1.319 9.027-2.277l1.176 3.163c-4.013 1.492-8.092 2.61-12.189 3.369-21.479 3.979-43.428-1.967-58.411-16.455l3.104-3.21z" opacity=".5" fill="#535b6b"/><path stroke-miterlimit="10" stroke="#535b6b" stroke-width="2" stroke-linejoin="round" fill="none" d="M309.413 198.06l.861 10.187"/><path stroke-miterlimit="10" stroke="#535b6b" stroke-width="2" stroke-linejoin="round" fill="none" d="M303.396 198.747l-.223 10.222"/><path stroke-miterlimit="10" stroke="#535b6b" stroke-width="2" stroke-linejoin="round" fill="none" d="M296.667 198.136l-1.354 10.134"/><path stroke-miterlimit="10" stroke="#535b6b" stroke-width="2" stroke-linejoin="round" fill="none" d="M290.181 196.859l-2.464 9.923"/><path stroke-miterlimit="10" stroke="#535b6b" stroke-width="2" stroke-linejoin="round" fill="none" d="M284.157 194.912l-3.701 9.532"/><path stroke-miterlimit="10" stroke="#535b6b" stroke-width="2" stroke-linejoin="round" fill="none" d="M277.763 191.719l-3.701 9.532"/><g><path d="M342.367 204.568c-.047.005-2.334.244-5.597.365-.655.025-1.003-.308-.822-.754.181-.445.817-.882 1.466-.966 4.378-.584 7.865-1.382 8.146-1.45 1.458-.341 2.364-1.797 2.024-3.259-.338-1.456-1.798-2.364-3.256-2.024-.061.015-3.027.696-6.817 1.244-.647.093-1.254-.147-1.387-.516-.128-.369.253-.805.878-.993 3.523-1.056 5.981-1.951 6.175-2.021 1.406-.515 2.131-2.07 1.615-3.479-.513-1.406-2.07-2.13-3.479-1.617-.054.02-3.583 1.301-8.236 2.599-.63.176-1.339.189-1.588.056-.248-.137-.124-.651.27-1.171 1.326-1.741 2.122-3.005 2.198-3.13.794-1.27.402-2.939-.864-3.734-1.271-.795-2.94-.408-3.735.859-.019.029-.816 1.291-2.139 3.006-1.353 1.75-3.132 3.098-5.088 4.136-3.618 1.919-5.801 5.974-5.141 10.252.751 4.864 4.924 8.345 9.695 8.383 1.081.012 2.163-.021 3.243.02 6.716.249 12.694-.376 13.015-.412 1.49-.159 2.567-1.495 2.408-2.983-.157-1.491-1.494-2.571-2.984-2.411" fill="#fff"/><path d="M342.367 204.568c-.047.005-2.334.244-5.597.365-.655.025-1.003-.308-.822-.754.181-.445.817-.882 1.466-.966 4.378-.584 7.865-1.382 8.146-1.45 1.458-.341 2.364-1.797 2.024-3.259-.338-1.456-1.798-2.364-3.256-2.024-.061.015-3.027.696-6.817 1.244-.647.093-1.254-.147-1.387-.516-.128-.369.253-.805.878-.993 3.523-1.056 5.981-1.951 6.175-2.021 1.406-.515 2.131-2.07 1.615-3.479-.513-1.406-2.07-2.13-3.479-1.617-.054.02-3.583 1.301-8.236 2.599-.63.176-1.339.189-1.588.056-.248-.137-.124-.651.27-1.171 1.326-1.741 2.122-3.005 2.198-3.13.794-1.27.402-2.939-.864-3.734-1.271-.795-2.94-.408-3.735.859-.019.029-.816 1.291-2.139 3.006-1.353 1.75-3.132 3.098-5.088 4.136-3.618 1.919-5.801 5.974-5.141 10.252.751 4.864 4.924 8.345 9.695 8.383 1.081.012 2.163-.021 3.243.02 6.716.249 12.694-.376 13.015-.412 1.49-.159 2.567-1.495 2.408-2.983-.157-1.491-1.494-2.571-2.984-2.411z" stroke-miterlimit="10" stroke="#535b6b" stroke-width="2" stroke-linejoin="round" fill="none"/><path d="M316.372 208.971l-.083-.321-2.488-12.093c-.345-1.673.732-3.304 2.402-3.649 1.668-.342 3.302.745 3.645 2.402l2.49 12.096c.344 1.67-.731 3.303-2.402 3.646-1.559.323-3.09-.598-3.564-2.081" fill="#fff"/><path d="M316.372 208.971l-.083-.321-2.488-12.093c-.345-1.673.732-3.304 2.402-3.649 1.668-.342 3.302.745 3.645 2.402l2.49 12.096c.344 1.67-.731 3.303-2.402 3.646-1.559.323-3.09-.598-3.564-2.081z" stroke-miterlimit="10" stroke="#535b6b" stroke-width="2" stroke-linejoin="round" fill="none"/></g></g><g><path d="M132.68 217.635c-4.145-.435-8.298-1.229-12.416-2.4l2.734-9.618c22.022 6.26 45.227.137 59.123-15.598l7.495 6.619c-13.796 15.622-35.209 23.274-56.936 20.997z" stroke-miterlimit="10" fill="#8c99a8" stroke="#535b6b" stroke-width="2"/><path d="M188.681 193.01c-13.819 14.856-34.71 22.088-55.904 19.866-3.061-.32-6.127-.842-9.179-1.561l-.923 3.246c4.118 1.171 8.271 1.966 12.416 2.399 21.727 2.278 43.14-5.374 56.937-20.996l-3.347-2.954z" opacity=".5" fill="#535b6b"/><path stroke-miterlimit="10" stroke="#535b6b" stroke-width="2" stroke-linejoin="round" fill="none" d="M139.777 207.608l-.057 10.223"/><path stroke-miterlimit="10" stroke="#535b6b" stroke-width="2" stroke-linejoin="round" fill="none" d="M145.828 207.82l1.026 10.172"/><path stroke-miterlimit="10" stroke="#535b6b" stroke-width="2" stroke-linejoin="round" fill="none" d="M152.489 206.682l2.147 9.997"/><path stroke-miterlimit="10" stroke="#535b6b" stroke-width="2" stroke-linejoin="round" fill="none" d="M158.855 204.899l3.237 9.7"/><path stroke-miterlimit="10" stroke="#535b6b" stroke-width="2" stroke-linejoin="round" fill="none" d="M164.707 202.485l4.439 9.212"/><path stroke-miterlimit="10" stroke="#535b6b" stroke-width="2" stroke-linejoin="round" fill="none" d="M170.831 198.799l4.439 9.212"/><path stroke-miterlimit="10" stroke="#535b6b" stroke-width="2" stroke-linejoin="round" fill="none" d="M175.609 196.056l4.439 9.211"/><g><path d="M107.437 216.688c.047.001 2.347.06 5.608-.076.655-.026.975-.386.76-.816-.214-.429-.884-.814-1.537-.848-4.41-.237-7.95-.76-8.235-.805-1.481-.225-2.499-1.606-2.275-3.09.223-1.479 1.606-2.499 3.087-2.274.062.01 3.073.457 6.894.705.652.041 1.238-.246 1.341-.624.1-.377-.314-.782-.952-.921-3.596-.775-6.116-1.475-6.315-1.529-1.442-.401-2.287-1.896-1.883-3.342.4-1.442 1.897-2.286 3.34-1.884.055.015 3.674 1.016 8.416 1.943.642.125 1.35.084 1.588-.069.236-.157.073-.659-.362-1.146-1.457-1.632-2.351-2.83-2.437-2.947-.891-1.204-.632-2.899.568-3.791 1.204-.894 2.899-.639 3.792.563.02.027.916 1.223 2.368 2.829 1.486 1.639 3.366 2.843 5.396 3.724 3.758 1.628 6.254 5.499 5.932 9.815-.367 4.908-4.253 8.706-9.006 9.118-1.077.097-2.158.15-3.232.276-6.675.774-12.685.622-13.006.612-1.498-.042-2.678-1.29-2.637-2.786.04-1.499 1.288-2.68 2.787-2.637" fill="#fff"/><path d="M107.437 216.688c.047.001 2.347.06 5.608-.076.655-.026.975-.386.76-.816-.214-.429-.884-.814-1.537-.848-4.41-.237-7.95-.76-8.235-.805-1.481-.225-2.499-1.606-2.275-3.09.223-1.479 1.606-2.499 3.087-2.274.062.01 3.073.457 6.894.705.652.041 1.238-.246 1.341-.624.1-.377-.314-.782-.952-.921-3.596-.775-6.116-1.475-6.315-1.529-1.442-.401-2.287-1.896-1.883-3.342.4-1.442 1.897-2.286 3.34-1.884.055.015 3.674 1.016 8.416 1.943.642.125 1.35.084 1.588-.069.236-.157.073-.659-.362-1.146-1.457-1.632-2.351-2.83-2.437-2.947-.891-1.204-.632-2.899.568-3.791 1.204-.894 2.899-.639 3.792.563.02.027.916 1.223 2.368 2.829 1.486 1.639 3.366 2.843 5.396 3.724 3.758 1.628 6.254 5.499 5.932 9.815-.367 4.908-4.253 8.706-9.006 9.118-1.077.097-2.158.15-3.232.276-6.675.774-12.685.622-13.006.612-1.498-.042-2.678-1.29-2.637-2.786.04-1.499 1.288-2.68 2.787-2.637z" stroke-miterlimit="10" stroke="#535b6b" stroke-width="2" stroke-linejoin="round" fill="none"/><path d="M133.696 219.032l.058-.326 1.53-12.251c.212-1.695-.989-3.236-2.681-3.45-1.689-.209-3.234 1.003-3.445 2.683l-1.532 12.253c-.211 1.692.989 3.235 2.682 3.446 1.58.2 3.033-.839 3.388-2.355" fill="#fff"/><path d="M133.696 219.032l.058-.326 1.53-12.251c.212-1.695-.989-3.236-2.681-3.45-1.689-.209-3.234 1.003-3.445 2.683l-1.532 12.253c-.211 1.692.989 3.235 2.682 3.446 1.58.2 3.033-.839 3.388-2.355z" stroke-miterlimit="10" stroke="#535b6b" stroke-width="2" stroke-linejoin="round" fill="none"/></g></g><path d="M502.073 49.7l-1.893 3.249-2.263-2.15-1.892 1.175c-.44 20.288-7.01 31.836-19.338 39.409-11.965 7.351-28.346 7.06-43.818-.78-12.159-6.161-24.314-10.153-35.687-11.763-13.712-18.118-30.817-27.58-53.245-29.597-34.385-3.092-61.466 15.69-65.856 45.676-2.006 13.709 1.773 25.822 5.429 37.535 1.715 5.497 3.489 11.182 4.637 16.965 1.473 7.418.705 17.701-5.866 24.316-5.726 5.763-15.028 7.605-26.898 5.328l-1.695 8.839c4.05.777 7.715 1.117 11.031 1.117 12.151 0 19.601-4.565 23.946-8.94 7.58-7.629 10.766-20.049 8.311-32.412-1.241-6.253-3.088-12.171-4.873-17.894-3.51-11.246-6.824-21.868-5.115-33.55 4.299-29.363 31.296-40.252 56.145-38.016 16.931 1.523 30.447 7.909 41.621 19.837-16.755.303-30.961 6.388-42.248 18.106-15.238 15.821-18.066 40.101-6.876 59.043 9.485 16.055 31.849 22.09 49.849 13.454 10.261-4.923 17.768-14.835 21.71-28.664 4.821-16.913 3.403-37.453-3.216-50.718 9.518 2.302 18.184 5.998 24.83 9.365 18.285 9.265 37.947 9.421 52.598.42 14.769-9.073 23.126-26.661 23.732-49.676l-3.06.326zm-103.541 87.818c-2.242 7.866-7.003 18.245-16.947 23.017-13.898 6.667-31.037 2.218-38.207-9.918-9.142-15.473-6.834-35.302 5.609-48.222 11.03-11.451 24.196-15.396 37.107-15.396 2.041 0 4.073.099 6.092.282.763 1.095 1.516 2.223 2.256 3.383 6.875 10.772 8.633 30.915 4.09 46.854z" fill="#7c85d8"/><path d="M502.073 49.7l-1.893 3.249-2.263-2.15-1.892 1.175c-.44 20.288-7.01 31.836-19.338 39.409-11.965 7.351-28.346 7.06-43.818-.78-12.159-6.161-24.314-10.153-35.687-11.763-13.712-18.118-30.817-27.58-53.245-29.597-34.385-3.092-61.466 15.69-65.856 45.676-2.006 13.709 1.773 25.822 5.429 37.535 1.715 5.497 3.489 11.182 4.637 16.965 1.473 7.418.705 17.701-5.866 24.316-5.726 5.763-15.028 7.605-26.898 5.328l-1.695 8.839c4.05.777 7.715 1.117 11.031 1.117 12.151 0 19.601-4.565 23.946-8.94 7.58-7.629 10.766-20.049 8.311-32.412-1.241-6.253-3.088-12.171-4.873-17.894-3.51-11.246-6.824-21.868-5.115-33.55 4.299-29.363 31.296-40.252 56.145-38.016 16.931 1.523 30.447 7.909 41.621 19.837-16.755.303-30.961 6.388-42.248 18.106-15.238 15.821-18.066 40.101-6.876 59.043 9.485 16.055 31.849 22.09 49.849 13.454 10.261-4.923 17.768-14.835 21.71-28.664 4.821-16.913 3.403-37.453-3.216-50.718 9.518 2.302 18.184 5.998 24.83 9.365 18.285 9.265 37.947 9.421 52.598.42 14.769-9.073 23.126-26.661 23.732-49.676l-3.06.326zm-103.541 87.818c-2.242 7.866-7.003 18.245-16.947 23.017-13.898 6.667-31.037 2.218-38.207-9.918-9.142-15.473-6.834-35.302 5.609-48.222 11.03-11.451 24.196-15.396 37.107-15.396 2.041 0 4.073.099 6.092.282.763 1.095 1.516 2.223 2.256 3.383 6.875 10.772 8.633 30.915 4.09 46.854z" stroke-miterlimit="10" stroke="#535b6b" stroke-width="1.5" fill="none"/><path d="M387.04 87.021c1.713.025 3.422.104 5.119.257-2.375-3.476-4.684-6.433-7.336-9.229h-.201c-1.578.032-3.129.126-4.658.264 2.494 2.726 4.797 5.577 7.076 8.708z" opacity=".5" fill="#535b6b"/><path d="M392.159 87.279c-2.375-3.476-4.684-6.433-7.336-9.229h-.201" stroke-miterlimit="10" stroke="#535b6b" stroke-width="1.5" fill="none"/><path d="M403.972 89.267c-1.975-3.718-4.463-7.352-6.788-10.426" stroke-miterlimit="10" stroke="#535b6b" stroke-width="1.5" fill="none"/><path d="M397.754 79.219c2.367 2.782 4.905 7.155 6.636 10.4.718.174 1.42.37 2.129.558-1.939-3.472-4.214-7.271-6.537-10.588-.744-.125-1.491-.265-2.228-.37z" opacity=".5" fill="#535b6b"/><path stroke-miterlimit="10" stroke="#535b6b" fill="none" d="M496.644 43.479l.486 7.389"/><path stroke-miterlimit="10" stroke="#535b6b" fill="none" d="M504.37 39.343l.457 9.85"/><path stroke-miterlimit="10" stroke="#535b6b" fill="none" d="M499.552 44.268l.343 7.71"/><path stroke-miterlimit="10" stroke="#535b6b" fill="none" d="M501.932 46.013l.141 3.216"/><path d="M191.619 166.196l65.885-3.16c4.047-.193 7.486 2.931 7.68 6.977l2.352 48.992-80.543 3.864-2.35-48.992c-.195-4.048 2.929-7.486 6.976-7.681" fill="#fff"/><path d="M191.619 166.196l65.885-3.16c4.047-.193 7.486 2.931 7.68 6.977l2.352 48.992-80.543 3.864-2.35-48.992c-.195-4.048 2.929-7.486 6.976-7.681z" stroke-miterlimit="10" stroke="#535b6b" stroke-width="2" stroke-linejoin="round" fill="none"/><path d="M261.295 306.465l19.854.391.914-46.322-32.887-32.352-16.607 16.882 25.617 25.201-.637 32.3c-.042 2.112 1.635 3.857 3.746 3.9" fill="#8c99a8"/><path d="M261.295 306.465l19.854.391.914-46.322-32.887-32.352-16.607 16.882 25.617 25.201-.637 32.3c-.042 2.112 1.635 3.857 3.746 3.9z" stroke-miterlimit="10" stroke="#535b6b" stroke-width="2" stroke-linejoin="round" fill="none"/><path d="M287.796 304.704l-6.443-8.21-23.675-.468-.129 6.528c-.041 2.116 1.643 3.861 3.759 3.898l25.407.426c1.132.022 1.78-1.284 1.081-2.174" fill="#8c99a8"/><path d="M287.796 304.704l-6.443-8.21-23.675-.468-.129 6.528c-.041 2.116 1.643 3.861 3.759 3.898l25.407.426c1.132.022 1.78-1.284 1.081-2.174z" stroke-miterlimit="10" stroke="#535b6b" stroke-width="2" stroke-linejoin="round" fill="none"/><g opacity=".5"><defs><path id="c" opacity=".5" d="M257.922 298.153l30.496 5.645-1.384 7.48-30.496-5.645z"/></defs><clipPath id="d"><use overflow="visible" xlink:href="#c" width="100%" height="100%"/></clipPath><path d="M261.297 303.086l25.407.43.143-.02.949 1.208c.699.892.051 2.194-1.082 2.177l-25.407-.428c-2.116-.037-3.8-1.784-3.758-3.898l.052-2.607c.317 1.76 1.839 3.109 3.696 3.138" clip-path="url(#d)" fill="#535b6b"/></g><path fill="#8c99a8" d="M257.879 285.757l23.678.466"/><path stroke-miterlimit="10" stroke="#535b6b" stroke-width="2" stroke-linejoin="round" fill="none" d="M257.879 285.757l23.678.466"/><path fill="#8c99a8" d="M258.083 275.488l23.677.466"/><path stroke-miterlimit="10" stroke="#535b6b" stroke-width="2" stroke-linejoin="round" fill="none" d="M258.083 275.488l23.677.466"/><path fill="#8c99a8" d="M258.185 270.269l23.876-9.635"/><path stroke-miterlimit="10" stroke="#535b6b" stroke-width="2" stroke-linejoin="round" fill="none" d="M258.185 270.269l23.876-9.635"/><path fill="#8c99a8" d="M254.535 266.674l16.606-16.883"/><path stroke-miterlimit="10" stroke="#535b6b" stroke-width="2" stroke-linejoin="round" fill="none" d="M254.535 266.674l16.606-16.883"/><path fill="#8c99a8" d="M247.213 259.471l16.605-16.883"/><path stroke-miterlimit="10" stroke="#535b6b" stroke-width="2" stroke-linejoin="round" fill="none" d="M247.213 259.471l16.605-16.883"/><path fill="#8c99a8" d="M239.891 252.267l16.606-16.882"/><path stroke-miterlimit="10" stroke="#535b6b" stroke-width="2" stroke-linejoin="round" fill="none" d="M239.891 252.267l16.606-16.882"/><path fill="#8c99a8" d="M232.568 245.063l16.606-16.881"/><path stroke-miterlimit="10" stroke="#535b6b" stroke-width="2" stroke-linejoin="round" fill="none" d="M232.568 245.063l16.606-16.881"/><path d="M201.572 309.328l-19.725 2.289-5.343-46.02 29.64-35.353 18.147 15.216-23.087 27.536 3.726 32.093c.242 2.097-1.261 3.996-3.358 4.239" fill="#8c99a8"/><path d="M201.572 309.328l-19.725 2.289-5.343-46.02 29.64-35.353 18.147 15.216-23.087 27.536 3.726 32.093c.242 2.097-1.261 3.996-3.358 4.239z" stroke-miterlimit="10" stroke="#535b6b" stroke-width="2" stroke-linejoin="round" fill="none"/><path d="M175.025 310.113l5.627-8.789 23.522-2.732.753 6.485c.244 2.103-1.266 4.003-3.368 4.241l-25.25 2.857c-1.125.128-1.894-1.107-1.284-2.062" fill="#8c99a8"/><path d="M175.025 310.113l5.627-8.789 23.522-2.732.753 6.485c.244 2.103-1.266 4.003-3.368 4.241l-25.25 2.857c-1.125.128-1.894-1.107-1.284-2.062z" stroke-miterlimit="10" stroke="#535b6b" stroke-width="2" stroke-linejoin="round" fill="none"/><path fill="#8c99a8" d="M202.99 288.39l-23.523 2.731"/><path stroke-miterlimit="10" stroke="#535b6b" stroke-width="2" stroke-linejoin="round" fill="none" d="M202.99 288.39l-23.523 2.731"/><path fill="#8c99a8" d="M201.805 278.188l-23.522 2.73"/><path stroke-miterlimit="10" stroke="#535b6b" stroke-width="2" stroke-linejoin="round" fill="none" d="M201.805 278.188l-23.522 2.73"/><path fill="#8c99a8" d="M201.203 273.003l-24.687-7.306"/><path stroke-miterlimit="10" stroke="#535b6b" stroke-width="2" stroke-linejoin="round" fill="none" d="M201.203 273.003l-24.687-7.306"/><path fill="#8c99a8" d="M204.494 269.074l-18.147-15.215"/><path stroke-miterlimit="10" stroke="#535b6b" stroke-width="2" stroke-linejoin="round" fill="none" d="M204.494 269.074l-18.147-15.215"/><path fill="#8c99a8" d="M211.093 261.203l-18.147-15.217"/><path stroke-miterlimit="10" stroke="#535b6b" stroke-width="2" stroke-linejoin="round" fill="none" d="M211.093 261.203l-18.147-15.217"/><path fill="#8c99a8" d="M217.692 253.331l-18.146-15.215"/><path stroke-miterlimit="10" stroke="#535b6b" stroke-width="2" stroke-linejoin="round" fill="none" d="M217.692 253.331l-18.146-15.215"/><path fill="#8c99a8" d="M224.292 245.461l-18.147-15.216"/><path stroke-miterlimit="10" stroke="#535b6b" stroke-width="2" stroke-linejoin="round" fill="none" d="M224.292 245.461l-18.147-15.216"/><path fill="#8c99a8" d="M227.567 190.133l3.686 11.42"/><path stroke-miterlimit="10" stroke="#535b6b" stroke-width="2" stroke-linejoin="round" fill="none" d="M227.567 190.133l3.686 11.42"/><path fill="#8c99a8" d="M237.234 187.58l2.449 11.748"/><path stroke-miterlimit="10" stroke="#535b6b" stroke-width="2" stroke-linejoin="round" fill="none" d="M237.234 187.58l2.449 11.748"/><path fill="#8c99a8" d="M247.142 186.075l1.138 11.946"/><path stroke-miterlimit="10" stroke="#535b6b" stroke-width="2" stroke-linejoin="round" fill="none" d="M247.142 186.075l1.138 11.946"/><path fill="#8c99a8" d="M257.231 185.73l-.341 11.997"/><path stroke-miterlimit="10" stroke="#535b6b" stroke-width="2" stroke-linejoin="round" fill="none" d="M257.231 185.73l-.341 11.997"/><path fill="#8c99a8" d="M267.379 186.724l-2.018 11.829"/><path fill="#8c99a8" d="M210.313 206.844l.217-11.998"/><path stroke-miterlimit="10" stroke="#535b6b" stroke-width="2" stroke-linejoin="round" fill="none" d="M210.313 206.844l.217-11.998"/><path fill="#8c99a8" d="M200.341 206.124l1.494-11.907"/><path stroke-miterlimit="10" stroke="#535b6b" stroke-width="2" stroke-linejoin="round" fill="none" d="M200.341 206.124l1.494-11.907"/><path fill="#8c99a8" d="M190.482 204.335l2.798-11.67"/><path stroke-miterlimit="10" stroke="#535b6b" stroke-width="2" stroke-linejoin="round" fill="none" d="M190.482 204.335l2.798-11.67"/><path fill="#8c99a8" d="M180.826 201.389l4.212-11.237"/><path d="M186.041 206.398l4.79-.57 2.234-20.572-9.427.948c-2.493.295-4.274 2.557-3.978 5.05l1.331 11.168c.297 2.494 2.557 4.273 5.05 3.976z" stroke-miterlimit="10" fill="#fff" stroke="#535b6b" stroke-width="2" stroke-linejoin="round"/><path d="M265.825 203.363l-4.819-.227-3.699-20.36 9.471.271c2.507.117 4.445 2.245 4.328 4.752l-.527 11.234c-.119 2.511-2.246 4.447-4.754 4.33z" stroke-miterlimit="10" fill="#fff" stroke="#535b6b" stroke-width="2" stroke-linejoin="round"/><path d="M198.395 177.149s-16.75 21.541-16.111 59.207c.114 6.722 4.771 12.497 11.266 14.231 8.164 2.181 20.537 4.425 35.365 3.714l-.094.005c14.828-.711 26.928-4.131 34.846-7.08 6.406-2.388 10.385-8.745 9.829-15.56-3.048-37.353-21.679-57.08-21.679-57.08l-53.422 2.563z" fill="#fff"/><path d="M198.395 177.149s-16.75 21.541-16.111 59.207c.114 6.722 4.771 12.497 11.266 14.231 8.164 2.181 20.537 4.425 35.365 3.714l-.094.005c14.828-.711 26.928-4.131 34.846-7.08 6.406-2.388 10.385-8.745 9.829-15.56-3.048-37.353-21.679-57.08-21.679-57.08l-53.422 2.563z" stroke-miterlimit="10" stroke="#535b6b" stroke-width="2" stroke-linejoin="round" fill="none"/><path fill="#fff" d="M245.906 232.264l-36.122 1.732-1.732-36.124 36.122-1.732z"/><path stroke-miterlimit="10" stroke="#535b6b" stroke-width="2" stroke-linejoin="round" fill="none" d="M245.906 232.264l-36.122 1.732-1.732-36.124 36.122-1.732z"/><path d="M215.156 215.652c-.313-6.531 4.727-12.08 11.258-12.393 6.532-.313 12.08 4.728 12.394 11.259.312 6.531-4.728 12.08-11.259 12.394-6.531.313-12.08-4.728-12.393-11.26" fill="#ffdb69"/><circle r="11.84" cy="215.085" cx="226.982" stroke-miterlimit="10" stroke="#ff9136" stroke-width="2" stroke-linejoin="round" fill="none"/><g><defs><path id="e" d="M217.482 201.295l23.288 4.31-4.31 23.288-23.288-4.31z"/></defs><clipPath id="f"><use overflow="visible" xlink:href="#e" width="100%" height="100%"/></clipPath><path d="M228.601 206.393c4.047.749 7.013 4.15 7.21 8.27.233 4.869-3.538 9.019-8.405 9.253-.688.033-1.375-.013-2.042-.136-4.048-.75-7.013-4.15-7.211-8.271-.232-4.869 3.538-9.019 8.406-9.253.688-.032 1.375.013 2.042.137m.545-2.95c-.881-.164-1.797-.229-2.732-.184-6.531.313-11.571 5.861-11.258 12.393.269 5.596 4.38 10.1 9.662 11.077.882.163 1.796.227 2.731.183 6.531-.314 11.572-5.863 11.259-12.395-.268-5.595-4.381-10.096-9.662-11.074" clip-path="url(#f)" fill="#f5ca5c"/></g><circle r="11.84" cy="215.085" cx="226.982" stroke-miterlimit="10" stroke="#535b6b" stroke-width="2" stroke-linejoin="round" fill="none"/><g><defs><path id="g" d="M220.326 204.523l14.847 2.748-1.421 7.677-14.847-2.748z"/></defs><clipPath id="h"><use overflow="visible" xlink:href="#g" width="100%" height="100%"/></clipPath><path d="M226.783 210.927c-3.758.179-7.577 2.796-7.684.562-.106-2.231 3.195-5.361 7.444-5.565 4.248-.204 7.834 2.597 7.941 4.829.107 2.23-3.942-.007-7.701.174" clip-path="url(#h)" fill="#fff"/></g><path fill="#fff" d="M245.042 214.219l-36.12 1.733"/><path stroke-miterlimit="10" stroke="#535b6b" stroke-width="2" stroke-linejoin="round" fill="none" d="M245.042 214.219l-36.12 1.733"/><path d="M271.531 217.737c-3.773 1.179-7.762-1.116-8.605-4.98-1.875-8.578-5.922-22.887-13.445-32.346-1.852-2.327-2.469-4.159-2.234-5.605l4.569-.219s14.006 14.848 19.715 43.15" fill="#fff"/><path d="M271.531 217.737c-3.773 1.179-7.762-1.116-8.605-4.98-1.875-8.578-5.922-22.887-13.445-32.346-1.852-2.327-2.469-4.159-2.234-5.605l4.569-.219s14.006 14.848 19.715 43.15z" stroke-miterlimit="10" stroke="#535b6b" stroke-width="2" stroke-linejoin="round" fill="none"/><path fill="#fff" d="M246.192 238.194l-36.12 1.731"/><path stroke-miterlimit="10" stroke="#9fadc1" stroke-width="2" stroke-linecap="round" stroke-linejoin="round" fill="none" d="M246.192 238.194l-36.12 1.731"/><path fill="#fff" d="M246.419 242.925l-36.12 1.732"/><path stroke-miterlimit="10" stroke="#9fadc1" stroke-width="2" stroke-linecap="round" stroke-linejoin="round" fill="none" d="M246.419 242.925l-36.12 1.732"/><path d="M236.845 188.763c.091 1.921 1.725 3.405 3.646 3.314 1.923-.093 3.406-1.726 3.314-3.647-.092-1.922-1.726-3.406-3.647-3.313-1.923.091-3.406 1.724-3.313 3.646" fill="#f26a6a"/><circle r="3.484" cy="188.597" cx="240.325" stroke-miterlimit="10" stroke="#535b6b" stroke-width="2" stroke-linejoin="round" fill="none"/><path d="M207.686 190.162c.091 1.922 1.725 3.406 3.646 3.314 1.923-.093 3.406-1.727 3.315-3.648-.092-1.922-1.726-3.406-3.647-3.314-1.924.093-3.407 1.726-3.314 3.648" fill="#f26a6a"/><circle r="3.484" cy="189.995" cx="211.166" stroke-miterlimit="10" stroke="#535b6b" stroke-width="2" stroke-linejoin="round" fill="none"/><path d="M222.265 189.463c.091 1.922 1.724 3.406 3.646 3.313 1.923-.092 3.406-1.725 3.314-3.647-.092-1.922-1.726-3.406-3.647-3.313-1.922.091-3.405 1.726-3.313 3.647" fill="#f26a6a"/><circle r="3.484" cy="189.296" cx="225.746" stroke-miterlimit="10" stroke="#535b6b" stroke-width="2" stroke-linejoin="round" fill="none"/><path d="M246.567 174.838l5.249-.252s18.63 19.727 21.678 57.08c.031.382.043.762.047 1.141l-.102-.003c-3.828 1.084-7.703-1.523-8.162-5.478-1.286-11.056-5.046-31.882-15.797-46.915-1.517-2.122-2.449-3.965-2.913-5.573" fill="#fff"/><path d="M246.567 174.838l5.249-.252s18.63 19.727 21.678 57.08c.031.382.043.762.047 1.141l-.102-.003c-3.828 1.084-7.703-1.523-8.162-5.478-1.286-11.056-5.046-31.882-15.797-46.915-1.517-2.122-2.449-3.965-2.913-5.573z" stroke-miterlimit="10" stroke="#535b6b" stroke-width="2" stroke-linejoin="round" fill="none"/><path d="M203.469 176.906l-5.249.252s-16.657 21.42-16.117 58.892c.006.383.03.763.063 1.141l.101-.014c3.916.713 7.523-2.254 7.601-6.232.222-11.129 1.97-32.22 11.234-48.212 1.307-2.258 2.059-4.183 2.367-5.827" fill="#fff"/><path d="M203.469 176.906l-5.249.252s-16.657 21.42-16.117 58.892c.006.383.03.763.063 1.141l.101-.014c3.916.713 7.523-2.254 7.601-6.232.222-11.129 1.97-32.22 11.234-48.212 1.307-2.258 2.059-4.183 2.367-5.827z" stroke-miterlimit="10" stroke="#535b6b" stroke-width="2" stroke-linejoin="round" fill="none"/><path d="M176.893 147.841l4.819-.23-1.145-23.865-4.819.232c-2.507.121-4.442 2.25-4.322 4.759l.708 14.783c.122 2.506 2.252 4.441 4.759 4.321" fill="#fff"/><path d="M176.893 147.841l4.819-.23-1.145-23.865-4.819.232c-2.507.121-4.442 2.25-4.322 4.759l.708 14.783c.122 2.506 2.252 4.441 4.759 4.321z" stroke-miterlimit="10" stroke="#535b6b" stroke-width="2" stroke-linejoin="round" fill="none"/><path d="M176.893 147.841l4.819-.23-1.145-23.865-4.819.232c-2.507.121-4.442 2.25-4.322 4.759l.708 14.783c.122 2.506 2.252 4.441 4.759 4.321" fill="#fff"/><path d="M176.893 147.841l4.819-.23-1.145-23.865-4.819.232c-2.507.121-4.442 2.25-4.322 4.759l.708 14.783c.122 2.506 2.252 4.441 4.759 4.321z" stroke-miterlimit="10" stroke="#535b6b" stroke-width="2" stroke-linejoin="round" fill="none"/><path fill="#fff" d="M181.916 129.122l-6.332.304"/><path stroke-miterlimit="10" stroke="#9fadc1" stroke-width="2" stroke-linecap="round" stroke-linejoin="round" fill="none" d="M181.916 129.122l-6.332.304"/><path fill="#fff" d="M182.54 142.13l-6.332.305"/><path stroke-miterlimit="10" stroke="#9fadc1" stroke-width="2" stroke-linecap="round" stroke-linejoin="round" fill="none" d="M182.54 142.13l-6.332.305"/><path fill="#fff" d="M182.228 135.626l-6.332.304"/><path stroke-miterlimit="10" stroke="#9fadc1" stroke-width="2" stroke-linecap="round" stroke-linejoin="round" fill="none" d="M182.228 135.626l-6.332.304"/><path d="M270.235 143.364l-4.819.23-1.144-23.862 4.817-.231c2.508-.12 4.639 1.814 4.758 4.323l.709 14.783c.122 2.506-1.814 4.637-4.321 4.757" fill="#fff"/><path d="M270.235 143.364l-4.819.23-1.144-23.862 4.817-.231c2.508-.12 4.639 1.814 4.758 4.323l.709 14.783c.122 2.506-1.814 4.637-4.321 4.757z" stroke-miterlimit="10" stroke="#535b6b" stroke-width="2" stroke-linejoin="round" fill="none"/><path d="M270.235 143.364l-4.819.23-1.144-23.862 4.817-.231c2.508-.12 4.639 1.814 4.758 4.323l.709 14.783c.122 2.506-1.814 4.637-4.321 4.757" fill="#fff"/><path d="M270.235 143.364l-4.819.23-1.144-23.862 4.817-.231c2.508-.12 4.639 1.814 4.758 4.323l.709 14.783c.122 2.506-1.814 4.637-4.321 4.757z" stroke-miterlimit="10" stroke="#535b6b" stroke-width="2" stroke-linejoin="round" fill="none"/><path fill="#fff" d="M263.443 125.211l6.332-.303"/><path stroke-miterlimit="10" stroke="#9fadc1" stroke-width="2" stroke-linecap="round" stroke-linejoin="round" fill="none" d="M263.443 125.211l6.332-.303"/><path fill="#fff" d="M264.068 138.22l6.332-.303"/><path stroke-miterlimit="10" stroke="#9fadc1" stroke-width="2" stroke-linecap="round" stroke-linejoin="round" fill="none" d="M264.068 138.22l6.332-.303"/><path fill="#fff" d="M263.756 131.715l6.332-.303"/><path stroke-miterlimit="10" stroke="#9fadc1" stroke-width="2" stroke-linecap="round" stroke-linejoin="round" fill="none" d="M263.756 131.715l6.332-.303"/><path d="M252.355 168.546l-55.255 2.65c-11.313-7.806-18.99-20.604-19.699-35.394-1.208-25.177 18.223-46.567 43.401-47.775 25.178-1.208 46.567 18.225 47.775 43.402.71 14.789-5.706 28.265-16.222 37.117" fill="#fff"/><path d="M252.355 168.546l-55.255 2.65c-11.313-7.806-18.99-20.604-19.699-35.394-1.208-25.177 18.223-46.567 43.401-47.775 25.178-1.208 46.567 18.225 47.775 43.402.71 14.789-5.706 28.265-16.222 37.117z" stroke-miterlimit="10" stroke="#535b6b" stroke-width="2" stroke-linejoin="round" fill="none"/><path d="M242.801 161.384l-36.86 1.769c-4.725.226-9.31-1.752-12.319-5.399-5.617-6.812-8.927-15.629-8.646-25.322.54-18.676 14.953-34.406 33.51-36.578 22.121-2.59 41.438 14.075 42.488 35.941.412 8.614-2.083 16.687-6.614 23.287-2.614 3.808-6.944 6.081-11.559 6.302" fill="#ffdb69"/><path d="M242.801 161.384l-36.86 1.769c-4.725.226-9.31-1.752-12.319-5.399-5.617-6.812-8.927-15.629-8.646-25.322.54-18.676 14.953-34.406 33.51-36.578 22.121-2.59 41.438 14.075 42.488 35.941.412 8.614-2.083 16.687-6.614 23.287-2.614 3.808-6.944 6.081-11.559 6.302z" stroke-miterlimit="10" stroke="#ff9136" stroke-width="2" stroke-linejoin="round" fill="none"/><g><defs><path id="i" d="M192.504 89.3l74.801 13.845-12.847 69.409-74.801-13.845z"/></defs><clipPath id="j"><use overflow="visible" xlink:href="#i" width="100%" height="100%"/></clipPath><path d="M228.851 102.12c14.669 2.715 25.414 15.036 26.13 29.962.337 7.03-1.588 13.809-5.566 19.604-1.5 2.186-4.08 3.571-6.901 3.706l-36.86 1.769c-.712.033-1.427-.014-2.125-.143-2.083-.386-3.958-1.48-5.277-3.081-4.918-5.964-7.503-13.54-7.278-21.33.455-15.726 12.583-28.963 28.211-30.793 3.251-.383 6.504-.279 9.666.306m1.091-5.9c-3.671-.679-7.521-.828-11.455-.367-18.559 2.173-32.971 17.902-33.511 36.578-.281 9.693 3.029 18.511 8.646 25.321 2.254 2.735 5.395 4.531 8.815 5.164 1.144.211 2.32.292 3.504.236l36.86-1.769c4.614-.221 8.945-2.494 11.56-6.303 4.531-6.6 7.026-14.672 6.614-23.287-.863-17.974-14.07-32.434-31.033-35.573" clip-path="url(#j)" fill="#f5ca5c"/></g><path fill="#ffdb69" d="M215.254 95.915l-.365-7.603"/><path stroke-miterlimit="10" stroke="#535b6b" stroke-width="2" stroke-linejoin="round" fill="none" d="M215.254 95.915l-.365-7.603"/><path fill="#ffdb69" d="M227.081 95.349l-.365-7.604"/><path stroke-miterlimit="10" stroke="#535b6b" stroke-width="2" stroke-linejoin="round" fill="none" d="M227.081 95.349l-.365-7.604"/><path d="M238.414 114.892c2.155-.104 4.003 1.576 4.106 3.731l.258 5.385c.104 2.155-1.574 4.003-3.729 4.106-2.155.104-4.003-1.575-4.105-3.729l-.26-5.387c-.102-2.154 1.576-4.003 3.73-4.106" fill="#535b6b"/><path d="M205.842 116.454c2.155-.103 4.003 1.577 4.106 3.731l.258 5.386c.104 2.154-1.574 4.002-3.729 4.106-2.156.104-4.003-1.575-4.106-3.729l-.259-5.387c-.102-2.155 1.576-4.003 3.73-4.107" fill="#535b6b"/><path d="M223.227 138.57c-2.048.098-3.789-1.482-3.887-3.531-.098-2.048 1.482-3.789 3.532-3.886l-.682-14.19" fill="#ffdb69"/><path d="M223.626 138.543c2.042-.179 3.555-1.979 3.376-4.023-.179-2.042-1.98-3.554-4.023-3.375l-1.237-14.152" stroke-miterlimit="10" stroke="#535b6b" stroke-width="2" stroke-linecap="round" stroke-linejoin="round" fill="none"/><g opacity=".5"><defs><path id="k" opacity=".5" d="M197.029 94.496l58.111 10.756-5.562 30.049-58.111-10.756z"/></defs><clipPath id="l"><use overflow="visible" xlink:href="#k" width="100%" height="100%"/></clipPath><path d="M222.314 119.549c-14.713.705-29.657 10.943-30.076 2.205-.419-8.738 12.506-20.991 29.137-21.789 16.631-.798 30.669 10.161 31.088 18.9.42 8.739-15.436-.021-30.149.684" clip-path="url(#l)" fill="#fff"/></g><path d="M242.801 161.384l-36.86 1.769c-4.725.226-9.31-1.752-12.319-5.399-5.617-6.812-8.927-15.629-8.646-25.322.54-18.676 14.953-34.406 33.51-36.578 22.121-2.59 41.438 14.075 42.488 35.941.412 8.614-2.083 16.687-6.614 23.287-2.614 3.808-6.944 6.081-11.559 6.302z" stroke-miterlimit="10" stroke="#535b6b" stroke-width="2" stroke-linejoin="round" fill="none"/><path d="M193.65 183.089l63.361-3.04c1.39-.066 2.462-1.245 2.395-2.635l-.316-6.614c-.066-1.389-1.247-2.461-2.637-2.395l-63.361 3.04c-1.389.066-2.461 1.247-2.395 2.635l.317 6.615c.067 1.389 1.248 2.46 2.636 2.394" fill="#fff"/><path d="M193.65 183.089l63.361-3.04c1.39-.066 2.462-1.245 2.395-2.635l-.316-6.614c-.066-1.389-1.247-2.461-2.637-2.395l-63.361 3.04c-1.389.066-2.461 1.247-2.395 2.635l.317 6.615c.067 1.389 1.248 2.46 2.636 2.394z" stroke-miterlimit="10" stroke="#535b6b" stroke-width="2" stroke-linejoin="round" fill="none"/><path fill="#fff" d="M200.983 223.437l-.68-14.176"/><path stroke-miterlimit="10" stroke="#535b6b" stroke-width="2" stroke-linecap="round" stroke-linejoin="round" fill="none" d="M200.983 223.437l-.68-14.176"/><path fill="#fff" d="M253.661 220.91l-.68-14.176"/><path stroke-miterlimit="10" stroke="#535b6b" stroke-width="2" stroke-linecap="round" stroke-linejoin="round" fill="none" d="M253.661 220.91l-.68-14.176"/><path fill="#fff" d="M196.637 177.109l56.83-2.726"/><path stroke-miterlimit="10" stroke="#535b6b" stroke-width="2" stroke-linecap="round" stroke-linejoin="round" fill="none" d="M196.637 177.109l56.83-2.726"/><g opacity=".5"><defs><path id="m" opacity=".5" d="M177.262 297.307l28.321 5.242-2.662 14.383-28.321-5.242z"/></defs><clipPath id="n"><use overflow="visible" xlink:href="#m" width="100%" height="100%"/></clipPath><path d="M201.29 305.84l-25.261 2.75-.145-.004-.833 1.289c-.616.951.149 2.191 1.276 2.068l25.261-2.751c2.104-.228 3.621-2.122 3.385-4.226l-.29-2.59c-.154 1.779-1.547 3.264-3.393 3.464" clip-path="url(#n)" fill="#535b6b"/></g><g opacity=".5"><defs><path id="o" opacity=".5" d="M242.949 241.163l29.443 5.45-2.972 16.056-29.443-5.45z"/></defs><clipPath id="p"><use overflow="visible" xlink:href="#o" width="100%" height="100%"/></clipPath><path d="M263.666 247.226c1.146-.427 2.211-.986 3.191-1.648l4.854 4.774c-1.211.953-2.576 1.741-4.082 2.303-5.399 2.012-12.745 4.238-21.572 5.68l-5.308-5.222c9.424-1.427 17.247-3.775 22.917-5.887" clip-path="url(#p)" fill="#535b6b"/></g><g opacity=".5"><defs><path id="q" opacity=".5" d="M189.462 249.124l27.457 5.082-1.028 5.553-27.457-5.082z"/></defs><clipPath id="r"><use overflow="visible" xlink:href="#q" width="100%" height="100%"/></clipPath><path d="M193.549 250.587c5.845 1.561 13.854 3.149 23.37 3.667l-3.967 4.73c-6.075-.744-11.3-1.864-15.439-2.968-3.394-.906-6.278-2.924-8.282-5.597l.976-1.164c1.043.565 2.16 1.018 3.342 1.332" clip-path="url(#r)" fill="#535b6b"/></g><path d="M212.292 147.165c1.508-3.571 5.271-5.228 8.234-3.642 1.749.936 2.687 3.592 4.343 4.299 1.657.708 7.591.141 9.812-1.525" stroke-miterlimit="10" stroke="#535b6b" stroke-width="2" stroke-linecap="round" stroke-linejoin="round" fill="none"/><path d="M96.131 79.612c0-3.487 2.826-6.315 6.313-6.315 3.486 0 6.313 2.828 6.313 6.315 0 3.487-2.828 6.312-6.313 6.312-3.487-.001-6.313-2.825-6.313-6.312" stroke-miterlimit="10" fill="#7a79e1" stroke="#6a6ace" stroke-width="2"/><path d="M49.616 214.221c0-2.397 1.942-4.342 4.34-4.342 2.396 0 4.341 1.944 4.341 4.342 0 2.398-1.944 4.339-4.341 4.339-2.398 0-4.34-1.942-4.34-4.339" fill="#7778df"/><path d="M318.296 230.247c0-3.487 2.826-6.315 6.313-6.315 3.485 0 6.313 2.828 6.313 6.315 0 3.487-2.828 6.313-6.313 6.313-3.487 0-6.313-2.826-6.313-6.313" fill="#7778df"/><path d="M300.861 91.389c0-3.487 2.826-6.315 6.313-6.315 3.485 0 6.313 2.828 6.313 6.315 0 3.487-2.828 6.313-6.313 6.313-3.486-.001-6.313-2.826-6.313-6.313" fill="#7778df"/><path d="M147.74 176.001c0-3.487 2.826-6.315 6.313-6.315 3.485 0 6.313 2.828 6.313 6.315 0 3.487-2.828 6.312-6.313 6.312-3.487 0-6.313-2.825-6.313-6.312" fill="#7778df"/><path d="M193.154 63.049c0-1.924 1.559-3.483 3.483-3.483 1.923 0 3.482 1.559 3.482 3.483 0 1.924-1.56 3.482-3.482 3.482-1.925 0-3.483-1.558-3.483-3.482" fill="#7778df"/><path d="M134.311 91.386c0-1.073.87-1.943 1.943-1.943s1.942.87 1.942 1.943-.869 1.943-1.942 1.943-1.943-.87-1.943-1.943" fill="#7778df"/><path d="M14.249 82.664c0-1.073.87-1.943 1.943-1.943s1.942.87 1.942 1.943-.869 1.943-1.942 1.943-1.943-.87-1.943-1.943" fill="#7778df"/><path d="M416.971 244.597c0-.824.669-1.494 1.495-1.494.826 0 1.494.67 1.494 1.494 0 .827-.668 1.496-1.494 1.496s-1.495-.669-1.495-1.496" fill="#7778df"/><path d="M385.628 251.493c0-10.315 8.362-18.679 18.678-18.679s18.68 8.363 18.68 18.679c0 10.317-8.363 18.68-18.68 18.68-10.316 0-18.678-8.362-18.678-18.68" fill="#7a79e1"/><circle r="18.679" cy="251.493" cx="404.307" stroke-miterlimit="10" stroke="#6a6ace" stroke-width="2" fill="none"/><g><defs><path id="s" d="M385.096 235.723h34.98v34.982h-34.98z"/></defs><clipPath id="t"><use overflow="visible" xlink:href="#s" width="100%" height="100%"/></clipPath><path d="M392.638 237.044c-.28 1.41-.43 2.867-.43 4.359 0 12.255 9.935 22.19 22.189 22.19 1.491 0 2.948-.15 4.357-.433-3.405 4.272-8.648 7.012-14.537 7.012-10.267 0-18.59-8.322-18.59-18.59.001-5.887 2.74-11.132 7.011-14.538" clip-path="url(#t)" fill="#6a6ace"/><path d="M392.638 237.044c-.28 1.41-.43 2.867-.43 4.359 0 12.255 9.935 22.19 22.189 22.19 1.491 0 2.948-.15 4.357-.433-3.405 4.272-8.648 7.012-14.537 7.012-10.267 0-18.59-8.322-18.59-18.59.001-5.887 2.74-11.132 7.011-14.538z" stroke-miterlimit="10" clip-path="url(#t)" stroke="#6a6ace" stroke-width="2" fill="none"/></g><path d="M419.564 240.72c3.873.751 6.533 2.376 7.173 4.763.737 2.757-1.361 5.979-5.313 8.899-3.581 2.646-8.682 5.044-14.57 6.622-5.888 1.578-11.505 2.052-15.928 1.552-4.884-.554-8.313-2.295-9.052-5.05-.64-2.391.854-5.132 3.84-7.723" stroke-miterlimit="10" stroke="#6a6ace" stroke-width="2" fill="none"/><path d="M422.716 254.667c2.206 3.27 2.937 6.299 1.701 8.438-2.721 4.709-13.927 3.327-25.034-3.086-11.105-6.412-17.907-15.428-15.188-20.137 1.427-2.471 5.19-3.264 10.051-2.535" stroke-miterlimit="10" stroke="#6a6ace" stroke-width="2" fill="none"/><path d="M370.316 268.685c0-1.022.828-1.851 1.849-1.851 1.022 0 1.851.828 1.851 1.851 0 1.021-.828 1.85-1.851 1.85-1.02-.001-1.849-.83-1.849-1.85" fill="#7778df"/><path d="M313.488 169.116c0-1.328 1.076-2.404 2.403-2.404 1.328 0 2.405 1.076 2.405 2.404 0 1.328-1.077 2.404-2.405 2.404-1.327.001-2.403-1.076-2.403-2.404" fill="#7778df"/><path d="M31 21.778c0-1.328 1.076-2.404 2.403-2.404 1.328 0 2.405 1.076 2.405 2.404 0 1.328-1.077 2.404-2.405 2.404-1.327 0-2.403-1.076-2.403-2.404" fill="#7778df"/><path d="M248.669 70.415c0-1.328 1.076-2.404 2.403-2.404 1.328 0 2.405 1.076 2.405 2.404 0 1.328-1.077 2.404-2.405 2.404-1.327 0-2.403-1.076-2.403-2.404" fill="#7778df"/><path d="M335.617 316.926c0-1.328 1.076-2.404 2.403-2.404 1.328 0 2.405 1.076 2.405 2.404 0 1.328-1.077 2.404-2.405 2.404-1.327 0-2.403-1.076-2.403-2.404" fill="#7778df"/><path d="M115.451 349.916c0-1.328 1.076-2.404 2.403-2.404 1.328 0 2.405 1.076 2.405 2.404 0 1.328-1.077 2.404-2.405 2.404-1.327 0-2.403-1.076-2.403-2.404" fill="#7778df"/><path d="M16.191 163.409c0-1.328 1.076-2.404 2.403-2.404 1.328 0 2.405 1.076 2.405 2.404 0 1.328-1.077 2.404-2.405 2.404-1.326 0-2.403-1.076-2.403-2.404" fill="#7778df"/><path d="M407.488 201.554c0-1.328 1.076-2.404 2.403-2.404 1.328 0 2.405 1.076 2.405 2.404 0 1.328-1.077 2.404-2.405 2.404-1.327 0-2.403-1.076-2.403-2.404" fill="#7778df"/><path d="M447.459 177.11c0-1.328 1.076-2.404 2.403-2.404 1.328 0 2.405 1.076 2.405 2.404 0 1.328-1.077 2.404-2.405 2.404-1.327 0-2.403-1.076-2.403-2.404" fill="#7778df"/><path d="M42.03 249.751c0-1.328 1.076-2.404 2.403-2.404 1.328 0 2.405 1.076 2.405 2.404 0 1.328-1.077 2.404-2.405 2.404-1.327 0-2.403-1.076-2.403-2.404" fill="#7778df"/><path d="M135.792 32.874c0-1.328 1.076-2.404 2.403-2.404 1.328 0 2.405 1.076 2.405 2.404 0 1.328-1.077 2.404-2.405 2.404-1.326 0-2.403-1.076-2.403-2.404" fill="#7778df"/><path d="M129.772 273.001c0-1.328 1.076-2.404 2.403-2.404 1.328 0 2.405 1.076 2.405 2.404 0 1.328-1.077 2.404-2.405 2.404-1.327 0-2.403-1.076-2.403-2.404" fill="#7778df"/><path d="M442.392 219.273c0-1.328 1.075-2.404 2.404-2.404 1.327 0 2.404 1.076 2.404 2.404 0 1.327-1.077 2.403-2.404 2.403-1.329.001-2.404-1.075-2.404-2.403" fill="#7778df"/><path d="M385.303 210.72c0-.74.6-1.341 1.341-1.341.74 0 1.34.601 1.34 1.341 0 .741-.6 1.342-1.34 1.342-.742 0-1.341-.601-1.341-1.342" fill="#7778df"/><path d="M430.822 235.897c0-.57.462-1.033 1.032-1.033.569 0 1.03.463 1.03 1.033 0 .569-.461 1.031-1.03 1.031-.57.001-1.032-.461-1.032-1.031" fill="#7778df"/><path d="M371.65 247.717c0-.285.23-.516.515-.516.286 0 .518.23.518.516 0 .286-.231.516-.518.516-.284-.001-.515-.231-.515-.516" fill="#7778df"/><path d="M461.149 210.72c0-.369.301-.67.671-.67.371 0 .671.301.671.67 0 .371-.3.671-.671.671-.37 0-.671-.3-.671-.671" fill="#7778df"/><g><path d="M35.094 310.367l.531-5.054c.059-.557.558-.961 1.114-.902.469.05.913-.23 1.063-.679 2.654-7.907 10.12-13.606 18.921-13.606 3.94 0 7.611 1.146 10.705 3.116.397.255.919.193 1.253-.142h.001c.396-.396 1.038-.396 1.434 0l3.592 3.592c.396.396.396 1.038 0 1.434l-.001.002c-.335.334-.395.855-.14 1.255 2.193 3.443 3.363 7.603 3.07 12.051-.669 10.151-9.044 18.249-19.212 18.599-10.565.363-19.367-7.489-20.526-17.662-.053-.472-.428-.839-.899-.889l-.004-.001c-.557-.058-.96-.557-.902-1.114" fill="#7a79e1"/><path d="M35.094 310.367l.531-5.054c.059-.557.558-.961 1.114-.902.469.05.913-.23 1.063-.679 2.654-7.907 10.12-13.606 18.921-13.606 3.94 0 7.611 1.146 10.705 3.116.397.255.919.193 1.253-.142h.001c.396-.396 1.038-.396 1.434 0l3.592 3.592c.396.396.396 1.038 0 1.434l-.001.002c-.335.334-.395.855-.14 1.255 2.193 3.443 3.363 7.603 3.07 12.051-.669 10.151-9.044 18.249-19.212 18.599-10.565.363-19.367-7.489-20.526-17.662-.053-.472-.428-.839-.899-.889l-.004-.001c-.557-.058-.96-.557-.902-1.114z" stroke-miterlimit="10" stroke="#6a6ace" stroke-width="2" fill="none"/><g><defs><path id="u" d="M34.745 293.675h38.388v36.692h-38.388z"/></defs><clipPath id="v"><use overflow="visible" xlink:href="#u" width="100%" height="100%"/></clipPath><path d="M44.29 294.478c-.301 1.513-.462 3.077-.462 4.68 0 13.156 10.666 23.823 23.823 23.823 1.603 0 3.167-.161 4.68-.463-3.657 4.585-9.288 7.527-15.608 7.527-10.25 0-18.768-8.178-19.901-18.125-.022-.192-.783-.457-.945-.566-.694-.463-.945-.8-.739-1.405.578-1.689.299-3.457.739-5.104.074-.275 1.716-.47 1.801-.742 1.205-3.837 3.54-7.175 6.612-9.625" clip-path="url(#v)" fill="#6a6ace"/><path d="M44.29 294.478c-.301 1.513-.462 3.077-.462 4.68 0 13.156 10.666 23.823 23.823 23.823 1.603 0 3.167-.161 4.68-.463-3.657 4.585-9.288 7.527-15.608 7.527-10.25 0-18.768-8.178-19.901-18.125-.022-.192-.783-.457-.945-.566-.694-.463-.945-.8-.739-1.405.578-1.689.299-3.457.739-5.104.074-.275 1.716-.47 1.801-.742 1.205-3.837 3.54-7.175 6.612-9.625z" stroke-miterlimit="10" clip-path="url(#v)" stroke="#6a6ace" stroke-width="2" fill="none"/></g><path d="M63.135 312.261c0-2.115 1.715-3.83 3.831-3.83 2.115 0 3.83 1.715 3.83 3.83s-1.715 3.83-3.83 3.83c-2.116 0-3.831-1.715-3.831-3.83" fill="#7675dc"/><circle r="3.83" cy="312.261" cx="66.966" stroke-miterlimit="10" stroke="#6a6ace" stroke-width="2" fill="none"/><path d="M43.387 308.431c0-2.115 1.715-3.83 3.83-3.83s3.83 1.715 3.83 3.83-1.715 3.83-3.83 3.83-3.83-1.715-3.83-3.83" fill="#7a79e1"/><path d="M57.294 320.736c0-1.613 1.308-2.92 2.92-2.92 1.613 0 2.92 1.307 2.92 2.92s-1.307 2.921-2.92 2.921c-1.612 0-2.92-1.307-2.92-2.921" fill="#7a79e1"/><path d="M49.108 322.367c0-1.07.868-1.938 1.938-1.938 1.07 0 1.938.868 1.938 1.938 0 1.07-.868 1.938-1.938 1.938-1.07 0-1.938-.867-1.938-1.938" fill="#7a79e1"/><path d="M43.007 316.388c0-.788.639-1.429 1.428-1.429.789 0 1.428.641 1.428 1.429s-.639 1.429-1.428 1.429c-.789-.001-1.428-.641-1.428-1.429" fill="#7a79e1"/><path d="M50.445 300.084c0-1.403 1.137-2.54 2.54-2.54s2.54 1.137 2.54 2.54c0 1.402-1.137 2.54-2.54 2.54s-2.54-1.138-2.54-2.54" fill="#7675dc"/><circle r="2.54" cy="300.084" cx="52.985" stroke-miterlimit="10" stroke="#6a6ace" stroke-width="2" fill="none"/><path d="M63.713 299.187c0-.976.791-1.766 1.765-1.766.975 0 1.766.79 1.766 1.766 0 .975-.791 1.766-1.766 1.766-.974-.001-1.765-.792-1.765-1.766" fill="#7675dc"/><circle r="1.765" cy="299.187" cx="65.479" stroke-miterlimit="10" stroke="#6a6ace" stroke-width="2" fill="none"/><path fill="#8c99a8" d="M72.476 331.104l2.319-3.097"/><path fill="#8c99a8" d="M67.901 326.287l3.194-2.187"/><path fill="#8c99a8" d="M66.242 323.451l3.465-1.723"/><path fill="#8c99a8" d="M64.979 320.462l3.645-1.305"/><path d="M39.385 287.157c0-.621.502-1.124 1.123-1.124.62 0 1.124.503 1.124 1.124 0 .62-.503 1.122-1.124 1.122-.62 0-1.123-.502-1.123-1.122" fill="#7778df"/><path d="M54.101 287.34c0-.346.28-.626.627-.626.346 0 .626.28.626.626 0 .347-.281.627-.626.627-.347 0-.627-.28-.627-.627" fill="#7778df"/><path d="M36.791 324.211c0-.346.281-.626.626-.626.346 0 .626.28.626.626s-.28.628-.626.628-.626-.282-.626-.628" fill="#7778df"/><path d="M66.931 287.652c0-.172.14-.313.313-.313s.313.141.313.313c0 .174-.14.314-.313.314-.173.001-.313-.14-.313-.314" fill="#7778df"/></g><path d="M33 74.588c0-13.717 11.12-24.837 24.836-24.837 13.717 0 24.836 11.12 24.836 24.837s-11.12 24.836-24.836 24.836c-13.715.001-24.836-11.119-24.836-24.836" fill="#7a79e1"/><circle r="24.836" cy="74.588" cx="57.837" stroke-miterlimit="10" stroke="#6a6ace" stroke-width="2" fill="none"/><g><defs><path d="M82.673 74.588c0 8.833-4.611 16.59-11.558 20.993h-26.555c-6.947-4.403-11.559-12.16-11.559-20.993 0-13.717 11.12-24.836 24.836-24.836 13.717 0 24.836 11.12 24.836 24.836" id="w"/></defs><clipPath id="x"><use overflow="visible" xlink:href="#w" width="100%" height="100%"/></clipPath><path d="M31.994 131.612l12.682 2.197c-1.57-2.997-3.479-6.343-2.265-9.928 1.387-4.097 4.956-7.562 6.607-11.693.697-1.741 1.724-4.203.551-5.884 0 0-7.229-.655-5.529-6.243.604-1.982 4.781.426 6.81.483 1.73.049 3.133-1.331 4.078-2.651 1.897-2.651 3.833-6.756 5.569-9.555 1.493-2.407 2.449-3.299 2.476-6.148.034-3.601-3.623-4.048-6.716-1.783-1.378 1.009-3.986-.769-5.55.068-1.926 1.031-1.723 3.992-3.618 5.291-3.712 2.543-5.979 1.234-10.006-.39-3.997-1.612-7.511.136-10.325 3.281-.77.86-6.224 8.513-6.537 4.107-.107-1.516 2.602-4.299 3.219-5.609.853-1.811 1.422-3.782 1.488-5.765.116-3.458-1.771-8.359-5.705-5.186-3.597 2.901-1.732 7.323-3.34 11.011-.779 1.786-1.901 2.999-2.454 4.895-.533 1.829-.974 3.568-1.708 5.375-.806 1.983-1.893 4.041-2.09 6.179-.382 4.149 12.139 4.066 12.871 7.886.58 3.029-8.265 7.344-6.161 9.854l1.453 1.612c1.682 1.816 3.01 3.391 2.347 6.544" clip-path="url(#x)" fill="#7675dc"/><path d="M31.994 131.612l12.682 2.197c-1.57-2.997-3.479-6.343-2.265-9.928 1.387-4.097 4.956-7.562 6.607-11.693.697-1.741 1.724-4.203.551-5.884 0 0-7.229-.655-5.529-6.243.604-1.982 4.781.426 6.81.483 1.73.049 3.133-1.331 4.078-2.651 1.897-2.651 3.833-6.756 5.569-9.555 1.493-2.407 2.449-3.299 2.476-6.148.034-3.601-3.623-4.048-6.716-1.783-1.378 1.009-3.986-.769-5.55.068-1.926 1.031-1.723 3.992-3.618 5.291-3.712 2.543-5.979 1.234-10.006-.39-3.997-1.612-7.511.136-10.325 3.281-.77.86-6.224 8.513-6.537 4.107-.107-1.516 2.602-4.299 3.219-5.609.853-1.811 1.422-3.782 1.488-5.765.116-3.458-1.771-8.359-5.705-5.186-3.597 2.901-1.732 7.323-3.34 11.011-.779 1.786-1.901 2.999-2.454 4.895-.533 1.829-.974 3.568-1.708 5.375-.806 1.983-1.893 4.041-2.09 6.179-.382 4.149 12.139 4.066 12.871 7.886.58 3.029-8.265 7.344-6.161 9.854l1.453 1.612c1.682 1.816 3.01 3.391 2.347 6.544" stroke-miterlimit="10" clip-path="url(#x)" stroke="#6a6ace" stroke-width="2" fill="none"/><path d="M39.739 36.076c3.916-2.468 7.53 2.274 11.889 1.645 3.968-.573 5.936-2.78 10.423-2.357 3.196.302 8.248 1.642 10.194 4.023.902 1.104.58 2.477 1.352 3.595 1.241 1.799 3.702 2.771 4.914 4.539 4.744 6.915-4.751 10.19-11.72 9.594-3.713-.317-7.935-1.435-9.02 2.239-1.042 3.529.707 6.877-2.841 9.886-5.294 4.489-17.856 2.162-23.658-1.241-1.422-.833-2.367-2.104-3.798-2.909-1.906-1.072-3.925-.794-5.783-1.641-3.084-1.406-5.105-4.195-6.019-6.872-1.518-4.449-.516-18.149 7.938-17.57 3.491.24 5.065 4.047 8.709 1.428.663-.476.821-1.776 1.654-2.401 1.601-1.202 4.043-.872 5.766-1.958" clip-path="url(#x)" fill="#7675dc"/><path d="M39.739 36.076c3.916-2.468 7.53 2.274 11.889 1.645 3.968-.573 5.936-2.78 10.423-2.357 3.196.302 8.248 1.642 10.194 4.023.902 1.104.58 2.477 1.352 3.595 1.241 1.799 3.702 2.771 4.914 4.539 4.744 6.915-4.751 10.19-11.72 9.594-3.713-.317-7.935-1.435-9.02 2.239-1.042 3.529.707 6.877-2.841 9.886-5.294 4.489-17.856 2.162-23.658-1.241-1.422-.833-2.367-2.104-3.798-2.909-1.906-1.072-3.925-.794-5.783-1.641-3.084-1.406-5.105-4.195-6.019-6.872-1.518-4.449-.516-18.149 7.938-17.57 3.491.24 5.065 4.047 8.709 1.428.663-.476.821-1.776 1.654-2.401 1.601-1.202 4.043-.872 5.766-1.958z" stroke-miterlimit="10" clip-path="url(#x)" stroke="#6a6ace" stroke-width="2" fill="none"/></g><g><defs><path id="y" d="M32.667 54.409h45.349v45.349h-45.349z"/></defs><clipPath id="z"><use overflow="visible" xlink:href="#y" width="100%" height="100%"/></clipPath><path d="M42.352 55.238c-.375 1.879-.574 3.823-.574 5.813 0 16.347 13.251 29.598 29.597 29.598 1.99 0 3.934-.199 5.813-.574-4.543 5.696-11.538 9.351-19.391 9.351-13.695 0-24.796-11.101-24.796-24.795 0-7.856 3.654-14.851 9.351-19.393" clip-path="url(#z)" fill="#6a6ace"/><path d="M42.352 55.238c-.375 1.879-.574 3.823-.574 5.813 0 16.347 13.251 29.598 29.597 29.598 1.99 0 3.934-.199 5.813-.574-4.543 5.696-11.538 9.351-19.391 9.351-13.695 0-24.796-11.101-24.796-24.795 0-7.856 3.654-14.851 9.351-19.393z" stroke-miterlimit="10" clip-path="url(#z)" stroke="#6a6ace" stroke-width="2" fill="none"/></g><path d="M123.473 147.847c0-1.924 1.56-3.483 3.483-3.483s3.482 1.559 3.482 3.483c0 1.924-1.56 3.483-3.482 3.483-1.923 0-3.483-1.559-3.483-3.483" fill="#7778df"/><path d="M347.682 181.935c0-1.924 1.56-3.483 3.483-3.483s3.482 1.559 3.482 3.483c0 1.924-1.56 3.483-3.482 3.483-1.924-.001-3.483-1.559-3.483-3.483" fill="#7778df"/><path d="M76.037 138.994c0-1.924 1.56-3.483 3.483-3.483s3.482 1.56 3.482 3.483-1.56 3.482-3.482 3.482c-1.923.001-3.483-1.558-3.483-3.482" fill="#7778df"/><path d="M384.907 25.926c0-1.924 1.559-3.483 3.483-3.483 1.923 0 3.483 1.559 3.483 3.483 0 1.924-1.561 3.483-3.483 3.483-1.924 0-3.483-1.559-3.483-3.483" fill="#7778df"/><path d="M403.972 89.267c6.368 12.761 7.788 34.678 3.216 50.718-3.74 13.121-12.969 24.453-22.565 29.058-16.865 8.09-40.515.486-49.356-14.48-10.621-17.978-7.224-43.396 7.239-58.411 10.803-11.216 24.18-17.811 40.245-18.102l2.003-.004 6.214 6.648c-17.581-1.243-32.391 4.144-43.78 15.966-13.22 13.727-15.672 34.792-5.961 51.228 5.365 9.083 15.812 14.232 26.702 14.232 4.967 0 10.028-1.072 14.738-3.332 10.783-5.174 15.888-16.225 18.271-24.585 4.719-16.556 2.833-37.571-4.387-48.884-.751-1.175-1.528-2.342-2.313-3.467l-.272-.392-.006-.008-.42-.559-6.397-8.369c-11.516-12.294-26.218-19.226-43.785-20.806-26.013-2.338-54.307 9.161-58.843 40.144-1.792 12.246 1.605 23.132 5.208 34.674 1.764 5.654 3.588 11.501 4.802 17.618 2.295 11.557-.629 23.115-7.632 30.163-3.717 3.741-10.581 8.202-22.173 8.202-1.719 0-3.512-.106-5.354-.301v2.52c1.877.19 3.663.281 5.354.281 12.151 0 19.601-4.565 23.946-8.94 7.58-7.629 10.766-20.049 8.311-32.412-1.241-6.253-3.088-12.171-4.873-17.894-3.51-11.246-6.824-21.868-5.115-33.55 4.299-29.363 31.296-40.252 56.145-38.016 16.931 1.523 30.447 7.909 41.621 19.837-16.755.303-30.961 6.388-42.248 18.106-15.238 15.821-18.066 40.101-6.876 59.043 9.485 16.055 31.849 22.09 49.849 13.454 10.261-4.923 17.768-14.835 21.71-28.664 4.819-16.911 3.401-37.451-3.218-50.716 9.518 2.302 18.184 5.998 24.83 9.365 18.285 9.265 37.947 9.421 52.598.42 14.769-9.073 23.126-26.661 23.732-49.676l-2.515.267c-.655 21.965-8.645 38.75-22.526 47.279-13.905 8.542-32.656 8.348-50.159-.52-8.591-4.353-17.128-7.571-25.372-9.565l-2.286-.553-5.09-7.443c10.621 1.745 24.426 6.057 35.687 11.763 16.252 8.235 30.567 8.91 43.278 1.1 13.758-8.451 19.438-19.489 19.878-39.729-.44 20.288-7.01 31.836-19.338 39.409-11.965 7.351-28.346 7.06-43.818-.78-12.159-6.161-24.314-10.153-35.687-11.763m-1.994 1.509-.748 10.314c6.875 10.772 8.633 30.915 4.09 46.854-2.242 7.866-7.003 18.245-16.947 23.017-13.898 6.667-31.037 2.218-38.207-9.918-9.142-15.473-6.834-35.302 5.609-48.222 11.03-11.451 24.196-15.396 37.107-15.396 2.041 0 4.073.099 6.092.282.763 1.094 1.516 2.223 2.256 3.383z" opacity=".5" fill="#535b6b"/></g><path d="M30.422 2c-15.746 0-28.422 10.676-28.422 23.936v155.203c0 13.26 12.676 23.934 28.422 23.934h198.897c13.29 17.068 14.985 36.159-.125 47.684 20.497-7.482 39.296-27.931 51.137-47.684h185.408c15.746 0 28.422-10.674 28.422-23.934v-155.203c0-13.26-12.676-23.936-28.422-23.936h-435.316z" stroke="#9a9af0" stroke-width="4" stroke-linejoin="round" fill="none"/></g></svg>