<?xml version="1.0" encoding="UTF-8" standalone="no"?>
<!-- Created with Inkscape (http://www.inkscape.org/) -->

<svg
   xmlns:dc="http://purl.org/dc/elements/1.1/"
   xmlns:cc="http://creativecommons.org/ns#"
   xmlns:rdf="http://www.w3.org/1999/02/22-rdf-syntax-ns#"
   xmlns:svg="http://www.w3.org/2000/svg"
   xmlns="http://www.w3.org/2000/svg"
   xmlns:xlink="http://www.w3.org/1999/xlink"
   xmlns:sodipodi="http://sodipodi.sourceforge.net/DTD/sodipodi-0.dtd"
   xmlns:inkscape="http://www.inkscape.org/namespaces/inkscape"
   width="140.02742mm"
   height="153.61324mm"
   viewBox="0 0 496.16015 544.29886"
   id="svg2"
   version="1.1"
   inkscape:version="0.91 r13725"
   sodipodi:docname="404_illustration.svg">
  <defs
     id="defs4" />
  <sodipodi:namedview
     id="base"
     pagecolor="#ffffff"
     bordercolor="#666666"
     borderopacity="1.0"
     inkscape:pageopacity="0.0"
     inkscape:pageshadow="2"
     inkscape:zoom="0.98994949"
     inkscape:cx="125.01238"
     inkscape:cy="214.40591"
     inkscape:document-units="px"
     inkscape:current-layer="layer1"
     showgrid="false"
     fit-margin-top="0"
     fit-margin-left="0"
     fit-margin-right="0"
     fit-margin-bottom="0"
     inkscape:window-width="1920"
     inkscape:window-height="1017"
     inkscape:window-x="-8"
     inkscape:window-y="-8"
     inkscape:window-maximized="1" />
  <metadata
     id="metadata7">
    <rdf:RDF>
      <cc:Work
         rdf:about="">
        <dc:format>image/svg+xml</dc:format>
        <dc:type
           rdf:resource="http://purl.org/dc/dcmitype/StillImage" />
        <dc:title></dc:title>
      </cc:Work>
    </rdf:RDF>
  </metadata>
  <g
     inkscape:label="Layer 1"
     inkscape:groupmode="layer"
     id="layer1"
     transform="translate(-119.79809,-255.96491)">
    <g
       id="g4731"
       transform="translate(108.49428,447.94378)">
      <g
         id="g4137">
        <defs
           id="defs4139">
          <path
             d="m 82.673,74.588 c 0,8.833 -4.611,16.59 -11.558,20.993 l -26.555,0 C 37.613,91.178 33.001,83.421 33.001,74.588 c 0,-13.717 11.12,-24.836 24.836,-24.836 13.717,0 24.836,11.12 24.836,24.836"
             id="SVGID_1_"
             inkscape:connector-curvature="0" />
        </defs>
        <clipPath
           id="SVGID_2_">
          <use
             id="use4143"
             overflow="visible"
             xlink:href="#SVGID_1_"
             style="overflow:visible"
             x="0"
             y="0"
             width="100%"
             height="100%" />
        </clipPath>
        <path
           id="path4145"
           d="m 109.759,109.416 c -6.529,1.178 -8.787,-7.065 -14.917,-8.57 -5.58,-1.37 -9.381,0.507 -15.118,-2.465 C 75.639,96.263 69.644,91.77 68.338,87.56 67.732,85.609 68.898,83.958 68.473,82.058 67.789,79 65.04,76.386 64.379,73.387 61.788,61.649 76.165,62.396 85.107,66.931 c 4.763,2.416 9.772,6.168 13.188,1.868 3.28,-4.129 2.754,-9.52 9.084,-11.613 9.447,-3.123 24.893,6.716 30.776,14.354 1.441,1.872 2.016,4.067 3.485,5.906 1.958,2.449 4.79,3.164 6.804,5.287 3.343,3.524 4.533,8.317 4.309,12.365 -0.372,6.728 -9.061,24.397 -19.984,19.086 -4.511,-2.193 -4.558,-8.096 -10.808,-6.575 -1.138,0.277 -2.044,1.92 -3.488,2.303 -2.772,0.736 -5.84,-1.014 -8.714,-0.496"
           clip-path="url(#SVGID_2_)"
           inkscape:connector-curvature="0"
           style="fill:#7675dc" />
        <path
           id="path4147"
           d="m 109.759,109.416 c -6.529,1.178 -8.787,-7.065 -14.917,-8.57 -5.58,-1.37 -9.381,0.507 -15.118,-2.465 C 75.639,96.263 69.644,91.77 68.338,87.56 67.732,85.609 68.898,83.958 68.473,82.058 67.789,79 65.04,76.386 64.379,73.387 61.788,61.649 76.165,62.396 85.107,66.931 c 4.763,2.416 9.772,6.168 13.188,1.868 3.28,-4.129 2.754,-9.52 9.084,-11.613 9.447,-3.123 24.893,6.716 30.776,14.354 1.441,1.872 2.016,4.067 3.485,5.906 1.958,2.449 4.79,3.164 6.804,5.287 3.343,3.524 4.533,8.317 4.309,12.365 -0.372,6.728 -9.061,24.397 -19.984,19.086 -4.511,-2.193 -4.558,-8.096 -10.808,-6.575 -1.138,0.277 -2.044,1.92 -3.488,2.303 -2.772,0.736 -5.84,-1.014 -8.714,-0.496 z"
           stroke-miterlimit="10"
           clip-path="url(#SVGID_2_)"
           inkscape:connector-curvature="0"
           style="fill:none;stroke:#6a6ace;stroke-width:2;stroke-miterlimit:10" />
      </g>
      <g
         id="g4149">
        <g
           id="g4151">
          <path
             id="path4153"
             d="m 317.276,207.497 c 4.097,-0.759 8.175,-1.878 12.189,-3.368 l -3.482,-9.374 c -21.463,7.972 -45.077,3.692 -60.167,-10.902 l -6.951,7.188 c 14.983,14.489 36.931,20.435 58.411,16.456 z"
             stroke-miterlimit="10"
             inkscape:connector-curvature="0"
             style="fill:#8c99a8;stroke:#535b6b;stroke-width:2;stroke-miterlimit:10" />
        </g>
        <path
           id="path4155"
           d="m 259.513,187.351 c 14.944,13.725 36.339,19.291 57.293,15.41 3.026,-0.56 6.042,-1.319 9.027,-2.277 l 1.176,3.163 c -4.013,1.492 -8.092,2.61 -12.189,3.369 -21.479,3.979 -43.428,-1.967 -58.411,-16.455 l 3.104,-3.21 z"
           inkscape:connector-curvature="0"
           style="opacity:0.5;fill:#535b6b" />
        <line
           id="line4157"
           y2="208.24699"
           x2="310.27399"
           y1="198.06"
           x1="309.41299"
           stroke-miterlimit="10"
           style="fill:none;stroke:#535b6b;stroke-width:2;stroke-linejoin:round;stroke-miterlimit:10" />
        <line
           id="line4159"
           y2="208.96899"
           x2="303.173"
           y1="198.74699"
           x1="303.396"
           stroke-miterlimit="10"
           style="fill:none;stroke:#535b6b;stroke-width:2;stroke-linejoin:round;stroke-miterlimit:10" />
        <line
           id="line4161"
           y2="208.27"
           x2="295.31299"
           y1="198.136"
           x1="296.66699"
           stroke-miterlimit="10"
           style="fill:none;stroke:#535b6b;stroke-width:2;stroke-linejoin:round;stroke-miterlimit:10" />
        <line
           id="line4163"
           y2="206.782"
           x2="287.71701"
           y1="196.85899"
           x1="290.181"
           stroke-miterlimit="10"
           style="fill:none;stroke:#535b6b;stroke-width:2;stroke-linejoin:round;stroke-miterlimit:10" />
        <line
           id="line4165"
           y2="204.444"
           x2="280.45599"
           y1="194.912"
           x1="284.15701"
           stroke-miterlimit="10"
           style="fill:none;stroke:#535b6b;stroke-width:2;stroke-linejoin:round;stroke-miterlimit:10" />
        <line
           id="line4167"
           y2="201.25101"
           x2="274.06201"
           y1="191.71899"
           x1="277.763"
           stroke-miterlimit="10"
           style="fill:none;stroke:#535b6b;stroke-width:2;stroke-linejoin:round;stroke-miterlimit:10" />
        <g
           id="g4169">
          <path
             id="path4171"
             d="m 342.367,204.568 c -0.047,0.005 -2.334,0.244 -5.597,0.365 -0.655,0.025 -1.003,-0.308 -0.822,-0.754 0.181,-0.445 0.817,-0.882 1.466,-0.966 4.378,-0.584 7.865,-1.382 8.146,-1.45 1.458,-0.341 2.364,-1.797 2.024,-3.259 -0.338,-1.456 -1.798,-2.364 -3.256,-2.024 -0.061,0.015 -3.027,0.696 -6.817,1.244 -0.647,0.093 -1.254,-0.147 -1.387,-0.516 -0.128,-0.369 0.253,-0.805 0.878,-0.993 3.523,-1.056 5.981,-1.951 6.175,-2.021 1.406,-0.515 2.131,-2.07 1.615,-3.479 -0.513,-1.406 -2.07,-2.13 -3.479,-1.617 -0.054,0.02 -3.583,1.301 -8.236,2.599 -0.63,0.176 -1.339,0.189 -1.588,0.056 -0.248,-0.137 -0.124,-0.651 0.27,-1.171 1.326,-1.741 2.122,-3.005 2.198,-3.13 0.794,-1.27 0.402,-2.939 -0.864,-3.734 -1.271,-0.795 -2.94,-0.408 -3.735,0.859 -0.019,0.029 -0.816,1.291 -2.139,3.006 -1.353,1.75 -3.132,3.098 -5.088,4.136 -3.618,1.919 -5.801,5.974 -5.141,10.252 0.751,4.864 4.924,8.345 9.695,8.383 1.081,0.012 2.163,-0.021 3.243,0.02 6.716,0.249 12.694,-0.376 13.015,-0.412 1.49,-0.159 2.567,-1.495 2.408,-2.983 -0.157,-1.491 -1.494,-2.571 -2.984,-2.411"
             inkscape:connector-curvature="0"
             style="fill:#ffffff" />
          <path
             id="path4173"
             d="m 342.367,204.568 c -0.047,0.005 -2.334,0.244 -5.597,0.365 -0.655,0.025 -1.003,-0.308 -0.822,-0.754 0.181,-0.445 0.817,-0.882 1.466,-0.966 4.378,-0.584 7.865,-1.382 8.146,-1.45 1.458,-0.341 2.364,-1.797 2.024,-3.259 -0.338,-1.456 -1.798,-2.364 -3.256,-2.024 -0.061,0.015 -3.027,0.696 -6.817,1.244 -0.647,0.093 -1.254,-0.147 -1.387,-0.516 -0.128,-0.369 0.253,-0.805 0.878,-0.993 3.523,-1.056 5.981,-1.951 6.175,-2.021 1.406,-0.515 2.131,-2.07 1.615,-3.479 -0.513,-1.406 -2.07,-2.13 -3.479,-1.617 -0.054,0.02 -3.583,1.301 -8.236,2.599 -0.63,0.176 -1.339,0.189 -1.588,0.056 -0.248,-0.137 -0.124,-0.651 0.27,-1.171 1.326,-1.741 2.122,-3.005 2.198,-3.13 0.794,-1.27 0.402,-2.939 -0.864,-3.734 -1.271,-0.795 -2.94,-0.408 -3.735,0.859 -0.019,0.029 -0.816,1.291 -2.139,3.006 -1.353,1.75 -3.132,3.098 -5.088,4.136 -3.618,1.919 -5.801,5.974 -5.141,10.252 0.751,4.864 4.924,8.345 9.695,8.383 1.081,0.012 2.163,-0.021 3.243,0.02 6.716,0.249 12.694,-0.376 13.015,-0.412 1.49,-0.159 2.567,-1.495 2.408,-2.983 -0.157,-1.491 -1.494,-2.571 -2.984,-2.411 z"
             stroke-miterlimit="10"
             inkscape:connector-curvature="0"
             style="fill:none;stroke:#535b6b;stroke-width:2;stroke-linejoin:round;stroke-miterlimit:10" />
          <path
             id="path4175"
             d="m 316.372,208.971 c -0.032,-0.106 -0.06,-0.213 -0.083,-0.321 l -2.488,-12.093 c -0.345,-1.673 0.732,-3.304 2.402,-3.649 1.668,-0.342 3.302,0.745 3.645,2.402 l 2.49,12.096 c 0.344,1.67 -0.731,3.303 -2.402,3.646 -1.559,0.323 -3.09,-0.598 -3.564,-2.081"
             inkscape:connector-curvature="0"
             style="fill:#ffffff" />
          <path
             id="path4177"
             d="m 316.372,208.971 c -0.032,-0.106 -0.06,-0.213 -0.083,-0.321 l -2.488,-12.093 c -0.345,-1.673 0.732,-3.304 2.402,-3.649 1.668,-0.342 3.302,0.745 3.645,2.402 l 2.49,12.096 c 0.344,1.67 -0.731,3.303 -2.402,3.646 -1.559,0.323 -3.09,-0.598 -3.564,-2.081 z"
             stroke-miterlimit="10"
             inkscape:connector-curvature="0"
             style="fill:none;stroke:#535b6b;stroke-width:2;stroke-linejoin:round;stroke-miterlimit:10" />
        </g>
      </g>
      <g
         id="g4179">
        <g
           id="g4181">
          <path
             id="path4183"
             d="m 132.68,217.635 c -4.145,-0.435 -8.298,-1.229 -12.416,-2.4 l 2.734,-9.618 c 22.022,6.26 45.227,0.137 59.123,-15.598 l 7.495,6.619 c -13.796,15.622 -35.209,23.274 -56.936,20.997 z"
             stroke-miterlimit="10"
             inkscape:connector-curvature="0"
             style="fill:#8c99a8;stroke:#535b6b;stroke-width:2;stroke-miterlimit:10" />
        </g>
        <path
           id="path4185"
           d="m 188.681,193.01 c -13.819,14.856 -34.71,22.088 -55.904,19.866 -3.061,-0.32 -6.127,-0.842 -9.179,-1.561 l -0.923,3.246 c 4.118,1.171 8.271,1.966 12.416,2.399 21.727,2.278 43.14,-5.374 56.937,-20.996 l -3.347,-2.954 z"
           inkscape:connector-curvature="0"
           style="opacity:0.5;fill:#535b6b" />
        <line
           id="line4187"
           y2="217.83099"
           x2="139.72"
           y1="207.608"
           x1="139.77699"
           stroke-miterlimit="10"
           style="fill:none;stroke:#535b6b;stroke-width:2;stroke-linejoin:round;stroke-miterlimit:10" />
        <line
           id="line4189"
           y2="217.992"
           x2="146.854"
           y1="207.82001"
           x1="145.828"
           stroke-miterlimit="10"
           style="fill:none;stroke:#535b6b;stroke-width:2;stroke-linejoin:round;stroke-miterlimit:10" />
        <line
           id="line4191"
           y2="216.679"
           x2="154.636"
           y1="206.68201"
           x1="152.489"
           stroke-miterlimit="10"
           style="fill:none;stroke:#535b6b;stroke-width:2;stroke-linejoin:round;stroke-miterlimit:10" />
        <line
           id="line4193"
           y2="214.599"
           x2="162.092"
           y1="204.899"
           x1="158.855"
           stroke-miterlimit="10"
           style="fill:none;stroke:#535b6b;stroke-width:2;stroke-linejoin:round;stroke-miterlimit:10" />
        <line
           id="line4195"
           y2="211.69701"
           x2="169.146"
           y1="202.485"
           x1="164.707"
           stroke-miterlimit="10"
           style="fill:none;stroke:#535b6b;stroke-width:2;stroke-linejoin:round;stroke-miterlimit:10" />
        <line
           id="line4197"
           y2="208.011"
           x2="175.27"
           y1="198.799"
           x1="170.83099"
           stroke-miterlimit="10"
           style="fill:none;stroke:#535b6b;stroke-width:2;stroke-linejoin:round;stroke-miterlimit:10" />
        <line
           id="line4199"
           y2="205.267"
           x2="180.048"
           y1="196.056"
           x1="175.60899"
           stroke-miterlimit="10"
           style="fill:none;stroke:#535b6b;stroke-width:2;stroke-linejoin:round;stroke-miterlimit:10" />
        <g
           id="g4201">
          <path
             id="path4203"
             d="m 107.437,216.688 c 0.047,0.001 2.347,0.06 5.608,-0.076 0.655,-0.026 0.975,-0.386 0.76,-0.816 -0.214,-0.429 -0.884,-0.814 -1.537,-0.848 -4.41,-0.237 -7.95,-0.76 -8.235,-0.805 -1.481,-0.225 -2.499,-1.606 -2.275,-3.09 0.223,-1.479 1.606,-2.499 3.087,-2.274 0.062,0.01 3.073,0.457 6.894,0.705 0.652,0.041 1.238,-0.246 1.341,-0.624 0.1,-0.377 -0.314,-0.782 -0.952,-0.921 -3.596,-0.775 -6.116,-1.475 -6.315,-1.529 -1.442,-0.401 -2.287,-1.896 -1.883,-3.342 0.4,-1.442 1.897,-2.286 3.34,-1.884 0.055,0.015 3.674,1.016 8.416,1.943 0.642,0.125 1.35,0.084 1.588,-0.069 0.236,-0.157 0.073,-0.659 -0.362,-1.146 -1.457,-1.632 -2.351,-2.83 -2.437,-2.947 -0.891,-1.204 -0.632,-2.899 0.568,-3.791 1.204,-0.894 2.899,-0.639 3.792,0.563 0.02,0.027 0.916,1.223 2.368,2.829 1.486,1.639 3.366,2.843 5.396,3.724 3.758,1.628 6.254,5.499 5.932,9.815 -0.367,4.908 -4.253,8.706 -9.006,9.118 -1.077,0.097 -2.158,0.15 -3.232,0.276 -6.675,0.774 -12.685,0.622 -13.006,0.612 -1.498,-0.042 -2.678,-1.29 -2.637,-2.786 0.04,-1.499 1.288,-2.68 2.787,-2.637"
             inkscape:connector-curvature="0"
             style="fill:#ffffff" />
          <path
             id="path4205"
             d="m 107.437,216.688 c 0.047,0.001 2.347,0.06 5.608,-0.076 0.655,-0.026 0.975,-0.386 0.76,-0.816 -0.214,-0.429 -0.884,-0.814 -1.537,-0.848 -4.41,-0.237 -7.95,-0.76 -8.235,-0.805 -1.481,-0.225 -2.499,-1.606 -2.275,-3.09 0.223,-1.479 1.606,-2.499 3.087,-2.274 0.062,0.01 3.073,0.457 6.894,0.705 0.652,0.041 1.238,-0.246 1.341,-0.624 0.1,-0.377 -0.314,-0.782 -0.952,-0.921 -3.596,-0.775 -6.116,-1.475 -6.315,-1.529 -1.442,-0.401 -2.287,-1.896 -1.883,-3.342 0.4,-1.442 1.897,-2.286 3.34,-1.884 0.055,0.015 3.674,1.016 8.416,1.943 0.642,0.125 1.35,0.084 1.588,-0.069 0.236,-0.157 0.073,-0.659 -0.362,-1.146 -1.457,-1.632 -2.351,-2.83 -2.437,-2.947 -0.891,-1.204 -0.632,-2.899 0.568,-3.791 1.204,-0.894 2.899,-0.639 3.792,0.563 0.02,0.027 0.916,1.223 2.368,2.829 1.486,1.639 3.366,2.843 5.396,3.724 3.758,1.628 6.254,5.499 5.932,9.815 -0.367,4.908 -4.253,8.706 -9.006,9.118 -1.077,0.097 -2.158,0.15 -3.232,0.276 -6.675,0.774 -12.685,0.622 -13.006,0.612 -1.498,-0.042 -2.678,-1.29 -2.637,-2.786 0.04,-1.499 1.288,-2.68 2.787,-2.637 z"
             stroke-miterlimit="10"
             inkscape:connector-curvature="0"
             style="fill:none;stroke:#535b6b;stroke-width:2;stroke-linejoin:round;stroke-miterlimit:10" />
          <path
             id="path4207"
             d="m 133.696,219.032 c 0.024,-0.108 0.044,-0.216 0.058,-0.326 l 1.53,-12.251 c 0.212,-1.695 -0.989,-3.236 -2.681,-3.45 -1.689,-0.209 -3.234,1.003 -3.445,2.683 l -1.532,12.253 c -0.211,1.692 0.989,3.235 2.682,3.446 1.58,0.2 3.033,-0.839 3.388,-2.355"
             inkscape:connector-curvature="0"
             style="fill:#ffffff" />
          <path
             id="path4209"
             d="m 133.696,219.032 c 0.024,-0.108 0.044,-0.216 0.058,-0.326 l 1.53,-12.251 c 0.212,-1.695 -0.989,-3.236 -2.681,-3.45 -1.689,-0.209 -3.234,1.003 -3.445,2.683 l -1.532,12.253 c -0.211,1.692 0.989,3.235 2.682,3.446 1.58,0.2 3.033,-0.839 3.388,-2.355 z"
             stroke-miterlimit="10"
             inkscape:connector-curvature="0"
             style="fill:none;stroke:#535b6b;stroke-width:2;stroke-linejoin:round;stroke-miterlimit:10" />
        </g>
      </g>
      <path
         id="path4211"
         d="m 502.073,49.7 -1.893,3.249 -2.263,-2.15 -1.892,1.175 c -0.44,20.288 -7.01,31.836 -19.338,39.409 -11.965,7.351 -28.346,7.06 -43.818,-0.78 C 420.71,84.442 408.555,80.45 397.182,78.84 383.47,60.722 366.365,51.26 343.937,49.243 c -34.385,-3.092 -61.466,15.69 -65.856,45.676 -2.006,13.709 1.773,25.822 5.429,37.535 1.715,5.497 3.489,11.182 4.637,16.965 1.473,7.418 0.705,17.701 -5.866,24.316 -5.726,5.763 -15.028,7.605 -26.898,5.328 l -1.695,8.839 c 4.05,0.777 7.715,1.117 11.031,1.117 12.151,0 19.601,-4.565 23.946,-8.94 7.58,-7.629 10.766,-20.049 8.311,-32.412 -1.241,-6.253 -3.088,-12.171 -4.873,-17.894 -3.51,-11.246 -6.824,-21.868 -5.115,-33.55 4.299,-29.363 31.296,-40.252 56.145,-38.016 16.931,1.523 30.447,7.909 41.621,19.837 -16.755,0.303 -30.961,6.388 -42.248,18.106 -15.238,15.821 -18.066,40.101 -6.876,59.043 9.485,16.055 31.849,22.09 49.849,13.454 10.261,-4.923 17.768,-14.835 21.71,-28.664 4.821,-16.913 3.403,-37.453 -3.216,-50.718 9.518,2.302 18.184,5.998 24.83,9.365 18.285,9.265 37.947,9.421 52.598,0.42 14.769,-9.073 23.126,-26.661 23.732,-49.676 l -3.06,0.326 z m -103.541,87.818 c -2.242,7.866 -7.003,18.245 -16.947,23.017 -13.898,6.667 -31.037,2.218 -38.207,-9.918 -9.142,-15.473 -6.834,-35.302 5.609,-48.222 11.03,-11.451 24.196,-15.396 37.107,-15.396 2.041,0 4.073,0.099 6.092,0.282 0.763,1.095 1.516,2.223 2.256,3.383 6.875,10.772 8.633,30.915 4.09,46.854 z"
         inkscape:connector-curvature="0"
         style="fill:#7c85d8" />
      <path
         id="path4213"
         d="m 502.073,49.7 -1.893,3.249 -2.263,-2.15 -1.892,1.175 c -0.44,20.288 -7.01,31.836 -19.338,39.409 -11.965,7.351 -28.346,7.06 -43.818,-0.78 C 420.71,84.442 408.555,80.45 397.182,78.84 383.47,60.722 366.365,51.26 343.937,49.243 c -34.385,-3.092 -61.466,15.69 -65.856,45.676 -2.006,13.709 1.773,25.822 5.429,37.535 1.715,5.497 3.489,11.182 4.637,16.965 1.473,7.418 0.705,17.701 -5.866,24.316 -5.726,5.763 -15.028,7.605 -26.898,5.328 l -1.695,8.839 c 4.05,0.777 7.715,1.117 11.031,1.117 12.151,0 19.601,-4.565 23.946,-8.94 7.58,-7.629 10.766,-20.049 8.311,-32.412 -1.241,-6.253 -3.088,-12.171 -4.873,-17.894 -3.51,-11.246 -6.824,-21.868 -5.115,-33.55 4.299,-29.363 31.296,-40.252 56.145,-38.016 16.931,1.523 30.447,7.909 41.621,19.837 -16.755,0.303 -30.961,6.388 -42.248,18.106 -15.238,15.821 -18.066,40.101 -6.876,59.043 9.485,16.055 31.849,22.09 49.849,13.454 10.261,-4.923 17.768,-14.835 21.71,-28.664 4.821,-16.913 3.403,-37.453 -3.216,-50.718 9.518,2.302 18.184,5.998 24.83,9.365 18.285,9.265 37.947,9.421 52.598,0.42 14.769,-9.073 23.126,-26.661 23.732,-49.676 l -3.06,0.326 z m -103.541,87.818 c -2.242,7.866 -7.003,18.245 -16.947,23.017 -13.898,6.667 -31.037,2.218 -38.207,-9.918 -9.142,-15.473 -6.834,-35.302 5.609,-48.222 11.03,-11.451 24.196,-15.396 37.107,-15.396 2.041,0 4.073,0.099 6.092,0.282 0.763,1.095 1.516,2.223 2.256,3.383 6.875,10.772 8.633,30.915 4.09,46.854 z"
         stroke-miterlimit="10"
         inkscape:connector-curvature="0"
         style="fill:none;stroke:#535b6b;stroke-width:1.5;stroke-miterlimit:10" />
      <path
         id="path4215"
         d="m 387.04,87.021 c 1.713,0.025 3.422,0.104 5.119,0.257 -2.375,-3.476 -4.684,-6.433 -7.336,-9.229 l -0.201,0 c -1.578,0.032 -3.129,0.126 -4.658,0.264 2.494,2.726 4.797,5.577 7.076,8.708 z"
         inkscape:connector-curvature="0"
         style="opacity:0.5;fill:#535b6b" />
      <path
         id="path4217"
         d="m 392.159,87.279 c -2.375,-3.476 -4.684,-6.433 -7.336,-9.229 l -0.201,0"
         stroke-miterlimit="10"
         inkscape:connector-curvature="0"
         style="fill:none;stroke:#535b6b;stroke-width:1.5;stroke-miterlimit:10" />
      <path
         id="path4219"
         d="m 403.972,89.267 c -1.975,-3.718 -4.463,-7.352 -6.788,-10.426"
         stroke-miterlimit="10"
         inkscape:connector-curvature="0"
         style="fill:none;stroke:#535b6b;stroke-width:1.5;stroke-miterlimit:10" />
      <path
         id="path4221"
         d="m 397.754,79.219 c 2.367,2.782 4.905,7.155 6.636,10.4 0.718,0.174 1.42,0.37 2.129,0.558 -1.939,-3.472 -4.214,-7.271 -6.537,-10.588 -0.744,-0.125 -1.491,-0.265 -2.228,-0.37 z"
         inkscape:connector-curvature="0"
         style="opacity:0.5;fill:#535b6b" />
      <line
         id="line4223"
         y2="50.868"
         x2="497.13"
         y1="43.479"
         x1="496.64401"
         stroke-miterlimit="10"
         style="fill:none;stroke:#535b6b;stroke-miterlimit:10" />
      <line
         id="line4225"
         y2="49.193001"
         x2="504.827"
         y1="39.342999"
         x1="504.37"
         stroke-miterlimit="10"
         style="fill:none;stroke:#535b6b;stroke-miterlimit:10" />
      <line
         id="line4227"
         y2="51.978001"
         x2="499.89499"
         y1="44.268002"
         x1="499.552"
         stroke-miterlimit="10"
         style="fill:none;stroke:#535b6b;stroke-miterlimit:10" />
      <line
         id="line4229"
         y2="49.229"
         x2="502.073"
         y1="46.013"
         x1="501.93201"
         stroke-miterlimit="10"
         style="fill:none;stroke:#535b6b;stroke-miterlimit:10" />
      <path
         id="path4231"
         d="m 191.619,166.196 65.885,-3.16 c 4.047,-0.193 7.486,2.931 7.68,6.977 l 2.352,48.992 -80.543,3.864 -2.35,-48.992 c -0.195,-4.048 2.929,-7.486 6.976,-7.681"
         inkscape:connector-curvature="0"
         style="fill:#ffffff" />
      <path
         id="path4233"
         d="m 191.619,166.196 65.885,-3.16 c 4.047,-0.193 7.486,2.931 7.68,6.977 l 2.352,48.992 -80.543,3.864 -2.35,-48.992 c -0.195,-4.048 2.929,-7.486 6.976,-7.681 z"
         stroke-miterlimit="10"
         inkscape:connector-curvature="0"
         style="fill:none;stroke:#535b6b;stroke-width:2;stroke-linejoin:round;stroke-miterlimit:10" />
      <path
         id="path4235"
         d="m 261.295,306.465 19.854,0.391 0.914,-46.322 -32.887,-32.352 -16.607,16.882 25.617,25.201 -0.637,32.3 c -0.042,2.112 1.635,3.857 3.746,3.9"
         inkscape:connector-curvature="0"
         style="fill:#8c99a8" />
      <path
         id="path4237"
         d="m 261.295,306.465 19.854,0.391 0.914,-46.322 -32.887,-32.352 -16.607,16.882 25.617,25.201 -0.637,32.3 c -0.042,2.112 1.635,3.857 3.746,3.9 z"
         stroke-miterlimit="10"
         inkscape:connector-curvature="0"
         style="fill:none;stroke:#535b6b;stroke-width:2;stroke-linejoin:round;stroke-miterlimit:10" />
      <path
         id="path4239"
         d="m 287.796,304.704 -6.443,-8.21 -23.675,-0.468 -0.129,6.528 c -0.041,2.116 1.643,3.861 3.759,3.898 l 25.407,0.426 c 1.132,0.022 1.78,-1.284 1.081,-2.174"
         inkscape:connector-curvature="0"
         style="fill:#8c99a8" />
      <path
         id="path4241"
         d="m 287.796,304.704 -6.443,-8.21 -23.675,-0.468 -0.129,6.528 c -0.041,2.116 1.643,3.861 3.759,3.898 l 25.407,0.426 c 1.132,0.022 1.78,-1.284 1.081,-2.174 z"
         stroke-miterlimit="10"
         inkscape:connector-curvature="0"
         style="fill:none;stroke:#535b6b;stroke-width:2;stroke-linejoin:round;stroke-miterlimit:10" />
      <g
         id="g4243"
         style="opacity:0.5">
        <defs
           id="defs4245">
          <rect
             height="7.6069999"
             width="31.014"
             transform="matrix(0.9833,0.182,-0.182,0.9833,59.9956,-44.4967)"
             y="300.90399"
             x="256.983"
             id="SVGID_3_"
             style="opacity:0.5" />
        </defs>
        <clipPath
           id="SVGID_4_">
          <use
             id="use4249"
             overflow="visible"
             xlink:href="#SVGID_3_"
             style="overflow:visible"
             x="0"
             y="0"
             width="100%"
             height="100%" />
        </clipPath>
        <path
           id="path4251"
           d="m 261.297,303.086 25.407,0.43 c 0.051,-0.001 0.095,-0.015 0.143,-0.02 l 0.949,1.208 c 0.699,0.892 0.051,2.194 -1.082,2.177 l -25.407,-0.428 c -2.116,-0.037 -3.8,-1.784 -3.758,-3.898 l 0.052,-2.607 c 0.317,1.76 1.839,3.109 3.696,3.138"
           clip-path="url(#SVGID_4_)"
           inkscape:connector-curvature="0"
           style="fill:#535b6b" />
      </g>
      <line
         id="line4253"
         y2="286.22299"
         x2="281.55701"
         y1="285.75699"
         x1="257.879"
         style="fill:#8c99a8" />
      <line
         id="line4255"
         y2="286.22299"
         x2="281.55701"
         y1="285.75699"
         x1="257.879"
         stroke-miterlimit="10"
         style="fill:none;stroke:#535b6b;stroke-width:2;stroke-linejoin:round;stroke-miterlimit:10" />
      <line
         id="line4257"
         y2="275.95401"
         x2="281.76001"
         y1="275.48801"
         x1="258.08301"
         style="fill:#8c99a8" />
      <line
         id="line4259"
         y2="275.95401"
         x2="281.76001"
         y1="275.48801"
         x1="258.08301"
         stroke-miterlimit="10"
         style="fill:none;stroke:#535b6b;stroke-width:2;stroke-linejoin:round;stroke-miterlimit:10" />
      <line
         id="line4261"
         y2="260.634"
         x2="282.061"
         y1="270.26901"
         x1="258.185"
         style="fill:#8c99a8" />
      <line
         id="line4263"
         y2="260.634"
         x2="282.061"
         y1="270.26901"
         x1="258.185"
         stroke-miterlimit="10"
         style="fill:none;stroke:#535b6b;stroke-width:2;stroke-linejoin:round;stroke-miterlimit:10" />
      <line
         id="line4265"
         y2="249.791"
         x2="271.14099"
         y1="266.67401"
         x1="254.535"
         style="fill:#8c99a8" />
      <line
         id="line4267"
         y2="249.791"
         x2="271.14099"
         y1="266.67401"
         x1="254.535"
         stroke-miterlimit="10"
         style="fill:none;stroke:#535b6b;stroke-width:2;stroke-linejoin:round;stroke-miterlimit:10" />
      <line
         id="line4269"
         y2="242.588"
         x2="263.81799"
         y1="259.47101"
         x1="247.213"
         style="fill:#8c99a8" />
      <line
         id="line4271"
         y2="242.588"
         x2="263.81799"
         y1="259.47101"
         x1="247.213"
         stroke-miterlimit="10"
         style="fill:none;stroke:#535b6b;stroke-width:2;stroke-linejoin:round;stroke-miterlimit:10" />
      <line
         id="line4273"
         y2="235.38499"
         x2="256.49701"
         y1="252.267"
         x1="239.89101"
         style="fill:#8c99a8" />
      <line
         id="line4275"
         y2="235.38499"
         x2="256.49701"
         y1="252.267"
         x1="239.89101"
         stroke-miterlimit="10"
         style="fill:none;stroke:#535b6b;stroke-width:2;stroke-linejoin:round;stroke-miterlimit:10" />
      <line
         id="line4277"
         y2="228.18201"
         x2="249.174"
         y1="245.063"
         x1="232.56799"
         style="fill:#8c99a8" />
      <line
         id="line4279"
         y2="228.18201"
         x2="249.174"
         y1="245.063"
         x1="232.56799"
         stroke-miterlimit="10"
         style="fill:none;stroke:#535b6b;stroke-width:2;stroke-linejoin:round;stroke-miterlimit:10" />
      <path
         id="path4281"
         d="m 201.572,309.328 -19.725,2.289 -5.343,-46.02 29.64,-35.353 18.147,15.216 -23.087,27.536 3.726,32.093 c 0.242,2.097 -1.261,3.996 -3.358,4.239"
         inkscape:connector-curvature="0"
         style="fill:#8c99a8" />
      <path
         id="path4283"
         d="m 201.572,309.328 -19.725,2.289 -5.343,-46.02 29.64,-35.353 18.147,15.216 -23.087,27.536 3.726,32.093 c 0.242,2.097 -1.261,3.996 -3.358,4.239 z"
         stroke-miterlimit="10"
         inkscape:connector-curvature="0"
         style="fill:none;stroke:#535b6b;stroke-width:2;stroke-linejoin:round;stroke-miterlimit:10" />
      <path
         id="path4285"
         d="m 175.025,310.113 5.627,-8.789 23.522,-2.732 0.753,6.485 c 0.244,2.103 -1.266,4.003 -3.368,4.241 l -25.25,2.857 c -1.125,0.128 -1.894,-1.107 -1.284,-2.062"
         inkscape:connector-curvature="0"
         style="fill:#8c99a8" />
      <path
         id="path4287"
         d="m 175.025,310.113 5.627,-8.789 23.522,-2.732 0.753,6.485 c 0.244,2.103 -1.266,4.003 -3.368,4.241 l -25.25,2.857 c -1.125,0.128 -1.894,-1.107 -1.284,-2.062 z"
         stroke-miterlimit="10"
         inkscape:connector-curvature="0"
         style="fill:none;stroke:#535b6b;stroke-width:2;stroke-linejoin:round;stroke-miterlimit:10" />
      <line
         id="line4289"
         y2="291.121"
         x2="179.467"
         y1="288.39001"
         x1="202.99001"
         style="fill:#8c99a8" />
      <line
         id="line4291"
         y2="291.121"
         x2="179.467"
         y1="288.39001"
         x1="202.99001"
         stroke-miterlimit="10"
         style="fill:none;stroke:#535b6b;stroke-width:2;stroke-linejoin:round;stroke-miterlimit:10" />
      <line
         id="line4293"
         y2="280.918"
         x2="178.283"
         y1="278.18799"
         x1="201.80499"
         style="fill:#8c99a8" />
      <line
         id="line4295"
         y2="280.918"
         x2="178.283"
         y1="278.18799"
         x1="201.80499"
         stroke-miterlimit="10"
         style="fill:none;stroke:#535b6b;stroke-width:2;stroke-linejoin:round;stroke-miterlimit:10" />
      <line
         id="line4297"
         y2="265.69699"
         x2="176.51601"
         y1="273.00299"
         x1="201.203"
         style="fill:#8c99a8" />
      <line
         id="line4299"
         y2="265.69699"
         x2="176.51601"
         y1="273.00299"
         x1="201.203"
         stroke-miterlimit="10"
         style="fill:none;stroke:#535b6b;stroke-width:2;stroke-linejoin:round;stroke-miterlimit:10" />
      <line
         id="line4301"
         y2="253.85899"
         x2="186.347"
         y1="269.07401"
         x1="204.494"
         style="fill:#8c99a8" />
      <line
         id="line4303"
         y2="253.85899"
         x2="186.347"
         y1="269.07401"
         x1="204.494"
         stroke-miterlimit="10"
         style="fill:none;stroke:#535b6b;stroke-width:2;stroke-linejoin:round;stroke-miterlimit:10" />
      <line
         id="line4305"
         y2="245.98599"
         x2="192.946"
         y1="261.203"
         x1="211.093"
         style="fill:#8c99a8" />
      <line
         id="line4307"
         y2="245.98599"
         x2="192.946"
         y1="261.203"
         x1="211.093"
         stroke-miterlimit="10"
         style="fill:none;stroke:#535b6b;stroke-width:2;stroke-linejoin:round;stroke-miterlimit:10" />
      <line
         id="line4309"
         y2="238.116"
         x2="199.54601"
         y1="253.33099"
         x1="217.692"
         style="fill:#8c99a8" />
      <line
         id="line4311"
         y2="238.116"
         x2="199.54601"
         y1="253.33099"
         x1="217.692"
         stroke-miterlimit="10"
         style="fill:none;stroke:#535b6b;stroke-width:2;stroke-linejoin:round;stroke-miterlimit:10" />
      <line
         id="line4313"
         y2="230.245"
         x2="206.145"
         y1="245.461"
         x1="224.29201"
         style="fill:#8c99a8" />
      <line
         id="line4315"
         y2="230.245"
         x2="206.145"
         y1="245.461"
         x1="224.29201"
         stroke-miterlimit="10"
         style="fill:none;stroke:#535b6b;stroke-width:2;stroke-linejoin:round;stroke-miterlimit:10" />
      <line
         id="line4317"
         y2="201.55299"
         x2="231.25301"
         y1="190.133"
         x1="227.567"
         style="fill:#8c99a8" />
      <line
         id="line4319"
         y2="201.55299"
         x2="231.25301"
         y1="190.133"
         x1="227.567"
         stroke-miterlimit="10"
         style="fill:none;stroke:#535b6b;stroke-width:2;stroke-linejoin:round;stroke-miterlimit:10" />
      <line
         id="line4321"
         y2="199.328"
         x2="239.683"
         y1="187.58"
         x1="237.23399"
         style="fill:#8c99a8" />
      <line
         id="line4323"
         y2="199.328"
         x2="239.683"
         y1="187.58"
         x1="237.23399"
         stroke-miterlimit="10"
         style="fill:none;stroke:#535b6b;stroke-width:2;stroke-linejoin:round;stroke-miterlimit:10" />
      <line
         id="line4325"
         y2="198.021"
         x2="248.28"
         y1="186.075"
         x1="247.142"
         style="fill:#8c99a8" />
      <line
         id="line4327"
         y2="198.021"
         x2="248.28"
         y1="186.075"
         x1="247.142"
         stroke-miterlimit="10"
         style="fill:none;stroke:#535b6b;stroke-width:2;stroke-linejoin:round;stroke-miterlimit:10" />
      <line
         id="line4329"
         y2="197.72701"
         x2="256.89001"
         y1="185.73"
         x1="257.23099"
         style="fill:#8c99a8" />
      <line
         id="line4331"
         y2="197.72701"
         x2="256.89001"
         y1="185.73"
         x1="257.23099"
         stroke-miterlimit="10"
         style="fill:none;stroke:#535b6b;stroke-width:2;stroke-linejoin:round;stroke-miterlimit:10" />
      <line
         id="line4333"
         y2="198.55299"
         x2="265.36099"
         y1="186.724"
         x1="267.379"
         style="fill:#8c99a8" />
      <line
         id="line4335"
         y2="194.84599"
         x2="210.53"
         y1="206.84399"
         x1="210.313"
         style="fill:#8c99a8" />
      <line
         id="line4337"
         y2="194.84599"
         x2="210.53"
         y1="206.84399"
         x1="210.313"
         stroke-miterlimit="10"
         style="fill:none;stroke:#535b6b;stroke-width:2;stroke-linejoin:round;stroke-miterlimit:10" />
      <line
         id="line4339"
         y2="194.217"
         x2="201.83501"
         y1="206.12399"
         x1="200.341"
         style="fill:#8c99a8" />
      <line
         id="line4341"
         y2="194.217"
         x2="201.83501"
         y1="206.12399"
         x1="200.341"
         stroke-miterlimit="10"
         style="fill:none;stroke:#535b6b;stroke-width:2;stroke-linejoin:round;stroke-miterlimit:10" />
      <line
         id="line4343"
         y2="192.66499"
         x2="193.28"
         y1="204.33501"
         x1="190.48199"
         style="fill:#8c99a8" />
      <line
         id="line4345"
         y2="192.66499"
         x2="193.28"
         y1="204.33501"
         x1="190.48199"
         stroke-miterlimit="10"
         style="fill:none;stroke:#535b6b;stroke-width:2;stroke-linejoin:round;stroke-miterlimit:10" />
      <line
         id="line4347"
         y2="190.15199"
         x2="185.03799"
         y1="201.38901"
         x1="180.826"
         style="fill:#8c99a8" />
      <path
         id="path4349"
         d="m 186.041,206.398 4.79,-0.57 2.234,-20.572 -9.427,0.948 c -2.493,0.295 -4.274,2.557 -3.978,5.05 l 1.331,11.168 c 0.297,2.494 2.557,4.273 5.05,3.976 z"
         stroke-miterlimit="10"
         inkscape:connector-curvature="0"
         style="fill:#ffffff;stroke:#535b6b;stroke-width:2;stroke-linejoin:round;stroke-miterlimit:10" />
      <path
         id="path4351"
         d="m 265.825,203.363 -4.819,-0.227 -3.699,-20.36 9.471,0.271 c 2.507,0.117 4.445,2.245 4.328,4.752 l -0.527,11.234 c -0.119,2.511 -2.246,4.447 -4.754,4.33 z"
         stroke-miterlimit="10"
         inkscape:connector-curvature="0"
         style="fill:#ffffff;stroke:#535b6b;stroke-width:2;stroke-linejoin:round;stroke-miterlimit:10" />
      <path
         id="path4353"
         d="m 198.395,177.149 c 0,0 -16.75,21.541 -16.111,59.207 0.114,6.722 4.771,12.497 11.266,14.231 8.164,2.181 20.537,4.425 35.365,3.714 l -0.094,0.005 c 14.828,-0.711 26.928,-4.131 34.846,-7.08 6.406,-2.388 10.385,-8.745 9.829,-15.56 -3.048,-37.353 -21.679,-57.08 -21.679,-57.08 l -53.422,2.563 z"
         inkscape:connector-curvature="0"
         style="fill:#ffffff" />
      <path
         id="path4355"
         d="m 198.395,177.149 c 0,0 -16.75,21.541 -16.111,59.207 0.114,6.722 4.771,12.497 11.266,14.231 8.164,2.181 20.537,4.425 35.365,3.714 l -0.094,0.005 c 14.828,-0.711 26.928,-4.131 34.846,-7.08 6.406,-2.388 10.385,-8.745 9.829,-15.56 -3.048,-37.353 -21.679,-57.08 -21.679,-57.08 l -53.422,2.563 z"
         stroke-miterlimit="10"
         inkscape:connector-curvature="0"
         style="fill:none;stroke:#535b6b;stroke-width:2;stroke-linejoin:round;stroke-miterlimit:10" />
      <rect
         id="rect4357"
         height="36.164001"
         width="36.161999"
         transform="matrix(-0.9989,0.0479,-0.0479,-0.9989,464.0134,419.0445)"
         y="197.004"
         x="208.901"
         style="fill:#ffffff" />
      <rect
         id="rect4359"
         height="36.164001"
         width="36.161999"
         stroke-miterlimit="10"
         transform="matrix(-0.9989,0.0479,-0.0479,-0.9989,464.0134,419.0445)"
         y="197.004"
         x="208.901"
         style="fill:none;stroke:#535b6b;stroke-width:2;stroke-linejoin:round;stroke-miterlimit:10" />
      <path
         id="path4361"
         d="m 215.156,215.652 c -0.313,-6.531 4.727,-12.08 11.258,-12.393 6.532,-0.313 12.08,4.728 12.394,11.259 0.312,6.531 -4.728,12.08 -11.259,12.394 -6.531,0.313 -12.08,-4.728 -12.393,-11.26"
         inkscape:connector-curvature="0"
         style="fill:#ffdb69" />
      <circle
         id="circle4363"
         r="11.84"
         cy="215.08501"
         cx="226.98199"
         stroke-miterlimit="10"
         style="fill:none;stroke:#ff9136;stroke-width:2;stroke-linejoin:round;stroke-miterlimit:10" />
      <g
         id="g4365">
        <defs
           id="defs4367">
          <rect
             height="23.684"
             width="23.684"
             transform="matrix(0.9833,0.182,-0.182,0.9833,42.9258,-37.7105)"
             y="203.244"
             x="215.13901"
             id="SVGID_5_" />
        </defs>
        <clipPath
           id="SVGID_6_">
          <use
             id="use4371"
             overflow="visible"
             xlink:href="#SVGID_5_"
             style="overflow:visible"
             x="0"
             y="0"
             width="100%"
             height="100%" />
        </clipPath>
        <path
           id="path4373"
           d="m 228.601,206.393 c 4.047,0.749 7.013,4.15 7.21,8.27 0.233,4.869 -3.538,9.019 -8.405,9.253 -0.688,0.033 -1.375,-0.013 -2.042,-0.136 -4.048,-0.75 -7.013,-4.15 -7.211,-8.271 -0.232,-4.869 3.538,-9.019 8.406,-9.253 0.688,-0.032 1.375,0.013 2.042,0.137 m 0.545,-2.95 c -0.881,-0.164 -1.797,-0.229 -2.732,-0.184 -6.531,0.313 -11.571,5.861 -11.258,12.393 0.269,5.596 4.38,10.1 9.662,11.077 0.882,0.163 1.796,0.227 2.731,0.183 6.531,-0.314 11.572,-5.863 11.259,-12.395 -0.268,-5.595 -4.381,-10.096 -9.662,-11.074"
           clip-path="url(#SVGID_6_)"
           inkscape:connector-curvature="0"
           style="fill:#f5ca5c" />
      </g>
      <circle
         id="circle4375"
         r="11.84"
         cy="215.08501"
         cx="226.98199"
         stroke-miterlimit="10"
         style="fill:none;stroke:#535b6b;stroke-width:2;stroke-linejoin:round;stroke-miterlimit:10" />
      <g
         id="g4377">
        <defs
           id="defs4379">
          <rect
             height="7.8070002"
             width="15.099"
             transform="matrix(0.9833,0.182,-0.182,0.9833,41.9647,-37.8186)"
             y="205.832"
             x="219.48801"
             id="SVGID_7_" />
        </defs>
        <clipPath
           id="SVGID_8_">
          <use
             id="use4383"
             overflow="visible"
             xlink:href="#SVGID_7_"
             style="overflow:visible"
             x="0"
             y="0"
             width="100%"
             height="100%" />
        </clipPath>
        <path
           id="path4385"
           d="m 226.783,210.927 c -3.758,0.179 -7.577,2.796 -7.684,0.562 -0.106,-2.231 3.195,-5.361 7.444,-5.565 4.248,-0.204 7.834,2.597 7.941,4.829 0.107,2.23 -3.942,-0.007 -7.701,0.174"
           clip-path="url(#SVGID_8_)"
           inkscape:connector-curvature="0"
           style="fill:#ffffff" />
      </g>
      <line
         id="line4387"
         y2="215.952"
         x2="208.922"
         y1="214.21899"
         x1="245.04201"
         style="fill:#ffffff" />
      <line
         id="line4389"
         y2="215.952"
         x2="208.922"
         y1="214.21899"
         x1="245.04201"
         stroke-miterlimit="10"
         style="fill:none;stroke:#535b6b;stroke-width:2;stroke-linejoin:round;stroke-miterlimit:10" />
      <path
         id="path4391"
         d="m 271.531,217.737 0,0 c -3.773,1.179 -7.762,-1.116 -8.605,-4.98 -1.875,-8.578 -5.922,-22.887 -13.445,-32.346 -1.852,-2.327 -2.469,-4.159 -2.234,-5.605 l 4.569,-0.219 c 0,0 14.006,14.848 19.715,43.15"
         inkscape:connector-curvature="0"
         style="fill:#ffffff" />
      <path
         id="path4393"
         d="m 271.531,217.737 0,0 c -3.773,1.179 -7.762,-1.116 -8.605,-4.98 -1.875,-8.578 -5.922,-22.887 -13.445,-32.346 -1.852,-2.327 -2.469,-4.159 -2.234,-5.605 l 4.569,-0.219 c 0,0 14.006,14.848 19.715,43.15 z"
         stroke-miterlimit="10"
         inkscape:connector-curvature="0"
         style="fill:none;stroke:#535b6b;stroke-width:2;stroke-linejoin:round;stroke-miterlimit:10" />
      <line
         id="line4395"
         y2="239.925"
         x2="210.07201"
         y1="238.194"
         x1="246.192"
         style="fill:#ffffff" />
      <line
         id="line4397"
         y2="239.925"
         x2="210.07201"
         y1="238.194"
         x1="246.192"
         stroke-miterlimit="10"
         style="fill:none;stroke:#9fadc1;stroke-width:2;stroke-linecap:round;stroke-linejoin:round;stroke-miterlimit:10" />
      <line
         id="line4399"
         y2="244.657"
         x2="210.299"
         y1="242.925"
         x1="246.41901"
         style="fill:#ffffff" />
      <line
         id="line4401"
         y2="244.657"
         x2="210.299"
         y1="242.925"
         x1="246.41901"
         stroke-miterlimit="10"
         style="fill:none;stroke:#9fadc1;stroke-width:2;stroke-linecap:round;stroke-linejoin:round;stroke-miterlimit:10" />
      <path
         id="path4403"
         d="m 236.845,188.763 c 0.091,1.921 1.725,3.405 3.646,3.314 1.923,-0.093 3.406,-1.726 3.314,-3.647 -0.092,-1.922 -1.726,-3.406 -3.647,-3.313 -1.923,0.091 -3.406,1.724 -3.313,3.646"
         inkscape:connector-curvature="0"
         style="fill:#f26a6a" />
      <circle
         id="circle4405"
         r="3.484"
         cy="188.597"
         cx="240.325"
         stroke-miterlimit="10"
         style="fill:none;stroke:#535b6b;stroke-width:2;stroke-linejoin:round;stroke-miterlimit:10" />
      <path
         id="path4407"
         d="m 207.686,190.162 c 0.091,1.922 1.725,3.406 3.646,3.314 1.923,-0.093 3.406,-1.727 3.315,-3.648 -0.092,-1.922 -1.726,-3.406 -3.647,-3.314 -1.924,0.093 -3.407,1.726 -3.314,3.648"
         inkscape:connector-curvature="0"
         style="fill:#f26a6a" />
      <circle
         id="circle4409"
         r="3.484"
         cy="189.995"
         cx="211.166"
         stroke-miterlimit="10"
         style="fill:none;stroke:#535b6b;stroke-width:2;stroke-linejoin:round;stroke-miterlimit:10" />
      <path
         id="path4411"
         d="m 222.265,189.463 c 0.091,1.922 1.724,3.406 3.646,3.313 1.923,-0.092 3.406,-1.725 3.314,-3.647 -0.092,-1.922 -1.726,-3.406 -3.647,-3.313 -1.922,0.091 -3.405,1.726 -3.313,3.647"
         inkscape:connector-curvature="0"
         style="fill:#f26a6a" />
      <circle
         id="circle4413"
         r="3.484"
         cy="189.29601"
         cx="225.746"
         stroke-miterlimit="10"
         style="fill:none;stroke:#535b6b;stroke-width:2;stroke-linejoin:round;stroke-miterlimit:10" />
      <path
         id="path4415"
         d="m 246.567,174.838 5.249,-0.252 c 0,0 18.63,19.727 21.678,57.08 0.031,0.382 0.043,0.762 0.047,1.141 l -0.102,-0.003 c -3.828,1.084 -7.703,-1.523 -8.162,-5.478 -1.286,-11.056 -5.046,-31.882 -15.797,-46.915 -1.517,-2.122 -2.449,-3.965 -2.913,-5.573"
         inkscape:connector-curvature="0"
         style="fill:#ffffff" />
      <path
         id="path4417"
         d="m 246.567,174.838 5.249,-0.252 c 0,0 18.63,19.727 21.678,57.08 0.031,0.382 0.043,0.762 0.047,1.141 l -0.102,-0.003 c -3.828,1.084 -7.703,-1.523 -8.162,-5.478 -1.286,-11.056 -5.046,-31.882 -15.797,-46.915 -1.517,-2.122 -2.449,-3.965 -2.913,-5.573 z"
         stroke-miterlimit="10"
         inkscape:connector-curvature="0"
         style="fill:none;stroke:#535b6b;stroke-width:2;stroke-linejoin:round;stroke-miterlimit:10" />
      <path
         id="path4419"
         d="m 203.469,176.906 -5.249,0.252 c 0,0 -16.657,21.42 -16.117,58.892 0.006,0.383 0.03,0.763 0.063,1.141 l 0.101,-0.014 c 3.916,0.713 7.523,-2.254 7.601,-6.232 0.222,-11.129 1.97,-32.22 11.234,-48.212 1.307,-2.258 2.059,-4.183 2.367,-5.827"
         inkscape:connector-curvature="0"
         style="fill:#ffffff" />
      <path
         id="path4421"
         d="m 203.469,176.906 -5.249,0.252 c 0,0 -16.657,21.42 -16.117,58.892 0.006,0.383 0.03,0.763 0.063,1.141 l 0.101,-0.014 c 3.916,0.713 7.523,-2.254 7.601,-6.232 0.222,-11.129 1.97,-32.22 11.234,-48.212 1.307,-2.258 2.059,-4.183 2.367,-5.827 z"
         stroke-miterlimit="10"
         inkscape:connector-curvature="0"
         style="fill:none;stroke:#535b6b;stroke-width:2;stroke-linejoin:round;stroke-miterlimit:10" />
      <path
         id="path4423"
         d="m 176.893,147.841 4.819,-0.23 -1.145,-23.865 -4.819,0.232 c -2.507,0.121 -4.442,2.25 -4.322,4.759 l 0.708,14.783 c 0.122,2.506 2.252,4.441 4.759,4.321"
         inkscape:connector-curvature="0"
         style="fill:#ffffff" />
      <path
         id="path4425"
         d="m 176.893,147.841 4.819,-0.23 -1.145,-23.865 -4.819,0.232 c -2.507,0.121 -4.442,2.25 -4.322,4.759 l 0.708,14.783 c 0.122,2.506 2.252,4.441 4.759,4.321 z"
         stroke-miterlimit="10"
         inkscape:connector-curvature="0"
         style="fill:none;stroke:#535b6b;stroke-width:2;stroke-linejoin:round;stroke-miterlimit:10" />
      <path
         id="path4427"
         d="m 176.893,147.841 4.819,-0.23 -1.145,-23.865 -4.819,0.232 c -2.507,0.121 -4.442,2.25 -4.322,4.759 l 0.708,14.783 c 0.122,2.506 2.252,4.441 4.759,4.321"
         inkscape:connector-curvature="0"
         style="fill:#ffffff" />
      <path
         id="path4429"
         d="m 176.893,147.841 4.819,-0.23 -1.145,-23.865 -4.819,0.232 c -2.507,0.121 -4.442,2.25 -4.322,4.759 l 0.708,14.783 c 0.122,2.506 2.252,4.441 4.759,4.321 z"
         stroke-miterlimit="10"
         inkscape:connector-curvature="0"
         style="fill:none;stroke:#535b6b;stroke-width:2;stroke-linejoin:round;stroke-miterlimit:10" />
      <line
         id="line4431"
         y2="129.42599"
         x2="175.584"
         y1="129.12199"
         x1="181.916"
         style="fill:#ffffff" />
      <line
         id="line4433"
         y2="129.42599"
         x2="175.584"
         y1="129.12199"
         x1="181.916"
         stroke-miterlimit="10"
         style="fill:none;stroke:#9fadc1;stroke-width:2;stroke-linecap:round;stroke-linejoin:round;stroke-miterlimit:10" />
      <line
         id="line4435"
         y2="142.435"
         x2="176.20799"
         y1="142.13"
         x1="182.53999"
         style="fill:#ffffff" />
      <line
         id="line4437"
         y2="142.435"
         x2="176.20799"
         y1="142.13"
         x1="182.53999"
         stroke-miterlimit="10"
         style="fill:none;stroke:#9fadc1;stroke-width:2;stroke-linecap:round;stroke-linejoin:round;stroke-miterlimit:10" />
      <line
         id="line4439"
         y2="135.92999"
         x2="175.896"
         y1="135.62601"
         x1="182.228"
         style="fill:#ffffff" />
      <line
         id="line4441"
         y2="135.92999"
         x2="175.896"
         y1="135.62601"
         x1="182.228"
         stroke-miterlimit="10"
         style="fill:none;stroke:#9fadc1;stroke-width:2;stroke-linecap:round;stroke-linejoin:round;stroke-miterlimit:10" />
      <path
         id="path4443"
         d="m 270.235,143.364 -4.819,0.23 -1.144,-23.862 4.817,-0.231 c 2.508,-0.12 4.639,1.814 4.758,4.323 l 0.709,14.783 c 0.122,2.506 -1.814,4.637 -4.321,4.757"
         inkscape:connector-curvature="0"
         style="fill:#ffffff" />
      <path
         id="path4445"
         d="m 270.235,143.364 -4.819,0.23 -1.144,-23.862 4.817,-0.231 c 2.508,-0.12 4.639,1.814 4.758,4.323 l 0.709,14.783 c 0.122,2.506 -1.814,4.637 -4.321,4.757 z"
         stroke-miterlimit="10"
         inkscape:connector-curvature="0"
         style="fill:none;stroke:#535b6b;stroke-width:2;stroke-linejoin:round;stroke-miterlimit:10" />
      <path
         id="path4447"
         d="m 270.235,143.364 -4.819,0.23 -1.144,-23.862 4.817,-0.231 c 2.508,-0.12 4.639,1.814 4.758,4.323 l 0.709,14.783 c 0.122,2.506 -1.814,4.637 -4.321,4.757"
         inkscape:connector-curvature="0"
         style="fill:#ffffff" />
      <path
         id="path4449"
         d="m 270.235,143.364 -4.819,0.23 -1.144,-23.862 4.817,-0.231 c 2.508,-0.12 4.639,1.814 4.758,4.323 l 0.709,14.783 c 0.122,2.506 -1.814,4.637 -4.321,4.757 z"
         stroke-miterlimit="10"
         inkscape:connector-curvature="0"
         style="fill:none;stroke:#535b6b;stroke-width:2;stroke-linejoin:round;stroke-miterlimit:10" />
      <line
         id="line4451"
         y2="124.908"
         x2="269.77499"
         y1="125.211"
         x1="263.44299"
         style="fill:#ffffff" />
      <line
         id="line4453"
         y2="124.908"
         x2="269.77499"
         y1="125.211"
         x1="263.44299"
         stroke-miterlimit="10"
         style="fill:none;stroke:#9fadc1;stroke-width:2;stroke-linecap:round;stroke-linejoin:round;stroke-miterlimit:10" />
      <line
         id="line4455"
         y2="137.91701"
         x2="270.39999"
         y1="138.22"
         x1="264.06799"
         style="fill:#ffffff" />
      <line
         id="line4457"
         y2="137.91701"
         x2="270.39999"
         y1="138.22"
         x1="264.06799"
         stroke-miterlimit="10"
         style="fill:none;stroke:#9fadc1;stroke-width:2;stroke-linecap:round;stroke-linejoin:round;stroke-miterlimit:10" />
      <line
         id="line4459"
         y2="131.412"
         x2="270.08801"
         y1="131.715"
         x1="263.75601"
         style="fill:#ffffff" />
      <line
         id="line4461"
         y2="131.412"
         x2="270.08801"
         y1="131.715"
         x1="263.75601"
         stroke-miterlimit="10"
         style="fill:none;stroke:#9fadc1;stroke-width:2;stroke-linecap:round;stroke-linejoin:round;stroke-miterlimit:10" />
      <path
         id="path4463"
         d="m 252.355,168.546 -55.255,2.65 c -11.313,-7.806 -18.99,-20.604 -19.699,-35.394 -1.208,-25.177 18.223,-46.567 43.401,-47.775 25.178,-1.208 46.567,18.225 47.775,43.402 0.71,14.789 -5.706,28.265 -16.222,37.117"
         inkscape:connector-curvature="0"
         style="fill:#ffffff" />
      <path
         id="path4465"
         d="m 252.355,168.546 -55.255,2.65 c -11.313,-7.806 -18.99,-20.604 -19.699,-35.394 -1.208,-25.177 18.223,-46.567 43.401,-47.775 25.178,-1.208 46.567,18.225 47.775,43.402 0.71,14.789 -5.706,28.265 -16.222,37.117 z"
         stroke-miterlimit="10"
         inkscape:connector-curvature="0"
         style="fill:none;stroke:#535b6b;stroke-width:2;stroke-linejoin:round;stroke-miterlimit:10" />
      <path
         id="path4467"
         d="m 242.801,161.384 -36.86,1.769 c -4.725,0.226 -9.31,-1.752 -12.319,-5.399 -5.617,-6.812 -8.927,-15.629 -8.646,-25.322 0.54,-18.676 14.953,-34.406 33.51,-36.578 22.121,-2.59 41.438,14.075 42.488,35.941 0.412,8.614 -2.083,16.687 -6.614,23.287 -2.614,3.808 -6.944,6.081 -11.559,6.302"
         inkscape:connector-curvature="0"
         style="fill:#ffdb69" />
      <path
         id="path4469"
         d="m 242.801,161.384 -36.86,1.769 c -4.725,0.226 -9.31,-1.752 -12.319,-5.399 -5.617,-6.812 -8.927,-15.629 -8.646,-25.322 0.54,-18.676 14.953,-34.406 33.51,-36.578 22.121,-2.59 41.438,14.075 42.488,35.941 0.412,8.614 -2.083,16.687 -6.614,23.287 -2.614,3.808 -6.944,6.081 -11.559,6.302 z"
         stroke-miterlimit="10"
         inkscape:connector-curvature="0"
         style="fill:none;stroke:#ff9136;stroke-width:2;stroke-linejoin:round;stroke-miterlimit:10" />
      <g
         id="g4471">
        <defs
           id="defs4473">
          <rect
             height="70.587997"
             width="76.070999"
             transform="matrix(0.9833,0.182,-0.182,0.9833,27.5528,-38.4801)"
             y="95.625"
             x="185.452"
             id="SVGID_9_" />
        </defs>
        <clipPath
           id="SVGID_10_">
          <use
             id="use4477"
             overflow="visible"
             xlink:href="#SVGID_9_"
             style="overflow:visible"
             x="0"
             y="0"
             width="100%"
             height="100%" />
        </clipPath>
        <path
           id="path4479"
           d="m 228.851,102.12 c 14.669,2.715 25.414,15.036 26.13,29.962 0.337,7.03 -1.588,13.809 -5.566,19.604 -1.5,2.186 -4.08,3.571 -6.901,3.706 l -36.86,1.769 c -0.712,0.033 -1.427,-0.014 -2.125,-0.143 -2.083,-0.386 -3.958,-1.48 -5.277,-3.081 -4.918,-5.964 -7.503,-13.54 -7.278,-21.33 0.455,-15.726 12.583,-28.963 28.211,-30.793 3.251,-0.383 6.504,-0.279 9.666,0.306 m 1.091,-5.9 c -3.671,-0.679 -7.521,-0.828 -11.455,-0.367 -18.559,2.173 -32.971,17.902 -33.511,36.578 -0.281,9.693 3.029,18.511 8.646,25.321 2.254,2.735 5.395,4.531 8.815,5.164 1.144,0.211 2.32,0.292 3.504,0.236 l 36.86,-1.769 c 4.614,-0.221 8.945,-2.494 11.56,-6.303 4.531,-6.6 7.026,-14.672 6.614,-23.287 -0.863,-17.974 -14.07,-32.434 -31.033,-35.573"
           clip-path="url(#SVGID_10_)"
           inkscape:connector-curvature="0"
           style="fill:#f5ca5c" />
      </g>
      <line
         id="line4481"
         y2="88.311996"
         x2="214.88901"
         y1="95.915001"
         x1="215.254"
         style="fill:#ffdb69" />
      <line
         id="line4483"
         y2="88.311996"
         x2="214.88901"
         y1="95.915001"
         x1="215.254"
         stroke-miterlimit="10"
         style="fill:none;stroke:#535b6b;stroke-width:2;stroke-linejoin:round;stroke-miterlimit:10" />
      <line
         id="line4485"
         y2="87.745003"
         x2="226.716"
         y1="95.348999"
         x1="227.08099"
         style="fill:#ffdb69" />
      <line
         id="line4487"
         y2="87.745003"
         x2="226.716"
         y1="95.348999"
         x1="227.08099"
         stroke-miterlimit="10"
         style="fill:none;stroke:#535b6b;stroke-width:2;stroke-linejoin:round;stroke-miterlimit:10" />
      <path
         id="path4489"
         d="m 238.414,114.892 c 2.155,-0.104 4.003,1.576 4.106,3.731 l 0.258,5.385 c 0.104,2.155 -1.574,4.003 -3.729,4.106 -2.155,0.104 -4.003,-1.575 -4.105,-3.729 l -0.26,-5.387 c -0.102,-2.154 1.576,-4.003 3.73,-4.106"
         inkscape:connector-curvature="0"
         style="fill:#535b6b" />
      <path
         id="path4491"
         d="m 205.842,116.454 c 2.155,-0.103 4.003,1.577 4.106,3.731 l 0.258,5.386 c 0.104,2.154 -1.574,4.002 -3.729,4.106 -2.156,0.104 -4.003,-1.575 -4.106,-3.729 l -0.259,-5.387 c -0.102,-2.155 1.576,-4.003 3.73,-4.107"
         inkscape:connector-curvature="0"
         style="fill:#535b6b" />
      <path
         id="path4493"
         d="m 223.227,138.57 c -2.048,0.098 -3.789,-1.482 -3.887,-3.531 -0.098,-2.048 1.482,-3.789 3.532,-3.886 l -0.682,-14.19"
         inkscape:connector-curvature="0"
         style="fill:#ffdb69" />
      <path
         id="path4495"
         d="m 223.626,138.543 c 2.042,-0.179 3.555,-1.979 3.376,-4.023 -0.179,-2.042 -1.98,-3.554 -4.023,-3.375 l -1.237,-14.152"
         stroke-miterlimit="10"
         inkscape:connector-curvature="0"
         style="fill:none;stroke:#535b6b;stroke-width:2;stroke-linecap:round;stroke-linejoin:round;stroke-miterlimit:10" />
      <g
         id="g4497"
         style="opacity:0.5">
        <defs
           id="defs4499">
          <rect
             height="30.559"
             width="59.098"
             transform="matrix(0.9833,0.182,-0.182,0.9833,24.6329,-38.7151)"
             y="99.610001"
             x="193.761"
             id="SVGID_11_"
             style="opacity:0.5" />
        </defs>
        <clipPath
           id="SVGID_12_">
          <use
             id="use4503"
             overflow="visible"
             xlink:href="#SVGID_11_"
             style="overflow:visible"
             x="0"
             y="0"
             width="100%"
             height="100%" />
        </clipPath>
        <path
           id="path4505"
           d="m 222.314,119.549 c -14.713,0.705 -29.657,10.943 -30.076,2.205 -0.419,-8.738 12.506,-20.991 29.137,-21.789 16.631,-0.798 30.669,10.161 31.088,18.9 0.42,8.739 -15.436,-0.021 -30.149,0.684"
           clip-path="url(#SVGID_12_)"
           inkscape:connector-curvature="0"
           style="fill:#ffffff" />
      </g>
      <path
         id="path4507"
         d="m 242.801,161.384 -36.86,1.769 c -4.725,0.226 -9.31,-1.752 -12.319,-5.399 -5.617,-6.812 -8.927,-15.629 -8.646,-25.322 0.54,-18.676 14.953,-34.406 33.51,-36.578 22.121,-2.59 41.438,14.075 42.488,35.941 0.412,8.614 -2.083,16.687 -6.614,23.287 -2.614,3.808 -6.944,6.081 -11.559,6.302 z"
         stroke-miterlimit="10"
         inkscape:connector-curvature="0"
         style="fill:none;stroke:#535b6b;stroke-width:2;stroke-linejoin:round;stroke-miterlimit:10" />
      <path
         id="path4509"
         d="m 193.65,183.089 63.361,-3.04 c 1.39,-0.066 2.462,-1.245 2.395,-2.635 L 259.09,170.8 c -0.066,-1.389 -1.247,-2.461 -2.637,-2.395 l -63.361,3.04 c -1.389,0.066 -2.461,1.247 -2.395,2.635 l 0.317,6.615 c 0.067,1.389 1.248,2.46 2.636,2.394"
         inkscape:connector-curvature="0"
         style="fill:#ffffff" />
      <path
         id="path4511"
         d="m 193.65,183.089 63.361,-3.04 c 1.39,-0.066 2.462,-1.245 2.395,-2.635 L 259.09,170.8 c -0.066,-1.389 -1.247,-2.461 -2.637,-2.395 l -63.361,3.04 c -1.389,0.066 -2.461,1.247 -2.395,2.635 l 0.317,6.615 c 0.067,1.389 1.248,2.46 2.636,2.394 z"
         stroke-miterlimit="10"
         inkscape:connector-curvature="0"
         style="fill:none;stroke:#535b6b;stroke-width:2;stroke-linejoin:round;stroke-miterlimit:10" />
      <line
         id="line4513"
         y2="209.261"
         x2="200.30299"
         y1="223.437"
         x1="200.983"
         style="fill:#ffffff" />
      <line
         id="line4515"
         y2="209.261"
         x2="200.30299"
         y1="223.437"
         x1="200.983"
         stroke-miterlimit="10"
         style="fill:none;stroke:#535b6b;stroke-width:2;stroke-linecap:round;stroke-linejoin:round;stroke-miterlimit:10" />
      <line
         id="line4517"
         y2="206.73399"
         x2="252.981"
         y1="220.91"
         x1="253.661"
         style="fill:#ffffff" />
      <line
         id="line4519"
         y2="206.73399"
         x2="252.981"
         y1="220.91"
         x1="253.661"
         stroke-miterlimit="10"
         style="fill:none;stroke:#535b6b;stroke-width:2;stroke-linecap:round;stroke-linejoin:round;stroke-miterlimit:10" />
      <line
         id="line4521"
         y2="174.383"
         x2="253.467"
         y1="177.10899"
         x1="196.63699"
         style="fill:#ffffff" />
      <line
         id="line4523"
         y2="174.383"
         x2="253.467"
         y1="177.10899"
         x1="196.63699"
         stroke-miterlimit="10"
         style="fill:none;stroke:#535b6b;stroke-width:2;stroke-linecap:round;stroke-linejoin:round;stroke-miterlimit:10" />
      <g
         id="g4525"
         style="opacity:0.5">
        <defs
           id="defs4527">
          <rect
             height="14.627"
             width="28.802"
             transform="matrix(0.9833,0.182,-0.182,0.9833,59.0607,-29.4653)"
             y="299.802"
             x="175.69901"
             id="SVGID_13_"
             style="opacity:0.5" />
        </defs>
        <clipPath
           id="SVGID_14_">
          <use
             id="use4531"
             overflow="visible"
             xlink:href="#SVGID_13_"
             style="overflow:visible"
             x="0"
             y="0"
             width="100%"
             height="100%" />
        </clipPath>
        <path
           id="path4533"
           d="m 201.29,305.84 -25.261,2.75 c -0.051,0.007 -0.097,-0.004 -0.145,-0.004 l -0.833,1.289 c -0.616,0.951 0.149,2.191 1.276,2.068 l 25.261,-2.751 c 2.104,-0.228 3.621,-2.122 3.385,-4.226 l -0.29,-2.59 c -0.154,1.779 -1.547,3.264 -3.393,3.464"
           clip-path="url(#SVGID_14_)"
           inkscape:connector-curvature="0"
           style="fill:#535b6b" />
      </g>
      <g
         id="g4535"
         style="opacity:0.5">
        <defs
           id="defs4537">
          <rect
             height="16.329"
             width="29.943001"
             transform="matrix(0.9833,0.182,-0.182,0.9833,50.1126,-42.4115)"
             y="243.742"
             x="241.226"
             id="SVGID_15_"
             style="opacity:0.5" />
        </defs>
        <clipPath
           id="SVGID_16_">
          <use
             id="use4541"
             overflow="visible"
             xlink:href="#SVGID_15_"
             style="overflow:visible"
             x="0"
             y="0"
             width="100%"
             height="100%" />
        </clipPath>
        <path
           id="path4543"
           d="m 263.666,247.226 c 1.146,-0.427 2.211,-0.986 3.191,-1.648 l 4.854,4.774 c -1.211,0.953 -2.576,1.741 -4.082,2.303 -5.399,2.012 -12.745,4.238 -21.572,5.68 l -5.308,-5.222 c 9.424,-1.427 17.247,-3.775 22.917,-5.887"
           clip-path="url(#SVGID_16_)"
           inkscape:connector-curvature="0"
           style="fill:#535b6b" />
      </g>
      <g
         id="g4545"
         style="opacity:0.5">
        <defs
           id="defs4547">
          <rect
             height="5.6469998"
             width="27.923"
             transform="matrix(0.9833,0.182,-0.182,0.9833,49.6833,-32.6344)"
             y="251.61301"
             x="188.724"
             id="SVGID_17_"
             style="opacity:0.5" />
        </defs>
        <clipPath
           id="SVGID_18_">
          <use
             id="use4551"
             overflow="visible"
             xlink:href="#SVGID_17_"
             style="overflow:visible"
             x="0"
             y="0"
             width="100%"
             height="100%" />
        </clipPath>
        <path
           id="path4553"
           d="m 193.549,250.587 c 5.845,1.561 13.854,3.149 23.37,3.667 l -3.967,4.73 c -6.075,-0.744 -11.3,-1.864 -15.439,-2.968 -3.394,-0.906 -6.278,-2.924 -8.282,-5.597 l 0.976,-1.164 c 1.043,0.565 2.16,1.018 3.342,1.332"
           clip-path="url(#SVGID_18_)"
           inkscape:connector-curvature="0"
           style="fill:#535b6b" />
      </g>
      <path
         id="path4555"
         d="m 212.292,147.165 c 1.508,-3.571 5.271,-5.228 8.234,-3.642 1.749,0.936 2.687,3.592 4.343,4.299 1.657,0.708 7.591,0.141 9.812,-1.525"
         stroke-miterlimit="10"
         inkscape:connector-curvature="0"
         style="fill:none;stroke:#535b6b;stroke-width:2;stroke-linecap:round;stroke-linejoin:round;stroke-miterlimit:10" />
      <path
         id="path4557"
         d="m 96.131,79.612 c 0,-3.487 2.826,-6.315 6.313,-6.315 3.486,0 6.313,2.828 6.313,6.315 0,3.487 -2.828,6.312 -6.313,6.312 -3.487,-0.001 -6.313,-2.825 -6.313,-6.312"
         stroke-miterlimit="10"
         inkscape:connector-curvature="0"
         style="fill:#7a79e1;stroke:#6a6ace;stroke-width:2;stroke-miterlimit:10" />
      <path
         id="path4559"
         d="m 49.616,214.221 c 0,-2.397 1.942,-4.342 4.34,-4.342 2.396,0 4.341,1.944 4.341,4.342 0,2.398 -1.944,4.339 -4.341,4.339 -2.398,0 -4.34,-1.942 -4.34,-4.339"
         inkscape:connector-curvature="0"
         style="fill:#7778df" />
      <path
         id="path4561"
         d="m 318.296,230.247 c 0,-3.487 2.826,-6.315 6.313,-6.315 3.485,0 6.313,2.828 6.313,6.315 0,3.487 -2.828,6.313 -6.313,6.313 -3.487,0 -6.313,-2.826 -6.313,-6.313"
         inkscape:connector-curvature="0"
         style="fill:#7778df" />
      <path
         id="path4563"
         d="m 300.861,91.389 c 0,-3.487 2.826,-6.315 6.313,-6.315 3.485,0 6.313,2.828 6.313,6.315 0,3.487 -2.828,6.313 -6.313,6.313 -3.486,-0.001 -6.313,-2.826 -6.313,-6.313"
         inkscape:connector-curvature="0"
         style="fill:#7778df" />
      <path
         id="path4565"
         d="m 147.74,176.001 c 0,-3.487 2.826,-6.315 6.313,-6.315 3.485,0 6.313,2.828 6.313,6.315 0,3.487 -2.828,6.312 -6.313,6.312 -3.487,0 -6.313,-2.825 -6.313,-6.312"
         inkscape:connector-curvature="0"
         style="fill:#7778df" />
      <path
         id="path4567"
         d="m 193.154,63.049 c 0,-1.924 1.559,-3.483 3.483,-3.483 1.923,0 3.482,1.559 3.482,3.483 0,1.924 -1.56,3.482 -3.482,3.482 -1.925,0 -3.483,-1.558 -3.483,-3.482"
         inkscape:connector-curvature="0"
         style="fill:#7778df" />
      <path
         id="path4569"
         d="m 134.311,91.386 c 0,-1.073 0.87,-1.943 1.943,-1.943 1.073,0 1.942,0.87 1.942,1.943 0,1.073 -0.869,1.943 -1.942,1.943 -1.073,0 -1.943,-0.87 -1.943,-1.943"
         inkscape:connector-curvature="0"
         style="fill:#7778df" />
      <path
         id="path4571"
         d="m 14.249,82.664 c 0,-1.073 0.87,-1.943 1.943,-1.943 1.073,0 1.942,0.87 1.942,1.943 0,1.073 -0.869,1.943 -1.942,1.943 -1.073,0 -1.943,-0.87 -1.943,-1.943"
         inkscape:connector-curvature="0"
         style="fill:#7778df" />
      <path
         id="path4573"
         d="m 416.971,244.597 c 0,-0.824 0.669,-1.494 1.495,-1.494 0.826,0 1.494,0.67 1.494,1.494 0,0.827 -0.668,1.496 -1.494,1.496 -0.826,0 -1.495,-0.669 -1.495,-1.496"
         inkscape:connector-curvature="0"
         style="fill:#7778df" />
      <path
         id="path4575"
         d="m 385.628,251.493 c 0,-10.315 8.362,-18.679 18.678,-18.679 10.316,0 18.68,8.363 18.68,18.679 0,10.317 -8.363,18.68 -18.68,18.68 -10.316,0 -18.678,-8.362 -18.678,-18.68"
         inkscape:connector-curvature="0"
         style="fill:#7a79e1" />
      <circle
         id="circle4577"
         r="18.679001"
         cy="251.493"
         cx="404.30701"
         stroke-miterlimit="10"
         style="fill:none;stroke:#6a6ace;stroke-width:2;stroke-miterlimit:10" />
      <g
         id="g4579">
        <defs
           id="defs4581">
          <rect
             height="34.981998"
             width="34.98"
             y="235.72301"
             x="385.09601"
             id="SVGID_19_" />
        </defs>
        <clipPath
           id="SVGID_20_">
          <use
             id="use4585"
             overflow="visible"
             xlink:href="#SVGID_19_"
             style="overflow:visible"
             x="0"
             y="0"
             width="100%"
             height="100%" />
        </clipPath>
        <path
           id="path4587"
           d="m 392.638,237.044 c -0.28,1.41 -0.43,2.867 -0.43,4.359 0,12.255 9.935,22.19 22.189,22.19 1.491,0 2.948,-0.15 4.357,-0.433 -3.405,4.272 -8.648,7.012 -14.537,7.012 -10.267,0 -18.59,-8.322 -18.59,-18.59 10e-4,-5.887 2.74,-11.132 7.011,-14.538"
           clip-path="url(#SVGID_20_)"
           inkscape:connector-curvature="0"
           style="fill:#6a6ace" />
        <path
           id="path4589"
           d="m 392.638,237.044 c -0.28,1.41 -0.43,2.867 -0.43,4.359 0,12.255 9.935,22.19 22.189,22.19 1.491,0 2.948,-0.15 4.357,-0.433 -3.405,4.272 -8.648,7.012 -14.537,7.012 -10.267,0 -18.59,-8.322 -18.59,-18.59 10e-4,-5.887 2.74,-11.132 7.011,-14.538 z"
           stroke-miterlimit="10"
           clip-path="url(#SVGID_20_)"
           inkscape:connector-curvature="0"
           style="fill:none;stroke:#6a6ace;stroke-width:2;stroke-miterlimit:10" />
      </g>
      <path
         id="path4591"
         d="m 419.564,240.72 c 3.873,0.751 6.533,2.376 7.173,4.763 0.737,2.757 -1.361,5.979 -5.313,8.899 -3.581,2.646 -8.682,5.044 -14.57,6.622 -5.888,1.578 -11.505,2.052 -15.928,1.552 -4.884,-0.554 -8.313,-2.295 -9.052,-5.05 -0.64,-2.391 0.854,-5.132 3.84,-7.723"
         stroke-miterlimit="10"
         inkscape:connector-curvature="0"
         style="fill:none;stroke:#6a6ace;stroke-width:2;stroke-miterlimit:10" />
      <path
         id="path4593"
         d="m 422.716,254.667 c 2.206,3.27 2.937,6.299 1.701,8.438 -2.721,4.709 -13.927,3.327 -25.034,-3.086 -11.105,-6.412 -17.907,-15.428 -15.188,-20.137 1.427,-2.471 5.19,-3.264 10.051,-2.535"
         stroke-miterlimit="10"
         inkscape:connector-curvature="0"
         style="fill:none;stroke:#6a6ace;stroke-width:2;stroke-miterlimit:10" />
      <path
         id="path4595"
         d="m 370.316,268.685 c 0,-1.022 0.828,-1.851 1.849,-1.851 1.022,0 1.851,0.828 1.851,1.851 0,1.021 -0.828,1.85 -1.851,1.85 -1.02,-0.001 -1.849,-0.83 -1.849,-1.85"
         inkscape:connector-curvature="0"
         style="fill:#7778df" />
      <path
         id="path4597"
         d="m 313.488,169.116 c 0,-1.328 1.076,-2.404 2.403,-2.404 1.328,0 2.405,1.076 2.405,2.404 0,1.328 -1.077,2.404 -2.405,2.404 -1.327,10e-4 -2.403,-1.076 -2.403,-2.404"
         inkscape:connector-curvature="0"
         style="fill:#7778df" />
      <path
         id="path4599"
         d="m 31,21.778 c 0,-1.328 1.076,-2.404 2.403,-2.404 1.328,0 2.405,1.076 2.405,2.404 0,1.328 -1.077,2.404 -2.405,2.404 C 32.076,24.182 31,23.106 31,21.778"
         inkscape:connector-curvature="0"
         style="fill:#7778df" />
      <path
         id="path4601"
         d="m 248.669,70.415 c 0,-1.328 1.076,-2.404 2.403,-2.404 1.328,0 2.405,1.076 2.405,2.404 0,1.328 -1.077,2.404 -2.405,2.404 -1.327,0 -2.403,-1.076 -2.403,-2.404"
         inkscape:connector-curvature="0"
         style="fill:#7778df" />
      <path
         id="path4603"
         d="m 335.617,316.926 c 0,-1.328 1.076,-2.404 2.403,-2.404 1.328,0 2.405,1.076 2.405,2.404 0,1.328 -1.077,2.404 -2.405,2.404 -1.327,0 -2.403,-1.076 -2.403,-2.404"
         inkscape:connector-curvature="0"
         style="fill:#7778df" />
      <path
         id="path4605"
         d="m 115.451,349.916 c 0,-1.328 1.076,-2.404 2.403,-2.404 1.328,0 2.405,1.076 2.405,2.404 0,1.328 -1.077,2.404 -2.405,2.404 -1.327,0 -2.403,-1.076 -2.403,-2.404"
         inkscape:connector-curvature="0"
         style="fill:#7778df" />
      <path
         id="path4607"
         d="m 16.191,163.409 c 0,-1.328 1.076,-2.404 2.403,-2.404 1.328,0 2.405,1.076 2.405,2.404 0,1.328 -1.077,2.404 -2.405,2.404 -1.326,0 -2.403,-1.076 -2.403,-2.404"
         inkscape:connector-curvature="0"
         style="fill:#7778df" />
      <path
         id="path4609"
         d="m 407.488,201.554 c 0,-1.328 1.076,-2.404 2.403,-2.404 1.328,0 2.405,1.076 2.405,2.404 0,1.328 -1.077,2.404 -2.405,2.404 -1.327,0 -2.403,-1.076 -2.403,-2.404"
         inkscape:connector-curvature="0"
         style="fill:#7778df" />
      <path
         id="path4611"
         d="m 447.459,177.11 c 0,-1.328 1.076,-2.404 2.403,-2.404 1.328,0 2.405,1.076 2.405,2.404 0,1.328 -1.077,2.404 -2.405,2.404 -1.327,0 -2.403,-1.076 -2.403,-2.404"
         inkscape:connector-curvature="0"
         style="fill:#7778df" />
      <path
         id="path4613"
         d="m 42.03,249.751 c 0,-1.328 1.076,-2.404 2.403,-2.404 1.328,0 2.405,1.076 2.405,2.404 0,1.328 -1.077,2.404 -2.405,2.404 -1.327,0 -2.403,-1.076 -2.403,-2.404"
         inkscape:connector-curvature="0"
         style="fill:#7778df" />
      <path
         id="path4615"
         d="m 135.792,32.874 c 0,-1.328 1.076,-2.404 2.403,-2.404 1.328,0 2.405,1.076 2.405,2.404 0,1.328 -1.077,2.404 -2.405,2.404 -1.326,0 -2.403,-1.076 -2.403,-2.404"
         inkscape:connector-curvature="0"
         style="fill:#7778df" />
      <path
         id="path4617"
         d="m 129.772,273.001 c 0,-1.328 1.076,-2.404 2.403,-2.404 1.328,0 2.405,1.076 2.405,2.404 0,1.328 -1.077,2.404 -2.405,2.404 -1.327,0 -2.403,-1.076 -2.403,-2.404"
         inkscape:connector-curvature="0"
         style="fill:#7778df" />
      <path
         id="path4619"
         d="m 442.392,219.273 c 0,-1.328 1.075,-2.404 2.404,-2.404 1.327,0 2.404,1.076 2.404,2.404 0,1.327 -1.077,2.403 -2.404,2.403 -1.329,0.001 -2.404,-1.075 -2.404,-2.403"
         inkscape:connector-curvature="0"
         style="fill:#7778df" />
      <path
         id="path4621"
         d="m 385.303,210.72 c 0,-0.74 0.6,-1.341 1.341,-1.341 0.74,0 1.34,0.601 1.34,1.341 0,0.741 -0.6,1.342 -1.34,1.342 -0.742,0 -1.341,-0.601 -1.341,-1.342"
         inkscape:connector-curvature="0"
         style="fill:#7778df" />
      <path
         id="path4623"
         d="m 430.822,235.897 c 0,-0.57 0.462,-1.033 1.032,-1.033 0.569,0 1.03,0.463 1.03,1.033 0,0.569 -0.461,1.031 -1.03,1.031 -0.57,0.001 -1.032,-0.461 -1.032,-1.031"
         inkscape:connector-curvature="0"
         style="fill:#7778df" />
      <path
         id="path4625"
         d="m 371.65,247.717 c 0,-0.285 0.23,-0.516 0.515,-0.516 0.286,0 0.518,0.23 0.518,0.516 0,0.286 -0.231,0.516 -0.518,0.516 -0.284,-0.001 -0.515,-0.231 -0.515,-0.516"
         inkscape:connector-curvature="0"
         style="fill:#7778df" />
      <path
         id="path4627"
         d="m 461.149,210.72 c 0,-0.369 0.301,-0.67 0.671,-0.67 0.371,0 0.671,0.301 0.671,0.67 0,0.371 -0.3,0.671 -0.671,0.671 -0.37,0 -0.671,-0.3 -0.671,-0.671"
         inkscape:connector-curvature="0"
         style="fill:#7778df" />
      <g
         id="g4629">
        <path
           id="path4631"
           d="m 35.094,310.367 0.531,-5.054 c 0.059,-0.557 0.558,-0.961 1.114,-0.902 0.469,0.05 0.913,-0.23 1.063,-0.679 2.654,-7.907 10.12,-13.606 18.921,-13.606 3.94,0 7.611,1.146 10.705,3.116 0.397,0.255 0.919,0.193 1.253,-0.142 l 0.001,0 c 0.396,-0.396 1.038,-0.396 1.434,0 l 3.592,3.592 c 0.396,0.396 0.396,1.038 0,1.434 l -0.001,0.002 c -0.335,0.334 -0.395,0.855 -0.14,1.255 2.193,3.443 3.363,7.603 3.07,12.051 -0.669,10.151 -9.044,18.249 -19.212,18.599 -10.565,0.363 -19.367,-7.489 -20.526,-17.662 -0.053,-0.472 -0.428,-0.839 -0.899,-0.889 l -0.004,-0.001 c -0.557,-0.058 -0.96,-0.557 -0.902,-1.114"
           inkscape:connector-curvature="0"
           style="fill:#7a79e1" />
        <path
           id="path4633"
           d="m 35.094,310.367 0.531,-5.054 c 0.059,-0.557 0.558,-0.961 1.114,-0.902 0.469,0.05 0.913,-0.23 1.063,-0.679 2.654,-7.907 10.12,-13.606 18.921,-13.606 3.94,0 7.611,1.146 10.705,3.116 0.397,0.255 0.919,0.193 1.253,-0.142 l 0.001,0 c 0.396,-0.396 1.038,-0.396 1.434,0 l 3.592,3.592 c 0.396,0.396 0.396,1.038 0,1.434 l -0.001,0.002 c -0.335,0.334 -0.395,0.855 -0.14,1.255 2.193,3.443 3.363,7.603 3.07,12.051 -0.669,10.151 -9.044,18.249 -19.212,18.599 -10.565,0.363 -19.367,-7.489 -20.526,-17.662 -0.053,-0.472 -0.428,-0.839 -0.899,-0.889 l -0.004,-0.001 c -0.557,-0.058 -0.96,-0.557 -0.902,-1.114 z"
           stroke-miterlimit="10"
           inkscape:connector-curvature="0"
           style="fill:none;stroke:#6a6ace;stroke-width:2;stroke-miterlimit:10" />
        <g
           id="g4635">
          <defs
             id="defs4637">
            <rect
               height="36.692001"
               width="38.388"
               y="293.67499"
               x="34.744999"
               id="SVGID_21_" />
          </defs>
          <clipPath
             id="SVGID_22_">
            <use
               id="use4641"
               overflow="visible"
               xlink:href="#SVGID_21_"
               style="overflow:visible"
               x="0"
               y="0"
               width="100%"
               height="100%" />
          </clipPath>
          <path
             id="path4643"
             d="m 44.29,294.478 c -0.301,1.513 -0.462,3.077 -0.462,4.68 0,13.156 10.666,23.823 23.823,23.823 1.603,0 3.167,-0.161 4.68,-0.463 -3.657,4.585 -9.288,7.527 -15.608,7.527 -10.25,0 -18.768,-8.178 -19.901,-18.125 -0.022,-0.192 -0.783,-0.457 -0.945,-0.566 -0.694,-0.463 -0.945,-0.8 -0.739,-1.405 0.578,-1.689 0.299,-3.457 0.739,-5.104 0.074,-0.275 1.716,-0.47 1.801,-0.742 1.205,-3.837 3.54,-7.175 6.612,-9.625"
             clip-path="url(#SVGID_22_)"
             inkscape:connector-curvature="0"
             style="fill:#6a6ace" />
          <path
             id="path4645"
             d="m 44.29,294.478 c -0.301,1.513 -0.462,3.077 -0.462,4.68 0,13.156 10.666,23.823 23.823,23.823 1.603,0 3.167,-0.161 4.68,-0.463 -3.657,4.585 -9.288,7.527 -15.608,7.527 -10.25,0 -18.768,-8.178 -19.901,-18.125 -0.022,-0.192 -0.783,-0.457 -0.945,-0.566 -0.694,-0.463 -0.945,-0.8 -0.739,-1.405 0.578,-1.689 0.299,-3.457 0.739,-5.104 0.074,-0.275 1.716,-0.47 1.801,-0.742 1.205,-3.837 3.54,-7.175 6.612,-9.625 z"
             stroke-miterlimit="10"
             clip-path="url(#SVGID_22_)"
             inkscape:connector-curvature="0"
             style="fill:none;stroke:#6a6ace;stroke-width:2;stroke-miterlimit:10" />
        </g>
        <path
           id="path4647"
           d="m 63.135,312.261 c 0,-2.115 1.715,-3.83 3.831,-3.83 2.115,0 3.83,1.715 3.83,3.83 0,2.115 -1.715,3.83 -3.83,3.83 -2.116,0 -3.831,-1.715 -3.831,-3.83"
           inkscape:connector-curvature="0"
           style="fill:#7675dc" />
        <circle
           id="circle4649"
           r="3.8299999"
           cy="312.26099"
           cx="66.966003"
           stroke-miterlimit="10"
           style="fill:none;stroke:#6a6ace;stroke-width:2;stroke-miterlimit:10" />
        <path
           id="path4651"
           d="m 43.387,308.431 c 0,-2.115 1.715,-3.83 3.83,-3.83 2.115,0 3.83,1.715 3.83,3.83 0,2.115 -1.715,3.83 -3.83,3.83 -2.115,0 -3.83,-1.715 -3.83,-3.83"
           inkscape:connector-curvature="0"
           style="fill:#7a79e1" />
        <path
           id="path4653"
           d="m 57.294,320.736 c 0,-1.613 1.308,-2.92 2.92,-2.92 1.613,0 2.92,1.307 2.92,2.92 0,1.613 -1.307,2.921 -2.92,2.921 -1.612,0 -2.92,-1.307 -2.92,-2.921"
           inkscape:connector-curvature="0"
           style="fill:#7a79e1" />
        <path
           id="path4655"
           d="m 49.108,322.367 c 0,-1.07 0.868,-1.938 1.938,-1.938 1.07,0 1.938,0.868 1.938,1.938 0,1.07 -0.868,1.938 -1.938,1.938 -1.07,0 -1.938,-0.867 -1.938,-1.938"
           inkscape:connector-curvature="0"
           style="fill:#7a79e1" />
        <path
           id="path4657"
           d="m 43.007,316.388 c 0,-0.788 0.639,-1.429 1.428,-1.429 0.789,0 1.428,0.641 1.428,1.429 0,0.788 -0.639,1.429 -1.428,1.429 -0.789,-0.001 -1.428,-0.641 -1.428,-1.429"
           inkscape:connector-curvature="0"
           style="fill:#7a79e1" />
        <path
           id="path4659"
           d="m 50.445,300.084 c 0,-1.403 1.137,-2.54 2.54,-2.54 1.403,0 2.54,1.137 2.54,2.54 0,1.402 -1.137,2.54 -2.54,2.54 -1.403,0 -2.54,-1.138 -2.54,-2.54"
           inkscape:connector-curvature="0"
           style="fill:#7675dc" />
        <circle
           id="circle4661"
           r="2.54"
           cy="300.08401"
           cx="52.985001"
           stroke-miterlimit="10"
           style="fill:none;stroke:#6a6ace;stroke-width:2;stroke-miterlimit:10" />
        <path
           id="path4663"
           d="m 63.713,299.187 c 0,-0.976 0.791,-1.766 1.765,-1.766 0.975,0 1.766,0.79 1.766,1.766 0,0.975 -0.791,1.766 -1.766,1.766 -0.974,-10e-4 -1.765,-0.792 -1.765,-1.766"
           inkscape:connector-curvature="0"
           style="fill:#7675dc" />
        <circle
           id="circle4665"
           r="1.765"
           cy="299.18701"
           cx="65.478996"
           stroke-miterlimit="10"
           style="fill:none;stroke:#6a6ace;stroke-width:2;stroke-miterlimit:10" />
        <line
           id="line4667"
           y2="328.00699"
           x2="74.794998"
           y1="331.104"
           x1="72.475998"
           style="fill:#8c99a8" />
        <line
           id="line4669"
           y2="324.10001"
           x2="71.095001"
           y1="326.28699"
           x1="67.901001"
           style="fill:#8c99a8" />
        <line
           id="line4671"
           y2="321.728"
           x2="69.707001"
           y1="323.45099"
           x1="66.241997"
           style="fill:#8c99a8" />
        <line
           id="line4673"
           y2="319.15701"
           x2="68.624001"
           y1="320.46201"
           x1="64.978996"
           style="fill:#8c99a8" />
        <path
           id="path4675"
           d="m 39.385,287.157 c 0,-0.621 0.502,-1.124 1.123,-1.124 0.62,0 1.124,0.503 1.124,1.124 0,0.62 -0.503,1.122 -1.124,1.122 -0.62,0 -1.123,-0.502 -1.123,-1.122"
           inkscape:connector-curvature="0"
           style="fill:#7778df" />
        <path
           id="path4677"
           d="m 54.101,287.34 c 0,-0.346 0.28,-0.626 0.627,-0.626 0.346,0 0.626,0.28 0.626,0.626 0,0.347 -0.281,0.627 -0.626,0.627 -0.347,0 -0.627,-0.28 -0.627,-0.627"
           inkscape:connector-curvature="0"
           style="fill:#7778df" />
        <path
           id="path4679"
           d="m 36.791,324.211 c 0,-0.346 0.281,-0.626 0.626,-0.626 0.346,0 0.626,0.28 0.626,0.626 0,0.346 -0.28,0.628 -0.626,0.628 -0.346,0 -0.626,-0.282 -0.626,-0.628"
           inkscape:connector-curvature="0"
           style="fill:#7778df" />
        <path
           id="path4681"
           d="m 66.931,287.652 c 0,-0.172 0.14,-0.313 0.313,-0.313 0.173,0 0.313,0.141 0.313,0.313 0,0.174 -0.14,0.314 -0.313,0.314 -0.173,10e-4 -0.313,-0.14 -0.313,-0.314"
           inkscape:connector-curvature="0"
           style="fill:#7778df" />
      </g>
      <path
         id="path4683"
         d="m 33,74.588 c 0,-13.717 11.12,-24.837 24.836,-24.837 13.717,0 24.836,11.12 24.836,24.837 0,13.717 -11.12,24.836 -24.836,24.836 C 44.121,99.425 33,88.305 33,74.588"
         inkscape:connector-curvature="0"
         style="fill:#7a79e1" />
      <circle
         id="circle4685"
         r="24.836"
         cy="74.587997"
         cx="57.837002"
         stroke-miterlimit="10"
         style="fill:none;stroke:#6a6ace;stroke-width:2;stroke-miterlimit:10" />
      <g
         id="g4687">
        <defs
           id="defs4689">
          <path
             d="m 82.673,74.588 c 0,8.833 -4.611,16.59 -11.558,20.993 l -26.555,0 C 37.613,91.178 33.001,83.421 33.001,74.588 c 0,-13.717 11.12,-24.836 24.836,-24.836 13.717,0 24.836,11.12 24.836,24.836"
             id="SVGID_23_"
             inkscape:connector-curvature="0" />
        </defs>
        <clipPath
           id="SVGID_24_">
          <use
             id="use4693"
             overflow="visible"
             xlink:href="#SVGID_23_"
             style="overflow:visible"
             x="0"
             y="0"
             width="100%"
             height="100%" />
        </clipPath>
        <path
           id="path4695"
           d="m 31.994,131.612 12.682,2.197 c -1.57,-2.997 -3.479,-6.343 -2.265,-9.928 1.387,-4.097 4.956,-7.562 6.607,-11.693 0.697,-1.741 1.724,-4.203 0.551,-5.884 0,0 -7.229,-0.655 -5.529,-6.243 0.604,-1.982 4.781,0.426 6.81,0.483 1.73,0.049 3.133,-1.331 4.078,-2.651 1.897,-2.651 3.833,-6.756 5.569,-9.555 1.493,-2.407 2.449,-3.299 2.476,-6.148 0.034,-3.601 -3.623,-4.048 -6.716,-1.783 -1.378,1.009 -3.986,-0.769 -5.55,0.068 -1.926,1.031 -1.723,3.992 -3.618,5.291 -3.712,2.543 -5.979,1.234 -10.006,-0.39 -3.997,-1.612 -7.511,0.136 -10.325,3.281 -0.77,0.86 -6.224,8.513 -6.537,4.107 -0.107,-1.516 2.602,-4.299 3.219,-5.609 0.853,-1.811 1.422,-3.782 1.488,-5.765 0.116,-3.458 -1.771,-8.359 -5.705,-5.186 -3.597,2.901 -1.732,7.323 -3.34,11.011 -0.779,1.786 -1.901,2.999 -2.454,4.895 -0.533,1.829 -0.974,3.568 -1.708,5.375 -0.806,1.983 -1.893,4.041 -2.09,6.179 -0.382,4.149 12.139,4.066 12.871,7.886 0.58,3.029 -8.265,7.344 -6.161,9.854 l 1.453,1.612 c 1.682,1.816 3.01,3.391 2.347,6.544"
           clip-path="url(#SVGID_24_)"
           inkscape:connector-curvature="0"
           style="fill:#7675dc" />
        <path
           id="path4697"
           d="m 31.994,131.612 12.682,2.197 c -1.57,-2.997 -3.479,-6.343 -2.265,-9.928 1.387,-4.097 4.956,-7.562 6.607,-11.693 0.697,-1.741 1.724,-4.203 0.551,-5.884 0,0 -7.229,-0.655 -5.529,-6.243 0.604,-1.982 4.781,0.426 6.81,0.483 1.73,0.049 3.133,-1.331 4.078,-2.651 1.897,-2.651 3.833,-6.756 5.569,-9.555 1.493,-2.407 2.449,-3.299 2.476,-6.148 0.034,-3.601 -3.623,-4.048 -6.716,-1.783 -1.378,1.009 -3.986,-0.769 -5.55,0.068 -1.926,1.031 -1.723,3.992 -3.618,5.291 -3.712,2.543 -5.979,1.234 -10.006,-0.39 -3.997,-1.612 -7.511,0.136 -10.325,3.281 -0.77,0.86 -6.224,8.513 -6.537,4.107 -0.107,-1.516 2.602,-4.299 3.219,-5.609 0.853,-1.811 1.422,-3.782 1.488,-5.765 0.116,-3.458 -1.771,-8.359 -5.705,-5.186 -3.597,2.901 -1.732,7.323 -3.34,11.011 -0.779,1.786 -1.901,2.999 -2.454,4.895 -0.533,1.829 -0.974,3.568 -1.708,5.375 -0.806,1.983 -1.893,4.041 -2.09,6.179 -0.382,4.149 12.139,4.066 12.871,7.886 0.58,3.029 -8.265,7.344 -6.161,9.854 l 1.453,1.612 c 1.682,1.816 3.01,3.391 2.347,6.544"
           stroke-miterlimit="10"
           clip-path="url(#SVGID_24_)"
           inkscape:connector-curvature="0"
           style="fill:none;stroke:#6a6ace;stroke-width:2;stroke-miterlimit:10" />
        <path
           id="path4699"
           d="m 39.739,36.076 c 3.916,-2.468 7.53,2.274 11.889,1.645 3.968,-0.573 5.936,-2.78 10.423,-2.357 3.196,0.302 8.248,1.642 10.194,4.023 0.902,1.104 0.58,2.477 1.352,3.595 1.241,1.799 3.702,2.771 4.914,4.539 4.744,6.915 -4.751,10.19 -11.72,9.594 -3.713,-0.317 -7.935,-1.435 -9.02,2.239 -1.042,3.529 0.707,6.877 -2.841,9.886 -5.294,4.489 -17.856,2.162 -23.658,-1.241 -1.422,-0.833 -2.367,-2.104 -3.798,-2.909 -1.906,-1.072 -3.925,-0.794 -5.783,-1.641 -3.084,-1.406 -5.105,-4.195 -6.019,-6.872 -1.518,-4.449 -0.516,-18.149 7.938,-17.57 3.491,0.24 5.065,4.047 8.709,1.428 0.663,-0.476 0.821,-1.776 1.654,-2.401 1.601,-1.202 4.043,-0.872 5.766,-1.958"
           clip-path="url(#SVGID_24_)"
           inkscape:connector-curvature="0"
           style="fill:#7675dc" />
        <path
           id="path4701"
           d="m 39.739,36.076 c 3.916,-2.468 7.53,2.274 11.889,1.645 3.968,-0.573 5.936,-2.78 10.423,-2.357 3.196,0.302 8.248,1.642 10.194,4.023 0.902,1.104 0.58,2.477 1.352,3.595 1.241,1.799 3.702,2.771 4.914,4.539 4.744,6.915 -4.751,10.19 -11.72,9.594 -3.713,-0.317 -7.935,-1.435 -9.02,2.239 -1.042,3.529 0.707,6.877 -2.841,9.886 -5.294,4.489 -17.856,2.162 -23.658,-1.241 -1.422,-0.833 -2.367,-2.104 -3.798,-2.909 -1.906,-1.072 -3.925,-0.794 -5.783,-1.641 -3.084,-1.406 -5.105,-4.195 -6.019,-6.872 -1.518,-4.449 -0.516,-18.149 7.938,-17.57 3.491,0.24 5.065,4.047 8.709,1.428 0.663,-0.476 0.821,-1.776 1.654,-2.401 1.601,-1.202 4.043,-0.872 5.766,-1.958 z"
           stroke-miterlimit="10"
           clip-path="url(#SVGID_24_)"
           inkscape:connector-curvature="0"
           style="fill:none;stroke:#6a6ace;stroke-width:2;stroke-miterlimit:10" />
      </g>
      <g
         id="g4703">
        <defs
           id="defs4705">
          <rect
             height="45.348999"
             width="45.348999"
             y="54.409"
             x="32.667"
             id="SVGID_25_" />
        </defs>
        <clipPath
           id="SVGID_26_">
          <use
             id="use4709"
             overflow="visible"
             xlink:href="#SVGID_25_"
             style="overflow:visible"
             x="0"
             y="0"
             width="100%"
             height="100%" />
        </clipPath>
        <path
           id="path4711"
           d="m 42.352,55.238 c -0.375,1.879 -0.574,3.823 -0.574,5.813 0,16.347 13.251,29.598 29.597,29.598 1.99,0 3.934,-0.199 5.813,-0.574 -4.543,5.696 -11.538,9.351 -19.391,9.351 -13.695,0 -24.796,-11.101 -24.796,-24.795 0,-7.856 3.654,-14.851 9.351,-19.393"
           clip-path="url(#SVGID_26_)"
           inkscape:connector-curvature="0"
           style="fill:#6a6ace" />
        <path
           id="path4713"
           d="m 42.352,55.238 c -0.375,1.879 -0.574,3.823 -0.574,5.813 0,16.347 13.251,29.598 29.597,29.598 1.99,0 3.934,-0.199 5.813,-0.574 -4.543,5.696 -11.538,9.351 -19.391,9.351 -13.695,0 -24.796,-11.101 -24.796,-24.795 0,-7.856 3.654,-14.851 9.351,-19.393 z"
           stroke-miterlimit="10"
           clip-path="url(#SVGID_26_)"
           inkscape:connector-curvature="0"
           style="fill:none;stroke:#6a6ace;stroke-width:2;stroke-miterlimit:10" />
      </g>
      <path
         id="path4715"
         d="m 123.473,147.847 c 0,-1.924 1.56,-3.483 3.483,-3.483 1.923,0 3.482,1.559 3.482,3.483 0,1.924 -1.56,3.483 -3.482,3.483 -1.923,0 -3.483,-1.559 -3.483,-3.483"
         inkscape:connector-curvature="0"
         style="fill:#7778df" />
      <path
         id="path4717"
         d="m 347.682,181.935 c 0,-1.924 1.56,-3.483 3.483,-3.483 1.923,0 3.482,1.559 3.482,3.483 0,1.924 -1.56,3.483 -3.482,3.483 -1.924,-0.001 -3.483,-1.559 -3.483,-3.483"
         inkscape:connector-curvature="0"
         style="fill:#7778df" />
      <path
         id="path4719"
         d="m 76.037,138.994 c 0,-1.924 1.56,-3.483 3.483,-3.483 1.923,0 3.482,1.56 3.482,3.483 0,1.923 -1.56,3.482 -3.482,3.482 -1.923,0.001 -3.483,-1.558 -3.483,-3.482"
         inkscape:connector-curvature="0"
         style="fill:#7778df" />
      <path
         id="path4721"
         d="m 384.907,25.926 c 0,-1.924 1.559,-3.483 3.483,-3.483 1.923,0 3.483,1.559 3.483,3.483 0,1.924 -1.561,3.483 -3.483,3.483 -1.924,0 -3.483,-1.559 -3.483,-3.483"
         inkscape:connector-curvature="0"
         style="fill:#7778df" />
      <path
         id="path4723"
         d="m 403.972,89.267 c 6.368,12.761 7.788,34.678 3.216,50.718 -3.74,13.121 -12.969,24.453 -22.565,29.058 -16.865,8.09 -40.515,0.486 -49.356,-14.48 -10.621,-17.978 -7.224,-43.396 7.239,-58.411 10.803,-11.216 24.18,-17.811 40.245,-18.102 l 2.003,-0.004 6.214,6.648 c -17.581,-1.243 -32.391,4.144 -43.78,15.966 -13.22,13.727 -15.672,34.792 -5.961,51.228 5.365,9.083 15.812,14.232 26.702,14.232 4.967,0 10.028,-1.072 14.738,-3.332 10.783,-5.174 15.888,-16.225 18.271,-24.585 4.719,-16.556 2.833,-37.571 -4.387,-48.884 -0.751,-1.175 -1.528,-2.342 -2.313,-3.467 l -0.272,-0.392 -0.006,-0.008 -0.42,-0.559 -6.397,-8.369 C 375.627,64.23 360.925,57.298 343.358,55.718 c -26.013,-2.338 -54.307,9.161 -58.843,40.144 -1.792,12.246 1.605,23.132 5.208,34.674 1.764,5.654 3.588,11.501 4.802,17.618 2.295,11.557 -0.629,23.115 -7.632,30.163 -3.717,3.741 -10.581,8.202 -22.173,8.202 -1.719,0 -3.512,-0.106 -5.354,-0.301 l 0,2.52 c 1.877,0.19 3.663,0.281 5.354,0.281 12.151,0 19.601,-4.565 23.946,-8.94 7.58,-7.629 10.766,-20.049 8.311,-32.412 -1.241,-6.253 -3.088,-12.171 -4.873,-17.894 -3.51,-11.246 -6.824,-21.868 -5.115,-33.55 4.299,-29.363 31.296,-40.252 56.145,-38.016 16.931,1.523 30.447,7.909 41.621,19.837 -16.755,0.303 -30.961,6.388 -42.248,18.106 -15.238,15.821 -18.066,40.101 -6.876,59.043 9.485,16.055 31.849,22.09 49.849,13.454 10.261,-4.923 17.768,-14.835 21.71,-28.664 4.819,-16.911 3.401,-37.451 -3.218,-50.716 9.518,2.302 18.184,5.998 24.83,9.365 18.285,9.265 37.947,9.421 52.598,0.42 14.769,-9.073 23.126,-26.661 23.732,-49.676 l -2.515,0.267 c -0.655,21.965 -8.645,38.75 -22.526,47.279 -13.905,8.542 -32.656,8.348 -50.159,-0.52 -8.591,-4.353 -17.128,-7.571 -25.372,-9.565 l -2.286,-0.553 -5.09,-7.443 c 10.621,1.745 24.426,6.057 35.687,11.763 16.252,8.235 30.567,8.91 43.278,1.1 13.758,-8.451 19.438,-19.489 19.878,-39.729 l 0,0 c -0.44,20.288 -7.01,31.836 -19.338,39.409 -11.965,7.351 -28.346,7.06 -43.818,-0.78 -12.159,-6.161 -24.314,-10.153 -35.687,-11.763 m -1.994,1.509 m -0.748,10.314 c 6.875,10.772 8.633,30.915 4.09,46.854 -2.242,7.866 -7.003,18.245 -16.947,23.017 -13.898,6.667 -31.037,2.218 -38.207,-9.918 -9.142,-15.473 -6.834,-35.302 5.609,-48.222 11.03,-11.451 24.196,-15.396 37.107,-15.396 2.041,0 4.073,0.099 6.092,0.282 0.763,1.094 1.516,2.223 2.256,3.383 z"
         inkscape:connector-curvature="0"
         style="opacity:0.5;fill:#535b6b" />
    </g>
    <path
       inkscape:connector-curvature="0"
       id="rect3346"
       d="m 150.21996,257.96491 c -15.74617,0 -28.42187,10.67562 -28.42187,23.93555 l 0,155.20312 c 0,13.25993 12.6757,23.93359 28.42187,23.93359 l 198.8965,0 c 13.28977,17.06775 14.98473,36.15931 -0.125,47.68358 20.49658,-7.4821 39.29566,-27.93126 51.13671,-47.68358 l 185.40821,0 c 15.74617,0 28.42187,-10.67366 28.42187,-23.93359 l 0,-155.20312 c 0,-13.25993 -12.6757,-23.93555 -28.42187,-23.93555 l -435.31642,0 z"
       style="fill:none;fill-rule:evenodd;stroke:#9a9af0;stroke-width:4;stroke-linecap:butt;stroke-linejoin:round;stroke-miterlimit:4;stroke-dasharray:none;stroke-opacity:1" />
  </g>
</svg>
