<?xml version="1.0" encoding="utf-8"?>
<!-- Generator: Adobe Illustrator 16.0.0, SVG Export Plug-In . SVG Version: 6.00 Build 0)  -->
<!DOCTYPE svg PUBLIC "-//W3C//DTD SVG 1.1//EN" "http://www.w3.org/Graphics/SVG/1.1/DTD/svg11.dtd">
<svg version="1.1" id="Layer_1" xmlns="http://www.w3.org/2000/svg" xmlns:xlink="http://www.w3.org/1999/xlink" x="0px" y="0px"
	 width="517px" height="364px" viewBox="0 0 517 364" enable-background="new 0 0 517 364" xml:space="preserve">
<g>
	<defs>
		<path id="SVGID_1_" d="M82.673,74.588c0,8.833-4.611,16.59-11.558,20.993H44.56c-6.947-4.403-11.559-12.16-11.559-20.993
			c0-13.717,11.12-24.836,24.836-24.836C71.554,49.752,82.673,60.872,82.673,74.588"/>
	</defs>
	<clipPath id="SVGID_2_">
		<use xlink:href="#SVGID_1_"  overflow="visible"/>
	</clipPath>
	<path clip-path="url(#SVGID_2_)" fill="#7675DC" d="M109.759,109.416c-6.529,1.178-8.787-7.065-14.917-8.57
		c-5.58-1.37-9.381,0.507-15.118-2.465c-4.085-2.118-10.08-6.611-11.386-10.821c-0.606-1.951,0.56-3.602,0.135-5.502
		c-0.684-3.058-3.433-5.672-4.094-8.671c-2.591-11.738,11.786-10.991,20.728-6.456c4.763,2.416,9.772,6.168,13.188,1.868
		c3.28-4.129,2.754-9.52,9.084-11.613c9.447-3.123,24.893,6.716,30.776,14.354c1.441,1.872,2.016,4.067,3.485,5.906
		c1.958,2.449,4.79,3.164,6.804,5.287c3.343,3.524,4.533,8.317,4.309,12.365c-0.372,6.728-9.061,24.397-19.984,19.086
		c-4.511-2.193-4.558-8.096-10.808-6.575c-1.138,0.277-2.044,1.92-3.488,2.303C115.701,110.648,112.633,108.898,109.759,109.416"/>
	<path clip-path="url(#SVGID_2_)" fill="none" stroke="#6A6ACE" stroke-width="2" stroke-miterlimit="10" d="M109.759,109.416
		c-6.529,1.178-8.787-7.065-14.917-8.57c-5.58-1.37-9.381,0.507-15.118-2.465c-4.085-2.118-10.08-6.611-11.386-10.821
		c-0.606-1.951,0.56-3.602,0.135-5.502c-0.684-3.058-3.433-5.672-4.094-8.671c-2.591-11.738,11.786-10.991,20.728-6.456
		c4.763,2.416,9.772,6.168,13.188,1.868c3.28-4.129,2.754-9.52,9.084-11.613c9.447-3.123,24.893,6.716,30.776,14.354
		c1.441,1.872,2.016,4.067,3.485,5.906c1.958,2.449,4.79,3.164,6.804,5.287c3.343,3.524,4.533,8.317,4.309,12.365
		c-0.372,6.728-9.061,24.397-19.984,19.086c-4.511-2.193-4.558-8.096-10.808-6.575c-1.138,0.277-2.044,1.92-3.488,2.303
		C115.701,110.648,112.633,108.898,109.759,109.416z"/>
</g>
<g>
	<g>
		<path fill="#8C99A8" stroke="#535B6B" stroke-width="2" stroke-miterlimit="10" d="M317.276,207.497
			c4.097-0.759,8.175-1.878,12.189-3.368l-3.482-9.374c-21.463,7.972-45.077,3.692-60.167-10.902l-6.951,7.188
			C273.848,205.53,295.796,211.476,317.276,207.497z"/>
	</g>
	<path opacity="0.5" fill="#535B6B" d="M259.513,187.351c14.944,13.725,36.339,19.291,57.293,15.41
		c3.026-0.56,6.042-1.319,9.027-2.277l1.176,3.163c-4.013,1.492-8.092,2.61-12.189,3.369c-21.479,3.979-43.428-1.967-58.411-16.455
		L259.513,187.351z"/>
	
		<line fill="none" stroke="#535B6B" stroke-width="2" stroke-linejoin="round" stroke-miterlimit="10" x1="309.413" y1="198.06" x2="310.274" y2="208.247"/>
	
		<line fill="none" stroke="#535B6B" stroke-width="2" stroke-linejoin="round" stroke-miterlimit="10" x1="303.396" y1="198.747" x2="303.173" y2="208.969"/>
	
		<line fill="none" stroke="#535B6B" stroke-width="2" stroke-linejoin="round" stroke-miterlimit="10" x1="296.667" y1="198.136" x2="295.313" y2="208.27"/>
	
		<line fill="none" stroke="#535B6B" stroke-width="2" stroke-linejoin="round" stroke-miterlimit="10" x1="290.181" y1="196.859" x2="287.717" y2="206.782"/>
	
		<line fill="none" stroke="#535B6B" stroke-width="2" stroke-linejoin="round" stroke-miterlimit="10" x1="284.157" y1="194.912" x2="280.456" y2="204.444"/>
	
		<line fill="none" stroke="#535B6B" stroke-width="2" stroke-linejoin="round" stroke-miterlimit="10" x1="277.763" y1="191.719" x2="274.062" y2="201.251"/>
	<g>
		<path fill="#FFFFFF" d="M342.367,204.568c-0.047,0.005-2.334,0.244-5.597,0.365c-0.655,0.025-1.003-0.308-0.822-0.754
			c0.181-0.445,0.817-0.882,1.466-0.966c4.378-0.584,7.865-1.382,8.146-1.45c1.458-0.341,2.364-1.797,2.024-3.259
			c-0.338-1.456-1.798-2.364-3.256-2.024c-0.061,0.015-3.027,0.696-6.817,1.244c-0.647,0.093-1.254-0.147-1.387-0.516
			c-0.128-0.369,0.253-0.805,0.878-0.993c3.523-1.056,5.981-1.951,6.175-2.021c1.406-0.515,2.131-2.07,1.615-3.479
			c-0.513-1.406-2.07-2.13-3.479-1.617c-0.054,0.02-3.583,1.301-8.236,2.599c-0.63,0.176-1.339,0.189-1.588,0.056
			c-0.248-0.137-0.124-0.651,0.27-1.171c1.326-1.741,2.122-3.005,2.198-3.13c0.794-1.27,0.402-2.939-0.864-3.734
			c-1.271-0.795-2.94-0.408-3.735,0.859c-0.019,0.029-0.816,1.291-2.139,3.006c-1.353,1.75-3.132,3.098-5.088,4.136
			c-3.618,1.919-5.801,5.974-5.141,10.252c0.751,4.864,4.924,8.345,9.695,8.383c1.081,0.012,2.163-0.021,3.243,0.02
			c6.716,0.249,12.694-0.376,13.015-0.412c1.49-0.159,2.567-1.495,2.408-2.983C345.194,205.488,343.857,204.408,342.367,204.568"/>
		<path fill="none" stroke="#535B6B" stroke-width="2" stroke-linejoin="round" stroke-miterlimit="10" d="M342.367,204.568
			c-0.047,0.005-2.334,0.244-5.597,0.365c-0.655,0.025-1.003-0.308-0.822-0.754c0.181-0.445,0.817-0.882,1.466-0.966
			c4.378-0.584,7.865-1.382,8.146-1.45c1.458-0.341,2.364-1.797,2.024-3.259c-0.338-1.456-1.798-2.364-3.256-2.024
			c-0.061,0.015-3.027,0.696-6.817,1.244c-0.647,0.093-1.254-0.147-1.387-0.516c-0.128-0.369,0.253-0.805,0.878-0.993
			c3.523-1.056,5.981-1.951,6.175-2.021c1.406-0.515,2.131-2.07,1.615-3.479c-0.513-1.406-2.07-2.13-3.479-1.617
			c-0.054,0.02-3.583,1.301-8.236,2.599c-0.63,0.176-1.339,0.189-1.588,0.056c-0.248-0.137-0.124-0.651,0.27-1.171
			c1.326-1.741,2.122-3.005,2.198-3.13c0.794-1.27,0.402-2.939-0.864-3.734c-1.271-0.795-2.94-0.408-3.735,0.859
			c-0.019,0.029-0.816,1.291-2.139,3.006c-1.353,1.75-3.132,3.098-5.088,4.136c-3.618,1.919-5.801,5.974-5.141,10.252
			c0.751,4.864,4.924,8.345,9.695,8.383c1.081,0.012,2.163-0.021,3.243,0.02c6.716,0.249,12.694-0.376,13.015-0.412
			c1.49-0.159,2.567-1.495,2.408-2.983C345.194,205.488,343.857,204.408,342.367,204.568z"/>
		<path fill="#FFFFFF" d="M316.372,208.971c-0.032-0.106-0.06-0.213-0.083-0.321l-2.488-12.093
			c-0.345-1.673,0.732-3.304,2.402-3.649c1.668-0.342,3.302,0.745,3.645,2.402l2.49,12.096c0.344,1.67-0.731,3.303-2.402,3.646
			C318.377,211.375,316.846,210.454,316.372,208.971"/>
		<path fill="none" stroke="#535B6B" stroke-width="2" stroke-linejoin="round" stroke-miterlimit="10" d="M316.372,208.971
			c-0.032-0.106-0.06-0.213-0.083-0.321l-2.488-12.093c-0.345-1.673,0.732-3.304,2.402-3.649c1.668-0.342,3.302,0.745,3.645,2.402
			l2.49,12.096c0.344,1.67-0.731,3.303-2.402,3.646C318.377,211.375,316.846,210.454,316.372,208.971z"/>
	</g>
</g>
<g>
	<g>
		<path fill="#8C99A8" stroke="#535B6B" stroke-width="2" stroke-miterlimit="10" d="M132.68,217.635
			c-4.145-0.435-8.298-1.229-12.416-2.4l2.734-9.618c22.022,6.26,45.227,0.137,59.123-15.598l7.495,6.619
			C175.82,212.26,154.407,219.912,132.68,217.635z"/>
	</g>
	<path opacity="0.5" fill="#535B6B" d="M188.681,193.01c-13.819,14.856-34.71,22.088-55.904,19.866
		c-3.061-0.32-6.127-0.842-9.179-1.561l-0.923,3.246c4.118,1.171,8.271,1.966,12.416,2.399c21.727,2.278,43.14-5.374,56.937-20.996
		L188.681,193.01z"/>
	
		<line fill="none" stroke="#535B6B" stroke-width="2" stroke-linejoin="round" stroke-miterlimit="10" x1="139.777" y1="207.608" x2="139.72" y2="217.831"/>
	
		<line fill="none" stroke="#535B6B" stroke-width="2" stroke-linejoin="round" stroke-miterlimit="10" x1="145.828" y1="207.82" x2="146.854" y2="217.992"/>
	
		<line fill="none" stroke="#535B6B" stroke-width="2" stroke-linejoin="round" stroke-miterlimit="10" x1="152.489" y1="206.682" x2="154.636" y2="216.679"/>
	
		<line fill="none" stroke="#535B6B" stroke-width="2" stroke-linejoin="round" stroke-miterlimit="10" x1="158.855" y1="204.899" x2="162.092" y2="214.599"/>
	
		<line fill="none" stroke="#535B6B" stroke-width="2" stroke-linejoin="round" stroke-miterlimit="10" x1="164.707" y1="202.485" x2="169.146" y2="211.697"/>
	
		<line fill="none" stroke="#535B6B" stroke-width="2" stroke-linejoin="round" stroke-miterlimit="10" x1="170.831" y1="198.799" x2="175.27" y2="208.011"/>
	
		<line fill="none" stroke="#535B6B" stroke-width="2" stroke-linejoin="round" stroke-miterlimit="10" x1="175.609" y1="196.056" x2="180.048" y2="205.267"/>
	<g>
		<path fill="#FFFFFF" d="M107.437,216.688c0.047,0.001,2.347,0.06,5.608-0.076c0.655-0.026,0.975-0.386,0.76-0.816
			c-0.214-0.429-0.884-0.814-1.537-0.848c-4.41-0.237-7.95-0.76-8.235-0.805c-1.481-0.225-2.499-1.606-2.275-3.09
			c0.223-1.479,1.606-2.499,3.087-2.274c0.062,0.01,3.073,0.457,6.894,0.705c0.652,0.041,1.238-0.246,1.341-0.624
			c0.1-0.377-0.314-0.782-0.952-0.921c-3.596-0.775-6.116-1.475-6.315-1.529c-1.442-0.401-2.287-1.896-1.883-3.342
			c0.4-1.442,1.897-2.286,3.34-1.884c0.055,0.015,3.674,1.016,8.416,1.943c0.642,0.125,1.35,0.084,1.588-0.069
			c0.236-0.157,0.073-0.659-0.362-1.146c-1.457-1.632-2.351-2.83-2.437-2.947c-0.891-1.204-0.632-2.899,0.568-3.791
			c1.204-0.894,2.899-0.639,3.792,0.563c0.02,0.027,0.916,1.223,2.368,2.829c1.486,1.639,3.366,2.843,5.396,3.724
			c3.758,1.628,6.254,5.499,5.932,9.815c-0.367,4.908-4.253,8.706-9.006,9.118c-1.077,0.097-2.158,0.15-3.232,0.276
			c-6.675,0.774-12.685,0.622-13.006,0.612c-1.498-0.042-2.678-1.29-2.637-2.786C104.69,217.826,105.938,216.645,107.437,216.688"/>
		<path fill="none" stroke="#535B6B" stroke-width="2" stroke-linejoin="round" stroke-miterlimit="10" d="M107.437,216.688
			c0.047,0.001,2.347,0.06,5.608-0.076c0.655-0.026,0.975-0.386,0.76-0.816c-0.214-0.429-0.884-0.814-1.537-0.848
			c-4.41-0.237-7.95-0.76-8.235-0.805c-1.481-0.225-2.499-1.606-2.275-3.09c0.223-1.479,1.606-2.499,3.087-2.274
			c0.062,0.01,3.073,0.457,6.894,0.705c0.652,0.041,1.238-0.246,1.341-0.624c0.1-0.377-0.314-0.782-0.952-0.921
			c-3.596-0.775-6.116-1.475-6.315-1.529c-1.442-0.401-2.287-1.896-1.883-3.342c0.4-1.442,1.897-2.286,3.34-1.884
			c0.055,0.015,3.674,1.016,8.416,1.943c0.642,0.125,1.35,0.084,1.588-0.069c0.236-0.157,0.073-0.659-0.362-1.146
			c-1.457-1.632-2.351-2.83-2.437-2.947c-0.891-1.204-0.632-2.899,0.568-3.791c1.204-0.894,2.899-0.639,3.792,0.563
			c0.02,0.027,0.916,1.223,2.368,2.829c1.486,1.639,3.366,2.843,5.396,3.724c3.758,1.628,6.254,5.499,5.932,9.815
			c-0.367,4.908-4.253,8.706-9.006,9.118c-1.077,0.097-2.158,0.15-3.232,0.276c-6.675,0.774-12.685,0.622-13.006,0.612
			c-1.498-0.042-2.678-1.29-2.637-2.786C104.69,217.826,105.938,216.645,107.437,216.688z"/>
		<path fill="#FFFFFF" d="M133.696,219.032c0.024-0.108,0.044-0.216,0.058-0.326l1.53-12.251c0.212-1.695-0.989-3.236-2.681-3.45
			c-1.689-0.209-3.234,1.003-3.445,2.683l-1.532,12.253c-0.211,1.692,0.989,3.235,2.682,3.446
			C131.888,221.587,133.341,220.548,133.696,219.032"/>
		<path fill="none" stroke="#535B6B" stroke-width="2" stroke-linejoin="round" stroke-miterlimit="10" d="M133.696,219.032
			c0.024-0.108,0.044-0.216,0.058-0.326l1.53-12.251c0.212-1.695-0.989-3.236-2.681-3.45c-1.689-0.209-3.234,1.003-3.445,2.683
			l-1.532,12.253c-0.211,1.692,0.989,3.235,2.682,3.446C131.888,221.587,133.341,220.548,133.696,219.032z"/>
	</g>
</g>
<path fill="#7C85D8" d="M502.073,49.7l-1.893,3.249l-2.263-2.15l-1.892,1.175c-0.44,20.288-7.01,31.836-19.338,39.409
	c-11.965,7.351-28.346,7.06-43.818-0.78c-12.159-6.161-24.314-10.153-35.687-11.763c-13.712-18.118-30.817-27.58-53.245-29.597
	c-34.385-3.092-61.466,15.69-65.856,45.676c-2.006,13.709,1.773,25.822,5.429,37.535c1.715,5.497,3.489,11.182,4.637,16.965
	c1.473,7.418,0.705,17.701-5.866,24.316c-5.726,5.763-15.028,7.605-26.898,5.328l-1.695,8.839c4.05,0.777,7.715,1.117,11.031,1.117
	c12.151,0,19.601-4.565,23.946-8.94c7.58-7.629,10.766-20.049,8.311-32.412c-1.241-6.253-3.088-12.171-4.873-17.894
	c-3.51-11.246-6.824-21.868-5.115-33.55c4.299-29.363,31.296-40.252,56.145-38.016c16.931,1.523,30.447,7.909,41.621,19.837
	c-16.755,0.303-30.961,6.388-42.248,18.106c-15.238,15.821-18.066,40.101-6.876,59.043c9.485,16.055,31.849,22.09,49.849,13.454
	c10.261-4.923,17.768-14.835,21.71-28.664c4.821-16.913,3.403-37.453-3.216-50.718c9.518,2.302,18.184,5.998,24.83,9.365
	c18.285,9.265,37.947,9.421,52.598,0.42c14.769-9.073,23.126-26.661,23.732-49.676L502.073,49.7z M398.532,137.518
	c-2.242,7.866-7.003,18.245-16.947,23.017c-13.898,6.667-31.037,2.218-38.207-9.918c-9.142-15.473-6.834-35.302,5.609-48.222
	c11.03-11.451,24.196-15.396,37.107-15.396c2.041,0,4.073,0.099,6.092,0.282c0.763,1.095,1.516,2.223,2.256,3.383
	C401.317,101.436,403.075,121.579,398.532,137.518z"/>
<path fill="none" stroke="#535B6B" stroke-width="1.5" stroke-miterlimit="10" d="M502.073,49.7l-1.893,3.249l-2.263-2.15
	l-1.892,1.175c-0.44,20.288-7.01,31.836-19.338,39.409c-11.965,7.351-28.346,7.06-43.818-0.78
	c-12.159-6.161-24.314-10.153-35.687-11.763c-13.712-18.118-30.817-27.58-53.245-29.597c-34.385-3.092-61.466,15.69-65.856,45.676
	c-2.006,13.709,1.773,25.822,5.429,37.535c1.715,5.497,3.489,11.182,4.637,16.965c1.473,7.418,0.705,17.701-5.866,24.316
	c-5.726,5.763-15.028,7.605-26.898,5.328l-1.695,8.839c4.05,0.777,7.715,1.117,11.031,1.117c12.151,0,19.601-4.565,23.946-8.94
	c7.58-7.629,10.766-20.049,8.311-32.412c-1.241-6.253-3.088-12.171-4.873-17.894c-3.51-11.246-6.824-21.868-5.115-33.55
	c4.299-29.363,31.296-40.252,56.145-38.016c16.931,1.523,30.447,7.909,41.621,19.837c-16.755,0.303-30.961,6.388-42.248,18.106
	c-15.238,15.821-18.066,40.101-6.876,59.043c9.485,16.055,31.849,22.09,49.849,13.454c10.261-4.923,17.768-14.835,21.71-28.664
	c4.821-16.913,3.403-37.453-3.216-50.718c9.518,2.302,18.184,5.998,24.83,9.365c18.285,9.265,37.947,9.421,52.598,0.42
	c14.769-9.073,23.126-26.661,23.732-49.676L502.073,49.7z M398.532,137.518c-2.242,7.866-7.003,18.245-16.947,23.017
	c-13.898,6.667-31.037,2.218-38.207-9.918c-9.142-15.473-6.834-35.302,5.609-48.222c11.03-11.451,24.196-15.396,37.107-15.396
	c2.041,0,4.073,0.099,6.092,0.282c0.763,1.095,1.516,2.223,2.256,3.383C401.317,101.436,403.075,121.579,398.532,137.518z"/>
<path opacity="0.5" fill="#535B6B" d="M387.04,87.021c1.713,0.025,3.422,0.104,5.119,0.257c-2.375-3.476-4.684-6.433-7.336-9.229
	h-0.201c-1.578,0.032-3.129,0.126-4.658,0.264C382.458,81.039,384.761,83.89,387.04,87.021z"/>
<path fill="none" stroke="#535B6B" stroke-width="1.5" stroke-miterlimit="10" d="M392.159,87.279
	c-2.375-3.476-4.684-6.433-7.336-9.229h-0.201"/>
<path fill="none" stroke="#535B6B" stroke-width="1.5" stroke-miterlimit="10" d="M403.972,89.267
	c-1.975-3.718-4.463-7.352-6.788-10.426"/>
<path opacity="0.5" fill="#535B6B" d="M397.754,79.219c2.367,2.782,4.905,7.155,6.636,10.4c0.718,0.174,1.42,0.37,2.129,0.558
	c-1.939-3.472-4.214-7.271-6.537-10.588C399.238,79.464,398.491,79.324,397.754,79.219z"/>
<line fill="none" stroke="#535B6B" stroke-miterlimit="10" x1="496.644" y1="43.479" x2="497.13" y2="50.868"/>
<line fill="none" stroke="#535B6B" stroke-miterlimit="10" x1="504.37" y1="39.343" x2="504.827" y2="49.193"/>
<line fill="none" stroke="#535B6B" stroke-miterlimit="10" x1="499.552" y1="44.268" x2="499.895" y2="51.978"/>
<line fill="none" stroke="#535B6B" stroke-miterlimit="10" x1="501.932" y1="46.013" x2="502.073" y2="49.229"/>
<path fill="#FFFFFF" d="M191.619,166.196l65.885-3.16c4.047-0.193,7.486,2.931,7.68,6.977l2.352,48.992l-80.543,3.864l-2.35-48.992
	C184.448,169.829,187.572,166.391,191.619,166.196"/>
<path fill="none" stroke="#535B6B" stroke-width="2" stroke-linejoin="round" stroke-miterlimit="10" d="M191.619,166.196
	l65.885-3.16c4.047-0.193,7.486,2.931,7.68,6.977l2.352,48.992l-80.543,3.864l-2.35-48.992
	C184.448,169.829,187.572,166.391,191.619,166.196z"/>
<path fill="#8C99A8" d="M261.295,306.465l19.854,0.391l0.914-46.322l-32.887-32.352l-16.607,16.882l25.617,25.201l-0.637,32.3
	C257.507,304.677,259.184,306.422,261.295,306.465"/>
<path fill="none" stroke="#535B6B" stroke-width="2" stroke-linejoin="round" stroke-miterlimit="10" d="M261.295,306.465
	l19.854,0.391l0.914-46.322l-32.887-32.352l-16.607,16.882l25.617,25.201l-0.637,32.3
	C257.507,304.677,259.184,306.422,261.295,306.465z"/>
<path fill="#8C99A8" d="M287.796,304.704l-6.443-8.21l-23.675-0.468l-0.129,6.528c-0.041,2.116,1.643,3.861,3.759,3.898
	l25.407,0.426C287.847,306.9,288.495,305.594,287.796,304.704"/>
<path fill="none" stroke="#535B6B" stroke-width="2" stroke-linejoin="round" stroke-miterlimit="10" d="M287.796,304.704
	l-6.443-8.21l-23.675-0.468l-0.129,6.528c-0.041,2.116,1.643,3.861,3.759,3.898l25.407,0.426
	C287.847,306.9,288.495,305.594,287.796,304.704z"/>
<g opacity="0.5">
	<defs>
		
			<rect id="SVGID_3_" x="256.983" y="300.904" transform="matrix(0.9833 0.182 -0.182 0.9833 59.9956 -44.4967)" opacity="0.5" width="31.014" height="7.607"/>
	</defs>
	<clipPath id="SVGID_4_">
		<use xlink:href="#SVGID_3_"  overflow="visible"/>
	</clipPath>
	<path clip-path="url(#SVGID_4_)" fill="#535B6B" d="M261.297,303.086l25.407,0.43c0.051-0.001,0.095-0.015,0.143-0.02l0.949,1.208
		c0.699,0.892,0.051,2.194-1.082,2.177l-25.407-0.428c-2.116-0.037-3.8-1.784-3.758-3.898l0.052-2.607
		C257.918,301.708,259.44,303.057,261.297,303.086"/>
</g>
<line fill="#8C99A8" x1="257.879" y1="285.757" x2="281.557" y2="286.223"/>
<line fill="none" stroke="#535B6B" stroke-width="2" stroke-linejoin="round" stroke-miterlimit="10" x1="257.879" y1="285.757" x2="281.557" y2="286.223"/>
<line fill="#8C99A8" x1="258.083" y1="275.488" x2="281.76" y2="275.954"/>
<line fill="none" stroke="#535B6B" stroke-width="2" stroke-linejoin="round" stroke-miterlimit="10" x1="258.083" y1="275.488" x2="281.76" y2="275.954"/>
<line fill="#8C99A8" x1="258.185" y1="270.269" x2="282.061" y2="260.634"/>
<line fill="none" stroke="#535B6B" stroke-width="2" stroke-linejoin="round" stroke-miterlimit="10" x1="258.185" y1="270.269" x2="282.061" y2="260.634"/>
<line fill="#8C99A8" x1="254.535" y1="266.674" x2="271.141" y2="249.791"/>
<line fill="none" stroke="#535B6B" stroke-width="2" stroke-linejoin="round" stroke-miterlimit="10" x1="254.535" y1="266.674" x2="271.141" y2="249.791"/>
<line fill="#8C99A8" x1="247.213" y1="259.471" x2="263.818" y2="242.588"/>
<line fill="none" stroke="#535B6B" stroke-width="2" stroke-linejoin="round" stroke-miterlimit="10" x1="247.213" y1="259.471" x2="263.818" y2="242.588"/>
<line fill="#8C99A8" x1="239.891" y1="252.267" x2="256.497" y2="235.385"/>
<line fill="none" stroke="#535B6B" stroke-width="2" stroke-linejoin="round" stroke-miterlimit="10" x1="239.891" y1="252.267" x2="256.497" y2="235.385"/>
<line fill="#8C99A8" x1="232.568" y1="245.063" x2="249.174" y2="228.182"/>
<line fill="none" stroke="#535B6B" stroke-width="2" stroke-linejoin="round" stroke-miterlimit="10" x1="232.568" y1="245.063" x2="249.174" y2="228.182"/>
<path fill="#8C99A8" d="M201.572,309.328l-19.725,2.289l-5.343-46.02l29.64-35.353l18.147,15.216l-23.087,27.536l3.726,32.093
	C205.172,307.186,203.669,309.085,201.572,309.328"/>
<path fill="none" stroke="#535B6B" stroke-width="2" stroke-linejoin="round" stroke-miterlimit="10" d="M201.572,309.328
	l-19.725,2.289l-5.343-46.02l29.64-35.353l18.147,15.216l-23.087,27.536l3.726,32.093
	C205.172,307.186,203.669,309.085,201.572,309.328z"/>
<path fill="#8C99A8" d="M175.025,310.113l5.627-8.789l23.522-2.732l0.753,6.485c0.244,2.103-1.266,4.003-3.368,4.241l-25.25,2.857
	C175.184,312.303,174.415,311.068,175.025,310.113"/>
<path fill="none" stroke="#535B6B" stroke-width="2" stroke-linejoin="round" stroke-miterlimit="10" d="M175.025,310.113
	l5.627-8.789l23.522-2.732l0.753,6.485c0.244,2.103-1.266,4.003-3.368,4.241l-25.25,2.857
	C175.184,312.303,174.415,311.068,175.025,310.113z"/>
<line fill="#8C99A8" x1="202.99" y1="288.39" x2="179.467" y2="291.121"/>
<line fill="none" stroke="#535B6B" stroke-width="2" stroke-linejoin="round" stroke-miterlimit="10" x1="202.99" y1="288.39" x2="179.467" y2="291.121"/>
<line fill="#8C99A8" x1="201.805" y1="278.188" x2="178.283" y2="280.918"/>
<line fill="none" stroke="#535B6B" stroke-width="2" stroke-linejoin="round" stroke-miterlimit="10" x1="201.805" y1="278.188" x2="178.283" y2="280.918"/>
<line fill="#8C99A8" x1="201.203" y1="273.003" x2="176.516" y2="265.697"/>
<line fill="none" stroke="#535B6B" stroke-width="2" stroke-linejoin="round" stroke-miterlimit="10" x1="201.203" y1="273.003" x2="176.516" y2="265.697"/>
<line fill="#8C99A8" x1="204.494" y1="269.074" x2="186.347" y2="253.859"/>
<line fill="none" stroke="#535B6B" stroke-width="2" stroke-linejoin="round" stroke-miterlimit="10" x1="204.494" y1="269.074" x2="186.347" y2="253.859"/>
<line fill="#8C99A8" x1="211.093" y1="261.203" x2="192.946" y2="245.986"/>
<line fill="none" stroke="#535B6B" stroke-width="2" stroke-linejoin="round" stroke-miterlimit="10" x1="211.093" y1="261.203" x2="192.946" y2="245.986"/>
<line fill="#8C99A8" x1="217.692" y1="253.331" x2="199.546" y2="238.116"/>
<line fill="none" stroke="#535B6B" stroke-width="2" stroke-linejoin="round" stroke-miterlimit="10" x1="217.692" y1="253.331" x2="199.546" y2="238.116"/>
<line fill="#8C99A8" x1="224.292" y1="245.461" x2="206.145" y2="230.245"/>
<line fill="none" stroke="#535B6B" stroke-width="2" stroke-linejoin="round" stroke-miterlimit="10" x1="224.292" y1="245.461" x2="206.145" y2="230.245"/>
<line fill="#8C99A8" x1="227.567" y1="190.133" x2="231.253" y2="201.553"/>
<line fill="none" stroke="#535B6B" stroke-width="2" stroke-linejoin="round" stroke-miterlimit="10" x1="227.567" y1="190.133" x2="231.253" y2="201.553"/>
<line fill="#8C99A8" x1="237.234" y1="187.58" x2="239.683" y2="199.328"/>
<line fill="none" stroke="#535B6B" stroke-width="2" stroke-linejoin="round" stroke-miterlimit="10" x1="237.234" y1="187.58" x2="239.683" y2="199.328"/>
<line fill="#8C99A8" x1="247.142" y1="186.075" x2="248.28" y2="198.021"/>
<line fill="none" stroke="#535B6B" stroke-width="2" stroke-linejoin="round" stroke-miterlimit="10" x1="247.142" y1="186.075" x2="248.28" y2="198.021"/>
<line fill="#8C99A8" x1="257.231" y1="185.73" x2="256.89" y2="197.727"/>
<line fill="none" stroke="#535B6B" stroke-width="2" stroke-linejoin="round" stroke-miterlimit="10" x1="257.231" y1="185.73" x2="256.89" y2="197.727"/>
<line fill="#8C99A8" x1="267.379" y1="186.724" x2="265.361" y2="198.553"/>
<line fill="#8C99A8" x1="210.313" y1="206.844" x2="210.53" y2="194.846"/>
<line fill="none" stroke="#535B6B" stroke-width="2" stroke-linejoin="round" stroke-miterlimit="10" x1="210.313" y1="206.844" x2="210.53" y2="194.846"/>
<line fill="#8C99A8" x1="200.341" y1="206.124" x2="201.835" y2="194.217"/>
<line fill="none" stroke="#535B6B" stroke-width="2" stroke-linejoin="round" stroke-miterlimit="10" x1="200.341" y1="206.124" x2="201.835" y2="194.217"/>
<line fill="#8C99A8" x1="190.482" y1="204.335" x2="193.28" y2="192.665"/>
<line fill="none" stroke="#535B6B" stroke-width="2" stroke-linejoin="round" stroke-miterlimit="10" x1="190.482" y1="204.335" x2="193.28" y2="192.665"/>
<line fill="#8C99A8" x1="180.826" y1="201.389" x2="185.038" y2="190.152"/>
<path fill="#FFFFFF" stroke="#535B6B" stroke-width="2" stroke-linejoin="round" stroke-miterlimit="10" d="M186.041,206.398
	l4.79-0.57l2.234-20.572l-9.427,0.948c-2.493,0.295-4.274,2.557-3.978,5.05l1.331,11.168
	C181.288,204.916,183.548,206.695,186.041,206.398z"/>
<path fill="#FFFFFF" stroke="#535B6B" stroke-width="2" stroke-linejoin="round" stroke-miterlimit="10" d="M265.825,203.363
	l-4.819-0.227l-3.699-20.36l9.471,0.271c2.507,0.117,4.445,2.245,4.328,4.752l-0.527,11.234
	C270.46,201.544,268.333,203.48,265.825,203.363z"/>
<path fill="#FFFFFF" d="M198.395,177.149c0,0-16.75,21.541-16.111,59.207c0.114,6.722,4.771,12.497,11.266,14.231
	c8.164,2.181,20.537,4.425,35.365,3.714l-0.094,0.005c14.828-0.711,26.928-4.131,34.846-7.08c6.406-2.388,10.385-8.745,9.829-15.56
	c-3.048-37.353-21.679-57.08-21.679-57.08L198.395,177.149z"/>
<path fill="none" stroke="#535B6B" stroke-width="2" stroke-linejoin="round" stroke-miterlimit="10" d="M198.395,177.149
	c0,0-16.75,21.541-16.111,59.207c0.114,6.722,4.771,12.497,11.266,14.231c8.164,2.181,20.537,4.425,35.365,3.714l-0.094,0.005
	c14.828-0.711,26.928-4.131,34.846-7.08c6.406-2.388,10.385-8.745,9.829-15.56c-3.048-37.353-21.679-57.08-21.679-57.08
	L198.395,177.149z"/>
<rect x="208.901" y="197.004" transform="matrix(-0.9989 0.0479 -0.0479 -0.9989 464.0134 419.0445)" fill="#FFFFFF" width="36.162" height="36.164"/>
<rect x="208.901" y="197.004" transform="matrix(-0.9989 0.0479 -0.0479 -0.9989 464.0134 419.0445)" fill="none" stroke="#535B6B" stroke-width="2" stroke-linejoin="round" stroke-miterlimit="10" width="36.162" height="36.164"/>
<path fill="#FFDB69" d="M215.156,215.652c-0.313-6.531,4.727-12.08,11.258-12.393c6.532-0.313,12.08,4.728,12.394,11.259
	c0.312,6.531-4.728,12.08-11.259,12.394C221.018,227.225,215.469,222.184,215.156,215.652"/>
<circle fill="none" stroke="#FF9136" stroke-width="2" stroke-linejoin="round" stroke-miterlimit="10" cx="226.982" cy="215.085" r="11.84"/>
<g>
	<defs>
		
			<rect id="SVGID_5_" x="215.139" y="203.244" transform="matrix(0.9833 0.182 -0.182 0.9833 42.9258 -37.7105)" width="23.684" height="23.684"/>
	</defs>
	<clipPath id="SVGID_6_">
		<use xlink:href="#SVGID_5_"  overflow="visible"/>
	</clipPath>
	<path clip-path="url(#SVGID_6_)" fill="#F5CA5C" d="M228.601,206.393c4.047,0.749,7.013,4.15,7.21,8.27
		c0.233,4.869-3.538,9.019-8.405,9.253c-0.688,0.033-1.375-0.013-2.042-0.136c-4.048-0.75-7.013-4.15-7.211-8.271
		c-0.232-4.869,3.538-9.019,8.406-9.253C227.247,206.224,227.934,206.269,228.601,206.393 M229.146,203.443
		c-0.881-0.164-1.797-0.229-2.732-0.184c-6.531,0.313-11.571,5.861-11.258,12.393c0.269,5.596,4.38,10.1,9.662,11.077
		c0.882,0.163,1.796,0.227,2.731,0.183c6.531-0.314,11.572-5.863,11.259-12.395C238.54,208.922,234.427,204.421,229.146,203.443"/>
</g>
<circle fill="none" stroke="#535B6B" stroke-width="2" stroke-linejoin="round" stroke-miterlimit="10" cx="226.982" cy="215.085" r="11.84"/>
<g>
	<defs>
		
			<rect id="SVGID_7_" x="219.488" y="205.832" transform="matrix(0.9833 0.182 -0.182 0.9833 41.9647 -37.8186)" width="15.099" height="7.807"/>
	</defs>
	<clipPath id="SVGID_8_">
		<use xlink:href="#SVGID_7_"  overflow="visible"/>
	</clipPath>
	<path clip-path="url(#SVGID_8_)" fill="#FFFFFF" d="M226.783,210.927c-3.758,0.179-7.577,2.796-7.684,0.562
		c-0.106-2.231,3.195-5.361,7.444-5.565c4.248-0.204,7.834,2.597,7.941,4.829C234.591,212.983,230.542,210.746,226.783,210.927"/>
</g>
<line fill="#FFFFFF" x1="245.042" y1="214.219" x2="208.922" y2="215.952"/>
<line fill="none" stroke="#535B6B" stroke-width="2" stroke-linejoin="round" stroke-miterlimit="10" x1="245.042" y1="214.219" x2="208.922" y2="215.952"/>
<path fill="#FFFFFF" d="M271.531,217.737L271.531,217.737c-3.773,1.179-7.762-1.116-8.605-4.98
	c-1.875-8.578-5.922-22.887-13.445-32.346c-1.852-2.327-2.469-4.159-2.234-5.605l4.569-0.219
	C251.816,174.587,265.822,189.435,271.531,217.737"/>
<path fill="none" stroke="#535B6B" stroke-width="2" stroke-linejoin="round" stroke-miterlimit="10" d="M271.531,217.737
	L271.531,217.737c-3.773,1.179-7.762-1.116-8.605-4.98c-1.875-8.578-5.922-22.887-13.445-32.346
	c-1.852-2.327-2.469-4.159-2.234-5.605l4.569-0.219C251.816,174.587,265.822,189.435,271.531,217.737z"/>
<line fill="#FFFFFF" x1="246.192" y1="238.194" x2="210.072" y2="239.925"/>
<line fill="none" stroke="#9FADC1" stroke-width="2" stroke-linecap="round" stroke-linejoin="round" stroke-miterlimit="10" x1="246.192" y1="238.194" x2="210.072" y2="239.925"/>
<line fill="#FFFFFF" x1="246.419" y1="242.925" x2="210.299" y2="244.657"/>
<line fill="none" stroke="#9FADC1" stroke-width="2" stroke-linecap="round" stroke-linejoin="round" stroke-miterlimit="10" x1="246.419" y1="242.925" x2="210.299" y2="244.657"/>
<path fill="#F26A6A" d="M236.845,188.763c0.091,1.921,1.725,3.405,3.646,3.314c1.923-0.093,3.406-1.726,3.314-3.647
	c-0.092-1.922-1.726-3.406-3.647-3.313C238.235,185.208,236.752,186.841,236.845,188.763"/>
<circle fill="none" stroke="#535B6B" stroke-width="2" stroke-linejoin="round" stroke-miterlimit="10" cx="240.325" cy="188.597" r="3.484"/>
<path fill="#F26A6A" d="M207.686,190.162c0.091,1.922,1.725,3.406,3.646,3.314c1.923-0.093,3.406-1.727,3.315-3.648
	c-0.092-1.922-1.726-3.406-3.647-3.314C209.076,186.607,207.593,188.24,207.686,190.162"/>
<circle fill="none" stroke="#535B6B" stroke-width="2" stroke-linejoin="round" stroke-miterlimit="10" cx="211.166" cy="189.995" r="3.484"/>
<path fill="#F26A6A" d="M222.265,189.463c0.091,1.922,1.724,3.406,3.646,3.313c1.923-0.092,3.406-1.725,3.314-3.647
	c-0.092-1.922-1.726-3.406-3.647-3.313C223.656,185.907,222.173,187.542,222.265,189.463"/>
<circle fill="none" stroke="#535B6B" stroke-width="2" stroke-linejoin="round" stroke-miterlimit="10" cx="225.746" cy="189.296" r="3.484"/>
<path fill="#FFFFFF" d="M246.567,174.838l5.249-0.252c0,0,18.63,19.727,21.678,57.08c0.031,0.382,0.043,0.762,0.047,1.141
	l-0.102-0.003c-3.828,1.084-7.703-1.523-8.162-5.478c-1.286-11.056-5.046-31.882-15.797-46.915
	C247.963,178.289,247.031,176.446,246.567,174.838"/>
<path fill="none" stroke="#535B6B" stroke-width="2" stroke-linejoin="round" stroke-miterlimit="10" d="M246.567,174.838
	l5.249-0.252c0,0,18.63,19.727,21.678,57.08c0.031,0.382,0.043,0.762,0.047,1.141l-0.102-0.003
	c-3.828,1.084-7.703-1.523-8.162-5.478c-1.286-11.056-5.046-31.882-15.797-46.915C247.963,178.289,247.031,176.446,246.567,174.838z
	"/>
<path fill="#FFFFFF" d="M203.469,176.906l-5.249,0.252c0,0-16.657,21.42-16.117,58.892c0.006,0.383,0.03,0.763,0.063,1.141
	l0.101-0.014c3.916,0.713,7.523-2.254,7.601-6.232c0.222-11.129,1.97-32.22,11.234-48.212
	C202.409,180.475,203.161,178.55,203.469,176.906"/>
<path fill="none" stroke="#535B6B" stroke-width="2" stroke-linejoin="round" stroke-miterlimit="10" d="M203.469,176.906
	l-5.249,0.252c0,0-16.657,21.42-16.117,58.892c0.006,0.383,0.03,0.763,0.063,1.141l0.101-0.014c3.916,0.713,7.523-2.254,7.601-6.232
	c0.222-11.129,1.97-32.22,11.234-48.212C202.409,180.475,203.161,178.55,203.469,176.906z"/>
<path fill="#FFFFFF" d="M176.893,147.841l4.819-0.23l-1.145-23.865l-4.819,0.232c-2.507,0.121-4.442,2.25-4.322,4.759l0.708,14.783
	C172.256,146.026,174.386,147.961,176.893,147.841"/>
<path fill="none" stroke="#535B6B" stroke-width="2" stroke-linejoin="round" stroke-miterlimit="10" d="M176.893,147.841
	l4.819-0.23l-1.145-23.865l-4.819,0.232c-2.507,0.121-4.442,2.25-4.322,4.759l0.708,14.783
	C172.256,146.026,174.386,147.961,176.893,147.841z"/>
<path fill="#FFFFFF" d="M176.893,147.841l4.819-0.23l-1.145-23.865l-4.819,0.232c-2.507,0.121-4.442,2.25-4.322,4.759l0.708,14.783
	C172.256,146.026,174.386,147.961,176.893,147.841"/>
<path fill="none" stroke="#535B6B" stroke-width="2" stroke-linejoin="round" stroke-miterlimit="10" d="M176.893,147.841
	l4.819-0.23l-1.145-23.865l-4.819,0.232c-2.507,0.121-4.442,2.25-4.322,4.759l0.708,14.783
	C172.256,146.026,174.386,147.961,176.893,147.841z"/>
<line fill="#FFFFFF" x1="181.916" y1="129.122" x2="175.584" y2="129.426"/>
<line fill="none" stroke="#9FADC1" stroke-width="2" stroke-linecap="round" stroke-linejoin="round" stroke-miterlimit="10" x1="181.916" y1="129.122" x2="175.584" y2="129.426"/>
<line fill="#FFFFFF" x1="182.54" y1="142.13" x2="176.208" y2="142.435"/>
<line fill="none" stroke="#9FADC1" stroke-width="2" stroke-linecap="round" stroke-linejoin="round" stroke-miterlimit="10" x1="182.54" y1="142.13" x2="176.208" y2="142.435"/>
<line fill="#FFFFFF" x1="182.228" y1="135.626" x2="175.896" y2="135.93"/>
<line fill="none" stroke="#9FADC1" stroke-width="2" stroke-linecap="round" stroke-linejoin="round" stroke-miterlimit="10" x1="182.228" y1="135.626" x2="175.896" y2="135.93"/>
<path fill="#FFFFFF" d="M270.235,143.364l-4.819,0.23l-1.144-23.862l4.817-0.231c2.508-0.12,4.639,1.814,4.758,4.323l0.709,14.783
	C274.678,141.113,272.742,143.244,270.235,143.364"/>
<path fill="none" stroke="#535B6B" stroke-width="2" stroke-linejoin="round" stroke-miterlimit="10" d="M270.235,143.364
	l-4.819,0.23l-1.144-23.862l4.817-0.231c2.508-0.12,4.639,1.814,4.758,4.323l0.709,14.783
	C274.678,141.113,272.742,143.244,270.235,143.364z"/>
<path fill="#FFFFFF" d="M270.235,143.364l-4.819,0.23l-1.144-23.862l4.817-0.231c2.508-0.12,4.639,1.814,4.758,4.323l0.709,14.783
	C274.678,141.113,272.742,143.244,270.235,143.364"/>
<path fill="none" stroke="#535B6B" stroke-width="2" stroke-linejoin="round" stroke-miterlimit="10" d="M270.235,143.364
	l-4.819,0.23l-1.144-23.862l4.817-0.231c2.508-0.12,4.639,1.814,4.758,4.323l0.709,14.783
	C274.678,141.113,272.742,143.244,270.235,143.364z"/>
<line fill="#FFFFFF" x1="263.443" y1="125.211" x2="269.775" y2="124.908"/>
<line fill="none" stroke="#9FADC1" stroke-width="2" stroke-linecap="round" stroke-linejoin="round" stroke-miterlimit="10" x1="263.443" y1="125.211" x2="269.775" y2="124.908"/>
<line fill="#FFFFFF" x1="264.068" y1="138.22" x2="270.4" y2="137.917"/>
<line fill="none" stroke="#9FADC1" stroke-width="2" stroke-linecap="round" stroke-linejoin="round" stroke-miterlimit="10" x1="264.068" y1="138.22" x2="270.4" y2="137.917"/>
<line fill="#FFFFFF" x1="263.756" y1="131.715" x2="270.088" y2="131.412"/>
<line fill="none" stroke="#9FADC1" stroke-width="2" stroke-linecap="round" stroke-linejoin="round" stroke-miterlimit="10" x1="263.756" y1="131.715" x2="270.088" y2="131.412"/>
<path fill="#FFFFFF" d="M252.355,168.546l-55.255,2.65c-11.313-7.806-18.99-20.604-19.699-35.394
	c-1.208-25.177,18.223-46.567,43.401-47.775c25.178-1.208,46.567,18.225,47.775,43.402
	C269.287,146.218,262.871,159.694,252.355,168.546"/>
<path fill="none" stroke="#535B6B" stroke-width="2" stroke-linejoin="round" stroke-miterlimit="10" d="M252.355,168.546
	l-55.255,2.65c-11.313-7.806-18.99-20.604-19.699-35.394c-1.208-25.177,18.223-46.567,43.401-47.775
	c25.178-1.208,46.567,18.225,47.775,43.402C269.287,146.218,262.871,159.694,252.355,168.546z"/>
<path fill="#FFDB69" d="M242.801,161.384l-36.86,1.769c-4.725,0.226-9.31-1.752-12.319-5.399
	c-5.617-6.812-8.927-15.629-8.646-25.322c0.54-18.676,14.953-34.406,33.51-36.578c22.121-2.59,41.438,14.075,42.488,35.941
	c0.412,8.614-2.083,16.687-6.614,23.287C251.746,158.89,247.416,161.163,242.801,161.384"/>
<path fill="none" stroke="#FF9136" stroke-width="2" stroke-linejoin="round" stroke-miterlimit="10" d="M242.801,161.384
	l-36.86,1.769c-4.725,0.226-9.31-1.752-12.319-5.399c-5.617-6.812-8.927-15.629-8.646-25.322
	c0.54-18.676,14.953-34.406,33.51-36.578c22.121-2.59,41.438,14.075,42.488,35.941c0.412,8.614-2.083,16.687-6.614,23.287
	C251.746,158.89,247.416,161.163,242.801,161.384z"/>
<g>
	<defs>
		
			<rect id="SVGID_9_" x="185.452" y="95.625" transform="matrix(0.9833 0.182 -0.182 0.9833 27.5528 -38.4801)" width="76.071" height="70.588"/>
	</defs>
	<clipPath id="SVGID_10_">
		<use xlink:href="#SVGID_9_"  overflow="visible"/>
	</clipPath>
	<path clip-path="url(#SVGID_10_)" fill="#F5CA5C" d="M228.851,102.12c14.669,2.715,25.414,15.036,26.13,29.962
		c0.337,7.03-1.588,13.809-5.566,19.604c-1.5,2.186-4.08,3.571-6.901,3.706l-36.86,1.769c-0.712,0.033-1.427-0.014-2.125-0.143
		c-2.083-0.386-3.958-1.48-5.277-3.081c-4.918-5.964-7.503-13.54-7.278-21.33c0.455-15.726,12.583-28.963,28.211-30.793
		C222.436,101.431,225.689,101.535,228.851,102.12 M229.942,96.22c-3.671-0.679-7.521-0.828-11.455-0.367
		c-18.559,2.173-32.971,17.902-33.511,36.578c-0.281,9.693,3.029,18.511,8.646,25.321c2.254,2.735,5.395,4.531,8.815,5.164
		c1.144,0.211,2.32,0.292,3.504,0.236l36.86-1.769c4.614-0.221,8.945-2.494,11.56-6.303c4.531-6.6,7.026-14.672,6.614-23.287
		C260.112,113.819,246.905,99.359,229.942,96.22"/>
</g>
<line fill="#FFDB69" x1="215.254" y1="95.915" x2="214.889" y2="88.312"/>
<line fill="none" stroke="#535B6B" stroke-width="2" stroke-linejoin="round" stroke-miterlimit="10" x1="215.254" y1="95.915" x2="214.889" y2="88.312"/>
<line fill="#FFDB69" x1="227.081" y1="95.349" x2="226.716" y2="87.745"/>
<line fill="none" stroke="#535B6B" stroke-width="2" stroke-linejoin="round" stroke-miterlimit="10" x1="227.081" y1="95.349" x2="226.716" y2="87.745"/>
<path fill="#535B6B" d="M238.414,114.892c2.155-0.104,4.003,1.576,4.106,3.731l0.258,5.385c0.104,2.155-1.574,4.003-3.729,4.106
	c-2.155,0.104-4.003-1.575-4.105-3.729l-0.26-5.387C234.582,116.844,236.26,114.995,238.414,114.892"/>
<path fill="#535B6B" d="M205.842,116.454c2.155-0.103,4.003,1.577,4.106,3.731l0.258,5.386c0.104,2.154-1.574,4.002-3.729,4.106
	c-2.156,0.104-4.003-1.575-4.106-3.729l-0.259-5.387C202.01,118.406,203.688,116.558,205.842,116.454"/>
<path fill="#FFDB69" d="M223.227,138.57c-2.048,0.098-3.789-1.482-3.887-3.531c-0.098-2.048,1.482-3.789,3.532-3.886l-0.682-14.19"
	/>
<path fill="none" stroke="#535B6B" stroke-width="2" stroke-linecap="round" stroke-linejoin="round" stroke-miterlimit="10" d="
	M223.626,138.543c2.042-0.179,3.555-1.979,3.376-4.023c-0.179-2.042-1.98-3.554-4.023-3.375l-1.237-14.152"/>
<g opacity="0.5">
	<defs>
		
			<rect id="SVGID_11_" x="193.761" y="99.61" transform="matrix(0.9833 0.182 -0.182 0.9833 24.6329 -38.7151)" opacity="0.5" width="59.098" height="30.559"/>
	</defs>
	<clipPath id="SVGID_12_">
		<use xlink:href="#SVGID_11_"  overflow="visible"/>
	</clipPath>
	<path clip-path="url(#SVGID_12_)" fill="#FFFFFF" d="M222.314,119.549c-14.713,0.705-29.657,10.943-30.076,2.205
		s12.506-20.991,29.137-21.789c16.631-0.798,30.669,10.161,31.088,18.9C252.883,127.604,237.027,118.844,222.314,119.549"/>
</g>
<path fill="none" stroke="#535B6B" stroke-width="2" stroke-linejoin="round" stroke-miterlimit="10" d="M242.801,161.384
	l-36.86,1.769c-4.725,0.226-9.31-1.752-12.319-5.399c-5.617-6.812-8.927-15.629-8.646-25.322
	c0.54-18.676,14.953-34.406,33.51-36.578c22.121-2.59,41.438,14.075,42.488,35.941c0.412,8.614-2.083,16.687-6.614,23.287
	C251.746,158.89,247.416,161.163,242.801,161.384z"/>
<path fill="#FFFFFF" d="M193.65,183.089l63.361-3.04c1.39-0.066,2.462-1.245,2.395-2.635l-0.316-6.614
	c-0.066-1.389-1.247-2.461-2.637-2.395l-63.361,3.04c-1.389,0.066-2.461,1.247-2.395,2.635l0.317,6.615
	C191.081,182.084,192.262,183.155,193.65,183.089"/>
<path fill="none" stroke="#535B6B" stroke-width="2" stroke-linejoin="round" stroke-miterlimit="10" d="M193.65,183.089
	l63.361-3.04c1.39-0.066,2.462-1.245,2.395-2.635l-0.316-6.614c-0.066-1.389-1.247-2.461-2.637-2.395l-63.361,3.04
	c-1.389,0.066-2.461,1.247-2.395,2.635l0.317,6.615C191.081,182.084,192.262,183.155,193.65,183.089z"/>
<line fill="#FFFFFF" x1="200.983" y1="223.437" x2="200.303" y2="209.261"/>
<line fill="none" stroke="#535B6B" stroke-width="2" stroke-linecap="round" stroke-linejoin="round" stroke-miterlimit="10" x1="200.983" y1="223.437" x2="200.303" y2="209.261"/>
<line fill="#FFFFFF" x1="253.661" y1="220.91" x2="252.981" y2="206.734"/>
<line fill="none" stroke="#535B6B" stroke-width="2" stroke-linecap="round" stroke-linejoin="round" stroke-miterlimit="10" x1="253.661" y1="220.91" x2="252.981" y2="206.734"/>
<line fill="#FFFFFF" x1="196.637" y1="177.109" x2="253.467" y2="174.383"/>
<line fill="none" stroke="#535B6B" stroke-width="2" stroke-linecap="round" stroke-linejoin="round" stroke-miterlimit="10" x1="196.637" y1="177.109" x2="253.467" y2="174.383"/>
<g opacity="0.5">
	<defs>
		
			<rect id="SVGID_13_" x="175.699" y="299.802" transform="matrix(0.9833 0.182 -0.182 0.9833 59.0607 -29.4653)" opacity="0.5" width="28.802" height="14.627"/>
	</defs>
	<clipPath id="SVGID_14_">
		<use xlink:href="#SVGID_13_"  overflow="visible"/>
	</clipPath>
	<path clip-path="url(#SVGID_14_)" fill="#535B6B" d="M201.29,305.84l-25.261,2.75c-0.051,0.007-0.097-0.004-0.145-0.004
		l-0.833,1.289c-0.616,0.951,0.149,2.191,1.276,2.068l25.261-2.751c2.104-0.228,3.621-2.122,3.385-4.226l-0.29-2.59
		C204.529,304.155,203.136,305.64,201.29,305.84"/>
</g>
<g opacity="0.5">
	<defs>
		
			<rect id="SVGID_15_" x="241.226" y="243.742" transform="matrix(0.9833 0.182 -0.182 0.9833 50.1126 -42.4115)" opacity="0.5" width="29.943" height="16.329"/>
	</defs>
	<clipPath id="SVGID_16_">
		<use xlink:href="#SVGID_15_"  overflow="visible"/>
	</clipPath>
	<path clip-path="url(#SVGID_16_)" fill="#535B6B" d="M263.666,247.226c1.146-0.427,2.211-0.986,3.191-1.648l4.854,4.774
		c-1.211,0.953-2.576,1.741-4.082,2.303c-5.399,2.012-12.745,4.238-21.572,5.68l-5.308-5.222
		C250.173,251.686,257.996,249.338,263.666,247.226"/>
</g>
<g opacity="0.5">
	<defs>
		
			<rect id="SVGID_17_" x="188.724" y="251.613" transform="matrix(0.9833 0.182 -0.182 0.9833 49.6833 -32.6344)" opacity="0.5" width="27.923" height="5.647"/>
	</defs>
	<clipPath id="SVGID_18_">
		<use xlink:href="#SVGID_17_"  overflow="visible"/>
	</clipPath>
	<path clip-path="url(#SVGID_18_)" fill="#535B6B" d="M193.549,250.587c5.845,1.561,13.854,3.149,23.37,3.667l-3.967,4.73
		c-6.075-0.744-11.3-1.864-15.439-2.968c-3.394-0.906-6.278-2.924-8.282-5.597l0.976-1.164
		C191.25,249.82,192.367,250.273,193.549,250.587"/>
</g>
<path fill="none" stroke="#535B6B" stroke-width="2" stroke-linecap="round" stroke-linejoin="round" stroke-miterlimit="10" d="
	M212.292,147.165c1.508-3.571,5.271-5.228,8.234-3.642c1.749,0.936,2.687,3.592,4.343,4.299c1.657,0.708,7.591,0.141,9.812-1.525"/>
<path fill="#7A79E1" stroke="#6A6ACE" stroke-width="2" stroke-miterlimit="10" d="M96.131,79.612c0-3.487,2.826-6.315,6.313-6.315
	c3.486,0,6.313,2.828,6.313,6.315c0,3.487-2.828,6.312-6.313,6.312C98.957,85.923,96.131,83.099,96.131,79.612"/>
<path fill="#7778DF" d="M49.616,214.221c0-2.397,1.942-4.342,4.34-4.342c2.396,0,4.341,1.944,4.341,4.342s-1.944,4.339-4.341,4.339
	C51.558,218.56,49.616,216.618,49.616,214.221"/>
<path fill="#7778DF" d="M318.296,230.247c0-3.487,2.826-6.315,6.313-6.315c3.485,0,6.313,2.828,6.313,6.315
	s-2.828,6.313-6.313,6.313C321.122,236.56,318.296,233.734,318.296,230.247"/>
<path fill="#7778DF" d="M300.861,91.389c0-3.487,2.826-6.315,6.313-6.315c3.485,0,6.313,2.828,6.313,6.315s-2.828,6.313-6.313,6.313
	C303.688,97.701,300.861,94.876,300.861,91.389"/>
<path fill="#7778DF" d="M147.74,176.001c0-3.487,2.826-6.315,6.313-6.315c3.485,0,6.313,2.828,6.313,6.315s-2.828,6.312-6.313,6.312
	C150.566,182.313,147.74,179.488,147.74,176.001"/>
<path fill="#7778DF" d="M193.154,63.049c0-1.924,1.559-3.483,3.483-3.483c1.923,0,3.482,1.559,3.482,3.483
	c0,1.924-1.56,3.482-3.482,3.482C194.712,66.531,193.154,64.973,193.154,63.049"/>
<path fill="#7778DF" d="M134.311,91.386c0-1.073,0.87-1.943,1.943-1.943s1.942,0.87,1.942,1.943c0,1.073-0.869,1.943-1.942,1.943
	S134.311,92.459,134.311,91.386"/>
<path fill="#7778DF" d="M14.249,82.664c0-1.073,0.87-1.943,1.943-1.943s1.942,0.87,1.942,1.943c0,1.073-0.869,1.943-1.942,1.943
	S14.249,83.737,14.249,82.664"/>
<path fill="#7778DF" d="M416.971,244.597c0-0.824,0.669-1.494,1.495-1.494s1.494,0.67,1.494,1.494c0,0.827-0.668,1.496-1.494,1.496
	S416.971,245.424,416.971,244.597"/>
<path fill="#7A79E1" d="M385.628,251.493c0-10.315,8.362-18.679,18.678-18.679c10.316,0,18.68,8.363,18.68,18.679
	c0,10.317-8.363,18.68-18.68,18.68C393.99,270.173,385.628,261.811,385.628,251.493"/>
<circle fill="none" stroke="#6A6ACE" stroke-width="2" stroke-miterlimit="10" cx="404.307" cy="251.493" r="18.679"/>
<g>
	<defs>
		<rect id="SVGID_19_" x="385.096" y="235.723" width="34.98" height="34.982"/>
	</defs>
	<clipPath id="SVGID_20_">
		<use xlink:href="#SVGID_19_"  overflow="visible"/>
	</clipPath>
	<path clip-path="url(#SVGID_20_)" fill="#6A6ACE" d="M392.638,237.044c-0.28,1.41-0.43,2.867-0.43,4.359
		c0,12.255,9.935,22.19,22.189,22.19c1.491,0,2.948-0.15,4.357-0.433c-3.405,4.272-8.648,7.012-14.537,7.012
		c-10.267,0-18.59-8.322-18.59-18.59C385.628,245.695,388.367,240.45,392.638,237.044"/>
	<path clip-path="url(#SVGID_20_)" fill="none" stroke="#6A6ACE" stroke-width="2" stroke-miterlimit="10" d="M392.638,237.044
		c-0.28,1.41-0.43,2.867-0.43,4.359c0,12.255,9.935,22.19,22.189,22.19c1.491,0,2.948-0.15,4.357-0.433
		c-3.405,4.272-8.648,7.012-14.537,7.012c-10.267,0-18.59-8.322-18.59-18.59C385.628,245.695,388.367,240.45,392.638,237.044z"/>
</g>
<path fill="none" stroke="#6A6ACE" stroke-width="2" stroke-miterlimit="10" d="M419.564,240.72
	c3.873,0.751,6.533,2.376,7.173,4.763c0.737,2.757-1.361,5.979-5.313,8.899c-3.581,2.646-8.682,5.044-14.57,6.622
	s-11.505,2.052-15.928,1.552c-4.884-0.554-8.313-2.295-9.052-5.05c-0.64-2.391,0.854-5.132,3.84-7.723"/>
<path fill="none" stroke="#6A6ACE" stroke-width="2" stroke-miterlimit="10" d="M422.716,254.667
	c2.206,3.27,2.937,6.299,1.701,8.438c-2.721,4.709-13.927,3.327-25.034-3.086c-11.105-6.412-17.907-15.428-15.188-20.137
	c1.427-2.471,5.19-3.264,10.051-2.535"/>
<path fill="#7778DF" d="M370.316,268.685c0-1.022,0.828-1.851,1.849-1.851c1.022,0,1.851,0.828,1.851,1.851
	c0,1.021-0.828,1.85-1.851,1.85C371.145,270.534,370.316,269.705,370.316,268.685"/>
<path fill="#7778DF" d="M313.488,169.116c0-1.328,1.076-2.404,2.403-2.404c1.328,0,2.405,1.076,2.405,2.404
	s-1.077,2.404-2.405,2.404C314.564,171.521,313.488,170.444,313.488,169.116"/>
<path fill="#7778DF" d="M31,21.778c0-1.328,1.076-2.404,2.403-2.404c1.328,0,2.405,1.076,2.405,2.404s-1.077,2.404-2.405,2.404
	C32.076,24.182,31,23.106,31,21.778"/>
<path fill="#7778DF" d="M248.669,70.415c0-1.328,1.076-2.404,2.403-2.404c1.328,0,2.405,1.076,2.405,2.404s-1.077,2.404-2.405,2.404
	C249.745,72.819,248.669,71.743,248.669,70.415"/>
<path fill="#7778DF" d="M335.617,316.926c0-1.328,1.076-2.404,2.403-2.404c1.328,0,2.405,1.076,2.405,2.404
	s-1.077,2.404-2.405,2.404C336.693,319.33,335.617,318.254,335.617,316.926"/>
<path fill="#7778DF" d="M115.451,349.916c0-1.328,1.076-2.404,2.403-2.404c1.328,0,2.405,1.076,2.405,2.404
	s-1.077,2.404-2.405,2.404C116.527,352.32,115.451,351.244,115.451,349.916"/>
<path fill="#7778DF" d="M16.191,163.409c0-1.328,1.076-2.404,2.403-2.404c1.328,0,2.405,1.076,2.405,2.404s-1.077,2.404-2.405,2.404
	C17.268,165.813,16.191,164.737,16.191,163.409"/>
<path fill="#7778DF" d="M407.488,201.554c0-1.328,1.076-2.404,2.403-2.404c1.328,0,2.405,1.076,2.405,2.404
	s-1.077,2.404-2.405,2.404C408.564,203.958,407.488,202.882,407.488,201.554"/>
<path fill="#7778DF" d="M447.459,177.11c0-1.328,1.076-2.404,2.403-2.404c1.328,0,2.405,1.076,2.405,2.404s-1.077,2.404-2.405,2.404
	C448.535,179.514,447.459,178.438,447.459,177.11"/>
<path fill="#7778DF" d="M42.03,249.751c0-1.328,1.076-2.404,2.403-2.404c1.328,0,2.405,1.076,2.405,2.404s-1.077,2.404-2.405,2.404
	C43.106,252.155,42.03,251.079,42.03,249.751"/>
<path fill="#7778DF" d="M135.792,32.874c0-1.328,1.076-2.404,2.403-2.404c1.328,0,2.405,1.076,2.405,2.404s-1.077,2.404-2.405,2.404
	C136.869,35.278,135.792,34.202,135.792,32.874"/>
<path fill="#7778DF" d="M129.772,273.001c0-1.328,1.076-2.404,2.403-2.404c1.328,0,2.405,1.076,2.405,2.404
	s-1.077,2.404-2.405,2.404C130.848,275.405,129.772,274.329,129.772,273.001"/>
<path fill="#7778DF" d="M442.392,219.273c0-1.328,1.075-2.404,2.404-2.404c1.327,0,2.404,1.076,2.404,2.404
	c0,1.327-1.077,2.403-2.404,2.403C443.467,221.677,442.392,220.601,442.392,219.273"/>
<path fill="#7778DF" d="M385.303,210.72c0-0.74,0.6-1.341,1.341-1.341c0.74,0,1.34,0.601,1.34,1.341c0,0.741-0.6,1.342-1.34,1.342
	C385.902,212.062,385.303,211.461,385.303,210.72"/>
<path fill="#7778DF" d="M430.822,235.897c0-0.57,0.462-1.033,1.032-1.033c0.569,0,1.03,0.463,1.03,1.033
	c0,0.569-0.461,1.031-1.03,1.031C431.284,236.929,430.822,236.467,430.822,235.897"/>
<path fill="#7778DF" d="M371.65,247.717c0-0.285,0.23-0.516,0.515-0.516c0.286,0,0.518,0.23,0.518,0.516s-0.231,0.516-0.518,0.516
	C371.881,248.232,371.65,248.002,371.65,247.717"/>
<path fill="#7778DF" d="M461.149,210.72c0-0.369,0.301-0.67,0.671-0.67c0.371,0,0.671,0.301,0.671,0.67
	c0,0.371-0.3,0.671-0.671,0.671C461.45,211.391,461.149,211.091,461.149,210.72"/>
<g>
	<path fill="#7A79E1" d="M35.094,310.367l0.531-5.054c0.059-0.557,0.558-0.961,1.114-0.902c0.469,0.05,0.913-0.23,1.063-0.679
		c2.654-7.907,10.12-13.606,18.921-13.606c3.94,0,7.611,1.146,10.705,3.116c0.397,0.255,0.919,0.193,1.253-0.142h0.001
		c0.396-0.396,1.038-0.396,1.434,0l3.592,3.592c0.396,0.396,0.396,1.038,0,1.434l-0.001,0.002c-0.335,0.334-0.395,0.855-0.14,1.255
		c2.193,3.443,3.363,7.603,3.07,12.051c-0.669,10.151-9.044,18.249-19.212,18.599c-10.565,0.363-19.367-7.489-20.526-17.662
		c-0.053-0.472-0.428-0.839-0.899-0.889l-0.004-0.001C35.439,311.423,35.036,310.924,35.094,310.367"/>
	<path fill="none" stroke="#6A6ACE" stroke-width="2" stroke-miterlimit="10" d="M35.094,310.367l0.531-5.054
		c0.059-0.557,0.558-0.961,1.114-0.902c0.469,0.05,0.913-0.23,1.063-0.679c2.654-7.907,10.12-13.606,18.921-13.606
		c3.94,0,7.611,1.146,10.705,3.116c0.397,0.255,0.919,0.193,1.253-0.142h0.001c0.396-0.396,1.038-0.396,1.434,0l3.592,3.592
		c0.396,0.396,0.396,1.038,0,1.434l-0.001,0.002c-0.335,0.334-0.395,0.855-0.14,1.255c2.193,3.443,3.363,7.603,3.07,12.051
		c-0.669,10.151-9.044,18.249-19.212,18.599c-10.565,0.363-19.367-7.489-20.526-17.662c-0.053-0.472-0.428-0.839-0.899-0.889
		l-0.004-0.001C35.439,311.423,35.036,310.924,35.094,310.367z"/>
	<g>
		<defs>
			<rect id="SVGID_21_" x="34.745" y="293.675" width="38.388" height="36.692"/>
		</defs>
		<clipPath id="SVGID_22_">
			<use xlink:href="#SVGID_21_"  overflow="visible"/>
		</clipPath>
		<path clip-path="url(#SVGID_22_)" fill="#6A6ACE" d="M44.29,294.478c-0.301,1.513-0.462,3.077-0.462,4.68
			c0,13.156,10.666,23.823,23.823,23.823c1.603,0,3.167-0.161,4.68-0.463c-3.657,4.585-9.288,7.527-15.608,7.527
			c-10.25,0-18.768-8.178-19.901-18.125c-0.022-0.192-0.783-0.457-0.945-0.566c-0.694-0.463-0.945-0.8-0.739-1.405
			c0.578-1.689,0.299-3.457,0.739-5.104c0.074-0.275,1.716-0.47,1.801-0.742C38.883,300.266,41.218,296.928,44.29,294.478"/>
		<path clip-path="url(#SVGID_22_)" fill="none" stroke="#6A6ACE" stroke-width="2" stroke-miterlimit="10" d="M44.29,294.478
			c-0.301,1.513-0.462,3.077-0.462,4.68c0,13.156,10.666,23.823,23.823,23.823c1.603,0,3.167-0.161,4.68-0.463
			c-3.657,4.585-9.288,7.527-15.608,7.527c-10.25,0-18.768-8.178-19.901-18.125c-0.022-0.192-0.783-0.457-0.945-0.566
			c-0.694-0.463-0.945-0.8-0.739-1.405c0.578-1.689,0.299-3.457,0.739-5.104c0.074-0.275,1.716-0.47,1.801-0.742
			C38.883,300.266,41.218,296.928,44.29,294.478z"/>
	</g>
	<path fill="#7675DC" d="M63.135,312.261c0-2.115,1.715-3.83,3.831-3.83c2.115,0,3.83,1.715,3.83,3.83s-1.715,3.83-3.83,3.83
		C64.85,316.091,63.135,314.376,63.135,312.261"/>
	<circle fill="none" stroke="#6A6ACE" stroke-width="2" stroke-miterlimit="10" cx="66.966" cy="312.261" r="3.83"/>
	<path fill="#7A79E1" d="M43.387,308.431c0-2.115,1.715-3.83,3.83-3.83c2.115,0,3.83,1.715,3.83,3.83s-1.715,3.83-3.83,3.83
		C45.102,312.261,43.387,310.546,43.387,308.431"/>
	<path fill="#7A79E1" d="M57.294,320.736c0-1.613,1.308-2.92,2.92-2.92c1.613,0,2.92,1.307,2.92,2.92s-1.307,2.921-2.92,2.921
		C58.602,323.657,57.294,322.35,57.294,320.736"/>
	<path fill="#7A79E1" d="M49.108,322.367c0-1.07,0.868-1.938,1.938-1.938s1.938,0.868,1.938,1.938s-0.868,1.938-1.938,1.938
		S49.108,323.438,49.108,322.367"/>
	<path fill="#7A79E1" d="M43.007,316.388c0-0.788,0.639-1.429,1.428-1.429c0.789,0,1.428,0.641,1.428,1.429
		s-0.639,1.429-1.428,1.429C43.646,317.816,43.007,317.176,43.007,316.388"/>
	<path fill="#7675DC" d="M50.445,300.084c0-1.403,1.137-2.54,2.54-2.54s2.54,1.137,2.54,2.54c0,1.402-1.137,2.54-2.54,2.54
		S50.445,301.486,50.445,300.084"/>
	<circle fill="none" stroke="#6A6ACE" stroke-width="2" stroke-miterlimit="10" cx="52.985" cy="300.084" r="2.54"/>
	<path fill="#7675DC" d="M63.713,299.187c0-0.976,0.791-1.766,1.765-1.766c0.975,0,1.766,0.79,1.766,1.766
		c0,0.975-0.791,1.766-1.766,1.766C64.504,300.952,63.713,300.161,63.713,299.187"/>
	<circle fill="none" stroke="#6A6ACE" stroke-width="2" stroke-miterlimit="10" cx="65.479" cy="299.187" r="1.765"/>
	<line fill="#8C99A8" x1="72.476" y1="331.104" x2="74.795" y2="328.007"/>
	<line fill="#8C99A8" x1="67.901" y1="326.287" x2="71.095" y2="324.1"/>
	<line fill="#8C99A8" x1="66.242" y1="323.451" x2="69.707" y2="321.728"/>
	<line fill="#8C99A8" x1="64.979" y1="320.462" x2="68.624" y2="319.157"/>
	<path fill="#7778DF" d="M39.385,287.157c0-0.621,0.502-1.124,1.123-1.124c0.62,0,1.124,0.503,1.124,1.124
		c0,0.62-0.503,1.122-1.124,1.122C39.888,288.279,39.385,287.777,39.385,287.157"/>
	<path fill="#7778DF" d="M54.101,287.34c0-0.346,0.28-0.626,0.627-0.626c0.346,0,0.626,0.28,0.626,0.626
		c0,0.347-0.281,0.627-0.626,0.627C54.381,287.967,54.101,287.687,54.101,287.34"/>
	<path fill="#7778DF" d="M36.791,324.211c0-0.346,0.281-0.626,0.626-0.626c0.346,0,0.626,0.28,0.626,0.626s-0.28,0.628-0.626,0.628
		C37.071,324.839,36.791,324.557,36.791,324.211"/>
	<path fill="#7778DF" d="M66.931,287.652c0-0.172,0.14-0.313,0.313-0.313c0.173,0,0.313,0.141,0.313,0.313
		c0,0.174-0.14,0.314-0.313,0.314C67.071,287.967,66.931,287.826,66.931,287.652"/>
</g>
<path fill="#7A79E1" d="M33,74.588c0-13.717,11.12-24.837,24.836-24.837c13.717,0,24.836,11.12,24.836,24.837
	s-11.12,24.836-24.836,24.836C44.121,99.425,33,88.305,33,74.588"/>
<circle fill="none" stroke="#6A6ACE" stroke-width="2" stroke-miterlimit="10" cx="57.837" cy="74.588" r="24.836"/>
<g>
	<defs>
		<path id="SVGID_23_" d="M82.673,74.588c0,8.833-4.611,16.59-11.558,20.993H44.56c-6.947-4.403-11.559-12.16-11.559-20.993
			c0-13.717,11.12-24.836,24.836-24.836C71.554,49.752,82.673,60.872,82.673,74.588"/>
	</defs>
	<clipPath id="SVGID_24_">
		<use xlink:href="#SVGID_23_"  overflow="visible"/>
	</clipPath>
	<path clip-path="url(#SVGID_24_)" fill="#7675DC" d="M31.994,131.612l12.682,2.197c-1.57-2.997-3.479-6.343-2.265-9.928
		c1.387-4.097,4.956-7.562,6.607-11.693c0.697-1.741,1.724-4.203,0.551-5.884c0,0-7.229-0.655-5.529-6.243
		c0.604-1.982,4.781,0.426,6.81,0.483c1.73,0.049,3.133-1.331,4.078-2.651c1.897-2.651,3.833-6.756,5.569-9.555
		c1.493-2.407,2.449-3.299,2.476-6.148c0.034-3.601-3.623-4.048-6.716-1.783c-1.378,1.009-3.986-0.769-5.55,0.068
		c-1.926,1.031-1.723,3.992-3.618,5.291c-3.712,2.543-5.979,1.234-10.006-0.39c-3.997-1.612-7.511,0.136-10.325,3.281
		c-0.77,0.86-6.224,8.513-6.537,4.107c-0.107-1.516,2.602-4.299,3.219-5.609c0.853-1.811,1.422-3.782,1.488-5.765
		c0.116-3.458-1.771-8.359-5.705-5.186c-3.597,2.901-1.732,7.323-3.34,11.011c-0.779,1.786-1.901,2.999-2.454,4.895
		c-0.533,1.829-0.974,3.568-1.708,5.375c-0.806,1.983-1.893,4.041-2.09,6.179c-0.382,4.149,12.139,4.066,12.871,7.886
		c0.58,3.029-8.265,7.344-6.161,9.854l1.453,1.612c1.682,1.816,3.01,3.391,2.347,6.544"/>
	<path clip-path="url(#SVGID_24_)" fill="none" stroke="#6A6ACE" stroke-width="2" stroke-miterlimit="10" d="M31.994,131.612
		l12.682,2.197c-1.57-2.997-3.479-6.343-2.265-9.928c1.387-4.097,4.956-7.562,6.607-11.693c0.697-1.741,1.724-4.203,0.551-5.884
		c0,0-7.229-0.655-5.529-6.243c0.604-1.982,4.781,0.426,6.81,0.483c1.73,0.049,3.133-1.331,4.078-2.651
		c1.897-2.651,3.833-6.756,5.569-9.555c1.493-2.407,2.449-3.299,2.476-6.148c0.034-3.601-3.623-4.048-6.716-1.783
		c-1.378,1.009-3.986-0.769-5.55,0.068c-1.926,1.031-1.723,3.992-3.618,5.291c-3.712,2.543-5.979,1.234-10.006-0.39
		c-3.997-1.612-7.511,0.136-10.325,3.281c-0.77,0.86-6.224,8.513-6.537,4.107c-0.107-1.516,2.602-4.299,3.219-5.609
		c0.853-1.811,1.422-3.782,1.488-5.765c0.116-3.458-1.771-8.359-5.705-5.186c-3.597,2.901-1.732,7.323-3.34,11.011
		c-0.779,1.786-1.901,2.999-2.454,4.895c-0.533,1.829-0.974,3.568-1.708,5.375c-0.806,1.983-1.893,4.041-2.09,6.179
		c-0.382,4.149,12.139,4.066,12.871,7.886c0.58,3.029-8.265,7.344-6.161,9.854l1.453,1.612c1.682,1.816,3.01,3.391,2.347,6.544"/>
	<path clip-path="url(#SVGID_24_)" fill="#7675DC" d="M39.739,36.076c3.916-2.468,7.53,2.274,11.889,1.645
		c3.968-0.573,5.936-2.78,10.423-2.357c3.196,0.302,8.248,1.642,10.194,4.023c0.902,1.104,0.58,2.477,1.352,3.595
		c1.241,1.799,3.702,2.771,4.914,4.539c4.744,6.915-4.751,10.19-11.72,9.594c-3.713-0.317-7.935-1.435-9.02,2.239
		c-1.042,3.529,0.707,6.877-2.841,9.886c-5.294,4.489-17.856,2.162-23.658-1.241c-1.422-0.833-2.367-2.104-3.798-2.909
		c-1.906-1.072-3.925-0.794-5.783-1.641c-3.084-1.406-5.105-4.195-6.019-6.872c-1.518-4.449-0.516-18.149,7.938-17.57
		c3.491,0.24,5.065,4.047,8.709,1.428c0.663-0.476,0.821-1.776,1.654-2.401C35.574,36.832,38.016,37.162,39.739,36.076"/>
	<path clip-path="url(#SVGID_24_)" fill="none" stroke="#6A6ACE" stroke-width="2" stroke-miterlimit="10" d="M39.739,36.076
		c3.916-2.468,7.53,2.274,11.889,1.645c3.968-0.573,5.936-2.78,10.423-2.357c3.196,0.302,8.248,1.642,10.194,4.023
		c0.902,1.104,0.58,2.477,1.352,3.595c1.241,1.799,3.702,2.771,4.914,4.539c4.744,6.915-4.751,10.19-11.72,9.594
		c-3.713-0.317-7.935-1.435-9.02,2.239c-1.042,3.529,0.707,6.877-2.841,9.886c-5.294,4.489-17.856,2.162-23.658-1.241
		c-1.422-0.833-2.367-2.104-3.798-2.909c-1.906-1.072-3.925-0.794-5.783-1.641c-3.084-1.406-5.105-4.195-6.019-6.872
		c-1.518-4.449-0.516-18.149,7.938-17.57c3.491,0.24,5.065,4.047,8.709,1.428c0.663-0.476,0.821-1.776,1.654-2.401
		C35.574,36.832,38.016,37.162,39.739,36.076z"/>
</g>
<g>
	<defs>
		<rect id="SVGID_25_" x="32.667" y="54.409" width="45.349" height="45.349"/>
	</defs>
	<clipPath id="SVGID_26_">
		<use xlink:href="#SVGID_25_"  overflow="visible"/>
	</clipPath>
	<path clip-path="url(#SVGID_26_)" fill="#6A6ACE" d="M42.352,55.238c-0.375,1.879-0.574,3.823-0.574,5.813
		c0,16.347,13.251,29.598,29.597,29.598c1.99,0,3.934-0.199,5.813-0.574c-4.543,5.696-11.538,9.351-19.391,9.351
		c-13.695,0-24.796-11.101-24.796-24.795C33.001,66.775,36.655,59.78,42.352,55.238"/>
	<path clip-path="url(#SVGID_26_)" fill="none" stroke="#6A6ACE" stroke-width="2" stroke-miterlimit="10" d="M42.352,55.238
		c-0.375,1.879-0.574,3.823-0.574,5.813c0,16.347,13.251,29.598,29.597,29.598c1.99,0,3.934-0.199,5.813-0.574
		c-4.543,5.696-11.538,9.351-19.391,9.351c-13.695,0-24.796-11.101-24.796-24.795C33.001,66.775,36.655,59.78,42.352,55.238z"/>
</g>
<path fill="#7778DF" d="M123.473,147.847c0-1.924,1.56-3.483,3.483-3.483c1.923,0,3.482,1.559,3.482,3.483
	c0,1.924-1.56,3.483-3.482,3.483C125.033,151.33,123.473,149.771,123.473,147.847"/>
<path fill="#7778DF" d="M347.682,181.935c0-1.924,1.56-3.483,3.483-3.483c1.923,0,3.482,1.559,3.482,3.483
	c0,1.924-1.56,3.483-3.482,3.483C349.241,185.417,347.682,183.859,347.682,181.935"/>
<path fill="#7778DF" d="M76.037,138.994c0-1.924,1.56-3.483,3.483-3.483c1.923,0,3.482,1.56,3.482,3.483s-1.56,3.482-3.482,3.482
	C77.597,142.477,76.037,140.918,76.037,138.994"/>
<path fill="#7778DF" d="M384.907,25.926c0-1.924,1.559-3.483,3.483-3.483c1.923,0,3.483,1.559,3.483,3.483s-1.561,3.483-3.483,3.483
	C386.466,29.409,384.907,27.85,384.907,25.926"/>
<path opacity="0.5" fill="#535B6B" d="M403.972,89.267c6.368,12.761,7.788,34.678,3.216,50.718
	c-3.74,13.121-12.969,24.453-22.565,29.058c-16.865,8.09-40.515,0.486-49.356-14.48c-10.621-17.978-7.224-43.396,7.239-58.411
	c10.803-11.216,24.18-17.811,40.245-18.102l2.003-0.004l6.214,6.648c-17.581-1.243-32.391,4.144-43.78,15.966
	c-13.22,13.727-15.672,34.792-5.961,51.228c5.365,9.083,15.812,14.232,26.702,14.232c4.967,0,10.028-1.072,14.738-3.332
	c10.783-5.174,15.888-16.225,18.271-24.585c4.719-16.556,2.833-37.571-4.387-48.884c-0.751-1.175-1.528-2.342-2.313-3.467
	l-0.272-0.392l-0.006-0.008l-0.42-0.559l-6.397-8.369c-11.516-12.294-26.218-19.226-43.785-20.806
	c-26.013-2.338-54.307,9.161-58.843,40.144c-1.792,12.246,1.605,23.132,5.208,34.674c1.764,5.654,3.588,11.501,4.802,17.618
	c2.295,11.557-0.629,23.115-7.632,30.163c-3.717,3.741-10.581,8.202-22.173,8.202c-1.719,0-3.512-0.106-5.354-0.301v2.52
	c1.877,0.19,3.663,0.281,5.354,0.281c12.151,0,19.601-4.565,23.946-8.94c7.58-7.629,10.766-20.049,8.311-32.412
	c-1.241-6.253-3.088-12.171-4.873-17.894c-3.51-11.246-6.824-21.868-5.115-33.55c4.299-29.363,31.296-40.252,56.145-38.016
	c16.931,1.523,30.447,7.909,41.621,19.837c-16.755,0.303-30.961,6.388-42.248,18.106c-15.238,15.821-18.066,40.101-6.876,59.043
	c9.485,16.055,31.849,22.09,49.849,13.454c10.261-4.923,17.768-14.835,21.71-28.664C412.009,123.072,410.591,102.532,403.972,89.267
	c9.518,2.302,18.184,5.998,24.83,9.365c18.285,9.265,37.947,9.421,52.598,0.42c14.769-9.073,23.126-26.661,23.732-49.676
	l-2.515,0.267c-0.655,21.965-8.645,38.75-22.526,47.279c-13.905,8.542-32.656,8.348-50.159-0.52
	c-8.591-4.353-17.128-7.571-25.372-9.565l-2.286-0.553l-5.09-7.443c10.621,1.745,24.426,6.057,35.687,11.763
	c16.252,8.235,30.567,8.91,43.278,1.1c13.758-8.451,19.438-19.489,19.878-39.729l0,0c-0.44,20.288-7.01,31.836-19.338,39.409
	c-11.965,7.351-28.346,7.06-43.818-0.78c-12.159-6.161-24.314-10.153-35.687-11.763 M395.19,80.35 M394.442,90.664
	c6.875,10.772,8.633,30.915,4.09,46.854c-2.242,7.866-7.003,18.245-16.947,23.017c-13.898,6.667-31.037,2.218-38.207-9.918
	c-9.142-15.473-6.834-35.302,5.609-48.222c11.03-11.451,24.196-15.396,37.107-15.396c2.041,0,4.073,0.099,6.092,0.282
	C392.949,88.375,393.702,89.504,394.442,90.664z"/>
</svg>
