<svg xmlns="http://www.w3.org/2000/svg" width="28.359" height="32" viewBox="0 0 28.359 32"><path d="M24.236 16c3.262-3.12 4.854-6.176 3.8-8-.603-1.043-1.98-1.54-3.86-1.54-1.408 0-3.11.296-4.967.837C18.14 2.907 16.286 0 14.18 0c-2.11 0-3.963 2.908-5.032 7.297-1.855-.54-3.557-.838-4.965-.838-1.88 0-3.26.497-3.86 1.54-1.055 1.825.536 4.88 3.798 8C.86 19.118-.73 22.174.324 24c.602 1.042 1.98 1.54 3.86 1.54 1.407 0 3.108-.297 4.964-.838C10.217 29.092 12.07 32 14.18 32c2.106 0 3.96-2.91 5.028-7.298 1.855.54 3.56.838 4.967.838 1.88 0 3.26-.498 3.86-1.54 1.055-1.825-.537-4.88-3.8-8zm-.06-7.54c1.438 0 2.02.353 2.13.54.37.645-.68 2.916-3.57 5.663-.827-.692-1.726-1.38-2.694-2.048-.094-1.173-.24-2.29-.426-3.354 1.702-.508 3.274-.8 4.56-.8zM16.18 19.462c-.665.383-1.333.735-2 1.072-.67-.337-1.34-.69-2-1.072-.668-.385-1.31-.786-1.934-1.193-.04-.73-.067-1.478-.067-2.27 0-.793.026-1.54.066-2.27.61-.4 1.245-.8 1.933-1.195.66-.383 1.33-.734 2-1.072.667.338 1.335.69 2 1.072.665.385 1.306.787 1.93 1.195.04.73.07 1.477.07 2.27 0 .792-.03 1.54-.07 2.27-.612.398-1.245.796-1.93 1.193zm1.716 1.3c-.06.458-.12.9-.19 1.324-.413-.155-.827-.32-1.247-.498.24-.134.48-.256.72-.395.244-.14.476-.288.716-.432zm-5.997.826c-.42.177-.836.342-1.248.498-.07-.425-.134-.867-.19-1.325.238.146.473.29.718.434.24.137.478.26.72.392zm-3.706-4.76c-.365-.275-.72-.553-1.062-.832.336-.276.69-.555 1.062-.835-.005.278-.016.554-.016.837 0 .28.01.553.016.83zm2.267-5.594c.06-.458.12-.9.19-1.324.413.154.828.32 1.248.498-.24.133-.48.254-.72.394-.244.14-.48.288-.717.432zm5.997-.826c.42-.178.836-.344 1.248-.5.07.426.133.868.19 1.326-.24-.146-.474-.29-.718-.434-.24-.138-.48-.26-.72-.392zm3.705 4.758c.365.275.72.553 1.063.834-.336.275-.69.554-1.063.834.006-.278.018-.554.018-.836 0-.28-.012-.555-.018-.832zM14.18 2c.745 0 2.187 2.047 3.12 5.926-1.014.37-2.06.81-3.12 1.313-1.067-.506-2.11-.943-3.124-1.314C11.99 4.046 13.43 2 14.18 2zM3.804 12.746C1.928 10.466 1.91 9.246 2.055 9c.107-.188.69-.54 2.128-.54 1.284 0 2.854.292 4.56.804-.186 1.062-.33 2.18-.426 3.353-.97.67-1.87 1.356-2.697 2.05-.678-.64-1.292-1.283-1.815-1.92zm.378 10.794c-1.437 0-2.02-.354-2.127-.54-.374-.648.677-2.918 3.566-5.664.827.692 1.725 1.38 2.693 2.048.095 1.173.24 2.29.426 3.354-1.703.51-3.273.802-4.557.802zM14.18 30c-.75 0-2.19-2.047-3.124-5.927 1.014-.37 2.058-.81 3.123-1.313 1.063.505 2.106.942 3.12 1.313-.933 3.88-2.374 5.927-3.12 5.927zm12.124-7c-.107.188-.69.54-2.13.54-1.284 0-2.854-.293-4.56-.804.186-1.063.33-2.18.426-3.354.973-.67 1.87-1.357 2.697-2.052.678.64 1.29 1.284 1.816 1.922 1.878 2.283 1.892 3.5 1.75 3.748z"/></svg>