<?xml version="1.0" encoding="utf-8"?>
<!-- Generator: Adobe Illustrator 16.0.0, SVG Export Plug-In . SVG Version: 6.00 Build 0)  -->
<!DOCTYPE svg PUBLIC "-//W3C//DTD SVG 1.1//EN" "http://www.w3.org/Graphics/SVG/1.1/DTD/svg11.dtd">
<svg version="1.1" id="Layer_1" xmlns="http://www.w3.org/2000/svg" xmlns:xlink="http://www.w3.org/1999/xlink" x="0px" y="0px"
	 width="509px" height="297px" viewBox="0 0 509 297" enable-background="new 0 0 509 297" xml:space="preserve">
<rect fill="none" width="509" height="297"/>
<g opacity="0.07">
	<g>
		
			<path fill-rule="evenodd" clip-rule="evenodd" fill="none" stroke="#FFFFFF" stroke-width="2.126" stroke-linecap="round" stroke-linejoin="round" stroke-miterlimit="22.9256" d="
			M40.588,102.012c9.157,0,16.907,6.033,19.491,14.342c1.108-0.313,2.276-0.479,3.484-0.479c6.51,0,11.889,4.848,12.723,11.131
			c0.373-0.049,0.754-0.074,1.141-0.074c4.809,0,8.709,3.9,8.709,8.709c0,4.811-3.9,8.711-8.709,8.711h-0.039H22.39h-6.415h-0.072
			l-0.001-0.002c-3.495-0.039-6.343-2.91-6.343-6.414v-0.775v-5.641v-0.49c-0.058-0.465-0.088-0.939-0.088-1.42
			c0-6.195,4.966-11.232,11.134-11.35C22.526,108.984,30.744,102.012,40.588,102.012z"/>
		
			<path fill-rule="evenodd" clip-rule="evenodd" fill="none" stroke="#FFFFFF" stroke-width="2.126" stroke-linecap="round" stroke-linejoin="round" stroke-miterlimit="22.9256" d="
			M38.846,120.225H49.43c0.846,0,1.538,0.693,1.538,1.539v4.871c0,0.846-0.692,1.537-1.538,1.537H38.846
			c-0.846,0-1.538-0.691-1.538-1.537v-4.871C37.308,120.918,37.999,120.225,38.846,120.225z"/>
		
			<line fill-rule="evenodd" clip-rule="evenodd" fill="none" stroke="#FFFFFF" stroke-width="2.126" stroke-linecap="round" stroke-linejoin="round" stroke-miterlimit="22.9256" x1="44.138" y1="136.598" x2="44.138" y2="161.336"/>
		
			<path fill-rule="evenodd" clip-rule="evenodd" fill="none" stroke="#FFFFFF" stroke-width="2.126" stroke-linecap="round" stroke-linejoin="round" stroke-miterlimit="22.9256" d="
			M23.216,161.408v-6.869c0-1.555,1.271-2.824,2.824-2.824h36.195c1.554,0,2.824,1.271,2.824,2.824v6.869"/>
		
			<line fill-rule="evenodd" clip-rule="evenodd" fill="none" stroke="#FFFFFF" stroke-width="2.126" stroke-linejoin="round" stroke-miterlimit="22.9256" x1="44.138" y1="128.172" x2="44.138" y2="131.779"/>
		
			<line fill-rule="evenodd" clip-rule="evenodd" fill="none" stroke="#FFFFFF" stroke-width="2.126" stroke-linejoin="round" stroke-miterlimit="22.9256" x1="47.552" y1="132.68" x2="40.724" y2="132.68"/>
		
			<path fill-rule="evenodd" clip-rule="evenodd" fill="none" stroke="#FFFFFF" stroke-width="2.211" stroke-linecap="round" stroke-linejoin="round" stroke-miterlimit="22.9256" d="
			M38.846,165.264H49.43c0.846,0,1.538,0.693,1.538,1.539v4.871c0,0.846-0.692,1.537-1.538,1.537H38.846
			c-0.846,0-1.538-0.691-1.538-1.537v-4.871C37.308,165.957,37.999,165.264,38.846,165.264z"/>
		
			<line fill-rule="evenodd" clip-rule="evenodd" fill="none" stroke="#FFFFFF" stroke-width="2.126" stroke-linejoin="round" stroke-miterlimit="22.9256" x1="44.138" y1="173.211" x2="44.138" y2="176.818"/>
		
			<line fill-rule="evenodd" clip-rule="evenodd" fill="none" stroke="#FFFFFF" stroke-width="2.126" stroke-linejoin="round" stroke-miterlimit="22.9256" x1="47.552" y1="177.719" x2="40.724" y2="177.719"/>
		
			<path fill-rule="evenodd" clip-rule="evenodd" fill="none" stroke="#FFFFFF" stroke-width="2.126" stroke-linecap="round" stroke-linejoin="round" stroke-miterlimit="22.9256" d="
			M17.592,165.264h10.584c0.846,0,1.538,0.693,1.538,1.539v4.871c0,0.846-0.692,1.537-1.538,1.537H17.592
			c-0.846,0-1.538-0.691-1.538-1.537v-4.871C16.054,165.957,16.745,165.264,17.592,165.264z"/>
		
			<line fill-rule="evenodd" clip-rule="evenodd" fill="none" stroke="#FFFFFF" stroke-width="2.126" stroke-linejoin="round" stroke-miterlimit="22.9256" x1="22.884" y1="173.211" x2="22.884" y2="176.818"/>
		
			<line fill-rule="evenodd" clip-rule="evenodd" fill="none" stroke="#FFFFFF" stroke-width="2.126" stroke-linejoin="round" stroke-miterlimit="22.9256" x1="26.298" y1="177.719" x2="19.47" y2="177.719"/>
		
			<path fill-rule="evenodd" clip-rule="evenodd" fill="none" stroke="#FFFFFF" stroke-width="2.126" stroke-linecap="round" stroke-linejoin="round" stroke-miterlimit="22.9256" d="
			M60.199,165.264h10.584c0.847,0,1.538,0.693,1.538,1.539v4.871c0,0.846-0.691,1.537-1.538,1.537H60.199
			c-0.846,0-1.538-0.691-1.538-1.537v-4.871C58.661,165.957,59.354,165.264,60.199,165.264z"/>
		
			<line fill-rule="evenodd" clip-rule="evenodd" fill="none" stroke="#FFFFFF" stroke-width="2.126" stroke-linejoin="round" stroke-miterlimit="22.9256" x1="65.492" y1="173.211" x2="65.492" y2="176.818"/>
		
			<line fill-rule="evenodd" clip-rule="evenodd" fill="none" stroke="#FFFFFF" stroke-width="2.126" stroke-linejoin="round" stroke-miterlimit="22.9256" x1="68.906" y1="177.719" x2="62.077" y2="177.719"/>
		
			<path fill-rule="evenodd" clip-rule="evenodd" fill="none" stroke="#FFFFFF" stroke-width="2.126" stroke-linecap="round" stroke-linejoin="round" stroke-miterlimit="22.9256" d="
			M16.224,130.604c0-2.346,0.899-4.482,2.373-6.082 M21.797,122.291c1-0.41,2.093-0.645,3.236-0.668
			c0.891-4.301,3.493-7.975,7.062-10.281 M36.122,109.469c1.494-0.455,3.08-0.701,4.723-0.701"/>
	</g>
	<g>
		
			<path fill-rule="evenodd" clip-rule="evenodd" fill="none" stroke="#FFFFFF" stroke-width="2.126" stroke-linecap="round" stroke-linejoin="round" stroke-miterlimit="22.9256" d="
			M476.477,77.768l-8.803,8.801l-15.197-15.197l8.801-8.803L476.477,77.768L476.477,77.768z M442.084,60.979l-15.912-15.914
			l8.801-8.801l15.912,15.912L442.084,60.979z"/>
		
			<line fill-rule="evenodd" clip-rule="evenodd" fill="none" stroke="#FFFFFF" stroke-width="2.126" stroke-linecap="round" stroke-linejoin="round" stroke-miterlimit="22.9256" x1="437.779" y1="39.07" x2="432.836" y2="44.014"/>
		
			<line fill-rule="evenodd" clip-rule="evenodd" fill="none" stroke="#FFFFFF" stroke-width="2.126" stroke-linecap="round" stroke-linejoin="round" stroke-miterlimit="22.9256" x1="440.516" y1="41.807" x2="437.27" y2="45.051"/>
		
			<line fill-rule="evenodd" clip-rule="evenodd" fill="none" stroke="#FFFFFF" stroke-width="2.126" stroke-linecap="round" stroke-linejoin="round" stroke-miterlimit="22.9256" x1="443.25" y1="44.541" x2="440.004" y2="47.787"/>
		
			<line fill-rule="evenodd" clip-rule="evenodd" fill="none" stroke="#FFFFFF" stroke-width="2.126" stroke-linecap="round" stroke-linejoin="round" stroke-miterlimit="22.9256" x1="445.986" y1="47.277" x2="442.74" y2="50.521"/>
		
			<line fill-rule="evenodd" clip-rule="evenodd" fill="none" stroke="#FFFFFF" stroke-width="2.126" stroke-linecap="round" stroke-linejoin="round" stroke-miterlimit="22.9256" x1="448.721" y1="50.014" x2="443.779" y2="54.955"/>
		
			<line fill-rule="evenodd" clip-rule="evenodd" fill="none" stroke="#FFFFFF" stroke-width="2.126" stroke-linecap="round" stroke-linejoin="round" stroke-miterlimit="22.9256" x1="462.4" y1="63.691" x2="459.154" y2="66.936"/>
		
			<line fill-rule="evenodd" clip-rule="evenodd" fill="none" stroke="#FFFFFF" stroke-width="2.126" stroke-linecap="round" stroke-linejoin="round" stroke-miterlimit="22.9256" x1="465.135" y1="66.426" x2="461.891" y2="69.672"/>
		
			<line fill-rule="evenodd" clip-rule="evenodd" fill="none" stroke="#FFFFFF" stroke-width="2.126" stroke-linecap="round" stroke-linejoin="round" stroke-miterlimit="22.9256" x1="467.871" y1="69.162" x2="464.625" y2="72.408"/>
		
			<line fill-rule="evenodd" clip-rule="evenodd" fill="none" stroke="#FFFFFF" stroke-width="2.126" stroke-linecap="round" stroke-linejoin="round" stroke-miterlimit="22.9256" x1="470.607" y1="71.896" x2="465.664" y2="76.84"/>
		
			<line fill-rule="evenodd" clip-rule="evenodd" fill="none" stroke="#FFFFFF" stroke-width="2.126" stroke-linecap="round" stroke-linejoin="round" stroke-miterlimit="22.9256" x1="473.342" y1="74.633" x2="470.096" y2="77.879"/>
		
			<rect x="446.937" y="35.52" transform="matrix(0.7072 0.707 -0.707 0.7072 174.8613 -303.8727)" fill-rule="evenodd" clip-rule="evenodd" fill="none" stroke="#FFFFFF" stroke-width="2.126" stroke-linecap="round" stroke-linejoin="round" stroke-miterlimit="22.9256" width="14.699" height="47.296"/>
		
			<rect x="460.449" y="41.506" transform="matrix(0.7071 0.7071 -0.7071 0.7071 169.3074 -317.4102)" fill-rule="evenodd" clip-rule="evenodd" fill="none" stroke="#FFFFFF" stroke-width="2.126" stroke-linecap="round" stroke-linejoin="round" stroke-miterlimit="22.9256" width="14.706" height="8.322"/>
		
			<path fill-rule="evenodd" clip-rule="evenodd" fill="none" stroke="#FFFFFF" stroke-width="2.126" stroke-linecap="round" stroke-linejoin="round" stroke-miterlimit="22.9256" d="
			M475.701,48.168l-10.4-10.398C470.592,32.479,480.99,42.877,475.701,48.168z"/>
		
			<polygon fill-rule="evenodd" clip-rule="evenodd" fill="none" stroke="#FFFFFF" stroke-width="2.126" stroke-linecap="round" stroke-linejoin="round" stroke-miterlimit="22.9256" points="
			426.406,87.014 429.369,78.836 432.332,70.658 437.547,75.873 442.76,81.086 434.584,84.051 		"/>
		
			<polygon fill-rule="evenodd" clip-rule="evenodd" fill="none" stroke="#FFFFFF" stroke-width="2.126" stroke-linecap="round" stroke-linejoin="round" stroke-miterlimit="22.9256" points="
			426.443,87.162 428.984,79.896 431.254,82.166 433.521,84.434 		"/>
		
			<line fill-rule="evenodd" clip-rule="evenodd" fill="none" stroke="#FFFFFF" stroke-width="2.126" stroke-linecap="round" stroke-linejoin="round" stroke-miterlimit="22.9256" x1="464.859" y1="48.609" x2="437.572" y2="75.896"/>
		
			<line fill-rule="evenodd" clip-rule="evenodd" fill="none" stroke="#FFFFFF" stroke-width="2.126" stroke-linecap="round" stroke-linejoin="round" stroke-miterlimit="22.9256" x1="462.602" y1="40.467" x2="473.002" y2="50.867"/>
	</g>
	<g>
		
			<path fill-rule="evenodd" clip-rule="evenodd" fill="none" stroke="#FFFFFF" stroke-width="2.126" stroke-linecap="square" stroke-linejoin="round" stroke-miterlimit="22.9256" stroke-dasharray="4.252,4.252" d="
			M430.066,206.1v-3.496c0-3.777,3.09-6.867,6.865-6.867h36.988c3.775,0,6.865,3.092,6.865,6.867v2.287 M480.785,243.049v2.955
			c0,3.775-3.09,6.867-6.865,6.867h-36.988c-3.775,0-6.865-3.09-6.865-6.867v-4.25"/>
		
			<rect x="410.68" y="206.551" fill-rule="evenodd" clip-rule="evenodd" fill="none" stroke="#FFFFFF" stroke-width="2.126" stroke-linecap="round" stroke-linejoin="round" stroke-miterlimit="22.9256" width="38.604" height="25.221"/>
		
			<rect x="426.137" y="231.771" fill-rule="evenodd" clip-rule="evenodd" fill="none" stroke="#FFFFFF" stroke-width="2.126" stroke-linecap="round" stroke-linejoin="round" stroke-miterlimit="22.9256" width="7.688" height="9.98"/>
		
			<rect x="410.68" y="209.592" fill-rule="evenodd" clip-rule="evenodd" fill="none" stroke="#FFFFFF" stroke-width="2.126" stroke-linecap="round" stroke-linejoin="round" stroke-miterlimit="22.9256" width="38.604" height="17.072"/>
		<polygon fill="#FFFFFF" points="418.76,212.9 418.197,212.9 418.197,211.777 418.76,211.777 430.406,211.777 430.967,211.777 
			430.967,212.9 430.406,212.9 		"/>
		<polygon fill="#FFFFFF" points="431.82,216.701 431.26,216.701 431.26,215.578 431.82,215.578 436.066,215.578 436.629,215.578 
			436.629,216.701 436.066,216.701 		"/>
		<polygon fill="#FFFFFF" points="418.76,216.701 418.197,216.701 418.197,215.578 418.76,215.578 429.504,215.578 430.066,215.578 
			430.066,216.701 429.504,216.701 		"/>
		<polygon fill="#FFFFFF" points="418.76,224.305 418.197,224.305 418.197,223.182 418.76,223.182 429.504,223.182 430.066,223.182 
			430.066,224.305 429.504,224.305 		"/>
		<polygon fill="#FFFFFF" points="418.76,220.504 418.197,220.504 418.197,219.379 418.76,219.379 426.223,219.379 426.785,219.379 
			426.785,220.504 426.223,220.504 		"/>
		
			<line fill="none" stroke="#FFFFFF" stroke-width="2.126" stroke-linecap="round" stroke-linejoin="round" stroke-miterlimit="22.9256" x1="419.934" y1="241.754" x2="439.74" y2="241.754"/>
		<polygon fill-rule="evenodd" clip-rule="evenodd" fill="#FFFFFF" points="460.531,195.736 457.01,197.27 453.49,198.801 
			453.49,195.736 453.49,192.674 457.01,194.205 		"/>
		<polygon fill-rule="evenodd" clip-rule="evenodd" fill="#FFFFFF" points="453.49,252.871 457.01,251.34 460.531,249.807 
			460.531,252.871 460.531,255.934 457.01,254.402 		"/>
		
			<path fill-rule="evenodd" clip-rule="evenodd" fill="none" stroke="#FFFFFF" stroke-width="2.126" stroke-linecap="round" stroke-linejoin="round" stroke-miterlimit="22.9256" d="
			M480.785,242.717c10.324,0,18.744-8.42,18.744-18.744c0-10.322-8.42-18.742-18.744-18.742c-10.322,0-18.742,8.42-18.742,18.742
			C462.043,234.297,470.463,242.717,480.785,242.717z"/>
		
			<path fill-rule="evenodd" clip-rule="evenodd" fill="none" stroke="#FFFFFF" stroke-width="2.126" stroke-linecap="round" stroke-linejoin="round" stroke-miterlimit="22.9256" d="
			M492.037,238.963c-3.133,2.357-7.029,3.754-11.252,3.754c-4.221,0-8.117-1.398-11.252-3.754v-5.02c0-2.018,1.65-3.67,3.67-3.67
			l0,0c0.096,0,0.191,0.004,0.285,0.012c0.18-0.029,0.367-0.045,0.561-0.045h3.92c0.02,1.529,1.275,2.773,2.809,2.773l0,0h0.008
			h0.008l0,0c1.533,0,2.791-1.244,2.811-2.773h3.918c0.193,0,0.381,0.016,0.563,0.045c0.094-0.008,0.188-0.012,0.283-0.012l0,0
			c2.02,0,3.67,1.652,3.67,3.67V238.963z"/>
		
			<path fill-rule="evenodd" clip-rule="evenodd" fill="none" stroke="#FFFFFF" stroke-width="2.126" stroke-linecap="round" stroke-linejoin="round" stroke-miterlimit="22.9256" d="
			M480.785,228.99c-3.439-0.301-6.881-3.482-6.881-7.545v-4.482c0.52-1.242,3.637-2.158,4.893-2.158c3.58,0,6.783,1.389,8.869,0.242
			v6.398C487.666,225.508,484.227,228.689,480.785,228.99z"/>
		
			<path fill-rule="evenodd" clip-rule="evenodd" fill="none" stroke="#FFFFFF" stroke-width="1.1339" stroke-linecap="round" stroke-linejoin="round" stroke-miterlimit="22.9256" d="
			M482.518,224.092c-0.256,0.707-0.936,1.213-1.732,1.213s-1.477-0.506-1.732-1.213"/>
		<g>
			<circle fill-rule="evenodd" clip-rule="evenodd" fill="#FFFFFF" cx="483.721" cy="219.324" r="0.896"/>
			<circle fill-rule="evenodd" clip-rule="evenodd" fill="#FFFFFF" cx="477.85" cy="219.324" r="0.896"/>
		</g>
		
			<path fill-rule="evenodd" clip-rule="evenodd" fill="none" stroke="#FFFFFF" stroke-width="2.126" stroke-linecap="round" stroke-linejoin="round" stroke-miterlimit="22.9256" d="
			M473.904,216.963c0.52-1.242,3.637-2.158,4.893-2.158c5.627,0,10.324,3.436,11.211-4.947c-2.477,1.17-5.463-0.408-9.148-0.543
			C470.785,208.232,473.006,216.283,473.904,216.963z"/>
		
			<line fill-rule="evenodd" clip-rule="evenodd" fill="none" stroke="#FFFFFF" stroke-width="2.126" stroke-linecap="round" stroke-linejoin="round" stroke-miterlimit="22.9256" x1="473.121" y1="240.762" x2="473.121" y2="235.141"/>
		
			<line fill-rule="evenodd" clip-rule="evenodd" fill="none" stroke="#FFFFFF" stroke-width="2.126" stroke-linecap="round" stroke-linejoin="round" stroke-miterlimit="22.9256" x1="488.451" y1="240.762" x2="488.451" y2="235.141"/>
	</g>
	<g>
		<g>
			
				<path fill-rule="evenodd" clip-rule="evenodd" fill="none" stroke="#FFFFFF" stroke-width="2.126" stroke-linecap="round" stroke-linejoin="round" stroke-miterlimit="22.9256" d="
				M142.801,70.178c0.129,0.354,0.324,0.775,0.586,1.324l1.568,3.303c1.889,3.668,1.49,5.414-2.07,8.975l-7.935,7.936l-3.493-12.545
				c-0.319-1.15-0.443-1.771-0.145-2.598L142.801,70.178z"/>
			
				<path fill-rule="evenodd" clip-rule="evenodd" fill="none" stroke="#FFFFFF" stroke-width="2.126" stroke-linecap="round" stroke-linejoin="round" stroke-miterlimit="22.9256" d="
				M127.141,54.518c-0.354-0.131-0.775-0.324-1.325-0.586l-3.303-1.57c-3.668-1.887-5.413-1.49-8.975,2.072l-7.935,7.934
				l12.545,3.494c1.149,0.318,1.771,0.443,2.596,0.145L127.141,54.518z"/>
		</g>
		
			<path fill-rule="evenodd" clip-rule="evenodd" fill="none" stroke="#FFFFFF" stroke-width="2.126" stroke-linecap="round" stroke-linejoin="round" stroke-miterlimit="22.9256" d="
			M103.102,94.082c-0.785-6.289,0.448-10.658,3.155-14.07c-0.889,0.066-1.766,0.184-2.722,0.398
			c4.213-7.406,9.983-7.84,12.406-7.756l0.285-0.174l4.238,4.238l4.238,4.238l-0.175,0.285c0.084,2.422-0.35,8.193-7.756,12.406
			c0.215-0.957,0.333-1.834,0.399-2.723C113.759,93.635,109.39,94.867,103.102,94.082z"/>
		
			<path fill-rule="evenodd" clip-rule="evenodd" fill="none" stroke="#FFFFFF" stroke-width="2.126" stroke-linecap="round" stroke-linejoin="round" stroke-miterlimit="22.9256" d="
			M118.804,67.328L130.88,47.57c7.96-13.025,17.781-20.451,36.935-18.061c2.392,19.154-5.035,28.975-18.06,36.936l-19.759,12.076
			l-5.597-5.596L118.804,67.328z"/>
		
			<line fill-rule="evenodd" clip-rule="evenodd" fill="none" stroke="#FFFFFF" stroke-width="2.126" stroke-linecap="round" stroke-linejoin="round" stroke-miterlimit="22.9256" x1="140.629" y1="60.592" x2="147.724" y2="67.686"/>
		
			<circle fill-rule="evenodd" clip-rule="evenodd" fill="none" stroke="#FFFFFF" stroke-width="2.126" stroke-linecap="round" stroke-linejoin="round" stroke-miterlimit="22.9256" cx="147.813" cy="49.512" r="5.312"/>
		
			<path fill-rule="evenodd" clip-rule="evenodd" fill="none" stroke="#FFFFFF" stroke-width="2.126" stroke-linecap="round" stroke-linejoin="round" stroke-miterlimit="22.9256" d="
			M150.531,30.512c4.799-1.457,10.446-1.855,17.283-1.002c0.854,6.838,0.455,12.484-1.001,17.283l-8.141-8.141L150.531,30.512z"/>
		<g>
			
				<line fill-rule="evenodd" clip-rule="evenodd" fill="none" stroke="#FFFFFF" stroke-width="2.126" stroke-linecap="round" stroke-linejoin="round" stroke-miterlimit="22.9256" x1="99.262" y1="67.885" x2="94.697" y2="72.449"/>
			
				<line fill-rule="evenodd" clip-rule="evenodd" fill="none" stroke="#FFFFFF" stroke-width="2.126" stroke-linecap="round" stroke-linejoin="round" stroke-miterlimit="22.9256" x1="106.188" y1="67.201" x2="99.404" y2="73.984"/>
			
				<line fill-rule="evenodd" clip-rule="evenodd" fill="none" stroke="#FFFFFF" stroke-width="2.126" stroke-linecap="round" stroke-linejoin="round" stroke-miterlimit="22.9256" x1="97.065" y1="76.324" x2="95.38" y2="78.01"/>
		</g>
		
			<line fill-rule="evenodd" clip-rule="evenodd" fill="none" stroke="#FFFFFF" stroke-width="2.126" stroke-linecap="round" stroke-linejoin="round" stroke-miterlimit="22.9256" x1="129.44" y1="98.063" x2="127.158" y2="100.346"/>
		
			<line fill-rule="evenodd" clip-rule="evenodd" fill="none" stroke="#FFFFFF" stroke-width="2.126" stroke-linecap="round" stroke-linejoin="round" stroke-miterlimit="22.9256" x1="130.124" y1="91.137" x2="119.315" y2="101.945"/>
		
			<line fill-rule="evenodd" clip-rule="evenodd" fill="none" stroke="#FFFFFF" stroke-width="2.126" stroke-linecap="round" stroke-linejoin="round" stroke-miterlimit="22.9256" x1="135.318" y1="55.281" x2="138.022" y2="57.984"/>
		
			<line fill-rule="evenodd" clip-rule="evenodd" fill="none" stroke="#FFFFFF" stroke-width="2.126" stroke-linecap="round" stroke-linejoin="round" stroke-miterlimit="22.9256" x1="128.108" y1="71.375" x2="132.925" y2="76.191"/>
	</g>
	<g>
		
			<polygon fill-rule="evenodd" clip-rule="evenodd" fill="none" stroke="#FFFFFF" stroke-width="2.126" stroke-linecap="round" stroke-linejoin="round" stroke-miterlimit="22.9256" points="
			325.012,34.459 330.861,34.459 330.861,92.703 306.766,92.703 306.766,86.445 325.012,86.445 		"/>
		
			<line fill-rule="evenodd" clip-rule="evenodd" fill="none" stroke="#FFFFFF" stroke-width="2.126" stroke-linecap="round" stroke-linejoin="round" stroke-miterlimit="22.9256" x1="291.689" y1="34.17" x2="317.25" y2="34.17"/>
		
			<path fill-rule="evenodd" clip-rule="evenodd" fill="none" stroke="#FFFFFF" stroke-width="2.126" stroke-linecap="round" stroke-linejoin="round" stroke-miterlimit="22.9256" d="
			M306.766,75.367h6.555 M306.766,47.418h4.9 M306.766,41.828h6.555 M306.766,53.008h6.555 M306.766,58.598h10.404 M306.766,64.188
			h6.555 M306.766,69.777h11.963"/>
		
			<rect x="265.99" y="39.447" fill-rule="evenodd" clip-rule="evenodd" fill="none" stroke="#FFFFFF" stroke-width="2.126" stroke-linecap="round" stroke-linejoin="round" stroke-miterlimit="22.9256" width="40.775" height="58.244"/>
		<polygon fill-rule="evenodd" clip-rule="evenodd" fill="#FFFFFF" points="277.322,45.582 279.635,46.916 281.947,48.252 
			279.385,49.73 278.354,49.135 277.322,48.539 276.289,49.135 275.258,49.73 275.258,50.922 275.258,52.113 276.289,52.709 
			277.322,53.305 278.354,52.709 279.385,52.113 281.947,53.592 279.635,54.928 277.322,56.262 275.01,54.928 272.697,53.592 
			272.697,50.922 272.697,48.252 275.01,46.916 		"/>
		
			<polyline fill-rule="evenodd" clip-rule="evenodd" fill="none" stroke="#FFFFFF" stroke-width="2.126" stroke-linecap="round" stroke-linejoin="round" stroke-miterlimit="22.9256" points="
			306.766,59.121 300.123,61.285 300.123,75.855 306.766,78.018 		"/>
		
			<line fill-rule="evenodd" clip-rule="evenodd" fill="none" stroke="#FFFFFF" stroke-width="2.126" stroke-linecap="round" stroke-linejoin="round" stroke-miterlimit="22.9256" x1="285.564" y1="50.922" x2="293.689" y2="50.922"/>
		
			<line fill-rule="evenodd" clip-rule="evenodd" fill="none" stroke="#FFFFFF" stroke-width="2.126" stroke-linecap="round" stroke-linejoin="round" stroke-miterlimit="22.9256" x1="274.24" y1="65.549" x2="291.383" y2="65.549"/>
		
			<line fill-rule="evenodd" clip-rule="evenodd" fill="none" stroke="#FFFFFF" stroke-width="2.126" stroke-linecap="round" stroke-linejoin="round" stroke-miterlimit="22.9256" x1="274.24" y1="72.59" x2="279.902" y2="72.59"/>
		
			<polygon fill-rule="evenodd" clip-rule="evenodd" fill="none" stroke="#FFFFFF" stroke-width="2.126" stroke-linecap="round" stroke-linejoin="round" stroke-miterlimit="22.9256" points="
			265.99,39.447 284.236,31.721 284.236,39.447 		"/>
		
			<polygon fill-rule="evenodd" clip-rule="evenodd" fill="none" stroke="#FFFFFF" stroke-width="2.126" stroke-linecap="round" stroke-linejoin="round" stroke-miterlimit="22.9256" points="
			284.236,28.201 325.012,28.201 325.012,86.445 306.766,86.445 306.766,39.447 284.236,39.447 		"/>
	</g>
	<g>
		
			<path fill-rule="evenodd" clip-rule="evenodd" fill="none" stroke="#FFFFFF" stroke-width="2.126" stroke-linecap="round" stroke-linejoin="round" stroke-miterlimit="22.9256" d="
			M204.598,116.467h3.703c1.077,1.309,2.71,2.145,4.534,2.145c1.827,0,3.46-0.836,4.537-2.145h1.197
			c12.747,0,23.175,10.426,23.175,23.174l0,0c0,6.611-2.806,12.596-7.283,16.828l3.34,10.707c-0.405,3.678-2.448,4.645-6.149,4.645
			h-6.738l-2.931-9.258c-1.114,0.166-2.254,0.254-3.413,0.254h-13.972c-0.943,0-1.874-0.061-2.79-0.17l-2.904,9.174h-6.738
			c-3.701,0-5.743-0.967-6.149-4.645l3.195-10.244c-2.8-2.496-4.996-5.658-6.333-9.23h-5.67c-1.13,0-1.906-0.943-2.072-2.072
			l-1.695-11.348c-0.167-1.131,0.936-2.15,2.072-2.074l6.979,0.492c1.718-5.432,5.392-10.014,10.186-12.91l-0.008-8.32
			c3.714,0.176,6.868,2.328,8.181,5.303C202.071,116.572,203.323,116.467,204.598,116.467z"/>
		
			<line fill-rule="evenodd" clip-rule="evenodd" fill="none" stroke="#FFFFFF" stroke-width="2.126" stroke-linecap="round" stroke-linejoin="round" stroke-miterlimit="22.9256" x1="206.366" y1="118.768" x2="219.357" y2="118.768"/>
		
			<path fill-rule="evenodd" clip-rule="evenodd" fill="none" stroke="#FFFFFF" stroke-width="2.126" stroke-linecap="round" stroke-linejoin="round" stroke-miterlimit="22.9256" d="
			M190.843,134.041c1.793,0,3.255-1.463,3.255-3.256s-1.462-3.256-3.255-3.256s-3.256,1.463-3.256,3.256
			S189.05,134.041,190.843,134.041z"/>
		
			<path fill-rule="evenodd" clip-rule="evenodd" fill="none" stroke="#FFFFFF" stroke-width="2.126" stroke-linecap="round" stroke-linejoin="round" stroke-miterlimit="22.9256" d="
			M212.837,118.611c3.233,0,5.871-2.639,5.871-5.871s-2.638-5.871-5.871-5.871c-3.232,0-5.87,2.639-5.87,5.871
			S209.604,118.611,212.837,118.611z"/>
		
			<rect x="206.125" y="159.084" fill-rule="evenodd" clip-rule="evenodd" fill="none" stroke="#FFFFFF" stroke-width="2.126" stroke-linecap="round" stroke-linejoin="round" stroke-miterlimit="22.9256" width="14.006" height="2.979"/>
		
			<rect x="208.158" y="162.596" fill-rule="evenodd" clip-rule="evenodd" fill="none" stroke="#FFFFFF" stroke-width="2.126" stroke-linecap="round" stroke-linejoin="round" stroke-miterlimit="22.9256" width="14.006" height="2.977"/>
		
			<rect x="203.29" y="166.082" fill-rule="evenodd" clip-rule="evenodd" fill="none" stroke="#FFFFFF" stroke-width="2.126" stroke-linecap="round" stroke-linejoin="round" stroke-miterlimit="22.9256" width="14.006" height="2.979"/>
		
			<rect x="205.087" y="169.883" fill-rule="evenodd" clip-rule="evenodd" fill="none" stroke="#FFFFFF" stroke-width="2.126" stroke-linecap="round" stroke-linejoin="round" stroke-miterlimit="22.9256" width="14.006" height="2.979"/>
		
			<path fill-rule="evenodd" clip-rule="evenodd" fill="none" stroke="#FFFFFF" stroke-width="2.126" stroke-linecap="round" stroke-linejoin="round" stroke-miterlimit="22.9256" d="
			M225.858,121.816c0.894,0.604,1.732,1.281,2.513,2.02 M230.912,126.77c2.245,3.178,3.571,7.051,3.571,11.221l0,0
			c0,6.039-2.779,11.463-7.121,15.049"/>
		
			<line fill-rule="evenodd" clip-rule="evenodd" fill="none" stroke="#FFFFFF" stroke-width="2.126" stroke-linecap="round" stroke-linejoin="round" stroke-miterlimit="22.9256" x1="212.837" y1="110.236" x2="212.837" y2="114.34"/>
		
			<line fill-rule="evenodd" clip-rule="evenodd" fill="none" stroke="#FFFFFF" stroke-width="2.126" stroke-linecap="round" stroke-linejoin="round" stroke-miterlimit="22.9256" x1="213.998" y1="114.73" x2="211.676" y2="114.73"/>
		
			<rect x="205.308" y="155.123" fill-rule="evenodd" clip-rule="evenodd" fill="none" stroke="#FFFFFF" stroke-width="2.126" stroke-linecap="round" stroke-linejoin="round" stroke-miterlimit="22.9256" width="14.006" height="2.979"/>
		
			<path fill-rule="evenodd" clip-rule="evenodd" fill="none" stroke="#FFFFFF" stroke-width="2.126" stroke-linecap="round" stroke-linejoin="round" stroke-miterlimit="22.9256" d="
			M246.225,120.52c0.677,0.904,1.045,2.004,1.045,3.135c0,2.885-2.342,5.227-5.227,5.227c-1.703,0-3.298-0.832-4.276-2.225"/>
	</g>
	<g>
		
			<line fill-rule="evenodd" clip-rule="evenodd" fill="none" stroke="#FFFFFF" stroke-width="2.126" stroke-linecap="round" stroke-linejoin="round" stroke-miterlimit="22.9256" x1="299.969" y1="236.115" x2="299.969" y2="263.904"/>
		
			<line fill-rule="evenodd" clip-rule="evenodd" fill="none" stroke="#FFFFFF" stroke-width="2.126" stroke-linecap="round" stroke-linejoin="round" stroke-miterlimit="22.9256" x1="299.969" y1="192.477" x2="299.969" y2="200.736"/>
		
			<line fill-rule="evenodd" clip-rule="evenodd" fill="none" stroke="#FFFFFF" stroke-width="2.126" stroke-linecap="round" stroke-linejoin="round" stroke-miterlimit="22.9256" x1="299.904" y1="258.365" x2="286.453" y2="261.111"/>
		
			<line fill-rule="evenodd" clip-rule="evenodd" fill="none" stroke="#FFFFFF" stroke-width="2.126" stroke-linecap="round" stroke-linejoin="round" stroke-miterlimit="22.9256" x1="299.904" y1="258.365" x2="315.539" y2="261.557"/>
		
			<rect x="270.137" y="200.736" fill-rule="evenodd" clip-rule="evenodd" fill="none" stroke="#FFFFFF" stroke-width="2.126" stroke-linecap="round" stroke-linejoin="round" stroke-miterlimit="22.9256" width="59.525" height="35.379"/>
		
			<path fill-rule="evenodd" clip-rule="evenodd" fill="none" stroke="#FFFFFF" stroke-width="2.126" stroke-linecap="round" stroke-linejoin="round" stroke-miterlimit="22.9256" d="
			M284.268,259.51L284.268,259.51c1.127,0,2.049,0.922,2.049,2.047l0,0c0,1.127-0.922,2.049-2.049,2.049l0,0
			c-1.127,0-2.049-0.922-2.049-2.049l0,0C282.219,260.432,283.141,259.51,284.268,259.51z"/>
		
			<path fill-rule="evenodd" clip-rule="evenodd" fill="none" stroke="#FFFFFF" stroke-width="2.126" stroke-linecap="round" stroke-linejoin="round" stroke-miterlimit="22.9256" d="
			M317.588,259.51L317.588,259.51c1.127,0,2.049,0.922,2.049,2.047l0,0c0,1.127-0.922,2.049-2.049,2.049l0,0
			c-1.127,0-2.049-0.922-2.049-2.049l0,0C315.539,260.432,316.461,259.51,317.588,259.51z"/>
		
			<path fill-rule="evenodd" clip-rule="evenodd" fill="none" stroke="#FFFFFF" stroke-width="2.126" stroke-linecap="round" stroke-linejoin="round" stroke-miterlimit="22.9256" d="
			M299.904,264.703L299.904,264.703c1.125,0,2.047,0.922,2.047,2.049l0,0c0,1.127-0.922,2.047-2.047,2.047l0,0
			c-1.127,0-2.049-0.92-2.049-2.047l0,0C297.855,265.625,298.777,264.703,299.904,264.703z"/>
		
			<line fill-rule="evenodd" clip-rule="evenodd" fill="none" stroke="#FFFFFF" stroke-width="2.126" stroke-linecap="round" stroke-linejoin="round" stroke-miterlimit="22.9256" x1="299.598" y1="195.813" x2="281.777" y2="200.586"/>
		
			<line fill-rule="evenodd" clip-rule="evenodd" fill="none" stroke="#FFFFFF" stroke-width="2.126" stroke-linecap="round" stroke-linejoin="round" stroke-miterlimit="22.9256" x1="299.598" y1="195.813" x2="317.418" y2="200.586"/>
		
			<rect x="276.682" y="206.721" fill-rule="evenodd" clip-rule="evenodd" fill="none" stroke="#FFFFFF" stroke-width="2.126" stroke-linecap="round" stroke-linejoin="round" stroke-miterlimit="22.9256" width="12.818" height="15.236"/>
		
			<line fill-rule="evenodd" clip-rule="evenodd" fill="none" stroke="#FFFFFF" stroke-width="2.126" stroke-linecap="round" stroke-linejoin="round" stroke-miterlimit="22.9256" x1="295.922" y1="211.568" x2="316.254" y2="211.568"/>
		
			<line fill-rule="evenodd" clip-rule="evenodd" fill="none" stroke="#FFFFFF" stroke-width="2.126" stroke-linecap="round" stroke-linejoin="round" stroke-miterlimit="22.9256" x1="295.922" y1="215.783" x2="306.088" y2="215.783"/>
		
			<line fill-rule="evenodd" clip-rule="evenodd" fill="none" stroke="#FFFFFF" stroke-width="2.126" stroke-linecap="round" stroke-linejoin="round" stroke-miterlimit="22.9256" x1="295.922" y1="220.246" x2="315.51" y2="220.246"/>
		
			<rect x="276.682" y="227.66" fill-rule="evenodd" clip-rule="evenodd" fill="none" stroke="#FFFFFF" stroke-width="2.126" stroke-linecap="round" stroke-linejoin="round" stroke-miterlimit="22.9256" width="12.818" height="3.809"/>
		
			<line fill-rule="evenodd" clip-rule="evenodd" fill="none" stroke="#FFFFFF" stroke-width="2.126" stroke-linecap="round" stroke-linejoin="round" stroke-miterlimit="22.9256" x1="295.922" y1="230.035" x2="306.775" y2="230.035"/>
		
			<line fill-rule="evenodd" clip-rule="evenodd" fill="none" stroke="#FFFFFF" stroke-width="2.126" stroke-linecap="round" stroke-linejoin="round" stroke-miterlimit="22.9256" x1="312.346" y1="230.035" x2="315.957" y2="230.035"/>
		
			<line fill-rule="evenodd" clip-rule="evenodd" fill="none" stroke="#FFFFFF" stroke-width="2.126" stroke-linecap="round" stroke-linejoin="round" stroke-miterlimit="22.9256" x1="319.725" y1="226.197" x2="331.596" y2="246.756"/>
	</g>
	<g>
		
			<rect x="347.826" y="116.32" fill-rule="evenodd" clip-rule="evenodd" fill="none" stroke="#FFFFFF" stroke-width="2.126" stroke-linecap="round" stroke-linejoin="round" stroke-miterlimit="22.9256" width="64.539" height="41.35"/>
		
			<path fill-rule="evenodd" clip-rule="evenodd" fill="none" stroke="#FFFFFF" stroke-width="2.126" stroke-linecap="round" stroke-linejoin="round" stroke-miterlimit="22.9256" d="
			M340.813,157.672h78.566v2.869c0,1.578-1.291,2.869-2.869,2.869h-72.828c-1.578,0-2.869-1.291-2.869-2.869V157.672z"/>
		
			<rect x="347.826" y="120.771" fill-rule="evenodd" clip-rule="evenodd" fill="none" stroke="#FFFFFF" stroke-width="2.126" stroke-linecap="round" stroke-linejoin="round" stroke-miterlimit="22.9256" width="64.539" height="36.898"/>
		
			<rect x="381.727" y="122.238" fill-rule="evenodd" clip-rule="evenodd" fill="none" stroke="#FFFFFF" stroke-width="2.126" stroke-linecap="round" stroke-linejoin="round" stroke-miterlimit="22.9256" width="29.168" height="33.953"/>
		
			<line fill-rule="evenodd" clip-rule="evenodd" fill="none" stroke="#FFFFFF" stroke-width="2.126" stroke-linecap="round" stroke-linejoin="round" stroke-miterlimit="22.9256" x1="368.213" y1="129.086" x2="375.293" y2="129.086"/>
		
			<line fill-rule="evenodd" clip-rule="evenodd" fill="none" stroke="#FFFFFF" stroke-width="2.126" stroke-linecap="round" stroke-linejoin="round" stroke-miterlimit="22.9256" x1="354.936" y1="129.084" x2="363.113" y2="129.084"/>
		
			<line fill-rule="evenodd" clip-rule="evenodd" fill="none" stroke="#FFFFFF" stroke-width="2.126" stroke-linecap="round" stroke-linejoin="round" stroke-miterlimit="22.9256" x1="354.936" y1="135.813" x2="368.432" y2="135.813"/>
		
			<line fill-rule="evenodd" clip-rule="evenodd" fill="none" stroke="#FFFFFF" stroke-width="2.126" stroke-linecap="round" stroke-linejoin="round" stroke-miterlimit="22.9256" x1="354.936" y1="142.539" x2="374.174" y2="142.539"/>
		
			<line fill-rule="evenodd" clip-rule="evenodd" fill="none" stroke="#FFFFFF" stroke-width="2.126" stroke-linecap="round" stroke-linejoin="round" stroke-miterlimit="22.9256" x1="371.377" y1="149.266" x2="374.383" y2="149.266"/>
		
			<line fill-rule="evenodd" clip-rule="evenodd" fill="none" stroke="#FFFFFF" stroke-width="2.126" stroke-linecap="round" stroke-linejoin="round" stroke-miterlimit="22.9256" x1="354.936" y1="149.266" x2="366.135" y2="149.266"/>
		
			<circle fill-rule="evenodd" clip-rule="evenodd" fill="none" stroke="#FFFFFF" stroke-width="2.126" stroke-linecap="round" stroke-linejoin="round" stroke-miterlimit="22.9256" cx="396.311" cy="139.176" r="9.463"/>
		
			<path fill-rule="evenodd" clip-rule="evenodd" fill="none" stroke="#FFFFFF" stroke-width="2.126" stroke-linecap="round" stroke-linejoin="round" stroke-miterlimit="22.9256" d="
			M398.674,142.512c-0.705,0.512-1.557,0.787-2.428,0.787c-2.277,0-4.123-1.846-4.123-4.123s1.846-4.125,4.123-4.125
			c0.689,0,1.369,0.174,1.975,0.504"/>
	</g>
	<g>
		
			<rect x="89.042" y="203.418" fill-rule="evenodd" clip-rule="evenodd" fill="none" stroke="#FFFFFF" stroke-width="2.126" stroke-linecap="round" stroke-linejoin="round" stroke-miterlimit="22.9256" width="75.036" height="48.773"/>
		
			<rect x="89.042" y="203.418" fill-rule="evenodd" clip-rule="evenodd" fill="none" stroke="#FFFFFF" stroke-width="2.126" stroke-linecap="round" stroke-linejoin="round" stroke-miterlimit="22.9256" width="75.036" height="7.6"/>
		<path fill-rule="evenodd" clip-rule="evenodd" fill="#FFFFFF" d="M94.562,209.17c0.979,0,1.777-0.799,1.777-1.777
			s-0.799-1.777-1.777-1.777c-0.979,0-1.777,0.799-1.777,1.777S93.582,209.17,94.562,209.17z"/>
		<path fill-rule="evenodd" clip-rule="evenodd" fill="#FFFFFF" d="M100.438,209.17c0.979,0,1.777-0.799,1.777-1.777
			s-0.798-1.777-1.777-1.777c-0.979,0-1.777,0.799-1.777,1.777S99.46,209.17,100.438,209.17z"/>
		<path fill-rule="evenodd" clip-rule="evenodd" fill="#FFFFFF" d="M106.315,209.17c0.979,0,1.777-0.799,1.777-1.777
			s-0.798-1.777-1.777-1.777c-0.979,0-1.777,0.799-1.777,1.777S105.337,209.17,106.315,209.17z"/>
		
			<rect x="94.943" y="217.908" fill-rule="evenodd" clip-rule="evenodd" fill="none" stroke="#FFFFFF" stroke-width="2.126" stroke-linecap="round" stroke-linejoin="round" stroke-miterlimit="22.9256" width="14.687" height="6.004"/>
		
			<rect x="94.943" y="238.969" fill-rule="evenodd" clip-rule="evenodd" fill="none" stroke="#FFFFFF" stroke-width="2.126" stroke-linecap="round" stroke-linejoin="round" stroke-miterlimit="22.9256" width="14.687" height="6.002"/>
		
			<line fill-rule="evenodd" clip-rule="evenodd" fill="none" stroke="#FFFFFF" stroke-width="2.126" stroke-linecap="round" stroke-linejoin="round" stroke-miterlimit="22.9256" x1="102.287" y1="223.912" x2="102.287" y2="238.969"/>
		<polygon fill-rule="evenodd" clip-rule="evenodd" fill="#FFFFFF" points="102.287,235.387 100.167,232.139 98.048,228.891 
			102.287,228.891 106.525,228.891 104.406,232.139 		"/>
		
			<rect x="118.05" y="217.908" fill-rule="evenodd" clip-rule="evenodd" fill="none" stroke="#FFFFFF" stroke-width="2.126" stroke-linecap="round" stroke-linejoin="round" stroke-miterlimit="22.9256" width="14.688" height="6.004"/>
		
			<rect x="118.05" y="238.969" fill-rule="evenodd" clip-rule="evenodd" fill="none" stroke="#FFFFFF" stroke-width="2.126" stroke-linecap="round" stroke-linejoin="round" stroke-miterlimit="22.9256" width="14.688" height="6.002"/>
		
			<line fill-rule="evenodd" clip-rule="evenodd" fill="none" stroke="#FFFFFF" stroke-width="2.126" stroke-linecap="round" stroke-linejoin="round" stroke-miterlimit="22.9256" x1="125.394" y1="223.912" x2="125.394" y2="238.969"/>
		<polygon fill-rule="evenodd" clip-rule="evenodd" fill="#FFFFFF" points="125.394,235.387 123.274,232.139 121.154,228.891 
			125.394,228.891 129.632,228.891 127.513,232.139 		"/>
		
			<rect x="141.157" y="217.908" fill-rule="evenodd" clip-rule="evenodd" fill="none" stroke="#FFFFFF" stroke-width="2.126" stroke-linecap="round" stroke-linejoin="round" stroke-miterlimit="22.9256" width="14.687" height="6.004"/>
		
			<rect x="141.157" y="238.969" fill-rule="evenodd" clip-rule="evenodd" fill="none" stroke="#FFFFFF" stroke-width="2.126" stroke-linecap="round" stroke-linejoin="round" stroke-miterlimit="22.9256" width="14.687" height="6.002"/>
		
			<line fill-rule="evenodd" clip-rule="evenodd" fill="none" stroke="#FFFFFF" stroke-width="2.126" stroke-linecap="round" stroke-linejoin="round" stroke-miterlimit="22.9256" x1="148.501" y1="223.912" x2="148.501" y2="238.969"/>
		<polygon fill-rule="evenodd" clip-rule="evenodd" fill="#FFFFFF" points="148.501,235.387 146.381,232.139 144.262,228.891 
			148.501,228.891 152.739,228.891 150.62,232.139 		"/>
	</g>
</g>
</svg>
