<?xml version="1.0" encoding="utf-8"?>
<!-- Generator: Adobe Illustrator 16.0.0, SVG Export Plug-In . SVG Version: 6.00 Build 0)  -->
<!DOCTYPE svg PUBLIC "-//W3C//DTD SVG 1.1//EN" "http://www.w3.org/Graphics/SVG/1.1/DTD/svg11.dtd">
<svg version="1.1" id="Layer_1" xmlns="http://www.w3.org/2000/svg" xmlns:xlink="http://www.w3.org/1999/xlink" x="0px" y="0px"
	 width="55px" height="55px" viewBox="0 0 55 55" enable-background="new 0 0 55 55" xml:space="preserve">
<g>
	
		<polygon fill-rule="evenodd" clip-rule="evenodd" fill="#BECEE7" stroke="#536B8B" stroke-width="1.1339" stroke-linecap="round" stroke-linejoin="round" stroke-miterlimit="22.9256" points="
		54.263,44.849 44.77,54.359 0,9.511 9.493,0 	"/>
	<polygon fill-rule="evenodd" clip-rule="evenodd" fill="#E1E5F6" points="1.014,9.491 2.938,7.563 46.72,51.424 44.796,53.351 	"/>
	
		<line fill-rule="evenodd" clip-rule="evenodd" fill="none" stroke="#536B8B" stroke-width="1.1339" stroke-linecap="round" stroke-linejoin="round" stroke-miterlimit="22.9256" x1="12.522" y1="3.033" x2="7.189" y2="8.373"/>
	
		<line fill-rule="evenodd" clip-rule="evenodd" fill="none" stroke="#536B8B" stroke-width="1.1339" stroke-linecap="round" stroke-linejoin="round" stroke-miterlimit="22.9256" x1="15.472" y1="5.99" x2="11.971" y2="9.496"/>
	
		<line fill-rule="evenodd" clip-rule="evenodd" fill="none" stroke="#536B8B" stroke-width="1.1339" stroke-linecap="round" stroke-linejoin="round" stroke-miterlimit="22.9256" x1="18.423" y1="8.945" x2="14.923" y2="12.452"/>
	
		<line fill-rule="evenodd" clip-rule="evenodd" fill="none" stroke="#536B8B" stroke-width="1.1339" stroke-linecap="round" stroke-linejoin="round" stroke-miterlimit="22.9256" x1="21.373" y1="11.901" x2="17.873" y2="15.408"/>
	
		<line fill-rule="evenodd" clip-rule="evenodd" fill="none" stroke="#536B8B" stroke-width="1.1339" stroke-linecap="round" stroke-linejoin="round" stroke-miterlimit="22.9256" x1="24.325" y1="14.857" x2="18.994" y2="20.197"/>
	
		<line fill-rule="evenodd" clip-rule="evenodd" fill="none" stroke="#536B8B" stroke-width="1.1339" stroke-linecap="round" stroke-linejoin="round" stroke-miterlimit="22.9256" x1="27.276" y1="17.813" x2="23.774" y2="21.32"/>
	
		<line fill-rule="evenodd" clip-rule="evenodd" fill="none" stroke="#536B8B" stroke-width="1.1339" stroke-linecap="round" stroke-linejoin="round" stroke-miterlimit="22.9256" x1="30.227" y1="20.77" x2="26.725" y2="24.276"/>
	
		<line fill-rule="evenodd" clip-rule="evenodd" fill="none" stroke="#536B8B" stroke-width="1.1339" stroke-linecap="round" stroke-linejoin="round" stroke-miterlimit="22.9256" x1="33.178" y1="23.726" x2="29.676" y2="27.232"/>
	
		<line fill-rule="evenodd" clip-rule="evenodd" fill="none" stroke="#536B8B" stroke-width="1.1339" stroke-linecap="round" stroke-linejoin="round" stroke-miterlimit="22.9256" x1="36.127" y1="26.681" x2="30.796" y2="32.021"/>
	
		<line fill-rule="evenodd" clip-rule="evenodd" fill="none" stroke="#536B8B" stroke-width="1.1339" stroke-linecap="round" stroke-linejoin="round" stroke-miterlimit="22.9256" x1="39.078" y1="29.638" x2="35.578" y2="33.145"/>
	
		<line fill-rule="evenodd" clip-rule="evenodd" fill="none" stroke="#536B8B" stroke-width="1.1339" stroke-linecap="round" stroke-linejoin="round" stroke-miterlimit="22.9256" x1="42.029" y1="32.594" x2="38.528" y2="36.1"/>
	
		<line fill-rule="evenodd" clip-rule="evenodd" fill="none" stroke="#536B8B" stroke-width="1.1339" stroke-linecap="round" stroke-linejoin="round" stroke-miterlimit="22.9256" x1="44.98" y1="35.549" x2="41.479" y2="39.056"/>
	
		<line fill-rule="evenodd" clip-rule="evenodd" fill="none" stroke="#536B8B" stroke-width="1.1339" stroke-linecap="round" stroke-linejoin="round" stroke-miterlimit="22.9256" x1="47.932" y1="38.505" x2="42.599" y2="43.847"/>
	
		<line fill-rule="evenodd" clip-rule="evenodd" fill="none" stroke="#536B8B" stroke-width="1.1339" stroke-linecap="round" stroke-linejoin="round" stroke-miterlimit="22.9256" x1="50.881" y1="41.462" x2="47.382" y2="44.969"/>
	
		<polygon fill-rule="evenodd" clip-rule="evenodd" fill="#FDD26A" stroke="#536B8B" stroke-width="1.1339" stroke-linecap="round" stroke-linejoin="round" stroke-miterlimit="22.9256" points="
		17.895,48.435 6.685,37.204 42.757,1.066 53.969,12.297 	"/>
	<polygon fill-rule="evenodd" clip-rule="evenodd" fill="#E8A541" points="17.273,47.811 12.29,42.819 48.363,6.682 53.346,11.673 	
		"/>
	
		<polygon fill-rule="evenodd" clip-rule="evenodd" fill="#BCE1E8" stroke="#536B8B" stroke-width="1.1339" stroke-linecap="round" stroke-linejoin="round" stroke-miterlimit="22.9256" points="
		47.342,18.958 36.123,7.722 42.471,1.363 53.688,12.601 	"/>
	
		<path fill-rule="evenodd" clip-rule="evenodd" fill="#D64D4A" stroke="#536B8B" stroke-width="1.1339" stroke-linecap="round" stroke-linejoin="round" stroke-miterlimit="22.9256" d="
		M53.426,12.864L42.207,1.627C47.914-4.09,59.133,7.147,53.426,12.864z"/>
	
		<polygon fill-rule="evenodd" clip-rule="evenodd" fill="#FFFFFF" stroke="#536B8B" stroke-width="1.1339" stroke-linecap="round" stroke-linejoin="round" stroke-miterlimit="22.9256" points="
		0.254,54.839 3.45,46.004 6.646,37.168 12.271,42.802 17.895,48.435 9.074,51.637 	"/>
	<polygon fill-rule="evenodd" clip-rule="evenodd" fill="#536B8B" points="0.293,55 3.035,47.15 5.482,49.602 7.929,52.053 	"/>
	
		<line fill-rule="evenodd" clip-rule="evenodd" fill="none" stroke="#536B8B" stroke-width="1.1339" stroke-linecap="round" stroke-linejoin="round" stroke-miterlimit="22.9256" x1="41.731" y1="13.341" x2="12.298" y2="42.827"/>
	
		<line fill-rule="evenodd" clip-rule="evenodd" fill="none" stroke="#536B8B" stroke-width="1.1339" stroke-linecap="round" stroke-linejoin="round" stroke-miterlimit="22.9256" x1="39.297" y1="4.543" x2="50.515" y2="15.779"/>
	<path fill-rule="evenodd" clip-rule="evenodd" fill="#EF6E65" d="M50.633,8.896l-7.273-7.219
		C47.91-1.311,53.916,4.602,50.633,8.896z"/>
	<polygon fill-rule="evenodd" clip-rule="evenodd" fill="#E1E5F6" points="14.206,45.678 0.378,54.947 16.697,48.174 	"/>
	<polygon fill-rule="evenodd" clip-rule="evenodd" fill="#314A67" points="6.633,50.755 0.378,54.947 7.761,51.884 	"/>
</g>
</svg>
