<svg xmlns="http://www.w3.org/2000/svg" width="32" height="30" viewBox="0 0 32 30"><path d="M28 0H4C1.79 0 0 1.79 0 4v22c0 2.21 1.79 4 4 4h24c2.21 0 4-1.79 4-4V4c0-2.21-1.79-4-4-4zM6 28c-1.104 0-2-.896-2-2s.896-2 2-2 2 .896 2 2-.896 2-2 2zm5-1c-.553 0-1-.447-1-1s.447-1 1-1 1 .447 1 1-.447 1-1 1zm12 0h-8c-.553 0-1-.447-1-1s.447-1 1-1h8c.553 0 1 .447 1 1s-.447 1-1 1zm4 0c-.553 0-1-.447-1-1s.447-1 1-1 1 .447 1 1-.447 1-1 1zm0-6c-1 1-4.925 1-11 1S6 22 5 21s-1-3.582-1-8 0-7 1-8 4.925-1 11-1 10 0 11 1 1 3.582 1 8 0 7-1 8z"/><path d="M26 14h-1c-.38 0-.725.214-.895.553l-.105.21-1.105-2.21c-.34-.678-1.45-.678-1.79 0L20.383 14H18c-.266 0-.52.105-.707.293l-.02.02-1.38-2.76c-.185-.368-.565-.59-.986-.55-.41.04-.756.326-.87.723l-1.015 3.556-2.058-7.544c-.117-.434-.51-.735-.958-.738H10c-.446 0-.84.296-.962.726L7.246 14H6c-.553 0-1 .447-1 1s.447 1 1 1h2c.446 0 .84-.296.962-.726l1.016-3.556 2.058 7.544c.118.434.51.734.96.737H13c.447 0 .84-.297.963-.727l1.293-4.527.85 1.7c.145.287.418.488.735.54.32.05.642-.054.868-.28l.706-.706H21c.38 0 .725-.214.895-.553l.105-.21 1.105 2.21c.34.678 1.45.678 1.79 0L25.617 16H26c.553 0 1-.447 1-1s-.447-1-1-1z"/></svg>