<svg xmlns="http://www.w3.org/2000/svg" width="32" height="30" viewBox="0 0 32 30"><path d="M8.096 4H1.904C.854 4 0 4.853 0 5.904v22.19C0 29.148.853 30 1.904 30h6.19C9.148 30 10 29.147 10 28.096V5.904C10 4.854 9.147 4 8.096 4zM2 6.68c0-.376.305-.68.68-.68h4.64c.375 0 .68.304.68.68V9.32c0 .374-.305.678-.68.678H2.68C2.305 10 2 9.696 2 9.32V6.68zm4.307 20.525c-.435.186-.893.28-1.36.28-1.39 0-2.64-.825-3.186-2.1-.75-1.756.066-3.795 1.82-4.546.436-.188.893-.282 1.362-.282 1.388 0 2.638.825 3.185 2.1.75 1.756-.065 3.795-1.82 4.547z"/><path d="M4.942 22.506c-.204 0-.405.04-.595.123-.77.328-1.126 1.22-.797 1.99.318.745 1.232 1.12 1.99.796.767-.33 1.125-1.223.796-1.99-.238-.56-.785-.92-1.394-.92zM19.096 5h-6.19C11.852 5 11 5.853 11 6.904v21.19c0 1.053.853 1.906 1.904 1.906h6.19C20.148 30 21 29.147 21 28.096V6.904C21 5.854 20.147 5 19.096 5zM13 7.68c0-.376.305-.68.68-.68h4.64c.375 0 .68.304.68.68v8.642c0 .374-.305.678-.68.678h-4.64c-.375 0-.68-.304-.68-.68V7.68zm4.307 19.525c-.435.186-.893.28-1.36.28-1.39 0-2.64-.825-3.186-2.1-.75-1.756.066-3.795 1.82-4.546.436-.188.893-.282 1.362-.282 1.388 0 2.638.825 3.185 2.1.75 1.756-.065 3.795-1.82 4.547z"/><path d="M15.942 22.506c-.204 0-.405.04-.595.123-.77.328-1.126 1.22-.797 1.99.318.745 1.232 1.12 1.99.796.767-.33 1.125-1.223.796-1.99-.238-.56-.785-.92-1.394-.92zM30.096 0h-6.19C22.852 0 22 .853 22 1.904v26.19c0 1.053.853 1.906 1.904 1.906h6.19C31.148 30 32 29.147 32 28.096V1.904C32 .854 31.147 0 30.096 0zM24 2.68c0-.376.305-.68.68-.68h4.64c.375 0 .68.304.68.68V5.32c0 .374-.305.678-.68.678h-4.64c-.375 0-.68-.304-.68-.68V2.68zm0 6c0-.376.305-.68.68-.68h4.64c.375 0 .68.304.68.68v2.642c0 .374-.305.678-.68.678h-4.64c-.375 0-.68-.304-.68-.68V8.68zm4.307 18.525c-.435.186-.893.28-1.36.28-1.39 0-2.64-.825-3.186-2.1-.75-1.756.066-3.795 1.82-4.546.436-.188.893-.282 1.362-.282 1.388 0 2.638.825 3.185 2.1.75 1.756-.065 3.795-1.82 4.547z"/><path d="M26.942 22.506c-.204 0-.405.04-.595.123-.77.328-1.126 1.22-.797 1.99.318.745 1.232 1.12 1.99.796.767-.33 1.125-1.223.796-1.99-.238-.56-.785-.92-1.394-.92z"/></svg>