<svg xmlns="http://www.w3.org/2000/svg" width="29.663" height="23.889" viewBox="0 0 29.663 23.889"><path d="M29.228 15.225l-4.07-2.152-7.944 4.2c-.733.388-1.557.593-2.38.593-.824 0-1.646-.205-2.378-.592l-7.948-4.2-4.07 2.15c-.27.143-.438.426-.438.737s.168.595.436.735l12.906 6.822c.936.494 2.047.494 2.982 0l12.903-6.822c.268-.14.436-.424.436-.734s-.168-.593-.435-.735z"/><path d="M.436 8.665l12.906 6.822c.468.248.98.37 1.49.37.513 0 1.024-.124 1.492-.372l12.903-6.82c.268-.142.436-.426.436-.735 0-.31-.167-.595-.436-.735L16.325.372c-.47-.25-.98-.372-1.492-.372-.513 0-1.023.123-1.492.372L.437 7.194C.168 7.334 0 7.62 0 7.93s.168.593.436.735zM14.83 5.167c3.257 0 5.896 1.236 5.896 2.76s-2.64 2.762-5.895 2.762-5.893-1.237-5.893-2.762 2.638-2.76 5.894-2.76z"/></svg>