<?xml version="1.0" encoding="utf-8"?>
<!-- Generator: Adobe Illustrator 16.0.0, SVG Export Plug-In . SVG Version: 6.00 Build 0)  -->
<!DOCTYPE svg PUBLIC "-//W3C//DTD SVG 1.1//EN" "http://www.w3.org/Graphics/SVG/1.1/DTD/svg11.dtd">
<svg version="1.1" id="Layer_1" xmlns="http://www.w3.org/2000/svg" xmlns:xlink="http://www.w3.org/1999/xlink" x="0px" y="0px"
	 width="93px" height="66px" viewBox="0 0 93 66" enable-background="new 0 0 93 66" xml:space="preserve">
<g>
	<path fill="#536B8B" d="M66.195,63.372c-0.313,0-0.593-0.254-0.593-0.567s0.229-0.567,0.542-0.567c0.735,0,1.411-0.104,2.059-0.313
		c0.299-0.096,0.617,0.068,0.713,0.367c0.096,0.298-0.068,0.617-0.367,0.713C67.79,63.248,66.998,63.372,66.195,63.372z
		 M63.877,63.372h-2.268c-0.313,0-0.567-0.254-0.567-0.567s0.254-0.567,0.567-0.567h2.268c0.313,0,0.567,0.254,0.567,0.567
		S64.19,63.372,63.877,63.372z M59.342,63.372h-2.269c-0.313,0-0.567-0.254-0.567-0.567s0.254-0.567,0.567-0.567h2.269
		c0.313,0,0.567,0.254,0.567,0.567S59.655,63.372,59.342,63.372z M54.806,63.372h-2.268c-0.313,0-0.567-0.254-0.567-0.567
		s0.254-0.567,0.567-0.567h2.268c0.313,0,0.567,0.254,0.567,0.567S55.119,63.372,54.806,63.372z M50.271,63.372h-2.268
		c-0.313,0-0.567-0.254-0.567-0.567s0.254-0.567,0.567-0.567h2.268c0.313,0,0.567,0.254,0.567,0.567S50.584,63.372,50.271,63.372z
		 M45.735,63.372h-2.268c-0.313,0-0.567-0.254-0.567-0.567s0.254-0.567,0.567-0.567h2.268c0.313,0,0.567,0.254,0.567,0.567
		S46.048,63.372,45.735,63.372z M41.2,63.372h-2.268c-0.313,0-0.567-0.254-0.567-0.567s0.254-0.567,0.567-0.567H41.2
		c0.313,0,0.567,0.254,0.567,0.567S41.513,63.372,41.2,63.372z M36.665,63.372h-2.268c-0.313,0-0.567-0.254-0.567-0.567
		s0.254-0.567,0.567-0.567h2.268c0.313,0,0.567,0.254,0.567,0.567S36.978,63.372,36.665,63.372z M32.129,63.372h-2.268
		c-0.313,0-0.567-0.254-0.567-0.567s0.254-0.567,0.567-0.567h2.268c0.313,0,0.567,0.254,0.567,0.567S32.442,63.372,32.129,63.372z
		 M27.594,63.372h-0.114c-0.779,0-1.548-0.117-2.289-0.346c-0.299-0.093-0.466-0.411-0.374-0.71
		c0.092-0.299,0.407-0.463,0.709-0.374c0.631,0.196,1.288,0.295,1.953,0.295h0.114c0.313,0,0.567,0.254,0.567,0.567
		S27.907,63.372,27.594,63.372z M23.334,62.052c-0.113,0-0.228-0.034-0.327-0.104c-0.667-0.473-1.254-1.044-1.744-1.698
		c-0.188-0.251-0.136-0.606,0.114-0.794c0.251-0.188,0.606-0.136,0.794,0.114c0.418,0.56,0.92,1.049,1.491,1.452
		c0.255,0.181,0.316,0.535,0.135,0.79C23.687,61.968,23.512,62.052,23.334,62.052z M70.392,62.015c-0.176,0-0.349-0.082-0.459-0.235
		c-0.184-0.254-0.127-0.608,0.127-0.791c0.567-0.411,1.064-0.904,1.479-1.467c0.187-0.254,0.54-0.305,0.793-0.121
		c0.252,0.186,0.307,0.541,0.121,0.793c-0.484,0.657-1.065,1.234-1.729,1.713C70.623,61.979,70.507,62.015,70.392,62.015z
		 M20.665,58.479c-0.237,0-0.457-0.149-0.537-0.386c-0.262-0.774-0.397-1.583-0.402-2.404c-0.002-0.313,0.25-0.569,0.563-0.571
		c0.336,0.008,0.568,0.251,0.57,0.563c0.004,0.7,0.12,1.39,0.342,2.049c0.1,0.297-0.059,0.618-0.355,0.719
		C20.786,58.469,20.725,58.479,20.665,58.479z M73.029,58.417c-0.059,0-0.118-0.01-0.177-0.028c-0.298-0.098-0.46-0.418-0.362-0.716
		c0.216-0.655,0.324-1.34,0.324-2.032c0-0.313,0.254-0.577,0.567-0.577s0.567,0.243,0.567,0.557v0.021
		c0,0.813-0.129,1.616-0.381,2.386C73.489,58.266,73.268,58.417,73.029,58.417z M20.292,53.984c-0.313,0-0.567-0.254-0.567-0.567
		v-2.268c0-0.313,0.254-0.567,0.567-0.567s0.567,0.254,0.567,0.567v2.268C20.859,53.73,20.605,53.984,20.292,53.984z M73.382,53.92
		c-0.313,0-0.567-0.254-0.567-0.567v-2.268c0-0.313,0.254-0.567,0.567-0.567s0.567,0.254,0.567,0.567v2.268
		C73.949,53.666,73.695,53.92,73.382,53.92z M20.292,49.449c-0.313,0-0.567-0.254-0.567-0.567v-2.269
		c0-0.313,0.254-0.567,0.567-0.567s0.567,0.254,0.567,0.567v2.269C20.859,49.195,20.605,49.449,20.292,49.449z M73.382,49.385
		c-0.313,0-0.567-0.254-0.567-0.567V46.55c0-0.313,0.254-0.567,0.567-0.567s0.567,0.254,0.567,0.567v2.268
		C73.949,49.131,73.695,49.385,73.382,49.385z M20.292,44.913c-0.313,0-0.567-0.254-0.567-0.567v-2.268
		c0-0.313,0.254-0.567,0.567-0.567s0.567,0.254,0.567,0.567v2.268C20.859,44.659,20.605,44.913,20.292,44.913z M73.382,44.849
		c-0.313,0-0.567-0.254-0.567-0.567v-2.268c0-0.313,0.254-0.567,0.567-0.567s0.567,0.254,0.567,0.567v2.268
		C73.949,44.595,73.695,44.849,73.382,44.849z M20.292,40.378c-0.313,0-0.567-0.254-0.567-0.567v-2.268
		c0-0.313,0.254-0.567,0.567-0.567s0.567,0.254,0.567,0.567v2.268C20.859,40.124,20.605,40.378,20.292,40.378z M73.382,40.313
		c-0.313,0-0.567-0.254-0.567-0.567v-2.268c0-0.313,0.254-0.567,0.567-0.567s0.567,0.254,0.567,0.567v2.268
		C73.949,40.06,73.695,40.313,73.382,40.313z M20.292,35.843c-0.313,0-0.567-0.254-0.567-0.567v-2.268
		c0-0.313,0.254-0.567,0.567-0.567s0.567,0.254,0.567,0.567v2.268C20.859,35.589,20.605,35.843,20.292,35.843z M73.382,35.778
		c-0.313,0-0.567-0.254-0.567-0.567v-2.268c0-0.313,0.254-0.567,0.567-0.567s0.567,0.254,0.567,0.567v2.268
		C73.949,35.524,73.695,35.778,73.382,35.778z M20.292,31.307c-0.313,0-0.567-0.254-0.567-0.567v-2.268
		c0-0.313,0.254-0.567,0.567-0.567s0.567,0.254,0.567,0.567v2.268C20.859,31.053,20.605,31.307,20.292,31.307z M73.382,31.242
		c-0.313,0-0.567-0.254-0.567-0.567v-2.268c0-0.313,0.254-0.567,0.567-0.567s0.567,0.254,0.567,0.567v2.268
		C73.949,30.988,73.695,31.242,73.382,31.242z M20.292,26.771c-0.313,0-0.567-0.254-0.567-0.567v-2.268
		c0-0.313,0.254-0.567,0.567-0.567s0.567,0.254,0.567,0.567v2.268C20.859,26.518,20.605,26.771,20.292,26.771z M73.382,26.707
		c-0.313,0-0.567-0.254-0.567-0.567v-2.268c0-0.313,0.254-0.567,0.567-0.567s0.567,0.254,0.567,0.567v2.268
		C73.949,26.453,73.695,26.707,73.382,26.707z M20.292,22.236c-0.313,0-0.567-0.254-0.567-0.567v-2.268
		c0-0.313,0.254-0.567,0.567-0.567s0.567,0.254,0.567,0.567v2.268C20.859,21.982,20.605,22.236,20.292,22.236z M73.382,22.171
		c-0.313,0-0.567-0.254-0.567-0.567v-2.268c0-0.313,0.254-0.567,0.567-0.567s0.567,0.254,0.567,0.567v2.268
		C73.949,21.917,73.695,22.171,73.382,22.171z M20.292,17.701c-0.313,0-0.567-0.254-0.567-0.567v-2.268
		c0-0.313,0.254-0.567,0.567-0.567s0.567,0.254,0.567,0.567v2.268C20.859,17.447,20.605,17.701,20.292,17.701z M73.382,17.636
		c-0.313,0-0.567-0.254-0.567-0.567v-2.268c0-0.313,0.254-0.567,0.567-0.567s0.567,0.254,0.567,0.567v2.268
		C73.949,17.382,73.695,17.636,73.382,17.636z M20.292,13.165c-0.313,0-0.567-0.254-0.567-0.567V10.36
		c0-0.313,0.254-0.582,0.567-0.582s0.567,0.239,0.567,0.552v2.268C20.859,12.911,20.605,13.165,20.292,13.165z M73.382,13.101
		c-0.313,0-0.567-0.254-0.567-0.567V10.36c0-0.313,0.254-0.614,0.566-0.614c0.313,0,0.567,0.207,0.567,0.52h-0.567l0.567,0.076
		l0.001,2.191C73.949,12.847,73.695,13.101,73.382,13.101z M20.66,8.67c-0.06,0-0.121-0.009-0.181-0.029
		c-0.297-0.1-0.457-0.421-0.357-0.718c0.26-0.773,0.641-1.5,1.131-2.158c0.187-0.251,0.542-0.303,0.793-0.116
		c0.251,0.187,0.303,0.542,0.116,0.793c-0.419,0.562-0.744,1.182-0.965,1.842C21.118,8.521,20.897,8.67,20.66,8.67z M72.994,8.609
		c-0.235,0-0.454-0.147-0.536-0.381C72.23,7.57,71.9,6.953,71.477,6.395c-0.189-0.25-0.141-0.605,0.108-0.794
		c0.248-0.188,0.604-0.142,0.794,0.109c0.497,0.654,0.884,1.376,1.151,2.147c0.103,0.296-0.055,0.619-0.351,0.721
		C73.118,8.6,73.056,8.609,72.994,8.609z M23.324,5.092c-0.177,0-0.352-0.083-0.462-0.238c-0.182-0.255-0.122-0.609,0.133-0.791
		c0.669-0.476,1.403-0.84,2.182-1.083c0.302-0.092,0.617,0.074,0.71,0.372c0.093,0.299-0.073,0.617-0.372,0.71
		c-0.665,0.208-1.292,0.519-1.863,0.925C23.552,5.058,23.438,5.092,23.324,5.092z M70.298,5.055c-0.111,0-0.225-0.033-0.323-0.102
		c-0.574-0.4-1.203-0.706-1.871-0.908c-0.3-0.09-0.47-0.407-0.379-0.707s0.406-0.468,0.707-0.378
		c0.782,0.237,1.52,0.594,2.191,1.063c0.257,0.179,0.32,0.533,0.141,0.79C70.653,4.971,70.478,5.055,70.298,5.055z M66.03,3.764
		h-2.268c-0.313,0-0.567-0.254-0.567-0.567s0.254-0.567,0.567-0.567h2.268c0.313,0,0.567,0.254,0.567,0.567
		S66.344,3.764,66.03,3.764z M61.495,3.764h-2.268c-0.313,0-0.567-0.254-0.567-0.567s0.254-0.567,0.567-0.567h2.268
		c0.313,0,0.567,0.254,0.567,0.567S61.809,3.764,61.495,3.764z M56.96,3.764h-2.269c-0.313,0-0.567-0.254-0.567-0.567
		s0.254-0.567,0.567-0.567h2.269c0.313,0,0.567,0.254,0.567,0.567S57.273,3.764,56.96,3.764z M52.424,3.764h-2.268
		c-0.313,0-0.567-0.254-0.567-0.567s0.254-0.567,0.567-0.567h2.268c0.313,0,0.567,0.254,0.567,0.567S52.737,3.764,52.424,3.764z
		 M47.889,3.764h-2.268c-0.313,0-0.567-0.254-0.567-0.567s0.254-0.567,0.567-0.567h2.268c0.313,0,0.567,0.254,0.567,0.567
		S48.202,3.764,47.889,3.764z M43.354,3.764h-2.268c-0.313,0-0.567-0.254-0.567-0.567s0.254-0.567,0.567-0.567h2.268
		c0.313,0,0.567,0.254,0.567,0.567S43.667,3.764,43.354,3.764z M38.818,3.764H36.55c-0.313,0-0.567-0.254-0.567-0.567
		S36.237,2.63,36.55,2.63h2.268c0.313,0,0.567,0.254,0.567,0.567S39.131,3.764,38.818,3.764z M34.283,3.764h-2.268
		c-0.313,0-0.567-0.254-0.567-0.567s0.254-0.567,0.567-0.567h2.268c0.313,0,0.567,0.254,0.567,0.567S34.596,3.764,34.283,3.764z
		 M29.747,3.764h-2.268c-0.313,0-0.567-0.254-0.567-0.567s0.254-0.567,0.567-0.567h2.268c0.313,0,0.567,0.254,0.567,0.567
		S30.06,3.764,29.747,3.764z"/>
</g>
<rect y="14.478" fill-rule="evenodd" clip-rule="evenodd" fill="#A5AFC1" stroke="#536B8B" stroke-width="1.1339" stroke-linecap="round" stroke-linejoin="round" stroke-miterlimit="22.9256" width="40.407" height="26.313"/>
<rect x="16.18" y="40.791" fill-rule="evenodd" clip-rule="evenodd" fill="#A5AFC1" stroke="#536B8B" stroke-width="1.1339" stroke-linecap="round" stroke-linejoin="round" stroke-miterlimit="22.9256" width="8.046" height="10.413"/>
<rect x="16.771" y="41.385" fill-rule="evenodd" clip-rule="evenodd" fill="#7084A3" width="6.866" height="2.154"/>
<rect x="3.259" y="17.651" fill-rule="evenodd" clip-rule="evenodd" fill="#007CC3" stroke="#536B8B" stroke-width="1.1339" stroke-linecap="round" stroke-linejoin="round" stroke-miterlimit="22.9256" width="33.889" height="17.812"/>
<polygon fill="#FDD26A" points="8.458,21.103 7.87,21.103 7.87,19.932 8.458,19.932 20.648,19.932 21.235,19.932 21.235,21.103 
	20.648,21.103 "/>
<polygon fill="#EF6E65" points="22.129,25.069 21.542,25.069 21.542,23.897 22.129,23.897 26.574,23.897 27.162,23.897 
	27.162,25.069 26.574,25.069 "/>
<polygon fill="#E6E7E8" points="8.458,25.069 7.87,25.069 7.87,23.897 8.458,23.897 19.705,23.897 20.292,23.897 20.292,25.069 
	19.705,25.069 "/>
<polygon fill="#E6E7E8" points="8.458,33 7.87,33 7.87,31.828 8.458,31.828 19.705,31.828 20.292,31.828 20.292,33 19.705,33 "/>
<polygon fill="#EF6E65" points="8.458,29.035 7.87,29.035 7.87,27.862 8.458,27.862 16.27,27.862 16.858,27.862 16.858,29.035 
	16.27,29.035 "/>
<line fill="none" stroke="#536B8B" stroke-width="1.1339" stroke-linecap="round" stroke-linejoin="round" stroke-miterlimit="22.9256" x1="9.688" y1="51.205" x2="30.419" y2="51.205"/>
<polygon fill-rule="evenodd" clip-rule="evenodd" fill="#536B8B" points="52.181,3.197 48.495,4.794 44.812,6.393 44.812,3.197 
	44.812,0 48.495,1.599 "/>
<polygon fill-rule="evenodd" clip-rule="evenodd" fill="#536B8B" points="44.812,62.805 48.496,61.205 52.181,59.607 52.181,62.805 
	52.181,66 48.496,64.402 "/>
<path fill-rule="evenodd" clip-rule="evenodd" fill="#DBF1FA" stroke="#536B8B" stroke-width="1.1339" stroke-linecap="round" stroke-linejoin="round" stroke-miterlimit="22.9256" d="
	M73.382,52.21C84.188,52.21,93,43.426,93,32.656c0-10.771-8.813-19.556-19.618-19.556c-10.807,0-19.619,8.784-19.619,19.556
	C53.763,43.426,62.575,52.21,73.382,52.21z"/>
<path fill-rule="evenodd" clip-rule="evenodd" fill="#00A9D4" stroke="#536B8B" stroke-width="1.1339" stroke-linecap="round" stroke-linejoin="round" stroke-miterlimit="22.9256" d="
	M85.159,48.294c-3.28,2.459-7.358,3.916-11.777,3.916s-8.498-1.458-11.778-3.916v-5.236c0-2.106,1.729-3.829,3.842-3.829h0.001
	c0.1,0,0.199,0.004,0.297,0.012c0.188-0.03,0.385-0.046,0.588-0.046h7.051h7.05c0.204,0,0.4,0.016,0.589,0.046
	c0.098-0.008,0.197-0.012,0.297-0.012l0,0c2.114,0,3.842,1.723,3.842,3.829V48.294z"/>
<path fill-rule="evenodd" clip-rule="evenodd" fill="#76E1F7" d="M67.762,39.194h11.24c-0.382,2.747-2.763,4.882-5.62,4.882l0,0
	C70.524,44.076,68.142,41.941,67.762,39.194z"/>
<path fill-rule="evenodd" clip-rule="evenodd" fill="#FDD26A" stroke="#536B8B" stroke-width="1.1339" stroke-linecap="round" stroke-linejoin="round" stroke-miterlimit="22.9256" d="
	M67.762,39.194h11.24c-0.382,2.747-2.763,4.882-5.62,4.882l0,0C70.524,44.076,68.142,41.941,67.762,39.194z"/>
<path fill-rule="evenodd" clip-rule="evenodd" fill="#F9BB52" stroke="#536B8B" stroke-width="1.1339" stroke-linecap="round" stroke-linejoin="round" stroke-miterlimit="22.9256" d="
	M73.374,28.889L73.374,28.889h0.008l0,0h0.008l0,0c1.618,0,2.941,1.32,2.941,2.933v7.334c0,1.613-1.324,2.933-2.941,2.933l0,0
	h-0.008h-0.008l0,0c-1.619,0-2.942-1.319-2.942-2.933v-7.334C70.432,30.208,71.755,28.889,73.374,28.889z"/>
<path fill-rule="evenodd" clip-rule="evenodd" fill="#F9BB52" stroke="#536B8B" stroke-width="1.1339" stroke-linecap="round" stroke-linejoin="round" stroke-miterlimit="22.9256" d="
	M73.382,37.89c-3.602-0.313-7.202-3.634-7.202-7.873v-7.839h7.202h7.202v7.839C80.584,34.256,76.981,37.576,73.382,37.89z"/>
<path fill-rule="evenodd" clip-rule="evenodd" fill="#FDD26A" d="M72.949,37.345c-3.591-1.089-6.167-3.763-6.167-7.328v-7.839h6.957
	h5.028v7.503C78.768,33.803,76.329,36.881,72.949,37.345z"/>
<path fill-rule="evenodd" clip-rule="evenodd" fill="none" stroke="#536B8B" stroke-width="1.1339" stroke-linecap="round" stroke-linejoin="round" stroke-miterlimit="22.9256" d="
	M75.195,32.778c-0.269,0.738-0.979,1.267-1.813,1.267c-0.835,0-1.546-0.528-1.813-1.267"/>
<g>
	<circle fill-rule="evenodd" clip-rule="evenodd" fill="#536B8B" cx="76.454" cy="27.805" r="0.936"/>
	<circle fill-rule="evenodd" clip-rule="evenodd" fill="#536B8B" cx="70.31" cy="27.805" r="0.936"/>
</g>
<path fill-rule="evenodd" clip-rule="evenodd" fill="#D64D4A" stroke="#536B8B" stroke-width="1.1339" stroke-linecap="round" stroke-linejoin="round" stroke-miterlimit="22.9256" d="
	M66.18,25.34c0.544-1.295,3.805-2.251,5.119-2.251c5.892,0,10.808,3.583,11.736-5.161c-2.593,1.221-5.72-0.426-9.575-0.565
	C62.913,16.233,65.238,24.633,66.18,25.34z"/>
<line fill-rule="evenodd" clip-rule="evenodd" fill="none" stroke="#536B8B" stroke-width="1.1339" stroke-linecap="round" stroke-linejoin="round" stroke-miterlimit="22.9256" x1="65.358" y1="50.445" x2="65.358" y2="44.308"/>
<line fill-rule="evenodd" clip-rule="evenodd" fill="none" stroke="#536B8B" stroke-width="1.1339" stroke-linecap="round" stroke-linejoin="round" stroke-miterlimit="22.9256" x1="81.405" y1="50.445" x2="81.405" y2="44.308"/>
<path fill-rule="evenodd" clip-rule="evenodd" fill="#EF6E65" d="M66.306,24.465c0.453-1.082,3.751-1.867,4.848-1.867
	c4.918,0,8.308,2.707,9.187-3.659c-2.833-0.195-3.422-0.903-6.643-1.021C64.065,16.872,65.521,23.875,66.306,24.465z"/>
<path fill-rule="evenodd" clip-rule="evenodd" fill="#027E93" d="M80.86,50.22c-0.609,0.25-1.232,0.471-1.87,0.66l1.87-6.728V50.22z
	"/>
</svg>
