<svg xmlns="http://www.w3.org/2000/svg" width="26.872" height="27.009" viewBox="0 0 26.872 27.009"><path d="M26.122 3.334l-2.61-2.61c-.966-.966-2.652-.966-3.618 0l-.886.888 6.228 6.228.886-.886c.484-.482.75-1.126.75-1.81 0-.684-.267-1.327-.75-1.81zM4.004 24.358l-1.398-1.4.807-2.453-1.39-1.392-1.946 5.92c-.18.543-.038 1.134.377 1.547.283.276.656.43 1.05.43.174 0 .345-.03.503-.088l5.786-2.037-1.375-1.376-2.414.848zM20.258 5.345l-12.2 12.198c-.17.172-.395.257-.62.257-.224 0-.45-.085-.62-.257-.343-.343-.343-.897 0-1.24l12.2-12.2-1.252-1.25-14.762 14.76.62.62 4.988 4.988.62.62L23.994 9.08l-3.736-3.735z"/></svg>