<?xml version="1.0" encoding="utf-8"?>
<!-- Generator: Adobe Illustrator 16.0.0, SVG Export Plug-In . SVG Version: 6.00 Build 0)  -->
<!DOCTYPE svg PUBLIC "-//W3C//DTD SVG 1.1//EN" "http://www.w3.org/Graphics/SVG/1.1/DTD/svg11.dtd">
<svg version="1.1" id="Layer_1" xmlns="http://www.w3.org/2000/svg" xmlns:xlink="http://www.w3.org/1999/xlink" x="0px" y="0px"
	 width="75px" height="67px" viewBox="0 0 75 67" enable-background="new 0 0 75 67" xml:space="preserve">
<polygon fill-rule="evenodd" clip-rule="evenodd" fill="#DBF9FF" stroke="#536B8B" stroke-width="1.1339" stroke-linecap="round" stroke-linejoin="round" stroke-miterlimit="22.9256" points="
	31.054,40.221 26.979,36.169 25.055,38.082 29.129,42.132 33.203,46.184 35.126,44.271 "/>
<g>
	
		<path fill-rule="evenodd" clip-rule="evenodd" fill="#EF6E65" stroke="#536B8B" stroke-width="1.1339" stroke-linecap="round" stroke-linejoin="round" stroke-miterlimit="22.9256" d="
		M47.813,37.73c0.117,0.32,0.294,0.703,0.533,1.2l1.429,2.992c1.721,3.321,1.357,4.901-1.886,8.128l-7.228,7.185l-3.18-11.361
		c-0.292-1.04-0.405-1.604-0.133-2.351L47.813,37.73z"/>
	
		<path fill-rule="evenodd" clip-rule="evenodd" fill="#EF6E65" stroke="#536B8B" stroke-width="1.1339" stroke-linecap="round" stroke-linejoin="round" stroke-miterlimit="22.9256" d="
		M33.55,23.549c-0.323-0.118-0.706-0.294-1.208-0.531l-3.007-1.421c-3.341-1.71-4.931-1.349-8.174,1.875l-7.227,7.187l11.426,3.162
		c1.046,0.29,1.612,0.403,2.364,0.131L33.55,23.549z"/>
</g>
<path fill-rule="evenodd" clip-rule="evenodd" fill="#EF6E65" stroke="#536B8B" stroke-width="1.1339" stroke-linecap="round" stroke-linejoin="round" stroke-miterlimit="22.9256" d="
	M13.524,57.65c-0.715-5.695,0.408-9.652,2.874-12.744c-0.81,0.062-1.608,0.168-2.479,0.361c3.837-6.707,9.093-7.099,11.3-7.023
	l0.26-0.158l3.86,3.84l3.86,3.837l-0.16,0.26c0.077,2.191-0.318,7.418-7.063,11.234c0.195-0.865,0.302-1.66,0.364-2.465
	C23.23,57.243,19.251,58.36,13.524,57.65z"/>
<path fill-rule="evenodd" clip-rule="evenodd" fill="#DBF9FF" stroke="#536B8B" stroke-width="1.1339" stroke-linecap="round" stroke-linejoin="round" stroke-miterlimit="22.9256" d="
	M25.956,35.152l11-17.895C44.206,5.462,53.15-1.264,70.595,0.903L31.054,40.221L25.956,35.152z"/>
<path fill-rule="evenodd" clip-rule="evenodd" fill="#BCE1E8" stroke="#536B8B" stroke-width="1.1339" stroke-linecap="round" stroke-linejoin="round" stroke-miterlimit="22.9256" d="
	M25.956,35.152l11-17.895C44.206,5.462,53.15-1.264,70.595,0.903c2.179,17.346-4.586,26.24-16.448,33.449L36.149,45.287
	l-5.096-5.066L25.956,35.152z"/>
<path fill-rule="evenodd" clip-rule="evenodd" fill="#E4F9FF" d="M26.756,35.097l10.575-17.328
	C44.191,6.609,52.569-0.01,68.225,1.142c1.331,15.87-5.349,24.298-16.684,31.187L34.236,42.535l-2.383-2.37L26.756,35.097z"/>
<line fill-rule="evenodd" clip-rule="evenodd" fill="none" stroke="#536B8B" stroke-width="1.1339" stroke-linecap="round" stroke-linejoin="round" stroke-miterlimit="22.9256" x1="45.835" y1="29.05" x2="52.296" y2="35.476"/>
<path fill-rule="evenodd" clip-rule="evenodd" fill="#FFFFFF" stroke="#536B8B" stroke-width="1.1339" stroke-linecap="round" stroke-linejoin="round" stroke-miterlimit="22.9256" d="
	M57.422,14.001c2.786,2.77,2.786,7.261,0,10.031c-2.785,2.769-7.303,2.769-10.088,0c-2.786-2.77-2.786-7.262,0-10.031
	C50.119,11.231,54.637,11.231,57.422,14.001z"/>
<path fill-rule="evenodd" clip-rule="evenodd" fill="#536B8B" stroke="#536B8B" stroke-width="1.1339" stroke-linecap="round" stroke-linejoin="round" stroke-miterlimit="22.9256" d="
	M55.799,15.615c1.889,1.878,1.889,4.925,0,6.803c-1.89,1.878-4.952,1.878-6.842,0c-1.889-1.878-1.889-4.925,0-6.803
	C50.847,13.737,53.909,13.737,55.799,15.615z"/>
<path fill-rule="evenodd" clip-rule="evenodd" fill="#D64D4A" stroke="#536B8B" stroke-width="1.1339" stroke-linecap="round" stroke-linejoin="round" stroke-miterlimit="22.9256" d="
	M54.854,1.809c4.37-1.318,9.515-1.679,15.741-0.906c0.778,6.191,0.416,11.305-0.91,15.651l-7.416-7.373L54.854,1.809z"/>
<path fill-rule="evenodd" clip-rule="evenodd" fill="#EF6E65" d="M55.996,2.11c3.292-0.987,7.088-1.245,11.535-0.919
	c0.375,4.44,0.022,8.101-0.94,11.385l-4.018-3.97L55.996,2.11z"/>
<path fill-rule="evenodd" clip-rule="evenodd" fill="#FDD26A" stroke="#536B8B" stroke-width="1.1339" stroke-linecap="round" stroke-linejoin="round" stroke-miterlimit="22.9256" d="
	M24.22,47.015c0.083-3.121,0.881-5.56,2.068-7.708l5.684,5.653C29.81,46.138,27.357,46.932,24.22,47.015z"/>
<g>
	
		<line fill-rule="evenodd" clip-rule="evenodd" fill="none" stroke="#536B8B" stroke-width="1.1339" stroke-linecap="round" stroke-linejoin="round" stroke-miterlimit="22.9256" x1="8.158" y1="35.654" x2="4" y2="39.788"/>
	
		<line fill-rule="evenodd" clip-rule="evenodd" fill="none" stroke="#536B8B" stroke-width="1.1339" stroke-linecap="round" stroke-linejoin="round" stroke-miterlimit="22.9256" x1="14.467" y1="35.036" x2="8.288" y2="41.18"/>
	
		<line fill-rule="evenodd" clip-rule="evenodd" fill="none" stroke="#536B8B" stroke-width="1.1339" stroke-linecap="round" stroke-linejoin="round" stroke-miterlimit="22.9256" x1="6.158" y1="43.298" x2="4.623" y2="44.824"/>
</g>
<line fill-rule="evenodd" clip-rule="evenodd" fill="none" stroke="#536B8B" stroke-width="1.1339" stroke-linecap="round" stroke-linejoin="round" stroke-miterlimit="22.9256" x1="35.644" y1="62.985" x2="33.565" y2="65.053"/>
<line fill-rule="evenodd" clip-rule="evenodd" fill="none" stroke="#536B8B" stroke-width="1.1339" stroke-linecap="round" stroke-linejoin="round" stroke-miterlimit="22.9256" x1="36.267" y1="56.713" x2="26.423" y2="66.5"/>
<path fill-rule="evenodd" clip-rule="evenodd" fill="none" stroke="#536B8B" stroke-width="1.1339" stroke-linecap="round" stroke-linejoin="round" stroke-miterlimit="22.9256" d="
	M30.804,32.415l8.885-14.455C44.656,9.878,50.609,4.743,60.903,4.438 M65.088,4.563c0.578,0.048,1.171,0.11,1.775,0.186"/>
<line fill-rule="evenodd" clip-rule="evenodd" fill="none" stroke="#536B8B" stroke-width="1.1339" stroke-linecap="round" stroke-linejoin="round" stroke-miterlimit="22.9256" x1="40.999" y1="24.241" x2="43.461" y2="26.689"/>
<line fill-rule="evenodd" clip-rule="evenodd" fill="none" stroke="#536B8B" stroke-width="1.1339" stroke-linecap="round" stroke-linejoin="round" stroke-miterlimit="22.9256" x1="34.431" y1="38.816" x2="38.818" y2="43.177"/>
</svg>
