<?xml version="1.0" encoding="utf-8"?>
<!-- Generator: Adobe Illustrator 16.0.0, SVG Export Plug-In . SVG Version: 6.00 Build 0)  -->
<!DOCTYPE svg PUBLIC "-//W3C//DTD SVG 1.1//EN" "http://www.w3.org/Graphics/SVG/1.1/DTD/svg11.dtd">
<svg version="1.1" id="Layer_1" xmlns="http://www.w3.org/2000/svg" xmlns:xlink="http://www.w3.org/1999/xlink" x="0px" y="0px"
	 width="75px" height="67px" viewBox="0 0 75 67" enable-background="new 0 0 75 67" xml:space="preserve">
<path fill-rule="evenodd" clip-rule="evenodd" fill="#EF6E65" stroke="#536B8B" stroke-width="1.1514" stroke-linecap="round" stroke-linejoin="round" stroke-miterlimit="22.9256" d="
	M31.027,11.479c0,0.765,0,0.383,0,1.147c0,1.13-1.03,2.056-2.286,2.056h-4.39c-1.256,0-2.286-0.926-2.286-2.056l-0.009-9.651
	C27.036,3.208,31.027,6.943,31.027,11.479z"/>
<path fill-rule="evenodd" clip-rule="evenodd" fill="#EF6E65" stroke="#536B8B" stroke-width="1.1514" stroke-linecap="round" stroke-linejoin="round" stroke-miterlimit="22.9256" d="
	M31.662,9.743h14.19c12.947,0,23.538,10.587,23.538,23.528l0,0c0,6.712-2.851,12.79-7.397,17.086l3.392,10.87
	c-0.412,3.734-2.486,4.717-6.246,4.717h-6.843l-2.978-9.399c-1.132,0.168-2.288,0.256-3.466,0.256h-14.19
	c-0.958,0-1.904-0.06-2.833-0.172l-2.95,9.315h-6.843c-3.759,0-5.834-0.982-6.246-4.717l3.246-10.4
	c-2.845-2.534-5.075-5.744-6.432-9.371H3.844c-1.147,0-1.936-0.958-2.105-2.104L0.017,27.83c-0.169-1.146,0.951-2.185,2.105-2.104
	l7.088,0.498C12.225,16.697,21.169,9.743,31.662,9.743z"/>
<path fill-rule="evenodd" clip-rule="evenodd" fill="#F59D82" d="M30.98,10.795h12.786c11.664,0,21.205,9.538,21.205,21.198l0,0
	c0,11.661-9.543,21.199-21.205,21.199H30.98c-11.663,0-21.206-9.538-21.206-21.199l0,0C9.774,20.333,19.315,10.795,30.98,10.795z"/>
<line fill-rule="evenodd" clip-rule="evenodd" fill="none" stroke="#536B8B" stroke-width="1.1514" stroke-linecap="round" stroke-linejoin="round" stroke-miterlimit="22.9256" x1="33.458" y1="12.08" x2="46.651" y2="12.08"/>
<path fill-rule="evenodd" clip-rule="evenodd" fill="#536B8B" d="M17.691,27.587c1.821,0,3.306-1.485,3.306-3.306
	c0-1.821-1.485-3.306-3.306-3.306c-1.821,0-3.307,1.484-3.307,3.306C14.385,26.102,15.87,27.587,17.691,27.587z"/>
<path fill-rule="evenodd" clip-rule="evenodd" fill="#EF6E65" stroke="#536B8B" stroke-width="1.1514" stroke-linecap="round" stroke-linejoin="round" stroke-miterlimit="22.9256" d="
	M28.519,13.174c0,0.765,0,0.382,0,1.147c0,1.131-1.03,2.056-2.286,2.056h-4.39c-1.256,0-2.287-0.925-2.287-2.056L19.548,4.67
	C24.527,4.903,28.519,8.639,28.519,13.174z"/>
<path fill-rule="evenodd" clip-rule="evenodd" fill="#FDD26A" stroke="#536B8B" stroke-width="1.1514" stroke-linecap="round" stroke-linejoin="round" stroke-miterlimit="22.9256" d="
	M40.03,11.921c3.284,0,5.962-2.678,5.962-5.96C45.992,2.678,43.314,0,40.03,0s-5.962,2.678-5.962,5.961
	C34.068,9.243,36.746,11.921,40.03,11.921z"/>
<g>
	
		<rect x="36.165" y="53.014" fill-rule="evenodd" clip-rule="evenodd" fill="#FDD26A" stroke="#536B8B" stroke-width="1.1514" stroke-linecap="round" stroke-linejoin="round" stroke-miterlimit="22.9256" width="14.225" height="3.023"/>
	<rect x="47.384" y="53.518" fill-rule="evenodd" clip-rule="evenodd" fill="#E8A541" width="2.498" height="2.009"/>
	<rect x="42.864" y="53.518" fill-rule="evenodd" clip-rule="evenodd" fill="#E8A541" width="1.662" height="2.009"/>
	<rect x="38.929" y="53.518" fill-rule="evenodd" clip-rule="evenodd" fill="#E8A541" width="1.279" height="2.009"/>
</g>
<g>
	
		<rect x="38.23" y="56.579" fill-rule="evenodd" clip-rule="evenodd" fill="#FDD26A" stroke="#536B8B" stroke-width="1.1514" stroke-linecap="round" stroke-linejoin="round" stroke-miterlimit="22.9256" width="14.225" height="3.021"/>
	<rect x="49.448" y="57.083" fill-rule="evenodd" clip-rule="evenodd" fill="#E8A541" width="2.499" height="2.009"/>
	<rect x="44.929" y="57.083" fill-rule="evenodd" clip-rule="evenodd" fill="#E8A541" width="1.662" height="2.009"/>
	<rect x="40.993" y="57.083" fill-rule="evenodd" clip-rule="evenodd" fill="#E8A541" width="1.279" height="2.009"/>
</g>
<g>
	
		<rect x="33.285" y="60.118" fill-rule="evenodd" clip-rule="evenodd" fill="#FDD26A" stroke="#536B8B" stroke-width="1.1514" stroke-linecap="round" stroke-linejoin="round" stroke-miterlimit="22.9256" width="14.225" height="3.023"/>
	<rect x="44.504" y="60.623" fill-rule="evenodd" clip-rule="evenodd" fill="#E8A541" width="2.498" height="2.009"/>
	<rect x="39.985" y="60.623" fill-rule="evenodd" clip-rule="evenodd" fill="#E8A541" width="1.66" height="2.009"/>
	<rect x="36.049" y="60.623" fill-rule="evenodd" clip-rule="evenodd" fill="#E8A541" width="1.279" height="2.009"/>
</g>
<g>
	
		<rect x="35.11" y="63.978" fill-rule="evenodd" clip-rule="evenodd" fill="#FDD26A" stroke="#536B8B" stroke-width="1.1514" stroke-linecap="round" stroke-linejoin="round" stroke-miterlimit="22.9256" width="14.224" height="3.022"/>
	<rect x="46.329" y="64.481" fill-rule="evenodd" clip-rule="evenodd" fill="#E8A541" width="2.497" height="2.009"/>
	<rect x="41.81" y="64.481" fill-rule="evenodd" clip-rule="evenodd" fill="#E8A541" width="1.661" height="2.009"/>
	<rect x="37.874" y="64.481" fill-rule="evenodd" clip-rule="evenodd" fill="#E8A541" width="1.278" height="2.009"/>
</g>
<path fill-rule="evenodd" clip-rule="evenodd" fill="#FFFFFF" d="M16.473,24.544c0.802,0,1.456-0.654,1.456-1.455
	c0-0.802-0.653-1.456-1.456-1.456c-0.802,0-1.456,0.654-1.456,1.456C15.018,23.89,15.671,24.544,16.473,24.544z"/>
<path fill-rule="evenodd" clip-rule="evenodd" fill="none" stroke="#536B8B" stroke-width="1.1514" stroke-linecap="round" stroke-linejoin="round" stroke-miterlimit="22.9256" d="
	M53.254,15.174c0.909,0.614,1.76,1.303,2.553,2.052 M58.387,20.204c2.28,3.226,3.628,7.159,3.628,11.392l0,0
	c0,6.132-2.823,11.639-7.232,15.279"/>
<line fill-rule="evenodd" clip-rule="evenodd" fill="none" stroke="#536B8B" stroke-width="1.1514" stroke-linecap="round" stroke-linejoin="round" stroke-miterlimit="22.9256" x1="40.029" y1="3.418" x2="40.029" y2="7.584"/>
<line fill-rule="evenodd" clip-rule="evenodd" fill="none" stroke="#536B8B" stroke-width="1.1514" stroke-linecap="round" stroke-linejoin="round" stroke-miterlimit="22.9256" x1="41.209" y1="7.98" x2="38.851" y2="7.98"/>
<g>
	
		<rect x="35.334" y="48.992" fill-rule="evenodd" clip-rule="evenodd" fill="#FDD26A" stroke="#536B8B" stroke-width="1.1514" stroke-linecap="round" stroke-linejoin="round" stroke-miterlimit="22.9256" width="14.224" height="3.022"/>
	<rect x="46.554" y="49.496" fill-rule="evenodd" clip-rule="evenodd" fill="#E8A541" width="2.497" height="2.01"/>
	<rect x="42.033" y="49.496" fill-rule="evenodd" clip-rule="evenodd" fill="#E8A541" width="1.662" height="2.01"/>
	<rect x="38.098" y="49.496" fill-rule="evenodd" clip-rule="evenodd" fill="#E8A541" width="1.279" height="2.01"/>
</g>
<path fill="#536B8B" d="M31.206,30.436v1.535h2.608c0.061,0.134,0.126,0.297,0.195,0.491c0.073,0.195,0.134,0.402,0.187,0.625
	c0.053,0.22,0.077,0.431,0.081,0.638c0.004,0.216-0.033,0.496-0.109,0.837c-0.073,0.337-0.216,0.715-0.427,1.129
	c-0.207,0.418-0.508,0.846-0.902,1.292c-0.394,0.442-0.906,0.877-1.536,1.3l1.194,1.681c0.456-0.284,0.927-0.52,1.418-0.698
	c0.487-0.179,0.967-0.272,1.434-0.276c0.451,0.004,0.902,0.061,1.353,0.17c0.447,0.11,0.89,0.236,1.324,0.378
	c0.431,0.143,0.854,0.269,1.26,0.378c0.407,0.106,0.793,0.167,1.158,0.171c0.39,0,0.752-0.045,1.098-0.13
	c0.341-0.085,0.674-0.215,1.004-0.391c0.324-0.174,0.656-0.39,0.994-0.649l-1-1.608c-0.126,0.126-0.292,0.244-0.494,0.357
	c-0.209,0.114-0.427,0.212-0.667,0.284c-0.236,0.074-0.467,0.11-0.69,0.114c-0.257-0.004-0.545-0.049-0.857-0.134
	c-0.316-0.086-0.654-0.183-1.008-0.293c-0.354-0.109-0.719-0.207-1.097-0.292s-0.756-0.13-1.134-0.134
	c-0.597,0.004-1.165,0.093-1.706,0.259c-0.537,0.167-1.033,0.383-1.487,0.643v-0.024c0.667-0.459,1.21-0.95,1.641-1.466
	c0.427-0.521,0.744-1.04,0.951-1.56c0.208-0.521,0.309-1.016,0.309-1.482c0-0.338-0.024-0.634-0.064-0.886
	c-0.041-0.256-0.094-0.495-0.155-0.723h3.364v-1.535h-4.071c-0.268-0.483-0.496-0.922-0.678-1.315
	c-0.187-0.395-0.325-0.76-0.423-1.097c-0.094-0.337-0.142-0.663-0.142-0.975c0-0.199,0.033-0.427,0.105-0.687
	c0.069-0.26,0.187-0.52,0.35-0.792c0.162-0.268,0.377-0.516,0.646-0.747c0.268-0.228,0.602-0.415,0.991-0.553
	c0.394-0.142,0.857-0.216,1.393-0.22c0.669,0.004,1.255,0.154,1.755,0.455c0.499,0.297,0.886,0.707,1.162,1.227
	c0.279,0.524,0.418,1.126,0.422,1.804v0.219H43.1V27.39c0-0.512-0.064-1.016-0.19-1.515c-0.13-0.495-0.325-0.967-0.593-1.41
	c-0.268-0.438-0.609-0.828-1.02-1.169c-0.415-0.342-0.906-0.605-1.479-0.801c-0.568-0.194-1.224-0.292-1.959-0.296
	c-0.938,0.004-1.747,0.114-2.433,0.321c-0.683,0.211-1.256,0.491-1.719,0.844c-0.463,0.354-0.829,0.748-1.105,1.183
	c-0.272,0.435-0.472,0.877-0.589,1.328c-0.118,0.454-0.179,0.885-0.175,1.295c0.004,0.415,0.065,0.813,0.175,1.198
	c0.11,0.386,0.248,0.752,0.406,1.097c0.163,0.346,0.317,0.67,0.467,0.971H31.206z"/>
<path fill-rule="evenodd" clip-rule="evenodd" fill="none" stroke="#536B8B" stroke-width="1.1514" stroke-linecap="round" stroke-linejoin="round" stroke-miterlimit="22.9256" d="
	M73.938,13.858C74.626,14.775,75,15.894,75,17.04c0,2.93-2.377,5.307-5.309,5.307c-1.729,0-3.349-0.843-4.343-2.259"/>
</svg>
