<svg xmlns="http://www.w3.org/2000/svg" width="22.235" height="31" viewBox="0 0 22.235 31"><path d="M6 17v-1h1v-1H5V6h1V0H2v6h1v9H1v1h1v1c-1.104 0-2 .896-2 2v10c0 1.104.896 2 2 2h4c1.104 0 2-.896 2-2V19c0-1.104-.896-2-2-2zM21.83 4.754l-3.053 3.053c-.563.563-1.325.88-2.12.88s-1.56-.316-2.123-.88c-.563-.563-.878-1.325-.878-2.12s.315-1.56.878-2.122L17.588.512c-2.467-.877-5.322-.335-7.296 1.64-2.733 2.732-2.733 7.165 0 9.898.517.517 1.094.935 1.708 1.256V28c0 1.657 1.343 3 3 3s3-1.343 3-3V13.53c.795-.342 1.542-.83 2.19-1.48 1.975-1.974 2.516-4.83 1.64-7.296zM15 29c-.553 0-1-.447-1-1s.447-1 1-1 1 .447 1 1-.447 1-1 1z"/></svg>