<svg xmlns="http://www.w3.org/2000/svg" width="30.407" height="25.079" viewBox="0 0 30.407 25.079"><path d="M10.325 6.072c0-.515-.2-1-.566-1.366-.71-.704-2.022-.706-2.73.002L.566 11.175c-.36.36-.565.856-.565 1.364s.206 1.004.565 1.363l6.468 6.47c.365.36.85.562 1.362.562s.997-.2 1.366-.566c.364-.365.564-.85.564-1.364s-.2-1-.565-1.364L4.656 12.54 9.76 7.438c.364-.365.565-.85.565-1.366zM29.842 11.175l-6.467-6.467c-.705-.707-2.018-.708-2.73 0-.363.364-.563.85-.563 1.364 0 .518.2 1.003.564 1.364l5.103 5.103-5.104 5.1c-.364.365-.564.85-.564 1.365s.2 1 .566 1.366c.365.364.85.564 1.363.564s1-.2 1.364-.564l6.467-6.467c.36-.36.566-.856.566-1.364s-.205-1.006-.564-1.365zM18.425.068c-1.11-.3-2.34.43-2.624 1.535l-5.39 20.792c-.297 1.143.393 2.316 1.537 2.616.175.046.355.07.54.07.978 0 1.83-.662 2.075-1.608l5.39-20.792c.146-.555.064-1.132-.226-1.624-.29-.495-.755-.846-1.3-.988z"/></svg>