<svg id="Layer_1" data-name="Layer 1" xmlns="http://www.w3.org/2000/svg" viewBox="0 0 61.63 69.49"><defs><style>.cls-1{fill:#806b64;}.cls-1,.cls-3,.cls-4,.cls-5{fill-rule:evenodd;}.cls-2,.cls-3,.cls-5{fill:#525c6d;}.cls-4{fill:#d3d6db;}.cls-5{stroke:#525c6d;stroke-linecap:round;stroke-linejoin:round;stroke-width:1.42px;}</style></defs><title>Black_men_icons</title><path class="cls-1" d="M33.09,7.32c-11.55,0-21.5,9.45-21.5,21V44.38c0,10.69,6.19,20.85,21.5,22.28,15.31-1.43,21.5-11.59,21.5-22.28V28.31C54.59,16.76,44.64,7.32,33.09,7.32Z"/><path class="cls-2" d="M33.09,8.38a20.71,20.71,0,0,0-14.41,5.93,19.57,19.57,0,0,0-6,14h0V44.38h0a20.89,20.89,0,0,0,5.5,14.75c3.29,3.41,8.17,5.82,14.93,6.47C39.85,65,44.74,62.54,48,59.13a20.89,20.89,0,0,0,5.5-14.75h0V28.31h0a19.57,19.57,0,0,0-6-14A20.71,20.71,0,0,0,33.09,8.38h0ZM17.2,12.79a22.59,22.59,0,0,1,31.78,0,21.69,21.69,0,0,1,6.67,15.52h0V44.38h0a23,23,0,0,1-6.1,16.22c-3.64,3.77-9,6.43-16.37,7.12H33C25.62,67,20.26,64.37,16.63,60.6a23,23,0,0,1-6.1-16.22h0V28.31h0A21.69,21.69,0,0,1,17.2,12.79Z"/><path class="cls-1" d="M11.59,32.65H9.22A3.66,3.66,0,0,0,5.61,37c0.72,3.79,2.35,8.71,6,8.71v-13Z"/><path class="cls-3" d="M11.59,31.87V31.65H9.22a4.66,4.66,0,0,0-4.67,4.64,4.39,4.39,0,0,0,.08.87,21,21,0,0,0,2,6.08,7.79,7.79,0,0,0,2,2.41,4.83,4.83,0,0,0,3,1,1,1,0,0,0,1-1v-13a1,1,0,0,0-.3-0.71,1,1,0,0,0-.7-0.29v0.22h0Zm-1,12.62h0a3.22,3.22,0,0,1-.76-0.43,7.49,7.49,0,0,1-2-3,22.72,22.72,0,0,1-1.19-4.23,2.68,2.68,0,0,1,0-.49,2.66,2.66,0,0,1,2.67-2.64h1.37V44.49Z"/><path class="cls-3" d="M28.35,34.49a5.34,5.34,0,0,0-10.07,0,1,1,0,0,0,1.89.67,3.33,3.33,0,0,1,6.29,0A1,1,0,0,0,28.35,34.49Z"/><path class="cls-3" d="M47.89,34.49a5.34,5.34,0,0,0-10.07,0,1,1,0,0,0,1.89.67,3.33,3.33,0,0,1,6.29,0A1,1,0,0,0,47.89,34.49Z"/><path class="cls-1" d="M33.08,36L31.82,37.7l-0.7,5.08c-3.19-1.72-4.28,1.09-4.28,2.9h12.5c0-1.81-1.09-4.62-4.28-2.9l-0.7-5.08Z"/><path class="cls-2" d="M33.08,37.78l-0.26.34-0.66,4.81a1.06,1.06,0,0,1-1.2.91,1,1,0,0,1-.36-0.12,2.85,2.85,0,0,0-1.3-.41,1,1,0,0,0-.58.17,1.53,1.53,0,0,0-.44.54,2.91,2.91,0,0,0-.24.6H38.13a3,3,0,0,0-.24-0.6,1.53,1.53,0,0,0-.44-0.54,1,1,0,0,0-.58-0.17,2.86,2.86,0,0,0-1.31.41A1.06,1.06,0,0,1,34,42.9l-0.66-4.78-0.26-.34h0ZM31,37.06l1.25-1.66a1.06,1.06,0,0,1,1.71,0l1.27,1.68h0a1.06,1.06,0,0,1,.2.49l0.52,3.75a3.93,3.93,0,0,1,.94-0.12,3.06,3.06,0,0,1,1.79.56A3.63,3.63,0,0,1,39.76,43a5.85,5.85,0,0,1,.64,2.67,1.06,1.06,0,0,1-1.06,1.06H26.83a1.06,1.06,0,0,1-1.06-1.06A5.84,5.84,0,0,1,26.41,43a3.62,3.62,0,0,1,1.1-1.27,3.06,3.06,0,0,1,1.79-.56,3.88,3.88,0,0,1,.94.12l0.51-3.71A1.05,1.05,0,0,1,31,37.06Z"/><path class="cls-4" d="M33.09,56.73h0a8.37,8.37,0,0,1-5.53-2.33,10.42,10.42,0,0,1-2.46-3.29h16a10.63,10.63,0,0,1-2.47,3.29A8.38,8.38,0,0,1,33.09,56.73Z"/><path class="cls-2" d="M33.09,58.15h0Zm-0.13,0h0.13a8.76,8.76,0,0,0,3.4-.72,10.93,10.93,0,0,0,3.06-2h0a12.11,12.11,0,0,0,2.81-3.74h0a1.41,1.41,0,0,0-1.28-2H25.21a1.42,1.42,0,0,0-1.41,2,11.54,11.54,0,0,0,1.21,2,11.9,11.9,0,0,0,1.59,1.74h0a11,11,0,0,0,3.07,2,8.8,8.8,0,0,0,3.29.71h0Zm-2.19-3.31a8.13,8.13,0,0,1-2.28-1.48h0a9,9,0,0,1-.8-0.83H38.49a9,9,0,0,1-.81.83l0,0a8.16,8.16,0,0,1-2.25,1.46,5.94,5.94,0,0,1-2.31.48H33A6,6,0,0,1,30.77,54.83Z"/><path class="cls-1" d="M54.59,32.65H57A3.66,3.66,0,0,1,60.57,37c-0.72,3.79-2.35,8.71-6,8.71v-13Z"/><path class="cls-3" d="M54.59,31.87V31.65H57a4.66,4.66,0,0,1,4.67,4.64,4.24,4.24,0,0,1-.08.87,20.92,20.92,0,0,1-2,6.08,7.79,7.79,0,0,1-2,2.41,4.83,4.83,0,0,1-3,1,1,1,0,0,1-1-1v-13a1,1,0,0,1,.3-0.71,1,1,0,0,1,.7-0.29v0.22h0Zm1,12.62h0a3.21,3.21,0,0,0,.76-0.43,7.5,7.5,0,0,0,2-3,22.73,22.73,0,0,0,1.19-4.23,2.77,2.77,0,0,0,0-.49,2.65,2.65,0,0,0-.77-1.85,2.68,2.68,0,0,0-1.9-.79H55.59V44.49Z"/><path class="cls-5" d="M20.65,6.56c-5.26,2.52-5.56,6.68-5.56,6.68a7.17,7.17,0,0,0-4.43,7.27l1,11.36h2.84c0.07-3.35,2.71-5.94,3.87-9.16,0.32-.88-2.29-5.58-0.92-7.21,5-5.95,7.62,3.08,15.62,3.93,8-.84,10.62-9.88,15.62-3.93,1.37,1.63-1.24,6.32-.92,7.21,1.16,3.21,3.8,5.8,3.87,9.16h2.84l1-11.36a7.17,7.17,0,0,0-4.43-7.27s-0.3-4.16-5.56-6.68C40.49,4.15,25.68,4.15,20.65,6.56Z"/></svg>