<svg xmlns="http://www.w3.org/2000/svg" width="31.885" height="30" viewBox="0 0 31.885 30"><path d="M8.217 8.88c.188.098.623.28 1.058.28.553 0 .833-.267.833-.61 0-.448-.448-.65-.917-.65h-.434v-.764h.413c.356-.008.81-.14.81-.526 0-.273-.223-.477-.67-.477-.372 0-.765.16-.954.273l-.216-.77c.273-.174.82-.343 1.408-.343.973 0 1.513.512 1.513 1.135 0 .483-.272.86-.833 1.058V7.5c.547.098.987.51.987 1.106 0 .805-.707 1.394-1.862 1.394-.59 0-1.086-.154-1.352-.322l.217-.8zM14.05 6.197v1.526h1.463v.658H14.05v1.542h-.688v-1.54h-1.464v-.658h1.464V6.197h.687zM16.084 9.923v-.645l.59-.532c.993-.89 1.477-1.4 1.49-1.933 0-.37-.224-.666-.75-.666-.392 0-.734.196-.973.38l-.3-.765c.343-.26.875-.47 1.49-.47 1.03 0 1.598.603 1.598 1.43 0 .763-.553 1.372-1.21 1.96l-.422.35v.016h1.716v.875h-3.228z"/><path d="M24 27c0 .552-.448 1-1 1H4v-2h1c.552 0 1-.447 1-1s-.448-1-1-1H4v-3h1c.552 0 1-.447 1-1s-.448-1-1-1H4v-3h1c.552 0 1-.447 1-1s-.448-1-1-1H4v-3h1c.552 0 1-.447 1-1s-.448-1-1-1H4V6h1c.552 0 1-.447 1-1s-.448-1-1-1H4V2h19c.552 0 1 .448 1 1v5.05l2-2V3c0-1.654-1.346-3-3-3H4C2.897 0 2 .897 2 2v2H1c-.552 0-1 .447-1 1s.448 1 1 1h1v3H1c-.552 0-1 .447-1 1s.448 1 1 1h1v3H1c-.552 0-1 .447-1 1s.448 1 1 1h1v3H1c-.552 0-1 .447-1 1s.448 1 1 1h1v3H1c-.552 0-1 .447-1 1s.448 1 1 1h1v2c0 1.103.897 2 2 2h19c1.654 0 3-1.346 3-3V15.95l-2 2V27z"/><path d="M31.152 9.383c.977-.977.977-2.56 0-3.535-.488-.488-1.128-.732-1.768-.732s-1.28.244-1.768.732l-15.91 15.91L11 25.293l.707.707 3.535-.707 15.91-15.91zm-16.617 13.79l-1.414-1.415 14.85-14.85 1.415 1.414-14.85 14.85z"/></svg>