<?xml version="1.0" encoding="UTF-8" standalone="no"?>
<!-- Created with Inkscape (http://www.inkscape.org/) -->

<svg
   xmlns:dc="http://purl.org/dc/elements/1.1/"
   xmlns:cc="http://creativecommons.org/ns#"
   xmlns:rdf="http://www.w3.org/1999/02/22-rdf-syntax-ns#"
   xmlns:svg="http://www.w3.org/2000/svg"
   xmlns="http://www.w3.org/2000/svg"
   xmlns:sodipodi="http://sodipodi.sourceforge.net/DTD/sodipodi-0.dtd"
   xmlns:inkscape="http://www.inkscape.org/namespaces/inkscape"
   id="svg2"
   version="1.1"
   inkscape:version="0.91 r13725"
   xml:space="preserve"
   width="71.593819"
   height="85.027458"
   viewBox="0 0 71.593818 85.027457"
   sodipodi:docname="older_man_with_glasses.svg"><metadata
     id="metadata8"><rdf:RDF><cc:Work
         rdf:about=""><dc:format>image/svg+xml</dc:format><dc:type
           rdf:resource="http://purl.org/dc/dcmitype/StillImage" /><dc:title></dc:title></cc:Work></rdf:RDF></metadata><defs
     id="defs6"><clipPath
       clipPathUnits="userSpaceOnUse"
       id="clipPath16"><path
         d="m 0,94.324 94.324,0 L 94.324,0 0,0 0,94.324 Z"
         id="path18"
         inkscape:connector-curvature="0" /></clipPath><clipPath
       clipPathUnits="userSpaceOnUse"
       id="clipPath80"><path
         d="m 38.1865,32.4824 17.6465,0 0,-8.5137 -17.6465,0 0,8.5137 z"
         id="path82"
         inkscape:connector-curvature="0" /></clipPath><clipPath
       clipPathUnits="userSpaceOnUse"
       id="clipPath84"><path
         d="m 38.189,23.969 17.641,0 0,8.514 -17.641,0 0,-8.514 z"
         id="path86"
         inkscape:connector-curvature="0" /></clipPath></defs><sodipodi:namedview
     pagecolor="#ffffff"
     bordercolor="#666666"
     borderopacity="1"
     objecttolerance="10"
     gridtolerance="10"
     guidetolerance="10"
     inkscape:pageopacity="0"
     inkscape:pageshadow="2"
     inkscape:window-width="1867"
     inkscape:window-height="1056"
     id="namedview4"
     showgrid="false"
     inkscape:zoom="4.0032144"
     inkscape:cx="18.215278"
     inkscape:cy="18.787043"
     inkscape:window-x="53"
     inkscape:window-y="24"
     inkscape:window-maximized="1"
     inkscape:current-layer="g10"
     fit-margin-top="0"
     fit-margin-left="0"
     fit-margin-right="0"
     fit-margin-bottom="0" /><g
     id="g10"
     inkscape:groupmode="layer"
     inkscape:label="older_man_with_glasses"
     transform="matrix(1.25,0,0,-1.25,-0.60906824,117.29464)"><g
       id="g12"
       transform="matrix(1.0342134,0,0,1.0342134,-19.650946,11.050247)"><g
         id="g14"
         clip-path="url(#clipPath16)"><g
           id="g20"
           transform="translate(25.5098,49.499)"><path
             d="M 0,0 -1.367,0 C -3.655,0 -5.399,-2.074 -4.975,-4.322 -4.258,-8.114 -3.63,-13.027 0,-13.027 L 0,0 Z"
             style="fill:#ffffff;fill-opacity:1;fill-rule:nonzero;stroke:none"
             id="path22"
             inkscape:connector-curvature="0" /></g><g
           id="g24"
           transform="translate(25.5098,49.499)"><path
             d="M 0,0 -1.367,0 C -3.655,0 -5.399,-2.074 -4.975,-4.322 -4.258,-8.114 -3.63,-13.027 0,-13.027 L 0,0 Z"
             style="fill:none;stroke:#535b6b;stroke-width:2;stroke-linecap:butt;stroke-linejoin:round;stroke-miterlimit:10;stroke-dasharray:none;stroke-opacity:1"
             id="path26"
             inkscape:connector-curvature="0" /></g><g
           id="g28"
           transform="translate(68.8145,49.499)"><path
             d="M 0,0 1.367,0 C 3.655,0 5.399,-2.074 4.975,-4.322 4.258,-8.114 3.63,-13.027 0,-13.027 L 0,0 Z"
             style="fill:#ffffff;fill-opacity:1;fill-rule:nonzero;stroke:none"
             id="path30"
             inkscape:connector-curvature="0" /></g><g
           id="g32"
           transform="translate(68.8145,49.499)"><path
             d="M 0,0 1.367,0 C 3.655,0 5.399,-2.074 4.975,-4.322 4.258,-8.114 3.63,-13.027 0,-13.027 L 0,0 Z"
             style="fill:none;stroke:#535b6b;stroke-width:2;stroke-linecap:butt;stroke-linejoin:round;stroke-miterlimit:10;stroke-dasharray:none;stroke-opacity:1"
             id="path34"
             inkscape:connector-curvature="0" /></g><g
           id="g36"
           transform="translate(41.3291,47.3271)"><path
             d="M 0,0 C -0.597,1.687 -2.2,2.896 -4.09,2.896 -5.979,2.896 -7.583,1.687 -8.18,0"
             style="fill:#ffffff;fill-opacity:1;fill-rule:nonzero;stroke:none"
             id="path38"
             inkscape:connector-curvature="0" /></g><g
           id="g40"
           transform="translate(60.8701,47.3271)"><path
             d="M 0,0 C -0.597,1.687 -2.2,2.896 -4.09,2.896 -5.979,2.896 -7.583,1.687 -8.18,0"
             style="fill:#ffffff;fill-opacity:1;fill-rule:nonzero;stroke:none"
             id="path42"
             inkscape:connector-curvature="0" /></g><g
           id="g44"
           transform="translate(56.8643,46.1611)"><path
             d="M 0,0 C -1.104,0 -2.086,-0.407 -2.729,-1.042"
             style="fill:none;stroke:#535b6b;stroke-width:2;stroke-linecap:round;stroke-linejoin:round;stroke-miterlimit:10;stroke-dasharray:none;stroke-opacity:1"
             id="path46"
             inkscape:connector-curvature="0" /></g><g
           id="g48"
           transform="translate(56.5674,46.1611)"><path
             d="M 0,0 C 1.104,0 2.086,-0.407 2.727,-1.042"
             style="fill:none;stroke:#535b6b;stroke-width:2;stroke-linecap:round;stroke-linejoin:round;stroke-miterlimit:10;stroke-dasharray:none;stroke-opacity:1"
             id="path50"
             inkscape:connector-curvature="0" /></g><g
           id="g52"
           transform="translate(37.4521,46.1611)"><path
             d="M 0,0 C -1.104,0 -2.086,-0.407 -2.727,-1.042"
             style="fill:none;stroke:#535b6b;stroke-width:2;stroke-linecap:round;stroke-linejoin:round;stroke-miterlimit:10;stroke-dasharray:none;stroke-opacity:1"
             id="path54"
             inkscape:connector-curvature="0" /></g><g
           id="g56"
           transform="translate(37.1553,46.1611)"><path
             d="M 0,0 C 1.104,0 2.086,-0.407 2.729,-1.042"
             style="fill:none;stroke:#535b6b;stroke-width:2;stroke-linecap:round;stroke-linejoin:round;stroke-miterlimit:10;stroke-dasharray:none;stroke-opacity:1"
             id="path58"
             inkscape:connector-curvature="0" /></g><g
           id="g60"
           transform="translate(48.6982,39.3662)"><path
             d="m 0,0 -0.603,10.855 -2.17,0 L -3.377,0 c -1.266,0 -2.292,-1.026 -2.292,-2.292 l 0,-0.604 7.961,0 0,0.604 C 2.292,-1.026 1.267,0 0,0"
             style="fill:#ffffff;fill-opacity:1;fill-rule:nonzero;stroke:none"
             id="path62"
             inkscape:connector-curvature="0" /></g><g
           id="g64"
           transform="translate(48.6982,39.3662)"><path
             d="m 0,0 -0.603,5.855 -2.17,0 L -3.377,0 c -1.266,0 -2.292,-1.026 -2.292,-2.292 l 0,-0.604 7.961,0 0,0.604 C 2.292,-1.026 1.267,0 0,0 Z"
             style="fill:none;stroke:#535b6b;stroke-width:2;stroke-linecap:butt;stroke-linejoin:round;stroke-miterlimit:10;stroke-dasharray:none;stroke-opacity:1"
             id="path66"
             inkscape:connector-curvature="0" /></g><g
           id="g68"
           transform="translate(39.1865,31.4824)"><path
             d="m 0,0 c 0.682,-3 3.922,-6.514 7.823,-6.514 3.902,0 7.142,3.514 7.823,6.514 L 0,0 Z"
             style="fill:#ffffff;fill-opacity:1;fill-rule:nonzero;stroke:none"
             id="path70"
             inkscape:connector-curvature="0" /></g><g
           id="g72"
           transform="translate(39.1865,31.4824)"><path
             d="m 0,0 c 0.682,-3 3.922,-6.514 7.823,-6.514 3.902,0 7.142,3.514 7.823,6.514 L 0,0 Z"
             style="fill:none;stroke:#535b6b;stroke-width:2;stroke-linecap:butt;stroke-linejoin:round;stroke-miterlimit:10;stroke-dasharray:none;stroke-opacity:1"
             id="path74"
             inkscape:connector-curvature="0" /></g><g
           id="g76"><g
             id="g78" /><g
             id="g88"><g
               clip-path="url(#clipPath80)"
               id="g90"
               style="opacity:0.25"><g
                 id="g92"><g
                   clip-path="url(#clipPath84)"
                   id="g94"><g
                     transform="translate(39.1865,31.4824)"
                     id="g96"><path
                       d="m 0,0 c 0.682,-3 3.922,-6.514 7.823,-6.514 3.902,0 7.142,3.514 7.823,6.514 L 0,0 Z"
                       style="fill:#535b6b;fill-opacity:1;fill-rule:nonzero;stroke:none"
                       id="path98"
                       inkscape:connector-curvature="0" /></g><g
                     transform="translate(39.1865,31.4824)"
                     id="g100"><path
                       d="m 0,0 c 0.682,-3 3.922,-6.514 7.823,-6.514 3.902,0 7.142,3.514 7.823,6.514 L 0,0 Z"
                       style="fill:none;stroke:#535b6b;stroke-width:2;stroke-linecap:butt;stroke-linejoin:round;stroke-miterlimit:10;stroke-dasharray:none;stroke-opacity:1"
                       id="path102"
                       inkscape:connector-curvature="0" /></g></g></g></g></g></g><g
           id="g104"
           transform="translate(61.7021,45.8262)"><path
             d="M 0,0 C -0.164,-0.868 -0.41,-2.179 -0.588,-2.699 -0.902,-3.625 -2.553,-4.178 -5,-4.178 c -1.236,0 -2.203,0.139 -2.561,0.199 -0.601,0.1 -1.087,0.425 -1.486,0.997 -0.758,1.082 -0.98,2.785 -0.826,3.949 0.848,0.97 2.838,1.61 5.057,1.61 2.062,0 3.867,-0.549 4.709,-1.432 C -0.004,1.037 0.084,0.925 0.154,0.81 0.109,0.59 0.059,0.31 0,0 m -20.336,-2.981 c -0.4,-0.573 -0.885,-0.898 -1.488,-0.998 -0.358,-0.06 -1.324,-0.199 -2.561,-0.199 -2.447,0 -4.097,0.553 -4.412,1.479 -0.176,0.518 -0.422,1.824 -0.584,2.688 -0.058,0.314 -0.113,0.598 -0.158,0.821 0.072,0.115 0.158,0.227 0.262,0.335 0.841,0.883 2.646,1.432 4.709,1.432 2.218,0 4.209,-0.64 5.054,-1.61 0.159,-1.164 -0.066,-2.867 -0.822,-3.948 M 0.686,2.916 C -0.59,3.878 -2.578,4.44 -4.816,4.44 c -2.256,0 -5.086,-0.627 -6.506,-2.332 l -6.742,0 c -1.418,1.705 -4.248,2.332 -6.504,2.332 -2.239,0 -4.227,-0.562 -5.502,-1.524 l -6.295,3.785 0,-1.65 4.877,-4.072 0.064,-0.266 c 0.049,-0.194 0.123,-0.594 0.211,-1.067 0.193,-1.026 0.434,-2.301 0.652,-2.946 0.612,-1.793 2.747,-2.741 6.176,-2.741 1.377,0 2.463,0.156 2.867,0.225 1.09,0.181 2.028,0.793 2.707,1.766 0.874,1.249 1.213,2.914 1.207,4.311 l 5.825,0 c -0.008,-1.398 0.334,-3.063 1.205,-4.311 0.681,-0.974 1.617,-1.586 2.707,-1.766 0.404,-0.069 1.492,-0.225 2.867,-0.225 3.43,0 5.566,0.948 6.178,2.742 0.218,0.646 0.459,1.926 0.652,2.954 0.088,0.471 0.162,0.866 0.209,1.059 l 0.066,0.265 4.875,4.072 0,1.65 -6.294,-3.785 z"
             style="fill:#525b6c;fill-opacity:1;fill-rule:nonzero;stroke:none"
             id="path106"
             inkscape:connector-curvature="0" /></g><g
           id="g108"
           transform="translate(47.3145,74.8301)"><path
             d="M 0,0 C -0.051,0 -0.102,-0.002 -0.151,-0.004 -0.203,-0.004 -0.254,0 -0.305,0 c -11.544,0 -21.5,-9.445 -21.5,-20.989 l 0,-16.078 c 0,-0.269 0.011,-0.54 0.032,-0.815 0.256,-4.146 2.435,-8.378 5.469,-11.977 10e-4,-10e-4 0.002,-10e-4 0.002,-0.002 3.505,-4.363 8.39,-9.694 12.317,-9.694 l 7.889,0 c 3.927,0 8.588,5.331 12.093,9.694 2.982,3.712 5.503,8.605 5.503,12.794 l 0,16.078 C 21.5,-9.445 11.544,0 0,0 Z"
             style="fill:none;stroke:#535b6b;stroke-width:2;stroke-linecap:butt;stroke-linejoin:round;stroke-miterlimit:10;stroke-dasharray:none;stroke-opacity:1"
             id="path110"
             inkscape:connector-curvature="0" /></g><g
           id="g112"
           transform="translate(47.0098,79.0488)"><path
             d="m 0,0 c -5.03,-0.319 -9.683,-0.144 -12.432,-1.46 -5.267,-2.522 -10.269,-10.816 -9.99,-13.948 l 0.695,-14.314 c 0,0 1.282,21.721 10.501,18.987 3.021,-0.896 7.031,-3.869 11.493,-4.16"
             style="fill:#994a16;fill-opacity:1;fill-rule:nonzero;stroke:#535b6b;stroke-width:2;stroke-linecap:butt;stroke-linejoin:round;stroke-miterlimit:10;stroke-dasharray:none;stroke-opacity:1"
             id="path114"
             inkscape:connector-curvature="0" /></g><g
           id="g116"
           transform="translate(47.0752,64.1406)"><path
             d="m 0,0 c 4.462,0.291 8.073,3.373 11.094,4.269 9.219,2.734 10.633,-19.082 10.633,-19.082 L 22.422,-0.5 c 0.279,3.132 -4.723,11.426 -9.99,13.948 -2.749,1.317 -7.665,1.141 -12.696,1.46"
             style="fill:#994a16;fill-opacity:1;fill-rule:nonzero;stroke:#535b6b;stroke-width:2;stroke-linecap:butt;stroke-linejoin:round;stroke-miterlimit:10;stroke-dasharray:none;stroke-opacity:1"
             id="path118"
             inkscape:connector-curvature="0" /></g><g
           id="g120"
           transform="translate(52.3018,35.4678)"><path
             d="M 0,0 C -1.779,0.719 -4.146,0.474 -5.141,-0.406 -6.135,0.474 -8.5,0.719 -10.279,0 c -1.6,-0.646 -2.266,-1.875 -5.922,-2.691 3.056,-2.045 8.281,-1.57 10.947,-1.57 0.014,-0.004 0.029,-0.007 0.045,-0.01 l 0,-0.03 c 0.022,0.005 0.045,0.01 0.068,0.016 0.026,-0.006 0.047,-0.011 0.071,-0.016 l 0,0.03 c 0.015,0.003 0.031,0.006 0.045,0.01 2.666,0 7.89,-0.475 10.947,1.57 C 2.266,-1.875 1.6,-0.646 0,0"
             style="fill:#994a16;fill-opacity:1;fill-rule:nonzero;stroke:none"
             id="path122"
             inkscape:connector-curvature="0" /></g><g
           id="g124"
           transform="translate(52.3018,35.4678)"><path
             d="M 0,0 C -1.779,0.719 -4.146,0.474 -5.141,-0.406 -6.135,0.474 -8.5,0.719 -10.279,0 c -1.6,-0.646 -2.266,-1.875 -5.922,-2.691 3.056,-2.045 8.281,-1.57 10.947,-1.57 0.014,-0.004 0.029,-0.007 0.045,-0.01 l 0,-0.03 c 0.022,0.005 0.045,0.01 0.068,0.016 0.026,-0.006 0.047,-0.011 0.071,-0.016 l 0,0.03 c 0.015,0.003 0.031,0.006 0.045,0.01 2.666,0 7.89,-0.475 10.947,1.57 C 2.266,-1.875 1.6,-0.646 0,0 Z"
             style="fill:none;stroke:#535b6b;stroke-width:2;stroke-linecap:butt;stroke-linejoin:round;stroke-miterlimit:10;stroke-dasharray:none;stroke-opacity:1"
             id="path126"
             inkscape:connector-curvature="0" /></g></g></g></g></svg>