<?xml version="1.0" encoding="UTF-8" standalone="no"?>
<!-- Created with Inkscape (http://www.inkscape.org/) -->

<svg
   xmlns:dc="http://purl.org/dc/elements/1.1/"
   xmlns:cc="http://creativecommons.org/ns#"
   xmlns:rdf="http://www.w3.org/1999/02/22-rdf-syntax-ns#"
   xmlns:svg="http://www.w3.org/2000/svg"
   xmlns="http://www.w3.org/2000/svg"
   version="1.1"
   width="32"
   height="32"
   id="svg4870">
  <title
     id="title6230">Play</title>
  <defs
     id="defs4874">
    <filter
       color-interpolation-filters="sRGB"
       id="filter3172">
      <feGaussianBlur
         stdDeviation="5.092479"
         id="feGaussianBlur3174" />
    </filter>
  </defs>
  <metadata
     id="metadata7">image/svg+xml3D effect warning triangle18/9/07Tim O'Ryan<rdf:RDF>
  <cc:Work
     rdf:about="">
    <dc:format>image/svg+xml</dc:format>
    <dc:type
       rdf:resource="http://purl.org/dc/dcmitype/StillImage" />
    <dc:title>Play</dc:title>
    <cc:license
       rdf:resource="" />
  </cc:Work>
</rdf:RDF>
</metadata>
  <g
     id="g6232">
    <g
       transform="matrix(0,0.07797926,-0.07865541,0,34.263746,0.9503084)"
       id="g4895"
       style="fill-opacity:1;fill-rule:nonzero">
      <g
         id="g4883"
         style="fill-opacity:1;fill-rule:nonzero">
        <path
           d="m 219.50301,57.377998 c -4.181,0.217503 -7.97101,2.5466 -10.07801,6.193302 L 41.8209,355.108 c -2.2215,3.86499 -2.2285,8.63101 -0.0184,12.50299 2.210098,3.871 6.301399,6.26001 10.732498,6.26602 L 386.76999,374.405 c 4.43301,0.014 8.53601,-2.35901 10.76102,-6.224 2.22598,-3.86401 2.237,-8.63199 0.028,-12.50699 L 230.89101,63.6091 c -2.332,-4.070099 -6.73201,-6.477402 -11.388,-6.231102 l 0,0 0,0 0,0 z M 220.102,94.839698 365.34201,349.36801 74.038101,348.91501 220.102,94.839698 l 0,0 0,0 z"
           id="path3152"
           style="opacity:0;fill-opacity:1;fill-rule:nonzero;stroke-miterlimit:4;filter:url(#filter3172)" />
        <path
           d="m 208.381,52.4944 c -4.181,0.217499 -7.97,2.5466 -10.077,6.193298 L 30.699301,350.224 c -2.2215,3.86499 -2.2285,8.63101 -0.0184,12.50299 2.210098,3.87201 6.301399,6.26001 10.732498,6.26602 L 375.64801,369.522 c 4.43298,0.013 8.53598,-2.36001 10.76199,-6.22399 2.22599,-3.86499 2.236,-8.633 0.027,-12.50702 L 219.769,58.7254 c -2.332,-4.07 -6.732,-6.477299 -11.388,-6.230999 l 0,0 0,0 0,0 z M 208.98,89.9561 354.22,344.48401 62.916599,344.031 208.98,89.9561 z"
           id="path2178"
           style="fill-opacity:1;fill-rule:nonzero;stroke-miterlimit:4" />
        <path
           d="M 374.67975,356.03748 40.42569,355.49796 208.01624,63.961911 374.67975,356.03748 z"
           id="path2160"
           style="fill-opacity:1;fill-rule:nonzero;stroke-miterlimit:4" />
        <path
           d="m 205.448,129.765 c -2.58299,0.13699 -4.92501,1.599 -6.22701,3.89 L 95.643799,316.75699 c -1.372795,2.427 -1.377197,5.42001 -0.0114,7.85202 1.365799,2.431 3.894203,3.93197 6.632601,3.935 l 206.55199,0.332 c 2.73901,0.009 5.27502,-1.48102 6.651,-3.909 1.375,-2.427 1.38202,-5.42102 0.016,-7.85501 L 212.48599,133.67799 C 211.045,131.12199 208.32601,129.61 205.448,129.765 l 0,0 0,0 z"
           id="path19491"
           style="fill-opacity:1;fill-rule:nonzero;stroke-miterlimit:4" />
        <text
           x="215"
           y="175"
           id="svg_1"
           xml:space="preserve"
           style="font-size:24px;text-anchor:middle;opacity:0.5;fill-opacity:1;fill-rule:nonzero;font-family:serif" />
        <text
           x="298.33682"
           y="324"
           id="svg_2"
           xml:space="preserve"
           style="font-size:24px;text-anchor:middle;opacity:0.5;fill-opacity:1;fill-rule:nonzero;font-family:serif" />
      </g>
    </g>
  </g>
</svg>
