<?xml version="1.0" encoding="UTF-8" standalone="no"?>
<!-- Created with Inkscape (http://www.inkscape.org/) -->

<svg
   xmlns:dc="http://purl.org/dc/elements/1.1/"
   xmlns:cc="http://creativecommons.org/ns#"
   xmlns:rdf="http://www.w3.org/1999/02/22-rdf-syntax-ns#"
   xmlns:svg="http://www.w3.org/2000/svg"
   xmlns="http://www.w3.org/2000/svg"
   xmlns:sodipodi="http://sodipodi.sourceforge.net/DTD/sodipodi-0.dtd"
   xmlns:inkscape="http://www.inkscape.org/namespaces/inkscape"
   id="svg3408"
   version="1.1"
   inkscape:version="0.91 r13725"
   xml:space="preserve"
   width="95.838753"
   height="93.345749"
   viewBox="0 0 95.838753 93.345749"
   sodipodi:docname="affordable.svg"><metadata
     id="metadata3414"><rdf:RDF><cc:Work
         rdf:about=""><dc:format>image/svg+xml</dc:format><dc:type
           rdf:resource="http://purl.org/dc/dcmitype/StillImage" /><dc:title></dc:title></cc:Work></rdf:RDF></metadata><defs
     id="defs3412"><clipPath
       clipPathUnits="userSpaceOnUse"
       id="clipPath3474"><path
         d="M 0,114 122,114 122,0 0,0 0,114 Z"
         id="path3476"
         inkscape:connector-curvature="0" /></clipPath></defs><sodipodi:namedview
     pagecolor="#ffffff"
     bordercolor="#666666"
     borderopacity="1"
     objecttolerance="10"
     gridtolerance="10"
     guidetolerance="10"
     inkscape:pageopacity="0"
     inkscape:pageshadow="2"
     inkscape:window-width="1867"
     inkscape:window-height="1056"
     id="namedview3410"
     showgrid="false"
     fit-margin-top="0"
     fit-margin-left="0"
     fit-margin-right="0"
     fit-margin-bottom="0"
     inkscape:zoom="6.4491228"
     inkscape:cx="46.14875"
     inkscape:cy="49.972"
     inkscape:window-x="53"
     inkscape:window-y="24"
     inkscape:window-maximized="1"
     inkscape:current-layer="g3416" /><g
     id="g3416"
     inkscape:groupmode="layer"
     inkscape:label="Affordable_for_All_icon"
     transform="matrix(1.25,0,0,-1.25,-30.10125,114.62375)"><path
       d="m 68.986,29.358 -43.842,0 0,61.278 43.842,0 0,-61.278 z"
       style="fill:#ffffff;fill-opacity:1;fill-rule:nonzero;stroke:none"
       id="path3418"
       inkscape:connector-curvature="0" /><path
       d="m 26.207,30.421 41.716,0 0,59.152 -41.716,0 0,-59.152 z m 43.842,-2.126 -45.968,0 0,63.404 45.968,0 0,-63.404 z"
       style="fill:#536b8b;fill-opacity:1;fill-rule:nonzero;stroke:none"
       id="path3420"
       inkscape:connector-curvature="0" /><g
       id="g3422"
       transform="translate(32.8752,71.8245)"><path
         d="M 0,0 22.605,0 0,0 Z"
         style="fill:#536b8b;fill-opacity:1;fill-rule:nonzero;stroke:none"
         id="path3424"
         inkscape:connector-curvature="0" /></g><path
       d="m 56.543,70.761 -24.731,0 0,2.126 24.731,0 0,-2.126 z"
       style="fill:#a2baf0;fill-opacity:1;fill-rule:nonzero;stroke:none"
       id="path3426"
       inkscape:connector-curvature="0" /><g
       id="g3428"
       transform="translate(32.8752,64.8243)"><path
         d="M 0,0 22.605,0 0,0 Z"
         style="fill:#536b8b;fill-opacity:1;fill-rule:nonzero;stroke:none"
         id="path3430"
         inkscape:connector-curvature="0" /></g><path
       d="m 56.543,63.761 -24.731,0 0,2.126 24.731,0 0,-2.126 z"
       style="fill:#a2baf0;fill-opacity:1;fill-rule:nonzero;stroke:none"
       id="path3432"
       inkscape:connector-curvature="0" /><g
       id="g3434"
       transform="translate(32.8752,59.3406)"><path
         d="M 0,0 22.605,0 0,0 Z"
         style="fill:#536b8b;fill-opacity:1;fill-rule:nonzero;stroke:none"
         id="path3436"
         inkscape:connector-curvature="0" /></g><path
       d="m 56.543,58.278 -24.731,0 0,2.126 24.731,0 0,-2.126 z"
       style="fill:#a2baf0;fill-opacity:1;fill-rule:nonzero;stroke:none"
       id="path3438"
       inkscape:connector-curvature="0" /><g
       id="g3440"
       transform="translate(32.8752,53.8578)"><path
         d="M 0,0 22.605,0 0,0 Z"
         style="fill:#536b8b;fill-opacity:1;fill-rule:nonzero;stroke:none"
         id="path3442"
         inkscape:connector-curvature="0" /></g><path
       d="m 56.543,52.794 -24.731,0 0,2.126 24.731,0 0,-2.126 z"
       style="fill:#a2baf0;fill-opacity:1;fill-rule:nonzero;stroke:none"
       id="path3444"
       inkscape:connector-curvature="0" /><g
       id="g3446"
       transform="translate(32.8752,48.3741)"><path
         d="M 0,0 22.605,0 0,0 Z"
         style="fill:#536b8b;fill-opacity:1;fill-rule:nonzero;stroke:none"
         id="path3448"
         inkscape:connector-curvature="0" /></g><path
       d="m 56.543,47.311 -24.731,0 0,2.126 24.731,0 0,-2.126 z"
       style="fill:#a2baf0;fill-opacity:1;fill-rule:nonzero;stroke:none"
       id="path3450"
       inkscape:connector-curvature="0" /><g
       id="g3452"
       transform="translate(32.8752,71.8245)"><path
         d="M 0,0 22.605,0 0,0 Z"
         style="fill:#536b8b;fill-opacity:1;fill-rule:nonzero;stroke:none"
         id="path3454"
         inkscape:connector-curvature="0" /></g><path
       d="m 56.543,70.761 -24.731,0 0,2.126 24.731,0 0,-2.126 z"
       style="fill:#a2baf0;fill-opacity:1;fill-rule:nonzero;stroke:none"
       id="path3456"
       inkscape:connector-curvature="0" /><path
       d="m 99.689,20.573 -60.038,0 0,51.156 60.038,0 0,-51.156 z"
       style="fill:#ffffff;fill-opacity:1;fill-rule:nonzero;stroke:none"
       id="path3458"
       inkscape:connector-curvature="0" /><path
       d="m 40.714,21.636 57.912,0 0,49.03 -57.912,0 0,-49.03 z m 60.038,-2.126 -62.164,0 0,53.282 62.164,0 0,-53.282 z"
       style="fill:#536b8b;fill-opacity:1;fill-rule:nonzero;stroke:none"
       id="path3460"
       inkscape:connector-curvature="0" /><path
       d="m 99.689,20.573 -60.038,0 0,51.156 60.038,0 0,-51.156 z"
       style="fill:#ffffff;fill-opacity:1;fill-rule:nonzero;stroke:none"
       id="path3462"
       inkscape:connector-curvature="0" /><path
       d="m 40.714,21.636 57.912,0 0,49.03 -57.912,0 0,-49.03 z m 60.038,-2.126 -62.164,0 0,53.282 62.164,0 0,-53.282 z"
       style="fill:#536b8b;fill-opacity:1;fill-rule:nonzero;stroke:none"
       id="path3464"
       inkscape:connector-curvature="0" /><path
       d="m 99.689,57.875 -60.038,0 0,13.855 60.038,0 0,-13.855 z"
       style="fill:#f1877a;fill-opacity:1;fill-rule:nonzero;stroke:none"
       id="path3466"
       inkscape:connector-curvature="0" /><path
       d="m 40.714,58.938 57.912,0 0,11.729 -57.912,0 0,-11.729 z m 60.038,-2.126 -62.164,0 0,15.981 62.164,0 0,-15.981 z"
       style="fill:#536b8b;fill-opacity:1;fill-rule:nonzero;stroke:none"
       id="path3468"
       inkscape:connector-curvature="0" /><g
       id="g3470"><g
         id="g3472"
         clip-path="url(#clipPath3474)"><g
           id="g3478"
           transform="translate(78.5664,63.7944)"><path
             d="m 0,0 -17.792,0 c -0.587,0 -1.063,0.476 -1.063,1.063 0,0.587 0.476,1.063 1.063,1.063 L 0,2.126 C 0.587,2.126 1.063,1.65 1.063,1.063 1.063,0.476 0.587,0 0,0"
             style="fill:#ffffff;fill-opacity:1;fill-rule:nonzero;stroke:none"
             id="path3480"
             inkscape:connector-curvature="0" /></g><path
           d="m 58.657,43.31 -7.815,0 0,7.815 7.815,0 0,-7.815 z"
           style="fill:#a2baf0;fill-opacity:1;fill-rule:evenodd;stroke:none"
           id="path3482"
           inkscape:connector-curvature="0" /><path
           d="m 51.905,44.373 5.689,0 0,5.689 -5.689,0 0,-5.689 z m 7.815,-2.126 -9.941,0 0,9.941 9.941,0 0,-9.941 z"
           style="fill:#536b8b;fill-opacity:1;fill-rule:nonzero;stroke:none"
           id="path3484"
           inkscape:connector-curvature="0" /><path
           d="m 73.578,43.31 -7.815,0 0,7.815 7.815,0 0,-7.815 z"
           style="fill:#a2baf0;fill-opacity:1;fill-rule:evenodd;stroke:none"
           id="path3486"
           inkscape:connector-curvature="0" /><path
           d="m 66.826,44.373 5.689,0 0,5.689 -5.689,0 0,-5.689 z m 7.815,-2.126 -9.941,0 0,9.941 9.941,0 0,-9.941 z"
           style="fill:#536b8b;fill-opacity:1;fill-rule:nonzero;stroke:none"
           id="path3488"
           inkscape:connector-curvature="0" /><path
           d="m 61.938,80.748 -29.746,0 0,5.116 29.746,0 0,-5.116 z"
           style="fill:#a2baf0;fill-opacity:1;fill-rule:evenodd;stroke:none"
           id="path3490"
           inkscape:connector-curvature="0" /><path
           d="m 33.254,81.811 27.62,0 0,2.99 -27.62,0 0,-2.99 z M 63,79.685 l -31.872,0 0,7.242 31.872,0 0,-7.242 z"
           style="fill:#536b8b;fill-opacity:1;fill-rule:nonzero;stroke:none"
           id="path3492"
           inkscape:connector-curvature="0" /><path
           d="m 88.498,43.31 -7.815,0 0,7.815 7.815,0 0,-7.815 z"
           style="fill:#a2baf0;fill-opacity:1;fill-rule:evenodd;stroke:none"
           id="path3494"
           inkscape:connector-curvature="0" /><path
           d="m 81.746,44.373 5.689,0 0,5.689 -5.689,0 0,-5.689 z m 7.815,-2.126 -9.941,0 0,9.941 9.941,0 0,-9.941 z"
           style="fill:#536b8b;fill-opacity:1;fill-rule:nonzero;stroke:none"
           id="path3496"
           inkscape:connector-curvature="0" /><path
           d="m 58.657,29.1 -7.815,0 0,7.815 7.815,0 0,-7.815 z"
           style="fill:#a2baf0;fill-opacity:1;fill-rule:evenodd;stroke:none"
           id="path3498"
           inkscape:connector-curvature="0" /><path
           d="m 51.905,30.163 5.689,0 0,5.689 -5.689,0 0,-5.689 z m 7.815,-2.126 -9.941,0 0,9.941 9.941,0 0,-9.941 z"
           style="fill:#536b8b;fill-opacity:1;fill-rule:nonzero;stroke:none"
           id="path3500"
           inkscape:connector-curvature="0" /><path
           d="m 73.578,29.1 -7.815,0 0,7.815 7.815,0 0,-7.815 z"
           style="fill:#a2baf0;fill-opacity:1;fill-rule:evenodd;stroke:none"
           id="path3502"
           inkscape:connector-curvature="0" /><path
           d="m 66.826,30.163 5.689,0 0,5.689 -5.689,0 0,-5.689 z m 7.815,-2.126 -9.941,0 0,9.941 9.941,0 0,-9.941 z"
           style="fill:#536b8b;fill-opacity:1;fill-rule:nonzero;stroke:none"
           id="path3504"
           inkscape:connector-curvature="0" /><path
           d="m 88.498,29.1 -7.815,0 0,7.815 7.815,0 0,-7.815 z"
           style="fill:#a2baf0;fill-opacity:1;fill-rule:evenodd;stroke:none"
           id="path3506"
           inkscape:connector-curvature="0" /><path
           d="m 81.746,30.163 5.689,0 0,5.689 -5.689,0 0,-5.689 z m 7.815,-2.126 -9.941,0 0,9.941 9.941,0 0,-9.941 z"
           style="fill:#536b8b;fill-opacity:1;fill-rule:nonzero;stroke:none"
           id="path3508"
           inkscape:connector-curvature="0" /><path
           d="m 51.02,63.204 -4.263,0 0,13.145 4.263,0 0,-13.145 z"
           style="fill:#ffffff;fill-opacity:1;fill-rule:nonzero;stroke:none"
           id="path3510"
           inkscape:connector-curvature="0" /><path
           d="m 47.819,64.267 2.137,0 0,11.019 -2.137,0 0,-11.019 z m 4.264,-2.126 -6.389,0 0,15.271 6.389,0 0,-15.271 z"
           style="fill:#536b8b;fill-opacity:1;fill-rule:nonzero;stroke:none"
           id="path3512"
           inkscape:connector-curvature="0" /><path
           d="m 92.584,63.204 -4.263,0 0,13.145 4.263,0 0,-13.145 z"
           style="fill:#ffffff;fill-opacity:1;fill-rule:nonzero;stroke:none"
           id="path3514"
           inkscape:connector-curvature="0" /><path
           d="m 89.384,64.267 2.137,0 0,11.019 -2.137,0 0,-11.019 z m 4.263,-2.126 -6.389,0 0,15.271 6.389,0 0,-15.271 z"
           style="fill:#536b8b;fill-opacity:1;fill-rule:nonzero;stroke:none"
           id="path3516"
           inkscape:connector-curvature="0" /><g
           id="g3518"
           transform="translate(57.4141,25.5459)"><path
             d="m 0,0 c 0,-4.12 -3.34,-7.46 -7.461,-7.46 -4.12,0 -7.46,3.34 -7.46,7.46 0,4.121 3.34,7.46 7.46,7.46 C -3.34,7.46 0,4.121 0,0"
             style="fill:#e8a541;fill-opacity:1;fill-rule:nonzero;stroke:none"
             id="path3520"
             inkscape:connector-curvature="0" /></g><g
           id="g3522"
           transform="translate(49.9531,31.9434)"><path
             d="m 0,0 c -3.527,0 -6.397,-2.87 -6.397,-6.397 0,-3.528 2.87,-6.398 6.397,-6.398 3.528,0 6.398,2.87 6.398,6.398 C 6.398,-2.87 3.528,0 0,0 m 0,-14.921 c -4.7,0 -8.523,3.824 -8.523,8.524 0,4.699 3.823,8.523 8.523,8.523 4.7,0 8.524,-3.824 8.524,-8.523 0,-4.7 -3.824,-8.524 -8.524,-8.524"
             style="fill:#536b8b;fill-opacity:1;fill-rule:nonzero;stroke:none"
             id="path3524"
             inkscape:connector-curvature="0" /></g><g
           id="g3526"
           transform="translate(53.8618,25.5459)"><path
             d="m 0,0 c 0,-4.12 -3.34,-7.46 -7.461,-7.46 -4.12,0 -7.46,3.34 -7.46,7.46 0,4.121 3.34,7.46 7.46,7.46 C -3.34,7.46 0,4.121 0,0"
             style="fill:#fdd26a;fill-opacity:1;fill-rule:nonzero;stroke:none"
             id="path3528"
             inkscape:connector-curvature="0" /></g><g
           id="g3530"
           transform="translate(46.4009,31.9434)"><path
             d="m 0,0 c -3.527,0 -6.397,-2.87 -6.397,-6.397 0,-3.528 2.87,-6.398 6.397,-6.398 3.528,0 6.398,2.87 6.398,6.398 C 6.398,-2.87 3.528,0 0,0 m 0,-14.921 c -4.7,0 -8.523,3.824 -8.523,8.524 0,4.699 3.823,8.523 8.523,8.523 4.7,0 8.524,-3.824 8.524,-8.523 0,-4.7 -3.824,-8.524 -8.524,-8.524"
             style="fill:#536b8b;fill-opacity:1;fill-rule:nonzero;stroke:none"
             id="path3532"
             inkscape:connector-curvature="0" /></g><g
           id="g3534"
           transform="translate(46.0464,25.5459)"><path
             d="m 0,0 c 0,-4.12 -3.34,-7.46 -7.461,-7.46 -4.12,0 -7.46,3.34 -7.46,7.46 0,4.121 3.34,7.46 7.46,7.46 C -3.34,7.46 0,4.121 0,0"
             style="fill:#fdd26a;fill-opacity:1;fill-rule:nonzero;stroke:none"
             id="path3536"
             inkscape:connector-curvature="0" /></g><g
           id="g3538"
           transform="translate(38.5854,31.9434)"><path
             d="m 0,0 c -3.527,0 -6.397,-2.87 -6.397,-6.397 0,-3.528 2.87,-6.398 6.397,-6.398 3.528,0 6.398,2.87 6.398,6.398 C 6.398,-2.87 3.528,0 0,0 m 0,-14.921 c -4.7,0 -8.523,3.824 -8.523,8.524 0,4.699 3.823,8.523 8.523,8.523 4.7,0 8.524,-3.824 8.524,-8.523 0,-4.7 -3.824,-8.524 -8.524,-8.524"
             style="fill:#536b8b;fill-opacity:1;fill-rule:nonzero;stroke:none"
             id="path3540"
             inkscape:connector-curvature="0" /></g></g></g></g></svg>