<?xml version="1.0" encoding="UTF-8" standalone="no"?>
<!-- Created with Inkscape (http://www.inkscape.org/) -->

<svg
   xmlns:dc="http://purl.org/dc/elements/1.1/"
   xmlns:cc="http://creativecommons.org/ns#"
   xmlns:rdf="http://www.w3.org/1999/02/22-rdf-syntax-ns#"
   xmlns:svg="http://www.w3.org/2000/svg"
   xmlns="http://www.w3.org/2000/svg"
   xmlns:sodipodi="http://sodipodi.sourceforge.net/DTD/sodipodi-0.dtd"
   xmlns:inkscape="http://www.inkscape.org/namespaces/inkscape"
   id="svg3655"
   version="1.1"
   inkscape:version="0.91 r13725"
   xml:space="preserve"
   width="72.747498"
   height="64.556625"
   viewBox="0 0 72.747498 64.556625"
   sodipodi:docname="code.svg"><metadata
     id="metadata3661"><rdf:RDF><cc:Work
         rdf:about=""><dc:format>image/svg+xml</dc:format><dc:type
           rdf:resource="http://purl.org/dc/dcmitype/StillImage" /><dc:title></dc:title></cc:Work></rdf:RDF></metadata><defs
     id="defs3659"><clipPath
       clipPathUnits="userSpaceOnUse"
       id="clipPath3669"><path
         d="M 0,114 122,114 122,0 0,0 0,114 Z"
         id="path3671"
         inkscape:connector-curvature="0" /></clipPath></defs><sodipodi:namedview
     pagecolor="#ffffff"
     bordercolor="#666666"
     borderopacity="1"
     objecttolerance="10"
     gridtolerance="10"
     guidetolerance="10"
     inkscape:pageopacity="0"
     inkscape:pageshadow="2"
     inkscape:window-width="1867"
     inkscape:window-height="1056"
     id="namedview3657"
     showgrid="false"
     fit-margin-top="0"
     fit-margin-left="0"
     fit-margin-right="0"
     fit-margin-bottom="0"
     inkscape:zoom="6.4491228"
     inkscape:cx="36.422625"
     inkscape:cy="37.7585"
     inkscape:window-x="53"
     inkscape:window-y="24"
     inkscape:window-maximized="1"
     inkscape:current-layer="g3663" /><g
     id="g3663"
     inkscape:groupmode="layer"
     inkscape:label="Code_from_Anywhere_icon"
     transform="matrix(1.25,0,0,-1.25,-39.827375,98.048125)"><g
       id="g3665"><g
         id="g3667"
         clip-path="url(#clipPath3669)"><g
           id="g3673"
           transform="translate(36.1929,41.2754)"><path
             d="m 0,0 c -1.909,0 -3.456,1.548 -3.456,3.456 l 0,29.376 c 0,1.909 1.547,3.456 3.456,3.456 l 49.536,0 c 1.909,0 3.456,-1.547 3.456,-3.456 l 0,-29.376 C 52.992,1.548 51.445,0 49.536,0 L 0,0 Z"
             style="fill:#a2baf0;fill-opacity:1;fill-rule:evenodd;stroke:none"
             id="path3675"
             inkscape:connector-curvature="0" /></g><g
           id="g3677"
           transform="translate(36.1929,76.6885)"><path
             d="m 0,0 c -1.423,0 -2.581,-1.158 -2.581,-2.581 l 0,-29.376 c 0,-1.423 1.158,-2.581 2.581,-2.581 l 49.536,0 c 1.423,0 2.581,1.158 2.581,2.581 l 0,29.376 C 52.117,-1.158 50.959,0 49.536,0 L 0,0 Z m 49.536,-36.288 -49.536,0 c -2.388,0 -4.331,1.943 -4.331,4.331 l 0,29.376 c 0,2.388 1.943,4.331 4.331,4.331 l 49.536,0 c 2.388,0 4.331,-1.943 4.331,-4.331 l 0,-29.376 c 0,-2.388 -1.943,-4.331 -4.331,-4.331"
             style="fill:#536b8b;fill-opacity:1;fill-rule:nonzero;stroke:none"
             id="path3679"
             inkscape:connector-curvature="0" /></g><path
           d="m 39.936,45.208 42.051,0 0,28.422 -42.051,0 0,-28.422 z"
           style="fill:#ffffff;fill-opacity:1;fill-rule:evenodd;stroke:none"
           id="path3681"
           inkscape:connector-curvature="0" /><path
           d="m 40.811,46.083 40.301,0 0,26.672 -40.301,0 0,-26.672 z m 41.175,-1.75 -42.05,0 c -0.484,0 -0.875,0.392 -0.875,0.875 l 0,28.422 c 0,0.484 0.391,0.875 0.875,0.875 l 42.05,0 c 0.484,0 0.875,-0.391 0.875,-0.875 l 0,-28.422 c 0,-0.483 -0.391,-0.875 -0.875,-0.875"
           style="fill:#536b8b;fill-opacity:1;fill-rule:nonzero;stroke:none"
           id="path3683"
           inkscape:connector-curvature="0" /><g
           id="g3685"
           transform="translate(46.0156,45.2344)"><path
             d="m 0,0 c -3.583,0 -6.487,-2.904 -6.487,-6.487 0,-3.582 5.675,-10.662 5.675,-10.662 0.446,-0.557 1.177,-0.557 1.623,0 0,0 5.674,7.08 5.674,10.662 C 6.485,-2.904 3.582,0 0,0 m 0,-8.649 c -1.195,0 -2.162,0.968 -2.162,2.162 0,1.195 0.967,2.163 2.162,2.163 1.193,0 2.162,-0.968 2.162,-2.163 0,-1.194 -0.969,-2.162 -2.162,-2.162"
             style="fill:#f1877a;fill-opacity:1;fill-rule:evenodd;stroke:none"
             id="path3687"
             inkscape:connector-curvature="0" /></g><g
           id="g3689"
           transform="translate(46.0156,40.0352)"><path
             d="m 0,0 c -0.709,0 -1.287,-0.578 -1.287,-1.288 0,-0.709 0.578,-1.287 1.287,-1.287 0.709,0 1.287,0.578 1.287,1.287 C 1.287,-0.578 0.709,0 0,0 m 0,-4.325 c -1.675,0 -3.037,1.363 -3.037,3.037 0,1.675 1.362,3.038 3.037,3.038 1.674,0 3.037,-1.363 3.037,-3.038 0,-1.674 -1.363,-3.037 -3.037,-3.037 m 0,8.649 c -3.094,0 -5.612,-2.517 -5.612,-5.612 0,-2.686 3.958,-8.212 5.483,-10.114 0.088,-0.112 0.169,-0.112 0.257,0 1.525,1.903 5.482,7.431 5.482,10.114 0,3.095 -2.517,5.612 -5.61,5.612 m 0,-17.566 c -0.57,0 -1.115,0.271 -1.495,0.745 -0.6,0.749 -5.867,7.429 -5.867,11.209 0,4.059 3.303,7.362 7.362,7.362 4.058,0 7.36,-3.303 7.36,-7.362 0,-3.78 -5.266,-10.46 -5.866,-11.209 C 1.114,-12.971 0.569,-13.242 0,-13.242"
             style="fill:#536b8b;fill-opacity:1;fill-rule:nonzero;stroke:none"
             id="path3691"
             inkscape:connector-curvature="0" /></g><g
           id="g3693"
           transform="translate(46.1821,68.2744)"><path
             d="M 0,0 22.396,0"
             style="fill:#536b8b;fill-opacity:1;fill-rule:nonzero;stroke:none"
             id="path3695"
             inkscape:connector-curvature="0" /></g><g
           id="g3697"
           transform="translate(68.5776,67.2114)"><path
             d="m 0,0 -22.396,0 c -0.586,0 -1.062,0.476 -1.062,1.063 0,0.587 0.476,1.063 1.062,1.063 L 0,2.126 C 0.587,2.126 1.063,1.65 1.063,1.063 1.063,0.476 0.587,0 0,0"
             style="fill:#fdd26a;fill-opacity:1;fill-rule:nonzero;stroke:none"
             id="path3699"
             inkscape:connector-curvature="0" /></g><path
           d="m 59.162,63.119 -12.789,0 0,2.126 12.789,0 0,-2.126 z"
           style="fill:#f1877a;fill-opacity:1;fill-rule:nonzero;stroke:none"
           id="path3701"
           inkscape:connector-curvature="0" /><path
           d="m 70.571,63.119 -6.865,0 0,2.126 6.865,0 0,-2.126 z"
           style="fill:#f1877a;fill-opacity:1;fill-rule:nonzero;stroke:none"
           id="path3703"
           inkscape:connector-curvature="0" /><path
           d="m 69.639,59.328 -23.457,0 0,2.126 23.457,0 0,-2.126 z"
           style="fill:#536b8b;fill-opacity:1;fill-rule:nonzero;stroke:none"
           id="path3705"
           inkscape:connector-curvature="0" /><path
           d="m 52.087,51.511 -5.905,0 0,2.126 5.905,0 0,-2.126 z"
           style="fill:#536b8b;fill-opacity:1;fill-rule:nonzero;stroke:none"
           id="path3707"
           inkscape:connector-curvature="0" /><path
           d="m 64.067,55.369 -17.885,0 0,2.126 17.885,0 0,-2.126 z"
           style="fill:#f1877a;fill-opacity:1;fill-rule:nonzero;stroke:none"
           id="path3709"
           inkscape:connector-curvature="0" /><g
           id="g3711"
           transform="translate(74.2651,30.1162)"><path
             d="m 0,0 c 0,-1.337 -1.084,-2.421 -2.422,-2.421 l -14.932,0 c -1.338,0 -2.422,1.084 -2.422,2.421 l 0,29.866 c 0,1.337 1.084,2.421 2.422,2.421 l 14.932,0 C -1.084,32.287 0,31.203 0,29.866 L 0,0 Z"
             style="fill:#a2baf0;fill-opacity:1;fill-rule:evenodd;stroke:none"
             id="path3713"
             inkscape:connector-curvature="0" /></g><g
           id="g3715"
           transform="translate(56.9106,61.5278)"><path
             d="m 0,0 c -0.853,0 -1.546,-0.693 -1.546,-1.546 l 0,-29.866 c 0,-0.852 0.693,-1.546 1.546,-1.546 l 14.933,0 c 0.853,0 1.546,0.694 1.546,1.546 l 0,29.866 C 16.479,-0.693 15.786,0 14.933,0 L 0,0 Z m 14.933,-34.708 -14.933,0 c -1.818,0 -3.296,1.479 -3.296,3.296 l 0,29.866 c 0,1.817 1.478,3.296 3.296,3.296 l 14.933,0 c 1.817,0 3.296,-1.479 3.296,-3.296 l 0,-29.866 c 0,-1.817 -1.479,-3.296 -3.296,-3.296"
             style="fill:#536b8b;fill-opacity:1;fill-rule:nonzero;stroke:none"
             id="path3717"
             inkscape:connector-curvature="0" /></g><path
           d="m 74.265,34.477 -19.756,0 0,21.716 19.756,0 0,-21.716 z"
           style="fill:#ffffff;fill-opacity:1;fill-rule:evenodd;stroke:none"
           id="path3719"
           inkscape:connector-curvature="0" /><path
           d="m 55.384,35.352 18.006,0 0,19.966 -18.006,0 0,-19.966 z m 18.881,-1.75 -19.756,0 c -0.484,0 -0.875,0.391 -0.875,0.875 l 0,21.716 c 0,0.483 0.391,0.875 0.875,0.875 l 19.756,0 c 0.484,0 0.875,-0.392 0.875,-0.875 l 0,-21.716 c 0,-0.484 -0.391,-0.875 -0.875,-0.875"
           style="fill:#536b8b;fill-opacity:1;fill-rule:nonzero;stroke:none"
           id="path3721"
           inkscape:connector-curvature="0" /><g
           id="g3723"
           transform="translate(65.7949,31.1855)"><path
             d="m 0,0 c 0,-0.783 -0.635,-1.418 -1.418,-1.418 -0.783,0 -1.418,0.635 -1.418,1.418 0,0.783 0.635,1.418 1.418,1.418 C -0.635,1.418 0,0.783 0,0"
             style="fill:#536b8b;fill-opacity:1;fill-rule:nonzero;stroke:none"
             id="path3725"
             inkscape:connector-curvature="0" /></g><g
           id="g3727"
           transform="translate(86.8022,59.4194)"><path
             d="m 0,0 c 0,-0.783 -0.635,-1.418 -1.418,-1.418 -0.783,0 -1.418,0.635 -1.418,1.418 0,0.783 0.635,1.418 1.418,1.418 C -0.635,1.418 0,0.783 0,0"
             style="fill:#536b8b;fill-opacity:1;fill-rule:nonzero;stroke:none"
             id="path3729"
             inkscape:connector-curvature="0" /></g><g
           id="g3731"
           transform="translate(58.8491,51.6079)"><path
             d="M 0,0 10.62,0"
             style="fill:#536b8b;fill-opacity:1;fill-rule:nonzero;stroke:none"
             id="path3733"
             inkscape:connector-curvature="0" /></g><g
           id="g3735"
           transform="translate(69.4692,50.5449)"><path
             d="m 0,0 -10.62,0 c -0.587,0 -1.063,0.476 -1.063,1.063 0,0.587 0.476,1.063 1.063,1.063 L 0,2.126 C 0.587,2.126 1.063,1.65 1.063,1.063 1.063,0.476 0.587,0 0,0"
             style="fill:#fdd26a;fill-opacity:1;fill-rule:nonzero;stroke:none"
             id="path3737"
             inkscape:connector-curvature="0" /></g><path
           d="m 65.004,46.452 -6.064,0 0,2.126 6.064,0 0,-2.126 z"
           style="fill:#f1877a;fill-opacity:1;fill-rule:nonzero;stroke:none"
           id="path3739"
           inkscape:connector-curvature="0" /><path
           d="m 69.973,42.661 -11.124,0 0,2.126 11.124,0 0,-2.126 z"
           style="fill:#536b8b;fill-opacity:1;fill-rule:nonzero;stroke:none"
           id="path3741"
           inkscape:connector-curvature="0" /><g
           id="g3743"
           transform="translate(66.9048,58.8911)"><path
             d="m 0,0 -4.988,0 c -0.276,0 -0.5,0.224 -0.5,0.5 0,0.276 0.224,0.5 0.5,0.5 L 0,1 C 0.276,1 0.5,0.776 0.5,0.5 0.5,0.224 0.276,0 0,0"
             style="fill:#536b8b;fill-opacity:1;fill-rule:nonzero;stroke:none"
             id="path3745"
             inkscape:connector-curvature="0" /></g><g
           id="g3747"
           transform="translate(36.0752,56.4253)"><path
             d="m 0,0 c -0.276,0 -0.5,0.224 -0.5,0.5 l 0,4.988 c 0,0.277 0.224,0.5 0.5,0.5 0.276,0 0.5,-0.223 0.5,-0.5 L 0.5,0.5 C 0.5,0.224 0.276,0 0,0"
             style="fill:#536b8b;fill-opacity:1;fill-rule:nonzero;stroke:none"
             id="path3749"
             inkscape:connector-curvature="0" /></g><path
           d="m 67.33,38.703 -8.481,0 0,2.126 8.481,0 0,-2.126 z"
           style="fill:#f1877a;fill-opacity:1;fill-rule:nonzero;stroke:none"
           id="path3751"
           inkscape:connector-curvature="0" /></g></g></g></svg>