<?xml version="1.0" encoding="UTF-8" standalone="no"?>
<!-- Created with Inkscape (http://www.inkscape.org/) -->

<svg
   xmlns:dc="http://purl.org/dc/elements/1.1/"
   xmlns:cc="http://creativecommons.org/ns#"
   xmlns:rdf="http://www.w3.org/1999/02/22-rdf-syntax-ns#"
   xmlns:svg="http://www.w3.org/2000/svg"
   xmlns="http://www.w3.org/2000/svg"
   xmlns:sodipodi="http://sodipodi.sourceforge.net/DTD/sodipodi-0.dtd"
   xmlns:inkscape="http://www.inkscape.org/namespaces/inkscape"
   id="svg2"
   version="1.1"
   inkscape:version="0.91 r13725"
   xml:space="preserve"
   width="52.200001"
   height="52.200001"
   viewBox="0 0 52.200001 52.200001"
   sodipodi:docname="codio_ide.svg"><metadata
     id="metadata8"><rdf:RDF><cc:Work
         rdf:about=""><dc:format>image/svg+xml</dc:format><dc:type
           rdf:resource="http://purl.org/dc/dcmitype/StillImage" /><dc:title></dc:title></cc:Work></rdf:RDF></metadata><defs
     id="defs6"><clipPath
       clipPathUnits="userSpaceOnUse"
       id="clipPath16"><path
         d="M 0,114 122,114 122,0 0,0 0,114 Z"
         id="path18"
         inkscape:connector-curvature="0" /></clipPath></defs><sodipodi:namedview
     pagecolor="#ffffff"
     bordercolor="#666666"
     borderopacity="1"
     objecttolerance="10"
     gridtolerance="10"
     guidetolerance="10"
     inkscape:pageopacity="0"
     inkscape:pageshadow="2"
     inkscape:window-width="748"
     inkscape:window-height="480"
     id="namedview4"
     showgrid="false"
     fit-margin-top="0"
     fit-margin-left="0"
     fit-margin-right="0"
     fit-margin-bottom="0"
     inkscape:zoom="1.6561404"
     inkscape:cx="26.368125"
     inkscape:cy="23.932"
     inkscape:window-x="307"
     inkscape:window-y="215"
     inkscape:window-maximized="0"
     inkscape:current-layer="g10" /><g
     id="g10"
     inkscape:groupmode="layer"
     inkscape:label="Codio_IDE"
     transform="matrix(1.25,0,0,-1.25,-49.881875,99.518)"><g
       id="g12"><g
         id="g14"
         clip-path="url(#clipPath16)"><g
           id="g20"
           transform="translate(81.6655,58.7334)"><path
             d="m 0,0 c 0,-11.531 -9.348,-20.879 -20.88,-20.879 -11.532,0 -20.88,9.348 -20.88,20.879 0,11.532 9.348,20.881 20.88,20.881 C -9.348,20.881 0,11.532 0,0"
             style="fill:#f06050;fill-opacity:1;fill-rule:nonzero;stroke:none"
             id="path22"
             inkscape:connector-curvature="0" /></g><g
           id="g24"
           transform="translate(66.6079,66.5605)"><path
             d="m 0,0 c 0,-3.216 -2.607,-5.822 -5.823,-5.822 -3.215,0 -5.822,2.606 -5.822,5.822 0,3.216 2.607,5.822 5.822,5.822 C -2.607,5.822 0,3.216 0,0"
             style="fill:#ffffff;fill-opacity:1;fill-rule:nonzero;stroke:none"
             id="path26"
             inkscape:connector-curvature="0" /></g><g
           id="g28"
           transform="translate(58.752,52.9121)"><path
             d="m 0,0 c 0,-3.216 -2.607,-5.822 -5.823,-5.822 -3.215,0 -5.822,2.606 -5.822,5.822 0,3.216 2.607,5.822 5.822,5.822 C -2.607,5.822 0,3.216 0,0"
             style="fill:#ffffff;fill-opacity:1;fill-rule:nonzero;stroke:none"
             id="path30"
             inkscape:connector-curvature="0" /></g><g
           id="g32"
           transform="translate(74.4639,52.9121)"><path
             d="m 0,0 c 0,-3.216 -2.607,-5.822 -5.823,-5.822 -3.215,0 -5.822,2.606 -5.822,5.822 0,3.216 2.607,5.822 5.822,5.822 C -2.607,5.822 0,3.216 0,0"
             style="fill:#ffffff;fill-opacity:1;fill-rule:nonzero;stroke:none"
             id="path34"
             inkscape:connector-curvature="0" /></g></g></g></g></svg>