<?xml version="1.0" encoding="UTF-8" standalone="no"?>
<!-- Created with Inkscape (http://www.inkscape.org/) -->

<svg
   xmlns:dc="http://purl.org/dc/elements/1.1/"
   xmlns:cc="http://creativecommons.org/ns#"
   xmlns:rdf="http://www.w3.org/1999/02/22-rdf-syntax-ns#"
   xmlns:svg="http://www.w3.org/2000/svg"
   xmlns="http://www.w3.org/2000/svg"
   xmlns:sodipodi="http://sodipodi.sourceforge.net/DTD/sodipodi-0.dtd"
   xmlns:inkscape="http://www.inkscape.org/namespaces/inkscape"
   id="svg3866"
   version="1.1"
   inkscape:version="0.91 r13725"
   xml:space="preserve"
   width="84.448753"
   height="79.381248"
   viewBox="0 0 84.448753 79.381248"
   sodipodi:docname="curriculum.svg"><metadata
     id="metadata3872"><rdf:RDF><cc:Work
         rdf:about=""><dc:format>image/svg+xml</dc:format><dc:type
           rdf:resource="http://purl.org/dc/dcmitype/StillImage" /><dc:title></dc:title></cc:Work></rdf:RDF></metadata><defs
     id="defs3870"><clipPath
       clipPathUnits="userSpaceOnUse"
       id="clipPath3886"><path
         d="M 0,114 122,114 122,0 0,0 0,114 Z"
         id="path3888"
         inkscape:connector-curvature="0" /></clipPath></defs><sodipodi:namedview
     pagecolor="#ffffff"
     bordercolor="#666666"
     borderopacity="1"
     objecttolerance="10"
     gridtolerance="10"
     guidetolerance="10"
     inkscape:pageopacity="0"
     inkscape:pageshadow="2"
     inkscape:window-width="1867"
     inkscape:window-height="1056"
     id="namedview3868"
     showgrid="false"
     fit-margin-top="0"
     fit-margin-left="0"
     fit-margin-right="0"
     fit-margin-bottom="0"
     inkscape:zoom="6.4491228"
     inkscape:cx="48.6475"
     inkscape:cy="40.98"
     inkscape:window-x="53"
     inkscape:window-y="24"
     inkscape:window-maximized="1"
     inkscape:current-layer="g3874" /><g
     id="g3874"
     inkscape:groupmode="layer"
     inkscape:label="Curriculum_mapped_icon"
     transform="matrix(1.25,0,0,-1.25,-27.6025,109.65125)"><path
       d="m 56.449,46.121 -33.492,0 0,33.492 33.492,0 0,-33.492 z"
       style="fill:#ffffff;fill-opacity:1;fill-rule:evenodd;stroke:none"
       id="path3876"
       inkscape:connector-curvature="0" /><path
       d="m 23.832,46.996 31.742,0 0,31.742 -31.742,0 0,-31.742 z m 33.492,-1.75 -35.242,0 0,35.242 35.242,0 0,-35.242 z"
       style="fill:#536b8b;fill-opacity:1;fill-rule:nonzero;stroke:none"
       id="path3878"
       inkscape:connector-curvature="0" /><path
       d="m 27.395,74.476 19.02,0 0,-19.02 -19.02,0 0,19.02 z"
       style="fill:#a2baf0;fill-opacity:1;fill-rule:nonzero;stroke:none"
       id="path3880"
       inkscape:connector-curvature="0" /><g
       id="g3882"><g
         id="g3884"
         clip-path="url(#clipPath3886)"><g
           id="g3890"
           transform="translate(33.7954,59.4707)"><path
             d="m 0,0 c 0.331,-0.514 0.604,-0.936 1.207,-0.936 0.573,0 0.966,0.242 0.966,1.118 l 0,6.068 1.781,0 0,-6.099 c 0,-1.841 -1.086,-2.687 -2.657,-2.687 -1.419,0 -2.263,0.756 -2.686,1.63"
             style="fill:#ffffff;fill-opacity:1;fill-rule:nonzero;stroke:none"
             id="path3892"
             inkscape:connector-curvature="0" /></g><g
           id="g3894"
           transform="translate(40.1646,59.6221)"><path
             d="m 0,0 c 0.393,-0.635 0.875,-1.087 1.751,-1.087 0.755,0 1.208,0.362 1.208,0.875 0,0.604 -0.482,0.816 -1.298,1.178 l -0.453,0.18 c -1.298,0.544 -2.144,1.239 -2.144,2.688 0,1.328 1.026,2.354 2.627,2.354 1.147,0 1.962,-0.392 2.536,-1.418 L 2.838,3.864 C 2.537,4.407 2.204,4.619 1.691,4.619 1.178,4.619 0.846,4.287 0.846,3.864 0.846,3.321 1.178,3.109 1.932,2.777 L 2.386,2.596 c 1.509,-0.664 2.385,-1.329 2.385,-2.808 0,-1.6 -1.269,-2.475 -2.959,-2.475 -1.66,0 -2.748,0.785 -3.261,1.812"
             style="fill:#ffffff;fill-opacity:1;fill-rule:nonzero;stroke:none"
             id="path3896"
             inkscape:connector-curvature="0" /></g><path
           d="m 88.766,53.354 -33.492,0 0,33.492 33.492,0 0,-33.492 z"
           style="fill:#ffffff;fill-opacity:1;fill-rule:evenodd;stroke:none"
           id="path3898"
           inkscape:connector-curvature="0" /><path
           d="m 56.149,54.229 31.742,0 0,31.742 -31.742,0 0,-31.742 z m 33.492,-1.75 -35.242,0 0,35.242 35.242,0 0,-35.242 z"
           style="fill:#536b8b;fill-opacity:1;fill-rule:nonzero;stroke:none"
           id="path3900"
           inkscape:connector-curvature="0" /><g
           id="g3902"
           transform="translate(70.8169,77.2598)"><path
             d="M 0,0 C 0.316,0.569 0.809,1.004 1.311,1.409 1.742,1.755 2.155,2.128 2.515,2.551 2.964,3.076 3.346,3.684 3.475,4.373 3.595,4.986 3.457,5.666 3.04,6.142 3.133,5.692 3.182,5.226 3.08,4.773 2.956,4.155 2.595,3.618 2.16,3.169 1.373,2.351 0.382,1.76 -0.422,0.956 -0.711,0.654 -1,0.329 -1.128,-0.075 -1.257,-0.471 -1.182,-0.906 -1.013,-1.279 -0.764,-1.812 -0.386,-2.266 0.013,-2.693 0.396,-3.097 0.805,-3.479 1.222,-3.848 0.845,-3.035 0.151,-2.395 -0.146,-1.533 -0.329,-1.03 -0.266,-0.462 0,0"
             style="fill:#f1877a;fill-opacity:1;fill-rule:nonzero;stroke:none"
             id="path3904"
             inkscape:connector-curvature="0" /></g><g
           id="g3906"
           transform="translate(73.1904,76.3843)"><path
             d="M 0,0 C -0.103,0.24 -0.139,0.52 -0.054,0.773 0.057,1.116 0.297,1.396 0.55,1.64 1.248,2.302 2.093,2.773 2.901,3.289 1.879,2.995 0.871,2.591 0.009,1.956 -0.538,1.547 -1.045,0.978 -1.12,0.271 c -0.076,-0.706 0.293,-1.373 0.733,-1.897 0.213,-0.235 0.396,-0.524 0.404,-0.853 0.009,-0.44 -0.24,-0.849 -0.559,-1.137 0.075,0.009 0.128,0.075 0.19,0.11 0.48,0.307 0.942,0.693 1.178,1.222 0.155,0.361 0.12,0.787 -0.084,1.12 C 0.501,-0.773 0.186,-0.426 0,0"
             style="fill:#f1877a;fill-opacity:1;fill-rule:nonzero;stroke:none"
             id="path3908"
             inkscape:connector-curvature="0" /></g><g
           id="g3910"
           transform="translate(75.9941,70.0835)"><path
             d="M 0,0 C -0.058,-0.035 -0.107,-0.08 -0.151,-0.129 0.622,0.067 1.395,0.36 2.021,0.862 2.368,1.151 2.675,1.533 2.741,1.991 2.804,2.387 2.64,2.795 2.346,3.057 1.99,3.382 1.488,3.502 1.018,3.439 0.746,3.404 0.448,3.346 0.262,3.12 0.484,3.164 0.702,3.253 0.933,3.23 1.417,3.204 1.893,2.849 1.982,2.36 2.066,1.937 1.862,1.52 1.6,1.2 1.168,0.684 0.586,0.315 0,0"
             style="fill:#536b8b;fill-opacity:1;fill-rule:nonzero;stroke:none"
             id="path3912"
             inkscape:connector-curvature="0" /></g><g
           id="g3914"
           transform="translate(67.2798,72.043)"><path
             d="M 0,0 C 0.582,-0.155 1.182,-0.2 1.777,-0.24 2.311,-0.275 2.844,-0.284 3.381,-0.28 4.768,-0.257 6.164,-0.164 7.523,0.138 7.652,0.169 7.794,0.191 7.91,0.271 8.137,0.418 8.385,0.534 8.63,0.649 7.523,0.471 6.412,0.32 5.292,0.249 4.159,0.178 3.017,0.133 1.88,0.209 1.556,0.24 1.222,0.258 0.92,0.382 0.849,0.414 0.751,0.476 0.787,0.569 0.854,0.689 0.986,0.747 1.102,0.809 1.591,1.04 2.124,1.168 2.644,1.32 1.751,1.333 0.862,1.106 0.044,0.755 -0.138,0.667 -0.342,0.596 -0.489,0.445 -0.546,0.382 -0.546,0.276 -0.48,0.222 -0.346,0.103 -0.169,0.049 0,0"
             style="fill:#536b8b;fill-opacity:1;fill-rule:nonzero;stroke:none"
             id="path3916"
             inkscape:connector-curvature="0" /></g><g
           id="g3918"
           transform="translate(74.4785,70.8208)"><path
             d="m 0,0 c -0.778,-0.138 -1.56,-0.266 -2.346,-0.306 -0.862,-0.058 -1.724,-0.009 -2.578,0.08 -0.164,0.022 -0.328,0.048 -0.475,0.124 -0.075,0.045 -0.151,0.116 -0.147,0.209 0.009,0.147 0.134,0.249 0.223,0.356 -0.276,-0.098 -0.552,-0.2 -0.782,-0.383 -0.099,-0.075 -0.196,-0.195 -0.169,-0.328 0.04,-0.156 0.191,-0.249 0.324,-0.32 0.329,-0.169 0.698,-0.244 1.057,-0.311 0.912,-0.147 1.84,-0.151 2.756,-0.089 0.969,0.075 1.932,0.236 2.87,0.51 C 0.467,-0.337 0.213,-0.199 0,0"
             style="fill:#536b8b;fill-opacity:1;fill-rule:nonzero;stroke:none"
             id="path3920"
             inkscape:connector-curvature="0" /></g><g
           id="g3922"
           transform="translate(69.5952,69.2837)"><path
             d="m 0,0 c -0.25,-0.071 -0.502,-0.156 -0.707,-0.32 -0.102,-0.079 -0.182,-0.218 -0.133,-0.347 0.062,-0.164 0.217,-0.262 0.364,-0.346 0.383,-0.209 0.814,-0.307 1.236,-0.383 0.955,-0.15 1.937,-0.128 2.888,0.041 0.564,0.106 1.129,0.257 1.653,0.493 C 4.959,-0.72 4.626,-0.56 4.306,-0.373 3.75,-0.471 3.19,-0.573 2.622,-0.609 1.871,-0.667 1.11,-0.604 0.36,-0.511 0.182,-0.471 -0.041,-0.453 -0.16,-0.297 -0.222,-0.169 -0.081,-0.076 0,0"
             style="fill:#536b8b;fill-opacity:1;fill-rule:nonzero;stroke:none"
             id="path3924"
             inkscape:connector-curvature="0" /></g><g
           id="g3926"
           transform="translate(75.6738,66.4268)"><path
             d="M 0,0 C 0.622,0.129 1.249,0.275 1.817,0.564 1.995,0.667 2.213,0.778 2.271,0.991 2.302,1.195 2.089,1.302 1.937,1.386 2.031,1.28 2.093,1.124 2,1 1.844,0.791 1.578,0.711 1.342,0.63 0.604,0.422 -0.16,0.337 -0.919,0.253 -2.933,0.071 -4.959,0.026 -6.972,0.196 -7.647,0.266 -8.336,0.342 -8.98,0.582 -9.083,0.626 -9.238,0.67 -9.238,0.809 c 0.04,0.119 0.155,0.186 0.258,0.244 0.462,0.236 0.978,0.364 1.493,0.395 C -7.639,1.537 -7.816,1.546 -7.99,1.542 -8.42,1.528 -8.843,1.417 -9.251,1.28 -9.603,1.151 -9.962,1.008 -10.243,0.751 -10.354,0.653 -10.456,0.466 -10.34,0.333 -10.163,0.142 -9.887,0.093 -9.643,0.036 -8.274,-0.2 -6.887,-0.333 -5.501,-0.382 -3.662,-0.436 -1.809,-0.355 0,0"
             style="fill:#536b8b;fill-opacity:1;fill-rule:nonzero;stroke:none"
             id="path3928"
             inkscape:connector-curvature="0" /></g><g
           id="g3930"
           transform="translate(77.4956,66.1865)"><path
             d="m 0,0 c -0.835,-0.266 -1.702,-0.413 -2.564,-0.533 -1.488,-0.187 -2.99,-0.244 -4.488,-0.2 -0.911,0.035 -1.822,0.098 -2.719,0.249 0.208,-0.142 0.466,-0.186 0.707,-0.253 1.008,-0.214 2.043,-0.254 3.07,-0.285 1.506,-0.026 3.013,0.031 4.497,0.267 0.702,0.124 1.408,0.275 2.039,0.604 0.329,0.173 0.663,0.44 0.72,0.826 C 0.929,0.32 0.449,0.156 0,0"
             style="fill:#536b8b;fill-opacity:1;fill-rule:nonzero;stroke:none"
             id="path3932"
             inkscape:connector-curvature="0" /></g><g
           id="g3934"
           transform="translate(65.7871,59.5967)"><path
             d="m 0,0 c -0.009,-0.444 0.018,-0.893 -0.067,-1.333 -0.089,-0.449 -0.462,-0.76 -0.835,-0.978 0.147,-0.159 0.28,-0.328 0.426,-0.488 0.463,0.177 0.898,0.484 1.143,0.92 0.222,0.408 0.231,0.889 0.239,1.346 0.005,1.635 0,3.27 0.005,4.901 -0.302,0.009 -0.605,0 -0.907,0.009 C -0.004,2.915 0.004,1.457 0,0"
             style="fill:#f1877a;fill-opacity:1;fill-rule:nonzero;stroke:none"
             id="path3936"
             inkscape:connector-curvature="0" /></g><g
           id="g3938"
           transform="translate(69.7549,59.2637)"><path
             d="m 0,0 c -0.24,-0.191 -0.511,-0.369 -0.822,-0.405 -0.222,-0.026 -0.48,0.018 -0.622,0.205 -0.147,0.191 -0.165,0.457 -0.102,0.684 0.053,0.205 0.235,0.347 0.431,0.409 C -0.755,1.017 -0.373,0.995 0,0.995 -0.004,0.662 0,0.333 0,0 m -0.298,3.274 c -0.653,0.072 -1.319,-0.062 -1.919,-0.319 0.04,-0.178 0.08,-0.355 0.124,-0.534 0.449,0.156 0.92,0.276 1.395,0.236 0.219,-0.013 0.454,-0.089 0.583,-0.28 C 0.044,2.128 -0.009,1.822 0,1.542 c -0.369,0 -0.738,0 -1.097,-0.071 -0.392,-0.072 -0.787,-0.222 -1.049,-0.529 -0.293,-0.333 -0.351,-0.817 -0.24,-1.231 0.075,-0.284 0.288,-0.529 0.56,-0.64 0.351,-0.137 0.746,-0.147 1.106,-0.053 0.316,0.08 0.587,0.271 0.84,0.471 0.018,-0.151 0.04,-0.302 0.063,-0.448 l 0.671,0 0,2.98 C 0.857,2.311 0.791,2.608 0.609,2.839 0.391,3.11 0.04,3.234 -0.298,3.274"
             style="fill:#f1877a;fill-opacity:1;fill-rule:nonzero;stroke:none"
             id="path3940"
             inkscape:connector-curvature="0" /></g><g
           id="g3942"
           transform="translate(76.7534,58.8589)"><path
             d="M 0,0 C -0.227,-0.026 -0.489,0.013 -0.635,0.205 -0.777,0.4 -0.795,0.667 -0.733,0.894 -0.675,1.089 -0.502,1.231 -0.315,1.293 0.049,1.422 0.436,1.4 0.813,1.4 0.813,1.071 0.809,0.743 0.818,0.418 0.587,0.213 0.307,0.044 0,0 M 0.524,3.679 C -0.133,3.755 -0.8,3.617 -1.404,3.359 -1.364,3.182 -1.319,3.004 -1.28,2.826 -0.817,2.986 -0.324,3.11 0.169,3.057 0.382,3.035 0.609,2.946 0.716,2.751 0.854,2.506 0.805,2.218 0.813,1.946 0.236,1.951 -0.369,1.937 -0.897,1.68 -1.235,1.516 -1.515,1.208 -1.59,0.836 c -0.08,-0.404 -0.027,-0.88 0.289,-1.173 0.301,-0.276 0.737,-0.325 1.124,-0.289 0.422,0.035 0.795,0.253 1.106,0.52 0.027,-0.146 0.045,-0.294 0.067,-0.445 0.222,-0.013 0.444,0 0.667,-0.009 C 1.675,0.422 1.667,1.4 1.671,2.382 1.675,2.693 1.613,3.018 1.409,3.262 1.191,3.52 0.854,3.639 0.524,3.679"
             style="fill:#f1877a;fill-opacity:1;fill-rule:nonzero;stroke:none"
             id="path3944"
             inkscape:connector-curvature="0" /></g><g
           id="g3946"
           transform="translate(73.0303,59.1523)"><path
             d="M 0,0 C -0.049,0.16 -0.084,0.329 -0.125,0.493 -0.2,0.862 -0.333,1.218 -0.44,1.578 -0.622,2.164 -0.8,2.747 -0.982,3.333 l -0.934,0 c 0.427,-1.396 0.858,-2.787 1.285,-4.181 l 1.066,0 c 0.623,1.324 1.036,2.741 1.298,4.181 l -0.907,0 C 0.675,2.195 0.382,1.08 0,0"
             style="fill:#f1877a;fill-opacity:1;fill-rule:nonzero;stroke:none"
             id="path3948"
             inkscape:connector-curvature="0" /></g><g
           id="g3950"
           transform="translate(78.4927,62.5659)"><path
             d="m 0,0 0.109,0 0,-0.32 0.047,0 0,0.32 0.11,0 0,0.039 L 0,0.039 0,0 Z"
             style="fill:#f1877a;fill-opacity:1;fill-rule:nonzero;stroke:none"
             id="path3952"
             inkscape:connector-curvature="0" /></g><g
           id="g3954"
           transform="translate(79.1333,62.605)"><path
             d="m 0,0 -0.06,0 -0.063,-0.173 c -0.016,-0.046 -0.029,-0.085 -0.038,-0.121 l -0.002,0 c -0.009,0.037 -0.021,0.076 -0.036,0.121 L -0.26,0 l -0.059,0 -0.025,-0.359 0.044,0 0.009,0.154 c 0.003,0.054 0.007,0.114 0.007,0.159 l 0.001,0 c 0.011,-0.043 0.024,-0.089 0.041,-0.14 l 0.059,-0.17 0.036,0 0.063,0.173 c 0.018,0.05 0.032,0.095 0.045,0.137 l 0.001,0 c 0,-0.044 0.003,-0.105 0.006,-0.155 l 0.009,-0.158 0.045,0 L 0,0 Z"
             style="fill:#f1877a;fill-opacity:1;fill-rule:nonzero;stroke:none"
             id="path3956"
             inkscape:connector-curvature="0" /></g><path
           d="m 76.086,25.091 -33.492,0 0,33.492 33.492,0 0,-33.492 z"
           style="fill:#ffffff;fill-opacity:1;fill-rule:evenodd;stroke:none"
           id="path3958"
           inkscape:connector-curvature="0" /><path
           d="m 43.47,25.966 31.742,0 0,31.742 -31.742,0 0,-31.742 z m 33.491,-1.75 -35.242,0 0,35.242 35.242,0 0,-35.242 z"
           style="fill:#536b8b;fill-opacity:1;fill-rule:nonzero;stroke:none"
           id="path3960"
           inkscape:connector-curvature="0" /><g
           id="g3962"
           transform="translate(56.2222,50.9248)"><path
             d="m 0,0 c 0.569,0 1.035,-0.473 1.035,-1.054 0,-0.579 -0.466,-1.048 -1.035,-1.048 -0.572,0 -1.035,0.469 -1.035,1.048 C -1.035,-0.473 -0.572,0 0,0 M 2.982,1.69 C 2.04,1.686 1.139,1.606 0.347,1.465 -1.986,1.053 -2.41,0.19 -2.41,-1.401 l 0,-2.102 5.514,0 0,-0.701 -5.514,0 -2.07,0 c -1.603,0 -3.006,-0.963 -3.445,-2.796 -0.507,-2.1 -0.529,-3.411 0,-5.604 0.392,-1.633 1.328,-2.796 2.93,-2.796 l 1.897,0 0,2.52 c 0,1.819 1.575,3.425 3.445,3.425 l 5.508,0 c 1.534,0 2.758,1.263 2.758,2.803 l 0,5.251 c 0,1.494 -1.261,2.617 -2.758,2.866 -0.947,0.158 -1.93,0.23 -2.873,0.225"
             style="fill:#536b8b;fill-opacity:1;fill-rule:nonzero;stroke:none"
             id="path3964"
             inkscape:connector-curvature="0" /></g><g
           id="g3966"
           transform="translate(62.4243,33.4229)"><path
             d="m 0,0 c 0.572,0 1.035,-0.468 1.035,-1.047 0,-0.582 -0.463,-1.055 -1.035,-1.055 -0.569,0 -1.035,0.473 -1.035,1.055 C -1.035,-0.468 -0.569,0 0,0 m 3.098,13.298 0,-2.448 c 0,-1.899 -1.609,-3.497 -3.445,-3.497 l -5.508,0 c -1.509,0 -2.757,-1.291 -2.757,-2.802 l 0,-5.252 c 0,-1.494 1.299,-2.373 2.757,-2.801 1.746,-0.514 3.419,-0.607 5.508,0 1.389,0.401 2.758,1.21 2.758,2.801 l 0,2.102 -5.509,0 0,0.701 5.509,0 2.757,0 c 1.603,0 2.2,1.118 2.757,2.795 0.576,1.728 0.552,3.39 0,5.605 -0.396,1.596 -1.152,2.796 -2.757,2.796 l -2.07,0 z"
             style="fill:#fdd26a;fill-opacity:1;fill-rule:nonzero;stroke:none"
             id="path3968"
             inkscape:connector-curvature="0" /></g></g></g></g></svg>