<?xml version="1.0" encoding="UTF-8" standalone="no"?>
<!-- Created with Inkscape (http://www.inkscape.org/) -->

<svg
   xmlns:dc="http://purl.org/dc/elements/1.1/"
   xmlns:cc="http://creativecommons.org/ns#"
   xmlns:rdf="http://www.w3.org/1999/02/22-rdf-syntax-ns#"
   xmlns:svg="http://www.w3.org/2000/svg"
   xmlns="http://www.w3.org/2000/svg"
   xmlns:sodipodi="http://sodipodi.sourceforge.net/DTD/sodipodi-0.dtd"
   xmlns:inkscape="http://www.inkscape.org/namespaces/inkscape"
   id="svg4083"
   version="1.1"
   inkscape:version="0.91 r13725"
   xml:space="preserve"
   width="118.30399"
   height="113.17185"
   viewBox="0 0 118.30399 113.17185"
   sodipodi:docname="terminal_access.svg"><metadata
     id="metadata4089"><rdf:RDF><cc:Work
         rdf:about=""><dc:format>image/svg+xml</dc:format><dc:type
           rdf:resource="http://purl.org/dc/dcmitype/StillImage" /><dc:title></dc:title></cc:Work></rdf:RDF></metadata><defs
     id="defs4087"><clipPath
       clipPathUnits="userSpaceOnUse"
       id="clipPath4101"><path
         d="M 0,114 122,114 122,0 0,0 0,114 Z"
         id="path4103"
         inkscape:connector-curvature="0" /></clipPath></defs><sodipodi:namedview
     pagecolor="#ffffff"
     bordercolor="#666666"
     borderopacity="1"
     objecttolerance="10"
     gridtolerance="10"
     guidetolerance="10"
     inkscape:pageopacity="0"
     inkscape:pageshadow="2"
     inkscape:window-width="1867"
     inkscape:window-height="1056"
     id="namedview4085"
     showgrid="false"
     inkscape:zoom="6.4491228"
     inkscape:cx="56.655422"
     inkscape:cy="55.249625"
     inkscape:window-x="53"
     inkscape:window-y="24"
     inkscape:window-maximized="1"
     inkscape:current-layer="g4091"
     fit-margin-top="0"
     fit-margin-left="0"
     fit-margin-right="0"
     fit-margin-bottom="0" /><g
     id="g4091"
     inkscape:groupmode="layer"
     inkscape:label="Full_Terminal_Access_icon"
     transform="matrix(1.25,0,0,-1.25,-19.594578,129.17223)"><g
       id="g4093"
       transform="translate(31.0854,38.0225)"><path
         d="M 0,0 66.386,-17.583 77.983,26.2 11.597,43.784 0,0 Z"
         style="fill:#fdd26a;fill-opacity:1;fill-rule:evenodd;stroke:none"
         id="path4095"
         inkscape:connector-curvature="0" /></g><g
       id="g4097"><g
         id="g4099"
         clip-path="url(#clipPath4101)"><g
           id="g4105"
           transform="translate(32.6138,38.9106)"><path
             d="M 0,0 63.97,-16.943 74.926,24.424 10.957,41.368 0,0 Z m 64.859,-19.722 c -0.106,0 -0.214,0.014 -0.321,0.042 L -1.848,-2.097 c -0.321,0.085 -0.594,0.294 -0.761,0.581 -0.167,0.287 -0.213,0.627 -0.128,0.948 L 8.86,43.216 c 0.085,0.321 0.294,0.594 0.58,0.761 0.287,0.166 0.629,0.212 0.948,0.127 L 76.774,26.521 c 0.668,-0.177 1.066,-0.862 0.889,-1.529 L 66.066,-18.791 c -0.148,-0.561 -0.654,-0.931 -1.207,-0.931"
             style="fill:#536b8b;fill-opacity:1;fill-rule:nonzero;stroke:none"
             id="path4107"
             inkscape:connector-curvature="0" /></g><path
           d="m 29.786,38.533 68.675,0 0,45.293 -68.675,0 0,-45.293 z"
           style="fill:#dbf9ff;fill-opacity:1;fill-rule:evenodd;stroke:none"
           id="path4109"
           inkscape:connector-curvature="0" /><path
           d="m 31.036,39.783 66.175,0 0,42.793 -66.175,0 0,-42.793 z m 67.425,-2.5 -68.675,0 c -0.69,0 -1.25,0.56 -1.25,1.25 l 0,45.294 c 0,0.69 0.56,1.25 1.25,1.25 l 68.675,0 c 0.691,0 1.25,-0.56 1.25,-1.25 l 0,-45.294 c 0,-0.69 -0.559,-1.25 -1.25,-1.25"
           style="fill:#536b8b;fill-opacity:1;fill-rule:nonzero;stroke:none"
           id="path4111"
           inkscape:connector-curvature="0" /><g
           id="g4113"
           transform="translate(59.9976,56.8774)"><path
             d="m 0,0 -18.887,0 c -0.587,0 -1.063,0.476 -1.063,1.063 0,0.587 0.476,1.063 1.063,1.063 L 0,2.126 C 0.587,2.126 1.063,1.65 1.063,1.063 1.063,0.476 0.587,0 0,0"
             style="fill:#536b8b;fill-opacity:1;fill-rule:nonzero;stroke:none"
             id="path4115"
             inkscape:connector-curvature="0" /></g><g
           id="g4117"
           transform="translate(31.1777,37.4858)"><path
             d="M 0,0 65.187,21.609 50.935,64.602 -14.252,42.993 0,0 Z"
             style="fill:#ffffff;fill-opacity:1;fill-rule:evenodd;stroke:none"
             id="path4119"
             inkscape:connector-curvature="0" /></g><g
           id="g4121"
           transform="translate(18.5054,79.6855)"><path
             d="M 0,0 13.465,-40.62 76.28,-19.797 62.814,20.823 0,0 Z m 12.672,-43.45 c -0.193,0 -0.385,0.045 -0.561,0.133 -0.296,0.149 -0.521,0.409 -0.625,0.724 L -2.766,0.399 c -0.217,0.656 0.138,1.363 0.793,1.58 l 65.187,21.61 c 0.315,0.104 0.659,0.079 0.954,-0.069 0.296,-0.149 0.521,-0.41 0.626,-0.724 l 14.252,-42.993 c 0.217,-0.656 -0.138,-1.363 -0.793,-1.58 L 13.066,-43.386 c -0.128,-0.043 -0.261,-0.064 -0.394,-0.064"
             style="fill:#536b8b;fill-opacity:1;fill-rule:nonzero;stroke:none"
             id="path4123"
             inkscape:connector-curvature="0" /></g><g
           id="g4125"
           transform="translate(69.0186,88.5376)"><path
             d="m 0,0 c -0.446,0 -0.861,0.282 -1.009,0.729 -0.184,0.557 0.117,1.158 0.675,1.343 L 6.987,4.499 C 7.544,4.685 8.146,4.382 8.331,3.825 8.515,3.268 8.213,2.666 7.656,2.481 L 0.334,0.054 C 0.224,0.018 0.111,0 0,0 m -31.812,-10.545 c -0.445,0 -0.86,0.282 -1.008,0.728 -0.185,0.557 0.117,1.159 0.674,1.343 l 25.423,8.428 c 0.555,0.184 1.158,-0.117 1.343,-0.674 0.185,-0.557 -0.117,-1.159 -0.674,-1.343 l -25.423,-8.428 c -0.111,-0.037 -0.224,-0.054 -0.335,-0.054"
             style="fill:#f1877a;fill-opacity:1;fill-rule:nonzero;stroke:none"
             id="path4127"
             inkscape:connector-curvature="0" /></g><g
           id="g4129"
           transform="translate(39.23,71.8906)"><path
             d="m 0,0 c -0.446,0 -0.861,0.282 -1.009,0.729 -0.184,0.557 0.117,1.158 0.675,1.343 L 20.604,9.013 C 21.161,9.198 21.763,8.896 21.947,8.338 22.132,7.781 21.83,7.18 21.273,6.995 L 0.334,0.054 C 0.224,0.018 0.111,0 0,0"
             style="fill:#536b8b;fill-opacity:1;fill-rule:nonzero;stroke:none"
             id="path4131"
             inkscape:connector-curvature="0" /></g><g
           id="g4133"
           transform="translate(41.2524,65.7886)"><path
             d="m 0,0 c -0.446,0 -0.861,0.282 -1.009,0.729 -0.184,0.557 0.117,1.158 0.675,1.343 L 17.593,8.015 C 18.148,8.199 18.751,7.898 18.936,7.34 19.121,6.783 18.819,6.182 18.262,5.997 L 0.334,0.054 C 0.224,0.018 0.111,0 0,0"
             style="fill:#536b8b;fill-opacity:1;fill-rule:nonzero;stroke:none"
             id="path4135"
             inkscape:connector-curvature="0" /></g><g
           id="g4137"
           transform="translate(66.8452,81.0449)"><path
             d="m 0,0 c -0.446,0 -0.861,0.282 -1.009,0.729 -0.184,0.557 0.117,1.158 0.675,1.343 L 7.75,4.752 C 8.305,4.936 8.909,4.635 9.094,4.078 9.278,3.521 8.977,2.919 8.419,2.734 L 0.334,0.054 C 0.224,0.018 0.111,0 0,0"
             style="fill:#536b8b;fill-opacity:1;fill-rule:nonzero;stroke:none"
             id="path4139"
             inkscape:connector-curvature="0" /></g><g
           id="g4141"
           transform="translate(43.4834,59.0596)"><path
             d="m 0,0 c -0.446,0 -0.861,0.282 -1.009,0.729 -0.184,0.557 0.117,1.158 0.675,1.343 L 20.604,9.013 C 21.16,9.197 21.763,8.896 21.947,8.338 22.132,7.781 21.83,7.18 21.273,6.995 L 0.334,0.054 C 0.224,0.018 0.111,0 0,0"
             style="fill:#536b8b;fill-opacity:1;fill-rule:nonzero;stroke:none"
             id="path4143"
             inkscape:connector-curvature="0" /></g><g
           id="g4145"
           transform="translate(71.0986,68.2139)"><path
             d="m 0,0 c -0.446,0 -0.861,0.282 -1.009,0.729 -0.184,0.557 0.117,1.158 0.675,1.343 L 7.75,4.752 C 8.307,4.937 8.909,4.635 9.094,4.078 9.278,3.521 8.977,2.919 8.419,2.734 L 0.334,0.054 C 0.224,0.018 0.111,0 0,0"
             style="fill:#536b8b;fill-opacity:1;fill-rule:nonzero;stroke:none"
             id="path4147"
             inkscape:connector-curvature="0" /></g><g
           id="g4149"
           transform="translate(66.3979,74.1245)"><path
             d="m 0,0 c -0.446,0 -0.861,0.282 -1.009,0.729 -0.184,0.557 0.117,1.158 0.675,1.343 L 17.594,8.015 C 18.149,8.2 18.752,7.898 18.937,7.34 19.122,6.783 18.82,6.182 18.263,5.997 L 0.334,0.054 C 0.224,0.018 0.111,0 0,0"
             style="fill:#f1877a;fill-opacity:1;fill-rule:nonzero;stroke:none"
             id="path4151"
             inkscape:connector-curvature="0" /></g><path
           d="m 50.527,21.348 -15.159,0 0,17.979 15.159,0 0,-17.979 z"
           style="fill:#203751;fill-opacity:1;fill-rule:evenodd;stroke:none"
           id="path4153"
           inkscape:connector-curvature="0" /><g
           id="g4155"
           transform="translate(52.375,54.0864)"><path
             d="m 0,0 1.75,-3.286 2.987,1.59 -1.815,3.408 C -0.866,8.827 -9.786,11.548 -16.9,7.76 -24.014,3.972 -26.735,-4.947 -22.947,-12.062 l 4.425,-8.31 2.986,1.59 -4.36,8.188 c -2.913,5.471 -0.82,12.332 4.651,15.245 C -9.773,7.564 -2.913,5.472 0,0"
             style="fill:#a2baf0;fill-opacity:1;fill-rule:evenodd;stroke:none"
             id="path4157"
             inkscape:connector-curvature="0" /></g><g
           id="g4159"
           transform="translate(42.3184,62.4561)"><path
             d="m 0,0 c -2.197,0 -4.385,-0.546 -6.326,-1.581 -3.182,-1.693 -5.517,-4.539 -6.577,-8.013 -1.059,-3.473 -0.71,-7.139 0.984,-10.32 l 3.908,-7.339 1.044,0.556 -3.843,7.217 c -3.206,6.021 -0.916,13.526 5.105,16.732 1.774,0.945 3.773,1.444 5.781,1.444 4.605,0 8.801,-2.509 10.952,-6.549 l 1.232,-2.314 1.045,0.556 -1.297,2.436 C 9.651,-2.749 5.05,0 0,0 m -8.464,-29.841 c -0.394,0 -0.774,0.211 -0.972,0.583 l -4.425,8.31 c -1.97,3.7 -2.377,7.96 -1.146,11.996 1.231,4.036 3.946,7.344 7.647,9.313 C -5.102,1.564 -2.556,2.2 0,2.2 c 5.865,0 11.21,-3.196 13.95,-8.341 l 1.814,-3.407 c 0.137,-0.258 0.167,-0.559 0.082,-0.838 -0.086,-0.28 -0.278,-0.513 -0.536,-0.651 l -2.987,-1.589 c -0.536,-0.286 -1.202,-0.083 -1.488,0.454 l -1.749,3.285 c -1.768,3.321 -5.22,5.383 -9.01,5.383 -1.648,0 -3.29,-0.41 -4.747,-1.185 -2.387,-1.271 -4.139,-3.407 -4.934,-6.014 -0.796,-2.607 -0.534,-5.357 0.737,-7.743 l 4.36,-8.188 c 0.285,-0.536 0.082,-1.203 -0.454,-1.488 l -2.986,-1.59 c -0.165,-0.088 -0.342,-0.129 -0.516,-0.129"
             style="fill:#536b8b;fill-opacity:1;fill-rule:nonzero;stroke:none"
             id="path4161"
             inkscape:connector-curvature="0" /></g><g
           id="g4163"
           transform="translate(42.3965,35.3853)"><path
             d="m 0,0 c 1.688,0 3.057,-1.369 3.057,-3.058 0,-1.246 -0.745,-2.318 -1.815,-2.795 L 2.069,-8 l 2.068,-5.375 -4.137,0 -4.137,0 2.069,5.375 0.827,2.147 c -1.07,0.477 -1.816,1.549 -1.816,2.795 C -3.057,-1.369 -1.687,0 0,0 m -18.19,9.21 36.381,0 0,-31.795 -36.381,0 0,31.795 z"
             style="fill:#536b8b;fill-opacity:1;fill-rule:evenodd;stroke:none"
             id="path4165"
             inkscape:connector-curvature="0" /></g></g></g></g></svg>