<?xml version="1.0" encoding="UTF-8" standalone="no"?>
<!-- Created with Inkscape (http://www.inkscape.org/) -->

<svg
   xmlns:dc="http://purl.org/dc/elements/1.1/"
   xmlns:cc="http://creativecommons.org/ns#"
   xmlns:rdf="http://www.w3.org/1999/02/22-rdf-syntax-ns#"
   xmlns:svg="http://www.w3.org/2000/svg"
   xmlns="http://www.w3.org/2000/svg"
   xmlns:sodipodi="http://sodipodi.sourceforge.net/DTD/sodipodi-0.dtd"
   xmlns:inkscape="http://www.inkscape.org/namespaces/inkscape"
   width="23.661581mm"
   height="28.741615mm"
   viewBox="0 0 83.840248 101.84037"
   id="svg3964"
   version="1.1"
   inkscape:version="0.91 r13725"
   sodipodi:docname="copyright.svg">
  <defs
     id="defs3966" />
  <sodipodi:namedview
     id="base"
     pagecolor="#ffffff"
     bordercolor="#666666"
     borderopacity="1.0"
     inkscape:pageopacity="0.0"
     inkscape:pageshadow="2"
     inkscape:zoom="0.35"
     inkscape:cx="-251.6513"
     inkscape:cy="10.920185"
     inkscape:document-units="px"
     inkscape:current-layer="layer1"
     showgrid="false"
     fit-margin-top="0"
     fit-margin-left="0"
     fit-margin-right="0"
     fit-margin-bottom="0"
     inkscape:window-width="1867"
     inkscape:window-height="1056"
     inkscape:window-x="53"
     inkscape:window-y="24"
     inkscape:window-maximized="1" />
  <metadata
     id="metadata3969">
    <rdf:RDF>
      <cc:Work
         rdf:about="">
        <dc:format>image/svg+xml</dc:format>
        <dc:type
           rdf:resource="http://purl.org/dc/dcmitype/StillImage" />
        <dc:title></dc:title>
      </cc:Work>
    </rdf:RDF>
  </metadata>
  <g
     inkscape:label="Layer 1"
     inkscape:groupmode="layer"
     id="layer1"
     transform="translate(-132.36559,-441.44202)">
    <g
       id="g92"
       transform="matrix(1.25,0,0,-1.25,187.53934,541.44202)">
      <path
         d="m 0,0 -44.139,0 0,80 58.444,0 0,-51.561 -3.573,0 0,47.989 -51.298,0 0,-72.856 L 0,3.572 0,0 Z"
         style="fill:#7c818a;fill-opacity:1;fill-rule:nonzero;stroke:none"
         id="path94"
         inkscape:connector-curvature="0" />
    </g>
    <path
       d="m 190.81997,471.88702 -34.70125,0 0,-4.46375 34.70125,0 0,4.46375 z"
       style="fill:#7c818a;fill-opacity:1;fill-rule:nonzero;stroke:none"
       id="path96"
       inkscape:connector-curvature="0" />
    <path
       d="m 151.04372,471.88702 -5.3125,0 0,-4.46375 5.3125,0 0,4.46375 z"
       style="fill:#7c818a;fill-opacity:1;fill-rule:nonzero;stroke:none"
       id="path98"
       inkscape:connector-curvature="0" />
    <g
       id="g100"
       transform="matrix(1.25,0,0,-1.25,195.57209,506.47989)">
      <path
         d="m 0,0 c -7.132,0 -12.934,-5.804 -12.934,-12.936 0,-7.13 5.802,-12.934 12.934,-12.934 7.132,0 12.935,5.804 12.935,12.934 C 12.935,-5.804 7.132,0 0,0 m 0,-29.442 c -9.102,0 -16.507,7.404 -16.507,16.506 0,9.103 7.405,16.508 16.507,16.508 9.103,0 16.507,-7.405 16.507,-16.508 0,-9.102 -7.404,-16.506 -16.507,-16.506"
         style="fill:#7c818a;fill-opacity:1;fill-rule:nonzero;stroke:none"
         id="path102"
         inkscape:connector-curvature="0" />
    </g>
    <path
       d="m 190.81997,483.44452 -34.70125,0 0,-4.46625 34.70125,0 0,4.46625 z"
       style="fill:#7c818a;fill-opacity:1;fill-rule:nonzero;stroke:none"
       id="path104"
       inkscape:connector-curvature="0" />
    <path
       d="m 151.04372,483.44452 -5.3125,0 0,-4.46625 5.3125,0 0,4.46625 z"
       style="fill:#7c818a;fill-opacity:1;fill-rule:nonzero;stroke:none"
       id="path106"
       inkscape:connector-curvature="0" />
    <path
       d="m 190.81997,494.99827 -34.70125,0 0,-4.46625 34.70125,0 0,4.46625 z"
       style="fill:#7c818a;fill-opacity:1;fill-rule:nonzero;stroke:none"
       id="path108"
       inkscape:connector-curvature="0" />
    <path
       d="m 151.04372,494.99827 -5.3125,0 0,-4.46625 5.3125,0 0,4.46625 z"
       style="fill:#7c818a;fill-opacity:1;fill-rule:nonzero;stroke:none"
       id="path110"
       inkscape:connector-curvature="0" />
    <g
       id="g112"
       transform="matrix(1.25,0,0,-1.25,195.38597,534.77827)">
      <path
         d="m 0,0 c -5.35,0 -9.704,4.353 -9.704,9.703 0,5.351 4.354,9.703 9.704,9.703 2.036,0 4.064,-0.66 5.71,-1.858 L 3.607,14.66 c -1.04,0.757 -2.32,1.174 -3.607,1.174 -3.38,0 -6.13,-2.75 -6.13,-6.131 0,-3.38 2.75,-6.13 6.13,-6.13 1.414,0 2.741,0.467 3.839,1.353 L 6.082,2.146 C 4.366,0.763 2.207,0 0,0"
         style="fill:#7c818a;fill-opacity:1;fill-rule:nonzero;stroke:none"
         id="path114"
         inkscape:connector-curvature="0" />
    </g>
    <path
       d="m 190.81997,460.33452 -34.70125,0 0,-4.465 34.70125,0 0,4.465 z"
       style="fill:#7c818a;fill-opacity:1;fill-rule:nonzero;stroke:none"
       id="path116"
       inkscape:connector-curvature="0" />
    <path
       d="m 151.04372,460.33452 -5.3125,0 0,-4.465 5.3125,0 0,4.465 z"
       style="fill:#7c818a;fill-opacity:1;fill-rule:nonzero;stroke:none"
       id="path118"
       inkscape:connector-curvature="0" />
  </g>
</svg>
