<?xml version="1.0" encoding="UTF-8" standalone="no"?>
<!-- Created with Inkscape (http://www.inkscape.org/) -->

<svg
   xmlns:dc="http://purl.org/dc/elements/1.1/"
   xmlns:cc="http://creativecommons.org/ns#"
   xmlns:rdf="http://www.w3.org/1999/02/22-rdf-syntax-ns#"
   xmlns:svg="http://www.w3.org/2000/svg"
   xmlns="http://www.w3.org/2000/svg"
   xmlns:sodipodi="http://sodipodi.sourceforge.net/DTD/sodipodi-0.dtd"
   xmlns:inkscape="http://www.inkscape.org/namespaces/inkscape"
   width="28.447609mm"
   height="29.38413mm"
   viewBox="0 0 100.79861 104.117"
   id="svg3887"
   version="1.1"
   inkscape:version="0.91 r13725"
   sodipodi:docname="policy.svg">
  <defs
     id="defs3889" />
  <sodipodi:namedview
     id="base"
     pagecolor="#ffffff"
     bordercolor="#666666"
     borderopacity="1.0"
     inkscape:pageopacity="0.0"
     inkscape:pageshadow="2"
     inkscape:zoom="0.35"
     inkscape:cx="-428.8864"
     inkscape:cy="126.34422"
     inkscape:document-units="px"
     inkscape:current-layer="layer1"
     showgrid="false"
     fit-margin-top="0"
     fit-margin-left="0"
     fit-margin-right="0"
     fit-margin-bottom="0"
     inkscape:window-width="1867"
     inkscape:window-height="1056"
     inkscape:window-x="53"
     inkscape:window-y="24"
     inkscape:window-maximized="1" />
  <metadata
     id="metadata3892">
    <rdf:RDF>
      <cc:Work
         rdf:about="">
        <dc:format>image/svg+xml</dc:format>
        <dc:type
           rdf:resource="http://purl.org/dc/dcmitype/StillImage" />
        <dc:title></dc:title>
      </cc:Work>
    </rdf:RDF>
  </metadata>
  <g
     inkscape:label="Layer 1"
     inkscape:groupmode="layer"
     id="layer1"
     transform="translate(-309.60069,-554.58942)">
    <g
       id="g148"
       transform="matrix(1.25,0,0,-1.25,358.94581,587.67754)">
      <path
         d="m 0,0 c -2.207,0 -4.4,-0.573 -6.34,-1.659 -3.027,-1.694 -5.211,-4.467 -6.154,-7.809 -0.944,-3.342 -0.529,-6.85 1.166,-9.878 2.295,-4.102 6.644,-6.65 11.351,-6.65 2.209,0 4.403,0.575 6.342,1.66 6.252,3.499 8.49,11.432 4.994,17.684 C 9.059,-2.549 4.707,0 0,0 m 0.023,-29.569 c -6,0 -11.546,3.249 -14.47,8.478 -2.16,3.861 -2.69,8.332 -1.487,12.593 1.202,4.261 3.991,7.797 7.85,9.957 2.473,1.383 5.268,2.114 8.084,2.114 6,0 11.545,-3.25 14.477,-8.48 4.46,-7.971 1.605,-18.085 -6.366,-22.547 -2.472,-1.384 -5.269,-2.115 -8.088,-2.115"
         style="fill:#7c818a;fill-opacity:1;fill-rule:nonzero;stroke:none"
         id="path150"
         inkscape:connector-curvature="0" />
    </g>
    <g
       id="g152"
       transform="matrix(1.25,0,0,-1.25,341.29694,644.94067)">
      <path
         d="m 0,0 7.818,-2.354 3.35,7.157 1.215,-0.077 c 2.744,-0.174 5.515,0.062 8.191,0.697 -0.344,6.537 3.067,12.841 8.858,16.081 2.591,1.449 5.519,2.215 8.47,2.215 3.483,0 6.838,-1.028 9.68,-2.935 l 1.725,5.791 -7.166,3.337 0.074,1.215 c 0.197,3.192 -0.158,6.377 -1.049,9.466 l -0.336,1.17 6.262,4.819 -3.985,7.124 -7.382,-2.82 -0.821,0.898 c -1.949,2.139 -4.22,3.957 -6.746,5.405 l -1.056,0.606 1.156,7.826 -7.815,2.351 -3.349,-7.151 -1.213,0.075 C 12.668,61.097 9.436,60.74 6.346,59.847 l -1.17,-0.339 -4.819,6.265 -7.121,-3.988 2.819,-7.379 -0.901,-0.82 C -6.992,51.631 -8.82,49.345 -10.277,46.79 l -0.604,-1.058 -7.832,1.14 -2.336,-7.824 7.164,-3.333 -0.072,-1.214 c -0.191,-3.194 0.16,-6.386 1.047,-9.48 l 0.334,-1.169 -6.26,-4.813 3.988,-7.125 7.379,2.819 0.819,-0.898 C -4.687,11.689 -2.418,9.873 0.096,8.439 L 1.156,7.836 0,0 Z m 9.744,-6.666 -13.732,4.134 1.256,8.5 c -2.073,1.292 -3.987,2.823 -5.711,4.568 l -8.014,-3.063 -7.004,12.516 6.803,5.23 c -0.668,2.715 -0.975,5.488 -0.916,8.271 l -7.783,3.62 4.103,13.743 8.5,-1.239 c 1.313,2.108 2.858,4.041 4.611,5.769 l -3.06,8.012 12.51,7.005 5.23,-6.803 c 2.725,0.675 5.516,0.986 8.342,0.918 l 3.639,7.766 13.724,-4.127 -1.254,-8.497 c 2.08,-1.302 3.994,-2.835 5.711,-4.574 l 8.02,3.063 6.996,-12.514 -6.799,-5.232 c 0.672,-2.712 0.979,-5.483 0.916,-8.265 l 7.779,-3.622 -4.179,-14.034 -2.108,1.964 c -2.56,2.388 -5.908,3.703 -9.422,3.703 -2.341,0 -4.668,-0.609 -6.726,-1.761 -5.02,-2.81 -7.785,-8.515 -6.883,-14.198 l 1.098,-6.92 -3.668,4.758 C 18.996,1.349 16.209,1.036 13.383,1.106 L 9.744,-6.666 Z"
         style="fill:#7c818a;fill-opacity:1;fill-rule:nonzero;stroke:none"
         id="path154"
         inkscape:connector-curvature="0" />
    </g>
    <g
       id="g178"
       transform="matrix(1.25,0,0,-1.25,388.67479,619.75767)">
      <path
         d="m 0,0 c -2.342,0 -4.668,-0.609 -6.727,-1.762 -3.212,-1.798 -5.531,-4.74 -6.531,-8.286 -1.002,-3.546 -0.56,-7.268 1.237,-10.482 2.435,-4.353 7.05,-7.055 12.048,-7.055 2.342,0 4.67,0.608 6.731,1.76 6.631,3.713 9.008,12.131 5.295,18.765 C 9.613,-2.705 4.996,0 0,0 m 0.027,-31.159 c -6.289,0 -12.099,3.404 -15.166,8.885 -2.265,4.044 -2.818,8.731 -1.558,13.196 1.259,4.465 4.179,8.172 8.226,10.435 2.592,1.45 5.52,2.215 8.471,2.215 6.287,0 12.1,-3.405 15.172,-8.885 4.674,-8.356 1.682,-18.955 -6.67,-23.63 -2.594,-1.449 -5.523,-2.216 -8.475,-2.216"
         style="fill:#7c818a;fill-opacity:1;fill-rule:nonzero;stroke:none"
         id="path180"
         inkscape:connector-curvature="0" />
    </g>
    <g
       id="g182"
       transform="matrix(1.25,0,0,-1.25,387.60559,646.67529)">
      <path
         d="m 0,0 -7.086,7.796 2.643,2.403 4.06,-4.465 L 6.695,16.002 9.637,13.973 0,0 Z"
         style="fill:#7c818a;fill-opacity:1;fill-rule:nonzero;stroke:none"
         id="path184"
         inkscape:connector-curvature="0" />
    </g>
    <g
       id="g186"
       transform="matrix(1.25,0,0,-1.25,346.55082,581.6693)">
      <path
         d="M 0,0 -1.744,3.118 C 1.068,4.692 4.107,5.669 7.289,6.021 L 7.68,2.47 C 4.979,2.17 2.393,1.34 0,0 m -10.912,-29.379 c -4.877,8.711 -3.787,19.651 2.715,27.224 l 2.709,-2.328 c -5.526,-6.439 -6.455,-15.743 -2.307,-23.151 l -3.117,-1.745 z"
         style="fill:#7c818a;fill-opacity:1;fill-rule:nonzero;stroke:none"
         id="path188"
         inkscape:connector-curvature="0" />
    </g>
    <g
       id="g190"
       transform="matrix(1.25,0,0,-1.25,358.95069,594.29867)">
      <path
         d="m 0,0 c -1.307,0 -2.604,-0.34 -3.754,-0.983 -1.795,-1.003 -3.09,-2.647 -3.646,-4.626 -0.559,-1.98 -0.315,-4.059 0.689,-5.854 1.361,-2.43 3.938,-3.938 6.727,-3.938 1.308,0 2.607,0.339 3.757,0.984 3.704,2.072 5.03,6.771 2.957,10.476 C 5.369,-1.511 2.791,0 0,0 m 0.016,-18.974 c -4.082,0 -7.854,2.209 -9.844,5.767 -1.469,2.627 -1.83,5.67 -1.012,8.567 0.817,2.9 2.713,5.305 5.342,6.776 1.682,0.94 3.582,1.437 5.498,1.437 4.082,0 7.855,-2.211 9.85,-5.769 3.033,-5.424 1.091,-12.304 -4.332,-15.339 -1.682,-0.943 -3.584,-1.439 -5.502,-1.439"
         style="fill:#7c818a;fill-opacity:1;fill-rule:nonzero;stroke:none"
         id="path192"
         inkscape:connector-curvature="0" />
    </g>
  </g>
</svg>
