<?xml version="1.0" encoding="UTF-8" standalone="no"?>
<!-- Created with Inkscape (http://www.inkscape.org/) -->

<svg
   xmlns:dc="http://purl.org/dc/elements/1.1/"
   xmlns:cc="http://creativecommons.org/ns#"
   xmlns:rdf="http://www.w3.org/1999/02/22-rdf-syntax-ns#"
   xmlns:svg="http://www.w3.org/2000/svg"
   xmlns="http://www.w3.org/2000/svg"
   xmlns:sodipodi="http://sodipodi.sourceforge.net/DTD/sodipodi-0.dtd"
   xmlns:inkscape="http://www.inkscape.org/namespaces/inkscape"
   width="37.03796mm"
   height="26.782288mm"
   viewBox="0 0 131.23687 94.897869"
   id="svg3786"
   version="1.1"
   inkscape:version="0.91 r13725"
   sodipodi:docname="privacy.svg">
  <defs
     id="defs3788" />
  <sodipodi:namedview
     id="base"
     pagecolor="#ffffff"
     bordercolor="#666666"
     borderopacity="1.0"
     inkscape:pageopacity="0.0"
     inkscape:pageshadow="2"
     inkscape:zoom="0.35"
     inkscape:cx="-576.52442"
     inkscape:cy="341.73465"
     inkscape:document-units="px"
     inkscape:current-layer="layer1"
     showgrid="false"
     fit-margin-top="0"
     fit-margin-left="0"
     fit-margin-right="0"
     fit-margin-bottom="0"
     inkscape:window-width="1867"
     inkscape:window-height="1056"
     inkscape:window-x="53"
     inkscape:window-y="24"
     inkscape:window-maximized="1" />
  <metadata
     id="metadata3791">
    <rdf:RDF>
      <cc:Work
         rdf:about="">
        <dc:format>image/svg+xml</dc:format>
        <dc:type
           rdf:resource="http://purl.org/dc/dcmitype/StillImage" />
        <dc:title></dc:title>
      </cc:Work>
    </rdf:RDF>
  </metadata>
  <g
     inkscape:label="Layer 1"
     inkscape:groupmode="layer"
     id="layer1"
     transform="translate(-457.23871,-779.19898)">
    <path
       d="m 461.70496,859.26148 112.14875,0 0,-75.59875 -112.14875,0 0,75.59875 z m 116.61625,4.46875 -121.0825,0 0,-84.53125 121.0825,0 0,84.53125 z"
       style="fill:#7c818a;fill-opacity:1;fill-rule:nonzero;stroke:none"
       id="path38"
       inkscape:connector-curvature="0" />
    <g
       id="g48"
       transform="matrix(1.25,0,0,-1.25,470.59658,790.18598)">
      <path
         d="m 0,0 c 1.108,0 2.012,0.904 2.012,2.014 0,1.107 -0.904,2.01 -2.012,2.01 -1.108,0 -2.013,-0.903 -2.013,-2.01 C -2.013,0.904 -1.108,0 0,0"
         style="fill:#7c818a;fill-opacity:1;fill-rule:evenodd;stroke:none"
         id="path50"
         inkscape:connector-curvature="0" />
    </g>
    <g
       id="g52"
       transform="matrix(1.25,0,0,-1.25,478.91446,790.18598)">
      <path
         d="m 0,0 c 1.109,0 2.013,0.904 2.013,2.014 0,1.107 -0.904,2.01 -2.013,2.01 -1.108,0 -2.013,-0.903 -2.013,-2.01 C -2.013,0.904 -1.108,0 0,0"
         style="fill:#7c818a;fill-opacity:1;fill-rule:evenodd;stroke:none"
         id="path54"
         inkscape:connector-curvature="0" />
    </g>
    <g
       id="g56"
       transform="matrix(1.25,0,0,-1.25,487.23358,790.18598)">
      <path
         d="m 0,0 c 1.108,0 2.013,0.904 2.013,2.014 0,1.107 -0.905,2.01 -2.013,2.01 -1.108,0 -2.013,-0.903 -2.013,-2.01 C -2.013,0.904 -1.108,0 0,0"
         style="fill:#7c818a;fill-opacity:1;fill-rule:evenodd;stroke:none"
         id="path58"
         inkscape:connector-curvature="0" />
    </g>
    <path
       d="m 498.76246,813.58523 -6.82375,0 0,-4.46625 6.82375,0 0,4.46625 z"
       style="fill:#7c818a;fill-opacity:1;fill-rule:nonzero;stroke:none"
       id="path60"
       inkscape:connector-curvature="0" />
    <path
       d="m 485.26246,813.58523 -15.76375,0 0,-4.46625 15.76375,0 0,4.46625 z"
       style="fill:#7c818a;fill-opacity:1;fill-rule:nonzero;stroke:none"
       id="path62"
       inkscape:connector-curvature="0" />
    <path
       d="m 487.38621,824.54523 -17.88875,0 0,-4.46625 17.88875,0 0,4.46625 z"
       style="fill:#7c818a;fill-opacity:1;fill-rule:nonzero;stroke:none"
       id="path64"
       inkscape:connector-curvature="0" />
    <path
       d="m 506.58371,834.50148 -37.085,0 0,-4.465 37.085,0 0,4.465 z"
       style="fill:#7c818a;fill-opacity:1;fill-rule:nonzero;stroke:none"
       id="path66"
       inkscape:connector-curvature="0" />
    <path
       d="m 504.83746,844.46023 -5.7975,0 0,-4.46625 5.7975,0 0,4.46625 z"
       style="fill:#7c818a;fill-opacity:1;fill-rule:nonzero;stroke:none"
       id="path68"
       inkscape:connector-curvature="0" />
    <path
       d="m 493.07621,844.46023 -23.57875,0 0,-4.46625 23.57875,0 0,4.46625 z"
       style="fill:#7c818a;fill-opacity:1;fill-rule:nonzero;stroke:none"
       id="path70"
       inkscape:connector-curvature="0" />
    <g
       id="g72"
       transform="matrix(1.25,0,0,-1.25,551.92658,823.74185)">
      <path
         d="m 0,0 -0.059,7.491 c -0.016,2.083 -0.849,4.043 -2.348,5.518 -1.482,1.46 -3.431,2.261 -5.492,2.261 l -0.062,0 c -4.413,-0.035 -7.896,-3.452 -7.929,-7.779 L -15.949,0 l -3.573,0.028 0.059,7.491 c 0.047,6.195 5.195,11.275 11.474,11.324 3.029,0.012 5.912,-1.144 8.089,-3.288 2.177,-2.144 3.39,-4.997 3.415,-8.036 L 3.572,0.028 0,0 Z"
         style="fill:#7c818a;fill-opacity:1;fill-rule:nonzero;stroke:none"
         id="path74"
         inkscape:connector-curvature="0" />
    </g>
    <g
       id="g76"
       transform="matrix(1.25,0,0,-1.25,525.48183,824.86373)">
      <path
         d="m 0,0 c -0.201,0 -0.371,-0.169 -0.371,-0.371 l 0,-17.254 c 0,-0.201 0.17,-0.371 0.371,-0.371 l 26.363,0 c 0.202,0 0.372,0.17 0.372,0.371 l 0,17.254 C 26.735,-0.169 26.565,0 26.363,0 L 0,0 Z m 26.363,-21.569 -26.363,0 c -2.174,0 -3.944,1.769 -3.944,3.944 l 0,17.254 c 0,2.175 1.77,3.944 3.944,3.944 l 26.363,0 c 2.175,0 3.944,-1.769 3.944,-3.944 l 0,-17.254 c 0,-2.175 -1.769,-3.944 -3.944,-3.944"
         style="fill:#7c818a;fill-opacity:1;fill-rule:nonzero;stroke:none"
         id="path78"
         inkscape:connector-curvature="0" />
    </g>
    <g
       id="g80"
       transform="matrix(1.25,0,0,-1.25,541.95709,835.77798)">
      <path
         d="M 0,0 C 1.723,0 3.128,1.405 3.128,3.127 3.128,4.85 1.723,6.255 0,6.255 -1.723,6.255 -3.125,4.85 -3.125,3.127 -3.125,1.405 -1.723,0 0,0"
         style="fill:#7c818a;fill-opacity:1;fill-rule:evenodd;stroke:none"
         id="path82"
         inkscape:connector-curvature="0" />
    </g>
    <g
       id="g84"
       transform="matrix(1.25,0,0,-1.25,541.95709,830.17373)">
      <path
         d="m 0,0 1.44,-5.298 1.439,-5.3 -2.879,0 -2.879,0 1.442,5.3 L 0,0 Z"
         style="fill:#7c818a;fill-opacity:1;fill-rule:evenodd;stroke:none"
         id="path86"
         inkscape:connector-curvature="0" />
    </g>
    <path
       d="m 509.35496,824.54523 -15.3325,0 0,-4.46625 15.3325,0 0,4.46625 z"
       style="fill:#7c818a;fill-opacity:1;fill-rule:nonzero;stroke:none"
       id="path88"
       inkscape:connector-curvature="0" />
    <path
       d="m 576.08746,796.26398 -116.61625,0 0,-4.46625 116.61625,0 0,4.46625 z"
       style="fill:#7c818a;fill-opacity:1;fill-rule:nonzero;stroke:none"
       id="path90"
       inkscape:connector-curvature="0" />
    <g
       id="g194"
       transform="matrix(1.25,0,0,-1.25,471.86058,869.6306)">
      <path
         d="m 0,0 89.719,0 0,59.952 -4.551,0 0,-55.231 L 0,4.721 0,0 Z m 93.292,-3.573 -96.865,0 0,11.868 85.167,0 0,55.23 11.698,0 0,-67.098 z"
         style="fill:#7c818a;fill-opacity:1;fill-rule:nonzero;stroke:none"
         id="path196"
         inkscape:connector-curvature="0" />
    </g>
  </g>
</svg>
