<?xml version="1.0" encoding="UTF-8" standalone="no"?>
<!-- Created with Inkscape (http://www.inkscape.org/) -->

<svg
   xmlns:dc="http://purl.org/dc/elements/1.1/"
   xmlns:cc="http://creativecommons.org/ns#"
   xmlns:rdf="http://www.w3.org/1999/02/22-rdf-syntax-ns#"
   xmlns:svg="http://www.w3.org/2000/svg"
   xmlns="http://www.w3.org/2000/svg"
   xmlns:sodipodi="http://sodipodi.sourceforge.net/DTD/sodipodi-0.dtd"
   xmlns:inkscape="http://www.inkscape.org/namespaces/inkscape"
   width="20.617744mm"
   height="28.222221mm"
   viewBox="0 0 73.055 99.999997"
   id="svg3545"
   version="1.1"
   inkscape:version="0.91 r13725"
   sodipodi:docname="terms.svg">
  <defs
     id="defs3547" />
  <sodipodi:namedview
     id="base"
     pagecolor="#ffffff"
     bordercolor="#666666"
     borderopacity="1.0"
     inkscape:pageopacity="0.0"
     inkscape:pageshadow="2"
     inkscape:zoom="0.35"
     inkscape:cx="-314.18678"
     inkscape:cy="98.571425"
     inkscape:document-units="px"
     inkscape:current-layer="layer1"
     showgrid="false"
     fit-margin-top="0"
     fit-margin-left="0"
     fit-margin-right="0"
     fit-margin-bottom="0"
     inkscape:window-width="1867"
     inkscape:window-height="1056"
     inkscape:window-x="53"
     inkscape:window-y="24"
     inkscape:window-maximized="1" />
  <metadata
     id="metadata3550">
    <rdf:RDF>
      <cc:Work
         rdf:about="">
        <dc:format>image/svg+xml</dc:format>
        <dc:type
           rdf:resource="http://purl.org/dc/dcmitype/StillImage" />
        <dc:title></dc:title>
      </cc:Work>
    </rdf:RDF>
  </metadata>
  <g
     inkscape:label="Layer 1"
     inkscape:groupmode="layer"
     id="layer1"
     transform="translate(-194.90107,-530.93363)">
    <path
       d="m 213.57995,563.4625 -5.3125,0 0,-4.46625 5.3125,0 0,4.46625 z"
       style="fill:#7c818a;fill-opacity:1;fill-rule:nonzero;stroke:none"
       id="path12"
       inkscape:connector-curvature="0" />
    <path
       d="m 232.61995,563.4625 -13.96375,0 0,-4.46625 13.96375,0 0,4.46625 z"
       style="fill:#7c818a;fill-opacity:1;fill-rule:nonzero;stroke:none"
       id="path14"
       inkscape:connector-curvature="0" />
    <path
       d="m 253.3562,574.44375 -34.70125,0 0,-4.465 34.70125,0 0,4.465 z"
       style="fill:#7c818a;fill-opacity:1;fill-rule:nonzero;stroke:none"
       id="path16"
       inkscape:connector-curvature="0" />
    <path
       d="m 210.4987,547.69875 41.86,0 0,-3.83375 -41.86,0 0,3.83375 z m 46.32625,4.465 -50.79125,0 0,-12.7675 50.79125,0 0,12.7675 z"
       style="fill:#7c818a;fill-opacity:1;fill-rule:nonzero;stroke:none"
       id="path18"
       inkscape:connector-curvature="0" />
    <path
       d="m 240.07995,585.42625 -21.42375,0 0,-4.465 21.42375,0 0,4.465 z"
       style="fill:#7c818a;fill-opacity:1;fill-rule:nonzero;stroke:none"
       id="path20"
       inkscape:connector-curvature="0" />
    <path
       d="m 253.3562,596.4075 -34.70125,0 0,-4.465 34.70125,0 0,4.465 z"
       style="fill:#7c818a;fill-opacity:1;fill-rule:nonzero;stroke:none"
       id="path22"
       inkscape:connector-curvature="0" />
    <path
       d="m 233.6412,607.39 -14.985,0 0,-4.46625 14.985,0 0,4.46625 z"
       style="fill:#7c818a;fill-opacity:1;fill-rule:nonzero;stroke:none"
       id="path24"
       inkscape:connector-curvature="0" />
    <g
       id="g26"
       transform="matrix(1.25,0,0,-1.25,238.01982,601.19988)">
      <path
         d="m 0,0 0,-20.215 -30.922,0 0,72.855 51.298,0 L 20.376,0 0,0 Z m 3.573,-15.203 0,11.63 11.709,0 -11.709,-11.63 z m -38.068,71.416 0,-80 34.495,0 L 23.949,0 l 0,56.213 -58.444,0 z"
         style="fill:#7c818a;fill-opacity:1;fill-rule:nonzero;stroke:none"
         id="path28"
         inkscape:connector-curvature="0" />
    </g>
    <path
       d="m 213.57995,574.44375 -5.3125,0 0,-4.465 5.3125,0 0,4.465 z"
       style="fill:#7c818a;fill-opacity:1;fill-rule:nonzero;stroke:none"
       id="path30"
       inkscape:connector-curvature="0" />
    <path
       d="m 213.57995,585.42625 -5.3125,0 0,-4.465 5.3125,0 0,4.465 z"
       style="fill:#7c818a;fill-opacity:1;fill-rule:nonzero;stroke:none"
       id="path32"
       inkscape:connector-curvature="0" />
    <path
       d="m 213.57995,596.4075 -5.3125,0 0,-4.465 5.3125,0 0,4.465 z"
       style="fill:#7c818a;fill-opacity:1;fill-rule:nonzero;stroke:none"
       id="path34"
       inkscape:connector-curvature="0" />
    <path
       d="m 213.57995,607.39 -5.3125,0 0,-4.46625 5.3125,0 0,4.46625 z"
       style="fill:#7c818a;fill-opacity:1;fill-rule:nonzero;stroke:none"
       id="path36"
       inkscape:connector-curvature="0" />
  </g>
</svg>
