<?xml version="1.0" encoding="UTF-8" standalone="no"?>
<!-- Created with Inkscape (http://www.inkscape.org/) -->

<svg
   xmlns:dc="http://purl.org/dc/elements/1.1/"
   xmlns:cc="http://creativecommons.org/ns#"
   xmlns:rdf="http://www.w3.org/1999/02/22-rdf-syntax-ns#"
   xmlns:svg="http://www.w3.org/2000/svg"
   xmlns="http://www.w3.org/2000/svg"
   xmlns:sodipodi="http://sodipodi.sourceforge.net/DTD/sodipodi-0.dtd"
   xmlns:inkscape="http://www.inkscape.org/namespaces/inkscape"
   width="32.960804mm"
   height="36.722931mm"
   viewBox="0 0 116.79025 130.12062"
   id="svg4045"
   version="1.1"
   inkscape:version="0.91 r13725"
   sodipodi:docname="trademarks.svg">
  <defs
     id="defs4047" />
  <sodipodi:namedview
     id="base"
     pagecolor="#ffffff"
     bordercolor="#666666"
     borderopacity="1.0"
     inkscape:pageopacity="0.0"
     inkscape:pageshadow="2"
     inkscape:zoom="0.35"
     inkscape:cx="-575.1763"
     inkscape:cy="96.488885"
     inkscape:document-units="px"
     inkscape:current-layer="layer1"
     showgrid="false"
     fit-margin-top="0"
     fit-margin-left="0"
     fit-margin-right="0"
     fit-margin-bottom="0"
     inkscape:window-width="1867"
     inkscape:window-height="1056"
     inkscape:window-x="53"
     inkscape:window-y="24"
     inkscape:window-maximized="1" />
  <metadata
     id="metadata4050">
    <rdf:RDF>
      <cc:Work
         rdf:about="">
        <dc:format>image/svg+xml</dc:format>
        <dc:type
           rdf:resource="http://purl.org/dc/dcmitype/StillImage" />
        <dc:title></dc:title>
      </cc:Work>
    </rdf:RDF>
  </metadata>
  <g
     inkscape:label="Layer 1"
     inkscape:groupmode="layer"
     id="layer1"
     transform="translate(-455.89059,-498.73047)">
    <g
       id="g120"
       transform="matrix(1.25,0,0,-1.25,479.13309,605.17434)">
      <path
         d="M 0,0 2.992,-10.956 15.917,6.27 13.979,9.591 7.412,7.865 5.623,14.414 -0.374,14.443 -11.354,-0.189 0,0 Z M 1.469,-18.941 -2.715,-3.618 -18.594,-3.884 2.36,24.04 l 0.029,-6.037 5.965,-0.03 1.572,-5.754 5.769,1.515 2.991,-5.12 6.235,3.719 L 19.503,5.097 1.469,-18.941 Z"
         style="fill:#7c818a;fill-opacity:1;fill-rule:nonzero;stroke:none"
         id="path122"
         inkscape:connector-curvature="0" />
    </g>
    <g
       id="g124"
       transform="matrix(1.25,0,0,-1.25,490.27259,603.18696)">
      <path
         d="m 0,0 -2.792,2.229 7.1,8.9 L 7.101,8.9 0,0 Z"
         style="fill:#7c818a;fill-opacity:1;fill-rule:nonzero;stroke:none"
         id="path126"
         inkscape:connector-curvature="0" />
    </g>
    <g
       id="g128"
       transform="matrix(1.25,0,0,-1.25,529.54209,597.33734)">
      <path
         d="M 0,0 12.926,-17.226 15.917,-6.27 27.271,-6.459 16.291,8.174 10.295,8.145 8.505,1.596 1.939,3.321 0,0 Z m 14.448,-25.211 -23.473,31.287 6.257,-3.731 2.99,5.12 5.768,-1.516 1.574,5.754 5.963,0.03 0.03,6.038 20.954,-27.924 -15.878,0.265 -4.185,-15.323 z"
         style="fill:#7c818a;fill-opacity:1;fill-rule:nonzero;stroke:none"
         id="path130"
         inkscape:connector-curvature="0" />
    </g>
    <g
       id="g132"
       transform="matrix(1.25,0,0,-1.25,550.96046,601.52322)">
      <path
         d="m 0,0 -8.383,11.17 2.86,2.145 L 2.859,2.145 0,0 Z"
         style="fill:#7c818a;fill-opacity:1;fill-rule:nonzero;stroke:none"
         id="path134"
         inkscape:connector-curvature="0" />
    </g>
    <g
       id="g136"
       transform="matrix(1.25,0,0,-1.25,508.98784,590.74922)">
      <path
         d="M 0,0 4.239,-4.195 8.478,0 l 5.179,-2.956 3.008,5.15 5.769,-1.515 1.574,5.754 5.963,0.03 0.029,5.965 5.756,1.572 -1.517,5.769 5.152,3.007 -2.959,5.18 4.199,4.238 -4.199,4.24 2.959,5.181 -5.152,3.006 1.517,5.772 -5.756,1.57 -0.029,5.966 -5.963,0.029 -1.574,5.754 -5.769,-1.516 -3.008,5.152 L 8.478,64.391 4.239,68.587 0,64.391 l -5.181,2.957 -3.007,-5.152 -5.77,1.516 -1.572,-5.754 -5.965,-0.029 -0.028,-5.965 -5.754,-1.573 1.514,-5.77 -5.15,-3.006 2.958,-5.181 -4.198,-4.24 4.198,-4.238 -2.958,-5.18 5.15,-3.007 -1.514,-5.769 5.754,-1.572 0.028,-5.965 5.965,-0.03 1.572,-5.754 5.77,1.515 3.007,-5.15 L 0,0 Z m 4.239,-9.224 -4.824,4.777 -5.897,-3.366 -3.423,5.864 -6.567,-1.726 -1.789,6.549 -6.79,0.032 -0.032,6.79 -6.549,1.789 1.724,6.567 -5.862,3.425 3.366,5.894 -4.778,4.823 4.778,4.826 -3.366,5.896 5.862,3.424 -1.724,6.565 6.549,1.79 0.032,6.788 6.79,0.034 1.789,6.55 6.567,-1.725 3.423,5.861 5.896,-3.365 4.825,4.777 4.824,-4.777 5.896,3.365 3.423,-5.861 6.565,1.725 1.791,-6.55 6.789,-0.034 0.033,-6.788 6.55,-1.789 -1.725,-6.566 5.861,-3.424 -3.365,-5.896 4.779,-4.826 -4.779,-4.823 3.365,-5.894 -5.861,-3.425 1.725,-6.566 -6.55,-1.79 -0.033,-6.79 -6.789,-0.032 -1.79,-6.549 -6.565,1.726 -3.424,-5.864 -5.896,3.366 -4.824,-4.777 z"
         style="fill:#7c818a;fill-opacity:1;fill-rule:nonzero;stroke:none"
         id="path138"
         inkscape:connector-curvature="0" />
    </g>
    <g
       id="g140"
       transform="matrix(1.25,0,0,-1.25,514.28634,520.08521)">
      <path
         d="m 0,0 c -13.108,0 -23.772,-10.664 -23.772,-23.771 0,-13.108 10.664,-23.771 23.772,-23.771 13.107,0 23.771,10.663 23.771,23.771 C 23.771,-10.664 13.107,0 0,0 m 0,-51.115 c -15.079,0 -27.345,12.265 -27.345,27.344 0,15.079 12.266,27.344 27.345,27.344 15.077,0 27.344,-12.265 27.344,-27.344 C 27.344,-38.85 15.077,-51.115 0,-51.115"
         style="fill:#7c818a;fill-opacity:1;fill-rule:nonzero;stroke:none"
         id="path142"
         inkscape:connector-curvature="0" />
    </g>
    <g
       id="g144"
       transform="matrix(1.25,0,0,-1.25,529.66234,559.90696)">
      <path
         d="m 0,0 3.189,0 -0.026,15.948 -2.526,0 -5.315,-7.149 -5.317,7.149 -2.551,0 0,-15.948 3.189,0 0,9.994 4.041,-5.315 1.275,0 L 0,9.994 0,0 Z m -27.698,13.132 4.731,0 0,-13.132 3.217,0 0,13.132 4.758,0 0,2.816 -12.706,0 0,-2.816 z"
         style="fill:#7c818a;fill-opacity:1;fill-rule:nonzero;stroke:none"
         id="path146"
         inkscape:connector-curvature="0" />
    </g>
  </g>
</svg>
