<?xml version="1.0" encoding="utf-8"?>
<!-- Generator: Adobe Illustrator 17.1.0, SVG Export Plug-In . SVG Version: 6.00 Build 0)  -->
<!DOCTYPE svg PUBLIC "-//W3C//DTD SVG 1.1//EN" "http://www.w3.org/Graphics/SVG/1.1/DTD/svg11.dtd">
<svg version="1.1" id="Layer_1" xmlns="http://www.w3.org/2000/svg" xmlns:xlink="http://www.w3.org/1999/xlink" x="0px" y="0px"
	 viewBox="0 0 1065 420" enable-background="new 0 0 1065 420" xml:space="preserve">
<g>
	<path fill="#4574E0" d="M44.5,113.1V301L207.2,395l0-106.5l-70.5-40.7v-81.4L44.5,113.1z"/>
	<polygon fill="#A2BAF0" points="207.2,395 370,301 277.7,247.8 207.2,288.5 	"/>
	<polygon fill="#C7D5F6" points="136.7,166.4 207.2,125.7 277.7,166.4 370,113.1 207.2,19.2 44.5,113.1 	"/>
</g>
<g>
	<path fill="#3F484C" d="M525.9,152.4l-14.9,26c-8.2-7.7-19.1-11.6-32.9-11.6c-13.2,0-23.6,4.4-31.3,13.2s-11.5,20.9-11.5,36.4
		c0,31.3,14.9,46.9,44.7,46.9c12.9,0,24.3-4.3,34.1-12.8l12.8,27.4c-10.1,6.3-19,10.3-26.5,12c-7.6,1.7-16.5,2.5-26.8,2.5
		c-23,0-41.2-6.7-54.5-20.1c-13.3-13.4-20-32-20-55.9c0-23.5,7.3-42.5,21.9-56.9c14.6-14.5,34.4-21.7,59.6-21.7
		C498.1,137.8,513.1,142.7,525.9,152.4z"/>
	<path fill="#3F484C" d="M525,214.8c0-22.7,6.6-41.3,19.7-55.5c13.1-14.3,30.5-21.4,52-21.4c22.6,0,40.2,6.9,52.8,20.6
		c12.5,13.7,18.8,32.5,18.8,56.4c0,23.8-6.4,42.6-19.1,56.7c-12.8,14-30.2,21-52.4,21c-22.6,0-40.3-7.1-52.8-21.2
		C531.3,257.1,525,238.3,525,214.8z M561.2,214.8c0,32.9,11.8,49.3,35.5,49.3c10.9,0,19.5-4.3,25.8-12.8c6.4-8.5,9.5-20.7,9.5-36.5
		c0-32.4-11.8-48.6-35.4-48.6c-10.9,0-19.5,4.3-25.9,12.8C564.4,187.5,561.2,199.5,561.2,214.8z"/>
	<path fill="#3F484C" d="M777.9,289.7v-9c-2.9,3.2-7.8,5.9-14.6,8.3c-6.9,2.4-14,3.6-21.3,3.6c-20.8,0-37.1-6.6-49.1-19.8
		C681,259.5,675,241.1,675,217.6c0-23.6,6.8-42.8,20.5-57.6c13.7-14.8,30.8-22.2,51.4-22.2c11.3,0,21.6,2.3,30.9,7V91.3l34.8-14.6
		v213H777.9z M777.9,176.2c-7.4-5.9-15.2-8.9-23.2-8.9c-13.9,0-24.6,4.2-32.2,12.7c-7.5,8.5-11.3,20.7-11.3,36.5
		c0,31,14.9,46.5,44.8,46.5c3.3,0,7.4-1,12.3-3c4.9-2,8-4,9.5-6.1V176.2z"/>
	<path fill="#3F484C" d="M835.5,289.7V169.1l0,0v-28.5h35.2v149.1H835.5z M853.4,85.6c5.2,0,9.6,1.8,13.3,5.5
		c3.7,3.7,5.5,8.1,5.5,13.3c0,5.2-1.8,9.6-5.5,13.3c-3.7,3.7-8.1,5.5-13.3,5.5c-5.2,0-9.6-1.8-13.3-5.5c-3.7-3.7-5.5-8.1-5.5-13.3
		c0-5.2,1.8-9.6,5.5-13.3C843.8,87.5,848.3,85.6,853.4,85.6z"/>
	<path fill="#3F484C" d="M884.9,214.8c0-22.7,6.6-41.3,19.7-55.5c13.1-14.3,30.5-21.4,52-21.4c22.6,0,40.2,6.9,52.8,20.6
		c12.5,13.7,18.8,32.5,18.8,56.4c0,23.8-6.4,42.6-19.1,56.7c-12.8,14-30.2,21-52.4,21c-22.6,0-40.3-7.1-52.8-21.2
		C891.1,257.1,884.9,238.3,884.9,214.8z M921,214.8c0,32.9,11.8,49.3,35.5,49.3c10.9,0,19.5-4.3,25.8-12.8
		c6.4-8.5,9.5-20.7,9.5-36.5c0-32.4-11.8-48.6-35.4-48.6c-10.9,0-19.5,4.3-25.9,12.8C924.2,187.5,921,199.5,921,214.8z"/>
</g>
</svg>
