<?xml version="1.0" encoding="utf-8"?>
<!-- Generator: Adobe Illustrator 17.1.0, SVG Export Plug-In . SVG Version: 6.00 Build 0)  -->
<!DOCTYPE svg PUBLIC "-//W3C//DTD SVG 1.1//EN" "http://www.w3.org/Graphics/SVG/1.1/DTD/svg11.dtd">
<svg version="1.1" id="Layer_1" xmlns="http://www.w3.org/2000/svg" xmlns:xlink="http://www.w3.org/1999/xlink" x="0px" y="0px"
	 viewBox="0 0 1065 420" enable-background="new 0 0 1065 420" xml:space="preserve">
<g>
	<path fill="#FFFFFF" d="M45.3,116.7v183.7l159.1,91.9l0-104.1l-68.9-39.8v-79.6L45.3,116.7z"/>
	<polygon fill="#C7D5F6" points="204.4,392.3 363.5,300.4 273.4,248.3 204.4,288.1 	"/>
	<polygon fill="#A2BAF0" points="135.5,168.8 204.4,129 273.4,168.8 363.5,116.7 204.4,24.8 45.3,116.7 	"/>
</g>
<g>
	<path fill="#FFFFFF" d="M516,155.1l-14.6,25.5c-8-7.5-18.7-11.3-32.1-11.3c-12.9,0-23.1,4.3-30.6,12.9
		c-7.5,8.6-11.2,20.4-11.2,35.6c0,30.6,14.6,45.9,43.7,45.9c12.6,0,23.7-4.2,33.3-12.5l12.5,26.8c-9.9,6.2-18.5,10.1-25.9,11.7
		c-7.4,1.6-16.1,2.5-26.2,2.5c-22.5,0-40.3-6.6-53.3-19.7c-13-13.1-19.5-31.3-19.5-54.6c0-23,7.1-41.5,21.4-55.7
		c14.2-14.2,33.7-21.2,58.3-21.2C488.8,140.8,503.5,145.6,516,155.1z"/>
	<path fill="#FFFFFF" d="M522.1,216.1c0-22.2,6.4-40.3,19.3-54.3c12.8-14,29.8-21,50.8-21c22.1,0,39.3,6.7,51.6,20.1
		c12.2,13.4,18.4,31.8,18.4,55.1c0,23.2-6.2,41.7-18.7,55.4C631,285.2,613.9,292,592.2,292c-22.1,0-39.4-6.9-51.7-20.8
		C528.3,257.4,522.1,239,522.1,216.1z M557.5,216.1c0,32.1,11.6,48.2,34.7,48.2c10.6,0,19-4.2,25.2-12.5c6.2-8.3,9.3-20.2,9.3-35.7
		c0-31.7-11.5-47.5-34.6-47.5c-10.6,0-19.1,4.2-25.3,12.5C560.6,189.4,557.5,201.1,557.5,216.1z"/>
	<path fill="#FFFFFF" d="M776.4,289.3v-8.8c-2.8,3.1-7.6,5.8-14.3,8.1c-6.7,2.3-13.7,3.5-20.8,3.5c-20.3,0-36.3-6.4-48-19.3
		c-11.7-12.9-17.5-30.9-17.5-53.9c0-23,6.7-41.8,20.1-56.3c13.4-14.5,30.1-21.7,50.3-21.7c11.1,0,21.1,2.3,30.2,6.8V95.3l34-14.3
		v208.3H776.4z M776.4,178.4c-7.3-5.8-14.8-8.7-22.7-8.7c-13.6,0-24.1,4.2-31.4,12.5c-7.4,8.3-11,20.2-11,35.7
		c0,30.3,14.6,45.5,43.8,45.5c3.3,0,7.3-1,12-2.9c4.8-2,7.9-3.9,9.3-5.9V178.4z"/>
	<path fill="#FFFFFF" d="M839.7,289.3V171.4l0,0v-27.9h34.4v145.8H839.7z M857.3,89.8c5.1,0,9.4,1.8,13,5.4c3.6,3.6,5.4,7.9,5.4,13
		s-1.8,9.4-5.4,13c-3.6,3.6-7.9,5.4-13,5.4c-5.1,0-9.4-1.8-13-5.4c-3.6-3.6-5.4-7.9-5.4-13s1.8-9.4,5.4-13
		C847.9,91.6,852.2,89.8,857.3,89.8z"/>
	<path fill="#FFFFFF" d="M895,216.1c0-22.2,6.4-40.3,19.3-54.3c12.8-14,29.8-21,50.8-21c22.1,0,39.3,6.7,51.6,20.1
		c12.2,13.4,18.4,31.8,18.4,55.1c0,23.2-6.2,41.7-18.7,55.4c-12.5,13.7-29.6,20.6-51.2,20.6c-22.1,0-39.4-6.9-51.7-20.8
		C901.2,257.4,895,239,895,216.1z M930.4,216.1c0,32.1,11.6,48.2,34.7,48.2c10.6,0,19-4.2,25.2-12.5c6.2-8.3,9.3-20.2,9.3-35.7
		c0-31.7-11.5-47.5-34.6-47.5c-10.6,0-19.1,4.2-25.3,12.5C933.5,189.4,930.4,201.1,930.4,216.1z"/>
</g>
</svg>
