<?xml version="1.0" encoding="utf-8"?>
<!-- Generator: Adobe Illustrator 19.0.0, SVG Export Plug-In . SVG Version: 6.00 Build 0)  -->
<svg version="1.1" id="Layer_1" xmlns="http://www.w3.org/2000/svg" xmlns:xlink="http://www.w3.org/1999/xlink" x="0px" y="0px"
	 viewBox="0 0 64 64" style="enable-background:new 0 0 64 64;" xml:space="preserve">
<style type="text/css">
	.st0{fill:#6897F0;}
	.st1{clip-path:url(#XMLID_429_);}
	.st2{fill:#FFFFFF;}
	.st3{fill:#2F5EB7;}
	.st4{fill:#6C9BF4;}
	.st5{opacity:0.35;}
	.st6{opacity:0.2;}
	.st7{opacity:0.25;}
	.st8{clip-path:url(#XMLID_432_);}
	.st9{opacity:0.15;}
	.st10{fill:#85AFFF;}
</style>
<image style="display:none;overflow:visible;" width="1920" height="1200" id="XMLID_2_" xlink:href="B91623539C9BA88C.jpg"  transform="matrix(1 0 0 1 -918 -518)">
</image>
<circle id="XMLID_21_" class="st0" cx="32" cy="32" r="32"/>
<g id="XMLID_430_">
	<defs>
		<circle id="XMLID_3_" cx="32" cy="32" r="32"/>
	</defs>
	<clipPath id="XMLID_429_">
		<use xlink:href="#XMLID_3_"  style="overflow:visible;"/>
	</clipPath>
	<g id="XMLID_428_" class="st1">
		<g id="XMLID_7_">
			<circle id="XMLID_418_" class="st2" cx="32" cy="23.1" r="7.1"/>
			<path id="XMLID_419_" class="st3" d="M32,30.7c-4.2,0-7.6-3.4-7.6-7.6s3.4-7.6,7.6-7.6s7.6,3.4,7.6,7.6S36.2,30.7,32,30.7z
				 M32,16.4c-3.7,0-6.7,3-6.7,6.7s3,6.7,6.7,6.7c3.7,0,6.7-3,6.7-6.7S35.7,16.4,32,16.4z"/>
		</g>
		<g id="XMLID_10_">
			<line id="XMLID_416_" class="st2" x1="32.2" y1="16" x2="32.2" y2="9.1"/>
			<rect id="XMLID_417_" x="31.8" y="9.1" class="st3" width="0.9" height="6.9"/>
		</g>
		<g id="XMLID_9_">
			<circle id="XMLID_412_" class="st2" cx="32.2" cy="9.1" r="1.5"/>
			<path id="XMLID_413_" class="st3" d="M32.2,11c-1.1,0-2-0.9-2-2c0-1.1,0.9-2,2-2s2,0.9,2,2C34.2,10.2,33.3,11,32.2,11z M32.2,8
				c-0.6,0-1.1,0.5-1.1,1.1c0,0.6,0.5,1.1,1.1,1.1c0.6,0,1.1-0.5,1.1-1.1C33.3,8.5,32.8,8,32.2,8z"/>
		</g>
		<g id="XMLID_11_">
			<rect id="XMLID_408_" x="40.8" y="17.5" class="st2" width="5" height="1.7"/>
			<path id="XMLID_409_" class="st3" d="M45.8,19.7h-5c-0.2,0-0.4-0.2-0.4-0.4v-1.7c0-0.2,0.2-0.4,0.4-0.4h5c0.2,0,0.4,0.2,0.4,0.4
				v1.7C46.2,19.5,46,19.7,45.8,19.7z M41.2,18.8h4.1v-0.9h-4.1V18.8z"/>
		</g>
		<g id="XMLID_12_">
			<polygon id="XMLID_403_" class="st2" points="50.2,19.2 48.1,19.2 48.5,17.5 49.8,17.5 			"/>
			<path id="XMLID_405_" class="st3" d="M50.2,19.7h-2.1c-0.1,0-0.3-0.1-0.3-0.2c-0.1-0.1-0.1-0.2-0.1-0.4l0.4-1.7
				c0-0.2,0.2-0.3,0.4-0.3h1.3c0.2,0,0.4,0.1,0.4,0.3l0.4,1.7c0,0.1,0,0.3-0.1,0.4C50.4,19.6,50.3,19.7,50.2,19.7z M48.6,18.8h1
				l-0.2-0.9h-0.6L48.6,18.8z"/>
		</g>
		<g id="XMLID_13_">
			<path id="XMLID_399_" class="st2" d="M21.8,17.2h-6.3c-0.6,0-1.2,0.5-1.2,1.2v0.9h8.6v-0.9C22.9,17.7,22.4,17.2,21.8,17.2z"/>
			<path id="XMLID_400_" class="st3" d="M22.9,19.7h-8.6c-0.2,0-0.4-0.2-0.4-0.4v-1.5c0-0.5,0.4-1,1-1h7.6c0.5,0,1,0.4,1,1v1.5
				C23.4,19.5,23.2,19.7,22.9,19.7z M14.7,18.8h7.8v-1.1c0,0,0-0.1-0.1-0.1h-7.6c0,0-0.1,0-0.1,0.1V18.8z"/>
		</g>
		<g id="XMLID_14_">
			<circle id="XMLID_395_" class="st2" cx="54.6" cy="30.2" r="4.1"/>
			<path id="XMLID_396_" class="st3" d="M54.6,34.8c-2.5,0-4.6-2-4.6-4.6s2-4.6,4.6-4.6c2.5,0,4.6,2,4.6,4.6S57.1,34.8,54.6,34.8z
				 M54.6,26.5c-2,0-3.7,1.7-3.7,3.7s1.7,3.7,3.7,3.7c2,0,3.7-1.7,3.7-3.7S56.6,26.5,54.6,26.5z"/>
		</g>
		<g id="XMLID_16_">
			<circle id="XMLID_391_" class="st2" cx="9.4" cy="30.2" r="4.1"/>
			<path id="XMLID_392_" class="st3" d="M9.4,34.8c-2.5,0-4.6-2-4.6-4.6s2-4.6,4.6-4.6c2.5,0,4.6,2,4.6,4.6S11.9,34.8,9.4,34.8z
				 M9.4,26.5c-2,0-3.7,1.7-3.7,3.7s1.7,3.7,3.7,3.7s3.7-1.7,3.7-3.7S11.4,26.5,9.4,26.5z"/>
		</g>
		<g id="XMLID_4_">
			<rect id="XMLID_387_" x="24.1" y="50.4" class="st2" width="16.2" height="4.6"/>
			<path id="XMLID_388_" class="st3" d="M40.3,55.4H24.1c-0.2,0-0.4-0.2-0.4-0.4v-4.6c0-0.2,0.2-0.4,0.4-0.4h16.2
				c0.2,0,0.4,0.2,0.4,0.4V55C40.7,55.2,40.5,55.4,40.3,55.4z M24.6,54.5h15.3v-3.7H24.6V54.5z"/>
		</g>
		<g id="XMLID_6_">
			<path id="XMLID_422_" class="st2" d="M51.3,19.2H12.7c-2.4,0-4.4,2-4.4,4.4v13.7c0,2.4,2,4.4,4.4,4.4h38.7c2.4,0,4.4-2,4.4-4.4
				V23.7C55.7,21.2,53.8,19.2,51.3,19.2z"/>
			<path id="XMLID_384_" class="st3" d="M51.3,42.2H12.7c-2.7,0-4.9-2.2-4.9-4.9V23.7c0-2.7,2.2-4.9,4.9-4.9h38.7
				c2.7,0,4.9,2.2,4.9,4.9v13.7C56.2,40,54,42.2,51.3,42.2z M12.7,19.7c-2.2,0-4,1.8-4,4v13.7c0,2.2,1.8,4,4,4h38.7c2.2,0,4-1.8,4-4
				V23.7c0-2.2-1.8-4-4-4H12.7z"/>
		</g>
		<g id="XMLID_19_">
			<path id="XMLID_423_" class="st2" d="M62.4,55H1.6c-2.4,0-4.4,2-4.4,4.4v7.8c0,0.7,0.5,1.2,1.2,1.2h67.2c0.7,0,1.2-0.5,1.2-1.2
				v-7.8C66.8,56.9,64.8,55,62.4,55z"/>
			<path id="XMLID_380_" class="st3" d="M65.6,68.9H-1.6c-0.9,0-1.7-0.7-1.7-1.7v-7.8c0-2.7,2.2-4.9,4.9-4.9h60.8
				c2.7,0,4.9,2.2,4.9,4.9v7.8C67.3,68.1,66.5,68.9,65.6,68.9z M1.6,55.4c-2.2,0-4,1.8-4,4v7.8c0,0.4,0.4,0.8,0.8,0.8h67.2
				c0.4,0,0.8-0.4,0.8-0.8v-7.8c0-2.2-1.8-4-4-4H1.6z"/>
		</g>
		<g id="XMLID_44_">
			<g id="XMLID_20_">
				<path id="XMLID_375_" class="st4" d="M27.7,34.8c0.2,2.2,2,3.9,4.3,3.9s4.1-1.7,4.3-3.9H27.7z"/>
				<path id="XMLID_376_" class="st3" d="M32,39.1c-2.5,0-4.5-1.9-4.7-4.3c0-0.1,0-0.2,0.1-0.3s0.2-0.1,0.3-0.1h8.6
					c0.1,0,0.2,0.1,0.3,0.1c0.1,0.1,0.1,0.2,0.1,0.3C36.5,37.3,34.5,39.1,32,39.1z M28.2,35.2c0.4,1.8,1.9,3,3.8,3
					c1.8,0,3.4-1.3,3.8-3H28.2z"/>
			</g>
			<g id="XMLID_25_">
				<path id="XMLID_371_" class="st3" d="M34.9,37.6c-0.7-0.7-1.7-1.2-2.9-1.2s-2.1,0.5-2.9,1.2c0.8,0.7,1.8,1.1,2.9,1.1
					S34.1,38.3,34.9,37.6z"/>
				<path id="XMLID_372_" class="st3" d="M32,39.1c-1.2,0-2.3-0.4-3.1-1.2c-0.1-0.1-0.1-0.2-0.1-0.3c0-0.1,0-0.2,0.1-0.3
					c0.8-0.8,2-1.3,3.2-1.3c1.2,0,2.3,0.5,3.2,1.3c0.1,0.1,0.1,0.2,0.1,0.3c0,0.1-0.1,0.2-0.1,0.3C34.3,38.7,33.2,39.1,32,39.1z
					 M29.8,37.6c1.3,0.9,3.1,0.9,4.3,0c-0.6-0.5-1.4-0.7-2.2-0.7C31.2,36.8,30.5,37.1,29.8,37.6z"/>
			</g>
		</g>
		<g id="XMLID_22_" class="st5">
			<rect id="XMLID_370_" x="29.6" y="41.7" class="st3" width="5.1" height="1.8"/>
		</g>
		<g id="XMLID_27_" class="st6">
			<path id="XMLID_369_" class="st3" d="M55.7,34.2c0.4-0.1,0.7-0.3,1.1-0.5v-6.9c-0.3-0.2-0.7-0.4-1.1-0.5V34.2z"/>
		</g>
		<g id="XMLID_23_" class="st6">
			<path id="XMLID_368_" class="st3" d="M8.3,34.2c-0.4-0.1-0.7-0.3-1.1-0.5v-6.9c0.3-0.2,0.7-0.4,1.1-0.5V34.2z"/>
		</g>
		<g id="XMLID_113_" class="st7">
			<g id="XMLID_123_">
				<g id="XMLID_130_">
					<polygon id="XMLID_364_" class="st3" points="20,23.4 16.7,23.4 15.9,25 20.7,25 					"/>
					<path id="XMLID_365_" class="st3" d="M21.4,25.5h-6.2l1.2-2.5h3.8L21.4,25.5z M16.6,24.6H20l-0.4-0.8H17L16.6,24.6z"/>
				</g>
				<g id="XMLID_129_">
					<polygon id="XMLID_360_" class="st3" points="16.7,39.1 20,39.1 20.7,37.5 15.9,37.5 					"/>
					<path id="XMLID_361_" class="st3" d="M20.2,39.5h-3.8L15.3,37h6.2L20.2,39.5z M17,38.7h2.7l0.4-0.8h-3.4L17,38.7z"/>
				</g>
				<g id="XMLID_128_">
					<circle id="XMLID_356_" class="st3" cx="18.3" cy="31.3" r="6.6"/>
					<path id="XMLID_357_" class="st3" d="M18.3,38.3c-3.9,0-7-3.2-7-7s3.2-7,7-7c3.9,0,7,3.2,7,7S22.2,38.3,18.3,38.3z M18.3,25.1
						c-3.4,0-6.2,2.8-6.2,6.2c0,3.4,2.8,6.2,6.2,6.2c3.4,0,6.2-2.8,6.2-6.2C24.5,27.9,21.7,25.1,18.3,25.1z"/>
				</g>
				<g id="XMLID_127_">
					<circle id="XMLID_352_" class="st3" cx="18.3" cy="31.3" r="5"/>
					<path id="XMLID_353_" class="st3" d="M18.3,36.7c-3,0-5.4-2.4-5.4-5.4c0-3,2.4-5.4,5.4-5.4s5.4,2.4,5.4,5.4
						C23.7,34.2,21.3,36.7,18.3,36.7z M18.3,26.7c-2.5,0-4.5,2-4.5,4.5c0,2.5,2,4.5,4.5,4.5s4.5-2,4.5-4.5
						C22.9,28.8,20.8,26.7,18.3,26.7z"/>
				</g>
				<g id="XMLID_126_">
					<circle id="XMLID_348_" class="st3" cx="18.3" cy="31.3" r="2.4"/>
					<path id="XMLID_349_" class="st3" d="M18.3,34.1c-1.6,0-2.8-1.3-2.8-2.8c0-1.6,1.3-2.8,2.8-2.8c1.6,0,2.8,1.3,2.8,2.8
						C21.2,32.8,19.9,34.1,18.3,34.1z M18.3,29.3c-1.1,0-1.9,0.9-1.9,1.9c0,1.1,0.9,1.9,1.9,1.9c1.1,0,1.9-0.9,1.9-1.9
						C20.3,30.2,19.4,29.3,18.3,29.3z"/>
				</g>
				<g id="XMLID_125_">
					<circle id="XMLID_346_" class="st3" cx="18.3" cy="24" r="0.5"/>
					<circle id="XMLID_347_" class="st3" cx="18.3" cy="24" r="0.9"/>
				</g>
				<g id="XMLID_124_">
					<circle id="XMLID_344_" class="st3" cx="18.3" cy="38.5" r="0.5"/>
					<circle id="XMLID_345_" class="st3" cx="18.3" cy="38.5" r="0.9"/>
				</g>
			</g>
			<g id="XMLID_114_">
				<g id="XMLID_116_">
					<g id="XMLID_122_">
						<polygon id="XMLID_339_" class="st3" points="44,39.1 47.3,39.1 48.1,37.5 43.3,37.5 						"/>
						<path id="XMLID_340_" class="st3" d="M47.6,39.5h-3.8L42.6,37h6.2L47.6,39.5z M44.3,38.7H47l0.4-0.8H44L44.3,38.7z"/>
					</g>
					<g id="XMLID_121_">
						<polygon id="XMLID_335_" class="st3" points="47.3,23.4 44,23.4 43.3,25 48.1,25 						"/>
						<path id="XMLID_336_" class="st3" d="M48.7,25.5h-6.2l1.2-2.5h3.8L48.7,25.5z M44,24.6h3.4L47,23.8h-2.7L44,24.6z"/>
					</g>
					<g id="XMLID_120_">
						<circle id="XMLID_331_" class="st3" cx="45.7" cy="31.3" r="6.6"/>
						<path id="XMLID_332_" class="st3" d="M45.7,38.3c-3.9,0-7-3.2-7-7s3.2-7,7-7s7,3.2,7,7S49.6,38.3,45.7,38.3z M45.7,25.1
							c-3.4,0-6.2,2.8-6.2,6.2c0,3.4,2.8,6.2,6.2,6.2s6.2-2.8,6.2-6.2C51.8,27.9,49.1,25.1,45.7,25.1z"/>
					</g>
					<g id="XMLID_119_">
						<circle id="XMLID_327_" class="st3" cx="45.7" cy="31.3" r="5"/>
						<path id="XMLID_328_" class="st3" d="M45.7,36.7c-3,0-5.4-2.4-5.4-5.4c0-3,2.4-5.4,5.4-5.4s5.4,2.4,5.4,5.4
							C51.1,34.2,48.6,36.7,45.7,36.7z M45.7,26.7c-2.5,0-4.5,2-4.5,4.5c0,2.5,2,4.5,4.5,4.5c2.5,0,4.5-2,4.5-4.5
							C50.2,28.8,48.2,26.7,45.7,26.7z"/>
					</g>
					<g id="XMLID_118_">
						<circle id="XMLID_325_" class="st3" cx="45.7" cy="38.5" r="0.5"/>
						<circle id="XMLID_326_" class="st3" cx="45.7" cy="38.5" r="0.9"/>
					</g>
					<g id="XMLID_117_">
						<circle id="XMLID_323_" class="st3" cx="45.7" cy="24" r="0.5"/>
						<circle id="XMLID_324_" class="st3" cx="45.7" cy="24" r="0.9"/>
					</g>
				</g>
				<g id="XMLID_115_">
					<circle id="XMLID_319_" class="st3" cx="45.7" cy="31.3" r="2.4"/>
					<path id="XMLID_320_" class="st3" d="M45.7,34.1c-1.6,0-2.8-1.3-2.8-2.8c0-1.6,1.3-2.8,2.8-2.8c1.6,0,2.8,1.3,2.8,2.8
						C48.5,32.8,47.2,34.1,45.7,34.1z M45.7,29.3c-1.1,0-1.9,0.9-1.9,1.9c0,1.1,0.9,1.9,1.9,1.9s1.9-0.9,1.9-1.9
						C47.6,30.2,46.7,29.3,45.7,29.3z"/>
				</g>
			</g>
		</g>
		<g id="XMLID_111_">
			<g id="XMLID_17_">
				<g id="XMLID_28_">
					<polygon id="XMLID_315_" class="st3" points="20,22.6 16.7,22.6 15.9,24.3 20.7,24.3 					"/>
					<path id="XMLID_316_" class="st3" d="M20.7,24.7h-4.8c-0.2,0-0.3-0.1-0.4-0.2s-0.1-0.3,0-0.4l0.8-1.6c0.1-0.2,0.2-0.3,0.4-0.3
						H20c0.2,0,0.3,0.1,0.4,0.3l0.8,1.6c0.1,0.1,0.1,0.3,0,0.4S20.9,24.7,20.7,24.7z M16.6,23.8H20l-0.4-0.8H17L16.6,23.8z"/>
				</g>
				<g id="XMLID_29_">
					<polygon id="XMLID_311_" class="st3" points="16.7,38.3 20,38.3 20.7,36.7 15.9,36.7 					"/>
					<path id="XMLID_312_" class="st3" d="M20,38.8h-3.3c-0.2,0-0.3-0.1-0.4-0.3l-0.8-1.6c-0.1-0.1-0.1-0.3,0-0.4
						c0.1-0.1,0.2-0.2,0.4-0.2h4.8c0.2,0,0.3,0.1,0.4,0.2c0.1,0.1,0.1,0.3,0,0.4l-0.8,1.6C20.3,38.7,20.1,38.8,20,38.8z M17,37.9
						h2.7l0.4-0.8h-3.4L17,37.9z"/>
				</g>
				<g id="XMLID_15_">
					<circle id="XMLID_307_" class="st4" cx="18.3" cy="30.5" r="6.6"/>
					<path id="XMLID_308_" class="st3" d="M18.3,37.5c-3.9,0-7-3.2-7-7s3.2-7,7-7c3.9,0,7,3.2,7,7S22.2,37.5,18.3,37.5z M18.3,24.3
						c-3.4,0-6.2,2.8-6.2,6.2s2.8,6.2,6.2,6.2c3.4,0,6.2-2.8,6.2-6.2S21.7,24.3,18.3,24.3z"/>
				</g>
				<g id="XMLID_24_">
					<circle id="XMLID_303_" class="st2" cx="18.3" cy="30.5" r="5"/>
					<path id="XMLID_304_" class="st3" d="M18.3,35.9c-3,0-5.4-2.4-5.4-5.4s2.4-5.4,5.4-5.4s5.4,2.4,5.4,5.4S21.3,35.9,18.3,35.9z
						 M18.3,26c-2.5,0-4.5,2-4.5,4.5c0,2.5,2,4.5,4.5,4.5s4.5-2,4.5-4.5C22.9,28,20.8,26,18.3,26z"/>
				</g>
				<g id="XMLID_26_">
					<circle id="XMLID_299_" class="st3" cx="18.3" cy="30.5" r="2.4"/>
					<path id="XMLID_300_" class="st3" d="M18.3,33.3c-1.6,0-2.8-1.3-2.8-2.8c0-1.6,1.3-2.8,2.8-2.8c1.6,0,2.8,1.3,2.8,2.8
						C21.2,32.1,19.9,33.3,18.3,33.3z M18.3,28.5c-1.1,0-1.9,0.9-1.9,1.9c0,1.1,0.9,1.9,1.9,1.9c1.1,0,1.9-0.9,1.9-1.9
						C20.3,29.4,19.4,28.5,18.3,28.5z"/>
				</g>
				<g id="XMLID_31_">
					<circle id="XMLID_427_" class="st2" cx="18.3" cy="23.3" r="0.5"/>
				</g>
				<g id="XMLID_34_">
					<circle id="XMLID_426_" class="st2" cx="18.3" cy="37.7" r="0.5"/>
				</g>
			</g>
			<g id="XMLID_37_">
				<g id="XMLID_33_">
					<g id="XMLID_41_">
						<polygon id="XMLID_295_" class="st3" points="44,38.3 47.3,38.3 48.1,36.7 43.3,36.7 						"/>
						<path id="XMLID_296_" class="st3" d="M47.3,38.8H44c-0.2,0-0.3-0.1-0.4-0.3l-0.8-1.6c-0.1-0.1-0.1-0.3,0-0.4
							c0.1-0.1,0.2-0.2,0.4-0.2h4.8c0.2,0,0.3,0.1,0.4,0.2c0.1,0.1,0.1,0.3,0,0.4l-0.8,1.6C47.6,38.7,47.5,38.8,47.3,38.8z
							 M44.3,37.9H47l0.4-0.8H44L44.3,37.9z"/>
					</g>
					<g id="XMLID_40_">
						<polygon id="XMLID_291_" class="st3" points="47.3,22.6 44,22.6 43.3,24.3 48.1,24.3 						"/>
						<path id="XMLID_292_" class="st3" d="M48.1,24.7h-4.8c-0.2,0-0.3-0.1-0.4-0.2s-0.1-0.3,0-0.4l0.8-1.6c0.1-0.2,0.2-0.3,0.4-0.3
							h3.3c0.2,0,0.3,0.1,0.4,0.3l0.8,1.6c0.1,0.1,0.1,0.3,0,0.4S48.2,24.7,48.1,24.7z M44,23.8h3.4L47,23.1h-2.7L44,23.8z"/>
					</g>
					<g id="XMLID_39_">
						<circle id="XMLID_287_" class="st4" cx="45.7" cy="30.5" r="6.6"/>
						<path id="XMLID_288_" class="st3" d="M45.7,37.5c-3.9,0-7-3.2-7-7s3.2-7,7-7s7,3.2,7,7S49.6,37.5,45.7,37.5z M45.7,24.3
							c-3.4,0-6.2,2.8-6.2,6.2s2.8,6.2,6.2,6.2s6.2-2.8,6.2-6.2S49.1,24.3,45.7,24.3z"/>
					</g>
					<g id="XMLID_38_">
						<circle id="XMLID_283_" class="st2" cx="45.7" cy="30.5" r="5"/>
						<path id="XMLID_284_" class="st3" d="M45.7,35.9c-3,0-5.4-2.4-5.4-5.4s2.4-5.4,5.4-5.4s5.4,2.4,5.4,5.4S48.6,35.9,45.7,35.9z
							 M45.7,26c-2.5,0-4.5,2-4.5,4.5c0,2.5,2,4.5,4.5,4.5c2.5,0,4.5-2,4.5-4.5C50.2,28,48.2,26,45.7,26z"/>
					</g>
					<g id="XMLID_36_">
						<circle id="XMLID_425_" class="st2" cx="45.7" cy="37.7" r="0.5"/>
					</g>
					<g id="XMLID_35_">
						<circle id="XMLID_424_" class="st2" cx="45.7" cy="23.3" r="0.5"/>
					</g>
				</g>
				<g id="XMLID_18_">
					<circle id="XMLID_279_" class="st3" cx="45.7" cy="30.5" r="2.4"/>
					<path id="XMLID_280_" class="st3" d="M45.7,33.3c-1.6,0-2.8-1.3-2.8-2.8c0-1.6,1.3-2.8,2.8-2.8c1.6,0,2.8,1.3,2.8,2.8
						C48.5,32.1,47.2,33.3,45.7,33.3z M45.7,28.5c-1.1,0-1.9,0.9-1.9,1.9c0,1.1,0.9,1.9,1.9,1.9s1.9-0.9,1.9-1.9
						C47.6,29.4,46.7,28.5,45.7,28.5z"/>
				</g>
			</g>
		</g>
		<g id="XMLID_50_">
			<circle id="XMLID_275_" class="st4" cx="4.4" cy="61.7" r="4.2"/>
			<path id="XMLID_276_" class="st3" d="M4.4,66.3c-2.6,0-4.6-2.1-4.6-4.6c0-2.6,2.1-4.6,4.6-4.6S9,59.1,9,61.7
				C9,64.3,6.9,66.3,4.4,66.3z M4.4,57.9c-2.1,0-3.8,1.7-3.8,3.8c0,2.1,1.7,3.8,3.8,3.8c2.1,0,3.8-1.7,3.8-3.8
				C8.1,59.6,6.4,57.9,4.4,57.9z"/>
		</g>
		<g id="XMLID_62_">
			<defs>
				<circle id="XMLID_383_" cx="4.4" cy="61.7" r="4"/>
			</defs>
			<clipPath id="XMLID_431_">
				<use xlink:href="#XMLID_383_"  style="overflow:visible;"/>
			</clipPath>
		</g>
		<g id="XMLID_74_">
			<defs>
				<circle id="XMLID_379_" cx="4.4" cy="61.7" r="4.2"/>
			</defs>
			<clipPath id="XMLID_432_">
				<use xlink:href="#XMLID_379_"  style="overflow:visible;"/>
			</clipPath>
			<g id="XMLID_70_" class="st8">
				<g id="XMLID_55_">
					<line id="XMLID_273_" class="st2" x1="-0.1" y1="56" x2="-0.1" y2="67.4"/>
					<rect id="XMLID_274_" x="-0.4" y="56" class="st3" width="0.4" height="11.5"/>
				</g>
				<g id="XMLID_52_">
					<line id="XMLID_271_" class="st2" x1="1.1" y1="56" x2="1.1" y2="67.4"/>
					<rect id="XMLID_272_" x="0.9" y="56" class="st3" width="0.4" height="11.5"/>
				</g>
				<g id="XMLID_56_">
					<line id="XMLID_269_" class="st2" x1="2.4" y1="56" x2="2.4" y2="67.4"/>
					<rect id="XMLID_270_" x="2.2" y="56" class="st3" width="0.4" height="11.5"/>
				</g>
				<g id="XMLID_57_">
					<line id="XMLID_267_" class="st2" x1="3.7" y1="56" x2="3.7" y2="67.4"/>
					<rect id="XMLID_268_" x="3.5" y="56" class="st3" width="0.4" height="11.5"/>
				</g>
				<g id="XMLID_58_">
					<line id="XMLID_265_" class="st2" x1="5" y1="56" x2="5" y2="67.4"/>
					<rect id="XMLID_266_" x="4.8" y="56" class="st3" width="0.4" height="11.5"/>
				</g>
				<g id="XMLID_59_">
					<line id="XMLID_263_" class="st2" x1="6.3" y1="56" x2="6.3" y2="67.4"/>
					<rect id="XMLID_264_" x="6.1" y="56" class="st3" width="0.4" height="11.5"/>
				</g>
				<g id="XMLID_61_">
					<line id="XMLID_261_" class="st2" x1="7.6" y1="56" x2="7.6" y2="67.4"/>
					<rect id="XMLID_262_" x="7.3" y="56" class="st3" width="0.4" height="11.5"/>
				</g>
				<g id="XMLID_63_">
					<line id="XMLID_259_" class="st2" x1="8.8" y1="56" x2="8.8" y2="67.4"/>
					<rect id="XMLID_260_" x="8.6" y="56" class="st3" width="0.4" height="11.5"/>
				</g>
				<g id="XMLID_73_">
					<line id="XMLID_257_" class="st2" x1="10.1" y1="57.2" x2="-1.4" y2="57.2"/>
					<rect id="XMLID_258_" x="-1.4" y="57" class="st3" width="11.5" height="0.4"/>
				</g>
				<g id="XMLID_71_">
					<line id="XMLID_255_" class="st2" x1="10.1" y1="58.5" x2="-1.4" y2="58.5"/>
					<rect id="XMLID_256_" x="-1.4" y="58.3" class="st3" width="11.5" height="0.4"/>
				</g>
				<g id="XMLID_69_">
					<line id="XMLID_253_" class="st2" x1="10.1" y1="59.8" x2="-1.4" y2="59.8"/>
					<rect id="XMLID_254_" x="-1.4" y="59.6" class="st3" width="11.5" height="0.4"/>
				</g>
				<g id="XMLID_68_">
					<line id="XMLID_251_" class="st2" x1="10.1" y1="61.1" x2="-1.4" y2="61.1"/>
					<rect id="XMLID_252_" x="-1.4" y="60.8" class="st3" width="11.5" height="0.4"/>
				</g>
				<g id="XMLID_67_">
					<line id="XMLID_249_" class="st2" x1="10.1" y1="62.3" x2="-1.4" y2="62.3"/>
					<rect id="XMLID_250_" x="-1.4" y="62.1" class="st3" width="11.5" height="0.4"/>
				</g>
				<g id="XMLID_66_">
					<line id="XMLID_247_" class="st2" x1="10.1" y1="63.6" x2="-1.4" y2="63.6"/>
					<rect id="XMLID_248_" x="-1.4" y="63.4" class="st3" width="11.5" height="0.4"/>
				</g>
				<g id="XMLID_65_">
					<line id="XMLID_245_" class="st2" x1="10.1" y1="64.9" x2="-1.4" y2="64.9"/>
					<rect id="XMLID_246_" x="-1.4" y="64.7" class="st3" width="11.5" height="0.4"/>
				</g>
				<g id="XMLID_64_">
					<line id="XMLID_233_" class="st2" x1="10.1" y1="66.2" x2="-1.4" y2="66.2"/>
					<rect id="XMLID_244_" x="-1.4" y="66" class="st3" width="11.5" height="0.4"/>
				</g>
			</g>
		</g>
		<g id="XMLID_77_">
			<g id="XMLID_76_">
				<rect id="XMLID_243_" x="11.8" y="59" class="st3" width="19.9" height="0.9"/>
			</g>
			<g id="XMLID_75_">
				<rect id="XMLID_242_" x="11.8" y="63.5" class="st3" width="19.9" height="0.9"/>
			</g>
		</g>
		<g id="XMLID_84_" class="st5">
			<circle id="XMLID_238_" class="st3" cx="26.1" cy="60.2" r="1.5"/>
			<path id="XMLID_239_" class="st3" d="M26.1,62.1c-1,0-1.9-0.9-1.9-1.9s0.9-1.9,1.9-1.9s1.9,0.9,1.9,1.9S27.2,62.1,26.1,62.1z
				 M26.1,59.1c-0.6,0-1,0.5-1,1c0,0.6,0.5,1,1,1s1-0.5,1-1C27.1,59.6,26.7,59.1,26.1,59.1z"/>
		</g>
		<g id="XMLID_83_" class="st5">
			<circle id="XMLID_234_" class="st3" cx="15.7" cy="64.8" r="1.5"/>
			<path id="XMLID_235_" class="st3" d="M15.7,66.7c-1,0-1.9-0.9-1.9-1.9s0.9-1.9,1.9-1.9s1.9,0.9,1.9,1.9S16.7,66.7,15.7,66.7z
				 M15.7,63.7c-0.6,0-1,0.5-1,1s0.5,1,1,1s1-0.5,1-1S16.3,63.7,15.7,63.7z"/>
		</g>
		<g id="XMLID_78_">
			<circle id="XMLID_229_" class="st2" cx="26.1" cy="59.4" r="1.5"/>
			<path id="XMLID_230_" class="st3" d="M26.1,61.3c-1,0-1.9-0.9-1.9-1.9s0.9-1.9,1.9-1.9s1.9,0.9,1.9,1.9S27.2,61.3,26.1,61.3z
				 M26.1,58.4c-0.6,0-1,0.5-1,1c0,0.6,0.5,1,1,1s1-0.5,1-1C27.1,58.8,26.7,58.4,26.1,58.4z"/>
		</g>
		<g id="XMLID_81_">
			<circle id="XMLID_225_" class="st2" cx="15.7" cy="64" r="1.5"/>
			<path id="XMLID_226_" class="st3" d="M15.7,65.9c-1,0-1.9-0.9-1.9-1.9c0-1,0.9-1.9,1.9-1.9s1.9,0.9,1.9,1.9
				C17.6,65,16.7,65.9,15.7,65.9z M15.7,63c-0.6,0-1,0.5-1,1c0,0.6,0.5,1,1,1s1-0.5,1-1C16.7,63.4,16.3,63,15.7,63z"/>
		</g>
		<g id="XMLID_87_" class="st5">
			<path id="XMLID_224_" class="st3" d="M4.4,59c2.1,0,3.8,1.5,4.1,3.4c0-0.2,0.1-0.5,0.1-0.8c0-2.3-1.9-4.2-4.2-4.2
				c-2.3,0-4.2,1.9-4.2,4.2c0,0.3,0,0.5,0.1,0.8C0.6,60.5,2.3,59,4.4,59z"/>
		</g>
		<g id="XMLID_88_">
			<g id="XMLID_93_">
				<rect id="XMLID_220_" x="44.5" y="57.9" class="st2" width="2.9" height="2.9"/>
				<path id="XMLID_221_" class="st3" d="M47.4,61.3h-2.9c-0.2,0-0.4-0.2-0.4-0.4v-2.9c0-0.2,0.2-0.4,0.4-0.4h2.9
					c0.2,0,0.4,0.2,0.4,0.4v2.9C47.8,61.1,47.6,61.3,47.4,61.3z M44.9,60.4h2v-2h-2V60.4z"/>
			</g>
			<g id="XMLID_86_">
				<g id="XMLID_79_">
					<rect id="XMLID_216_" x="35.3" y="57.9" class="st2" width="2.9" height="2.9"/>
					<path id="XMLID_217_" class="st3" d="M38.2,61.3h-2.9c-0.2,0-0.4-0.2-0.4-0.4v-2.9c0-0.2,0.2-0.4,0.4-0.4h2.9
						c0.2,0,0.4,0.2,0.4,0.4v2.9C38.7,61.1,38.5,61.3,38.2,61.3z M35.8,60.4h2v-2h-2V60.4z"/>
				</g>
				<g id="XMLID_85_">
					<rect id="XMLID_212_" x="35.3" y="62.5" class="st2" width="2.9" height="2.9"/>
					<path id="XMLID_213_" class="st3" d="M38.2,65.9h-2.9c-0.2,0-0.4-0.2-0.4-0.4v-2.9c0-0.2,0.2-0.4,0.4-0.4h2.9
						c0.2,0,0.4,0.2,0.4,0.4v2.9C38.7,65.7,38.5,65.9,38.2,65.9z M35.8,65h2v-2h-2V65z"/>
				</g>
				<g id="XMLID_90_">
					<rect id="XMLID_208_" x="39.9" y="57.9" class="st2" width="2.9" height="2.9"/>
					<path id="XMLID_209_" class="st3" d="M42.8,61.3h-2.9c-0.2,0-0.4-0.2-0.4-0.4v-2.9c0-0.2,0.2-0.4,0.4-0.4h2.9
						c0.2,0,0.4,0.2,0.4,0.4v2.9C43.3,61.1,43.1,61.3,42.8,61.3z M40.3,60.4h2v-2h-2V60.4z"/>
				</g>
				<g id="XMLID_89_">
					<rect id="XMLID_202_" x="39.9" y="62.5" class="st2" width="2.9" height="2.9"/>
					<path id="XMLID_203_" class="st3" d="M42.8,65.9h-2.9c-0.2,0-0.4-0.2-0.4-0.4v-2.9c0-0.2,0.2-0.4,0.4-0.4h2.9
						c0.2,0,0.4,0.2,0.4,0.4v2.9C43.3,65.7,43.1,65.9,42.8,65.9z M40.3,65h2v-2h-2V65z"/>
				</g>
				<g id="XMLID_92_">
					<rect id="XMLID_198_" x="44.5" y="62.5" class="st2" width="2.9" height="2.9"/>
					<path id="XMLID_199_" class="st3" d="M47.4,65.9h-2.9c-0.2,0-0.4-0.2-0.4-0.4v-2.9c0-0.2,0.2-0.4,0.4-0.4h2.9
						c0.2,0,0.4,0.2,0.4,0.4v2.9C47.8,65.7,47.6,65.9,47.4,65.9z M44.9,65h2v-2h-2V65z"/>
				</g>
				<g id="XMLID_96_">
					<rect id="XMLID_194_" x="49.1" y="57.9" class="st2" width="2.9" height="2.9"/>
					<path id="XMLID_195_" class="st3" d="M52,61.3h-2.9c-0.2,0-0.4-0.2-0.4-0.4v-2.9c0-0.2,0.2-0.4,0.4-0.4H52
						c0.2,0,0.4,0.2,0.4,0.4v2.9C52.4,61.1,52.2,61.3,52,61.3z M49.5,60.4h2v-2h-2V60.4z"/>
				</g>
				<g id="XMLID_95_">
					<rect id="XMLID_186_" x="49.1" y="62.5" class="st2" width="2.9" height="2.9"/>
					<path id="XMLID_191_" class="st3" d="M52,65.9h-2.9c-0.2,0-0.4-0.2-0.4-0.4v-2.9c0-0.2,0.2-0.4,0.4-0.4H52
						c0.2,0,0.4,0.2,0.4,0.4v2.9C52.4,65.7,52.2,65.9,52,65.9z M49.5,65h2v-2h-2V65z"/>
				</g>
			</g>
		</g>
		<g id="XMLID_98_" class="st5">
			<circle id="XMLID_187_" class="st3" cx="59.9" cy="62.5" r="3.8"/>
			<path id="XMLID_188_" class="st3" d="M59.9,66.7c-2.3,0-4.2-1.9-4.2-4.2c0-2.3,1.9-4.2,4.2-4.2s4.2,1.9,4.2,4.2
				C64.1,64.8,62.3,66.7,59.9,66.7z M59.9,59.1c-1.8,0-3.3,1.5-3.3,3.3c0,1.8,1.5,3.3,3.3,3.3c1.8,0,3.3-1.5,3.3-3.3
				C63.3,60.6,61.8,59.1,59.9,59.1z"/>
		</g>
		<g id="XMLID_91_">
			<circle id="XMLID_182_" class="st2" cx="59.9" cy="61.7" r="3.8"/>
			<path id="XMLID_183_" class="st3" d="M59.9,65.9c-2.3,0-4.2-1.9-4.2-4.2s1.9-4.2,4.2-4.2s4.2,1.9,4.2,4.2S62.3,65.9,59.9,65.9z
				 M59.9,58.4c-1.8,0-3.3,1.5-3.3,3.3c0,1.8,1.5,3.3,3.3,3.3c1.8,0,3.3-1.5,3.3-3.3C63.3,59.9,61.8,58.4,59.9,58.4z"/>
		</g>
		<g id="XMLID_94_">
			<polygon id="XMLID_176_" class="st2" points="64,58.5 62.3,57.1 60,61.7 59.9,61.7 			"/>
			<path id="XMLID_179_" class="st3" d="M59.9,62.1c-0.1,0-0.2,0-0.3-0.1c-0.2-0.2-0.2-0.4,0-0.6l2.3-4.5c0.1-0.1,0.2-0.2,0.3-0.2
				c0.1,0,0.3,0,0.4,0.1l1.7,1.4c0.1,0.1,0.2,0.2,0.2,0.3c0,0.1-0.1,0.3-0.2,0.3l-4,3.2C60.1,62.1,60,62.1,59.9,62.1z M62.5,57.8
				l-1.2,2.2l2-1.6L62.5,57.8z"/>
		</g>
		<g id="XMLID_100_" class="st7">
			<path id="XMLID_177_" class="st3" d="M59.9,64.7c-1.9,0-3.5-1.5-3.7-3.4c0,0.1,0,0.3,0,0.4c0,2.1,1.7,3.8,3.8,3.8
				c2.1,0,3.8-1.7,3.8-3.8c0-0.1,0-0.3,0-0.4C63.5,63.2,61.9,64.7,59.9,64.7z"/>
			<path id="XMLID_178_" class="st3" d="M59.9,65.9c-2.3,0-4.2-1.9-4.2-4.2c0-0.1,0-0.3,0-0.4c0-0.2,0.2-0.4,0.4-0.4h0
				c0.2,0,0.4,0.2,0.4,0.4c0.2,1.7,1.6,3,3.3,3s3.1-1.3,3.3-3c0-0.2,0.2-0.4,0.4-0.4h0c0.2,0,0.4,0.2,0.4,0.4c0,0.1,0,0.3,0,0.4
				C64.1,64,62.3,65.9,59.9,65.9z"/>
		</g>
		<g id="XMLID_5_">
			<polygon id="XMLID_172_" class="st2" points="63.7,75.6 0.7,75.6 -0.5,68.4 64.9,68.4 			"/>
			<path id="XMLID_173_" class="st3" d="M63.7,76h-63c-0.2,0-0.4-0.2-0.4-0.4l-1.1-7.1c0-0.1,0-0.3,0.1-0.4c0.1-0.1,0.2-0.2,0.3-0.2
				h65.3c0.1,0,0.3,0.1,0.3,0.2c0.1,0.1,0.1,0.2,0.1,0.4l-1.1,7.1C64.1,75.8,63.9,76,63.7,76z M1,75.1h62.3l1-6.2H0L1,75.1z"/>
		</g>
		<g id="XMLID_99_">
			<line id="XMLID_170_" class="st2" x1="8.3" y1="29.3" x2="11.7" y2="29.3"/>
			<rect id="XMLID_171_" x="8.3" y="28.9" class="st3" width="3.5" height="0.9"/>
		</g>
		<g id="XMLID_101_">
			<polyline id="XMLID_168_" class="st2" points="39.1,29.3 33.6,29.3 32,27.7 30.4,29.3 24.9,29.3 			"/>
			<path id="XMLID_169_" class="st3" d="M39.1,29.8h-5.5c-0.1,0-0.2,0-0.3-0.1L32,28.4l-1.3,1.3c-0.1,0.1-0.2,0.1-0.3,0.1h-5.5v-0.9
				h5.3l1.5-1.5c0.2-0.2,0.5-0.2,0.6,0l1.5,1.5h5.3V29.8z"/>
		</g>
		<g id="XMLID_102_">
			<line id="XMLID_160_" class="st2" x1="52.3" y1="29.3" x2="55.5" y2="29.3"/>
			<rect id="XMLID_167_" x="52.3" y="28.9" class="st3" width="3.3" height="0.9"/>
		</g>
		<g id="XMLID_343_" class="st9">
			<line id="XMLID_165_" class="st2" x1="8.3" y1="29.8" x2="11.7" y2="29.8"/>
			<rect id="XMLID_166_" x="8.3" y="29.1" class="st3" width="3.5" height="1.3"/>
		</g>
		<g id="XMLID_207_" class="st9">
			<polyline id="XMLID_163_" class="st2" points="24.9,29.8 30.4,29.8 32,28.2 33.6,29.8 39.1,29.8 			"/>
			<path id="XMLID_164_" class="st3" d="M39.1,30.4h-5.5c-0.2,0-0.3-0.1-0.5-0.2L32,29.1l-1.2,1.2c-0.1,0.1-0.3,0.2-0.5,0.2h-5.5
				v-1.3h5.2l1.4-1.4c0.2-0.2,0.7-0.2,0.9,0l1.4,1.4h5.2V30.4z"/>
		</g>
		<g id="XMLID_206_" class="st9">
			<line id="XMLID_161_" class="st2" x1="52.3" y1="29.8" x2="55.5" y2="29.8"/>
			<rect id="XMLID_162_" x="52.3" y="29.1" class="st3" width="3.3" height="1.3"/>
		</g>
		<g id="XMLID_105_">
			<g id="XMLID_103_">
				<line id="XMLID_158_" class="st2" x1="27.7" y1="21.6" x2="36.3" y2="21.6"/>
				<rect id="XMLID_159_" x="27.7" y="21.2" class="st10" width="8.6" height="0.9"/>
			</g>
			<g id="XMLID_97_">
				<line id="XMLID_156_" class="st2" x1="27.7" y1="23.2" x2="36.3" y2="23.2"/>
				<rect id="XMLID_157_" x="27.7" y="22.7" class="st10" width="8.6" height="0.9"/>
			</g>
			<g id="XMLID_104_">
				<line id="XMLID_153_" class="st2" x1="27.7" y1="24.7" x2="36.3" y2="24.7"/>
				<rect id="XMLID_154_" x="27.7" y="24.2" class="st10" width="8.6" height="0.9"/>
			</g>
		</g>
		<g id="XMLID_8_">
			<g id="XMLID_107_">
				<line id="XMLID_151_" class="st2" x1="16" y1="17.2" x2="16" y2="19.2"/>
				<rect id="XMLID_152_" x="15.5" y="17.2" class="st10" width="0.9" height="2.1"/>
			</g>
			<g id="XMLID_106_">
				<line id="XMLID_149_" class="st2" x1="17.7" y1="17.2" x2="17.7" y2="19.2"/>
				<rect id="XMLID_150_" x="17.3" y="17.2" class="st10" width="0.9" height="2.1"/>
			</g>
			<g id="XMLID_108_">
				<line id="XMLID_147_" class="st2" x1="19.5" y1="17.2" x2="19.5" y2="19.2"/>
				<rect id="XMLID_148_" x="19" y="17.2" class="st10" width="0.9" height="2.1"/>
			</g>
			<g id="XMLID_109_">
				<line id="XMLID_138_" class="st2" x1="21.2" y1="17.2" x2="21.2" y2="19.2"/>
				<rect id="XMLID_146_" x="20.8" y="17.2" class="st10" width="0.9" height="2.1"/>
			</g>
		</g>
		<g id="XMLID_110_">
			<path id="XMLID_143_" class="st3" d="M22.9,19.7h-8.6c-0.2,0-0.4-0.2-0.4-0.4v-1.5c0-0.5,0.4-1,1-1h7.6c0.5,0,1,0.4,1,1v1.5
				C23.4,19.5,23.2,19.7,22.9,19.7z M14.7,18.8h7.8v-1.1c0,0,0-0.1-0.1-0.1h-7.6c0,0-0.1,0-0.1,0.1V18.8z"/>
		</g>
		<g id="XMLID_133_" class="st9">
			<path id="XMLID_139_" class="st3" d="M51.9,40.6H12.1c-2.1,0-3.8-1.7-3.8-3.8v1.1c0,2.1,1.7,3.8,3.8,3.8h39.8
				c2.1,0,3.8-1.7,3.8-3.8v-1.1C55.7,38.9,54,40.6,51.9,40.6z"/>
			<path id="XMLID_140_" class="st3" d="M51.9,42.2H12.1c-2.4,0-4.3-1.9-4.3-4.3v-1.1h0.9c0,1.9,1.5,3.4,3.4,3.4h39.8
				c1.9,0,3.4-1.5,3.4-3.4h0.9v1.1C56.2,40.3,54.3,42.2,51.9,42.2z M9.7,40.3c0.6,0.6,1.5,1,2.4,1h39.8c1,0,1.8-0.4,2.4-1
				c-0.7,0.5-1.5,0.8-2.4,0.8H12.1C11.2,41,10.3,40.8,9.7,40.3z"/>
		</g>
		<g id="XMLID_404_">
			<g id="XMLID_32_">
				<rect id="XMLID_82_" x="29.4" y="42.1" class="st4" width="5.1" height="5.8"/>
				<path id="XMLID_135_" class="st3" d="M34.6,48.4h-5.1c-0.2,0-0.4-0.2-0.4-0.4v-5.8c0-0.2,0.2-0.4,0.4-0.4h5.1
					c0.2,0,0.4,0.2,0.4,0.4V48C35,48.2,34.8,48.4,34.6,48.4z M29.9,47.5h4.3v-5h-4.3V47.5z"/>
			</g>
			<g id="XMLID_112_">
				<g id="XMLID_131_">
					<line id="XMLID_53_" class="st3" x1="29.4" y1="46.6" x2="34.6" y2="46.6"/>
					<rect id="XMLID_80_" x="29.4" y="46.1" class="st3" width="5.1" height="0.9"/>
				</g>
				<g id="XMLID_132_">
					<line id="XMLID_48_" class="st3" x1="29.4" y1="45" x2="34.6" y2="45"/>
					<rect id="XMLID_49_" x="29.4" y="44.6" class="st3" width="5.1" height="0.9"/>
				</g>
				<g id="XMLID_134_">
					<line id="XMLID_46_" class="st3" x1="29.4" y1="43.5" x2="34.6" y2="43.5"/>
					<rect id="XMLID_47_" x="29.4" y="43.1" class="st3" width="5.1" height="0.9"/>
				</g>
			</g>
		</g>
		<g id="XMLID_30_">
			<rect id="XMLID_42_" x="27.9" y="48" class="st2" width="8.2" height="2.4"/>
			<path id="XMLID_43_" class="st3" d="M36.1,50.8h-8.2c-0.2,0-0.4-0.2-0.4-0.4V48c0-0.2,0.2-0.4,0.4-0.4h8.2c0.2,0,0.4,0.2,0.4,0.4
				v2.4C36.5,50.6,36.3,50.8,36.1,50.8z M28.3,49.9h7.3v-1.5h-7.3V49.9z"/>
		</g>
		<g id="XMLID_54_" class="st7">
			<polygon id="XMLID_155_" class="st3" points="64.6,70 64.9,68.4 -0.5,68.4 -0.2,70 			"/>
		</g>
	</g>
</g>
</svg>
