<?xml version="1.0" standalone="no"?>
<!DOCTYPE svg PUBLIC "-//W3C//DTD SVG 1.1//EN" "http://www.w3.org/Graphics/SVG/1.1/DTD/svg11.dtd" >
<svg xmlns="http://www.w3.org/2000/svg">
<metadata></metadata>
<defs>
<font id="brandon_grotesquethin_italic" horiz-adv-x="933" >
<font-face units-per-em="2048" ascent="1434" descent="-614" />
<missing-glyph horiz-adv-x="442" />
<glyph unicode="&#xfb01;" horiz-adv-x="962" d="M37 -600l194 1382h-129q-6 0 -9.5 4.5t-2.5 10.5l2 10q3 12 14 12h130l36 258q18 122 74 209.5t128.5 127.5t154.5 40q50 0 94 -13t73.5 -34t47.5 -39t30 -35q6 -8 -2 -16l-10 -8q-8 -6 -16 2q-80 108 -217 108q-111 0 -205.5 -92t-116.5 -250l-37 -258h551q13 0 13 -14 l-113 -791q-3 -14 -14 -14h-11q-5 0 -8 4t-2 10l107 768h-527l-194 -1382q-4 -14 -17 -14h-6q-15 0 -12 14z" />
<glyph unicode="&#xfb02;" horiz-adv-x="974" d="M37 -600l192 1382h-127q-6 0 -9.5 4.5t-2.5 10.5l2 10q3 12 14 12h130l38 279q13 93 48 163.5t84.5 111.5t105 61t117.5 20q152 0 256 -115l10 80q4 15 16 15h9q6 0 9.5 -4.5t2.5 -10.5l-199 -1405q-3 -14 -14 -14h-10q-5 0 -8.5 4t-2.5 10l179 1276q-106 127 -248 127 q-116 0 -207 -81.5t-113 -237.5l-39 -279h346q6 0 10 -4t3 -10l-2 -8q-4 -15 -15 -15h-348l-192 -1382q-4 -14 -17 -14h-8q-13 0 -10 14z" />
<glyph horiz-adv-x="2048" />
<glyph horiz-adv-x="2048" />
<glyph unicode="&#xd;" horiz-adv-x="2048" />
<glyph unicode=" "  horiz-adv-x="442" />
<glyph unicode="&#x09;" horiz-adv-x="442" />
<glyph unicode="&#xa0;" horiz-adv-x="442" />
<glyph unicode="!" horiz-adv-x="612" d="M188 23q0 23 17 38t39 15q17 0 28 -12t11 -29q0 -22 -16 -38.5t-38 -16.5q-17 0 -29 13t-12 30zM293 561l121 858q0 15 18 15h6q13 0 13 -15l-123 -858q0 -6 -5 -10t-10 -4h-8q-12 0 -12 14z" />
<glyph unicode="&#x22;" horiz-adv-x="561" d="M188 1020l56 399q4 15 16 15h8q5 0 8.5 -4.5t2.5 -10.5l-58 -399q-3 -14 -16 -14h-6q-5 0 -8.5 4t-2.5 10zM461 1020l57 399q0 15 14 15h9q12 0 12 -15l-59 -399q0 -6 -5 -10t-10 -4h-6q-12 0 -12 14z" />
<glyph unicode="#" horiz-adv-x="1069" d="M98 459l2 6q4 14 13 14h182l125 398h-199q-15 0 -12 14l2 8q3 14 14 14h207l160 508q4 13 14 13h6q16 0 13 -17l-160 -504h321l160 508q4 13 12 13h9q17 0 10 -17l-158 -504h174q5 0 8.5 -4t2.5 -10l-3 -8q-3 -14 -12 -14h-180l-123 -398h195q15 0 12 -14l-2 -6 q-4 -15 -14 -15h-203l-135 -432q-4 -12 -15 -12h-8q-16 0 -10 16l135 428h-322l-135 -432q-4 -12 -14 -12h-8q-16 0 -10 16l135 428h-178q-5 0 -8.5 4.5t-2.5 10.5zM332 479h319l123 398h-319z" />
<glyph unicode="$" horiz-adv-x="1034" d="M76 150q-8 8 2 18l10 8q11 7 18 -2q56 -60 105 -92q102 -64 225 -66l99 695q-65 20 -112 39t-93 47t-74 61t-45.5 79.5t-17.5 104.5q0 73 26.5 143t78.5 130.5t140.5 98t200.5 38.5l12 88q0 6 5 10t10 4h8q12 0 12 -14l-14 -90q76 -4 146 -29.5t102 -48.5l32 -24 q9 -7 0 -25q-9 -19 -24 -8l-6 4q-5 4 -12 9t-18 12.5t-25 14.5l-30 15t-35.5 15t-40 13t-45 10t-48.5 5q-31 -209 -95 -676q82 -27 139.5 -57t103.5 -71t68.5 -97t22.5 -127q0 -114 -64.5 -207t-164.5 -144t-213 -54l-31 -232q-4 -12 -16 -12q-9 0 -14.5 2.5t-4.5 9.5 l33 232q-59 2 -116 18t-95 36.5t-72 47t-48.5 41.5t-24.5 27zM229 1049q0 -63 21.5 -111t65.5 -83t96 -59.5t127 -47.5l94 667q-103 -1 -183.5 -34.5t-127 -87.5t-70 -116t-23.5 -128zM471 16q101 4 192 52.5t149 133t58 183.5q0 63 -21 113t-63.5 87t-94.5 63.5t-124 51.5z " />
<glyph unicode="%" horiz-adv-x="1325" d="M162 8q-7 7 0 17l962 1405q7 10 15 2l12 -7q11 -5 2 -16l-963 -1405q-7 -11 -14 -6zM186 1126q0 137 91 232.5t212 95.5q95 0 158.5 -73t63.5 -177q0 -138 -91 -234t-212 -96q-96 0 -159 73t-63 179zM223 1130q0 -93 53 -156t138 -63q103 0 182.5 85t79.5 202 q0 92 -54.5 155.5t-138.5 63.5q-104 0 -182 -85t-78 -202zM631 229q0 138 91.5 234t213.5 96q94 0 157.5 -73.5t63.5 -178.5q0 -137 -91.5 -232t-211.5 -95q-97 0 -160 72.5t-63 176.5zM668 236q0 -93 53.5 -156.5t136.5 -63.5q104 0 182 85t78 202q0 93 -52.5 156 t-135.5 63q-104 0 -183 -84.5t-79 -201.5z" />
<glyph unicode="&#x26;" horiz-adv-x="1298" d="M162 301q0 88 26.5 161.5t76 131t108.5 100t137 82.5l-43 62q-120 166 -100 313q7 50 32.5 101.5t67 97.5t106 75t140.5 29q122 0 185 -75.5t63 -182.5q0 -68 -31 -131.5t-87.5 -117t-124 -97t-151.5 -82.5l375 -492q103 114 161 262.5t58 274.5q0 16 13 16h12 q12 0 12 -16q0 -130 -61.5 -288t-169.5 -275l174 -221q9 -9 0 -17l-17 -12q-6 -6 -14 2l-170 219q-99 -112 -225.5 -176.5t-257.5 -64.5q-136 0 -215.5 92.5t-79.5 228.5zM197 305q0 -122 71.5 -206.5t192.5 -84.5q123 0 242 63.5t215 172.5l-383 502q-60 -31 -106.5 -61.5 t-91.5 -72t-74.5 -86t-47.5 -103t-18 -124.5zM401 1151q-18 -134 88 -287q25 -35 54 -71q84 40 148.5 80.5t119.5 89.5t84 106.5t29 120.5q0 95 -54 162t-161 67q-69 0 -126.5 -25.5t-94.5 -66.5t-59 -86t-28 -90z" />
<glyph unicode="'" horiz-adv-x="288" d="M188 1020l58 399q0 15 14 15h10q6 0 9.5 -4.5t1.5 -10.5l-58 -399q-3 -14 -14 -14h-8q-13 0 -13 14z" />
<glyph unicode="(" horiz-adv-x="671" d="M147 428q0 158 18.5 294.5t50 238.5t76.5 184.5t95 138t108 93.5t114 56t114 21q15 0 12 -14v-8q0 -6 -5 -10.5t-11 -4.5q-78 -4 -151 -37t-144 -108t-123.5 -184t-84.5 -279t-32 -381q0 -116 17.5 -209t47 -155t71 -104t86.5 -62t96 -23q12 0 12 -14l-2 -8 q0 -4 -4.5 -8.5t-9.5 -4.5q-70 3 -130.5 36.5t-111 100.5t-80 182.5t-29.5 268.5z" />
<glyph unicode=")" horiz-adv-x="667" d="M-43 -139q0 6 5 10t11 4q55 6 107.5 24.5t106.5 55.5t100.5 90t87.5 132t70 176.5t46 228t17 282.5q0 145 -26 254t-72 171t-100.5 93t-119.5 35q-6 0 -9.5 4.5t-2.5 10.5l2 10q3 12 15 12q70 -4 130.5 -38t111 -100.5t79.5 -182t29 -267.5q0 -218 -35.5 -395 t-92.5 -290.5t-133.5 -191t-154.5 -111.5t-160 -38q-12 0 -12 13v8z" />
<glyph unicode="*" horiz-adv-x="663" d="M152 989q-4 11 8 15l213 129l-178 129q-9 4 -2 14q4 4 8 12q6 12 16 4l178 -127l37 254q0 6 4.5 10.5t9.5 4.5h9q12 0 12 -15l-37 -254l215 127q12 7 17 -4l4 -12q3 -9 -7 -14l-215 -129l179 -129q8 -4 4 -15l-11 -14q-5 -7 -16 -2l-178 127l-37 -254q0 -15 -14 -15h-9 q-12 0 -12 15l37 254l-215 -127q-11 -6 -14 2z" />
<glyph unicode="+" horiz-adv-x="958" d="M127 709l2 8q3 14 14 14h342l54 379q3 14 16 14h8q12 0 12 -14l-53 -379h338q6 0 9.5 -4t2.5 -10l-2 -8q-4 -15 -14 -15h-340l-53 -381q-3 -14 -17 -14h-8q-12 0 -12 14l55 381h-342q-6 0 -9.5 4.5t-2.5 10.5z" />
<glyph unicode="," horiz-adv-x="524" d="M106 -309q-6 15 7 22q1 0 11.5 6t27 20t33 32.5t30.5 48.5t18 63q10 77 -6 117q-20 -20 -39 -20q-18 0 -28 12t-10 28q0 22 15 37t36 15q29 0 51 -36t22 -104q0 -60 -19 -109.5t-47 -78.5t-47.5 -43.5t-32.5 -21.5q-2 -1 -3 -1q-8 -4 -14 5z" />
<glyph unicode="-" horiz-adv-x="1171" d="M336 512l2 8q4 15 14 15h447q5 0 7 -4.5t1 -10.5l-2 -8q-3 -14 -12 -14h-447q-5 0 -8 4t-2 10z" />
<glyph unicode="." horiz-adv-x="485" d="M135 23q0 23 16.5 38t38.5 15q17 0 28 -12t11 -29q0 -22 -15.5 -38.5t-37.5 -16.5q-17 0 -29 13t-12 30z" />
<glyph unicode="/" horiz-adv-x="641" d="M16 14l648 1411q3 9 12 9h12q6 0 7.5 -6t-1.5 -11l-647 -1409q-3 -8 -16 -8h-13q-9 3 -2 14z" />
<glyph unicode="0" horiz-adv-x="1261" d="M178 520q0 268 69.5 471.5t200 315.5t304.5 112q177 0 272.5 -145t95.5 -395q0 -268 -69.5 -472t-199 -317t-302.5 -113q-179 0 -275 145.5t-96 397.5zM217 520q0 -236 86.5 -371t249.5 -135t283.5 108t182.5 302.5t62 452.5q0 236 -86.5 370.5t-249.5 134.5t-283.5 -108 t-182.5 -302t-62 -452z" />
<glyph unicode="1" horiz-adv-x="632" d="M119 1108q-3 7 6 14l375 277q7 6 14.5 1t5.5 -14l-192 -1372q-4 -14 -17 -14h-8q-12 0 -12 14l186 1323l-336 -245q-11 -7 -14 2z" />
<glyph unicode="2" horiz-adv-x="993" d="M2.5 9.5q-2.5 9.5 5.5 15.5l600 546q143 129 215 242.5t72 249.5q0 135 -84 227t-240 92q-42 0 -82 -10.5t-70.5 -27t-57.5 -37t-46 -41t-33 -37t-21 -27.5l-7 -10q-5 -10 -14 -6l-13 8q-9 6 -2 18q5 8 15 22t44 49.5t71.5 62.5t97.5 49t122 22q172 0 264.5 -100 t92.5 -248q0 -77 -20.5 -146.5t-62.5 -134t-92.5 -120.5t-123.5 -123l-555 -508h688q12 0 12 -14l-2 -9q0 -6 -4.5 -10t-9.5 -4h-748q-9 0 -11.5 9.5z" />
<glyph unicode="3" horiz-adv-x="1067" d="M68 164q-6 12 2 18l10 8q9 6 16 -4q15 -21 24.5 -33t41 -41.5t63 -47.5t82.5 -33t107 -15q193 0 318.5 116.5t125.5 285.5q0 115 -78.5 202t-206.5 87h-245q-6 0 -10 5t-3 11l2 8q3 12 15 12h241q83 0 162.5 45.5t133 131t53.5 188.5q0 120 -76 197t-203 77 q-212 0 -358 -170q-7 -11 -17 -4l-10 9q-9 6 -2 16q14 18 37 40t73 59t124.5 61t158.5 24q140 0 224.5 -86t84.5 -219q0 -136 -81 -242t-195 -143v-2q96 -29 154.5 -115.5t58.5 -189.5q0 -89 -35.5 -169.5t-97.5 -140.5t-153 -95t-195 -35q-71 0 -136 22t-107 54t-68 60 t-35 48z" />
<glyph unicode="4" horiz-adv-x="1110" d="M8 333q-2 7 4 15l949 1073q6 6 12.5 4.5t5.5 -10.5l-148 -1055h132q15 0 12 -12l-2 -10q-3 -12 -19 -12h-127l-45 -312q0 -5 -4 -9.5t-10 -4.5h-10q-5 0 -8 4t-2 10l45 312h-773q-10 0 -12 7zM70 360h727l139 983z" />
<glyph unicode="5" horiz-adv-x="1062" d="M98 156q-7 14 2 18l13 8q10 8 16 -4q99 -162 305 -162q198 0 335.5 149t137.5 365q0 150 -86.5 230t-257.5 80h-338q-12 0 -12 14l74 528q4 15 16 15h602q14 0 10 -15l-2 -6q-3 -14 -16 -14h-575l-70 -488h311q187 3 284 -87t97 -257q0 -151 -68.5 -277.5t-186 -199.5 t-255.5 -73q-72 0 -132.5 17.5t-100 46.5t-63.5 56t-40 56z" />
<glyph unicode="6" horiz-adv-x="1079" d="M125 453q0 133 32.5 255.5t84 214.5t121.5 173.5t138.5 137.5t141.5 101.5t124 70t93 38.5q5 2 9.5 0t4.5 -6l3 -15q3 -12 -11 -16q-52 -18 -116 -50.5t-156.5 -97.5t-170 -144t-146 -198t-95.5 -251q31 39 70.5 76t96 76.5t129.5 64t149 24.5q147 0 246.5 -107.5 t99.5 -277.5q0 -110 -41.5 -211.5t-109 -173t-156.5 -114.5t-181 -43q-115 0 -198 64.5t-122.5 169.5t-39.5 239zM162 457q0 -193 84.5 -317t238.5 -124q86 0 168.5 39.5t144.5 106.5t100 162t38 198q0 154 -90 251t-223 97q-76 0 -150 -28.5t-121.5 -62.5t-93.5 -81.5 t-60 -66.5t-26 -37q-10 -50 -10 -137z" />
<glyph unicode="7" horiz-adv-x="872" d="M137 1374l2 10q3 13 11 13h790q6 0 8.5 -6.5t-0.5 -12.5l-737 -1376q-6 -11 -16 -6l-11 4q-11 4 -2 18l719 1344h-754q-13 0 -10 12z" />
<glyph unicode="8" horiz-adv-x="1118" d="M113 301q0 167 101.5 273t277.5 139q-114 26 -181 104.5t-67 186.5q0 73 26 143t75.5 129.5t134 96t190.5 36.5q87 0 153.5 -27t106 -73.5t59 -101.5t19.5 -117q0 -144 -96.5 -245t-249.5 -134q130 -26 206 -113t76 -201q0 -107 -37 -188.5t-102.5 -130.5t-149 -73.5 t-182.5 -24.5q-162 0 -261 82t-99 239zM150 303q0 -144 90 -217.5t239 -73.5q88 0 165 24t136.5 69.5t94 120t34.5 169.5q0 119 -90.5 201t-243.5 94q-195 -15 -310 -116t-115 -271zM279 1006q0 -118 84.5 -192.5t218.5 -82.5q168 11 278.5 106.5t110.5 252.5 q0 56 -17.5 106t-52 91.5t-95 66t-138.5 24.5q-97 0 -174 -33.5t-122.5 -88.5t-69 -119t-23.5 -131z" />
<glyph unicode="9" horiz-adv-x="1079" d="M143 883q0 110 41.5 211.5t109 173t156.5 114.5t181 43q115 0 198 -64.5t122.5 -169.5t39.5 -239q0 -133 -32.5 -255.5t-84 -214.5t-121.5 -173.5t-138.5 -137.5t-141.5 -101.5t-124 -70t-93 -38.5q-5 -2 -9.5 0t-4.5 6l-2 15q-3 13 10 16q52 18 116 50.5t156.5 97.5 t170 144t146 198t95.5 251q-31 -39 -70.5 -76t-96 -76.5t-129.5 -64t-149 -24.5q-147 0 -246.5 107.5t-99.5 277.5zM180 883q0 -154 90.5 -251t223.5 -97q76 0 150 28.5t121.5 62t93 81.5t59.5 67t26 37q10 50 10 137q0 193 -84.5 317t-238.5 124q-86 0 -168.5 -39.5 t-144.5 -106.5t-100 -162t-38 -198z" />
<glyph unicode=":" horiz-adv-x="591" d="M174 23q0 23 16.5 38t38.5 15q17 0 28 -12t11 -29q0 -22 -15.5 -38.5t-37.5 -16.5q-17 0 -29 13t-12 30zM283 784q0 24 16 40t37 16q18 0 28.5 -11.5t10.5 -29.5q0 -24 -15 -40t-38 -16q-17 0 -28 12.5t-11 28.5z" />
<glyph unicode=";" horiz-adv-x="608" d="M135 -309q-6 16 6 22q1 0 11.5 6t27.5 20t33 32.5t30.5 48.5t18.5 63q10 77 -6 117q-20 -20 -39 -20q-18 0 -28.5 12t-10.5 28q0 22 15 37t36 15q29 0 51.5 -36t22.5 -104q0 -169 -149 -254q-9 -4 -15 5zM285 784q0 24 15 40t36 16q18 0 28.5 -11.5t10.5 -29.5 q0 -24 -15 -40t-38 -16q-15 0 -26 13t-11 28z" />
<glyph unicode="&#x3c;" horiz-adv-x="821" d="M46.5 474.5q0.5 7.5 8.5 12.5l738 482q8 5 14 -4l6 -17q7 -10 -4 -16l-709 -463l580 -440q5 -3 5.5 -8.5t-3.5 -10.5l-8 -10q-9 -9 -17 -4l-604 465q-7 6 -6.5 13.5z" />
<glyph unicode="=" horiz-adv-x="1296" d="M297 375l2 8q3 14 16 14h609q6 0 9.5 -4t2.5 -10l-2 -8q-4 -15 -16 -15h-609q-6 0 -9.5 4.5t-2.5 10.5zM356 797l2 8q4 14 17 14h608q15 0 12 -14l-2 -8q-4 -15 -16 -15h-608q-6 0 -10 4.5t-3 10.5z" />
<glyph unicode="&#x3e;" horiz-adv-x="821" d="M-16 8q-8 11 4 19l706 454l-575 457q-8 8 -2 18l6 9q8 11 18 4l604 -482q6 -5 4.5 -12t-8.5 -12l-735 -465q-12 -6 -18 2z" />
<glyph unicode="?" horiz-adv-x="972" d="M236 1270q5 7 15.5 19.5t45.5 44.5t74.5 56t102.5 44t130 20q132 0 210.5 -74.5t78.5 -189.5q0 -60 -22.5 -116.5t-51.5 -94.5t-71.5 -75t-66 -53t-50.5 -32q-40 -23 -57.5 -34.5t-41.5 -32t-34.5 -42.5t-14.5 -51l-16 -118q-4 -15 -16 -15h-11q-5 0 -8 4.5t-2 10.5 l19 123q3 28 15.5 53t24 40.5t39 35.5t40.5 28t48 29q242 144 242 340q0 94 -70.5 161.5t-183.5 67.5q-60 0 -117 -17.5t-95 -42t-67 -49t-43 -42.5l-14 -17q-10 -13 -22 -6l-8 6q-11 7 -2 19zM338 23q0 23 15.5 38t37.5 15q17 0 28 -12t11 -29q0 -22 -15.5 -38.5 t-37.5 -16.5q-17 0 -28 12.5t-11 30.5z" />
<glyph unicode="@" horiz-adv-x="1888" d="M88 322q0 318 126.5 576t355 407t515.5 149q214 0 367.5 -96.5t230 -267.5t76.5 -400q0 -191 -62.5 -354t-173 -260t-243.5 -96q-75 0 -118 45.5t-46 117.5q-113 -163 -305 -163q-136 0 -216.5 104t-80.5 262q0 209 125.5 351.5t298.5 142.5q91 0 154 -34t98 -77l10 76 q4 14 14 14h9q15 0 12 -14l-82 -592q-12 -86 22 -141.5t105 -55.5q126 0 229 96t159 250t56 328q0 219 -71.5 381t-217 254t-350.5 92q-207 0 -387 -84t-305.5 -230t-197.5 -348.5t-72 -432.5q0 -253 116.5 -450t311.5 -296q11 -6 4 -20l-4 -9q-6 -13 -16 -6 q-203 102 -325 309.5t-122 471.5zM549 348q0 -142 73.5 -237t188.5 -95q61 0 115 20.5t87.5 50t58 58.5t34.5 49l10 21l66 459q-4 9 -18.5 27t-43 43t-77 43t-105.5 18q-161 0 -275 -132t-114 -325z" />
<glyph unicode="A" horiz-adv-x="1202" d="M-49 14l772 1454q3 9 12 9h2q8 0 11 -9l352 -1452q1 -2 1 -4q0 -7 -9 -10l-11 -4q-11 -4 -14 6l-102 426h-756l-225 -428q-3 -6 -10 -6h-3l-16 6q-6 2 -6 6q0 3 2 6zM229 465h725l-225 944h-2z" />
<glyph unicode="B" horiz-adv-x="1191" d="M147 14l199 1405q0 6 4.5 10.5t9.5 4.5h381q159 0 249.5 -81.5t90.5 -230.5q0 -140 -79.5 -240.5t-204.5 -144.5q107 -24 168 -99.5t61 -199.5q0 -194 -131.5 -316t-337.5 -122h-397q-13 0 -13 14zM188 37h375q185 0 304.5 110.5t119.5 290.5q0 137 -83 207t-226 70h-395 zM289 752h360q171 0 283 102.5t112 267.5q0 132 -82 203.5t-225 71.5h-358z" />
<glyph unicode="C" horiz-adv-x="1374" d="M143 616q0 169 65.5 325.5t172.5 268t249 178t290 66.5q138 0 238 -48t188 -142q4 -4 4 -8t-4 -9l-11 -10q-8 -8 -16 0q-80 90 -176 136t-223 46q-142 0 -277.5 -64.5t-237 -171.5t-163.5 -256.5t-62 -310.5q0 -166 70 -303.5t193.5 -217t273.5 -79.5q242 0 457 191 q7 7 14 0l10 -12q6 -7 -2 -15q-218 -200 -479 -200q-166 0 -298 85t-204 230t-72 321z" />
<glyph unicode="D" horiz-adv-x="1392" d="M150 14l196 1405q4 15 14 15h371q160 0 288 -84t198.5 -227t70.5 -316q0 -130 -40 -253t-112 -222.5t-166.5 -174.5t-208 -116t-231.5 -41h-370q-10 0 -10 14zM188 37h347q137 0 268 61.5t229.5 164t158.5 246t60 298.5q0 162 -66.5 296.5t-188 214t-271.5 79.5h-346z " />
<glyph unicode="E" horiz-adv-x="1157" d="M147 14l199 1405q0 6 4.5 10.5t9.5 4.5h750q6 0 9.5 -4.5t2.5 -10.5l-2 -8q-4 -14 -14 -14h-727l-88 -633h637q6 0 9.5 -4t2.5 -10l-2 -9q-4 -14 -14 -14h-639l-97 -690h725q10 0 13.5 -3.5t1.5 -10.5l-2 -9q-4 -14 -17 -14h-749q-13 0 -13 14z" />
<glyph unicode="F" horiz-adv-x="1116" d="M147 14l199 1405q0 6 4.5 10.5t9.5 4.5h750q6 0 9.5 -4.5t2.5 -10.5l-2 -8q-4 -14 -14 -14h-727l-96 -684h639q13 0 10 -13l-4 -14q-3 -10 -19 -10h-630q-35 -237 -95 -662q0 -6 -5 -10t-11 -4h-8q-13 0 -13 14z" />
<glyph unicode="G" horiz-adv-x="1427" d="M143 616q0 169 65.5 325.5t172.5 268t249 178t290 66.5q138 0 238 -48t188 -142q4 -4 4 -8t-4 -9l-11 -10q-8 -8 -16 0q-80 90 -176 136t-223 46q-142 0 -277.5 -64.5t-237 -171.5t-163.5 -256.5t-62 -310.5q0 -167 69 -304t194 -216.5t280 -79.5q86 0 166.5 16.5t137 42 t91 46t53.5 37.5l70 481h-414q-13 0 -10 14l2 9q4 12 15 12h434q12 0 12 -12l-74 -519q-8 -12 -43.5 -36.5t-95 -54t-154 -51t-196.5 -21.5q-164 0 -296 85t-205 230t-73 321z" />
<glyph unicode="H" horiz-adv-x="1427" d="M147 14l199 1405q0 6 4.5 10.5t9.5 4.5h11q14 0 10 -15l-90 -655h901l92 655q4 15 14 15h11q6 0 9.5 -4.5t2.5 -10.5l-199 -1405q-4 -14 -14 -14h-10q-6 0 -10 4t-3 10l101 713h-901l-101 -713q-4 -14 -16 -14h-8q-6 0 -10 4t-3 10z" />
<glyph unicode="I" horiz-adv-x="489" d="M150 14l196 1405q4 15 16 15h9q6 0 9.5 -4.5t2.5 -10.5l-197 -1405q-4 -14 -16 -14h-8q-6 0 -9.5 4t-2.5 10z" />
<glyph unicode="J" horiz-adv-x="743" d="M-100 137q-2 5 -2 9q0 7 6 10l8 4q12 7 18 -2q80 -144 236 -144q150 0 246 110.5t125 313.5l139 981q0 15 14 15h8q6 0 10 -4q2 -3 2 -7q0 -2 -1 -4l-138 -981q-31 -218 -136.5 -338t-270.5 -120q-57 0 -106 17t-80 44.5t-49 50.5t-29 45z" />
<glyph unicode="K" horiz-adv-x="1060" d="M147 14l199 1405q4 15 14 15h11q6 0 9.5 -4.5t2.5 -10.5l-96 -676l778 689q6 4 10.5 4t9.5 -4l7 -7q5 -5 5 -10t-5 -10l-775 -682l598 -703q8 -10 -2 -20l-10 -8q-4 -3 -7 -3q-6 0 -11 7l-604 711l-97 -693q-4 -14 -16 -14h-8q-6 0 -10 4t-3 10z" />
<glyph unicode="L" horiz-adv-x="907" d="M147 14l199 1405q4 15 14 15h11q5 0 8 -4.5t2 -10.5l-195 -1384h639q7 0 10.5 -3t2.5 -9l-2 -9q-4 -14 -15 -14h-661q-13 0 -13 14z" />
<glyph unicode="M" horiz-adv-x="1617" d="M33 16l475 1442q2 8 8 10q3 1 6 1q2 1 5 -1q5 -2 5 -10l203 -1384l590 1384q5 10 15 10t12 -10l75 -1442q0 -14 -8 -16l-12 -2q-14 -4 -14 10l-72 1356l-584 -1380q-5 -10 -15 -10t-11 10l-197 1380l-446 -1356q-5 -12 -15 -12l-14 2q-8 2 -8 9q0 4 2 9z" />
<glyph unicode="N" horiz-adv-x="1462" d="M147 14l203 1440q2 11 12 14q2 1 5 1q7 0 10 -7l751 -1409l193 1366q4 15 16 15h9q6 0 9.5 -4.5t2.5 -10.5l-203 -1435q-2 -10 -12 -14q-3 -1 -5 -1q-6 0 -10 6l-751 1409l-193 -1370q-4 -14 -16 -14h-8q-6 0 -10 4t-3 10z" />
<glyph unicode="O" horiz-adv-x="1599" d="M145 618q0 170 64.5 326t171.5 267t249.5 177t293.5 66q164 0 295 -86t203.5 -232t72.5 -323q0 -169 -65 -324.5t-171.5 -266t-249 -176.5t-292.5 -66q-164 0 -296 86t-204 231.5t-72 320.5zM182 621q0 -166 68.5 -304.5t192 -219.5t274.5 -81q142 0 277.5 63t237.5 169 t164 254t62 309q0 168 -68.5 306.5t-192 219t-275.5 80.5q-142 0 -277.5 -63t-237 -169t-163.5 -254.5t-62 -309.5z" />
<glyph unicode="P" horiz-adv-x="1136" d="M147 14l199 1405q0 6 4.5 10.5t9.5 4.5h385q156 0 259.5 -118t103.5 -286q0 -106 -41.5 -204t-109.5 -168.5t-158 -113t-183 -42.5h-362l-70 -488q-4 -14 -16 -14h-8q-6 0 -10 4t-3 10zM258 539h363q114 0 217.5 65.5t167 178.5t63.5 243q0 155 -93.5 263t-236.5 108 h-360z" />
<glyph unicode="Q" horiz-adv-x="1599" d="M145 618q0 170 64.5 326t171.5 267t249.5 177t293.5 66q164 0 295 -86t203.5 -232t72.5 -323q0 -270 -153.5 -487t-385.5 -303l158 -390q6 -9 -4 -16l-20 -10q-2 -1 -4 -1q-6 0 -9 7l-157 397q-99 -30 -203 -30q-164 0 -296 86t-204 231.5t-72 320.5zM182 621 q0 -166 68.5 -304.5t192 -219.5t274.5 -81q142 0 277.5 63t237.5 169t164 254t62 309q0 168 -68.5 306.5t-192 219t-275.5 80.5q-142 0 -277.5 -63t-237 -169t-163.5 -254.5t-62 -309.5z" />
<glyph unicode="R" horiz-adv-x="1232" d="M147 14l199 1405q0 15 14 15h439q157 0 259.5 -108.5t102.5 -272.5q0 -187 -116 -326t-283 -172l213 -541q4 -13 -6 -16l-13 -4q-2 -1 -4 -1q-6 0 -8 7l-213 549q-18 -2 -59 -2h-414l-76 -533q0 -6 -4.5 -10t-9.5 -4h-8q-13 0 -13 14zM262 582h410q91 0 174.5 36t145 98 t98 150t36.5 187q0 146 -94 245t-233 99h-422z" />
<glyph unicode="S" horiz-adv-x="1058" d="M90 150q-3 4 -3 8q0 5 5 10l12 10q9 9 17 -2q11 -16 35 -39t65.5 -53t106.5 -50t137 -20q108 0 204 44.5t157 128t61 186.5q0 58 -17.5 105t-45.5 80.5t-75.5 63.5t-93.5 50.5t-114 44.5q-47 17 -79.5 30.5t-70.5 32.5t-63 37.5t-50 44.5t-39 55t-23 67t-9 83 q0 67 27 133.5t79.5 124t141.5 93.5t200 36q53 0 105 -10.5t87.5 -26t64 -31t42.5 -26.5l13 -10q5 -5 5 -9t-3 -8l-11 -12q-7 -10 -16 -4q-5 4 -14 11t-38 24.5t-60.5 31t-79 24.5t-95.5 11q-84 0 -154.5 -22t-117 -58t-79.5 -82.5t-47.5 -94.5t-14.5 -95q0 -69 21.5 -119.5 t68.5 -87.5t96 -60t129 -52q73 -26 124.5 -48.5t100 -55t77 -69.5t46 -88t17.5 -114q0 -110 -62.5 -201t-167 -141.5t-227.5 -50.5q-78 0 -149.5 22t-117 53t-72.5 55.5t-36 39.5z" />
<glyph unicode="T" horiz-adv-x="841" d="M119 1411l2 10q3 13 14 13h803q6 0 9.5 -4.5t2.5 -10.5l-2 -10q-3 -12 -14 -12h-385l-195 -1383q-4 -14 -16 -14h-8q-6 0 -10 4t-3 10l195 1383h-381q-13 0 -13 10q0 2 1 4z" />
<glyph unicode="U" horiz-adv-x="1374" d="M203 516l127 903q4 15 14 15h10q6 0 9.5 -4.5t1.5 -10.5l-125 -903q-8 -56 -8 -106q0 -152 74 -256q100 -138 302 -138q201 0 341 138.5t171 361.5l127 903q4 15 17 15h10q5 0 8 -4.5t2 -10.5l-127 -903q-35 -243 -180 -389.5t-375 -146.5q-214 0 -324 149 q-84 114 -83 279q0 52 8 108z" />
<glyph unicode="V" horiz-adv-x="1198" d="M145 1417q-1 3 -1 5q0 7 8 10l16 4q9 3 12 -11l334 -1392l741 1399q4 7 10 7q2 0 5 -1l14 -6q6 -2 6 -7q0 -4 -4 -10l-768 -1448q-2 -7 -12 -9h-3q-7 0 -9 9z" />
<glyph unicode="W" horiz-adv-x="1667" d="M207 1421q0 10 8 13l18 4q4 1 7.5 -2.5t3.5 -8.5l164 -1364l532 1387q4 10 15 10t12 -10l159 -1384l535 1366q3 10 14 6l15 -6q7 -2 7 -8q0 -4 -3 -9l-566 -1440q-3 -7 -8.5 -9.5t-10 0t-5.5 9.5l-162 1389l-534 -1389q-4 -11 -14 -11t-11 11z" />
<glyph unicode="X" horiz-adv-x="1034" d="M6 6q-4 3 -4 7.5t4 11.5l510 706l-297 678q-5 14 4 18l15 9q3 2 6 2q6 0 8 -8l289 -666l481 666q5 7 11 7q2 0 5 -1l13 -9q4 -2 4.5 -6.5t-4.5 -11.5l-492 -682l318 -704q5 -14 -7 -19l-14 -6q-3 -2 -6 -2q-6 0 -8 8l-305 690l-500 -690q-5 -8 -11 -8q-3 0 -6 2z" />
<glyph unicode="Y" horiz-adv-x="1017" d="M119 1409q-3 5 -3 9q0 5 7 9l12 7q9 5 17 -7l372 -690l572 693q5 8 11 8l5 -2l14 -9q6 -3 6 -7.5t-6 -10.5l-585 -704l-97 -693q-3 -12 -14 -12h-12q-13 0 -10 14l96 688z" />
<glyph unicode="Z" horiz-adv-x="991" d="M-18 8q-1 2 0 5q0 5 4 10l995 1374h-729q-14 0 -10 14l2 8q4 15 14 15h770q9 0 12 -8q1 -3 1 -6q0 -5 -3 -9l-997 -1374h754q13 0 10 -14l-2 -9q-3 -14 -17 -14h-792q-10 0 -12 8z" />
<glyph unicode="[" horiz-adv-x="634" d="M12 -600l283 2019q4 15 16 15h373q6 0 9.5 -4.5t2.5 -10.5l-2 -8q-4 -14 -14 -14h-352l-277 -1975h350q6 0 10 -4t3 -10l-2 -8q-4 -14 -15 -14h-374q-5 0 -8.5 4t-2.5 10z" />
<glyph unicode="\" horiz-adv-x="632" d="M178 1421q-4 13 8 13h13q9 0 12 -9l250 -1413q4 -12 -6 -12h-13q-12 0 -14 8z" />
<glyph unicode="]" horiz-adv-x="634" d="M-106 -600l2 8q4 14 16 14h350l277 1975h-351q-14 0 -10 14l2 8q4 15 15 15h372q13 0 13 -15l-285 -2019q-3 -14 -16 -14h-373q-6 0 -9.5 4t-2.5 10z" />
<glyph unicode="^" horiz-adv-x="966" d="M113 840l489 624q6 6 13 6t10 -6l305 -624q7 -10 -6 -17l-13 -8q-10 -7 -14 4l-287 598l-469 -598q-7 -10 -16 -4l-10 8q-11 8 -2 17z" />
<glyph unicode="_" horiz-adv-x="749" d="M-29 -41l2 6q4 15 17 15h608q14 0 10 -15l-2 -8q-4 -12 -16 -12h-608q-5 0 -8.5 4t-2.5 10z" />
<glyph unicode="`" horiz-adv-x="557" d="M209 1350l4 6q6 10 18 6l308 -186q10 -6 4 -15l-4 -8q-8 -12 -19 -6l-309 184q-11 7 -2 19z" />
<glyph unicode="a" horiz-adv-x="935" d="M84 346q0 206 125 350t299 144q156 0 252 -111l12 76q4 14 14 14h9q5 0 8 -4t2 -10l-111 -791q-4 -14 -14 -14h-10q-5 0 -8.5 4t-2.5 10l15 105q-37 -50 -116.5 -94.5t-168.5 -44.5q-138 0 -221.5 104.5t-83.5 261.5zM121 348q0 -143 73 -237.5t195 -94.5q91 0 172 51.5 t121 116.5l70 490q-4 9 -18.5 26.5t-43 42.5t-77 42.5t-105.5 17.5q-162 0 -274.5 -131t-112.5 -324z" />
<glyph unicode="b" horiz-adv-x="937" d="M86 14l199 1405q4 15 14 15h10q6 0 10 -4.5t3 -10.5l-99 -688q5 4 13.5 11.5t37 26.5t58.5 33t75 26t89 12q142 0 228.5 -104.5t86.5 -262.5q0 -134 -58 -248.5t-152.5 -179.5t-201.5 -65q-97 0 -163 40t-99 93l-14 -99q-3 -14 -17 -14h-10q-5 0 -8 4t-2 10zM145 170 q2 -7 10.5 -21.5t29.5 -38.5t48.5 -44t71.5 -35t94 -15q98 0 184.5 60.5t138.5 166.5t52 230q0 143 -77 236.5t-201 93.5q-48 0 -94 -13t-78 -31.5t-57.5 -36.5t-37.5 -31l-12 -13z" />
<glyph unicode="c" horiz-adv-x="901" d="M80 354q0 105 38 196.5t101.5 154.5t146.5 99t173 36q48 0 92.5 -11.5t73 -26t53 -32.5t34 -28t13.5 -15q3 -3 3 -7q0 -5 -5 -9l-8 -9q-8 -8 -19 3q-100 100 -237 100q-82 0 -158.5 -34t-135 -92.5t-93.5 -143.5t-35 -181q0 -144 87.5 -241t213.5 -97q46 0 93 14 t77.5 29.5t62 39.5t39.5 31.5t17 16.5t16 3l10 -11q8 -8 0 -16q-9 -9 -17.5 -17t-43 -34t-68 -43.5t-85 -33t-101.5 -15.5q-141 0 -239.5 107t-98.5 267z" />
<glyph unicode="d" d="M82 346q0 209 127.5 351.5t308.5 142.5q44 0 84.5 -11t67.5 -27t48 -32.5t30 -27.5l10 -11l96 688q0 15 14 15h11q5 0 8 -4.5t2 -10.5l-197 -1405q-2 -14 -14 -14h-10q-5 0 -8.5 4t-2.5 10l15 99q-48 -52 -124.5 -92.5t-168.5 -40.5q-133 0 -215 104.5t-82 261.5z M119 346q0 -142 71.5 -236t188.5 -94q63 0 120.5 21t96 52t57 49.5t27.5 31.5l72 508q-3 5 -9 13.5t-28 30t-46.5 38t-65.5 30t-85 13.5q-168 0 -283.5 -132t-115.5 -325z" />
<glyph unicode="e" horiz-adv-x="888" d="M82 336q0 212 123.5 358t306.5 146q128 0 208.5 -65.5t80.5 -160.5q-1 -113 -123 -177q-119 -62 -319 -62h-13q-103 0 -223 18q-4 -36 -4 -55v-7q0 -137 72 -225q74 -90 206 -90q78 0 147.5 27t112.5 61q11 9 17 -2l6 -12q3 -5 -4 -12q-32 -32 -116.5 -65t-162.5 -33 q-153 0 -234 100.5t-81 255.5zM127 428q125 -16 217 -16h7q189 0 301 54q114 54 112 148q0 72 -70.5 130.5t-181.5 58.5q-149 0 -254.5 -106t-130.5 -269z" />
<glyph unicode="f" horiz-adv-x="577" d="M31 -600l194 1382h-110q-6 0 -10 4.5t-3 10.5l2 10q3 12 15 12h110l39 275q25 179 111.5 269.5t214.5 90.5q125 0 199 -88q2 -3 2 -7q0 -6 -7 -13l-4 -5q-10 -10 -20 0q-73 78 -170 78q-115 0 -190.5 -81.5t-98.5 -243.5l-39 -275h330q6 0 9.5 -4t2.5 -10l-2 -8 q-4 -15 -14 -15h-332l-192 -1382q-4 -14 -17 -14h-8q-13 0 -13 10q0 2 1 4z" />
<glyph unicode="g" horiz-adv-x="937" d="M61 -393q-3 4 -3 8q0 5 5 10l11 8q7 5 14 -2q104 -129 240 -129q124 0 207.5 94t107.5 273l27 211q-110 -100 -254 -100q-152 0 -242 104.5t-90 263.5q0 206 125 349t299 143q156 0 252 -111l12 76q4 14 14 14h9q5 0 8 -4t2 -10l-125 -940q-15 -107 -48.5 -185.5 t-81.5 -124t-103 -66.5t-121 -21q-52 0 -99.5 16.5t-82 43.5t-52 44t-31.5 35zM121 348q0 -142 80.5 -237t214.5 -95q53 0 101.5 15.5t81.5 38t50.5 38.5t26.5 27l76 539q-4 9 -18.5 26.5t-43 42.5t-77 42.5t-105.5 17.5q-162 0 -274.5 -131t-112.5 -324z" />
<glyph unicode="h" horiz-adv-x="946" d="M86 14l199 1405q4 15 16 15h8q6 0 10 -4.5t3 -10.5l-105 -733q148 154 309 154q148 0 213 -98q45 -68 46 -179q0 -48 -9 -104l-61 -445q-3 -14 -17 -14h-8q-6 0 -9.5 4t-2.5 10l63 445q7 49 7 91q0 102 -40 164q-56 88 -182 89q-48 0 -96.5 -16.5t-83 -38t-67 -49 t-47 -43t-23.5 -27.5l-86 -615q-3 -14 -17 -14h-8q-6 0 -9.5 4t-2.5 10z" />
<glyph unicode="i" horiz-adv-x="362" d="M86 14l111 791q3 14 16 14h8q15 0 12 -14l-112 -791q-3 -14 -15 -14h-10q-11 0 -11 8q0 3 1 6zM244 1278q0 20 13 34.5t32 14.5q14 0 23.5 -11.5t9.5 -25.5q0 -20 -12.5 -33.5t-30.5 -13.5q-15 0 -25 10.5t-10 24.5z" />
<glyph unicode="j" horiz-adv-x="364" d="M-424 -547q-3 5 -3 9q0 7 7 12l6 4q11 8 19 0q68 -78 168 -78q226 0 272 326l154 1079q3 14 14 14h8q15 0 12 -14l-151 -1079q-26 -184 -102 -272.5t-207 -88.5q-68 0 -120 27t-77 61zM242 1278q0 20 14 34.5t33 14.5q14 0 23.5 -11.5t9.5 -25.5q0 -20 -13.5 -33.5 t-32.5 -13.5q-15 0 -24.5 10.5t-9.5 24.5z" />
<glyph unicode="k" horiz-adv-x="782" d="M86 14l199 1405q4 15 16 15h8q6 0 10 -4.5t3 -10.5l-136 -946l527 356q10 7 16 -2l8 -14q2 -3 2 -5q0 -5 -8 -11l-510 -346l428 -428q4 -5 3.5 -11.5t-3.5 -9.5l-10 -8q-5 -4 -10 -4q-6 0 -11 6l-436 442l-59 -424q-3 -14 -17 -14h-8q-6 0 -9.5 4t-2.5 10z" />
<glyph unicode="l" horiz-adv-x="364" d="M86 14l199 1405q4 15 14 15h10q5 0 8 -4.5t2 -10.5l-196 -1405q-3 -14 -17 -14h-8q-6 0 -9.5 4t-2.5 10z" />
<glyph unicode="m" horiz-adv-x="1437" d="M86 14l111 791q3 14 16 14h8q15 0 12 -14l-16 -113q46 58 120 103t171 45q85 0 142 -44.5t81 -119.5q128 164 299 164q140 0 202 -98q44 -69 44 -181q0 -47 -8 -102l-62 -445q-4 -14 -16 -14h-8q-6 0 -10 4t-3 10l64 445q7 51 7 95q0 98 -36 160q-52 88 -174 89 q-56 0 -108 -19t-89 -50.5t-56.5 -52t-35.5 -42.5q6 -36 5 -78q0 -48 -7 -102l-61 -445q-4 -14 -16 -14h-9q-15 0 -12 14l64 445q7 52 7 96q0 97 -35 159q-51 88 -169 89q-60 0 -114.5 -20.5t-92.5 -52.5t-58 -53.5t-34 -41.5l-86 -621q-3 -14 -17 -14h-8q-6 0 -9.5 4 t-2.5 10z" />
<glyph unicode="n" horiz-adv-x="944" d="M84 14l113 791q3 14 14 14h8q12 0 12 -14l-16 -113q143 148 309 148q146 0 212 -98q46 -69 47 -181q0 -47 -9 -102l-61 -445q-3 -14 -17 -14h-8q-6 0 -9.5 4t-2.5 10l63 445q7 49 7 91q0 102 -40 164q-56 88 -182 89q-48 0 -96.5 -15.5t-83.5 -37t-66 -47t-46.5 -42 t-22.5 -26.5l-88 -621q-3 -14 -17 -14h-8q-6 0 -9.5 4t-2.5 10z" />
<glyph unicode="o" horiz-adv-x="964" d="M82 350q0 200 132.5 345t307.5 145q139 0 228.5 -107t89.5 -262q0 -133 -61.5 -246.5t-162.5 -179t-215 -65.5q-140 0 -229.5 106t-89.5 264zM119 350q0 -143 79.5 -238.5t202.5 -95.5q162 0 282 134.5t120 320.5q0 141 -79.5 236.5t-201.5 95.5q-162 0 -282.5 -134 t-120.5 -319z" />
<glyph unicode="p" d="M-2 -600l199 1405q3 14 12 14h8q15 0 12 -14l-10 -76q47 43 119.5 77t163.5 34q137 0 221 -103t84 -258q0 -138 -58.5 -253t-161 -180.5t-225.5 -65.5q-153 0 -233 100l-96 -680q-3 -14 -17 -14h-8q-5 0 -8 4t-2 10zM135 135q5 -9 11.5 -18.5t26.5 -29t43.5 -34t62.5 -26 t83 -11.5q173 0 290.5 133t117.5 330q0 138 -74.5 231t-193.5 93q-60 0 -115 -17t-91.5 -41.5t-56 -42t-28.5 -28.5z" />
<glyph unicode="q" horiz-adv-x="935" d="M84 348q0 206 125 349t299 143q156 0 252 -111l12 76q4 14 14 14h9q5 0 8 -4t2 -10l-197 -1405q-4 -14 -14 -14h-8q-6 0 -10 4t-3 10l97 680q-110 -100 -254 -100q-152 0 -242 104.5t-90 263.5zM121 348q0 -142 80.5 -237t214.5 -95q53 0 101.5 15.5t81.5 38t50.5 38.5 t26.5 27l76 539q-4 9 -18.5 26.5t-43 42.5t-77 42.5t-105.5 17.5q-162 0 -274.5 -131t-112.5 -324z" />
<glyph unicode="r" horiz-adv-x="602" d="M86 14l111 791q3 14 14 14h10q5 0 8 -4t2 -10l-14 -109q42 55 109.5 99.5t148.5 44.5q82 0 131 -37q5 -5 5 -10q0 -4 -3 -9l-6 -8q-2 -4 -7 -6t-11 2q-50 33 -109 33q-43 0 -84.5 -16t-70 -36t-55 -47.5t-37.5 -42.5t-19 -28l-88 -621q-3 -14 -15 -14h-10q-11 0 -11 8 q0 3 1 6z" />
<glyph unicode="s" horiz-adv-x="731" d="M57 86l13 14q9 9 18 0q79 -84 209 -84q107 0 181.5 56t74.5 143q0 68 -55.5 109.5t-167.5 83.5q-108 40 -159.5 90t-51.5 127q0 78 74.5 146.5t199.5 68.5q126 0 207 -66q5 -3 5 -8q0 -4 -3 -8l-6 -10q-8 -12 -18 -5q-74 60 -185 60t-173 -55.5t-62 -122.5 q0 -63 45.5 -104t142.5 -79q37 -14 54.5 -21t49 -21.5t47.5 -25.5t37.5 -29t31.5 -36t18 -42t8 -52q0 -100 -88 -167.5t-207 -67.5q-141 0 -238 92q-4 4 -4 8q0 3 2 6z" />
<glyph unicode="t" horiz-adv-x="602" d="M117 97q2 53 10 122l80 563h-80q-5 0 -7 4.5t-1 10.5l2 8q3 14 12 14h78l31 221q4 15 14 15h8q6 0 9.5 -4.5t2.5 -10.5l-30 -221h297q13 0 13 -10q0 -2 -1 -4l-2 -8q-4 -15 -14 -15h-299l-78 -563q-7 -59 -9 -104v-7q0 -40 23 -65q25 -27 82 -27q55 0 116 23t91 43 q10 7 16 -2l8 -14q3 -9 -6 -15q-31 -21 -98.5 -46t-126.5 -25q-76 0 -110 32q-32 30 -31 79v6z" />
<glyph unicode="u" horiz-adv-x="925" d="M123 356l63 449q4 14 15 14h10q13 0 10 -14l-61 -449q-8 -51 -8 -94q0 -98 40 -159q56 -87 183 -87q59 0 115 22.5t94.5 56t58.5 55t29 34.5l88 621q4 14 14 14h10q5 0 8.5 -4t2.5 -10l-111 -791q-4 -14 -16 -14h-9q-5 0 -8 4t-2 10l15 109q-48 -56 -122.5 -99.5 t-166.5 -43.5q-150 0 -214 96q-46 68 -46 181q0 46 8 99z" />
<glyph unicode="v" horiz-adv-x="755" d="M70 809q-1 4 -1 7q0 7 5 9l16 6h3q7 0 9 -8l195 -784l420 786q4 7 9 7q2 0 5 -1l14 -6q3 -2 3 -5.5t-3 -10.5l-442 -829q-5 -9 -13 -9t-11 9z" />
<glyph unicode="w" horiz-adv-x="1128" d="M106 811q-1 3 -1 5q0 9 10 11l12 4q10 3 14 -8l117 -768l330 787q3 8 9 11q3 2 6 1.5t5 -1.5q6 -3 8 -13l109 -785l336 770q3 9 14 6l12 -4q8 -2 8 -8q0 -3 -3 -8l-361 -831q-5 -10 -15 -10q-9 0 -11 10l-113 788l-330 -788q-4 -10 -14 -10h-1q-9 0 -11 10z" />
<glyph unicode="x" horiz-adv-x="770" d="M4 8q-4 3 -4 6.5t4 8.5l340 405l-217 375q-7 11 4 18l10 6q10 8 17 -6l211 -368l317 376q4 4 8 4q3 0 6 -2l11 -10q4 -4 4 -8q0 -3 -2 -6l-328 -383l229 -404q5 -8 -4 -14l-12 -6q-10 -5 -14 4l-224 395l-329 -399q-4 -4 -8 -4q-3 0 -7 2z" />
<glyph unicode="y" horiz-adv-x="798" d="M-39 -600l346 618l-246 791q-3 13 7 16l10 4q11 6 16 -8l234 -766l434 770q4 7 9 7q2 0 5 -1l10 -6q5 -3 5 -8q0 -3 -3 -8l-798 -1425q-5 -9 -11 -9q-3 0 -6 2l-10 7q-5 2 -5 7q0 4 3 9z" />
<glyph unicode="z" horiz-adv-x="714" d="M-12 8q-1 2 0 5q0 5 4 10l612 759h-442q-6 0 -9.5 4.5t-2.5 10.5l2 8q4 14 14 14h491q9 1 13 -7q1 -2 1 -5q0 -5 -5 -10l-617 -760h477q6 0 10 -4t3 -10l-2 -9q-3 -14 -15 -14h-522q-10 0 -12 8z" />
<glyph unicode="{" horiz-adv-x="634" d="M35 412l2 8q3 14 18 14q39 0 91.5 51t64.5 136l47 337q69 496 424 496q8 0 13.5 -4t4.5 -10l-2 -8q-4 -15 -20 -15q-313 0 -377 -459l-47 -337q-10 -73 -50.5 -129t-90.5 -76q42 -29 68 -82t16 -123l-50 -344q-16 -105 -10 -183t25 -132t55 -87t79 -48t97 -15q11 0 16 -4 t3 -10l-2 -9q-4 -14 -21 -14q-61 0 -110 16t-90.5 51.5t-64 94t-30.5 143t10 197.5l50 344q12 80 -25 133t-78 53q-8 0 -12.5 4t-3.5 11z" />
<glyph unicode="|" horiz-adv-x="385" d="M10 -600l301 2140q3 14 17 14h8q5 0 8 -4t2 -10l-301 -2140q-3 -14 -14 -14h-8q-6 0 -10 4t-3 10z" />
<glyph unicode="}" horiz-adv-x="634" d="M-109 -621l3 9q4 14 18 14q67 0 124.5 24t108.5 76.5t87.5 145t54.5 219.5l49 344q11 81 51 131.5t90 75.5q-41 25 -67.5 79t-16.5 124l47 337q64 459 -245 459q-8 0 -13 4.5t-4 10.5l2 8q4 14 19 14q353 0 284 -496l-47 -337q-12 -85 26 -136t77 -51q8 0 13.5 -4 t4.5 -10l-2 -8q-3 -15 -20 -15q-41 0 -92.5 -52.5t-63.5 -133.5l-49 -344q-19 -138 -60 -237.5t-98.5 -156t-122 -82.5t-141.5 -26q-8 0 -13 4t-4 10z" />
<glyph unicode="~" horiz-adv-x="1132" d="M150 520q-6 6 0 17q4 8 12.5 21.5t35.5 47.5t56.5 60t74.5 47.5t91 21.5q33 0 61 -12t50 -35.5t34 -41t29 -46.5q19 -33 35 -53t44.5 -37.5t63.5 -17.5q39 0 77.5 18.5t66 45t49 53t32.5 45.5l11 18q7 9 16 6l12 -6q11 -5 5 -17q-4 -8 -12 -21.5t-35 -47.5t-56.5 -60 t-74.5 -47.5t-91 -21.5q-35 0 -63 10.5t-49.5 33t-34 39.5t-29.5 46q-15 25 -25 39.5t-28 34t-40 29t-48 9.5q-39 0 -78.5 -18.5t-67 -45t-49 -53t-32.5 -45.5l-11 -18q-6 -12 -16 -6z" />
<glyph unicode="&#xa0;" horiz-adv-x="575" d="M160 1350l4 8q4 10 16 6l361 -186q11 -5 6 -15l-2 -10q-3 -12 -17 -6l-360 184q-11 6 -8 19z" />
<glyph unicode="&#xa1;" horiz-adv-x="460" d="M41 -600l123 858q0 6 4.5 10t9.5 4h8q13 0 13 -14l-121 -858q0 -14 -19 -14h-6q-12 0 -12 14zM209 784q0 22 16 39t37 17q17 0 29 -13t12 -30q0 -23 -16.5 -38.5t-38.5 -15.5q-17 0 -28 12t-11 29z" />
<glyph unicode="&#xa2;" horiz-adv-x="870" d="M59 354q0 208 134.5 347t324.5 139q37 0 64 -6l30 77q4 14 17 11l6 -2q13 -3 8 -19l-29 -74q16 -4 31.5 -9.5t28.5 -11.5t25 -12.5t21.5 -13t18.5 -13t15.5 -12t12 -11t9 -8.5t6.5 -6l2 -3q7 -7 -2 -16l-10 -9q-10 -10 -18 3q-6 7 -18 18t-52 34.5t-84 35.5l-289 -764 q47 -13 92 -13q33 0 66.5 7t61 18.5t52.5 25t44 27.5t33 25.5t22 18.5l8 7q10 9 17 2l6 -8q8 -8 2 -14l-9 -8q-8 -8 -23.5 -21t-36 -28.5t-48.5 -30.5t-58.5 -28t-68 -21t-74.5 -8q-44 0 -100 18l-66 -174q-7 -13 -16 -10l-8 2q-13 3 -6 18l63 174q-92 39 -148.5 132.5 t-56.5 213.5zM94 358q0 -108 51.5 -195t135.5 -122l286 758q-36 4 -53 4q-80 0 -156 -33.5t-134.5 -91t-94 -141.5t-35.5 -179z" />
<glyph unicode="&#xa3;" horiz-adv-x="1021" d="M96 6q-3 6 0 14q83 163 126.5 312.5t37.5 304.5h-78q-6 0 -9.5 4t-2.5 10l2 8q4 13 14 13h74q-14 187 -14 254q0 124 35.5 225.5t95 166.5t136.5 100.5t161 35.5q65 0 121.5 -15.5t96 -40.5t63.5 -46.5t42 -44.5q6 -9 -4 -19l-8 -8q-10 -10 -16 -2q-113 139 -299 139 q-71 0 -139.5 -32t-124.5 -91t-90.5 -153.5t-34.5 -208.5q0 -69 14 -260h438q15 0 12 -13l-2 -8q-3 -14 -14 -14h-436q6 -282 -148 -600h635q6 0 10 -4t3 -10l-2 -9q-3 -14 -15 -14h-670q-7 0 -10 6z" />
<glyph unicode="&#xa4;" horiz-adv-x="858" d="M100 334l131 127q-36 59 -36 137q-3 130 86 225l-93 125q-7 12 5.5 22.5t21.5 2.5l96 -125q75 63 168 63q92 0 150 -67l135 129q10 6 16 0q12 -17 4 -25l-133 -131q39 -56 39 -135q3 -128 -84 -225l92 -123q6 -12 -6.5 -22.5t-21.5 -2.5l-95 121q-80 -68 -169 -65 q-94 3 -154 69l-129 -125q-13 -9 -22 2t-1 23zM227 602q0 -79 41 -131q51 -72 140 -72q97 0 173 86.5t76 192.5q0 86 -51.5 142.5t-128.5 56.5q-100 0 -175 -86.5t-75 -188.5z" />
<glyph unicode="&#xa5;" horiz-adv-x="1142" d="M180 1409q-9 13 4 21l13 6q9 4 14 -6l377 -695l569 695q3 5 9.5 7.5t11.5 -1.5l10 -9q10 -8 0 -18l-584 -704l-16 -111h311q5 0 8 -4t2 -10l-2 -9q-3 -12 -12 -12h-311l-31 -207h311q5 0 9.5 -3.5t3.5 -8.5l-3 -10q-3 -13 -14 -13h-311l-43 -303q0 -6 -4.5 -10t-9.5 -4 h-11q-12 0 -12 14l43 303h-309q-5 0 -8 4.5t-2 10.5l2 8q3 12 14 12h309l29 207h-309q-6 0 -9.5 3.5t-1.5 8.5l2 13q3 10 13 10h309l16 108z" />
<glyph unicode="&#xa6;" horiz-adv-x="739" d="M195 -598l104 739q0 4 4.5 8.5t9.5 4.5h9q12 0 12 -13l-105 -739q0 -6 -4.5 -10t-9.5 -4h-8q-12 0 -12 14zM391 801l103 739q4 14 16 14h8q5 0 8 -4t2 -10l-104 -739q0 -15 -14 -15h-9q-14 0 -10 15z" />
<glyph unicode="&#xa7;" horiz-adv-x="1028" d="M35 -258l12 12q10 7 16 -2q11 -15 32.5 -35t61.5 -49t101 -48t129 -19q98 0 188 43.5t147.5 123t57.5 173.5q0 121 -82.5 191.5t-240.5 115.5q-336 96 -336 332q0 158 129 278q-60 76 -60 186q0 58 14.5 114t49 110.5t85 95t129.5 65.5t177 25q51 0 100.5 -10.5t83.5 -26 t60.5 -31t39.5 -26.5l13 -10q9 -4 2 -15l-10 -14q-12 -12 -19 -6q-4 4 -12.5 11t-36 24.5t-57.5 31t-76.5 24.5t-93.5 11q-105 0 -187.5 -33.5t-130 -88t-72 -117t-24.5 -127.5q0 -120 81 -193.5t229 -114.5q171 -50 260.5 -126t89.5 -205q0 -133 -142 -271q72 -75 72 -196 q0 -161 -126.5 -270t-305.5 -109q-68 0 -133 20.5t-109 50t-69 51t-37 36.5q-10 10 0 18zM158 586q0 -118 81.5 -191t229.5 -114q174 -53 248 -117q129 116 129 242q0 62 -23 111t-68.5 85t-101.5 61.5t-133 47.5q-170 49 -246 125q-116 -110 -116 -250z" />
<glyph unicode="&#xa8;" horiz-adv-x="763" d="M256 1278q0 21 14 35t33 14q15 0 24 -11t9 -26q0 -20 -12.5 -33.5t-32.5 -13.5q-15 0 -25 10.5t-10 24.5zM606 1278q0 20 13 34.5t32 14.5q15 0 25 -11t10 -26q0 -20 -13.5 -33.5t-33.5 -13.5q-14 0 -23.5 10.5t-9.5 24.5z" />
<glyph unicode="&#xa9;" horiz-adv-x="1595" d="M143 621q0 167 64.5 322t171.5 266.5t249.5 178t293.5 66.5q160 0 291.5 -86.5t205.5 -233.5t74 -321q0 -168 -64.5 -323t-171 -266t-249 -177.5t-293.5 -66.5q-160 0 -291.5 86.5t-206 233.5t-74.5 321zM180 625q0 -167 68.5 -306t193 -221t277.5 -82q141 0 275.5 63.5 t236 169t163.5 253.5t62 307q0 166 -69 305t-193.5 221t-278.5 82q-140 0 -274.5 -63t-235.5 -168.5t-163 -253.5t-62 -307zM475 662q0 184 123.5 315t290.5 131q122 0 205 -80q9 -6 2 -16l-11 -11q-5 -8 -14 -2q-74 74 -186 74q-147 0 -261 -120.5t-114 -286.5 q0 -129 78 -219.5t196 -90.5q114 0 209 80q11 9 19 -4l4 -10q2 -7 -4 -14q-108 -89 -234 -89q-127 0 -215 100.5t-88 242.5z" />
<glyph unicode="&#xaa;" horiz-adv-x="643" d="M156 1028q12 89 83.5 145t182.5 56q78 0 143 -27l8 53q11 87 -13.5 124.5t-100.5 37.5q-45 0 -86.5 -10.5t-60.5 -21.5l-19 -11q-8 -6 -12 2l-7 13q-3 9 7 16q8 5 23 13.5t62.5 22t96.5 13.5q90 0 124.5 -49.5t20.5 -149.5l-57 -401q-3 -14 -16 -14h-7q-6 0 -9.5 4 t-2.5 10l8 51q-41 -33 -97 -58.5t-112 -25.5q-78 0 -125 57.5t-34 149.5zM190 1028q-10 -80 25.5 -125t103.5 -45q61 0 121 31.5t90 66.5l29 209q-70 31 -141 31q-92 0 -155.5 -48t-72.5 -120z" />
<glyph unicode="&#xab;" horiz-adv-x="761" d="M76 418q-3 9 2 16l272 348q10 10 19 2l8 -8q8 -8 0 -16l-260 -338l166 -340q4 -11 -7 -16l-10 -5q-10 -5 -16 5zM371 418q-3 9 2 16l272 348q11 10 19 2l8 -8q8 -8 0 -16l-260 -338l166 -340q4 -11 -7 -16l-10 -5q-9 -5 -16 5z" />
<glyph unicode="&#xac;" horiz-adv-x="1050" d="M160 711l2 8q4 14 12 14h719q13 0 10 -14l-55 -404q-4 -14 -14 -14h-11q-13 0 -10 14l53 381h-696q-5 0 -8 4.5t-2 10.5z" />
<glyph unicode="&#xad;" horiz-adv-x="641" d="M156 512l2 8q4 15 14 15h446q5 0 7.5 -4.5t1.5 -10.5l-2 -8q-3 -14 -13 -14h-446q-5 0 -8 4t-2 10z" />
<glyph unicode="&#xae;" horiz-adv-x="1593" d="M143 621q0 167 64.5 322t170.5 266.5t248.5 178t293.5 66.5q160 0 291.5 -86.5t205.5 -233.5t74 -321q0 -168 -64.5 -323t-171 -266t-249 -177.5t-293.5 -66.5q-159 0 -290.5 86.5t-205.5 233.5t-74 321zM180 625q0 -167 68.5 -306t193 -221t277.5 -82q140 0 274.5 63.5 t236.5 169t164 253.5t62 307q0 124 -41 236t-112 193.5t-172 130t-216 48.5q-113 0 -222.5 -40t-201 -113.5t-162 -170.5t-110 -218.5t-39.5 -249.5zM524 354l105 736q0 14 12 14h277q88 0 148 -52t60 -145q0 -118 -68 -187.5t-167 -82.5l104 -277q3 -10 -4 -14l-14 -6 q-8 -5 -12 6l-109 289h-258l-39 -281q-3 -14 -16 -14h-8q-5 0 -8.5 4t-2.5 10zM602 668h254q90 0 163 61t73 172q0 82 -52.5 125t-128.5 43h-252z" />
<glyph unicode="&#xaf;" horiz-adv-x="763" d="M76 1257l2 9q4 14 16 14h529q15 0 12 -14l-2 -9q-3 -14 -15 -14h-530q-16 0 -12 14z" />
<glyph unicode="&#xb0;" horiz-adv-x="696" d="M168 1165q17 121 103.5 205t195.5 84q104 0 171 -85.5t50 -203.5q-19 -122 -106 -206.5t-195 -84.5q-106 0 -172 85.5t-47 205.5zM205 1165q-15 -107 38 -180.5t148 -73.5q93 0 168 74t90 180q14 105 -39.5 178.5t-146.5 73.5q-95 0 -169.5 -73.5t-88.5 -178.5z" />
<glyph unicode="&#xb1;" horiz-adv-x="1204" d="M190 188v9q4 14 15 14h717q6 0 9.5 -4t2.5 -10v-9q-4 -14 -16 -14h-717q-5 0 -8.5 4t-2.5 10zM270 795l2 8q4 14 15 14h340l53 379q4 14 14 14h13q5 0 8 -4t2 -10l-53 -379h340q5 0 9 -4t3 -10l-2 -8q-4 -15 -15 -15h-340l-45 -319q-4 -15 -14 -15h-12q-5 0 -8 4.5 t-2 10.5l45 319h-340q-6 0 -10 4.5t-3 10.5z" />
<glyph unicode="&#xb2;" horiz-adv-x="626" d="M199 1042.5q-2 10.5 6 16.5l272 227q117 95 129 187q8 61 -28 105t-107 44q-44 0 -80.5 -18.5t-51.5 -37.5l-15 -18q-6 -13 -17 -6l-8 6q-8 8 0 19q2 4 6.5 10t20.5 22t35 28t50.5 22t65.5 10q83 0 129 -55.5t35 -130.5q-13 -108 -141 -213l-232 -191h301q5 0 8.5 -4 t2.5 -10l-2 -8q-4 -15 -15 -15h-352q-10 0 -12 10.5z" />
<glyph unicode="&#xb3;" horiz-adv-x="634" d="M205 1098q-6 10 4 20l6 6q9 9 18 0q1 -1 6.5 -7.5t8.5 -9.5l10.5 -10.5t14 -11.5t16.5 -10.5t21 -10.5t24 -7.5t29 -5.5t34 -2q78 0 131 39.5t62 101.5q6 57 -29 95t-104 38h-121q-5 0 -8 4t-2 10l2 9q4 14 12 14h121q59 0 102 38.5t51 94.5q9 60 -25.5 94.5t-103.5 34.5 q-48 0 -91 -18.5t-62 -37.5l-19 -18q-2 -3 -6.5 -4t-7.5 2l-6 6q-11 10 0 21q3 3 8 9t24 21t40.5 26t55.5 20.5t71 9.5q79 0 124 -45t35 -121q-6 -47 -40 -91.5t-74 -58.5q46 -20 71 -62t19 -91q-12 -78 -77 -128t-161 -50q-109 0 -184 86z" />
<glyph unicode="&#xb4;" horiz-adv-x="557" d="M172 1163q-4 9 8 15l361 186q10 3 16 -6l6 -10q6 -12 -8 -19l-360 -184q-12 -5 -17 6z" />
<glyph unicode="&#xb5;" horiz-adv-x="960" d="M-2 -600l199 1405q0 6 5 10t11 4h8q12 0 12 -14l-63 -449q-23 -167 35 -253.5t192 -86.5q57 0 112 22.5t93 56t57.5 54.5t28.5 35l90 621q0 6 5.5 10t11.5 4h8q10 0 10 -14l-113 -791q0 -14 -14 -14h-10q-12 0 -12 14l16 109q-47 -55 -122.5 -99t-166.5 -44 q-100 0 -165.5 45.5t-82.5 134.5l-106 -760q0 -6 -5.5 -10t-11.5 -4h-10q-12 0 -12 14z" />
<glyph unicode="&#xb6;" horiz-adv-x="1249" d="M115 940q0 133 55.5 246t155.5 180.5t223 67.5h764q12 0 12 -15l-2 -8q0 -6 -4.5 -10t-9.5 -4h-185l-278 -1997q-4 -14 -17 -14q-9 0 -15 3t-5 11l278 1997h-352l-278 -1997q-3 -14 -17 -14q-20 0 -20 14l280 1997h-157q-157 0 -273 -135t-116 -320q0 -148 84 -248 t215 -100q11 0 4 -21q-3 -12 -15 -12q-140 0 -233.5 110t-93.5 269z" />
<glyph unicode="&#xb7;" horiz-adv-x="520" d="M217 530q0 23 16 38.5t37 15.5q18 0 28.5 -11.5t10.5 -29.5q0 -22 -15 -39t-38 -17q-17 0 -28 12.5t-11 30.5z" />
<glyph unicode="&#xb8;" horiz-adv-x="454" d="M76 -412q-9 14 2 19l10 6q11 8 21 -4q37 -53 106 -53q65 0 109.5 49.5t44.5 118.5q0 63 -48 97t-118 34q-10 0 -10 12l16 121q0 12 14 12h13q8 0 8 -12l-15 -99q79 -8 128 -47.5t49 -111.5q0 -89 -55.5 -150t-141.5 -61q-42 0 -77.5 19.5t-55.5 49.5z" />
<glyph unicode="&#xb9;" horiz-adv-x="360" d="M207 1524q-4 8 6 14l149 109q7 6 14 1t5 -14l-82 -587q0 -6 -5 -10.5t-11 -4.5h-7q-12 0 -12 15l78 544l-111 -80q-8 -6 -16 2z" />
<glyph unicode="&#xba;" horiz-adv-x="649" d="M178 1130q20 152 90 238t178 86q101 0 151 -87.5t30 -236.5q-22 -151 -93.5 -237t-179.5 -86q-101 0 -149.5 87.5t-26.5 235.5zM213 1130q-20 -134 19 -210t128 -76q90 0 150 75.5t80 210.5q19 136 -20.5 212.5t-129.5 76.5q-89 0 -148.5 -76.5t-78.5 -212.5z" />
<glyph unicode="&#xbb;" horiz-adv-x="759" d="M45 88l262 342l-166 336q-7 10 6 16l11 4q11 4 16 -4l174 -348q3 -9 -2 -16l-272 -352q-11 -11 -19 -3l-8 9q-8 8 -2 16zM340 86l262 344l-166 336q-6 10 6 16l11 4q11 4 16 -4l174 -348q3 -9 -2 -16l-272 -352q-12 -12 -19 -5l-8 9q-8 8 -2 16z" />
<glyph unicode="&#xbc;" horiz-adv-x="1210" d="M63 27l967 1405q6 9 17 2l10 -9q7 -7 0 -16l-965 -1405q-3 -4 -9 -4.5t-9 2.5l-8 6q-11 7 -3 19zM227 1319q-4 8 6 14l150 109q7 6 13.5 1.5t4.5 -13.5l-82 -588q0 -6 -5 -10.5t-11 -4.5h-6q-12 0 -12 15l77 544l-110 -79q-8 -6 -16 2zM523 146.5q-3 7.5 3 15.5l439 456 q9 6 16 3t6 -13l-61 -434h92q5 0 8 -4t2 -10l-2 -10q-4 -11 -12 -11h-92l-19 -125q-3 -14 -14 -14h-8q-6 0 -9 4t-2 10l19 125h-354q-9 0 -12 7.5zM584 174h309l53 375z" />
<glyph unicode="&#xbd;" horiz-adv-x="1189" d="M63 27l967 1405q6 9 17 2l10 -9q7 -7 0 -16l-965 -1405q-3 -4 -9 -4.5t-9 2.5l-8 6q-11 7 -3 19zM227 1319q-4 8 6 14l150 109q7 6 13.5 1.5t4.5 -13.5l-82 -588q0 -6 -5 -10.5t-11 -4.5h-6q-12 0 -12 15l77 544l-110 -79q-8 -6 -16 2zM578 10.5q-2 10.5 6 16.5l272 227 q55 45 88.5 88.5t40.5 97.5q8 61 -28 105.5t-107 44.5q-27 0 -52.5 -7.5t-42 -18.5t-29.5 -22t-18 -18l-6 -8q-6 -12 -16 -6l-8 6q-8 8 0 19q2 4 6.5 10t20.5 22t35 28t50.5 22t65.5 10q83 0 129 -56t35 -131q-13 -108 -141 -213l-232 -190h301q5 0 8 -4t2 -10l-2 -9 q-4 -14 -14 -14h-352q-10 0 -12 10.5z" />
<glyph unicode="&#xbe;" horiz-adv-x="1308" d="M160 893q-6 10 4 20l6 7q9 9 18 0l7 -8q7 -8 10 -11.5t13 -12t17.5 -13.5t21 -11.5t26.5 -10t31 -6.5t38 -3q78 0 131 39.5t62 101.5q6 57 -29 95t-104 38h-121q-5 0 -8 4.5t-2 10.5l2 8q3 14 12 14h121q59 0 102 38.5t51 94.5q9 60 -25.5 94.5t-103.5 34.5 q-48 0 -91 -18.5t-62 -36.5l-19 -19q-2 -3 -6.5 -4t-7.5 2l-6 7q-10 10 0 20q3 3 8 9t24 21t40 26t55 20.5t71 9.5q79 0 124.5 -45t35.5 -121q-6 -47 -40 -91t-74 -58q46 -20 71 -62.5t19 -91.5q-12 -78 -77 -128t-161 -50q-109 0 -184 86zM162 27l966 1405q6 9 17 2l10 -9 q7 -7 0 -16l-965 -1405q-3 -4 -9 -4.5t-9 2.5l-8 6q-10 7 -2 19zM621.5 146.5q-2.5 7.5 3.5 15.5l438 456q9 6 16 3t6 -13l-61 -434h92q5 0 8 -4t2 -10l-2 -10q-4 -11 -12 -11h-92l-19 -125q-3 -14 -14 -14h-8q-13 0 -10 14l18 125h-354q-9 0 -11.5 7.5zM682 174h309l53 375 z" />
<glyph unicode="&#xbf;" horiz-adv-x="495" d="M-217 -373q0 60 22.5 116.5t51.5 94.5t71.5 75t66 53t50.5 32q40 23 57.5 34.5t41.5 32t34.5 42.5t14.5 51l16 118q4 15 16 15h11q5 0 8 -4.5t2 -10.5l-19 -122q-3 -28 -15.5 -53t-24.5 -41t-39 -36t-40.5 -28.5t-48.5 -28.5q-241 -143 -241 -338q0 -94 70.5 -161.5 t183.5 -67.5q60 0 117 17.5t95 42t67 49t43 41.5l14 18q10 13 22 6l8 -6q11 -7 2 -19q-5 -7 -15.5 -19.5t-45.5 -44.5t-74.5 -56t-102.5 -44t-130 -20q-132 0 -210.5 73.5t-78.5 188.5zM246 782q0 22 16 39t37 17q17 0 28 -12.5t11 -30.5q0 -23 -15.5 -38.5t-37.5 -15.5 q-17 0 -28 12t-11 29z" />
<glyph unicode="&#xc0;" horiz-adv-x="1202" d="M-49 14l772 1454q3 9 12 9h2q8 0 11 -9l352 -1452q3 -10 -8 -14l-11 -4q-11 -4 -14 6l-102 426h-756l-225 -428q-4 -8 -13 -6l-16 6q-9 3 -4 12zM229 465h725l-225 944h-2zM610 1798l4 6q6 10 19 6l307 -186q9 -6 4 -14l-4 -8q-8 -12 -18 -7l-310 185q-10 7 -2 18z" />
<glyph unicode="&#xc1;" horiz-adv-x="1202" d="M-49 14l772 1454q3 9 12 9h2q8 0 11 -9l352 -1452q3 -10 -8 -14l-11 -4q-11 -4 -14 6l-102 426h-756l-225 -428q-4 -8 -13 -6l-16 6q-9 3 -4 12zM229 465h725l-225 944h-2zM573 1610q-4 8 9 14l360 186q10 3 16 -6l7 -10q5 -11 -9 -18l-360 -185q-11 -4 -16 6z" />
<glyph unicode="&#xc2;" horiz-adv-x="1202" d="M-49 14l772 1454q3 9 12 9h2q8 0 11 -9l352 -1452q3 -10 -8 -14l-11 -4q-11 -4 -14 6l-102 426h-756l-225 -428q-4 -8 -13 -6l-16 6q-9 3 -4 12zM229 465h725l-225 944h-2zM498.5 1587q0.5 1 13.5 12l260 209q10 6 16 0l207 -217q9 -9 2 -16l-8 -8q-7 -7 -14 -2l-197 207 l-258 -209q-8 -5 -14 2l-6 10q-2 11 -1.5 12z" />
<glyph unicode="&#xc3;" horiz-adv-x="1202" d="M-49 14l772 1454q3 9 12 9h2q8 0 11 -9l352 -1452q3 -10 -8 -14l-11 -4q-11 -4 -14 6l-102 426h-756l-225 -428q-4 -8 -13 -6l-16 6q-9 3 -4 12zM229 465h725l-225 944h-2zM494 1665q9 23 21 44.5t35 54.5t56.5 53t71.5 20q40 0 64 -23t33.5 -55.5t18 -64.5t27 -55 t49.5 -23q87 0 144 147q6 16 14 13l14 -4q16 -4 7 -19q-74 -172 -183 -172q-39 0 -63 23t-34.5 55.5t-19.5 64.5t-27 55t-48 23q-28 0 -54.5 -18t-45 -45.5t-29 -48t-17.5 -37.5q-6 -15 -14 -11l-14 5q-12 3 -6 18z" />
<glyph unicode="&#xc4;" horiz-adv-x="1202" d="M-49 14l772 1454q3 9 12 9h2q8 0 11 -9l352 -1452q3 -10 -8 -14l-11 -4q-11 -4 -14 6l-102 426h-756l-225 -428q-4 -8 -13 -6l-16 6q-9 3 -4 12zM229 465h725l-225 944h-2zM539 1694q0 21 14 35t33 14q15 0 25 -11t10 -26q0 -20 -14 -33.5t-34 -13.5q-15 0 -24.5 10.5 t-9.5 24.5zM922 1694q0 22 13.5 35.5t33.5 13.5q15 0 23.5 -10.5t8.5 -26.5q0 -20 -13 -33.5t-32 -13.5q-15 0 -24.5 10.5t-9.5 24.5z" />
<glyph unicode="&#xc5;" horiz-adv-x="1202" d="M-49 14l772 1454q3 9 12 9h2q8 0 11 -9l352 -1452q3 -10 -8 -14l-11 -4q-11 -4 -14 6l-102 426h-756l-225 -428q-4 -8 -13 -6l-16 6q-9 3 -4 12zM229 465h725l-225 944h-2zM584 1718q0 100 67.5 172t157.5 72q71 0 117.5 -53t46.5 -131q0 -100 -67 -171t-156 -71 q-73 0 -119.5 52.5t-46.5 129.5zM618 1726q0 -68 35.5 -112.5t100.5 -44.5q72 0 129 60.5t57 142.5q0 65 -37 111t-98 46q-73 0 -130 -61t-57 -142z" />
<glyph unicode="&#xc6;" horiz-adv-x="1753" d="M-76 20l1022 1407q4 7 15 7h745q6 0 9.5 -4.5t2.5 -10.5l-2 -8q-4 -14 -14 -14h-727l-90 -633h639q12 0 12 -12q0 -25 -18 -25h-637l-99 -690h727q6 0 10 -4t3 -10l-2 -9q-4 -14 -15 -14h-747q-6 0 -10 4t-3 10l58 416h-539l-311 -430q-6 -9 -16 -2l-11 6q-10 6 -2 16z M289 465h520l125 889z" />
<glyph unicode="&#xc7;" horiz-adv-x="1376" d="M145 616q0 169 65.5 325.5t172.5 268t249 178t290 66.5q138 0 238 -48t188 -142q8 -8 0 -17l-11 -10q-8 -8 -16 0q-80 90 -176 136t-223 46q-142 0 -277.5 -64.5t-237 -171.5t-163.5 -256.5t-62 -310.5q0 -166 70 -303.5t193.5 -217t273.5 -79.5q242 0 457 191q7 7 14 0 l10 -12q6 -7 -2 -15q-218 -200 -479 -200q-5 0 -15.5 1t-15.5 1l-12 -93q79 -8 127.5 -47.5t48.5 -111.5q0 -89 -55.5 -150t-141.5 -61q-42 0 -77.5 19.5t-55.5 49.5q-9 14 2 19l11 6q11 8 20 -4q37 -53 107 -53q65 0 109 49.5t44 118.5q0 63 -48 97t-118 34q-10 0 -10 12 l14 117q-225 25 -366.5 203t-141.5 429z" />
<glyph unicode="&#xc8;" horiz-adv-x="1157" d="M147 14l199 1405q0 6 4.5 10.5t9.5 4.5h750q6 0 9.5 -4.5t2.5 -10.5l-2 -8q-4 -14 -14 -14h-727l-88 -633h637q6 0 9.5 -4t2.5 -10l-2 -9q-4 -14 -14 -14h-639l-97 -690h725q10 0 13.5 -3.5t1.5 -10.5l-2 -9q-4 -14 -17 -14h-749q-13 0 -13 14zM606 1798l4 6q6 10 19 6 l307 -186q9 -6 4 -14l-4 -8q-8 -12 -18 -7l-310 185q-10 7 -2 18z" />
<glyph unicode="&#xc9;" horiz-adv-x="1157" d="M147 14l199 1405q0 6 4.5 10.5t9.5 4.5h750q6 0 9.5 -4.5t2.5 -10.5l-2 -8q-4 -14 -14 -14h-727l-88 -633h637q6 0 9.5 -4t2.5 -10l-2 -9q-4 -14 -14 -14h-639l-97 -690h725q10 0 13.5 -3.5t1.5 -10.5l-2 -9q-4 -14 -17 -14h-749q-13 0 -13 14zM571 1610q-4 8 9 14 l360 186q10 3 16 -6l7 -10q5 -11 -9 -18l-360 -185q-11 -4 -16 6z" />
<glyph unicode="&#xca;" horiz-adv-x="1157" d="M147 14l199 1405q0 6 4.5 10.5t9.5 4.5h750q6 0 9.5 -4.5t2.5 -10.5l-2 -8q-4 -14 -14 -14h-727l-88 -633h637q6 0 9.5 -4t2.5 -10l-2 -9q-4 -14 -14 -14h-639l-97 -690h725q10 0 13.5 -3.5t1.5 -10.5l-2 -9q-4 -14 -17 -14h-749q-13 0 -13 14zM471.5 1587q0.5 1 13.5 12 l260 209q10 7 17 0l207 -217q9 -9 2 -16l-8 -8q-8 -8 -15 -2l-196 207l-258 -209q-8 -5 -15 2l-6 10q-2 11 -1.5 12z" />
<glyph unicode="&#xcb;" horiz-adv-x="1157" d="M147 14l199 1405q0 6 4.5 10.5t9.5 4.5h750q6 0 9.5 -4.5t2.5 -10.5l-2 -8q-4 -14 -14 -14h-727l-88 -633h637q6 0 9.5 -4t2.5 -10l-2 -9q-4 -14 -14 -14h-639l-97 -690h725q10 0 13.5 -3.5t1.5 -10.5l-2 -9q-4 -14 -17 -14h-749q-13 0 -13 14zM506 1694q0 21 14 35 t33 14q15 0 25 -11t10 -26q0 -20 -13.5 -33.5t-33.5 -13.5q-15 0 -25 10.5t-10 24.5zM889 1694q0 22 13.5 35.5t33.5 13.5q15 0 24 -11t9 -26q0 -20 -13 -33.5t-32 -13.5q-15 0 -25 10.5t-10 24.5z" />
<glyph unicode="&#xcc;" horiz-adv-x="489" d="M150 14l196 1405q4 15 16 15h9q6 0 9.5 -4.5t2.5 -10.5l-197 -1405q-4 -14 -16 -14h-8q-6 0 -9.5 4t-2.5 10zM242 1798l4 6q6 10 18 6l307 -186q9 -6 4 -14l-4 -8q-8 -12 -18 -7l-309 185q-10 7 -2 18z" />
<glyph unicode="&#xcd;" horiz-adv-x="489" d="M150 14l196 1405q4 15 16 15h9q6 0 9.5 -4.5t2.5 -10.5l-197 -1405q-4 -14 -16 -14h-8q-6 0 -9.5 4t-2.5 10zM209 1610q-4 8 8 14l361 186q10 3 16 -6l6 -10q6 -11 -8 -18l-361 -185q-11 -4 -16 6z" />
<glyph unicode="&#xce;" horiz-adv-x="489" d="M133.5 1587q0.5 1 13.5 12l261 209q10 6 16 0l207 -217q9 -9 2 -16l-8 -8q-8 -8 -15 -2l-196 207l-258 -209q-8 -5 -15 2l-6 10q-2 11 -1.5 12zM150 14l196 1405q4 15 16 15h9q6 0 9.5 -4.5t2.5 -10.5l-197 -1405q-4 -14 -16 -14h-8q-6 0 -9.5 4t-2.5 10z" />
<glyph unicode="&#xcf;" horiz-adv-x="489" d="M150 14l196 1405q4 15 16 15h9q6 0 9.5 -4.5t2.5 -10.5l-197 -1405q-4 -14 -16 -14h-8q-6 0 -9.5 4t-2.5 10zM176 1694q0 21 14 35t33 14q15 0 25 -11t10 -26q0 -20 -13.5 -33.5t-33.5 -13.5q-15 0 -25 10.5t-10 24.5zM559 1694q0 22 13.5 35.5t33.5 13.5q15 0 24 -11 t9 -26q0 -20 -13 -33.5t-32 -13.5q-15 0 -25 10.5t-10 24.5z" />
<glyph unicode="&#xd0;" horiz-adv-x="1433" d="M152 14l96 682h-74q-5 0 -8 4.5t-2 10.5v8q4 14 16 14h74l96 686q0 6 4.5 10.5t10.5 4.5h405q159 0 287.5 -83.5t200 -226t71.5 -313.5q0 -163 -64 -314t-169 -259.5t-243.5 -173t-283.5 -64.5h-405q-12 0 -12 14zM193 37h380q137 0 268 61.5t230 164t159 246t60 298.5 q0 162 -66.5 296.5t-188 214t-271.5 79.5h-381l-94 -664h528q15 0 12 -14l-2 -8q0 -15 -14 -15h-528z" />
<glyph unicode="&#xd1;" horiz-adv-x="1462" d="M147 14l203 1440q2 11 12 14t15 -6l751 -1409l193 1366q4 15 16 15h9q6 0 9.5 -4.5t2.5 -10.5l-203 -1435q-2 -11 -12 -14.5t-15 5.5l-751 1409l-193 -1370q-4 -14 -16 -14h-8q-6 0 -10 4t-3 10zM612 1665q9 23 21 45t35.5 54.5t57 52.5t71.5 20q40 0 64 -23t33.5 -55.5 t18 -64.5t27 -55t49.5 -23q87 0 144 147q6 16 14 13l14 -4q15 -4 6 -19q-74 -172 -182 -172q-39 0 -63 23t-34.5 55.5t-19.5 64.5t-27 55t-48 23q-28 0 -54.5 -18t-45 -45.5t-29 -48t-17.5 -37.5q-6 -15 -14 -11l-15 5q-12 3 -6 18z" />
<glyph unicode="&#xd2;" horiz-adv-x="1595" d="M145 618q0 170 64.5 326t171.5 267t249.5 177t293.5 66q164 0 295 -86t203.5 -232t72.5 -323q0 -169 -65 -324.5t-171.5 -266t-249 -176.5t-292.5 -66q-164 0 -296 86t-204 231.5t-72 320.5zM182 621q0 -166 68.5 -304.5t192 -219.5t274.5 -81q142 0 277.5 63t237.5 169 t164 254t62 309q0 168 -68.5 306.5t-192 219t-275.5 80.5q-142 0 -277.5 -63t-237 -169t-163.5 -254.5t-62 -309.5zM801 1798l4 6q6 10 18 6l307 -186q10 -7 5 -14l-5 -8q-8 -12 -18 -7l-309 185q-10 7 -2 18z" />
<glyph unicode="&#xd3;" horiz-adv-x="1595" d="M145 618q0 170 64.5 326t171.5 267t249.5 177t293.5 66q164 0 295 -86t203.5 -232t72.5 -323q0 -169 -65 -324.5t-171.5 -266t-249 -176.5t-292.5 -66q-164 0 -296 86t-204 231.5t-72 320.5zM182 621q0 -166 68.5 -304.5t192 -219.5t274.5 -81q142 0 277.5 63t237.5 169 t164 254t62 309q0 168 -68.5 306.5t-192 219t-275.5 80.5q-142 0 -277.5 -63t-237 -169t-163.5 -254.5t-62 -309.5zM768 1610q-4 8 8 14l361 186q10 3 16 -6l6 -10q6 -11 -8 -18l-360 -185q-12 -5 -17 6z" />
<glyph unicode="&#xd4;" horiz-adv-x="1595" d="M145 618q0 170 64.5 326t171.5 267t249.5 177t293.5 66q164 0 295 -86t203.5 -232t72.5 -323q0 -169 -65 -324.5t-171.5 -266t-249 -176.5t-292.5 -66q-164 0 -296 86t-204 231.5t-72 320.5zM182 621q0 -166 68.5 -304.5t192 -219.5t274.5 -81q142 0 277.5 63t237.5 169 t164 254t62 309q0 168 -68.5 306.5t-192 219t-275.5 80.5q-142 0 -277.5 -63t-237 -169t-163.5 -254.5t-62 -309.5zM691.5 1581q-0.5 2 0.5 4.5t2 3.5t5.5 4.5t7.5 5.5l260 209q10 6 16 0l207 -217q9 -9 2 -16l-8 -8q-8 -8 -15 -2l-196 207l-258 -209q-8 -5 -15 2l-6 10 q-2 4 -2.5 6z" />
<glyph unicode="&#xd5;" horiz-adv-x="1595" d="M145 618q0 170 64.5 326t171.5 267t249.5 177t293.5 66q164 0 295 -86t203.5 -232t72.5 -323q0 -169 -65 -324.5t-171.5 -266t-249 -176.5t-292.5 -66q-164 0 -296 86t-204 231.5t-72 320.5zM182 621q0 -166 68.5 -304.5t192 -219.5t274.5 -81q142 0 277.5 63t237.5 169 t164 254t62 309q0 168 -68.5 306.5t-192 219t-275.5 80.5q-142 0 -277.5 -63t-237 -169t-163.5 -254.5t-62 -309.5zM688 1665q9 23 21 44.5t35 54.5t56.5 53t71.5 20q40 0 64 -23t34 -55.5t18.5 -64.5t27 -55t49.5 -23q86 0 143 147q6 16 15 13l14 -4q15 -4 6 -19 q-74 -172 -182 -172q-39 0 -63 23t-35 55.5t-20 64.5t-27 55t-48 23q-28 0 -54 -18t-44.5 -46t-29 -48t-17.5 -37q-6 -15 -14 -11l-15 5q-12 3 -6 18z" />
<glyph unicode="&#xd6;" horiz-adv-x="1595" d="M145 618q0 170 64.5 326t171.5 267t249.5 177t293.5 66q164 0 295 -86t203.5 -232t72.5 -323q0 -169 -65 -324.5t-171.5 -266t-249 -176.5t-292.5 -66q-164 0 -296 86t-204 231.5t-72 320.5zM182 621q0 -166 68.5 -304.5t192 -219.5t274.5 -81q142 0 277.5 63t237.5 169 t164 254t62 309q0 168 -68.5 306.5t-192 219t-275.5 80.5q-142 0 -277.5 -63t-237 -169t-163.5 -254.5t-62 -309.5zM733 1694q0 21 14 35t33 14q15 0 25 -11t10 -26q0 -20 -13.5 -33.5t-33.5 -13.5q-15 0 -25 10.5t-10 24.5zM1116 1694q0 22 13.5 35.5t33.5 13.5 q15 0 24 -11t9 -26q0 -20 -13 -33.5t-32 -13.5q-15 0 -25 10.5t-10 24.5z" />
<glyph unicode="&#xd7;" horiz-adv-x="825" d="M120.5 433q0.5 6 4.5 9l283 273l-205 268q-9 14 2 21l6 4q12 8 18 0l203 -269l281 269q11 11 18 0l6 -9q8 -12 -2 -20l-278 -268l200 -269q8 -8 0 -16l-8 -8q-9 -9 -16 2l-203 266l-285 -270q-10 -10 -16 0l-6 8q-3 3 -2.5 9z" />
<glyph unicode="&#xd8;" horiz-adv-x="1597" d="M106 70q-8 8 5 20l141 131q-51 78 -80 183.5t-29 211.5q0 170 63.5 326t169 267.5t247 178t292.5 66.5q136 0 251.5 -56.5t191.5 -156.5l145 133q13 13 19 0l4 -6q6 -12 -2 -20l-146 -134q53 -80 84 -188t31 -215q0 -169 -64 -323.5t-169.5 -265.5t-247.5 -176.5 t-293 -65.5q-139 0 -255.5 55.5t-193.5 157.5l-141 -130q-10 -6 -16 0zM180 616q0 -100 26 -199.5t73 -170.5l1052 971q-75 95 -182 147.5t-234 52.5q-142 0 -277 -63.5t-235.5 -170t-161.5 -255.5t-61 -312zM301 219q71 -97 179 -150t239 -53q142 0 277 62.5t236 168 t162.5 253.5t61.5 309q0 103 -27.5 206t-76.5 175z" />
<glyph unicode="&#xd9;" horiz-adv-x="1378" d="M203 516l127 903q4 15 14 15h10q6 0 9.5 -4.5t1.5 -10.5l-125 -903q-33 -224 66.5 -362t301.5 -138q201 0 341 138.5t171 361.5l127 903q4 15 17 15h10q5 0 8 -4.5t2 -10.5l-127 -903q-35 -243 -180 -389.5t-375 -146.5q-214 0 -323.5 149t-75.5 387zM682 1798l4 6 q6 10 19 6l307 -186q9 -6 4 -14l-4 -8q-8 -12 -19 -7l-309 185q-10 7 -2 18z" />
<glyph unicode="&#xda;" horiz-adv-x="1378" d="M203 516l127 903q4 15 14 15h10q6 0 9.5 -4.5t1.5 -10.5l-125 -903q-33 -224 66.5 -362t301.5 -138q201 0 341 138.5t171 361.5l127 903q4 15 17 15h10q5 0 8 -4.5t2 -10.5l-127 -903q-35 -243 -180 -389.5t-375 -146.5q-214 0 -323.5 149t-75.5 387zM653 1610q-4 8 9 14 l360 186q10 3 16 -6l6 -10q6 -11 -8 -18l-360 -185q-12 -5 -17 6z" />
<glyph unicode="&#xdb;" horiz-adv-x="1378" d="M203 516l127 903q4 15 14 15h10q6 0 9.5 -4.5t1.5 -10.5l-125 -903q-33 -224 66.5 -362t301.5 -138q201 0 341 138.5t171 361.5l127 903q4 15 17 15h10q5 0 8 -4.5t2 -10.5l-127 -903q-35 -243 -180 -389.5t-375 -146.5q-214 0 -323.5 149t-75.5 387zM580.5 1587 q0.5 1 13.5 12l260 209q10 6 16 0l207 -217q9 -9 2 -16l-8 -8q-7 -7 -14 -2l-197 207l-258 -209q-8 -5 -14 2l-6 10q-2 11 -1.5 12z" />
<glyph unicode="&#xdc;" horiz-adv-x="1378" d="M203 516l127 903q4 15 14 15h10q6 0 9.5 -4.5t1.5 -10.5l-125 -903q-33 -224 66.5 -362t301.5 -138q201 0 341 138.5t171 361.5l127 903q4 15 17 15h10q5 0 8 -4.5t2 -10.5l-127 -903q-35 -243 -180 -389.5t-375 -146.5q-214 0 -323.5 149t-75.5 387zM618 1694 q0 21 14.5 35t33.5 14q15 0 24.5 -11t9.5 -26q0 -20 -13.5 -33.5t-33.5 -13.5q-15 0 -25 10.5t-10 24.5zM1001 1694q0 22 13.5 35.5t34.5 13.5q15 0 23.5 -10.5t8.5 -26.5q0 -20 -13 -33.5t-32 -13.5q-15 0 -25 10.5t-10 24.5z" />
<glyph unicode="&#xdd;" horiz-adv-x="1017" d="M119 1409q-8 12 4 18l12 7q9 5 17 -7l372 -690l572 693q8 12 16 6l14 -9q12 -6 0 -18l-585 -704l-97 -693q-3 -12 -14 -12h-12q-13 0 -10 14l96 688zM467 1610q-4 8 8 14l361 186q10 3 16 -6l6 -10q6 -11 -8 -18l-361 -185q-11 -4 -16 6z" />
<glyph unicode="&#xde;" horiz-adv-x="1138" d="M147 14l199 1405q0 6 4.5 10.5t9.5 4.5h11q6 0 9.5 -4.5t2.5 -10.5l-35 -235h363q156 1 259 -117t103 -285q0 -143 -66 -264.5t-179 -192.5t-246 -71h-363l-35 -240q0 -6 -5 -10t-11 -4h-8q-6 0 -10 4t-3 10zM223 289h363q114 0 218 65.5t168 179.5t64 244 q0 155 -94.5 263.5t-236.5 107.5h-361z" />
<glyph unicode="&#xdf;" horiz-adv-x="1071" d="M4 -600l197 1440q85 614 483 614q120 0 199.5 -67.5t79.5 -200.5q0 -63 -23 -126t-55.5 -112t-65 -91t-55.5 -78t-23 -60q0 -20 21 -50t51 -64.5t60.5 -75t51.5 -94.5t21 -109q0 -71 -19.5 -129t-52.5 -97.5t-79 -67t-97.5 -40t-109.5 -12.5q-114 0 -176 43q-10 7 -2 18 l4 6q6 13 16 6q18 -12 64 -24.5t98 -12.5q60 0 115 18t101 53t73.5 95t27.5 137q0 56 -21.5 109t-51.5 92t-60.5 73.5t-52 66t-21.5 55.5q0 29 23 69.5t56 83.5t66 90.5t56 106t23 115.5q0 119 -70.5 178t-177.5 59q-175 0 -288 -145.5t-152 -431.5l-199 -1440q0 -6 -5 -10 t-11 -4h-9q-14 0 -10 14z" />
<glyph unicode="&#xe0;" d="M84 346q0 206 125 350t299 144q156 0 252 -111l12 76q4 14 14 14h9q5 0 8 -4t2 -10l-111 -791q-4 -14 -14 -14h-10q-5 0 -8.5 4t-2.5 10l15 105q-37 -50 -116.5 -94.5t-168.5 -44.5q-138 0 -221.5 104.5t-83.5 261.5zM121 348q0 -143 73 -237.5t195 -94.5q91 0 172 51.5 t121 116.5l70 490q-4 9 -18.5 26.5t-43 42.5t-77 42.5t-105.5 17.5q-162 0 -274.5 -131t-112.5 -324zM416 1350l4 6q6 10 18 6l307 -186q10 -7 5 -15l-5 -8q-7 -11 -18 -6l-309 184q-11 7 -2 19z" />
<glyph unicode="&#xe1;" d="M84 346q0 206 125 350t299 144q156 0 252 -111l12 76q4 14 14 14h9q5 0 8 -4t2 -10l-111 -791q-4 -14 -14 -14h-10q-5 0 -8.5 4t-2.5 10l15 105q-37 -50 -116.5 -94.5t-168.5 -44.5q-138 0 -221.5 104.5t-83.5 261.5zM121 348q0 -143 73 -237.5t195 -94.5q91 0 172 51.5 t121 116.5l70 490q-4 9 -18.5 26.5t-43 42.5t-77 42.5t-105.5 17.5q-162 0 -274.5 -131t-112.5 -324zM383 1163q-4 9 8 15l361 186q10 3 16 -6l6 -10q6 -12 -8 -19l-360 -184q-12 -5 -17 6z" />
<glyph unicode="&#xe2;" d="M84 346q0 206 125 350t299 144q156 0 252 -111l12 76q4 14 14 14h9q5 0 8 -4t2 -10l-111 -791q-4 -14 -14 -14h-10q-5 0 -8.5 4t-2.5 10l15 105q-37 -50 -116.5 -94.5t-168.5 -44.5q-138 0 -221.5 104.5t-83.5 261.5zM121 348q0 -143 73 -237.5t195 -94.5q91 0 172 51.5 t121 116.5l70 490q-4 9 -18.5 26.5t-43 42.5t-77 42.5t-105.5 17.5q-162 0 -274.5 -131t-112.5 -324zM308.5 1141q-0.5 2 0.5 4.5t2 3.5t5.5 4.5t7.5 5.5l260 209q10 6 16 0l207 -217q9 -9 2 -16l-8 -9q-8 -8 -15 -2l-196 207l-258 -209q-8 -5 -15 2l-6 11q-2 4 -2.5 6z" />
<glyph unicode="&#xe3;" d="M84 346q0 206 125 350t299 144q156 0 252 -111l12 76q4 14 14 14h9q5 0 8 -4t2 -10l-111 -791q-4 -14 -14 -14h-10q-5 0 -8.5 4t-2.5 10l15 105q-37 -50 -116.5 -94.5t-168.5 -44.5q-138 0 -221.5 104.5t-83.5 261.5zM121 348q0 -143 73 -237.5t195 -94.5q91 0 172 51.5 t121 116.5l70 490q-4 9 -18.5 26.5t-43 42.5t-77 42.5t-105.5 17.5q-162 0 -274.5 -131t-112.5 -324zM303 1217q9 23 21 44.5t35 54.5t56.5 53t71.5 20q40 0 64 -23t34 -55.5t18.5 -65t27 -55.5t49.5 -23q85 0 143 148q6 15 15 12l14 -4q15 -4 6 -18q-74 -172 -182 -172 q-39 0 -63 23t-35 55.5t-20 64.5t-27 55t-48 23q-28 0 -54 -18t-44.5 -46t-29 -48.5t-17.5 -37.5q-6 -14 -14 -10l-15 4q-12 3 -6 19z" />
<glyph unicode="&#xe4;" d="M84 346q0 206 125 350t299 144q156 0 252 -111l12 76q4 14 14 14h9q5 0 8 -4t2 -10l-111 -791q-4 -14 -14 -14h-10q-5 0 -8.5 4t-2.5 10l15 105q-37 -50 -116.5 -94.5t-168.5 -44.5q-138 0 -221.5 104.5t-83.5 261.5zM121 348q0 -143 73 -237.5t195 -94.5q91 0 172 51.5 t121 116.5l70 490q-4 9 -18.5 26.5t-43 42.5t-77 42.5t-105.5 17.5q-162 0 -274.5 -131t-112.5 -324zM373 1278q0 21 14 35t33 14q15 0 24 -11t9 -26q0 -20 -12.5 -33.5t-32.5 -13.5q-15 0 -25 10.5t-10 24.5zM723 1278q0 20 13 34.5t32 14.5q15 0 25 -11t10 -26 q0 -20 -13.5 -33.5t-33.5 -13.5q-14 0 -23.5 10.5t-9.5 24.5z" />
<glyph unicode="&#xe5;" d="M84 346q0 206 125 350t299 144q156 0 252 -111l12 76q4 14 14 14h9q5 0 8 -4t2 -10l-111 -791q-4 -14 -14 -14h-10q-5 0 -8.5 4t-2.5 10l15 105q-37 -50 -116.5 -94.5t-168.5 -44.5q-138 0 -221.5 104.5t-83.5 261.5zM121 348q0 -143 73 -237.5t195 -94.5q91 0 172 51.5 t121 116.5l70 490q-4 9 -18.5 26.5t-43 42.5t-77 42.5t-105.5 17.5q-162 0 -274.5 -131t-112.5 -324zM389 1206q0 100 67.5 172t157.5 72q71 0 117.5 -53t46.5 -131q0 -100 -67 -171t-156 -71q-73 0 -119.5 52.5t-46.5 129.5zM424 1214q0 -68 35 -112.5t100 -44.5 q72 0 129 60.5t57 142.5q0 65 -37 111t-98 46q-73 0 -129.5 -61t-56.5 -142z" />
<glyph unicode="&#xe6;" horiz-adv-x="1349" d="M51 215q0 141 102.5 231.5t262.5 90.5q104 0 215 -48q16 106 13 176t-43.5 104t-131.5 34q-28 0 -56.5 -3.5t-51 -9t-43 -12t-35.5 -13t-26.5 -12t-17.5 -9.5l-6 -3q-13 -7 -16 4l-4 13q-2 10 6 14q12 8 33.5 19t88 30t134.5 19q92 0 140.5 -32t60.5 -99q121 131 280 131 q129 0 209 -89.5t80 -230.5q0 -61 -10 -94t-25 -33h-555l-32 -248q29 -53 90 -91t129 -38q78 0 146.5 26t111.5 60q6 4 14 -4l8 -10q7 -7 -6 -20q-32 -30 -115.5 -59t-164.5 -29q-77 0 -138.5 36t-101.5 97q-52 -50 -142.5 -91.5t-183.5 -41.5q-98 0 -158.5 64.5 t-60.5 170.5zM86 219q0 -93 53 -148t137 -55q90 0 178.5 42t129.5 89l43 306q-3 1 -21.5 8t-37 12.5t-44 12t-55 10.5t-57.5 4q-143 0 -234.5 -78t-91.5 -203zM662 430h536q10 33 10 90q2 128 -68 205.5t-188 77.5q-165 0 -272 -139q1 -41 -18 -234z" />
<glyph unicode="&#xe7;" horiz-adv-x="907" d="M84 354q0 105 38 196.5t101.5 154.5t146.5 99t173 36q48 0 92.5 -11.5t73 -26t53 -32.5t34 -28t13.5 -15q6 -8 -2 -16l-8 -9q-8 -8 -19 3q-100 100 -237 100q-82 0 -158.5 -34t-135 -92.5t-93.5 -143.5t-35 -181q0 -144 87.5 -241t213.5 -97q46 0 93 14t77.5 29.5 t62 39.5t39.5 31.5t17 16.5t16 3l10 -11q8 -8 0 -16q-9 -9 -17.5 -17t-43 -34t-68 -43.5t-85 -33t-101.5 -15.5q-21 0 -31 2l-12 -93q79 -8 127.5 -47.5t48.5 -111.5q0 -89 -55.5 -150t-141.5 -61q-42 0 -77.5 19.5t-55.5 49.5q-9 14 2 19l11 6q10 8 20 -4q37 -53 107 -53 q65 0 109 49.5t44 118.5q0 63 -48 97t-118 34q-10 0 -10 12l16 119q-119 24 -196.5 126t-77.5 242z" />
<glyph unicode="&#xe8;" horiz-adv-x="888" d="M82 336q0 212 123.5 358t306.5 146q128 0 208.5 -65.5t80.5 -160.5q0 -113 -122.5 -177t-332.5 -62q-103 0 -223 18q-4 -36 -4 -55q-2 -142 72 -232t206 -90q78 0 147.5 27t112.5 61q11 9 17 -2l6 -12q3 -5 -4 -12q-32 -32 -116.5 -65t-162.5 -33q-153 0 -234 100.5 t-81 255.5zM127 428q125 -16 217 -16q195 -1 308.5 53.5t111.5 148.5q0 72 -70.5 130.5t-181.5 58.5q-149 0 -254.5 -106t-130.5 -269zM406 1350l4 6q6 10 18 6l307 -186q10 -6 4 -15l-4 -8q-7 -11 -18 -6l-309 184q-11 7 -2 19z" />
<glyph unicode="&#xe9;" horiz-adv-x="888" d="M82 336q0 212 123.5 358t306.5 146q128 0 208.5 -65.5t80.5 -160.5q0 -113 -122.5 -177t-332.5 -62q-103 0 -223 18q-4 -36 -4 -55q-2 -142 72 -232t206 -90q78 0 147.5 27t112.5 61q11 9 17 -2l6 -12q3 -5 -4 -12q-32 -32 -116.5 -65t-162.5 -33q-153 0 -234 100.5 t-81 255.5zM127 428q125 -16 217 -16q195 -1 308.5 53.5t111.5 148.5q0 72 -70.5 130.5t-181.5 58.5q-149 0 -254.5 -106t-130.5 -269zM375 1163q-4 9 8 15l360 186q11 4 17 -6l6 -10q6 -12 -8 -19l-361 -184q-11 -4 -16 6z" />
<glyph unicode="&#xea;" horiz-adv-x="888" d="M82 336q0 212 123.5 358t306.5 146q128 0 208.5 -65.5t80.5 -160.5q0 -113 -122.5 -177t-332.5 -62q-103 0 -223 18q-4 -36 -4 -55q-2 -142 72 -232t206 -90q78 0 147.5 27t112.5 61q11 9 17 -2l6 -12q3 -5 -4 -12q-32 -32 -116.5 -65t-162.5 -33q-153 0 -234 100.5 t-81 255.5zM127 428q125 -16 217 -16q195 -1 308.5 53.5t111.5 148.5q0 72 -70.5 130.5t-181.5 58.5q-149 0 -254.5 -106t-130.5 -269zM301.5 1147q0.5 1 13.5 12l260 209q10 7 17 0l207 -217q9 -9 2 -16l-8 -9q-8 -8 -15 -2l-196 207l-258 -209q-8 -5 -15 2l-6 11 q-2 11 -1.5 12z" />
<glyph unicode="&#xeb;" horiz-adv-x="888" d="M82 336q0 212 123.5 358t306.5 146q128 0 208.5 -65.5t80.5 -160.5q0 -113 -122.5 -177t-332.5 -62q-103 0 -223 18q-4 -36 -4 -55q-2 -142 72 -232t206 -90q78 0 147.5 27t112.5 61q11 9 17 -2l6 -12q3 -5 -4 -12q-32 -32 -116.5 -65t-162.5 -33q-153 0 -234 100.5 t-81 255.5zM127 428q125 -16 217 -16q195 -1 308.5 53.5t111.5 148.5q0 72 -70.5 130.5t-181.5 58.5q-149 0 -254.5 -106t-130.5 -269zM360 1278q0 21 14.5 35t33.5 14q15 0 23.5 -10.5t8.5 -26.5q0 -20 -12.5 -33.5t-32.5 -13.5q-15 0 -25 10.5t-10 24.5zM711 1278 q0 20 13 34.5t32 14.5q15 0 25 -11t10 -26q0 -20 -14 -33.5t-34 -13.5q-14 0 -23 10.5t-9 24.5z" />
<glyph unicode="&#xec;" horiz-adv-x="362" d="M84 14l113 791q3 14 16 14h8q15 0 12 -14l-112 -791q-3 -14 -17 -14h-8q-6 0 -9.5 4t-2.5 10zM115 1350l4 6q6 10 18 6l307 -186q10 -7 5 -15l-5 -8q-8 -11 -18 -6l-309 184q-11 7 -2 19z" />
<glyph unicode="&#xed;" horiz-adv-x="362" d="M82 1163q-4 9 8 15l361 186q10 3 16 -6l6 -10q6 -12 -8 -19l-361 -184q-11 -4 -16 6zM84 14l113 791q3 14 16 14h8q15 0 12 -14l-112 -791q-3 -14 -17 -14h-8q-6 0 -9.5 4t-2.5 10z" />
<glyph unicode="&#xee;" horiz-adv-x="362" d="M9.5 1141q-0.5 2 0.5 4.5t2 3.5t5.5 4.5t7.5 5.5l260 209q10 6 16 0l207 -217q9 -9 2 -16l-8 -9q-8 -8 -15 -2l-196 207l-258 -209q-8 -5 -15 2l-6 11q-2 4 -2.5 6zM84 14l113 791q3 14 16 14h8q15 0 12 -14l-112 -791q-3 -14 -17 -14h-8q-6 0 -9.5 4t-2.5 10z" />
<glyph unicode="&#xef;" horiz-adv-x="362" d="M70 1278q0 21 14 35t33 14q15 0 24 -11t9 -26q0 -20 -13 -33.5t-33 -13.5q-15 0 -24.5 10.5t-9.5 24.5zM84 14l113 791q3 14 16 14h8q15 0 12 -14l-112 -791q-3 -14 -17 -14h-8q-6 0 -9.5 4t-2.5 10zM420 1278q0 20 13 34.5t32 14.5q15 0 25 -11t10 -26 q0 -20 -13.5 -33.5t-33.5 -13.5q-14 0 -23.5 10.5t-9.5 24.5z" />
<glyph unicode="&#xf0;" horiz-adv-x="1071" d="M84 391q0 113 41 212t107.5 164t150.5 102.5t172 37.5q62 0 117.5 -17t94 -42t72 -59.5t52.5 -63t35 -59.5q10 326 -209 557l-266 -158q-4 -3 -10 -1.5t-7 7.5l-2 6q-8 11 8 19l252 149q-102 99 -235 162q-9 6 -4 16l6 15q3 10 16 6q139 -60 254 -178l137 80q9 6 17 -5 l2 -6q6 -13 -8 -20l-125 -74q93 -100 152 -243.5t59 -315.5q0 -192 -64.5 -351.5t-186 -255t-276.5 -95.5q-151 0 -251.5 119.5t-100.5 291.5zM119 395q0 -158 92.5 -268.5t230.5 -110.5q185 0 314 155t162 394q4 20 4 29q-33 74 -66 118q-118 158 -305 158 q-81 0 -158.5 -34t-138.5 -94t-98 -150.5t-37 -196.5z" />
<glyph unicode="&#xf1;" horiz-adv-x="942" d="M84 14l113 791q3 14 14 14h8q12 0 12 -14l-16 -113q143 148 309 148q146 0 212 -98.5t38 -282.5l-61 -445q-3 -14 -17 -14h-8q-6 0 -9.5 4t-2.5 10l63 445q23 167 -33 255.5t-182 88.5q-48 0 -96.5 -15.5t-83.5 -37t-66 -47t-46.5 -42t-22.5 -26.5l-88 -621 q-3 -14 -17 -14h-8q-6 0 -9.5 4t-2.5 10zM287 1219q9 23 21 44.5t35 54.5t56.5 53t71.5 20q40 0 64 -23t34 -55.5t18.5 -65t27 -55.5t49.5 -23q85 0 143 148q6 15 14 12l15 -4q15 -4 6 -18q-74 -172 -183 -172q-39 0 -63 23t-34.5 55.5t-19.5 64.5t-27 55t-48 23 q-28 0 -54 -18t-44.5 -46t-29 -48.5t-17.5 -37.5q-6 -15 -15 -10l-14 4q-12 3 -6 19z" />
<glyph unicode="&#xf2;" horiz-adv-x="966" d="M82 350q0 200 132.5 345t307.5 145q139 0 228.5 -107t89.5 -262q0 -133 -61.5 -246.5t-162.5 -179t-215 -65.5q-140 0 -229.5 106t-89.5 264zM119 350q0 -143 79.5 -238.5t202.5 -95.5q162 0 282 134.5t120 320.5q0 141 -79.5 236.5t-201.5 95.5q-162 0 -282.5 -134 t-120.5 -319zM426 1350l4 6q6 10 19 6l307 -186q10 -6 4 -15l-4 -8q-8 -12 -19 -6l-309 184q-11 7 -2 19z" />
<glyph unicode="&#xf3;" horiz-adv-x="966" d="M82 350q0 200 132.5 345t307.5 145q139 0 228.5 -107t89.5 -262q0 -133 -61.5 -246.5t-162.5 -179t-215 -65.5q-140 0 -229.5 106t-89.5 264zM119 350q0 -143 79.5 -238.5t202.5 -95.5q162 0 282 134.5t120 320.5q0 141 -79.5 236.5t-201.5 95.5q-162 0 -282.5 -134 t-120.5 -319zM395 1163q-4 9 8 15l361 186q10 3 16 -6l6 -10q6 -12 -8 -19l-360 -184q-12 -5 -17 6z" />
<glyph unicode="&#xf4;" horiz-adv-x="966" d="M82 350q0 200 132.5 345t307.5 145q139 0 228.5 -107t89.5 -262q0 -133 -61.5 -246.5t-162.5 -179t-215 -65.5q-140 0 -229.5 106t-89.5 264zM119 350q0 -143 79.5 -238.5t202.5 -95.5q162 0 282 134.5t120 320.5q0 141 -79.5 236.5t-201.5 95.5q-162 0 -282.5 -134 t-120.5 -319zM320.5 1147q0.5 1 13.5 12l260 209q10 6 16 0l207 -217q9 -9 2 -16l-8 -9q-7 -7 -14 -2l-197 207l-258 -209q-8 -5 -14 2l-6 11q-2 11 -1.5 12z" />
<glyph unicode="&#xf5;" horiz-adv-x="966" d="M82 350q0 200 132.5 345t307.5 145q139 0 228.5 -107t89.5 -262q0 -133 -61.5 -246.5t-162.5 -179t-215 -65.5q-140 0 -229.5 106t-89.5 264zM119 350q0 -143 79.5 -238.5t202.5 -95.5q162 0 282 134.5t120 320.5q0 141 -79.5 236.5t-201.5 95.5q-162 0 -282.5 -134 t-120.5 -319zM313 1217q9 23 21 45t35.5 54.5t57 52.5t71.5 20q40 0 64 -23t33.5 -55.5t18 -65t27 -55.5t49.5 -23q86 0 144 148q6 15 14 12l14 -4q15 -4 6 -18q-74 -172 -182 -172q-39 0 -63 23t-34.5 55.5t-19.5 64.5t-27 55t-48 23q-28 0 -54 -18t-45 -46t-29.5 -48.5 t-17.5 -37.5q-6 -14 -14 -10l-15 4q-12 3 -6 19z" />
<glyph unicode="&#xf6;" horiz-adv-x="966" d="M82 350q0 200 132.5 345t307.5 145q139 0 228.5 -107t89.5 -262q0 -133 -61.5 -246.5t-162.5 -179t-215 -65.5q-140 0 -229.5 106t-89.5 264zM119 350q0 -143 79.5 -238.5t202.5 -95.5q162 0 282 134.5t120 320.5q0 141 -79.5 236.5t-201.5 95.5q-162 0 -282.5 -134 t-120.5 -319zM381 1278q0 21 14 35t33 14q15 0 24 -11t9 -26q0 -20 -12.5 -33.5t-32.5 -13.5q-15 0 -25 10.5t-10 24.5zM731 1278q0 20 13 34.5t32 14.5q15 0 25 -11t10 -26q0 -20 -13.5 -33.5t-33.5 -13.5q-14 0 -23.5 10.5t-9.5 24.5z" />
<glyph unicode="&#xf7;" horiz-adv-x="1357" d="M326 711l2 8q4 14 14 14h719q5 0 8 -4t2 -10l-2 -8q-4 -15 -14 -15h-719q-5 0 -8 4.5t-2 10.5zM608 428q3 20 17.5 33.5t31.5 13.5q20 0 31 -13.5t8 -33.5q-3 -21 -17 -35t-34 -14q-17 0 -28.5 14.5t-8.5 34.5zM688 1001q3 20 17.5 34t31.5 14q20 0 31 -14t8 -34 q-3 -21 -17 -35t-34 -14q-17 0 -28.5 14.5t-8.5 34.5z" />
<glyph unicode="&#xf8;" horiz-adv-x="966" d="M80 88q-6 11 4 21l47 41q-47 89 -47 192q0 135 57 249t158.5 181.5t224.5 67.5q154 0 248 -140l57 52q13 9 19 0l4 -7q6 -12 -2 -20l-59 -53q51 -94 51 -205q0 -206 -125.5 -346.5t-313.5 -140.5q-76 0 -144 37t-109 102l-48 -39q-10 -10 -18 2zM119 348q0 -97 41 -174 l583 504q-37 59 -95.5 92t-129.5 33q-158 0 -278.5 -135.5t-120.5 -319.5zM178 145q37 -61 97 -95t133 -34q160 0 278.5 130t118.5 317q0 108 -41 188z" />
<glyph unicode="&#xf9;" horiz-adv-x="925" d="M123 356l63 449q4 14 15 14h10q13 0 10 -14l-61 -449q-25 -166 31.5 -253t183.5 -87q59 0 115 22.5t94.5 56t58.5 55t29 34.5l88 621q4 14 14 14h10q5 0 8.5 -4t2.5 -10l-111 -791q-4 -14 -16 -14h-9q-5 0 -8 4t-2 10l15 109q-48 -56 -122.5 -99.5t-166.5 -43.5 q-150 0 -214 95.5t-38 280.5zM385 1350l4 6q6 10 19 6l307 -186q10 -6 4 -15l-4 -8q-8 -12 -19 -6l-309 184q-11 7 -2 19z" />
<glyph unicode="&#xfa;" horiz-adv-x="925" d="M123 356l63 449q4 14 15 14h10q13 0 10 -14l-61 -449q-25 -166 31.5 -253t183.5 -87q59 0 115 22.5t94.5 56t58.5 55t29 34.5l88 621q4 14 14 14h10q5 0 8.5 -4t2.5 -10l-111 -791q-4 -14 -16 -14h-9q-5 0 -8 4t-2 10l15 109q-48 -56 -122.5 -99.5t-166.5 -43.5 q-150 0 -214 95.5t-38 280.5zM354 1163q-4 9 8 15l361 186q10 3 16 -6l6 -10q6 -12 -8 -19l-360 -184q-12 -5 -17 6z" />
<glyph unicode="&#xfb;" horiz-adv-x="925" d="M123 356l63 449q4 14 15 14h10q13 0 10 -14l-61 -449q-25 -166 31.5 -253t183.5 -87q59 0 115 22.5t94.5 56t58.5 55t29 34.5l88 621q4 14 14 14h10q5 0 8.5 -4t2.5 -10l-111 -791q-4 -14 -16 -14h-9q-5 0 -8 4t-2 10l15 109q-48 -56 -122.5 -99.5t-166.5 -43.5 q-150 0 -214 95.5t-38 280.5zM281.5 1147q0.5 1 13.5 12l260 209q10 6 16 0l207 -217q9 -9 2 -16l-8 -9q-7 -7 -14 -2l-197 207l-258 -209q-8 -5 -14 2l-6 11q-2 11 -1.5 12z" />
<glyph unicode="&#xfc;" horiz-adv-x="925" d="M123 356l63 449q4 14 15 14h10q13 0 10 -14l-61 -449q-25 -166 31.5 -253t183.5 -87q59 0 115 22.5t94.5 56t58.5 55t29 34.5l88 621q4 14 14 14h10q5 0 8.5 -4t2.5 -10l-111 -791q-4 -14 -16 -14h-9q-5 0 -8 4t-2 10l15 109q-48 -56 -122.5 -99.5t-166.5 -43.5 q-150 0 -214 95.5t-38 280.5zM338 1278q0 21 14 35t33 14q15 0 24 -11t9 -26q0 -20 -12.5 -33.5t-32.5 -13.5q-15 0 -25 10.5t-10 24.5zM688 1278q0 20 13 34.5t32 14.5q15 0 25 -11t10 -26q0 -20 -13.5 -33.5t-33.5 -13.5q-14 0 -23.5 10.5t-9.5 24.5z" />
<glyph unicode="&#xfd;" horiz-adv-x="798" d="M-39 -600l346 618l-246 791q-3 13 7 16l10 4q11 6 16 -8l234 -766l434 770q5 10 14 6l10 -6q8 -5 2 -16l-798 -1425q-7 -14 -17 -7l-10 7q-9 4 -2 16zM297 1163q-4 9 8 15l361 186q10 3 16 -6l6 -10q6 -12 -8 -19l-361 -184q-11 -4 -16 6z" />
<glyph unicode="&#xfe;" horiz-adv-x="937" d="M0 -600l285 2019q4 15 14 15h8q12 0 12 -15l-98 -694q126 115 283 115q137 0 221 -105t84 -262q0 -214 -122 -353.5t-322 -139.5q-145 0 -234 104l-96 -684q0 -6 -5 -10t-10 -4h-10q-10 0 -10 14zM139 139q4 -10 17.5 -26t39.5 -40t72 -40.5t101 -16.5q172 0 288.5 130 t116.5 323q0 142 -76 238t-198 96q-57 0 -111 -17.5t-90.5 -43t-56.5 -43t-29 -29.5z" />
<glyph unicode="&#xff;" horiz-adv-x="798" d="M-39 -600l346 618l-246 791q-3 13 7 16l10 4q11 6 16 -8l234 -766l434 770q5 10 14 6l10 -6q8 -5 2 -16l-798 -1425q-7 -14 -17 -7l-10 7q-9 4 -2 16zM281 1278q0 21 14 35t33 14q15 0 23.5 -10.5t8.5 -26.5q0 -20 -12.5 -33.5t-32.5 -13.5q-15 0 -24.5 10.5t-9.5 24.5z M631 1278q0 20 13 34.5t32 14.5q15 0 25 -11t10 -26q0 -20 -13.5 -33.5t-33.5 -13.5q-14 0 -23.5 10.5t-9.5 24.5z" />
<glyph unicode="&#x152;" horiz-adv-x="1859" d="M145 614q0 170 64.5 326.5t170.5 268.5t248 178.5t292 66.5q73 0 151 -20h744q14 0 10 -15l-2 -8q-3 -14 -13 -14h-727l-88 -633h637q5 0 8 -4t2 -10l-2 -9q-4 -14 -14 -14h-637l-96 -690h725q6 0 9.5 -4t2.5 -10l-2 -9q-4 -14 -14 -14h-742q-82 -20 -161 -20 q-164 0 -294 84.5t-201 229t-71 320.5zM180 618q0 -167 68 -304.5t191.5 -217.5t277.5 -80q70 0 137 17l193 1368q-69 16 -132 16q-142 0 -277 -63.5t-235.5 -170t-161.5 -255t-61 -310.5z" />
<glyph unicode="&#x153;" horiz-adv-x="1484" d="M82 352q0 133 61.5 246t162.5 177.5t214 64.5q86 0 155.5 -45t112.5 -121q125 166 328 166q121 0 202 -64t81 -162q0 -60 -38.5 -107.5t-102 -74.5t-146 -43t-170.5 -15.5t-176 9.5l-29 -201q30 -73 97.5 -119.5t152.5 -46.5q78 0 147.5 27t112.5 61q11 9 17 -2l6 -12 q3 -5 -4 -12q-32 -32 -116.5 -65t-162.5 -33q-93 0 -164.5 44.5t-109.5 118.5q-63 -77 -144 -120t-170 -43q-139 0 -228 106.5t-89 265.5zM119 352q0 -143 79 -239.5t201 -96.5q83 0 164.5 47.5t138.5 120.5l64 449q-37 73 -104 121.5t-142 48.5q-105 0 -197.5 -60.5 t-148 -165t-55.5 -225.5zM772 418q79 -8 160.5 -9.5t158.5 13t137.5 37.5t97 63.5t36.5 91.5q0 75 -70.5 132t-175.5 57q-96 0 -178 -46.5t-137 -123.5z" />
<glyph unicode="&#x178;" horiz-adv-x="1017" d="M119 1409q-8 12 4 18l12 7q9 5 17 -7l372 -690l572 693q8 12 16 6l14 -9q12 -6 0 -18l-585 -704l-97 -693q-3 -12 -14 -12h-12q-13 0 -10 14l96 688zM434 1694q0 21 14 35t33 14q15 0 25 -11t10 -26q0 -20 -13.5 -33.5t-33.5 -13.5q-15 0 -25 10.5t-10 24.5zM817 1694 q0 22 13.5 35.5t33.5 13.5q15 0 24 -11t9 -26q0 -20 -13 -33.5t-32 -13.5q-15 0 -25 10.5t-10 24.5z" />
<glyph unicode="&#x2c6;" horiz-adv-x="688" d="M127.5 1147q0.5 1 13.5 12l260 209q10 7 17 0l207 -217q9 -9 2 -16l-9 -9q-7 -7 -14 -2l-196 207l-258 -209q-8 -5 -15 2l-6 11q-2 11 -1.5 12z" />
<glyph unicode="&#x2dc;" horiz-adv-x="700" d="M109 1217q9 23 21 44.5t35 54.5t56.5 53t71.5 20q40 0 64 -23t33.5 -55.5t18 -65t27 -55.5t49.5 -23q86 0 144 148q6 15 14 12l14 -4q15 -4 7 -18q-74 -172 -183 -172q-39 0 -63 23t-34.5 55.5t-19.5 64.5t-27 55t-48 23q-28 0 -54 -18t-45 -46t-29.5 -48.5t-17.5 -37.5 q-6 -14 -14 -10l-14 4q-12 3 -6 19z" />
<glyph unicode="&#x2000;" horiz-adv-x="981" />
<glyph unicode="&#x2001;" horiz-adv-x="1962" />
<glyph unicode="&#x2002;" horiz-adv-x="981" />
<glyph unicode="&#x2003;" horiz-adv-x="1962" />
<glyph unicode="&#x2004;" horiz-adv-x="654" />
<glyph unicode="&#x2005;" horiz-adv-x="490" />
<glyph unicode="&#x2006;" horiz-adv-x="327" />
<glyph unicode="&#x2007;" horiz-adv-x="327" />
<glyph unicode="&#x2008;" horiz-adv-x="245" />
<glyph unicode="&#x2009;" horiz-adv-x="392" />
<glyph unicode="&#x200a;" horiz-adv-x="109" />
<glyph unicode="&#x2010;" horiz-adv-x="1171" d="M336 512l2 8q4 15 14 15h447q5 0 7 -4.5t1 -10.5l-2 -8q-3 -14 -12 -14h-447q-5 0 -8 4t-2 10z" />
<glyph unicode="&#x2011;" horiz-adv-x="1171" d="M336 512l2 8q4 15 14 15h447q5 0 7 -4.5t1 -10.5l-2 -8q-3 -14 -12 -14h-447q-5 0 -8 4t-2 10z" />
<glyph unicode="&#x2012;" horiz-adv-x="1171" d="M336 512l2 8q4 15 14 15h447q5 0 7 -4.5t1 -10.5l-2 -8q-3 -14 -12 -14h-447q-5 0 -8 4t-2 10z" />
<glyph unicode="&#x2013;" horiz-adv-x="1429" d="M330 512l2 8q4 15 14 15h733q6 0 10 -4.5t3 -10.5l-2 -8q-4 -14 -15 -14h-733q-6 0 -9.5 4t-2.5 10z" />
<glyph unicode="&#x2014;" horiz-adv-x="1828" d="M330 512l2 8q4 15 14 15h1133q5 0 9 -4.5t3 -10.5l-2 -8q-3 -14 -16 -14h-1133q-5 0 -8 4t-2 10z" />
<glyph unicode="&#x2018;" horiz-adv-x="348" d="M184 1196q0 51 15 95.5t36.5 72t44 47.5t36.5 28.5t16 8.5q14 7 18 -2l4 -12q4 -14 -8 -19q-4 -2 -11 -6t-26 -19.5t-34 -33.5t-30 -48t-20 -63q-9 -67 6 -117q25 21 41 21t26.5 -12.5t10.5 -28.5q0 -22 -14.5 -36.5t-36.5 -14.5q-28 0 -51 35.5t-23 103.5z" />
<glyph unicode="&#x2019;" horiz-adv-x="348" d="M184 1073q-7 17 6 23q1 0 11.5 6t27.5 20t33 32.5t30.5 48.5t18.5 63q10 76 -6 116q-20 -20 -39 -20q-18 0 -28.5 12.5t-10.5 28.5q0 21 15.5 36t36.5 15q29 0 51 -35.5t22 -103.5q0 -169 -149 -254q-9 -5 -15 4z" />
<glyph unicode="&#x201a;" horiz-adv-x="522" d="M106 -309q-6 15 7 22q1 0 11.5 6t27 20t33 32.5t30.5 48.5t18 63q10 77 -6 117q-20 -20 -39 -20q-18 0 -28 12t-10 28q0 22 15 37t36 15q29 0 51 -36t22 -104q0 -60 -19 -109.5t-47 -78.5t-47.5 -43.5t-32.5 -21.5q-2 -1 -3 -1q-8 -4 -14 5z" />
<glyph unicode="&#x201c;" horiz-adv-x="675" d="M184 1196q0 51 15 95.5t36.5 72t44 47.5t36.5 28.5t16 8.5q16 6 18 -2l4 -12q4 -14 -8 -19q-4 -2 -11 -6t-26 -19.5t-34 -33.5t-30 -48t-20 -63q-10 -73 8 -117q21 21 39 21q16 0 26.5 -12.5t10.5 -28.5q0 -22 -14.5 -36.5t-36.5 -14.5q-28 0 -51 35.5t-23 103.5z M512 1196q0 51 15.5 95.5t36.5 72t44 47.5t37.5 28.5t16.5 8.5q14 7 16 -2l4 -12q7 -13 -8 -19q-4 -2 -11 -6t-26 -19.5t-34 -33.5t-29.5 -48t-18.5 -63q-12 -72 6 -117q21 21 39 21q17 0 28 -12.5t11 -28.5q0 -21 -15 -36t-36 -15q-30 0 -53 35.5t-23 103.5z" />
<glyph unicode="&#x201d;" horiz-adv-x="675" d="M184 1073q-7 17 6 23q1 0 11.5 6t27.5 20t33 32.5t30.5 48.5t18.5 63q10 76 -6 116q-20 -20 -39 -20q-18 0 -28.5 12.5t-10.5 28.5q0 21 15.5 36t36.5 15q29 0 51 -35.5t22 -103.5q0 -169 -149 -254q-9 -5 -15 4zM512 1073q-7 17 6 23q1 0 11.5 6t27.5 20t33 32.5 t30.5 48.5t18.5 63q10 76 -6 116q-20 -20 -39 -20q-18 0 -28.5 12.5t-10.5 28.5q0 21 15 36t36 15q30 0 52 -35.5t22 -103.5q0 -60 -19 -109.5t-47.5 -78.5t-48 -43.5t-32.5 -21.5q-2 -1 -3 -1q-8 -4 -14 4z" />
<glyph unicode="&#x201e;" horiz-adv-x="849" d="M106 -309q-6 15 7 22q1 0 11.5 6t27 20t33 32.5t30.5 48.5t18 63q10 77 -6 117q-20 -20 -39 -20q-18 0 -28 12t-10 28q0 22 15 37t36 15q29 0 51 -36t22 -104q0 -60 -19 -109.5t-47 -78.5t-47.5 -43.5t-32.5 -21.5q-2 -1 -3 -1q-8 -4 -14 5zM434 -309q-6 16 6 22 q1 0 11.5 6t27.5 20t33 32.5t30.5 48.5t18.5 63q10 77 -6 117q-20 -20 -39 -20q-18 0 -28.5 12t-10.5 28q0 22 15.5 37t35.5 15q29 0 51.5 -36t22.5 -104q0 -60 -19 -109.5t-47 -78.5t-47.5 -43.5t-32.5 -21.5q-2 -1 -3 -1q-9 -4 -15 5z" />
<glyph unicode="&#x2022;" horiz-adv-x="653" d="M254 453q0 37 25 63.5t59 26.5q29 0 47 -20t18 -50q0 -35 -26.5 -60.5t-61.5 -25.5q-27 0 -44 19.5t-17 46.5z" />
<glyph unicode="&#x2026;" horiz-adv-x="1150" d="M102 37q0 23 16.5 38t37.5 15q18 0 28.5 -11.5t10.5 -29.5q0 -22 -15.5 -38.5t-38.5 -16.5q-17 0 -28 12.5t-11 30.5zM453 37q0 23 15 38t36 15q18 0 29.5 -11.5t11.5 -29.5q0 -22 -15.5 -38.5t-37.5 -16.5q-17 0 -28 12.5t-11 30.5zM809 37q0 23 15 38t36 15 q18 0 29.5 -11.5t11.5 -29.5q0 -22 -16 -38.5t-39 -16.5q-17 0 -27 12.5t-10 30.5z" />
<glyph unicode="&#x202f;" horiz-adv-x="392" />
<glyph unicode="&#x2039;" horiz-adv-x="466" d="M80 418q-4 6 2 16l272 348q7 10 19 4l8 -6q10 -8 2 -16l-264 -340l166 -342q4 -11 -6 -16l-9 -5q-12 -6 -16 5z" />
<glyph unicode="&#x203a;" horiz-adv-x="462" d="M45 84l262 344l-166 338q-7 10 6 16l9 4q9 6 16 -4l174 -348q3 -9 -2 -16l-272 -352q-12 -12 -19 -5l-6 7q-8 8 -2 16z" />
<glyph unicode="&#x205f;" horiz-adv-x="490" />
<glyph unicode="&#x20ac;" horiz-adv-x="1417" d="M74 559l2 8q3 11 12 11h98q0 122 21 204h-90q-5 0 -8.5 4.5t-2.5 10.5l3 8q3 14 12 14h94q49 178 162 323t269 228.5t323 83.5q133 0 233 -48t187 -142q7 -7 0 -17l-13 -12q-8 -8 -16 0q-80 90 -175 136t-222 46q-157 0 -303.5 -78t-253 -215t-152.5 -305h670q6 0 9.5 -4 t2.5 -10l-2 -8q-4 -15 -16 -15h-674q-23 -92 -21 -204h594q5 0 9 -3.5t3 -9.5l-2 -10q-3 -12 -14 -12h-586q20 -232 169 -379.5t370 -147.5q236 0 451 191q10 10 16 0l8 -12q4 -9 -2 -15q-218 -200 -479 -200q-235 0 -394 158.5t-178 404.5h-104q-13 0 -10 16z" />
<glyph unicode="&#x2122;" horiz-adv-x="1329" d="M129 1411v8q0 6 4.5 10.5t9.5 4.5h414q10 0 10 -15v-8q0 -14 -14 -14h-188l-82 -586q-3 -14 -15 -14h-8q-5 0 -8 4t-2 10l82 586h-193q-10 0 -10 14zM571 813l242 633q3 7 9 9.5t11 0t5 -9.5l88 -576l245 576q3 10 15 10t14 -10l64 -633q0 -14 -11 -16l-18 -4q-5 -2 -7 5 q0 1 -0.5 1.5t-0.5 1.5l-53 553l-246 -570q-4 -10 -15 -10t-12 10l-86 570l-211 -553q-5 -11 -18 -8l-8 4q-10 5 -7 16z" />
<glyph unicode="&#xfb03;" horiz-adv-x="1449" d="M31 -600l194 1382h-110q-6 0 -10 4.5t-3 10.5l2 10q3 12 15 12h112l33 234q26 189 124 285t228 96q58 0 111 -23t79 -45.5t46 -46.5q53 66 121.5 100.5t142.5 34.5q65 0 121 -24t82 -48t43 -49q6 -8 -2 -16l-10 -8q-9 -6 -17 2q-80 108 -217 108q-116 0 -208.5 -90 t-114.5 -252l-37 -258h551q15 0 12 -14l-111 -791q-4 -14 -16 -14h-8q-6 0 -10 4t-3 10l109 768h-528l-195 -1382q-3 -14 -16 -14h-6q-6 0 -10 4t-3 10l195 1382h-457l-192 -1382q-4 -14 -17 -14h-8q-15 0 -12 14zM266 819h457l35 258q14 117 71 209q-27 39 -84.5 75 t-128.5 36q-57 0 -107.5 -20t-93.5 -60.5t-73.5 -108t-42.5 -155.5z" />
<glyph unicode="&#xfb04;" horiz-adv-x="1460" d="M31 -600l194 1382h-110q-6 0 -10 4.5t-3 10.5l2 10q3 12 15 12h112l33 234q28 191 124.5 286t234.5 95q124 0 223 -111q102 131 268 131q152 0 256 -115l10 80q4 15 17 15h8q6 0 9.5 -4.5t2.5 -10.5l-198 -1405q-3 -14 -15 -14h-10q-5 0 -8 4t-2 10l178 1276 q-106 127 -248 127q-116 0 -206.5 -81t-112.5 -238l-39 -279h331q14 0 11 -12l-4 -14q-4 -11 -13 -11h-331l-193 -1382q-3 -14 -18 -14h-7q-5 0 -8 4t-2 10l193 1382h-455l-192 -1382q-4 -14 -17 -14h-8q-15 0 -12 14zM266 819h455l39 279q15 114 61 190q-28 41 -82.5 75 t-115.5 34q-126 0 -212.5 -85t-111.5 -259z" />
</font>
</defs>
</svg>
