<svg xmlns="http://www.w3.org/2000/svg" width="20" height="32"><path fill="#533016" d="M18 9.084v8.916c0 .553-.447 1.001-1 1.001h-14c-.552 0-1-.448-1-1.001v-8.916h16z"/><path fill="#EFC75E" d="M0 26.667c0-5.891 4.477-11.667 10-11.667 5.522 0 10 5.776 10 11.667v1.777c0 1.963-1.628 3.556-3.637 3.556h-12.726c-2.009 0-3.637-1.593-3.637-3.556v-1.777z"/><path fill="#E2574C" d="M9.998 23.534c-1.034-2.424-3.973-1.858-3.993.955-.01 1.545 1.4 2.123 2.339 2.74.911.6 1.559 1.419 1.66 1.768.087-.342.808-1.186 1.652-1.784.922-.656 2.35-1.195 2.338-2.74-.019-2.821-3.01-3.266-3.996-.939z"/><path fill="#CC9175" d="M10 1c4.418 0 8 3.582 8 8s-3.582 8-8 8-8-3.583-8-8c0-4.418 3.582-8 8-8z"/><path fill="#533016" d="M8.686.106l-.216.03-.536.118-.209.049-.394.123-.388.132-.143.058c-2.456 1.007-4.262 3.211-4.693 6.286.555.057 1.121.098 1.705.098 2.935 0 5.559-.728 7.312-1.871 1.646 1.073 4.062 1.771 6.778 1.854-.57-4.35-3.885-6.983-7.902-6.983-.263 0-.523.013-.78.036l-.534.07z"/><path fill="#88542D" d="M13 8c-.553 0-1 .448-1 1s.447 1 1 1 1-.448 1-1-.447-1-1-1zm-5 1c0-.552-.448-1-1-1s-1 .448-1 1 .448 1 1 1 1-.447 1-1zm4.607 3.032c-.216 0-.394.195-.421.448-.038.059-.158.185-.372.304-.248.137-1.564.185-1.814.185s-1.629-.048-1.876-.185c-.215-.119-.304-.276-.342-.335-.027-.253-.205-.449-.42-.449-.234 0-.424.231-.424.516 0 .822 1.06 1.484 3.062 1.484 2.007-.062 3.031-.63 3.031-1.453 0-.284-.189-.515-.424-.515z"/></svg>