<?xml version="1.0" encoding="utf-8"?>
<!-- Generator: Adobe Illustrator 16.2.1, SVG Export Plug-In . SVG Version: 6.00 Build 0)  -->
<!DOCTYPE svg PUBLIC "-//W3C//DTD SVG 1.1//EN" "http://www.w3.org/Graphics/SVG/1.1/DTD/svg11.dtd">
<svg version="1.1" id="Слой_1" xmlns="http://www.w3.org/2000/svg" xmlns:xlink="http://www.w3.org/1999/xlink" x="0px" y="0px"
	 width="32px" height="32px" viewBox="0 0 32 32" enable-background="new 0 0 32 32" xml:space="preserve">
<g>
	<g>
		<path fill="#E4E7E7" d="M16,0.005c-8.836,0-16,7.163-16,15.999s7.164,16,16,16c8.837,0,16-7.164,16-16S24.837,0.005,16,0.005z
			 M16,23.004c-3.866,0-7-3.134-7-7c0-3.865,3.134-7,7-7s7,3.135,7,7C23,19.87,19.866,23.004,16,23.004z"/>
	</g>
	<g>
		<path fill="#E4E7E7" d="M16,0.005c-8.836,0-16,7.163-16,15.999s7.164,16,16,16c8.837,0,16-7.164,16-16S24.837,0.005,16,0.005z
			 M16,23.004c-3.866,0-7-3.134-7-7c0-3.865,3.134-7,7-7s7,3.135,7,7C23,19.87,19.866,23.004,16,23.004z"/>
	</g>
</g>
<path fill="#CDCFCF" d="M16,32C7.16,32,0,24.84,0,16c0-4.64,1.97-8.82,5.13-11.73C2.56,7.11,1,10.87,1,15c0,8.84,7.16,16,16,16
	c4.14,0,7.92-1.57,10.76-4.15C24.84,30.02,20.65,32,16,32z"/>
<path fill="#CDCFCF" d="M23,16c0-3.86-3.13-7-7-7c-1.68,0-3.22,0.59-4.42,1.58C12.86,9.01,14.81,8,17,8c3.87,0,7,3.14,7,7
	c0,2.19-1,4.14-2.58,5.42C22.41,19.22,23,17.68,23,16z"/>
<g>
	<path fill="#E2574C" d="M12.779,9.793C13.744,9.292,14.838,9.004,16,9.004s2.256,0.288,3.221,0.789l1.642-9.031
		C19.328,0.273,17.696,0.005,16,0.005s-3.328,0.269-4.862,0.758L12.779,9.793z"/>
	<path fill="#E2574C" d="M9.789,19.225C9.287,18.26,9,17.166,9,16.004s0.288-2.255,0.789-3.22l-9.031-1.642
		C0.269,12.676,0,14.308,0,16.004s0.269,3.328,0.758,4.862L9.789,19.225z"/>
	<path fill="#E2574C" d="M22.211,12.784C22.712,13.749,23,14.842,23,16.004s-0.287,2.256-0.789,3.221l9.031,1.642
		C31.731,19.332,32,17.7,32,16.004s-0.269-3.328-0.758-4.862L22.211,12.784z"/>
	<path fill="#E2574C" d="M19.221,22.215c-0.965,0.502-2.059,0.789-3.221,0.789s-2.256-0.287-3.221-0.789l-1.642,9.031
		c1.534,0.489,3.166,0.758,4.862,0.758s3.328-0.269,4.862-0.758L19.221,22.215z"/>
</g>
<path fill="#CDCFCF" d="M16,32C7.16,32,0,24.84,0,16c0-4.64,1.97-8.82,5.13-11.73C2.56,7.11,1,10.87,1,15c0,8.84,7.16,16,16,16
	c4.14,0,7.92-1.57,10.76-4.15C24.84,30.02,20.65,32,16,32z"/>
<path fill="#CB4E44" d="M19.464,8.455C18.697,8.166,17.869,8,17,8c-1.615,0-3.098,0.552-4.279,1.471l0.059,0.322
	c0.233-0.121,0.475-0.229,0.723-0.324c0.129-0.049,0.263-0.085,0.396-0.127c0.213-0.068,0.428-0.127,0.648-0.174
	c0.137-0.029,0.271-0.055,0.41-0.076c0.293-0.044,0.59-0.072,0.894-0.078C15.9,9.012,15.948,9,16,9c0.287,0,0.568,0.022,0.846,0.056
	c0.016,0.001,0.03,0.005,0.046,0.007c0.259,0.033,0.513,0.081,0.762,0.142c0.023,0.006,0.047,0.012,0.07,0.018
	c0.254,0.064,0.502,0.142,0.745,0.234c0.003,0.001,0.006,0.002,0.009,0.003c0.255,0.097,0.504,0.205,0.744,0.33L19.464,8.455z"/>
<path fill="#CB4E44" d="M22.531,13.498c0.011,0.028,0.021,0.057,0.03,0.084c0.078,0.212,0.146,0.428,0.204,0.648
	c0.014,0.054,0.028,0.107,0.041,0.161c0.048,0.204,0.086,0.411,0.116,0.622c0.009,0.061,0.021,0.12,0.027,0.181
	C22.98,15.459,23,15.728,23,16c0,0,0,0.001,0,0.001c0,0.001,0,0.001,0,0.002c0,0.372-0.039,0.732-0.096,1.088
	c-0.016,0.103-0.036,0.203-0.057,0.304c-0.058,0.281-0.131,0.557-0.221,0.825c-0.024,0.072-0.043,0.148-0.069,0.22
	c-0.101,0.27-0.216,0.531-0.347,0.784l0.32,0.059C23.452,18.101,24,16.617,24,15c0-0.866-0.165-1.693-0.453-2.459l-1.334,0.242
	C22.332,13.014,22.438,13.253,22.531,13.498z"/>
<path fill="#CB4E44" d="M2.039,20.634C1.378,18.879,1,16.986,1,15c0-1.288,0.168-2.533,0.454-3.732l-0.696-0.126
	c-0.021,0.069-0.037,0.141-0.059,0.209c-0.105,0.351-0.205,0.704-0.287,1.064c-0.045,0.197-0.08,0.397-0.118,0.597
	c-0.059,0.314-0.111,0.631-0.151,0.951c-0.023,0.174-0.046,0.349-0.062,0.524c-0.047,0.495-0.079,0.994-0.079,1.501
	C0.001,15.993,0,15.997,0,16.002c0,0.496,0.03,0.985,0.074,1.47c0.016,0.165,0.038,0.328,0.059,0.491
	c0.038,0.315,0.086,0.628,0.143,0.937c0.035,0.192,0.071,0.384,0.113,0.574c0.064,0.289,0.141,0.574,0.221,0.857
	c0.05,0.177,0.092,0.356,0.147,0.53c0,0.002,0.001,0.003,0.001,0.005L2.039,20.634z"/>
<path fill="#CB4E44" d="M20.734,30.545C19.534,30.832,18.288,31,17,31c-1.984,0-3.876-0.378-5.629-1.037l-0.232,1.28
	c0.011,0.004,0.021,0.009,0.032,0.012c0.119,0.038,0.243,0.066,0.363,0.102c0.345,0.1,0.692,0.191,1.045,0.269
	c0.149,0.033,0.301,0.061,0.452,0.089c0.364,0.068,0.733,0.126,1.106,0.169c0.113,0.014,0.226,0.029,0.34,0.04
	C14.979,31.971,15.486,32,16,32c0.535,0,1.062-0.033,1.583-0.084c0.118-0.012,0.233-0.027,0.351-0.041
	c0.402-0.049,0.8-0.114,1.192-0.191c0.132-0.026,0.266-0.049,0.396-0.079c0.454-0.102,0.9-0.223,1.339-0.362L20.734,30.545z"/>
</svg>
