<svg xmlns="http://www.w3.org/2000/svg" width="32" height="29.721"><path fill="#BDC2C5" d="M13.501 5.864l3.002-3.91 3.009 3.91h2.488l-4.083-5.31c-.754-.739-2.073-.739-2.827 0l-.092.103-3.998 5.207h2.501z"/><path fill="#F5BB69" d="M2 5.721h28c1.104 0 2 .896 2 2v20c0 1.105-.896 2-2 2h-28c-1.104 0-2-.895-2-2v-20c0-1.106.896-2 2-2z"/><path fill="#37A18E" d="M4 7.721h24c1.104 0 2 .896 2 2v16c0 1.105-.896 2-2 2h-24c-1.104 0-2-.895-2-2v-16c0-1.106.896-2 2-2z"/><path fill="#E4E7E7" d="M10.787 18.68c.584-.604 1.222-1.26 1.222-2.471 0-1.463-1.232-2.473-2.485-2.473-1.337 0-2.517.819-2.517 2.793 0 .262.073.354.282.354h.919c.219 0 .271-.131.271-.332 0-.688.49-1.213 1.055-1.213.501 0 .888.263.888.881 0 .617-.658 1.261-1.326 1.914-1.013.974-1.9 1.865-1.9 1.865-.094.084-.188.238-.188.5v.879c0 .273.042.347.282.347h4.322c.24 0 .303-.132.303-.347v-.975c0-.215-.062-.346-.303-.346h-2.204c0 .004.763-.744 1.379-1.376zm7.824-1.834h-1.744v-1.735c0-.232-.077-.375-.374-.375h-1.008c-.297 0-.374.143-.374.375v1.735h-1.73c-.232 0-.375.078-.375.375v1.011c0 .299.143.375.375.375h1.73v1.735c0 .232.077.375.374.375h1.008c.297 0 .374-.143.374-.375v-1.735h1.744c.231 0 .373-.076.373-.375v-1.011c0-.297-.14-.375-.373-.375zm6.002 3.216h-2.203s.763-.75 1.379-1.382c.584-.604 1.223-1.26 1.223-2.473 0-1.461-1.232-2.471-2.486-2.471-1.336 0-2.517.817-2.517 2.793 0 .262.073.356.282.356h.919c.22 0 .271-.133.271-.334 0-.688.49-1.213 1.056-1.213.501 0 .887.263.887.881 0 .617-.657 1.261-1.325 1.912-1.014.978-1.9 1.867-1.9 1.867-.094.084-.188.238-.188.5v.879c0 .273.042.347.282.347h4.321c.24 0 .304-.132.304-.347v-.975c-.002-.209-.064-.34-.305-.34z"/></svg>