<?xml version="1.0" encoding="utf-8"?>
<!-- Generator: Adobe Illustrator 19.0.0, SVG Export Plug-In . SVG Version: 6.00 Build 0)  -->
<svg version="1.1" id="Layer_1" xmlns="http://www.w3.org/2000/svg" xmlns:xlink="http://www.w3.org/1999/xlink" x="0px" y="0px"
	 viewBox="-189.1 228 81.1 46" style="enable-background:new -189.1 228 81.1 46;" xml:space="preserve">
<style type="text/css">
	.st0{fill:#2B414D;}
	.st1{fill:#475F6C;}
	.st2{fill:#455E6B;}
	.st3{fill:#4B6370;}
</style>
<path class="st0" d="M-180,262h-2c-0.1,5.7-1,8-1,8l6,1C-177,271-180,267.3-180,262z M-180,247h-2v14h2V247z M-180,262h-2
	c-0.1,5.7-1,8-1,8l6,1C-177,271-180,267.3-180,262z M-180,247h-2v14h2V247z"/>
<path class="st1" d="M-181,259c1.7,0,3,1.3,3,3c0,1.7-1.3,3-3,3s-3-1.3-3-3C-184,260.3-182.7,259-181,259z"/>
<path class="st0" d="M-189.1,245.9l38-17.5c1.2-0.6,3.1-0.6,4.2,0l38,17.5c1.2,0.6,1.2,1.5,0,2.1l-38,17.5c-1.2,0.6-3.1,0.6-4.2,0
	l-38-17.5C-190.3,247.5-190.3,246.5-189.1,245.9z M-149,256c11.5,0,20.8,4,20.8,9c0,5-9.3,9-20.8,9c-11.5,0-20.8-4-20.8-9
	C-169.8,260-160.5,256-149,256z"/>
<path class="st2" d="M-149,256c11.5,0,20.8,4,20.8,9v0l0,0.1L-130,251c0-4.4-8.5-8-19-8c-10.5,0-19,3.6-19,8h0l-1.7,13.1
	C-168.6,259.5-159.7,256-149,256z"/>
<path class="st3" d="M-128.2,265L-128.2,265l-1.8-14c0-4.4-8.5-8-19-8v13C-137.5,256-128.2,260-128.2,265z"/>
</svg>
