<?xml version="1.0" encoding="utf-8"?>
<!-- Generator: Adobe Illustrator 18.1.0, SVG Export Plug-In . SVG Version: 6.00 Build 0)  -->
<!DOCTYPE svg PUBLIC "-//W3C//DTD SVG 1.1//EN" "http://www.w3.org/Graphics/SVG/1.1/DTD/svg11.dtd">
<svg version="1.1" id="Layer_1" xmlns="http://www.w3.org/2000/svg" xmlns:xlink="http://www.w3.org/1999/xlink" x="0px" y="0px"
	 width="84px" height="84px" viewBox="0 0 84 84" enable-background="new 0 0 84 84" xml:space="preserve">
<g>
	<g>
		<g>
			<rect x="4.3" y="56.5" fill="#E0E0E0" width="75.5" height="22.7"/>
		</g>
		<g>
			<rect x="4.3" y="30.1" fill="#E0E0E0" width="75.5" height="22.7"/>
		</g>
		<g>
			<rect x="4.3" y="3.8" fill="#E0E0E0" width="75.5" height="22.7"/>
		</g>
	</g>
	<g>
		<g>
			<g>
				<g>
					<rect x="12.8" y="66.1" fill="#FFFFFF" width="42.2" height="4"/>
				</g>
			</g>
		</g>
		<g>
			<g>
				<g>
					<rect x="12.8" y="39.7" fill="#FFFFFF" width="42.2" height="4"/>
				</g>
			</g>
		</g>
		<g>
			<g>
				<g>
					<path fill="none" stroke="#FFFFFF" stroke-width="4" stroke-miterlimit="10" d="M12.8,19.9"/>
					<path fill="none" stroke="#FFFFFF" stroke-width="4" stroke-miterlimit="10" d="M55,19.9"/>
				</g>
				<g>
					<path fill="none" stroke="#FFFFFF" stroke-width="4" stroke-miterlimit="10" d="M12.8,15.1"/>
					<path fill="none" stroke="#FFFFFF" stroke-width="4" stroke-miterlimit="10" d="M55,15.1"/>
				</g>
				<g>
					<rect x="12.8" y="13.4" fill="#FFFFFF" width="42.2" height="4"/>
				</g>
			</g>
		</g>
	</g>
	<g>
		<g>
			<path fill="#B5A0CC" d="M70.8,70.6c-1.5,0-2.8-1.2-2.8-2.8c0-1.5,1.2-2.8,2.8-2.8c1.5,0,2.8,1.2,2.8,2.8
				C73.6,69.3,72.3,70.6,70.8,70.6z"/>
			<path fill="#FFFFFF" d="M70.8,65.7c1.1,0,2,0.9,2,2c0,1.1-0.9,2-2,2c-1.1,0-2-0.9-2-2C68.7,66.7,69.6,65.7,70.8,65.7 M70.8,64.3
				c-1.9,0-3.5,1.6-3.5,3.5c0,1.9,1.6,3.5,3.5,3.5c1.9,0,3.5-1.6,3.5-3.5C74.3,65.9,72.7,64.3,70.8,64.3L70.8,64.3z"/>
		</g>
		<g>
			<path fill="#B5A0CC" d="M70.8,44.2c-1.5,0-2.8-1.2-2.8-2.8c0-1.5,1.2-2.8,2.8-2.8c1.5,0,2.8,1.2,2.8,2.8
				C73.6,43,72.3,44.2,70.8,44.2z"/>
			<path fill="#FFFFFF" d="M70.8,39.4c1.1,0,2,0.9,2,2c0,1.1-0.9,2-2,2c-1.1,0-2-0.9-2-2C68.7,40.3,69.6,39.4,70.8,39.4 M70.8,37.9
				c-1.9,0-3.5,1.6-3.5,3.5c0,1.9,1.6,3.5,3.5,3.5c1.9,0,3.5-1.6,3.5-3.5C74.3,39.5,72.7,37.9,70.8,37.9L70.8,37.9z"/>
		</g>
		<g>
			<path fill="#B5A0CC" d="M70.8,17.9c-1.5,0-2.8-1.2-2.8-2.8s1.2-2.8,2.8-2.8c1.5,0,2.8,1.2,2.8,2.8S72.3,17.9,70.8,17.9z"/>
			<path fill="#FFFFFF" d="M70.8,13.1c1.1,0,2,0.9,2,2s-0.9,2-2,2c-1.1,0-2-0.9-2-2S69.6,13.1,70.8,13.1 M70.8,11.6
				c-1.9,0-3.5,1.6-3.5,3.5s1.6,3.5,3.5,3.5c1.9,0,3.5-1.6,3.5-3.5S72.7,11.6,70.8,11.6L70.8,11.6z"/>
		</g>
	</g>
</g>
</svg>
