<!DOCTYPE svg PUBLIC "-//W3C//DTD SVG 1.1//EN" "http://www.w3.org/Graphics/SVG/1.1/DTD/svg11.dtd">
<svg version="1.1" id="Layer_1" xmlns="http://www.w3.org/2000/svg" xmlns:xlink="http://www.w3.org/1999/xlink" x="0px" y="0px"
width="84px" height="84px" viewBox="0 0 84 84" enable-background="new 0 0 84 84" xml:space="preserve">
<g>
  <path fill="#D9D9D9" d="M21.8,11.8h-1H1V78h19.8h1H83V11.8H21.8z"/>
  <path fill="#E0E0E0" d="M1,11.8V6.1c0-0.7,0.5-1.2,1.2-1.2h79.5c0.7,0,1.2,0.5,1.2,1.2v5.7H1z"/>
  <circle fill="#FFFFFF" cx="5.3" cy="8.2" r="1.3"/>
  <circle fill="#FFFFFF" cx="10.3" cy="8.2" r="1.3"/>
  <circle fill="#FFFFFF" cx="15.2" cy="8.2" r="1.3"/>
  <rect x="23.9" y="14.8" fill="#F5F5F5" width="56.1" height="60.2"/>
  <rect  class="mid-highlight-fill" x="29.1" y="20.5" fill="#AE98C8" width="39.9" height="2.2"/>
  <g>
    <rect class="light-highlight-fill" x="29.1" y="31.1" fill="#C2B1D7" width="23.9" height="2.2"/>
    <rect class="mid-highlight-fill" x="54.9" y="31.1" fill="#9D80B9" width="6.7" height="2.2"/>
  </g>
  <rect class="light-highlight-fill"  x="29.1" y="41.8" fill="#C2B1D7" width="44.4" height="2.2"/>
  <rect class="mid-highlight-fill" x="29.1" y="52.4" fill="#9D80B9" width="32.1" height="2.2"/>
  <rect  x="4" y="14.8" fill="#F5F5F5" width="14.8" height="60.2"/>
</g>
</svg>
