<svg version="1.1"
     xmlns="http://www.w3.org/2000/svg"
     xmlns:xlink="http://www.w3.org/1999/xlink"
     x="0px" y="0px"
     width="199.1px" height="177.3px"
     viewBox="0 0 199.1 177.3"
     enable-background="new 0 0 199.1 177.3"
     xml:space="preserve"
     class="ide">

  <g class="window">
    <path fill="#E0E0E0" d="M0.3,177.3V2.9C0.3,1.3,1.6,0,3.2,0h192.9c1.6,0,2.9,1.3,2.9,2.9v174.4H0.3z"/>
    <circle fill="#FFFFFF" cx="10.7" cy="8" r="3.1"/>
    <circle fill="#FFFFFF" cx="22.7" cy="8" r="3.1"/>
    <circle fill="#FFFFFF" cx="34.7" cy="8" r="3.1"/>
  </g>
  <g class="dash">
    <g>
      <rect x="50.9" y="19.2" fill="#F5F5F5" width="145.7" height="155.6"/>
      <path fill="#D9D9D9" d="M194.1,21.7v150.6H53.4V21.7H194.1 M199.1,16.7H48.4v160.6h150.7V16.7L199.1,16.7z"/>
    </g>
    <g>
      <rect x="2.8" y="19.2" fill="#F5F5F5" width="45.5" height="155.6"/>
      <path fill="#D9D9D9" d="M45.8,21.7v150.6H5.3V21.7H45.8 M50.8,16.7H0.3v160.6h50.5V16.7L50.8,16.7z"/>
    </g>
  </g>
  <g class="code">
    <line class="mid-highlight-stroke" fill="none" stroke="#AE98C8" stroke-width="3" stroke-miterlimit="10" x1="151.7" y1="40.7" x2="68.3" y2="40.7"/>
    <line class="light-highlight-stroke" fill="none" stroke="#C2B1D7" stroke-width="4" stroke-miterlimit="10" x1="118.2" y1="59.5" x2="68.3" y2="59.5"/>
    <line class="dark-highlight-stroke" fill="none" stroke="#9D80B9" stroke-width="4" stroke-miterlimit="10" x1="136.2" y1="59.5" x2="122.2" y2="59.5"/>
    <line class="light-highlight-stroke" fill="none" stroke="#C2B1D7" stroke-width="4" stroke-miterlimit="10" x1="168.7" y1="78.2" x2="75.9" y2="78.2"/>
    <line class="light-highlight-stroke" fill="none" stroke="#C2B1D7" stroke-width="4" stroke-miterlimit="10" x1="149.9" y1="97" x2="82.8" y2="97"/>
    <line class="dark-highlight-stroke" fill="none" stroke="#9D80B9" stroke-width="4" stroke-miterlimit="10" x1="91.8" y1="115.8" x2="68.3" y2="115.8"/>
    <line class="light-highlight-stroke" fill="none" stroke="#C2B1D7" stroke-width="4" stroke-miterlimit="10" x1="140.8" y1="115.8" x2="98.3" y2="115.8"/>
    <line class="dark-highlight-stroke" fill="none" stroke="#9D80B9" stroke-width="4" stroke-miterlimit="10" x1="94.8" y1="134.5" x2="68.3" y2="134.5"/>
    <line class="light-highlight-stroke" fill="none" stroke="#C2B1D7" stroke-width="4" stroke-miterlimit="10" x1="151.7" y1="134.5" x2="101.7" y2="134.5"/>
  </g>
</svg>
