<?xml version="1.0" encoding="utf-8"?>
<!-- Generator: Adobe Illustrator 18.1.0, SVG Export Plug-In . SVG Version: 6.00 Build 0)  -->
<!DOCTYPE svg PUBLIC "-//W3C//DTD SVG 1.1//EN" "http://www.w3.org/Graphics/SVG/1.1/DTD/svg11.dtd">
<svg version="1.1" id="Layer_1" xmlns="http://www.w3.org/2000/svg" xmlns:xlink="http://www.w3.org/1999/xlink" x="0px" y="0px"
	 width="84px" height="84px" viewBox="0 0 84 84" enable-background="new 0 0 84 84" xml:space="preserve">
<g>
	<g>
		<circle fill="#F2F2F2" cx="41.6" cy="41.4" r="34.6"/>
		<path fill="#D9D9D9" d="M41.6,6.9c19.1,0,34.6,15.5,34.6,34.6S60.6,76,41.6,76S7,60.5,7,41.4S22.5,6.9,41.6,6.9 M41.6-0.1
			C18.6-0.1,0,18.5,0,41.4S18.6,83,41.6,83s41.6-18.6,41.6-41.6S64.5-0.1,41.6-0.1L41.6-0.1z"/>
	</g>
	<g>
		<line fill="#40484C" x1="41.6" y1="37.2" x2="41.6" y2="14.5"/>
		<rect x="40.1" y="14.5" fill="#8762A6" width="3" height="22.6"/>
	</g>
	<rect x="43" y="46.9" transform="matrix(0.7071 0.7071 -0.7071 0.7071 48.385 -20.1023)" fill="#A990C3" width="10.9" height="3"/>
</g>
</svg>
