<?xml version="1.0" encoding="utf-8"?>
<!DOCTYPE svg PUBLIC "-//W3C//DTD SVG 1.1//EN" "http://www.w3.org/Graphics/SVG/1.1/DTD/svg11.dtd">
<svg version="1.1" id="Layer_1" xmlns="http://www.w3.org/2000/svg" xmlns:xlink="http://www.w3.org/1999/xlink" x="0px" y="0px"
	 width="196.1px" height="212.6px" viewBox="0 0 196.1 212.6" enable-background="new 0 0 196.1 212.6" xml:space="preserve">
<g>
	<g>
		<line fill="none" stroke="#E0E0E0" stroke-width="62" stroke-miterlimit="10" x1="1.3" y1="176.5" x2="187.6" y2="176.5"/>
	</g>
	<g>
		<line fill="none" stroke="#E0E0E0" stroke-width="62" stroke-miterlimit="10" x1="1.3" y1="104.5" x2="187.6" y2="104.5"/>
	</g>
	<g>
		<line fill="none" stroke="#E0E0E0" stroke-width="62" stroke-miterlimit="10" x1="1.3" y1="32.5" x2="187.6" y2="32.5"/>
	</g>
</g>
<g>
	<g>
		<g>
			<g>
				<line fill="none" stroke="#FFFFFF" stroke-width="4" stroke-miterlimit="10" x1="120.7" y1="189.5" x2="22.3" y2="189.5"/>
			</g>
			<g>
				<line fill="none" stroke="#FFFFFF" stroke-width="4" stroke-miterlimit="10" x1="120.7" y1="176.5" x2="22.3" y2="176.5"/>
			</g>
			<g>
				<line fill="none" stroke="#FFFFFF" stroke-width="4" stroke-miterlimit="10" x1="120.7" y1="163.5" x2="22.3" y2="163.5"/>
			</g>
		</g>
	</g>
	<g>
		<g>
			<g>
				<line fill="none" stroke="#FFFFFF" stroke-width="4" stroke-miterlimit="10" x1="120.7" y1="117.5" x2="22.3" y2="117.5"/>
			</g>
			<g>
				<line fill="none" stroke="#FFFFFF" stroke-width="4" stroke-miterlimit="10" x1="120.7" y1="104.5" x2="22.3" y2="104.5"/>
			</g>
			<g>
				<line fill="none" stroke="#FFFFFF" stroke-width="4" stroke-miterlimit="10" x1="120.7" y1="91.5" x2="22.3" y2="91.5"/>
			</g>
		</g>
	</g>
	<g>
		<g>
			<g>
				<line fill="none" stroke="#FFFFFF" stroke-width="4" stroke-miterlimit="10" x1="120.7" y1="45.5" x2="22.3" y2="45.5"/>
			</g>
			<g>
				<line fill="none" stroke="#FFFFFF" stroke-width="4" stroke-miterlimit="10" x1="120.7" y1="32.5" x2="22.3" y2="32.5"/>
			</g>
			<g>
				<line fill="none" stroke="#FFFFFF" stroke-width="4" stroke-miterlimit="10" x1="120.7" y1="19.5" x2="22.3" y2="19.5"/>
			</g>
		</g>
	</g>
</g>
<g>
	<g>
		<path fill="#B8A2C5" d="M164,184.1c-4.2,0-7.6-3.4-7.6-7.6s3.4-7.6,7.6-7.6s7.6,3.4,7.6,7.6S168.2,184.1,164,184.1z"/>
		<path fill="#FFFFFF" d="M164,170.9c3.1,0,5.6,2.5,5.6,5.6s-2.5,5.6-5.6,5.6s-5.6-2.5-5.6-5.6S160.9,170.9,164,170.9 M164,166.9
			c-5.3,0-9.6,4.3-9.6,9.6s4.3,9.6,9.6,9.6s9.6-4.3,9.6-9.6S169.3,166.9,164,166.9L164,166.9z"/>
	</g>
	<g>
		<path fill="#B8A2C5" d="M164,112.1c-4.2,0-7.6-3.4-7.6-7.6s3.4-7.6,7.6-7.6s7.6,3.4,7.6,7.6S168.2,112.1,164,112.1z"/>
		<path fill="#FFFFFF" d="M164,98.9c3.1,0,5.6,2.5,5.6,5.6s-2.5,5.6-5.6,5.6s-5.6-2.5-5.6-5.6S160.9,98.9,164,98.9 M164,94.9
			c-5.3,0-9.6,4.3-9.6,9.6s4.3,9.6,9.6,9.6s9.6-4.3,9.6-9.6S169.3,94.9,164,94.9L164,94.9z"/>
	</g>
	<g>
		<path fill="#B8A2C5" d="M164,40.1c-4.2,0-7.6-3.4-7.6-7.6s3.4-7.6,7.6-7.6s7.6,3.4,7.6,7.6S168.2,40.1,164,40.1z"/>
		<path fill="#FFFFFF" d="M164,26.9c3.1,0,5.6,2.5,5.6,5.6s-2.5,5.6-5.6,5.6s-5.6-2.5-5.6-5.6S160.9,26.9,164,26.9 M164,22.9
			c-5.3,0-9.6,4.3-9.6,9.6s4.3,9.6,9.6,9.6s9.6-4.3,9.6-9.6S169.3,22.9,164,22.9L164,22.9z"/>
	</g>
</g>
</svg>
