<svg id="Layer_1" data-name="Layer 1" xmlns="http://www.w3.org/2000/svg" viewBox="0 0 64.47 72.12"><defs><style>.cls-1{fill:#806b64;}.cls-1,.cls-2,.cls-3,.cls-5{fill-rule:evenodd;}.cls-2,.cls-4{fill:#525c6d;}.cls-3{fill:#bcbec0;}.cls-5{fill:#d3d6db;}</style></defs><title>Black_men_icons</title><path class="cls-1" d="M10.84,34.76H8.47a3.66,3.66,0,0,0-3.61,4.32c0.72,3.79,2.35,8.71,6,8.71v-13Z"/><path class="cls-1" d="M53.84,34.76h2.37a3.66,3.66,0,0,1,3.61,4.32c-0.72,3.79-2.35,8.71-6,8.71v-13Z"/><path class="cls-2" d="M10.84,34V33.76H8.47A4.66,4.66,0,0,0,3.8,38.4a4.24,4.24,0,0,0,.08.87,20.92,20.92,0,0,0,2,6.08,7.77,7.77,0,0,0,2,2.41,4.83,4.83,0,0,0,3,1,1,1,0,0,0,1-1v-13a1,1,0,0,0-.3-0.71,1,1,0,0,0-.7-0.29V34h0Zm-1,12.62h0a3.21,3.21,0,0,1-.76-0.43,7.5,7.5,0,0,1-2-3A22.73,22.73,0,0,1,5.84,38.9a2.77,2.77,0,0,1,0-.49,2.65,2.65,0,0,1,.77-1.85,2.68,2.68,0,0,1,1.9-.79H9.84V46.61Z"/><path class="cls-2" d="M53.84,34V33.76h2.37a4.66,4.66,0,0,1,4.67,4.64,4.32,4.32,0,0,1-.08.87,21,21,0,0,1-2,6.08,7.79,7.79,0,0,1-2,2.41,4.83,4.83,0,0,1-3,1,1,1,0,0,1-1-1v-13a1,1,0,0,1,.3-0.71,1,1,0,0,1,.7-0.29V34h0Zm1,12.62h0a3.22,3.22,0,0,0,.76-0.43,7.49,7.49,0,0,0,2-3,22.8,22.8,0,0,0,1.19-4.23,2.76,2.76,0,0,0,0-.49,2.66,2.66,0,0,0-2.67-2.64H54.84V46.61Z"/><path class="cls-1" d="M32.34,9.43c-11.55,0-21.5,9.45-21.5,21V46.5c0,10.69,13.35,22.28,21.5,22.28s21.5-11.59,21.5-22.28V30.42C53.84,18.88,43.88,9.43,32.34,9.43Z"/><path class="cls-2" d="M32.34,9.43v-1a22.77,22.77,0,0,0-15.78,6.45A21.63,21.63,0,0,0,9.84,30.42V46.5A18.13,18.13,0,0,0,12.17,55a32.17,32.17,0,0,0,9.19,10.39,27.16,27.16,0,0,0,5.59,3.21,14.39,14.39,0,0,0,5.39,1.22,16.18,16.18,0,0,0,7.25-2.09A32.8,32.8,0,0,0,50,58.86c2.87-3.72,4.86-8,4.87-12.36V30.42a21.63,21.63,0,0,0-6.73-15.54A22.76,22.76,0,0,0,32.34,8.43v2a20.78,20.78,0,0,1,14.38,5.88,19.66,19.66,0,0,1,6.12,14.11V46.5A16.27,16.27,0,0,1,50.74,54a30.19,30.19,0,0,1-8.62,9.72,25,25,0,0,1-5.16,3,12.42,12.42,0,0,1-4.62,1.06A14.35,14.35,0,0,1,26,65.92a31,31,0,0,1-9.72-8.28c-2.69-3.49-4.45-7.45-4.44-11.14V30.42a19.65,19.65,0,0,1,6.11-14.11,20.78,20.78,0,0,1,14.39-5.88v-1Z"/><path class="cls-3" d="M53.87,20a4.72,4.72,0,0,0-3.67-7.7H50.06a4.73,4.73,0,0,0-6-4.54,4.72,4.72,0,0,0-7.38-2.19,4.72,4.72,0,0,0-4.13-2.42H32.27a4.72,4.72,0,0,0-4.13,2.42,4.72,4.72,0,0,0-7.38,2.19,4.73,4.73,0,0,0-6,4.54H14.59A4.72,4.72,0,0,0,10.93,20a7.91,7.91,0,0,0-.08,1.06c-0.09,10.52,0,20.65,0,31.24,0,12.92,10.19,19.28,21.5,19.28s21.5-6.36,21.5-19.28c0-10.59.14-20.72,0.05-31.24A8.08,8.08,0,0,0,53.87,20ZM49.12,44.76c-1.61,1-3.18,2.32-3.19,4a2.14,2.14,0,0,1-2.29,1.76c-1.32-.38-2.59-1.86-4.57-2.26-1.95-1.26-4.11-.49-6.6-0.49H32.33c-2.49,0-4.65-.77-6.6.49-2,.4-3.25,1.88-4.57,2.26a2.14,2.14,0,0,1-2.29-1.76c0-1.71-1.58-3-3.19-4-2.17-1.41-.78-13.19-0.78-15.44a5.26,5.26,0,0,1,4.7-5.24c3.41-.35,7.71,3.37,12.74,3.37h0.12c5,0,9.33-3.72,12.74-3.37a5.26,5.26,0,0,1,4.7,5.24C49.9,31.56,51.29,43.34,49.12,44.76Z"/><path class="cls-4" d="M51,29.31A6.33,6.33,0,0,0,45.31,23c-1.9-.2-3.86.62-6,1.52a18.21,18.21,0,0,1-6.84,1.84H32.41v0H32.34a18.21,18.21,0,0,1-6.84-1.84c-2.15-.9-4.11-1.71-6-1.52a6.33,6.33,0,0,0-5.65,6.29c0,0.46-.06,1.3-0.13,2.36-0.3,4.46-.85,12.51,1.4,14a10.09,10.09,0,0,1,2,1.59,2.39,2.39,0,0,1,.72,1.55h0a2.22,2.22,0,0,0,.09.61h0A3.11,3.11,0,0,0,19.11,51h0a3.26,3.26,0,0,0,1.79.62h0a2,2,0,0,0,.55-0.08h0a7.5,7.5,0,0,0,2-1,7.33,7.33,0,0,1,2.49-1.2l0.2,0,0.16-.1c1.09-.71,2.42-0.58,3.88-0.45,0.7,0.06,1.43.13,2.15,0.13h0l0-1.06,0,1.06h0c0.71,0,1.44-.07,2.15-0.13,1.46-.13,2.79-0.26,3.89.45l0.16,0.1,0.2,0a7.34,7.34,0,0,1,2.49,1.2,7.51,7.51,0,0,0,2,1h0a2,2,0,0,0,.55.08h0A3.26,3.26,0,0,0,45.69,51h0a3.11,3.11,0,0,0,1.22-1.61h0A2.25,2.25,0,0,0,47,48.78h0a2.38,2.38,0,0,1,.72-1.55,10.1,10.1,0,0,1,2-1.59c2.25-1.46,1.7-9.51,1.4-14C51,30.61,51,29.77,51,29.31ZM20.9,49.51h0Zm23,0h0Zm4.64-5.65a12.12,12.12,0,0,0-2.41,1.94,4.4,4.4,0,0,0-1.26,3h0a0.1,0.1,0,0,1,0,0h0a1,1,0,0,1-.39.46h0a1.21,1.21,0,0,1-.55.24,6.2,6.2,0,0,1-1.41-.77,9.31,9.31,0,0,0-3-1.45c-1.64-1-3.27-.84-5.06-0.67-0.62.06-1.25,0.11-2,.11H32.33c-0.7,0-1.34-.06-2-0.11-1.79-.16-3.42-0.31-5.06.67a9.31,9.31,0,0,0-3,1.45,6.18,6.18,0,0,1-1.41.77,1.2,1.2,0,0,1-.55-0.24h0a1,1,0,0,1-.39-0.46h0a0.16,0.16,0,0,1,0,0h0a4.4,4.4,0,0,0-1.26-3,12.09,12.09,0,0,0-2.41-1.94c-1.2-.78-0.7-8-0.43-12,0.08-1.14.14-2,.14-2.5A4.22,4.22,0,0,1,17,26.49a4.16,4.16,0,0,1,2.67-1.36c1.36-.14,3.09.58,5,1.37a19.86,19.86,0,0,0,7.65,2h0.12a19.85,19.85,0,0,0,7.65-2c1.89-.79,3.62-1.51,5-1.37a4.16,4.16,0,0,1,2.67,1.36,4.22,4.22,0,0,1,1.08,2.82c0,0.47.06,1.37,0.14,2.5C49.25,35.83,49.74,43.09,48.54,43.87Z"/><path class="cls-4" d="M56,17a5.79,5.79,0,0,0-5-5.73,5.77,5.77,0,0,0-1.61-3.09h0a5.77,5.77,0,0,0-4.09-1.7,5.66,5.66,0,0,0-.67,0,5.79,5.79,0,0,0-7-2.74,5.69,5.69,0,0,0-.74.32A5.84,5.84,0,0,0,35.45,2.9a5.77,5.77,0,0,0-2.92-.8H32.27a5.76,5.76,0,0,0-2.92.8,5.84,5.84,0,0,0-1.49,1.25,5.78,5.78,0,0,0-6,.45,5.81,5.81,0,0,0-1.74,2,5.65,5.65,0,0,0-.67,0,5.77,5.77,0,0,0-4.09,1.7h0a5.77,5.77,0,0,0-1.61,3.09,5.78,5.78,0,0,0-3.94,9v0.16c0,0.17,0,.37,0,0.6-0.05,6.52,0,12.89,0,19.31,0,3.53,0,7.08,0,11.93,0,6.4,2.39,11.29,6.17,14.68,4.22,3.78,10.15,5.66,16.39,5.66S44.57,70.79,48.79,67C52.57,63.61,55,58.72,55,52.32c0-4.85,0-8.41,0-11.93,0-6.42.06-12.8,0-19.31,0-.23,0-0.43,0-0.6V20.32A5.76,5.76,0,0,0,56,17Zm-2.33,1.23A3.67,3.67,0,0,1,53,19.35l-0.29.36,0.06,0.45c0,0.14,0,.3,0,0.46s0,0.33,0,.45h0c0.05,6.51,0,12.87,0,19.29,0,4.36,0,8.74,0,11.94,0,5.75-2.12,10.11-5.46,13.1-3.81,3.42-9.23,5.11-15,5.11s-11.17-1.7-15-5.11c-3.34-3-5.46-7.36-5.46-13.1,0-3.2,0-7.58,0-11.94,0-6.42-.07-12.78,0-19.29h0c0-.12,0-0.28,0-0.45s0-.32,0-0.46L12,19.71l-0.29-.36a3.66,3.66,0,0,1,2.84-6h0.13l1.08,0V12.32a3.65,3.65,0,0,1,1.07-2.59h0a3.66,3.66,0,0,1,2.59-1.07,3.6,3.6,0,0,1,.51,0,3.55,3.55,0,0,1,.5.11l1,0.28,0.33-1a3.67,3.67,0,0,1,5.73-1.7l1,0.76,0.6-1.08a3.65,3.65,0,0,1,3.2-1.88h0.25a3.65,3.65,0,0,1,3.2,1.88l0.6,1.08,1-.76A3.66,3.66,0,0,1,43,8.12l0.33,1,1-.28a3.56,3.56,0,0,1,.5-0.11,3.71,3.71,0,0,1,3.1,1h0A3.65,3.65,0,0,1,49,12.32V13.4l1.08,0H50.2A3.67,3.67,0,0,1,53.66,18.27Z"/><path class="cls-2" d="M27.6,36.6a5.34,5.34,0,0,0-10.07,0,1,1,0,0,0,1.89.67,3.33,3.33,0,0,1,6.29,0A1,1,0,0,0,27.6,36.6Z"/><path class="cls-2" d="M47.14,36.6a5.34,5.34,0,0,0-10.07,0,1,1,0,0,0,1.89.67,3.33,3.33,0,0,1,6.29,0A1,1,0,0,0,47.14,36.6Z"/><path class="cls-1" d="M32.33,38.13l-1.27,1.68-0.7,5.08c-3.19-1.72-4.28,1.09-4.28,2.9h12.5c0-1.81-1.09-4.62-4.28-2.9l-0.7-5.08Z"/><path class="cls-4" d="M32.33,39.89l-0.26.34L31.41,45a1.06,1.06,0,0,1-1.2.91,1,1,0,0,1-.36-0.12,2.85,2.85,0,0,0-1.3-.41,1,1,0,0,0-.58.17,1.53,1.53,0,0,0-.44.54,3,3,0,0,0-.24.6H37.38a3,3,0,0,0-.24-0.6,1.54,1.54,0,0,0-.45-0.54,1,1,0,0,0-.58-0.17,2.86,2.86,0,0,0-1.31.41A1.06,1.06,0,0,1,33.25,45l-0.66-4.78-0.26-.34h0Zm-2.12-.72,1.25-1.66a1.06,1.06,0,0,1,1.71,0l1.27,1.68h0a1.06,1.06,0,0,1,.2.49l0.52,3.75a3.93,3.93,0,0,1,.94-0.12,3.07,3.07,0,0,1,1.79.56A3.63,3.63,0,0,1,39,45.12a5.84,5.84,0,0,1,.64,2.67,1.06,1.06,0,0,1-1.06,1.06H26.08A1.06,1.06,0,0,1,25,47.79a5.84,5.84,0,0,1,.64-2.67,3.62,3.62,0,0,1,1.1-1.27,3.06,3.06,0,0,1,1.79-.56,3.87,3.87,0,0,1,.94.12L30,39.71A1.06,1.06,0,0,1,30.22,39.17Z"/><path class="cls-5" d="M32.34,58.85h0a8.38,8.38,0,0,1-5.53-2.33,10.44,10.44,0,0,1-2.46-3.29h16a10.63,10.63,0,0,1-2.47,3.29A8.38,8.38,0,0,1,32.34,58.85Z"/><path class="cls-4" d="M32.34,60.26h0Zm-0.13,0h0.13a8.76,8.76,0,0,0,3.4-.72,10.93,10.93,0,0,0,3.06-2h0a12.11,12.11,0,0,0,2.81-3.74h0a1.41,1.41,0,0,0-1.28-2H24.46a1.42,1.42,0,0,0-1.41,2,11.47,11.47,0,0,0,1.21,2,12,12,0,0,0,1.59,1.74h0a11,11,0,0,0,3.07,2,8.79,8.79,0,0,0,3.28.71h0ZM30,56.95a8.14,8.14,0,0,1-2.28-1.48h0a8.72,8.72,0,0,1-.8-0.83H37.74a8.89,8.89,0,0,1-.81.83l0,0a8.14,8.14,0,0,1-2.25,1.46,5.94,5.94,0,0,1-2.31.48H32.22A6,6,0,0,1,30,56.95Z"/></svg>