<svg id="Layer_1" data-name="Layer 1" xmlns="http://www.w3.org/2000/svg" viewBox="0 0 57.09 62"><defs><style>.cls-1,.cls-3{fill:#fff;}.cls-1,.cls-2,.cls-3{stroke:#535b6b;stroke-linejoin:round;stroke-width:2px;}.cls-2{fill:#aa807b;}.cls-3{stroke-linecap:round;}</style></defs><title>beard-man-icon</title><g id="_Group_" data-name="&lt;Group&gt;"><path id="_Path_" data-name="&lt;Path&gt;" class="cls-1" d="M1304.5,639.65c-11.54,0-21.5,7.44-21.5,19v20.08c0,5.45,13.36,20.28,21.5,20.28s21.5-14.83,21.5-20.28V658.64C1326,647.1,1316,639.65,1304.5,639.65Z" transform="translate(-1275.96 -638)"/><path id="_Compound_Path_" data-name="&lt;Compound Path&gt;" class="cls-2" d="M1325.61,655.77l0.27,0.06,0.07-8.24a7.92,7.92,0,0,0-7-7.94,160.42,160.42,0,0,0-28.92,0,7.92,7.92,0,0,0-7,7.82l-0.07,8.35,0.53-.12a11,11,0,0,0-.41,2.92v20.08c0,8.54,13.36,20.28,21.5,20.28s21.5-11.74,21.5-20.28V658.64A11,11,0,0,0,1325.61,655.77ZM1312.47,679h-1.29a12.38,12.38,0,0,0-13.49,0h-1.15a9.53,9.53,0,0,1-8.28-4.8v1a13.64,13.64,0,0,1-1.26-5.73V655.71a5.26,5.26,0,0,1,4.7-5.24,123.16,123.16,0,0,1,12.74-.64,121.77,121.77,0,0,1,12.88.66,5.26,5.26,0,0,1,4.68,5.24v13.74a13.64,13.64,0,0,1-1.26,5.73v-1A9.53,9.53,0,0,1,1312.47,679Z" transform="translate(-1275.96 -638)"/><g id="_Group_2" data-name="&lt;Group&gt;"><path id="_Path_2" data-name="&lt;Path&gt;" class="cls-3" d="M1298.82,664.16a4.34,4.34,0,0,0-8.18,0" transform="translate(-1275.96 -638)"/><path id="_Path_3" data-name="&lt;Path&gt;" class="cls-3" d="M1318.36,664.16a4.34,4.34,0,0,0-8.18,0" transform="translate(-1275.96 -638)"/></g><path id="_Path_4" data-name="&lt;Path&gt;" class="cls-1" d="M1306.19,671.12l-0.6-9.86h-2.17l-0.6,10.86h0c-1.27,0-2.29,0-2.29,1.29V674h8v-0.6c0-1.27-1-1.29-2.29-1.29v-1Z" transform="translate(-1275.96 -638)"/><path id="_Path_5" data-name="&lt;Path&gt;" class="cls-1" d="M1296.68,682c0.68,3,3.92,6.51,7.82,6.51s7.14-3.51,7.82-6.51h-15.65Z" transform="translate(-1275.96 -638)"/><path id="_Path_6" data-name="&lt;Path&gt;" class="cls-1" d="M1283,662.48h-2.37a3.66,3.66,0,0,0-3.61,4.32c0.72,3.79,2.34,8.71,6,8.71v-13Z" transform="translate(-1275.96 -638)"/><path id="_Path_7" data-name="&lt;Path&gt;" class="cls-1" d="M1326,662.48h2.37a3.66,3.66,0,0,1,3.61,4.32c-0.72,3.79-2.34,8.71-6,8.71v-13Z" transform="translate(-1275.96 -638)"/></g></svg>