<svg id="Layer_1" data-name="Layer 1" xmlns="http://www.w3.org/2000/svg" viewBox="0 0 57.09 66.2"><defs><style>.cls-1,.cls-3{fill:#fff;}.cls-1,.cls-2,.cls-3,.cls-4{stroke:#535b6b;stroke-linejoin:round;stroke-width:2px;}.cls-2{fill:#ffd180;}.cls-3{stroke-linecap:round;}.cls-4{fill:#535b6b;opacity:0.25;}</style></defs><title>white-man-icon</title><path id="_Path_" data-name="&lt;Path&gt;" class="cls-1" d="M767.5,636.65c-11.54,0-21.5,9.44-21.5,21v16.08c0,10.69,13.36,22.28,21.5,22.28S789,684.41,789,673.72V657.64C789,646.1,779,636.65,767.5,636.65Z" transform="translate(-738.96 -630.8)"/><path id="_Path_2" data-name="&lt;Path&gt;" class="cls-1" d="M746,662h-2.37a3.66,3.66,0,0,0-3.61,4.32c0.72,3.79,2.34,8.71,6,8.71V662Z" transform="translate(-738.96 -630.8)"/><path id="_Path_3" data-name="&lt;Path&gt;" class="cls-1" d="M789,662h2.37a3.66,3.66,0,0,1,3.61,4.32c-0.72,3.79-2.34,8.71-6,8.71V662Z" transform="translate(-738.96 -630.8)"/><path id="_Path_4" data-name="&lt;Path&gt;" class="cls-2" d="M788.39,667.05l1.53-17.21a7.16,7.16,0,0,0-.85-4.08h0c1.91-5.36-1.62-9.85-4.56-12.47a5.86,5.86,0,0,0-6.2-1c-8.22,3.5-18.51,1.37-23.22,3.62-5.27,2.52-5.56,6.68-5.56,6.68h0a7.17,7.17,0,0,0-4.43,7.27l1.53,17.21h1.76a1.48,1.48,0,0,0,1.48-1.55c-0.19-4-.3-14.85,3.72-18.72a95.43,95.43,0,0,0,26.31,5.6,5.89,5.89,0,0,1,5.5,5.88v7.3a1.48,1.48,0,0,0,1.48,1.48h1.53Z" transform="translate(-738.96 -630.8)"/><g id="_Group_" data-name="&lt;Group&gt;"><path id="_Path_5" data-name="&lt;Path&gt;" class="cls-3" d="M761.82,664.16a4.34,4.34,0,0,0-8.18,0" transform="translate(-738.96 -630.8)"/><path id="_Path_6" data-name="&lt;Path&gt;" class="cls-3" d="M781.36,664.16a4.34,4.34,0,0,0-8.18,0" transform="translate(-738.96 -630.8)"/></g><path id="_Path_7" data-name="&lt;Path&gt;" class="cls-1" d="M769.19,672.12l-0.6-10.86h-2.17l-0.6,10.86h0a2.29,2.29,0,0,0-2.29,2.29V675h8v-0.6a2.29,2.29,0,0,0-2.29-2.29h0Z" transform="translate(-738.96 -630.8)"/><path id="_Path_8" data-name="&lt;Path&gt;" class="cls-1" d="M759.68,680c0.68,3,3.92,6.51,7.82,6.51s7.14-3.51,7.82-6.51H759.68Z" transform="translate(-738.96 -630.8)"/><path id="_Path_9" data-name="&lt;Path&gt;" class="cls-4" d="M759.68,680c0.68,3,3.92,6.51,7.82,6.51s7.14-3.51,7.82-6.51H759.68Z" transform="translate(-738.96 -630.8)"/></svg>